<svg xmlns="http://www.w3.org/2000/svg" xmlns:v="https://svgstorm.com"
viewBox = "0 0 1000 1000"
width="1000"
height="1000">
<g fill="None" fill-opacity="0.0" stroke="#FFFFFF" stroke-opacity="1.00" stroke-width="0.3"><path d="
M 0.00 1000.00 
L 1000.00 1000.00
L 1000.00 0.00
L 0.00 0.00
L 0.00 1000.00
M 350.00 306.00 
C 339.45 314.28 331.45 320.85 323.23 332.23 C 315.01 343.61 309.88 353.45 306.01 368.01 C 302.13 382.56 302.04 400.17 302.00 417.00 C 301.96 433.83 278.87 423.40 269.77 416.23 C 260.67 409.06 249.78 400.22 243.25 389.75 C 236.71 379.28 229.77 368.66 218.25 361.75 C 206.73 354.84 193.27 348.71 179.00 348.00 C 164.72 347.29 146.81 344.98 133.32 340.68 C 119.83 336.38 108.71 330.85 96.92 323.08 C 85.13 315.31 79.76 307.68 70.08 296.92 C 60.41 286.16 61.24 267.05 77.67 265.67 C 94.11 264.29 102.74 256.78 117.22 252.22 C 131.70 247.67 143.19 242.96 158.02 240.02 C 172.86 237.09 190.96 235.56 206.00 237.00 C 221.04 238.43 235.27 242.02 248.23 247.77 C 261.19 253.53 271.22 258.71 282.25 266.75 C 293.27 274.80 302.43 280.95 313.70 288.30 C 324.96 295.65 337.65 300.81 350.00 306.00
M 629.00 482.00 
C 652.13 490.80 671.88 506.05 688.25 525.75 C 704.63 545.44 705.40 575.12 727.75 589.25 C 750.09 603.38 780.95 601.69 791.00 630.00
C 783.98 630.93 778.77 625.80 773.00 623.00
C 772.69 626.40 776.87 627.85 777.00 631.00
C 764.20 632.60 755.20 619.94 753.00 609.00
C 738.26 609.70 725.25 603.67 712.00 599.00
C 710.96 619.62 710.17 637.30 701.02 656.02 C 691.88 674.75 701.77 688.64 718.75 698.25 C 735.72 707.86 726.54 734.02 715.25 744.25 C 703.96 754.48 684.53 769.43 668.31 760.69 C 652.08 751.96 660.73 724.38 642.77 718.23 C 624.81 712.08 616.97 700.40 607.70 685.31 C 598.42 670.21 596.89 646.23 602.00 629.00
C 587.42 641.77 586.56 666.22 593.00 684.00
C 540.44 685.38 488.10 663.02 456.00 621.00
C 491.62 629.31 536.50 602.65 532.00 564.00
C 526.84 575.12 519.08 586.94 509.25 595.25 C 499.41 603.55 483.04 611.72 469.93 609.93 C 456.82 608.13 434.36 609.20 434.01 627.01 C 433.65 644.82 420.69 653.32 405.00 652.00 C 389.31 650.68 375.64 647.97 366.08 635.92 C 356.52 623.86 368.67 609.46 373.92 597.92 C 379.18 586.38 387.87 575.45 396.75 565.75 C 405.64 556.06 417.31 550.15 428.70 543.70 C 440.08 537.24 455.25 532.31 467.00 527.00
C 441.73 522.60 417.14 535.21 397.00 549.00
C 391.02 536.68 387.10 523.21 387.00 509.00
C 400.89 509.73 419.22 508.80 432.01 507.01 C 444.79 505.22 455.79 498.99 466.69 494.70 C 477.60 490.40 485.05 474.68 494.25 483.75 C 503.44 492.82 511.35 497.09 522.68 502.32 C 534.00 507.55 551.13 508.34 563.07 505.07 C 575.02 501.81 585.47 496.54 594.75 488.75 C 604.03 480.95 609.91 473.43 616.92 463.92 C 623.93 454.40 628.57 444.58 633.92 433.92 C 639.28 423.27 643.00 410.19 646.99 398.99 C 650.98 387.80 655.33 375.72 659.98 364.98 C 664.62 354.23 670.55 344.41 676.92 334.92 C 683.29 325.43 690.83 317.31 699.25 309.25 C 707.66 301.19 716.32 295.23 726.23 289.23 C 736.14 283.23 748.26 278.49 759.00 274.00
C 733.15 274.73 705.47 286.18 685.75 304.75 C 666.04 323.32 652.87 344.70 643.22 369.22 C 633.58 393.75 626.56 421.84 613.08 445.08 C 599.59 468.31 581.56 488.75 554.00 493.00 C 526.44 497.25 501.54 476.23 487.00 455.00
C 481.75 467.88 471.97 478.08 458.92 483.92 C 445.88 489.77 430.45 497.35 414.93 496.93 C 399.40 496.51 376.68 501.98 364.00 493.00
C 374.52 489.00 389.27 478.51 387.00 466.00
C 379.54 470.35 374.20 476.24 366.92 480.92 C 359.64 485.60 352.89 490.83 345.31 495.31 C 337.72 499.78 330.33 504.47 321.92 507.92 C 313.52 511.38 305.33 514.55 296.32 517.32 C 287.32 520.09 276.55 522.45 266.99 523.99 C 257.43 525.53 245.08 522.78 239.75 532.75 C 234.42 542.72 219.67 537.26 221.00 527.00 C 222.33 516.73 203.32 516.04 208.33 504.33 C 213.34 492.62 224.37 495.55 234.00 496.00 C 243.63 496.45 252.50 491.51 260.69 487.70 C 268.89 483.88 275.26 479.02 282.25 473.25 C 289.23 467.47 293.77 461.20 298.92 453.92 C 304.06 446.63 307.57 439.65 310.78 430.78 C 313.98 421.91 315.69 409.18 315.00 399.00 C 314.31 388.82 316.99 376.55 319.32 367.32 C 321.66 358.10 325.95 351.42 330.75 343.75 C 335.56 336.09 340.68 330.72 347.25 324.25 C 353.82 317.78 359.95 313.53 367.70 308.70 C 375.44 303.86 382.41 300.79 391.22 297.22 C 400.04 293.65 411.13 292.20 421.00 291.00 C 430.87 289.80 444.45 290.05 454.01 291.99 C 463.56 293.93 472.33 296.41 480.69 300.31 C 489.06 304.20 496.19 308.39 503.23 313.77 C 510.27 319.15 516.24 324.78 521.00 332.00
C 511.13 331.09 496.87 331.40 496.00 344.00
C 513.96 348.47 535.81 343.38 553.02 339.02 C 570.24 334.67 586.01 327.86 602.02 321.02 C 618.04 314.19 630.34 305.70 645.70 297.70 C 661.06 289.69 673.37 282.55 690.03 276.02 C 706.68 269.50 723.40 264.48 742.01 261.01 C 760.62 257.53 784.25 256.93 804.00 258.00 C 823.75 259.06 843.49 262.06 862.67 265.33 C 881.86 268.60 895.76 276.13 915.07 279.93 C 934.39 283.72 942.59 302.98 933.22 319.22 C 923.86 335.47 917.51 344.26 902.75 354.75 C 888.00 365.25 873.43 371.22 856.00 375.00 C 838.56 378.78 814.63 378.84 797.98 383.98 C 781.32 389.12 769.02 396.54 757.25 409.25 C 745.48 421.95 739.80 433.75 727.25 446.25 C 714.69 458.74 700.79 465.14 683.99 469.99 C 667.20 474.84 642.23 471.32 629.00 482.00
M 375.00 518.00 
C 376.61 527.00 376.36 536.59 381.31 544.69 C 386.26 552.80 387.48 559.49 379.75 565.75 C 372.03 572.02 371.57 578.96 366.08 586.08 C 360.58 593.19 359.37 600.35 355.03 608.03 C 350.68 615.70 353.44 630.14 343.33 630.33 C 333.22 630.52 324.44 628.78 315.92 625.08 C 307.41 621.37 301.57 617.55 299.01 608.99 C 296.45 600.43 303.67 592.52 306.92 584.92 C 310.18 577.33 314.51 569.72 318.77 562.77 C 323.03 555.82 328.36 550.79 334.70 545.70 C 341.04 540.61 347.85 535.71 355.08 532.08 C 362.30 528.44 367.64 521.06 375.00 518.00
M 530.00 687.00 
C 542.84 690.55 554.24 694.13 568.00 695.00 C 581.76 695.87 597.29 693.41 604.77 705.23 C 612.25 717.05 620.29 718.82 631.70 725.31 C 643.10 731.79 639.07 744.35 627.25 751.25 C 615.43 758.15 610.20 763.80 594.78 763.22 C 579.36 762.64 582.71 742.36 578.22 732.78 C 573.74 723.20 556.65 722.77 549.77 714.23 C 542.89 705.69 532.04 698.39 530.00 687.00 Z"/>
</g>
<g fill="None" fill-opacity="0.0" stroke="#000000" stroke-opacity="1.00" stroke-width="0.3"><path d="
M 350.00 306.00 
C 337.65 300.81 324.96 295.65 313.70 288.30 C 302.43 280.95 293.27 274.80 282.25 266.75 C 271.22 258.71 261.19 253.53 248.23 247.77 C 235.27 242.02 221.04 238.43 206.00 237.00 C 190.96 235.56 172.86 237.09 158.02 240.02 C 143.19 242.96 131.70 247.67 117.22 252.22 C 102.74 256.78 94.11 264.29 77.67 265.67 C 61.24 267.05 60.41 286.16 70.08 296.92 C 79.76 307.68 85.13 315.31 96.92 323.08 C 108.71 330.85 119.83 336.38 133.32 340.68 C 146.81 344.98 164.72 347.29 179.00 348.00 C 193.27 348.71 206.73 354.84 218.25 361.75 C 229.77 368.66 236.71 379.28 243.25 389.75 C 249.78 400.22 260.67 409.06 269.77 416.23 C 278.87 423.40 301.96 433.83 302.00 417.00 C 302.04 400.17 302.13 382.56 306.01 368.01 C 309.88 353.45 315.01 343.61 323.23 332.23 C 331.45 320.85 339.45 314.28 350.00 306.00 Z"/>
</g>
<g fill="None" fill-opacity="0.0" stroke="#000000" stroke-opacity="1.00" stroke-width="0.3"><path d="
M 629.00 482.00 
C 642.23 471.32 667.20 474.84 683.99 469.99 C 700.79 465.14 714.69 458.74 727.25 446.25 C 739.80 433.75 745.48 421.95 757.25 409.25 C 769.02 396.54 781.32 389.12 797.98 383.98 C 814.63 378.84 838.56 378.78 856.00 375.00 C 873.43 371.22 888.00 365.25 902.75 354.75 C 917.51 344.26 923.86 335.47 933.22 319.22 C 942.59 302.98 934.39 283.72 915.07 279.93 C 895.76 276.13 881.86 268.60 862.67 265.33 C 843.49 262.06 823.75 259.06 804.00 258.00 C 784.25 256.93 760.62 257.53 742.01 261.01 C 723.40 264.48 706.68 269.50 690.03 276.02 C 673.37 282.55 661.06 289.69 645.70 297.70 C 630.34 305.70 618.04 314.19 602.02 321.02 C 586.01 327.86 570.24 334.67 553.02 339.02 C 535.81 343.38 513.96 348.47 496.00 344.00
C 496.87 331.40 511.13 331.09 521.00 332.00
C 516.24 324.78 510.27 319.15 503.23 313.77 C 496.19 308.39 489.06 304.20 480.69 300.31 C 472.33 296.41 463.56 293.93 454.01 291.99 C 444.45 290.05 430.87 289.80 421.00 291.00 C 411.13 292.20 400.04 293.65 391.22 297.22 C 382.41 300.79 375.44 303.86 367.70 308.70 C 359.95 313.53 353.82 317.78 347.25 324.25 C 340.68 330.72 335.56 336.09 330.75 343.75 C 325.95 351.42 321.66 358.10 319.32 367.32 C 316.99 376.55 314.31 388.82 315.00 399.00 C 315.69 409.18 313.98 421.91 310.78 430.78 C 307.57 439.65 304.06 446.63 298.92 453.92 C 293.77 461.20 289.23 467.47 282.25 473.25 C 275.26 479.02 268.89 483.88 260.69 487.70 C 252.50 491.51 243.63 496.45 234.00 496.00 C 224.37 495.55 213.34 492.62 208.33 504.33 C 203.32 516.04 222.33 516.73 221.00 527.00 C 219.67 537.26 234.42 542.72 239.75 532.75 C 245.08 522.78 257.43 525.53 266.99 523.99 C 276.55 522.45 287.32 520.09 296.32 517.32 C 305.33 514.55 313.52 511.38 321.92 507.92 C 330.33 504.47 337.72 499.78 345.31 495.31 C 352.89 490.83 359.64 485.60 366.92 480.92 C 374.20 476.24 379.54 470.35 387.00 466.00
C 389.27 478.51 374.52 489.00 364.00 493.00
C 376.68 501.98 399.40 496.51 414.93 496.93 C 430.45 497.35 445.88 489.77 458.92 483.92 C 471.97 478.08 481.75 467.88 487.00 455.00
C 501.54 476.23 526.44 497.25 554.00 493.00 C 581.56 488.75 599.59 468.31 613.08 445.08 C 626.56 421.84 633.58 393.75 643.22 369.22 C 652.87 344.70 666.04 323.32 685.75 304.75 C 705.47 286.18 733.15 274.73 759.00 274.00
C 748.26 278.49 736.14 283.23 726.23 289.23 C 716.32 295.23 707.66 301.19 699.25 309.25 C 690.83 317.31 683.29 325.43 676.92 334.92 C 670.55 344.41 664.62 354.23 659.98 364.98 C 655.33 375.72 650.98 387.80 646.99 398.99 C 643.00 410.19 639.28 423.27 633.92 433.92 C 628.57 444.58 623.93 454.40 616.92 463.92 C 609.91 473.43 604.03 480.95 594.75 488.75 C 585.47 496.54 575.02 501.81 563.07 505.07 C 551.13 508.34 534.00 507.55 522.68 502.32 C 511.35 497.09 503.44 492.82 494.25 483.75 C 485.05 474.68 477.60 490.40 466.69 494.70 C 455.79 498.99 444.79 505.22 432.01 507.01 C 419.22 508.80 400.89 509.73 387.00 509.00
C 387.10 523.21 391.02 536.68 397.00 549.00
C 417.14 535.21 441.73 522.60 467.00 527.00
C 455.25 532.31 440.08 537.24 428.70 543.70 C 417.31 550.15 405.64 556.06 396.75 565.75 C 387.87 575.45 379.18 586.38 373.92 597.92 C 368.67 609.46 356.52 623.86 366.08 635.92 C 375.64 647.97 389.31 650.68 405.00 652.00 C 420.69 653.32 433.65 644.82 434.01 627.01 C 434.36 609.20 456.82 608.13 469.93 609.93 C 483.04 611.72 499.41 603.55 509.25 595.25 C 519.08 586.94 526.84 575.12 532.00 564.00
C 536.50 602.65 491.62 629.31 456.00 621.00
C 488.10 663.02 540.44 685.38 593.00 684.00
C 586.56 666.22 587.42 641.77 602.00 629.00
C 596.89 646.23 598.42 670.21 607.70 685.31 C 616.97 700.40 624.81 712.08 642.77 718.23 C 660.73 724.38 652.08 751.96 668.31 760.69 C 684.53 769.43 703.96 754.48 715.25 744.25 C 726.54 734.02 735.72 707.86 718.75 698.25 C 701.77 688.64 691.88 674.75 701.02 656.02 C 710.17 637.30 710.96 619.62 712.00 599.00
C 725.25 603.67 738.26 609.70 753.00 609.00
C 755.20 619.94 764.20 632.60 777.00 631.00
C 776.87 627.85 772.69 626.40 773.00 623.00
C 778.77 625.80 783.98 630.93 791.00 630.00
C 780.95 601.69 750.09 603.38 727.75 589.25 C 705.40 575.12 704.63 545.44 688.25 525.75 C 671.88 506.05 652.13 490.80 629.00 482.00
M 411.00 425.00 
C 402.07 424.35 393.33 423.42 385.00 427.00
C 382.14 416.11 383.63 394.68 399.01 394.01 C 414.38 393.34 415.76 414.87 411.00 425.00 Z"/>
</g>
<g fill="None" fill-opacity="0.0" stroke="#FFFFFF" stroke-opacity="1.00" stroke-width="0.3"><path d="
M 411.00 425.00 
C 415.76 414.87 414.38 393.34 399.01 394.01 C 383.63 394.68 382.14 416.11 385.00 427.00
C 393.33 423.42 402.07 424.35 411.00 425.00 Z"/>
</g>
<g fill="None" fill-opacity="0.0" stroke="#000000" stroke-opacity="1.00" stroke-width="0.3"><path d="
M 375.00 518.00 
C 367.64 521.06 362.30 528.44 355.08 532.08 C 347.85 535.71 341.04 540.61 334.70 545.70 C 328.36 550.79 323.03 555.82 318.77 562.77 C 314.51 569.72 310.18 577.33 306.92 584.92 C 303.67 592.52 296.45 600.43 299.01 608.99 C 301.57 617.55 307.41 621.37 315.92 625.08 C 324.44 628.78 333.22 630.52 343.33 630.33 C 353.44 630.14 350.68 615.70 355.03 608.03 C 359.37 600.35 360.58 593.19 366.08 586.08 C 371.57 578.96 372.03 572.02 379.75 565.75 C 387.48 559.49 386.26 552.80 381.31 544.69 C 376.36 536.59 376.61 527.00 375.00 518.00 Z"/>
</g>
<g fill="None" fill-opacity="0.0" stroke="#000000" stroke-opacity="1.00" stroke-width="0.3"><path d="
M 530.00 687.00 
C 532.04 698.39 542.89 705.69 549.77 714.23 C 556.65 722.77 573.74 723.20 578.22 732.78 C 582.71 742.36 579.36 762.64 594.78 763.22 C 610.20 763.80 615.43 758.15 627.25 751.25 C 639.07 744.35 643.10 731.79 631.70 725.31 C 620.29 718.82 612.25 717.05 604.77 705.23 C 597.29 693.41 581.76 695.87 568.00 695.00 C 554.24 694.13 542.84 690.55 530.00 687.00 Z"/>
</g>
<g fill="#FFFFFF" fill-opacity="1.00" stroke="None">
<path d="
M 0.00 1000.00 
L 1000.00 1000.00
L 1000.00 0.00
L 0.00 0.00
L 0.00 1000.00
M 350.00 306.00 
C 339.45 314.28 331.45 320.85 323.23 332.23 C 315.01 343.61 309.88 353.45 306.01 368.01 C 302.13 382.56 302.04 400.17 302.00 417.00 C 301.96 433.83 278.87 423.40 269.77 416.23 C 260.67 409.06 249.78 400.22 243.25 389.75 C 236.71 379.28 229.77 368.66 218.25 361.75 C 206.73 354.84 193.27 348.71 179.00 348.00 C 164.72 347.29 146.81 344.98 133.32 340.68 C 119.83 336.38 108.71 330.85 96.92 323.08 C 85.13 315.31 79.76 307.68 70.08 296.92 C 60.41 286.16 61.24 267.05 77.67 265.67 C 94.11 264.29 102.74 256.78 117.22 252.22 C 131.70 247.67 143.19 242.96 158.02 240.02 C 172.86 237.09 190.96 235.56 206.00 237.00 C 221.04 238.43 235.27 242.02 248.23 247.77 C 261.19 253.53 271.22 258.71 282.25 266.75 C 293.27 274.80 302.43 280.95 313.70 288.30 C 324.96 295.65 337.65 300.81 350.00 306.00
M 629.00 482.00 
C 652.13 490.80 671.88 506.05 688.25 525.75 C 704.63 545.44 705.40 575.12 727.75 589.25 C 750.09 603.38 780.95 601.69 791.00 630.00
C 783.98 630.93 778.77 625.80 773.00 623.00
C 772.69 626.40 776.87 627.85 777.00 631.00
C 764.20 632.60 755.20 619.94 753.00 609.00
C 738.26 609.70 725.25 603.67 712.00 599.00
C 710.96 619.62 710.17 637.30 701.02 656.02 C 691.88 674.75 701.77 688.64 718.75 698.25 C 735.72 707.86 726.54 734.02 715.25 744.25 C 703.96 754.48 684.53 769.43 668.31 760.69 C 652.08 751.96 660.73 724.38 642.77 718.23 C 624.81 712.08 616.97 700.40 607.70 685.31 C 598.42 670.21 596.89 646.23 602.00 629.00
C 587.42 641.77 586.56 666.22 593.00 684.00
C 540.44 685.38 488.10 663.02 456.00 621.00
C 491.62 629.31 536.50 602.65 532.00 564.00
C 526.84 575.12 519.08 586.94 509.25 595.25 C 499.41 603.55 483.04 611.72 469.93 609.93 C 456.82 608.13 434.36 609.20 434.01 627.01 C 433.65 644.82 420.69 653.32 405.00 652.00 C 389.31 650.68 375.64 647.97 366.08 635.92 C 356.52 623.86 368.67 609.46 373.92 597.92 C 379.18 586.38 387.87 575.45 396.75 565.75 C 405.64 556.06 417.31 550.15 428.70 543.70 C 440.08 537.24 455.25 532.31 467.00 527.00
C 441.73 522.60 417.14 535.21 397.00 549.00
C 391.02 536.68 387.10 523.21 387.00 509.00
C 400.89 509.73 419.22 508.80 432.01 507.01 C 444.79 505.22 455.79 498.99 466.69 494.70 C 477.60 490.40 485.05 474.68 494.25 483.75 C 503.44 492.82 511.35 497.09 522.68 502.32 C 534.00 507.55 551.13 508.34 563.07 505.07 C 575.02 501.81 585.47 496.54 594.75 488.75 C 604.03 480.95 609.91 473.43 616.92 463.92 C 623.93 454.40 628.57 444.58 633.92 433.92 C 639.28 423.27 643.00 410.19 646.99 398.99 C 650.98 387.80 655.33 375.72 659.98 364.98 C 664.62 354.23 670.55 344.41 676.92 334.92 C 683.29 325.43 690.83 317.31 699.25 309.25 C 707.66 301.19 716.32 295.23 726.23 289.23 C 736.14 283.23 748.26 278.49 759.00 274.00
C 733.15 274.73 705.47 286.18 685.75 304.75 C 666.04 323.32 652.87 344.70 643.22 369.22 C 633.58 393.75 626.56 421.84 613.08 445.08 C 599.59 468.31 581.56 488.75 554.00 493.00 C 526.44 497.25 501.54 476.23 487.00 455.00
C 481.75 467.88 471.97 478.08 458.92 483.92 C 445.88 489.77 430.45 497.35 414.93 496.93 C 399.40 496.51 376.68 501.98 364.00 493.00
C 374.52 489.00 389.27 478.51 387.00 466.00
C 379.54 470.35 374.20 476.24 366.92 480.92 C 359.64 485.60 352.89 490.83 345.31 495.31 C 337.72 499.78 330.33 504.47 321.92 507.92 C 313.52 511.38 305.33 514.55 296.32 517.32 C 287.32 520.09 276.55 522.45 266.99 523.99 C 257.43 525.53 245.08 522.78 239.75 532.75 C 234.42 542.72 219.67 537.26 221.00 527.00 C 222.33 516.73 203.32 516.04 208.33 504.33 C 213.34 492.62 224.37 495.55 234.00 496.00 C 243.63 496.45 252.50 491.51 260.69 487.70 C 268.89 483.88 275.26 479.02 282.25 473.25 C 289.23 467.47 293.77 461.20 298.92 453.92 C 304.06 446.63 307.57 439.65 310.78 430.78 C 313.98 421.91 315.69 409.18 315.00 399.00 C 314.31 388.82 316.99 376.55 319.32 367.32 C 321.66 358.10 325.95 351.42 330.75 343.75 C 335.56 336.09 340.68 330.72 347.25 324.25 C 353.82 317.78 359.95 313.53 367.70 308.70 C 375.44 303.86 382.41 300.79 391.22 297.22 C 400.04 293.65 411.13 292.20 421.00 291.00 C 430.87 289.80 444.45 290.05 454.01 291.99 C 463.56 293.93 472.33 296.41 480.69 300.31 C 489.06 304.20 496.19 308.39 503.23 313.77 C 510.27 319.15 516.24 324.78 521.00 332.00
C 511.13 331.09 496.87 331.40 496.00 344.00
C 513.96 348.47 535.81 343.38 553.02 339.02 C 570.24 334.67 586.01 327.86 602.02 321.02 C 618.04 314.19 630.34 305.70 645.70 297.70 C 661.06 289.69 673.37 282.55 690.03 276.02 C 706.68 269.50 723.40 264.48 742.01 261.01 C 760.62 257.53 784.25 256.93 804.00 258.00 C 823.75 259.06 843.49 262.06 862.67 265.33 C 881.86 268.60 895.76 276.13 915.07 279.93 C 934.39 283.72 942.59 302.98 933.22 319.22 C 923.86 335.47 917.51 344.26 902.75 354.75 C 888.00 365.25 873.43 371.22 856.00 375.00 C 838.56 378.78 814.63 378.84 797.98 383.98 C 781.32 389.12 769.02 396.54 757.25 409.25 C 745.48 421.95 739.80 433.75 727.25 446.25 C 714.69 458.74 700.79 465.14 683.99 469.99 C 667.20 474.84 642.23 471.32 629.00 482.00
M 375.00 518.00 
C 376.61 527.00 376.36 536.59 381.31 544.69 C 386.26 552.80 387.48 559.49 379.75 565.75 C 372.03 572.02 371.57 578.96 366.08 586.08 C 360.58 593.19 359.37 600.35 355.03 608.03 C 350.68 615.70 353.44 630.14 343.33 630.33 C 333.22 630.52 324.44 628.78 315.92 625.08 C 307.41 621.37 301.57 617.55 299.01 608.99 C 296.45 600.43 303.67 592.52 306.92 584.92 C 310.18 577.33 314.51 569.72 318.77 562.77 C 323.03 555.82 328.36 550.79 334.70 545.70 C 341.04 540.61 347.85 535.71 355.08 532.08 C 362.30 528.44 367.64 521.06 375.00 518.00
M 530.00 687.00 
C 542.84 690.55 554.24 694.13 568.00 695.00 C 581.76 695.87 597.29 693.41 604.77 705.23 C 612.25 717.05 620.29 718.82 631.70 725.31 C 643.10 731.79 639.07 744.35 627.25 751.25 C 615.43 758.15 610.20 763.80 594.78 763.22 C 579.36 762.64 582.71 742.36 578.22 732.78 C 573.74 723.20 556.65 722.77 549.77 714.23 C 542.89 705.69 532.04 698.39 530.00 687.00 Z"/>
</g>
<g fill="#000000" fill-opacity="1.00" stroke="None">
<path d="
M 350.00 306.00 
C 337.65 300.81 324.96 295.65 313.70 288.30 C 302.43 280.95 293.27 274.80 282.25 266.75 C 271.22 258.71 261.19 253.53 248.23 247.77 C 235.27 242.02 221.04 238.43 206.00 237.00 C 190.96 235.56 172.86 237.09 158.02 240.02 C 143.19 242.96 131.70 247.67 117.22 252.22 C 102.74 256.78 94.11 264.29 77.67 265.67 C 61.24 267.05 60.41 286.16 70.08 296.92 C 79.76 307.68 85.13 315.31 96.92 323.08 C 108.71 330.85 119.83 336.38 133.32 340.68 C 146.81 344.98 164.72 347.29 179.00 348.00 C 193.27 348.71 206.73 354.84 218.25 361.75 C 229.77 368.66 236.71 379.28 243.25 389.75 C 249.78 400.22 260.67 409.06 269.77 416.23 C 278.87 423.40 301.96 433.83 302.00 417.00 C 302.04 400.17 302.13 382.56 306.01 368.01 C 309.88 353.45 315.01 343.61 323.23 332.23 C 331.45 320.85 339.45 314.28 350.00 306.00 Z"/>
</g>
<g fill="#000000" fill-opacity="1.00" stroke="None">
<path d="
M 629.00 482.00 
C 642.23 471.32 667.20 474.84 683.99 469.99 C 700.79 465.14 714.69 458.74 727.25 446.25 C 739.80 433.75 745.48 421.95 757.25 409.25 C 769.02 396.54 781.32 389.12 797.98 383.98 C 814.63 378.84 838.56 378.78 856.00 375.00 C 873.43 371.22 888.00 365.25 902.75 354.75 C 917.51 344.26 923.86 335.47 933.22 319.22 C 942.59 302.98 934.39 283.72 915.07 279.93 C 895.76 276.13 881.86 268.60 862.67 265.33 C 843.49 262.06 823.75 259.06 804.00 258.00 C 784.25 256.93 760.62 257.53 742.01 261.01 C 723.40 264.48 706.68 269.50 690.03 276.02 C 673.37 282.55 661.06 289.69 645.70 297.70 C 630.34 305.70 618.04 314.19 602.02 321.02 C 586.01 327.86 570.24 334.67 553.02 339.02 C 535.81 343.38 513.96 348.47 496.00 344.00
C 496.87 331.40 511.13 331.09 521.00 332.00
C 516.24 324.78 510.27 319.15 503.23 313.77 C 496.19 308.39 489.06 304.20 480.69 300.31 C 472.33 296.41 463.56 293.93 454.01 291.99 C 444.45 290.05 430.87 289.80 421.00 291.00 C 411.13 292.20 400.04 293.65 391.22 297.22 C 382.41 300.79 375.44 303.86 367.70 308.70 C 359.95 313.53 353.82 317.78 347.25 324.25 C 340.68 330.72 335.56 336.09 330.75 343.75 C 325.95 351.42 321.66 358.10 319.32 367.32 C 316.99 376.55 314.31 388.82 315.00 399.00 C 315.69 409.18 313.98 421.91 310.78 430.78 C 307.57 439.65 304.06 446.63 298.92 453.92 C 293.77 461.20 289.23 467.47 282.25 473.25 C 275.26 479.02 268.89 483.88 260.69 487.70 C 252.50 491.51 243.63 496.45 234.00 496.00 C 224.37 495.55 213.34 492.62 208.33 504.33 C 203.32 516.04 222.33 516.73 221.00 527.00 C 219.67 537.26 234.42 542.72 239.75 532.75 C 245.08 522.78 257.43 525.53 266.99 523.99 C 276.55 522.45 287.32 520.09 296.32 517.32 C 305.33 514.55 313.52 511.38 321.92 507.92 C 330.33 504.47 337.72 499.78 345.31 495.31 C 352.89 490.83 359.64 485.60 366.92 480.92 C 374.20 476.24 379.54 470.35 387.00 466.00
C 389.27 478.51 374.52 489.00 364.00 493.00
C 376.68 501.98 399.40 496.51 414.93 496.93 C 430.45 497.35 445.88 489.77 458.92 483.92 C 471.97 478.08 481.75 467.88 487.00 455.00
C 501.54 476.23 526.44 497.25 554.00 493.00 C 581.56 488.75 599.59 468.31 613.08 445.08 C 626.56 421.84 633.58 393.75 643.22 369.22 C 652.87 344.70 666.04 323.32 685.75 304.75 C 705.47 286.18 733.15 274.73 759.00 274.00
C 748.26 278.49 736.14 283.23 726.23 289.23 C 716.32 295.23 707.66 301.19 699.25 309.25 C 690.83 317.31 683.29 325.43 676.92 334.92 C 670.55 344.41 664.62 354.23 659.98 364.98 C 655.33 375.72 650.98 387.80 646.99 398.99 C 643.00 410.19 639.28 423.27 633.92 433.92 C 628.57 444.58 623.93 454.40 616.92 463.92 C 609.91 473.43 604.03 480.95 594.75 488.75 C 585.47 496.54 575.02 501.81 563.07 505.07 C 551.13 508.34 534.00 507.55 522.68 502.32 C 511.35 497.09 503.44 492.82 494.25 483.75 C 485.05 474.68 477.60 490.40 466.69 494.70 C 455.79 498.99 444.79 505.22 432.01 507.01 C 419.22 508.80 400.89 509.73 387.00 509.00
C 387.10 523.21 391.02 536.68 397.00 549.00
C 417.14 535.21 441.73 522.60 467.00 527.00
C 455.25 532.31 440.08 537.24 428.70 543.70 C 417.31 550.15 405.64 556.06 396.75 565.75 C 387.87 575.45 379.18 586.38 373.92 597.92 C 368.67 609.46 356.52 623.86 366.08 635.92 C 375.64 647.97 389.31 650.68 405.00 652.00 C 420.69 653.32 433.65 644.82 434.01 627.01 C 434.36 609.20 456.82 608.13 469.93 609.93 C 483.04 611.72 499.41 603.55 509.25 595.25 C 519.08 586.94 526.84 575.12 532.00 564.00
C 536.50 602.65 491.62 629.31 456.00 621.00
C 488.10 663.02 540.44 685.38 593.00 684.00
C 586.56 666.22 587.42 641.77 602.00 629.00
C 596.89 646.23 598.42 670.21 607.70 685.31 C 616.97 700.40 624.81 712.08 642.77 718.23 C 660.73 724.38 652.08 751.96 668.31 760.69 C 684.53 769.43 703.96 754.48 715.25 744.25 C 726.54 734.02 735.72 707.86 718.75 698.25 C 701.77 688.64 691.88 674.75 701.02 656.02 C 710.17 637.30 710.96 619.62 712.00 599.00
C 725.25 603.67 738.26 609.70 753.00 609.00
C 755.20 619.94 764.20 632.60 777.00 631.00
C 776.87 627.85 772.69 626.40 773.00 623.00
C 778.77 625.80 783.98 630.93 791.00 630.00
C 780.95 601.69 750.09 603.38 727.75 589.25 C 705.40 575.12 704.63 545.44 688.25 525.75 C 671.88 506.05 652.13 490.80 629.00 482.00
M 411.00 425.00 
C 402.07 424.35 393.33 423.42 385.00 427.00
C 382.14 416.11 383.63 394.68 399.01 394.01 C 414.38 393.34 415.76 414.87 411.00 425.00 Z"/>
</g>
<g fill="#FFFFFF" fill-opacity="1.00" stroke="None">
<path d="
M 411.00 425.00 
C 415.76 414.87 414.38 393.34 399.01 394.01 C 383.63 394.68 382.14 416.11 385.00 427.00
C 393.33 423.42 402.07 424.35 411.00 425.00 Z"/>
</g>
<g fill="#000000" fill-opacity="1.00" stroke="None">
<path d="
M 375.00 518.00 
C 367.64 521.06 362.30 528.44 355.08 532.08 C 347.85 535.71 341.04 540.61 334.70 545.70 C 328.36 550.79 323.03 555.82 318.77 562.77 C 314.51 569.72 310.18 577.33 306.92 584.92 C 303.67 592.52 296.45 600.43 299.01 608.99 C 301.57 617.55 307.41 621.37 315.92 625.08 C 324.44 628.78 333.22 630.52 343.33 630.33 C 353.44 630.14 350.68 615.70 355.03 608.03 C 359.37 600.35 360.58 593.19 366.08 586.08 C 371.57 578.96 372.03 572.02 379.75 565.75 C 387.48 559.49 386.26 552.80 381.31 544.69 C 376.36 536.59 376.61 527.00 375.00 518.00 Z"/>
</g>
<g fill="#000000" fill-opacity="1.00" stroke="None">
<path d="
M 530.00 687.00 
C 532.04 698.39 542.89 705.69 549.77 714.23 C 556.65 722.77 573.74 723.20 578.22 732.78 C 582.71 742.36 579.36 762.64 594.78 763.22 C 610.20 763.80 615.43 758.15 627.25 751.25 C 639.07 744.35 643.10 731.79 631.70 725.31 C 620.29 718.82 612.25 717.05 604.77 705.23 C 597.29 693.41 581.76 695.87 568.00 695.00 C 554.24 694.13 542.84 690.55 530.00 687.00 Z"/>
</g>
</svg>