<svg version="1.1" id="Layer_1" xmlns="http://www.w3.org/2000/svg" xmlns:xlink="http://www.w3.org/1999/xlink" x="0px" y="0px"
	 width="100%" viewBox="0 0 736 992" enable-background="new 0 0 736 992" xml:space="preserve">
<path fill="#000000" opacity="1.000000" stroke="none" 
	d="
M737.000000,583.531372 
	C733.390991,596.270691 730.802307,608.812866 726.766724,620.979370 
	C714.070190,659.257568 695.147827,694.141113 670.802979,726.260864 
	C639.435120,767.646545 600.691833,800.247498 555.532593,825.653748 
	C518.519958,846.476746 478.589020,858.357727 437.206390,866.348267 
	C409.868225,871.627075 382.243683,872.634949 354.645020,871.098999 
	C317.597321,869.037170 281.598724,860.861511 246.641800,848.457275 
	C203.096313,833.005432 164.550751,808.994141 129.819885,778.757812 
	C105.174675,757.301880 84.516815,732.335144 66.403107,705.202087 
	C48.643753,678.599915 34.636635,650.141541 24.833822,619.718994 
	C18.153316,598.986450 13.517140,577.712769 9.624411,556.270020 
	C5.376363,532.869934 5.286026,509.265839 5.692906,485.640656 
	C6.127088,460.430145 10.927859,435.838287 16.672356,411.377563 
	C23.710567,381.408051 34.134457,352.663757 48.735748,325.619537 
	C63.407936,298.444061 81.311111,273.430542 102.068504,250.463348 
	C125.715820,224.298599 152.997635,202.560760 182.841995,184.051651 
	C216.212097,163.355911 252.439636,149.666885 290.628265,140.533447 
	C326.219482,132.021286 362.258698,128.360611 398.552612,130.974731 
	C448.527008,134.574173 496.575653,146.657776 541.732666,169.075302 
	C581.528564,188.831421 616.680969,214.888763 646.985229,247.283203 
	C667.748718,269.478821 685.474548,293.994720 700.248474,320.658234 
	C716.488525,349.967865 728.343323,380.867889 735.617310,413.553925 
	C735.832031,414.518799 736.303467,415.426544 736.827637,416.680481 
	C737.000000,472.354218 737.000000,527.708435 737.000000,583.531372 
M708.274048,508.961243 
	C708.538879,487.971191 707.230774,467.125275 703.848999,446.359497 
	C697.160461,405.289368 683.248230,366.868378 661.985168,331.190826 
	C631.202271,279.540039 589.440613,239.016739 536.813110,209.887619 
	C494.553436,186.497009 449.168945,173.034042 401.050842,169.563599 
	C379.309723,167.995560 357.485962,168.560730 335.710358,171.125137 
	C303.886719,174.872879 273.345612,183.155197 244.022278,195.828751 
	C188.658127,219.757141 142.909958,255.965393 107.522423,304.863525 
	C57.126358,374.500336 37.215092,452.473267 45.554909,537.718567 
	C48.100567,563.738953 54.308270,589.071716 63.184689,613.753479 
	C81.102882,663.576843 109.296974,706.664062 147.712631,742.976196 
	C178.174622,771.770264 212.969528,793.917786 251.950638,809.528442 
	C283.869659,822.311096 316.939056,830.204590 351.173584,832.440002 
	C372.923126,833.860168 394.743866,833.549927 416.501953,830.860718 
	C448.261383,826.935547 478.838379,818.819946 508.165771,806.112244 
	C546.953064,789.305420 581.326538,766.002319 611.219971,736.007446 
	C647.607483,699.496643 674.093323,656.895569 690.710693,608.170593 
	C701.569336,576.331421 707.463196,543.558228 708.274048,508.961243 
z"/>
<path fill="#000000" opacity="1.000000" stroke="none" 
	d="
M456.703918,286.151917 
	C531.962952,316.813751 579.960999,370.965912 596.119812,450.399017 
	C610.266907,519.942200 594.283569,583.457153 548.332153,638.109558 
	C513.163635,679.937317 467.960052,705.523376 413.943604,714.328674 
	C356.365936,723.714600 302.163177,713.772522 252.789978,682.102905 
	C199.815506,648.123230 166.435059,599.816467 154.073120,538.275696 
	C136.103180,448.816895 173.713409,359.236786 248.605194,309.463257 
	C277.739960,290.100067 309.617462,277.907410 344.467133,273.515289 
	C382.807281,268.683197 420.116913,272.311401 456.703918,286.151917 
M317.373474,317.051147 
	C311.010193,319.503418 304.534058,321.699585 298.300751,324.446747 
	C218.182693,359.756470 172.091476,445.146362 190.754181,533.152039 
	C211.028107,628.755737 301.267578,690.484863 396.669342,679.869690 
	C428.007355,676.382751 456.913757,666.254883 482.252930,647.943542 
	C543.975037,603.340210 571.473755,542.951355 561.606140,466.904419 
	C556.682983,428.963165 540.482422,395.523010 513.884155,368.259033 
	C459.206390,312.212891 393.400574,295.821747 317.373474,317.051147 
z"/>
<path fill="#000000" opacity="1.000000" stroke="none" 
	d="
M483.373962,249.817734 
	C487.253448,250.815903 489.527679,249.619278 491.126190,246.145325 
	C492.651031,242.831390 494.768158,239.793289 496.563110,236.599182 
	C497.842133,234.323090 499.366699,232.396790 496.651093,229.583282 
	C494.407440,227.258759 497.594513,225.095551 498.695190,223.077286 
	C501.879120,217.238953 502.005371,217.247101 507.818634,220.545563 
	C513.031555,223.503387 518.162720,226.604980 523.361145,229.588791 
	C525.471619,230.800186 526.403076,232.124146 525.650330,234.831741 
	C524.239990,239.904816 523.339905,245.119690 522.055054,251.075272 
	C526.769714,249.282928 529.173645,245.839386 532.163269,243.249023 
	C538.093506,238.110733 538.023193,238.029617 544.872986,242.043701 
	C549.470764,244.738098 554.041321,247.480621 558.677795,250.106674 
	C561.021729,251.434265 561.684326,252.947632 560.079590,255.340149 
	C558.784607,257.270905 557.731750,259.364899 556.585510,261.394379 
	C555.993713,262.442139 555.205383,263.773376 553.967163,263.202698 
	C549.520691,261.153351 548.553528,264.648193 546.998596,267.288300 
	C545.223877,270.301575 543.487061,273.337463 541.688477,276.336334 
	C540.281067,278.682922 538.774963,280.770599 542.111328,283.053986 
	C544.070190,284.394623 542.110168,286.074585 541.332581,287.368652 
	C535.631470,296.856323 537.772827,297.072754 527.583130,291.055115 
	C524.141724,289.022736 520.728638,286.928406 517.187012,285.084412 
	C514.421814,283.644684 514.158936,281.914642 515.781433,279.469452 
	C517.069214,277.528656 518.187988,275.476471 519.441772,273.511963 
	C519.879272,272.826447 520.502075,271.707214 521.029724,271.713226 
	C530.582336,271.821686 528.719238,262.052734 533.298889,257.864319 
	C527.188232,260.961670 523.014893,266.280426 517.989807,270.584869 
	C515.713867,272.534454 513.462585,274.528473 511.359253,276.659454 
	C509.433228,278.610748 507.709656,279.674438 504.862030,278.040710 
	C501.916809,276.350983 502.362122,274.036621 502.882141,271.573334 
	C505.003723,261.523163 507.179047,251.484360 508.707916,241.168381 
	C506.578644,244.598785 504.519867,248.075592 502.299957,251.446274 
	C500.164337,254.688934 498.220612,257.804382 502.819946,260.340515 
	C502.739899,260.820343 502.750916,261.003906 502.679596,261.146240 
	C496.830292,272.820587 496.820740,272.836609 485.657684,266.603851 
	C482.767731,264.990295 479.954315,263.239624 476.736603,261.333221 
	C478.440552,257.108215 480.674683,253.495697 483.373962,249.817734 
z"/>
<path fill="#000000" opacity="1.000000" stroke="none" 
	d="
M466.934692,768.892883 
	C464.974670,764.620117 463.242950,760.646790 461.295380,756.782227 
	C460.063110,754.337036 459.812653,751.140930 455.224365,751.821472 
	C452.634552,752.205688 452.360626,748.210083 451.318604,746.068848 
	C448.207123,739.675049 448.264862,739.615967 454.458191,736.699402 
	C458.828186,734.641602 463.328461,732.839783 467.596832,730.593445 
	C470.913391,728.848083 473.082886,729.622253 475.264099,732.447327 
	C478.513550,736.655945 482.051086,740.642273 486.347382,745.776367 
	C485.308960,738.748291 484.545807,732.986938 483.570801,727.261719 
	C483.148407,724.781616 483.619324,723.222351 486.120300,722.143005 
	C491.777435,719.701355 497.352722,717.063477 502.905243,714.389099 
	C505.202911,713.282349 506.583801,713.594299 507.523499,716.127441 
	C508.389130,718.461121 509.615906,720.660156 510.668243,722.925598 
	C511.155792,723.975098 512.076050,725.465332 511.053711,726.150757 
	C506.474335,729.221130 509.779968,732.258118 510.993988,735.139832 
	C512.987976,739.873047 515.300842,744.471863 517.433899,749.030457 
	C522.966370,748.114258 524.356506,749.810120 527.745667,761.582092 
	C521.469421,764.528442 515.071716,767.554810 508.640137,770.507202 
	C508.129242,770.741699 507.285828,770.656616 506.763214,770.391907 
	C504.252106,769.119812 501.125275,758.915222 502.622314,756.447693 
	C503.609039,754.821289 502.925201,753.515930 502.348816,752.219788 
	C500.006653,746.952515 497.544617,741.738525 494.575470,735.311523 
	C496.681091,747.722046 498.494415,758.836548 500.503326,769.915466 
	C500.941620,772.332886 500.870911,773.932312 498.395294,775.233093 
	C495.611206,776.695862 494.117218,775.401062 492.479187,773.491943 
	C485.778015,765.681885 479.024597,757.916687 471.932556,750.356628 
	C472.883423,755.619629 475.703247,760.057373 477.733673,764.806274 
	C478.023560,765.484253 478.896912,766.416626 479.468292,766.394775 
	C487.633392,766.082947 485.763824,773.927124 488.692108,777.811096 
	C489.696655,779.143494 487.912292,780.066772 486.682404,780.621277 
	C482.279785,782.605774 477.878754,784.594666 473.449066,786.517212 
	C472.727814,786.830200 471.784424,787.100952 471.080933,786.903198 
	C468.210205,786.096069 464.862579,775.451660 466.741425,772.943176 
	C467.710571,771.649353 467.601929,770.529114 466.934692,768.892883 
z"/>
<path fill="#000000" opacity="1.000000" stroke="none" 
	d="
M132.999878,574.985596 
	C137.889313,580.552246 138.782471,587.758667 140.900314,594.452515 
	C141.005402,594.784729 140.117355,595.431152 139.309525,596.380371 
	C141.542923,596.404175 142.683746,597.558594 143.212418,599.408752 
	C143.623169,600.846313 144.137344,602.257385 144.664200,603.658203 
	C149.230515,615.799622 148.874115,612.626831 137.607986,617.178284 
	C136.570740,617.597229 135.024963,618.242126 134.395721,617.011353 
	C132.289963,612.892761 128.636765,614.279541 125.574417,614.538696 
	C116.135582,615.337769 106.699959,616.297668 97.320267,617.605286 
	C94.083923,618.056335 92.786850,616.974854 91.820526,614.223755 
	C88.160805,603.804504 88.341988,606.223145 96.259514,601.122253 
	C98.732216,599.529236 101.188087,597.910095 103.404549,595.591858 
	C99.197441,596.037964 94.957245,596.288391 90.793724,596.992310 
	C87.465736,597.554871 85.278900,596.896606 84.396973,593.366638 
	C83.995552,591.760010 83.431564,590.162231 82.706802,588.674805 
	C81.318115,585.824707 82.365898,584.135803 84.841812,582.517639 
	C93.488503,576.866638 102.034203,571.060730 110.600700,565.287659 
	C112.492455,564.012756 114.763863,562.982239 113.747498,559.875183 
	C113.208931,558.228699 114.622955,557.601562 115.853378,556.982971 
	C125.534042,552.115662 126.345467,552.380981 129.989426,562.793823 
	C131.291473,566.514465 133.555405,570.006287 132.716797,574.657532 
	C128.742737,576.113220 124.834030,578.632568 121.815880,577.824707 
	C114.496643,575.865723 111.820480,582.096497 106.945251,584.323975 
	C112.376060,583.388428 119.057739,586.598572 122.590286,579.566895 
	C122.920143,578.910156 124.369072,578.841125 125.273636,578.442932 
	C127.855896,577.306091 130.425369,576.140137 132.999878,574.985596 
M124.743484,604.455566 
	C129.131424,603.583923 130.632095,598.330322 133.538940,598.324463 
	C131.842392,599.468018 128.166016,597.679810 125.148544,598.357544 
	C121.277946,599.226929 117.955566,602.536987 114.396996,604.795532 
	C114.512329,605.081177 114.627663,605.366882 114.742996,605.652588 
	C117.807503,605.292786 120.872017,604.933044 124.743484,604.455566 
z"/>
<path fill="#000000" opacity="1.000000" stroke="none" 
	d="
M213.978027,242.830719 
	C221.774796,247.964096 229.265762,252.881531 237.743637,258.446808 
	C235.525345,252.811508 232.860840,248.788925 230.049698,245.104050 
	C227.763687,244.525101 226.593903,247.006027 224.167206,246.193893 
	C221.831406,243.293213 219.807510,239.718460 217.655731,235.537369 
	C223.515320,231.079041 229.807083,227.558701 236.102783,223.912750 
	C239.476471,226.600784 240.573700,230.428146 242.727539,233.507401 
	C243.048279,233.965927 243.190430,235.111633 242.915878,235.340546 
	C238.268448,239.215439 242.368179,242.190155 244.067337,245.135956 
	C248.138794,252.194611 252.467773,259.107391 256.803650,266.009430 
	C258.318451,268.420837 258.230408,269.887695 255.642105,271.673645 
	C244.899521,279.086029 244.966583,279.176453 234.208878,272.049744 
	C227.692505,267.732788 221.169586,263.425690 214.639954,259.128845 
	C214.378586,258.956848 214.017960,258.935730 212.574951,258.516113 
	C215.036926,264.431274 218.367310,268.967072 221.504059,273.589600 
	C221.772034,273.984528 222.704834,274.117126 223.301407,274.063995 
	C224.959656,273.916473 226.706070,271.689606 228.230865,273.888031 
	C230.309555,276.884979 232.111649,280.079559 233.923920,283.251343 
	C234.378326,284.046692 233.842438,284.908325 233.096878,285.379486 
	C227.895004,288.666718 222.676865,291.928406 217.444336,295.166595 
	C217.047943,295.411896 216.486206,295.551147 216.025131,295.504456 
	C213.208420,295.219330 208.477325,284.736115 210.362518,282.593170 
	C211.791580,280.968689 211.600739,279.758240 210.608887,278.183258 
	C207.424362,273.126587 204.289673,268.038513 201.523071,263.585938 
	C198.971375,261.907440 197.167358,265.539276 195.408051,263.346436 
	C193.118622,260.492889 191.172058,257.370117 189.839233,253.951645 
	C189.311462,252.598053 190.643173,251.907562 191.620316,251.296417 
	C196.696426,248.121796 201.836288,245.046295 206.856293,241.785934 
	C209.483490,240.079620 211.560898,241.036957 213.978027,242.830719 
z"/>
<path fill="#000000" opacity="1.000000" stroke="none" 
	d="
M117.712234,367.502289 
	C116.134781,366.569092 114.854645,365.811005 113.612000,365.075104 
	C109.362473,369.119019 106.992188,368.514099 98.827553,361.142456 
	C102.354645,355.311096 105.949158,349.366913 109.545509,343.423859 
	C109.998245,342.675751 110.767143,341.830872 111.505135,342.189850 
	C115.210197,343.992126 119.998772,345.232758 121.673325,348.824188 
	C123.032990,351.740295 124.665871,353.274200 127.156097,353.441010 
	C130.045563,353.634552 130.057968,350.313934 131.909729,348.283356 
	C126.513306,343.025421 117.495453,345.459137 113.049408,337.572479 
	C116.341393,332.233826 120.087326,326.051300 123.961624,319.950317 
	C124.954216,318.387268 126.366386,319.340210 127.485954,320.002472 
	C130.334641,321.687592 133.133224,323.457397 135.592697,324.972107 
	C136.342300,327.088593 134.734329,328.237366 134.916458,330.209167 
	C140.388504,334.280701 146.679489,337.567322 152.972275,341.303101 
	C154.040817,340.155548 155.023132,339.100616 155.928665,338.128143 
	C156.437912,338.128143 156.815109,338.017212 157.077072,338.144135 
	C168.876740,343.860687 168.875931,343.863342 162.166580,355.015930 
	C161.737488,355.729187 161.457382,356.666016 160.831604,357.103851 
	C158.098434,359.016052 159.451187,366.504669 153.033997,363.190918 
	C149.626221,361.431183 145.416382,360.402405 143.878387,356.085938 
	C142.896851,353.331146 140.152298,353.101440 138.229645,351.783661 
	C135.751968,353.275116 135.407898,355.777710 133.525040,357.659149 
	C136.595657,359.613708 138.621826,361.500183 142.590668,361.383331 
	C146.321228,361.273468 149.572006,364.881683 152.802856,367.191498 
	C154.169128,368.168304 153.185883,369.618835 152.494217,370.770325 
	C149.580353,375.621399 146.616867,380.443329 143.762589,385.329132 
	C142.639938,387.250885 141.467682,387.992249 139.376373,386.599823 
	C137.163010,385.126190 134.787842,383.897736 132.529099,382.488831 
	C131.844162,382.061584 130.711334,381.267120 130.797302,380.849457 
	C132.540375,372.380554 124.187462,372.887207 120.549347,369.253204 
	C119.862938,368.567596 118.864166,368.194641 117.712234,367.502289 
z"/>
<path fill="#000000" opacity="1.000000" stroke="none" 
	d="
M600.191895,603.164062 
	C602.286682,598.962463 604.310364,595.127075 606.114319,591.190979 
	C607.389954,588.407776 609.083923,587.953613 611.655212,589.444031 
	C613.669373,590.611511 615.805298,591.568420 617.881775,592.629272 
	C618.907715,593.153259 620.585632,593.751648 620.148132,594.915039 
	C618.354553,599.684570 622.283081,600.052368 624.860474,601.369202 
	C634.176819,606.129089 643.535706,610.805847 653.048035,615.599365 
	C651.647278,620.493713 649.346863,624.315613 647.290039,628.238831 
	C646.500610,629.744568 645.182800,630.162964 643.508789,630.016052 
	C636.059143,629.362122 628.543762,629.165771 621.170776,628.032593 
	C616.264771,627.278442 611.386536,627.935791 606.474792,627.369446 
	C611.057007,629.701477 615.721130,631.888306 620.195007,634.412537 
	C623.630798,636.350891 626.598450,637.302673 628.559082,632.843018 
	C633.151550,634.855591 640.401184,635.601196 640.513794,639.839966 
	C640.665710,645.554504 636.036804,651.021545 632.945007,656.333191 
	C632.350586,657.354553 631.180603,657.051575 630.240479,656.588135 
	C627.253845,655.115967 624.272095,653.633240 621.309998,652.112732 
	C620.884644,651.894409 620.238220,651.415833 620.265198,651.107849 
	C620.977600,642.991882 613.305908,643.715332 609.225525,640.778931 
	C606.709900,638.968506 603.621094,637.954651 601.072937,636.720398 
	C598.854065,637.359863 598.428589,640.663879 595.778259,639.322510 
	C592.389526,637.607483 588.651489,636.461609 585.948425,633.611023 
	C585.632446,633.277832 585.816772,632.332764 585.972778,631.723511 
	C586.177307,630.924927 586.568054,630.170959 586.906738,629.410278 
	C594.389832,612.602173 594.550415,612.572754 612.654175,614.886047 
	C618.181396,615.592346 623.768127,615.833801 629.483459,615.711975 
	C624.785400,613.339111 620.087280,610.966248 615.065674,608.429993 
	C610.754150,615.338257 606.623474,610.128479 602.398254,608.391602 
	C600.187500,607.482788 598.518738,606.231934 600.191895,603.164062 
z"/>
<path fill="#000000" opacity="1.000000" stroke="none" 
	d="
M433.078247,235.448120 
	C432.903748,237.329102 432.483307,238.799225 432.463013,240.274872 
	C432.346649,248.729370 431.940979,247.760788 423.812439,247.180801 
	C415.698883,246.601868 412.122314,242.904999 412.816956,236.655716 
	C413.128357,233.854675 413.453827,231.045242 413.988495,228.281311 
	C414.809143,224.038879 411.922363,223.141708 408.881592,222.449020 
	C404.932098,221.549316 405.279419,224.852493 404.627106,227.054306 
	C403.408417,231.167984 407.332672,230.215637 409.107330,231.364639 
	C409.228546,231.903748 409.434448,232.380264 409.427765,232.853790 
	C409.252869,245.281876 408.482117,245.879425 396.278015,243.789749 
	C392.520630,243.146378 388.719482,242.685287 384.919006,242.391327 
	C382.225128,242.182953 381.503693,240.709061 381.740204,238.410904 
	C382.028595,235.608505 382.411560,232.814926 382.799164,230.023865 
	C383.263397,226.680649 386.343658,228.517471 388.322113,227.273056 
	C389.069244,221.617050 389.888214,215.736023 390.591309,209.841202 
	C390.742950,208.569916 391.084137,206.689102 389.731140,206.175690 
	C382.405792,203.395905 387.777130,198.069717 387.278900,194.003143 
	C387.035370,192.015259 389.170441,191.569275 390.986969,191.813507 
	C401.176849,193.183441 411.402557,194.343842 421.536652,196.047806 
	C426.690460,196.914383 431.688568,198.827393 432.856720,205.014053 
	C433.998779,211.062668 432.459015,216.201736 426.865631,220.174515 
	C430.219666,222.900513 431.981201,226.077209 430.491486,230.453339 
	C429.786560,232.524063 432.374420,233.379089 433.078247,235.448120 
M408.138855,215.647003 
	C410.101349,216.067825 412.111786,216.193176 413.987427,215.502228 
	C416.410004,214.609848 417.654541,212.842255 415.579834,210.644333 
	C413.569214,208.514297 410.351349,207.251190 407.954163,208.498611 
	C405.443542,209.805008 405.706360,212.896698 408.138855,215.647003 
z"/>
<path fill="#000000" opacity="1.000000" stroke="none" 
	d="
M283.570374,740.629395 
	C284.832581,749.767700 283.863922,758.560364 285.303955,767.417725 
	C287.252106,762.229736 289.200256,757.041748 291.108368,751.960388 
	C285.802002,748.137268 285.882050,745.954895 291.768097,735.911621 
	C297.276428,737.959961 302.973053,740.039795 308.633545,742.213684 
	C309.859009,742.684326 310.336426,743.758667 309.848755,745.085327 
	C308.702240,748.204041 307.580841,751.333008 306.355377,754.420654 
	C306.145844,754.948608 305.361023,755.736938 305.028748,755.654236 
	C299.879364,754.372925 299.941376,758.664795 298.860199,761.486938 
	C295.590240,770.022461 292.391052,778.587585 289.346405,787.205505 
	C288.299103,790.170044 287.009552,791.072144 283.849548,789.844788 
	C270.216095,784.549561 272.952972,787.559998 272.693451,774.454285 
	C272.507111,765.044861 272.657196,755.628723 272.657196,746.215576 
	C272.121246,746.176941 271.585297,746.138306 271.049347,746.099731 
	C268.616364,752.548157 266.183411,758.996521 263.891357,765.071472 
	C264.756653,767.361084 267.027283,767.052856 268.080139,768.827209 
	C267.412994,773.203979 265.199402,777.252197 263.477356,782.254211 
	C257.505157,780.029907 251.936340,777.988403 246.395660,775.873230 
	C244.644547,775.204773 244.415894,773.777222 244.998947,772.166504 
	C246.017151,769.353699 247.037903,766.540649 248.131363,763.756714 
	C248.483063,762.861267 248.939331,761.495483 250.059860,761.786987 
	C254.958847,763.061218 254.886292,759.026794 255.966507,756.364746 
	C257.465363,752.670898 258.728394,748.881897 260.136108,745.150208 
	C261.025940,742.791382 262.266449,740.493042 258.872131,738.915588 
	C257.556030,738.303955 257.988098,736.961487 258.415497,735.818726 
	C259.230835,733.638733 260.113464,731.476257 260.780762,729.250305 
	C261.777740,725.924683 263.601532,725.232178 266.760956,726.664490 
	C269.779541,728.032898 272.919647,729.297852 276.138184,730.024353 
	C281.757019,731.292603 284.449127,734.325684 283.570374,740.629395 
z"/>
<path fill="#000000" opacity="1.000000" stroke="none" 
	d="
M312.475159,242.394394 
	C312.147736,247.257812 308.930725,249.495712 305.528137,251.297028 
	C296.051270,256.314087 285.574158,258.668732 275.533691,262.186615 
	C273.823914,262.785675 272.281952,262.519012 271.644135,260.315308 
	C270.858582,257.601013 269.845703,254.953186 268.965881,252.265259 
	C268.595215,251.132904 268.232056,249.576614 269.504761,249.139465 
	C273.747070,247.682312 272.127625,244.879745 271.300598,242.282394 
	C269.736145,237.369293 268.073517,232.487427 266.473328,227.657852 
	C261.460419,226.902924 257.380310,221.553787 257.555511,216.379684 
	C257.623993,214.357437 258.928101,214.012863 260.404663,213.527390 
	C269.728943,210.461823 278.940491,207.019775 288.602722,205.090225 
	C297.525055,203.308441 302.395142,205.612274 305.497437,214.133331 
	C308.778931,223.146698 312.850677,232.045807 312.475159,242.394394 
M283.523834,228.062103 
	C285.602661,232.651947 285.935272,237.946198 288.862000,242.149033 
	C295.797729,240.351044 296.256165,239.577332 294.275940,233.291855 
	C293.382996,230.457657 292.461914,227.631866 291.514893,224.815277 
	C290.381134,221.443268 288.419159,219.144485 284.520752,220.588730 
	C280.584412,222.047043 282.934662,224.909943 283.523834,228.062103 
z"/>
<path fill="#000000" opacity="1.000000" stroke="none" 
	d="
M582.029297,310.983582 
	C582.768005,311.884705 583.472839,312.816376 584.250916,313.682129 
	C590.068909,320.155914 590.188232,320.276642 583.936096,326.028534 
	C580.822266,328.893188 578.706787,334.358765 574.391113,334.016785 
	C570.607361,333.717010 568.250122,328.819214 565.295654,325.930756 
	C558.863525,319.642517 552.678772,313.100372 546.214661,306.846191 
	C543.573181,304.290497 543.344604,302.301331 546.275879,299.942169 
	C547.956177,298.589844 549.396057,296.941650 550.975037,295.459442 
	C551.811035,294.674622 552.954834,293.339844 553.927490,294.212463 
	C557.726501,297.620819 559.435303,294.157715 561.569519,292.129669 
	C563.863342,289.949951 566.092285,287.700287 568.307434,285.439911 
	C570.347168,283.358490 573.271179,281.538544 570.341614,277.995239 
	C569.589417,277.085388 570.486023,276.135315 571.166443,275.390015 
	C573.511414,272.821503 575.863464,270.259521 577.570618,268.396149 
	C580.402283,268.187592 581.179810,269.416199 582.086304,270.323273 
	C590.447754,278.690063 598.700623,287.167389 607.169067,295.423920 
	C609.717407,297.908508 609.542297,299.506897 607.112366,301.934204 
	C603.358643,305.683655 600.005493,309.834015 596.582764,313.700958 
	C592.439026,311.133667 590.184509,308.736359 587.979919,306.267426 
	C586.538086,304.652588 586.190674,303.085632 587.976868,301.526154 
	C591.121399,298.780731 588.872314,297.008911 586.944397,295.019867 
	C584.645569,292.648132 582.863037,293.601776 581.137390,295.648651 
	C580.610901,296.273102 580.143433,296.947388 579.648865,297.598999 
	C580.479431,300.278992 582.760620,301.587097 584.424988,303.374329 
	C588.313049,307.549255 588.105164,308.629486 582.238281,310.715302 
	C579.985962,308.448578 578.249207,306.470001 576.452759,304.547180 
	C575.479370,303.505371 574.190674,302.782104 573.002625,303.969666 
	C571.409058,305.562592 568.142944,306.806427 570.291809,309.832886 
	C571.974487,312.202728 573.925049,315.736969 577.585938,311.920044 
	C578.899597,310.550385 580.309998,310.167511 582.029297,310.983582 
z"/>
<path fill="#000000" opacity="1.000000" stroke="none" 
	d="
M355.545410,220.818359 
	C352.262329,221.791992 349.119934,220.630646 346.234161,222.143158 
	C345.752289,224.648621 346.248566,227.045837 346.663635,229.413376 
	C348.386017,230.392059 350.046783,229.542816 351.664276,229.658859 
	C354.317383,229.849197 355.947418,228.726822 355.532654,225.892670 
	C355.013031,222.341568 356.879639,221.764328 359.854218,221.610626 
	C369.600159,221.107117 369.595764,221.021881 370.377563,231.071533 
	C371.276306,242.623657 371.265717,242.494431 359.765869,243.438187 
	C351.494049,244.117050 343.261139,245.258453 334.998230,246.063736 
	C332.549255,246.302399 330.057343,246.100510 327.621490,246.100510 
	C324.380981,236.704620 324.869415,233.775009 330.303497,230.725037 
	C329.754517,224.719040 329.180145,218.626190 328.653290,212.529236 
	C328.530151,211.103912 328.222290,209.513657 326.619446,209.593094 
	C322.465240,209.798996 322.663300,207.098206 322.632111,204.326859 
	C322.617249,203.005966 322.508942,201.648590 322.179169,200.376099 
	C321.330444,197.101151 322.581421,195.921753 325.870728,195.631073 
	C337.609955,194.593704 349.342865,193.443497 361.045227,192.057434 
	C364.353333,191.665619 365.767029,192.857788 366.091309,195.831940 
	C366.559021,200.121552 366.873077,204.427704 367.308624,208.721115 
	C367.635132,211.939713 366.168915,213.342026 363.016113,213.288086 
	C361.353729,213.259644 359.673218,213.262421 358.028503,213.469925 
	C355.428955,213.797897 354.022949,213.068176 353.648712,210.191452 
	C352.996582,205.178619 349.002533,207.424301 346.564209,207.671844 
	C343.478790,207.985107 344.347870,210.804626 344.728943,212.881714 
	C345.096771,214.886765 346.382324,215.519348 348.402283,215.187851 
	C350.363861,214.865906 352.370636,214.733566 354.360657,214.699890 
	C355.795959,214.675598 357.567169,214.425964 358.054993,216.383987 
	C358.533112,218.303101 358.358856,220.078140 355.545410,220.818359 
z"/>
<path fill="#000000" opacity="1.000000" stroke="none" 
	d="
M197.373383,713.121338 
	C196.207748,714.794678 195.265472,716.175720 194.394165,717.452698 
	C192.047348,716.156799 190.766068,715.449280 189.412323,714.701721 
	C189.001160,714.902100 188.466644,715.015991 188.146545,715.341064 
	C184.758179,718.781860 181.432159,722.284241 178.032547,725.713745 
	C174.550766,729.226196 170.787811,728.406555 169.976440,723.475891 
	C169.448318,720.266602 168.044678,719.800842 165.404755,718.928284 
	C159.102036,716.845093 154.682602,712.215393 152.169159,706.137695 
	C150.437668,701.950745 152.676178,698.265625 155.219452,695.113953 
	C161.292847,687.587585 167.913162,680.516541 175.215439,674.191956 
	C183.438675,667.069763 190.355179,667.516113 197.009506,676.037170 
	C200.166031,680.079285 204.061676,683.136597 207.513916,686.743958 
	C208.654755,687.936035 209.783005,689.140137 210.976227,690.401306 
	C205.714981,695.187195 200.611755,699.829346 195.508514,704.471497 
	C193.136887,704.226746 190.613113,701.383545 187.948608,698.732666 
	C186.354507,697.146790 187.024109,695.780334 188.496033,694.522339 
	C189.816635,693.393616 191.021774,692.209717 189.583084,690.326843 
	C188.339767,688.699646 186.640717,687.812744 184.777679,688.601196 
	C178.694763,691.175659 174.332230,695.626404 171.662399,701.654968 
	C170.883469,703.413879 171.697617,704.908508 173.202805,705.982239 
	C174.427124,706.855408 175.683624,706.771484 176.925507,705.963257 
	C178.597122,704.875488 178.311722,703.698914 177.392471,702.171082 
	C175.715424,699.383789 178.638840,698.503601 179.846603,696.957520 
	C180.926102,695.575562 182.338608,695.181885 183.714737,696.495422 
	C188.409531,700.976746 193.072891,705.492004 197.683746,710.059387 
	C198.477829,710.845947 198.191574,711.919861 197.373383,713.121338 
z"/>
<path fill="#000000" opacity="1.000000" stroke="none" 
	d="
M644.815918,350.244568 
	C645.271423,351.163849 645.811951,351.812653 645.737183,352.380402 
	C645.510925,354.097229 633.459656,362.231171 631.757141,361.907959 
	C630.675842,361.702667 630.155945,360.803314 629.618896,359.960541 
	C627.918091,357.291016 626.283691,354.576050 624.494751,351.966919 
	C623.389526,350.354889 622.763184,349.017181 623.925598,347.001099 
	C625.652344,344.006500 624.001770,342.080200 621.325317,340.681793 
	C618.646118,342.242493 619.373657,344.335358 619.955505,346.446747 
	C621.279846,351.252380 622.719604,356.034668 623.810181,360.894257 
	C625.472229,368.301025 623.051392,372.912445 616.092834,376.271637 
	C610.127319,379.151489 604.575317,377.879333 600.029480,372.577637 
	C599.596619,372.072784 599.157715,371.552856 598.835449,370.976318 
	C593.828735,362.019348 588.735901,353.113251 582.449951,344.055695 
	C587.587585,340.824585 592.315918,337.838013 597.066162,334.886780 
	C597.467712,334.637299 598.029236,334.482513 598.494385,334.525146 
	C601.070496,334.761169 607.023376,345.655060 605.728638,348.018829 
	C604.896667,349.537842 603.898438,350.881805 604.872925,352.610016 
	C605.991821,354.594147 606.924561,357.565094 609.589172,357.033539 
	C612.485046,356.455811 612.179810,353.430328 611.671448,351.157532 
	C610.656067,346.618683 609.258850,342.166382 608.191040,337.637848 
	C606.500549,330.468475 608.750854,324.999298 614.307678,322.357483 
	C620.497131,319.414886 625.889648,320.752350 630.639221,326.536926 
	C631.901550,328.074341 633.329895,329.685547 633.940002,331.510925 
	C636.246826,338.412720 641.180420,343.731781 644.815918,350.244568 
z"/>
<path fill="#000000" opacity="1.000000" stroke="none" 
	d="
M142.377014,305.589050 
	C138.469406,302.625671 138.456528,300.133209 142.018005,297.067566 
	C145.663635,293.929504 148.974319,290.367981 152.186691,286.772949 
	C154.304794,284.402557 156.301697,283.624603 159.339645,286.098236 
	C156.454453,282.961426 157.646851,280.975830 159.992233,278.676270 
	C163.658585,275.081635 166.931595,271.085815 170.246948,267.398163 
	C174.773026,269.562256 176.922852,272.575684 179.501831,275.068878 
	C180.248871,275.791107 180.901184,276.908569 180.135803,277.732513 
	C176.891464,281.225189 179.978302,283.012421 181.991760,285.040955 
	C186.330551,289.412292 190.766220,293.687622 195.097183,298.066559 
	C200.230042,303.256287 200.739273,307.001495 196.799133,313.136078 
	C193.437790,318.369507 189.038589,322.728119 183.774628,326.039642 
	C178.029266,329.654022 173.829117,329.256134 169.010529,324.349945 
	C163.532883,318.772705 158.430664,312.826752 152.873230,306.720245 
	C147.694931,312.123138 145.284927,308.493500 142.377014,305.589050 
M179.889969,309.175140 
	C183.357529,307.114258 183.340332,304.464508 180.834320,301.782532 
	C177.548325,298.265778 174.011841,294.984528 170.647293,291.539276 
	C168.890015,289.739838 166.938293,290.880859 165.644516,291.665497 
	C164.210022,292.535492 163.047806,295.342621 164.092697,296.342804 
	C168.901260,300.945648 172.059998,307.560150 179.889969,309.175140 
z"/>
<path fill="#000000" opacity="1.000000" stroke="none" 
	d="
M625.250244,388.846100 
	C626.334106,391.932068 628.525818,391.596191 630.751038,391.464996 
	C640.538330,390.888000 650.332275,390.422272 660.118225,389.825043 
	C662.631714,389.671631 664.303955,390.497345 665.066040,392.946747 
	C665.164795,393.264099 665.254578,393.585419 665.374573,393.894775 
	C671.245117,409.022339 671.241638,409.016815 657.847168,418.438904 
	C653.085815,421.788147 648.346436,425.168732 643.599548,428.538452 
	C641.615356,429.946869 639.383057,430.938721 640.238525,434.326355 
	C640.861206,436.791992 638.145813,436.845703 636.549133,437.437500 
	C627.613831,440.749664 627.615540,440.729523 624.550049,431.793549 
	C623.040833,427.394287 621.529663,422.995117 619.953491,418.619659 
	C618.881042,415.642365 619.742432,413.815979 622.874756,413.058228 
	C624.485046,412.668671 626.067261,412.150269 627.642456,411.630402 
	C631.732605,410.280426 631.746277,410.273834 634.513123,414.333160 
	C637.010864,413.733337 639.568726,413.055756 638.035828,409.556793 
	C636.659058,406.414062 637.224670,400.743378 630.839966,402.970703 
	C629.777710,405.002655 632.744019,407.695374 630.039246,408.982300 
	C626.630310,410.604279 623.005432,411.938110 619.147156,412.078949 
	C618.574219,412.099884 617.656982,411.210632 617.418640,410.553894 
	C615.169983,404.358154 613.034058,398.121521 610.722717,391.486328 
	C615.038147,389.972717 618.609070,388.724365 622.176758,387.466705 
	C623.444153,387.019958 624.457947,387.251740 625.250244,388.846100 
M647.855713,406.244324 
	C649.816467,404.867706 651.777283,403.491119 653.738037,402.114532 
	C649.998291,401.870209 646.445374,400.741943 642.583984,402.251221 
	C643.748047,404.459686 642.229492,408.801910 647.855713,406.244324 
z"/>
<path fill="#000000" opacity="1.000000" stroke="none" 
	d="
M596.030579,685.975464 
	C597.033386,687.073914 597.894592,688.360107 599.062012,689.240234 
	C606.564453,694.896851 604.740784,694.421448 599.867249,700.616943 
	C597.708557,703.361328 595.411255,705.997925 593.134521,708.647095 
	C592.716797,709.133057 592.095215,709.443848 591.458496,709.916687 
	C587.750305,708.166565 585.075439,705.142456 582.014771,702.649597 
	C581.443726,702.184387 580.738770,700.924622 580.954468,700.596985 
	C583.971130,696.014648 579.888000,693.628235 577.880432,690.773376 
	C572.712585,683.424255 567.434692,676.146301 561.984253,669.005249 
	C560.011841,666.421021 559.745605,664.459106 562.229370,662.179565 
	C563.566406,660.952454 564.634399,659.423706 565.774170,657.991577 
	C572.708618,649.277893 571.436523,650.875610 580.361145,654.867065 
	C587.194458,657.923096 593.925537,661.207458 600.746277,664.292358 
	C603.658020,665.609253 606.328735,667.723389 610.002380,665.326599 
	C611.850037,664.121033 613.459167,666.725281 614.910095,667.951660 
	C621.946289,673.898804 621.906555,673.918945 616.094482,680.961060 
	C613.764038,683.784668 611.366150,686.569275 609.255432,689.553101 
	C607.086365,692.619324 604.995056,692.668579 602.294556,690.269043 
	C600.570679,688.737305 598.540833,687.549988 596.192871,685.792542 
	C593.711548,683.240295 596.699036,681.426819 596.297913,679.553955 
	C592.645752,675.597290 590.854858,678.663452 588.739502,681.090515 
	C586.286255,683.905273 586.715271,686.043091 590.028564,688.011475 
	C591.723999,686.523926 593.412476,684.694702 596.030579,685.975464 
M582.343140,672.038452 
	C580.304077,671.079407 578.265015,670.120422 575.029846,668.598877 
	C577.731079,672.510315 579.192383,675.626587 582.451721,677.463440 
	C584.079346,675.705322 586.866211,674.318665 582.343140,672.038452 
z"/>
<path fill="#000000" opacity="1.000000" stroke="none" 
	d="
M249.186783,727.901611 
	C245.700317,737.646973 240.016769,745.717041 234.079224,753.518738 
	C228.445511,760.921204 222.844971,761.696655 214.346115,757.542969 
	C210.410812,755.619568 206.920761,753.099792 203.731552,750.137390 
	C199.284012,746.005859 198.304749,740.931396 200.697159,735.564880 
	C204.714462,726.553528 209.962555,718.206177 216.375793,710.714294 
	C221.439651,704.798706 226.209564,704.109192 233.382889,707.372192 
	C237.197433,709.107361 240.678574,711.363159 243.954407,713.968018 
	C248.358032,717.469666 250.590240,721.787842 249.186783,727.901611 
M229.696228,733.166931 
	C230.517105,731.719238 231.475372,730.330322 232.125488,728.809631 
	C233.020844,726.715454 233.382355,724.539978 230.931732,723.134460 
	C228.736710,721.875610 226.888824,722.964294 225.733521,724.663574 
	C223.025787,728.646118 220.493668,732.758911 218.098709,736.938354 
	C216.971924,738.904663 216.630585,741.191650 218.996948,742.671570 
	C221.464508,744.214844 223.165283,742.435547 224.508484,740.778992 
	C226.283447,738.589966 227.732437,736.136658 229.696228,733.166931 
z"/>
<path fill="#000000" opacity="1.000000" stroke="none" 
	d="
M446.763306,768.448547 
	C447.867981,773.412598 448.464752,777.980530 448.385254,782.674133 
	C448.293091,788.118958 445.810669,791.867920 441.029846,794.090698 
	C434.545593,797.105530 427.627625,797.925110 420.590576,797.197144 
	C416.385681,796.762207 413.724548,793.838257 412.269592,790.112183 
	C408.378967,780.148560 406.664825,769.656616 405.870300,759.075867 
	C405.432983,753.252625 408.328003,748.866028 414.107635,746.809998 
	C419.129211,745.023682 424.207611,743.588013 429.619324,743.651367 
	C437.241882,743.740662 440.616333,745.816345 443.008301,753.077637 
	C444.608429,757.934998 445.449799,763.042419 446.763306,768.448547 
M425.304932,778.052856 
	C426.167358,780.193970 427.371460,782.144714 430.039062,781.435181 
	C433.009094,780.645264 432.919495,777.967285 432.596588,775.676697 
	C432.018707,771.577087 431.317719,767.467590 430.247803,763.474976 
	C429.631653,761.175781 428.615265,758.171936 425.341095,759.027588 
	C422.448975,759.783325 421.985077,762.574707 422.451691,765.188110 
	C423.178680,769.259766 424.177338,773.282959 425.304932,778.052856 
z"/>
<path fill="#000000" opacity="1.000000" stroke="none" 
	d="
M145.537872,677.509094 
	C145.121368,680.167603 137.235992,686.928467 135.042221,687.001343 
	C134.092728,687.032837 133.420486,686.552490 132.955582,685.867615 
	C128.866058,679.843323 124.812317,673.794678 120.738434,667.738953 
	C123.501030,664.138306 127.347870,662.692322 130.532166,660.378174 
	C132.044724,659.278870 133.180435,660.325134 134.563797,661.031921 
	C137.301147,662.430603 138.836868,660.441589 139.043945,658.211975 
	C139.409454,654.276489 133.894821,651.093384 130.085754,652.799805 
	C128.962051,654.666138 132.487915,656.567383 130.313187,658.216125 
	C127.147316,660.616211 123.817924,662.847717 120.352127,664.781677 
	C118.988945,665.542358 118.079659,663.805969 117.344337,662.735901 
	C114.801590,659.035522 112.356857,655.266846 109.770126,651.598022 
	C108.235779,649.421936 108.203613,647.743530 110.680954,646.256531 
	C112.959526,644.888733 115.104431,643.300171 117.347015,641.869690 
	C118.310539,641.255188 119.690659,640.250000 120.511177,641.262268 
	C123.354202,644.769836 126.252876,642.516418 129.039749,641.545471 
	C137.981155,638.430237 146.906525,635.260620 155.760193,631.906433 
	C158.755295,630.771790 160.554779,631.335144 162.420975,633.980774 
	C170.897415,645.997314 170.941635,645.927795 160.943649,657.044128 
	C156.274643,662.235474 151.717590,667.527466 147.112045,672.775818 
	C146.011581,674.029785 144.791153,675.241821 145.537872,677.509094 
M146.238617,651.591370 
	C148.076630,649.456238 149.914642,647.321167 151.752655,645.186035 
	C148.038803,645.946167 144.511963,646.264709 141.452377,648.549255 
	C142.566711,650.351013 142.362869,653.231018 146.238617,651.591370 
z"/>
<path fill="#000000" opacity="1.000000" stroke="none" 
	d="
M392.938812,792.182373 
	C389.876404,802.669006 377.963776,804.301025 367.440674,802.977356 
	C360.491089,802.103271 356.446411,798.418335 355.375824,791.233521 
	C353.847321,780.975159 353.366302,770.720581 354.939819,760.479004 
	C356.297516,751.642273 360.288849,748.110291 369.201904,748.765137 
	C374.972961,749.189209 380.650696,748.826660 386.361115,748.677490 
	C389.901825,748.585022 391.570862,749.629456 391.400635,753.457947 
	C391.194000,758.105225 391.279938,762.781433 391.544617,767.427795 
	C391.701752,770.186707 390.390747,771.052002 388.060516,771.047119 
	C383.689941,771.037903 378.503693,772.853149 377.333405,765.830322 
	C377.072815,764.266724 375.095184,763.398682 373.230194,763.855591 
	C371.659943,764.240173 370.518555,765.233582 370.398773,766.942139 
	C370.026184,772.258728 369.884491,777.597046 370.583221,782.881287 
	C370.866302,785.022156 371.970612,787.279236 374.663971,787.143066 
	C377.333710,787.008057 377.851440,784.617188 378.489929,782.520752 
	C379.052612,780.673096 377.365845,777.596008 380.680298,777.251770 
	C384.421906,776.863220 388.320312,776.060730 391.956543,777.756470 
	C393.284027,778.375488 393.305725,779.975586 393.291382,781.314819 
	C393.254089,784.803467 393.150482,788.291321 392.938812,792.182373 
z"/>
<path fill="#000000" opacity="1.000000" stroke="none" 
	d="
M86.078812,392.276886 
	C89.373199,381.949371 89.376877,381.937927 99.455292,385.174866 
	C103.225471,386.385742 106.974129,387.663635 110.415321,388.805664 
	C111.373650,391.083801 110.115540,392.497406 109.829758,394.071014 
	C109.188255,397.603333 107.501091,398.995514 103.914635,397.383270 
	C101.939415,396.495300 99.638954,395.522034 98.671951,398.711761 
	C97.700005,401.917847 100.284134,402.162506 102.310043,402.809418 
	C105.952408,403.972504 109.592575,405.142700 113.240356,406.288635 
	C115.980064,407.149261 118.693794,409.079254 120.755722,404.815338 
	C121.779930,402.697327 124.155006,404.389252 125.716331,404.931213 
	C135.753143,408.415009 135.027969,406.124695 131.849487,416.495850 
	C130.437149,421.104248 128.890778,425.671600 127.480194,430.280487 
	C126.851112,432.335968 125.946480,433.522278 123.539986,432.608185 
	C120.151070,431.321014 116.478737,430.779297 113.027878,428.656586 
	C115.017433,424.023102 112.234055,422.555115 108.384941,421.548492 
	C104.369469,420.498322 100.417885,419.181610 96.486710,417.839783 
	C94.207733,417.061890 92.687668,417.272278 91.889526,419.871002 
	C91.060837,422.569214 92.934196,423.221863 94.699142,423.543671 
	C99.236298,424.370880 99.582588,426.694153 98.304459,430.688599 
	C96.921516,435.010620 94.471977,434.359772 91.366753,433.288849 
	C87.282654,431.880310 83.178154,430.498260 79.008453,429.380829 
	C75.604385,428.468597 75.007477,426.754456 76.084145,423.521118 
	C79.496780,413.272461 82.670479,402.944244 86.078812,392.276886 
z"/>
<path fill="#000000" opacity="1.000000" stroke="none" 
	d="
M551.239685,716.189453 
	C549.595337,717.582642 548.223145,718.757568 546.928955,719.865723 
	C547.300720,722.542114 549.029602,723.844299 550.808167,725.496277 
	C554.034119,722.556824 556.321411,724.015564 558.231323,727.176270 
	C558.741394,728.020386 559.499329,728.712158 560.121765,729.491272 
	C564.323486,734.750183 564.308228,734.734375 558.871948,738.922485 
	C555.188538,741.760315 551.466736,744.557922 547.917969,747.557983 
	C545.401794,749.685059 543.596558,749.308167 541.791138,746.721436 
	C539.898987,744.010559 537.834106,741.420227 535.664124,738.537292 
	C539.309814,735.901917 537.868347,733.585449 535.656738,731.072510 
	C533.024841,728.081970 530.676819,724.843445 528.150024,721.757996 
	C526.374634,719.590088 525.129089,716.196411 521.187195,718.846130 
	C520.305786,719.438599 519.377563,718.304626 518.772400,717.516785 
	C516.560242,714.637024 514.384766,711.729065 511.720734,708.203491 
	C520.822327,701.363586 528.592468,693.371582 538.867188,688.689026 
	C542.396301,687.080627 545.684937,687.703857 548.778564,689.768188 
	C552.745789,692.415466 555.757263,695.971741 557.707458,700.279968 
	C560.990845,707.533264 556.124207,711.741272 551.239685,716.189453 
M545.776245,710.735046 
	C546.711853,707.635071 544.937134,705.812317 542.426147,705.054077 
	C539.923767,704.298401 538.152222,705.923767 536.927795,707.942078 
	C540.792847,714.428223 541.600891,714.727539 545.776245,710.735046 
z"/>
<path fill="#000000" opacity="1.000000" stroke="none" 
	d="
M668.426025,568.256104 
	C666.985657,573.232056 666.610229,578.084595 664.564087,582.616089 
	C660.210815,582.583069 656.360901,580.863037 652.323120,580.148987 
	C651.170654,579.945129 650.895935,579.045166 650.635925,577.988831 
	C649.622070,573.871033 645.964417,571.731873 641.944885,573.249207 
	C637.131653,575.066223 632.478699,577.307556 627.752869,579.357056 
	C626.646179,579.836975 625.687866,580.475220 625.348877,581.706360 
	C624.750610,583.879333 623.310791,583.785889 621.456299,583.490784 
	C610.169556,581.694763 610.143677,581.707397 612.796448,570.943542 
	C613.511230,568.043274 614.250244,565.148926 614.968384,562.249451 
	C615.517395,560.032166 616.501709,558.281677 619.431580,558.613892 
	C618.441589,557.594421 617.609680,556.998718 617.142273,556.191833 
	C616.528076,555.131409 620.487854,538.382935 621.414001,537.506226 
	C622.383911,536.588074 623.548828,536.711060 624.698364,536.973389 
	C627.286194,537.563782 629.877075,538.149109 632.441040,538.832825 
	C633.933838,539.230957 634.970276,539.867065 635.084473,541.854309 
	C635.402771,547.393433 646.512878,558.787354 651.920349,559.447388 
	C652.936890,559.571350 653.906982,559.637817 654.739319,558.904907 
	C655.876404,557.903748 655.794678,555.355713 658.147339,555.934204 
	C661.844299,556.843445 665.529541,557.834167 669.147766,559.011597 
	C670.508240,559.454285 670.230652,560.912292 669.962891,562.057007 
	C669.509277,563.995422 668.987793,565.917786 668.426025,568.256104 
M631.688782,557.936462 
	C629.689392,560.988892 626.347107,558.790222 622.919495,559.664612 
	C628.181458,561.194824 628.181458,561.194824 630.948975,564.365967 
	C632.563782,563.691284 634.620178,564.041260 635.834778,562.340271 
	C634.549500,559.721924 634.549500,559.721924 631.688782,557.936462 
z"/>
<path fill="#000000" opacity="1.000000" stroke="none" 
	d="
M315.971497,612.307739 
	C299.646790,612.296997 283.818024,612.311218 267.989594,612.248169 
	C265.655273,612.238831 262.431030,613.009644 262.831360,608.895935 
	C263.156128,605.558533 262.764038,601.933533 268.136139,601.643677 
	C281.834717,600.904968 289.689331,594.450134 291.201630,583.331421 
	C271.213928,575.891541 251.343185,582.575195 231.614212,584.469055 
	C230.156891,581.534607 230.923431,579.001282 230.696548,576.566589 
	C230.430374,573.710022 231.827118,572.297058 234.514465,571.702332 
	C247.343567,568.863220 257.417511,561.354675 266.811279,552.648987 
	C270.865356,548.891907 272.689728,544.362671 272.683960,538.885925 
	C272.650909,507.561859 272.602478,476.237427 272.742523,444.913940 
	C272.771759,438.378265 268.066040,435.107147 264.053772,431.759521 
	C257.901642,426.626434 250.714355,422.961334 242.754410,421.214447 
	C239.134033,420.419922 237.448196,418.624298 238.966919,414.893372 
	C240.304932,411.606293 239.397690,406.364410 246.115295,408.197571 
	C259.125824,411.747955 272.466217,413.660980 285.924072,414.460083 
	C301.348846,415.376038 316.443237,413.082703 331.311615,409.091919 
	C340.642059,406.587585 349.985321,404.345978 359.780090,404.517120 
	C362.113037,404.557861 365.655243,405.372131 366.404541,401.730499 
	C367.101318,398.344208 364.822937,396.116089 362.168274,394.440216 
	C359.873016,392.991180 357.312469,392.319061 354.579437,392.317200 
	C344.249451,392.310181 333.919342,392.309723 323.589478,392.264069 
	C318.964081,392.243622 315.240814,394.358337 311.892517,397.214539 
	C309.488647,399.265167 306.712891,401.217987 305.140076,403.837189 
	C301.394501,410.074585 296.416382,408.989716 290.938812,407.289764 
	C287.975433,406.370087 287.359253,404.957825 288.690552,402.147278 
	C293.965485,391.011292 299.142883,379.828583 304.272247,368.624603 
	C305.319214,366.337738 306.644196,365.640503 308.949646,366.793365 
	C310.284180,367.460693 311.856689,367.711121 313.094025,368.504730 
	C323.532318,375.199890 335.022461,376.108673 347.091675,375.815704 
	C367.240479,375.326569 387.420685,375.288116 407.566467,375.837463 
	C419.409149,376.160431 430.276764,373.915253 440.738251,368.527222 
	C447.565948,365.010773 447.757263,365.229248 450.787933,372.063171 
	C455.696930,383.132568 460.512146,394.243530 465.366028,405.334930 
	C462.008392,407.888794 458.370453,407.931885 455.104431,409.002441 
	C453.583832,409.500916 452.705688,408.308411 451.791382,407.294250 
	C449.897675,405.193787 447.997101,403.092224 445.984711,401.107361 
	C439.662109,394.871216 432.441528,391.404144 423.140961,392.131104 
	C414.859344,392.778381 406.487366,392.182220 398.160278,392.363708 
	C391.837952,392.501465 388.497192,394.881134 386.880127,399.625305 
	C385.776672,402.862610 386.242188,404.507812 390.228973,404.734955 
	C405.174591,405.586517 419.931427,407.492004 434.519836,411.264252 
	C447.892365,414.722137 458.351318,422.874573 469.277466,430.413147 
	C475.863831,434.957458 482.003571,440.100220 487.722656,445.709167 
	C489.927826,447.871887 492.593933,449.054443 495.367096,450.259460 
	C499.901093,452.229614 500.358002,454.634186 496.450012,457.401001 
	C490.273956,461.773590 486.200623,467.511597 482.669586,474.128571 
	C478.474335,481.990295 472.009277,488.077606 463.863464,492.692871 
	C467.432739,495.409821 471.544403,495.273102 475.041626,495.341583 
	C485.271393,495.541870 491.516693,501.706238 497.260345,508.773682 
	C500.189697,512.378174 502.575165,516.434082 505.105347,520.351257 
	C508.160522,525.081238 512.408997,528.488770 516.996704,531.591675 
	C520.521729,533.975891 520.599854,536.239075 516.885376,538.254700 
	C508.530212,542.788635 503.104523,550.132629 497.596130,557.462463 
	C489.180664,568.660828 479.026764,577.877747 466.614990,584.508606 
	C465.023529,585.358826 463.490479,586.318359 461.406677,587.532288 
	C466.650970,594.415283 471.716431,600.713013 480.662872,601.638550 
	C488.841339,602.484497 489.435211,602.982239 489.383179,611.890259 
	C465.346436,611.890259 441.308533,611.890259 417.270294,611.890259 
	C417.291870,604.644104 418.762329,602.737549 425.038849,601.395142 
	C430.292938,600.271423 432.280609,599.108887 435.503510,594.876343 
	C426.788940,595.999451 418.705383,597.304260 410.530304,597.737549 
	C401.041931,598.240356 391.566803,598.711792 382.114349,597.577942 
	C378.646759,597.162048 376.844330,598.161011 376.054413,601.678406 
	C374.998840,606.378967 373.557495,610.995667 372.198914,615.624023 
	C371.691254,617.353394 371.248383,619.200867 368.778595,619.266663 
	C365.996857,619.340820 365.612244,617.212158 365.037689,615.358948 
	C363.264832,609.640381 361.529419,603.908142 359.922974,598.141235 
	C359.315491,595.960510 358.243225,594.760803 355.911224,594.383667 
	C340.015045,591.812927 324.135803,589.137390 308.245575,586.529236 
	C307.303619,586.374634 306.314178,586.509277 305.360016,586.509277 
	C305.038330,594.639954 311.295227,600.491821 321.237457,601.623779 
	C323.509735,601.882507 325.811859,601.481079 326.384888,604.910828 
	C327.596008,612.159424 327.641663,612.292725 320.463867,612.308838 
	C319.131775,612.311829 317.799652,612.308228 315.971497,612.307739 
M337.657013,421.126160 
	C327.618195,423.988556 318.258270,427.865173 311.433472,436.417236 
	C309.287415,439.106445 308.302734,441.569641 308.516388,444.978546 
	C308.859161,450.446350 308.762360,455.945648 308.741821,461.431244 
	C308.718231,467.744232 308.480621,474.057343 308.517700,480.369354 
	C308.542786,484.642456 312.555511,488.159424 317.924438,489.013641 
	C322.905914,489.806183 322.000244,485.471710 322.731140,483.094238 
	C325.950714,472.622009 328.793182,462.034485 331.846802,451.510315 
	C333.344818,446.347412 335.005432,441.231689 336.603302,436.059418 
	C339.319672,436.962219 339.109528,438.855774 339.535858,440.359985 
	C343.835724,455.531891 348.172577,470.693726 352.358398,485.897125 
	C353.294250,489.296295 354.643860,491.321625 358.565155,490.035675 
	C359.643646,489.681976 360.874115,489.663055 362.028931,489.696442 
	C364.771851,489.775696 366.012573,488.516357 365.916046,485.790710 
	C365.869019,484.462921 365.921387,483.126923 366.008026,481.799805 
	C367.244324,462.853760 366.377563,443.878174 366.819000,424.921234 
	C366.892975,421.743683 366.863220,418.783813 362.288635,419.023254 
	C354.327087,419.440033 346.336273,419.418274 337.657013,421.126160 
M431.182007,563.168701 
	C424.114502,539.942993 417.046997,516.717285 409.989685,493.525085 
	C406.629791,494.374146 405.588104,496.087952 405.003571,498.031250 
	C402.272614,507.109924 399.650299,516.221313 396.930328,525.303345 
	C396.445892,526.921021 396.423248,528.195984 398.077515,529.139404 
	C401.545990,531.117432 404.808441,533.983643 408.765778,534.384705 
	C414.129669,534.928284 415.329224,538.463623 416.727478,542.669495 
	C413.007629,543.867493 409.507172,543.281738 406.077576,543.302490 
	C392.722504,543.383301 392.671844,543.323120 388.758270,556.008545 
	C385.835632,565.481873 383.064545,575.002014 380.052826,585.080688 
	C386.037445,586.226990 391.333069,585.655457 396.579102,585.698914 
	C408.378571,585.796692 419.692230,583.413269 430.608215,578.960266 
	C433.938812,577.601624 435.355042,575.755493 433.804871,572.063293 
	C432.719391,569.477783 432.222992,566.644958 431.182007,563.168701 
M401.548767,476.125061 
	C405.156982,462.775085 408.195160,449.258118 413.185699,436.102203 
	C419.329346,449.702484 422.199768,464.263550 427.562347,478.174713 
	C440.486908,468.310486 442.443970,450.288177 432.818207,437.103394 
	C421.811371,422.026855 405.796814,419.064972 388.734985,418.408813 
	C385.952820,418.301849 385.331879,419.990509 385.416382,422.244263 
	C385.590668,426.891052 385.968231,431.533936 386.018402,436.181061 
	C386.187195,451.818695 386.337463,467.457642 386.297546,483.095612 
	C386.285736,487.712830 387.939392,489.757141 392.739166,489.712860 
	C396.273010,489.680237 398.412476,488.841217 399.060272,485.061035 
	C399.534241,482.295471 400.549713,479.622650 401.548767,476.125061 
M337.681366,516.640381 
	C336.455780,511.803833 335.177887,506.979706 334.028778,502.125031 
	C333.528534,500.011566 332.634613,498.071503 330.371704,497.958130 
	C327.937500,497.836212 327.911377,500.335236 327.370819,501.952606 
	C321.936920,518.212708 316.645416,534.520874 311.121979,550.750183 
	C310.087708,553.789124 310.480316,556.176086 312.232147,558.690002 
	C321.628021,572.173706 334.838898,579.480347 350.681641,582.514709 
	C353.713226,583.095337 355.131348,582.037048 354.204437,578.662537 
	C351.297974,568.081177 348.459167,557.480530 345.696381,546.860779 
	C345.044220,544.353882 343.728485,543.179199 341.122284,543.313721 
	C339.816895,543.381104 338.438202,543.461731 337.290314,542.560913 
	C336.618195,541.138428 337.188202,539.588684 338.027618,538.842346 
	C343.472870,534.000793 340.470093,528.543884 339.387695,523.235718 
	C338.989685,521.283813 338.356842,519.379883 337.681366,516.640381 
M440.065979,507.511108 
	C438.776459,507.419006 437.446808,506.929382 435.581573,508.375702 
	C440.477478,524.727905 445.448730,541.331787 450.641876,558.676819 
	C463.137360,540.397095 460.931824,516.454407 440.065979,507.511108 
M318.063354,498.756958 
	C316.808899,496.303406 314.839020,497.340881 313.511780,498.259094 
	C309.621185,500.950653 306.436951,504.297974 306.374176,509.461731 
	C306.305725,515.090515 306.335052,520.721130 306.390381,526.350220 
	C306.402435,527.576782 306.086273,529.059448 308.547058,530.013611 
	C311.694824,519.752747 314.816467,509.577179 318.063354,498.756958 
M365.300079,498.481049 
	C362.568756,496.680786 359.808319,497.202271 356.611176,498.182343 
	C358.672150,505.752625 360.259460,513.143250 364.584106,519.814331 
	C366.022400,512.928772 365.904205,506.101379 365.300079,498.481049 
M372.676361,553.896973 
	C373.754822,556.409302 373.852142,559.337708 376.123199,561.889038 
	C378.385803,555.857666 380.525787,550.161560 381.451843,544.069580 
	C370.177094,541.791870 369.280090,542.701172 372.333649,552.662720 
	C372.381836,552.819763 372.401398,552.985657 372.676361,553.896973 
M390.794983,514.137024 
	C392.353668,508.789368 394.340881,503.539703 394.948242,497.652832 
	C391.957703,497.445343 389.391083,496.871429 386.803314,498.300354 
	C387.123535,505.084381 387.434540,511.673157 387.745544,518.261963 
	C388.128754,518.276917 388.511932,518.291870 388.895142,518.306824 
	C389.476074,517.150085 390.057007,515.993286 390.794983,514.137024 
z"/>
</svg>