<svg version="1.1" id="Layer_1" xmlns="http://www.w3.org/2000/svg" xmlns:xlink="http://www.w3.org/1999/xlink" x="0px" y="0px"
	 width="100%" viewBox="0 0 1024 1024" enable-background="new 0 0 1024 1024" xml:space="preserve">
<path fill="#000000" opacity="1.000000" stroke="none" 
	d="
M545.000000,702.072021 
	C392.171173,702.075073 239.842316,702.078186 87.513481,702.083252 
	C81.418976,702.083496 81.122154,701.790833 81.106728,695.518982 
	C81.094017,690.352478 81.162300,685.184326 81.052200,680.019958 
	C80.981331,676.695618 82.100082,674.841431 85.726349,675.532349 
	C91.567223,676.645203 93.968346,673.761414 95.445786,668.383667 
	C97.913467,659.401428 100.960487,650.564697 104.099876,641.787048 
	C105.441521,638.035767 105.313400,635.891846 101.198624,634.010193 
	C97.165077,632.165710 93.485794,629.366577 89.985992,626.567566 
	C78.081177,617.046570 79.070305,600.677124 91.921349,592.592468 
	C95.303940,590.464417 98.688431,588.316467 102.742340,587.606262 
	C103.528831,587.468506 104.488251,587.272705 104.995712,586.745422 
	C111.644493,579.837097 114.488487,579.168884 123.278877,582.617920 
	C125.366791,578.163391 134.823547,573.098083 138.066315,576.096924 
	C142.866928,580.536316 144.401657,578.114746 147.907822,575.135071 
	C150.159607,573.221436 154.255585,573.447815 157.604507,573.920227 
	C158.689743,574.073242 160.474350,574.688232 160.603043,575.351257 
	C161.704391,581.026184 166.075684,579.671021 169.640778,579.651733 
	C190.715424,579.537476 211.434753,582.705017 232.162796,586.021729 
	C254.023972,589.519775 275.686859,593.973450 297.247345,598.943970 
	C299.812378,599.535339 301.711731,599.056396 303.756378,597.675659 
	C342.141602,571.754395 380.546906,545.862671 418.949738,519.967529 
	C427.238403,514.378479 435.458618,508.682251 443.870422,503.284851 
	C446.545929,501.568176 448.184082,499.786072 447.690308,496.500366 
	C445.263092,480.348785 450.397888,466.269623 458.787506,452.709534 
	C464.998016,442.671509 470.126190,431.957428 475.586975,421.466675 
	C476.892639,418.958344 478.477386,417.584747 481.381073,417.699982 
	C484.509552,417.824066 487.646729,417.727997 492.051300,417.727997 
	C488.154694,427.158752 484.904480,435.948395 480.924774,444.394226 
	C477.036804,452.645508 477.209076,463.005585 467.218750,469.476562 
	C476.021820,469.552521 483.159454,466.536316 491.422943,466.558228 
	C491.416351,476.107697 491.104095,485.535706 492.459137,496.358154 
	C494.436096,489.150818 493.554749,483.201172 493.686798,477.349304 
	C493.987366,464.028351 491.773987,465.850647 505.380157,465.710785 
	C512.299805,465.639648 519.220825,465.698303 526.439331,464.567963 
	C517.584900,460.106476 508.728333,455.649170 499.877960,451.179657 
	C498.252502,450.358826 497.035095,451.254791 495.724854,452.017944 
	C490.831451,454.868195 485.933167,457.711548 480.991180,460.476044 
	C479.615509,461.245575 478.374908,462.626587 476.198639,461.941010 
	C476.347473,459.502991 478.481689,458.830750 480.000214,457.963379 
	C484.311798,455.500671 486.671112,451.951416 488.136810,447.175903 
	C491.408722,436.515259 495.304291,426.047424 498.801666,415.453491 
	C499.654327,412.870544 500.928284,411.388336 503.770996,411.744751 
	C507.884705,412.260498 508.701691,409.990448 508.934784,406.404694 
	C510.275238,385.783661 510.875732,365.148499 510.734985,344.486420 
	C510.720886,342.413391 510.068359,340.147797 512.144592,337.841797 
	C523.854248,343.485840 535.653320,349.172974 547.452332,354.860107 
	C547.386414,355.203461 547.320496,355.546814 547.254639,355.890137 
	C538.535278,357.705109 529.847778,359.698242 521.083557,361.261322 
	C516.575439,362.065308 514.556458,363.753113 514.867859,368.774628 
	C515.651062,381.403442 515.967224,394.065521 516.236694,406.719208 
	C516.313599,410.329010 517.532898,412.187561 521.200928,411.677551 
	C525.797852,411.038391 527.466064,413.442169 528.865967,417.450775 
	C533.696289,431.282440 539.050476,444.930542 543.951111,458.738678 
	C545.240601,462.371643 547.602112,463.563568 551.845947,464.008606 
	C546.947632,448.218384 539.585327,433.901733 534.103027,418.898621 
	C543.232056,415.636353 547.710144,417.272125 551.824158,425.055420 
	C559.686462,439.930115 567.499756,454.830841 575.390930,469.690216 
	C576.675049,472.108246 577.498779,474.543274 577.314758,477.312531 
	C577.204529,478.971771 577.570251,480.698639 577.253540,482.302582 
	C574.602905,495.725006 580.634094,503.655579 591.891785,510.797638 
	C618.618835,527.753662 643.540405,547.379150 669.030396,566.145569 
	C672.346802,568.587280 674.473694,567.944275 677.271973,565.656799 
	C692.657593,553.079895 706.373535,538.740723 720.627197,524.964539 
	C728.177795,517.666870 736.015320,510.685577 745.315918,505.565094 
	C771.869812,490.945587 799.914490,495.597809 820.876770,517.534790 
	C835.596191,532.938660 845.522583,551.428955 855.889954,569.656372 
	C870.902588,596.050659 886.281921,622.148010 907.375366,644.352356 
	C915.781677,653.201355 924.638062,661.505127 934.769409,668.342896 
	C941.345215,672.780884 946.250671,677.769714 944.540222,686.751709 
	C943.903687,690.094360 944.777466,693.712158 944.854187,697.206787 
	C944.923645,700.374146 943.620667,702.076904 940.098755,702.063965 
	C920.100037,701.990234 900.100769,702.028076 880.101807,702.081299 
	C877.198792,702.089050 875.767761,700.897095 875.781738,697.942200 
	C875.811768,691.609314 875.856018,685.274902 875.752136,678.943481 
	C875.693542,675.368958 877.886475,674.909424 880.657837,674.914429 
	C888.657654,674.928894 896.657654,674.937561 904.657166,674.886475 
	C906.584229,674.874207 908.653259,675.302856 911.345947,673.051575 
	C895.496460,658.421448 881.571777,642.386475 869.149048,624.656555 
	C867.250671,627.418579 867.418518,629.761475 867.414490,632.048462 
	C867.377380,653.214111 867.209412,674.381470 867.444397,695.544250 
	C867.500122,700.560364 866.070679,702.150879 860.989075,702.141174 
	C790.658081,702.006836 720.326782,702.056091 649.995544,702.061401 
	C615.163696,702.064026 580.331848,702.068604 545.000000,702.072021 
M633.718567,555.796082 
	C619.041504,543.408203 604.364502,531.020264 589.687439,518.632385 
	C589.420349,518.934204 589.153198,519.236023 588.886108,519.537842 
	C597.423767,527.643677 605.827942,535.895935 614.522827,543.829468 
	C647.750854,574.148254 680.492615,604.974548 712.275146,636.811035 
	C713.692932,638.231201 715.044128,639.857910 717.042297,640.335632 
	C727.336487,642.796631 737.657104,645.147156 747.968506,647.536194 
	C747.999512,647.370972 748.030518,647.205811 748.061462,647.040588 
	C739.765808,643.507080 731.470093,639.973633 722.918274,636.330994 
	C725.164917,633.216003 727.815002,631.759705 730.280823,630.139587 
	C747.819214,618.616638 765.388428,607.140503 782.958801,595.666382 
	C788.902405,591.784973 788.906433,591.815857 793.513306,597.517334 
	C794.212402,598.382507 794.713196,599.558228 796.366699,599.651550 
	C797.309814,598.160767 797.525208,596.403687 797.713501,594.595703 
	C798.488708,587.152588 799.303772,579.713440 800.140320,572.276917 
	C801.757507,557.902039 803.386475,543.528503 805.047302,529.158630 
	C805.248535,527.417847 805.047119,525.977905 803.799683,524.565979 
	C795.538391,515.215271 775.331299,510.597168 763.850281,515.414795 
	C761.343018,516.466919 760.175537,518.023987 760.406860,520.753906 
	C761.544495,534.180481 762.672791,547.608154 763.735962,561.040771 
	C764.628723,572.320435 765.381226,583.611328 766.295532,594.889160 
	C766.570557,598.280884 764.937927,599.980896 761.845825,600.218506 
	C758.351990,600.487000 759.049805,597.502502 758.909424,595.590759 
	C758.385254,588.453735 758.145386,581.296082 757.651672,574.156372 
	C757.253174,568.394287 756.642761,562.646973 756.093262,556.523743 
	C754.540100,557.714050 754.579895,558.939636 754.467957,560.014038 
	C753.036987,573.746338 751.601807,587.478577 750.285522,601.222168 
	C749.742188,606.895386 748.474976,608.121216 741.560486,608.020630 
	C744.952393,579.614624 748.335632,551.281128 751.869568,521.686096 
	C743.345032,526.181519 737.676697,531.736450 731.718445,536.961914 
	C728.279663,539.977783 726.961182,543.335693 727.247375,547.893433 
	C728.405090,566.327820 729.365051,584.775330 730.263306,603.224609 
	C730.432983,606.709717 730.186035,610.179626 733.348145,613.346985 
	C727.535522,616.280762 722.161865,618.821411 716.966125,621.684937 
	C714.204712,623.206787 712.265564,622.966980 709.885620,620.827393 
	C685.228027,598.660339 659.436462,577.817688 633.718567,555.796082 
M467.349640,604.973328 
	C467.706818,603.690735 468.053192,602.404968 468.422729,601.125916 
	C478.031799,567.866455 487.660583,534.612671 497.208374,501.335632 
	C497.740540,499.480927 498.951721,497.436523 497.289673,494.975555 
	C494.712067,496.845764 494.081116,499.523254 493.071503,501.861664 
	C473.463776,547.275635 453.867523,592.694702 434.397980,638.168030 
	C432.960815,641.524658 431.194275,643.156799 427.428986,643.199036 
	C403.937012,643.462341 380.446960,643.898682 356.955841,644.247131 
	C355.862976,644.263367 354.581116,644.578979 353.381256,642.572021 
	C392.597626,595.196350 433.002747,548.449951 471.373932,500.007812 
	C413.745239,557.453918 358.340302,617.048889 300.195679,674.273010 
	C304.090149,674.892334 307.769409,674.408325 311.274963,674.983337 
	C321.704102,676.694031 329.331116,672.839661 334.583344,663.981873 
	C337.620361,658.860168 342.064148,657.886536 347.673096,657.798828 
	C371.663422,657.423706 395.667023,658.313965 419.647675,657.069763 
	C421.395752,656.979065 423.378235,656.573914 424.734375,658.469971 
	C424.626038,661.873413 421.431122,664.576660 422.200562,668.712769 
	C429.290955,668.712769 436.263367,668.547241 443.222382,668.780762 
	C446.839417,668.902161 448.639496,667.583618 449.656372,664.117798 
	C455.373413,644.632080 461.251587,625.193604 467.349640,604.973328 
M286.644226,628.043274 
	C280.991180,625.557251 274.546234,624.988831 269.017792,621.182190 
	C272.623749,617.305664 277.529358,615.845642 280.887299,611.727356 
	C279.204224,611.287781 277.818207,610.855347 276.402924,610.566589 
	C241.831497,603.513184 207.156540,597.195801 171.804062,595.561340 
	C155.219849,594.794617 138.951675,597.118408 122.739838,600.212769 
	C119.142685,600.899292 117.721901,602.798279 117.993752,606.477112 
	C118.287796,610.456421 118.279701,614.472717 118.147591,618.464417 
	C118.038628,621.756775 119.253479,623.594910 122.472061,624.748535 
	C138.495010,630.491638 154.867676,634.864502 171.624634,637.803101 
	C181.164368,639.476135 181.206528,639.248779 181.749969,629.562317 
	C182.240692,620.815186 183.178238,612.093079 183.987152,602.553040 
	C216.723343,614.383667 248.689301,625.935974 280.655273,637.488281 
	C280.675995,638.010803 280.696747,638.533325 280.717499,639.055847 
	C271.275543,644.676453 261.833618,650.296997 252.391663,655.917603 
	C263.289398,652.761169 273.717621,648.544922 284.292084,644.734619 
	C290.154541,642.622192 295.222046,639.746399 300.054016,635.620911 
	C347.292542,595.289612 394.763000,555.230103 442.133820,515.053589 
	C444.563446,512.992920 446.686310,510.570648 448.951965,508.316711 
	C446.090302,509.271454 443.670532,510.698700 441.484772,512.422607 
	C426.450439,524.280396 411.550385,536.309753 396.446411,548.077637 
	C362.559082,574.480164 328.562073,600.741882 294.670197,627.138611 
	C292.291260,628.991394 290.113068,629.729797 286.644226,628.043274 
M542.922852,524.474915 
	C538.619324,514.855042 534.937866,504.926086 529.133240,495.967163 
	C529.879089,502.715363 531.494812,509.106750 533.203796,515.473083 
	C542.909302,551.629272 552.652161,587.775513 562.340698,623.936340 
	C563.731750,629.128052 563.224609,629.788452 557.921448,629.831116 
	C549.262207,629.900757 540.583679,630.190491 531.945740,629.750610 
	C514.623291,628.868286 497.304596,630.011169 479.990082,629.451294 
	C478.172333,629.392578 475.991608,629.202515 475.462982,631.547546 
	C474.637787,635.207886 472.370453,638.630249 473.267792,642.566772 
	C473.485199,643.520325 474.879425,643.609192 475.890930,643.641541 
	C477.389526,643.689514 478.889740,643.701050 480.389282,643.701294 
	C507.554474,643.705017 534.720215,643.790710 561.884338,643.616211 
	C566.156189,643.588745 568.133179,644.977295 569.147339,649.121338 
	C570.925903,656.389282 573.239563,663.526123 575.322266,670.719788 
	C575.832336,672.481506 576.149780,674.642395 578.460266,674.680176 
	C586.236511,674.807190 594.016174,674.728516 602.914307,674.728516 
	C583.044678,624.189758 563.835205,574.406494 542.922852,524.474915 
M660.257385,644.686035 
	C663.055481,644.363098 664.960938,645.656250 666.554504,647.864441 
	C670.159302,652.859192 673.939636,657.727234 677.541443,662.723999 
	C680.122314,666.304443 682.595581,669.620361 687.893921,668.846008 
	C692.173279,668.220581 696.651794,669.765930 701.144775,668.394592 
	C695.753113,658.108215 565.593872,508.859039 554.856628,502.056488 
	C588.383789,544.319702 621.045776,586.464905 653.529968,630.364807 
	C634.501770,631.090942 616.877686,628.687988 599.165466,629.456238 
	C598.995239,633.240601 601.214233,635.553345 602.203430,638.306458 
	C603.791992,642.727600 606.791321,643.901489 611.430908,643.897766 
	C627.407410,643.884949 643.400452,643.540283 660.257385,644.686035 
M816.965271,563.838562 
	C818.425110,584.251892 820.471130,604.646240 821.130920,625.085388 
	C821.544800,637.905273 826.695190,647.766418 835.433655,656.978943 
	C836.385742,653.004700 836.607849,649.413574 836.612305,645.792358 
	C836.637390,625.463440 836.149841,605.115051 836.912415,584.813660 
	C837.303833,574.393677 834.465576,565.553589 829.097412,557.098389 
	C826.329285,552.738464 823.631958,548.328125 820.703491,544.077820 
	C819.208435,541.908081 817.756653,539.533691 814.648926,537.736267 
	C815.418152,546.717834 816.112183,554.820923 816.965271,563.838562 
M844.967468,595.697632 
	C845.023438,618.021667 845.058594,640.345764 845.147583,662.669678 
	C845.175903,669.772095 845.241333,669.771912 852.346130,671.192871 
	C858.290588,672.381836 858.856873,671.900818 858.938416,665.657715 
	C859.127686,651.170410 858.468384,636.664124 859.624695,622.200256 
	C860.254761,614.318481 859.189697,607.102356 854.128845,600.624512 
	C851.135315,596.792847 849.774963,591.783325 845.914978,588.189331 
	C844.604858,590.496277 845.171204,592.689941 844.967468,595.697632 
M710.595947,583.131165 
	C712.463318,573.400574 715.823303,563.918457 716.541382,553.488525 
	C714.985962,553.843445 714.369080,553.795105 714.069336,554.080200 
	C706.237000,561.529114 698.418274,568.992615 690.651001,576.509216 
	C689.319092,577.798157 688.854858,579.508484 690.437378,580.904053 
	C695.505493,585.373474 700.755554,589.605408 706.830200,592.577454 
	C709.285889,589.814331 709.393250,586.688599 710.595947,583.131165 
M537.629822,666.384338 
	C540.015625,660.747070 539.213318,658.151062 534.778015,658.108398 
	C520.334961,657.969238 505.889923,658.043701 491.445801,657.996582 
	C488.574402,657.987244 487.265503,659.126282 487.265350,662.160400 
	C487.265198,665.232544 488.240112,666.817383 491.523651,666.801086 
	C506.626587,666.726196 521.729919,666.732117 537.629822,666.384338 
M801.974060,663.653870 
	C769.315369,655.850769 736.105225,652.015869 702.651855,649.896301 
	C743.240662,659.240845 784.726807,662.947144 825.816162,669.276611 
	C818.134460,667.479065 810.452759,665.681458 801.974060,663.653870 
M142.596344,669.099304 
	C142.612152,663.791992 142.638321,658.484680 142.638077,653.177368 
	C142.638000,651.339417 142.741653,649.346680 140.488052,648.646790 
	C134.543076,646.800537 128.572220,645.037659 122.707054,643.270264 
	C121.815392,644.983398 122.517578,646.025513 122.909668,647.066406 
	C125.945694,655.127014 129.196671,663.112793 131.989655,671.255981 
	C133.204514,674.797974 135.529114,675.138916 138.534592,675.049500 
	C141.941132,674.948120 142.569397,672.753479 142.596344,669.099304 
M811.161194,584.139954 
	C810.741760,576.908752 810.580078,569.651672 809.177429,562.186829 
	C807.884949,563.817810 808.714844,565.362915 808.411804,566.766785 
	C805.743774,579.122986 805.546631,591.812378 803.406677,604.239502 
	C801.912659,612.915405 807.950378,617.905579 811.956299,623.903137 
	C812.536804,623.773071 813.117249,623.642944 813.697754,623.512817 
	C812.896301,610.696716 812.094910,597.880554 811.161194,584.139954 
M169.528198,664.616455 
	C171.517883,664.589783 173.509384,664.606995 175.496719,664.524048 
	C177.499954,664.440369 178.484375,663.213989 178.597198,661.319519 
	C178.702484,659.551514 179.318527,657.135498 176.990555,656.641724 
	C168.641541,654.870789 160.223007,653.427673 151.973679,651.887268 
	C150.679764,654.625305 151.107056,656.813721 150.911316,658.927917 
	C150.516174,663.195740 152.296219,664.988220 156.674057,664.676147 
	C160.632843,664.393799 164.627670,664.616882 169.528198,664.616455 
M115.324043,662.527100 
	C115.357689,665.686157 115.196114,668.862549 115.474083,672.000000 
	C115.826469,675.977173 118.880005,675.281311 121.539253,675.104431 
	C124.564629,674.903137 125.142586,673.195801 124.271523,670.645752 
	C121.737976,663.228699 119.180367,655.819824 116.632195,648.407776 
	C116.197990,648.503601 115.763779,648.599365 115.329575,648.695190 
	C115.329575,652.986145 115.329575,657.277161 115.324043,662.527100 
M722.637756,597.165894 
	C722.198730,590.146362 721.759644,583.126892 721.320557,576.107361 
	C720.746277,576.041199 720.171936,575.974976 719.597656,575.908813 
	C718.208740,581.902100 716.729431,587.876343 715.456787,593.894226 
	C714.229919,599.695618 715.253784,601.075684 721.470215,602.688293 
	C722.696594,601.334778 722.548767,599.631348 722.637756,597.165894 
M102.382874,615.173401 
	C102.930679,615.547485 103.460274,615.952148 104.029099,616.290955 
	C110.013550,619.854675 111.155907,619.218018 111.562157,612.087952 
	C111.618729,611.095154 111.631981,610.098267 111.624199,609.103638 
	C111.611168,607.439087 111.795486,605.205322 110.018738,604.747559 
	C106.232094,603.771973 103.386574,606.083557 100.920784,608.602356 
	C98.672409,610.899048 99.157806,613.039978 102.382874,615.173401 
M104.682251,674.924011 
	C107.052048,674.859314 107.772217,673.426025 107.764908,671.303406 
	C107.744179,665.279419 107.757645,659.255310 107.757645,653.231262 
	C105.097328,659.107117 103.253281,665.097961 101.431389,671.095581 
	C100.749641,673.339783 100.845329,675.127869 104.682251,674.924011 
M268.380524,597.267761 
	C266.574066,596.544006 264.769714,596.004944 261.505432,597.747192 
	C267.540497,599.359314 272.154388,601.044067 277.237244,600.130920 
	C274.911652,597.678040 271.823944,598.048462 268.380524,597.267761 
M166.679962,643.579895 
	C166.988007,643.497192 167.307617,643.441345 167.597656,643.316711 
	C167.695831,643.274536 167.787003,642.949402 167.767197,642.937134 
	C163.889404,640.524658 159.672287,639.778259 155.193222,640.244812 
	C158.173859,643.628540 162.385712,642.546143 166.679962,643.579895 
M915.653992,661.841064 
	C917.538635,663.080383 919.151611,664.796570 922.403625,665.527588 
	C918.778198,661.667419 915.997009,658.193848 911.122131,655.767212 
	C911.753296,658.860107 913.623169,659.999268 915.653992,661.841064 
M143.116394,636.172852 
	C139.255310,635.156128 139.255310,635.156128 136.163773,636.333435 
	C140.354752,637.714294 144.088638,639.652100 148.813187,638.934875 
	C147.366913,636.883057 145.369171,637.068176 143.116394,636.172852 
M123.602203,630.127991 
	C121.834267,629.561218 120.086464,628.755737 117.413887,629.460144 
	C121.404945,632.715454 125.395370,633.067627 129.395386,633.410339 
	C128.070206,631.493591 126.161224,630.941956 123.602203,630.127991 
M884.090942,626.330322 
	C885.540283,621.067078 880.799194,619.878906 878.346375,617.175598 
	C878.867126,620.923157 881.134766,623.589783 884.090942,626.330322 
M283.509033,602.627625 
	C286.595093,603.066650 289.512390,605.893005 293.233063,603.530640 
	C290.959198,601.285095 288.386505,601.430481 286.016907,601.177673 
	C285.022461,601.071594 283.009247,599.273254 283.509033,602.627625 
M252.235504,596.100769 
	C253.846268,596.212402 255.588562,597.420471 257.820801,595.049133 
	C253.005356,594.210632 248.955688,593.505493 244.906036,592.800354 
	C244.801895,593.275635 244.697754,593.750977 244.593613,594.226318 
	C246.886887,594.789673 249.180161,595.353027 252.235504,596.100769 
M858.953979,583.658508 
	C857.862976,582.392944 857.530151,580.393188 854.985229,579.624268 
	C855.705933,583.744507 857.044128,586.803772 860.323792,589.353516 
	C861.137695,586.987488 859.912964,585.685486 858.953979,583.658508 
M903.558838,646.951660 
	C902.213135,645.826050 901.512756,643.647217 898.570374,643.921204 
	C901.050476,647.959656 903.973877,650.695923 907.948914,653.994873 
	C907.849609,649.987671 905.147278,649.255249 903.558838,646.951660 
M890.403015,635.190735 
	C891.755005,636.411987 892.687378,638.301636 895.564209,638.359436 
	C893.350769,635.011780 891.519470,632.156555 888.653564,630.012024 
	C886.667542,632.588135 889.013550,633.411438 890.403015,635.190735 
M786.138733,502.360474 
	C783.967773,502.369019 781.675232,500.699615 779.047668,502.782471 
	C782.738342,504.771149 786.034302,505.092468 789.643982,504.497955 
	C789.103699,502.789185 787.836914,502.820496 786.138733,502.360474 
M851.816528,575.491882 
	C853.432068,570.745422 849.470032,568.607849 847.300293,565.625244 
	C847.402893,569.359741 850.072632,571.941040 851.816528,575.491882 
M834.360718,546.885254 
	C835.121460,547.653320 835.703369,549.009949 837.584900,547.306824 
	C836.200073,544.958801 835.646118,541.951294 831.937439,540.642273 
	C831.496155,543.308228 833.181641,544.680969 834.360718,546.885254 
M814.347656,520.649353 
	C816.230164,522.472778 817.694153,524.868896 820.948181,526.007202 
	C818.947815,521.138367 817.057312,519.441772 812.830505,518.411194 
	C813.276855,519.117737 813.619934,519.660828 814.347656,520.649353 
M829.837524,535.553772 
	C828.322937,533.358276 827.219604,530.768311 824.264526,529.938110 
	C825.401367,532.656860 825.069214,536.674866 829.837524,535.553772 
M871.880493,605.978760 
	C871.243713,605.334045 870.985046,604.194519 869.312622,604.365601 
	C870.678833,607.648132 871.881226,610.783508 875.361389,613.337769 
	C875.629883,609.932922 873.526245,608.395996 871.880493,605.978760 
M803.499268,509.606903 
	C801.161560,508.381317 798.938110,506.800293 795.876038,507.623535 
	C798.860168,509.134399 801.844238,510.645233 804.828308,512.156067 
	C804.968079,511.915985 805.107849,511.675903 805.247620,511.435822 
	C804.826477,510.957642 804.405396,510.479462 803.499268,509.606903 
M865.965942,599.799133 
	C867.649109,600.384094 867.723511,599.252136 867.271423,598.296753 
	C866.339111,596.326233 865.550659,594.156433 862.995850,592.605103 
	C862.850647,595.718018 864.447388,597.471680 865.965942,599.799133 
M841.476685,557.814941 
	C842.293091,558.622253 842.749390,559.994263 844.723267,560.024353 
	C843.437073,557.026184 842.495178,554.471680 839.843445,552.049377 
	C839.522644,554.784912 840.466370,555.980347 841.476685,557.814941 
M770.790466,501.515991 
	C769.215942,502.248840 766.953552,501.502594 765.480896,503.915924 
	C768.815735,504.274780 771.320801,503.681091 774.848206,501.978485 
	C772.904785,501.704041 772.140198,501.596069 770.790466,501.515991 
z"/>
</svg>