<?xml version="1.0" encoding="UTF-8" standalone="no"?>
<!-- Created with Inkscape (http://www.inkscape.org/) -->

<svg
   width="200mm"
   height="160mm"
   viewBox="0 0 200 160"
   version="1.1"
   id="svg5"
   xml:space="preserve"
   inkscape:version="1.2.2 (732a01da63, 2022-12-09)"
   sodipodi:docname="Teekanneneffekt - Kopie.svg"
   xmlns:inkscape="http://www.inkscape.org/namespaces/inkscape"
   xmlns:sodipodi="http://sodipodi.sourceforge.net/DTD/sodipodi-0.dtd"
   xmlns="http://www.w3.org/2000/svg"
   xmlns:svg="http://www.w3.org/2000/svg"><sodipodi:namedview
     id="namedview7"
     pagecolor="#ffffff"
     bordercolor="#000000"
     borderopacity="0.25"
     inkscape:showpageshadow="2"
     inkscape:pageopacity="0.0"
     inkscape:pagecheckerboard="0"
     inkscape:deskcolor="#d1d1d1"
     inkscape:document-units="mm"
     showgrid="false"
     inkscape:zoom="1.1893044"
     inkscape:cx="422.9363"
     inkscape:cy="247.20332"
     inkscape:window-width="1920"
     inkscape:window-height="1017"
     inkscape:window-x="-8"
     inkscape:window-y="-8"
     inkscape:window-maximized="1"
     inkscape:current-layer="layer1" /><defs
     id="defs2"><inkscape:path-effect
       effect="bspline"
       id="path-effect314"
       is_visible="true"
       lpeversion="1"
       weight="33.333333"
       steps="2"
       helper_size="0"
       apply_no_weight="true"
       apply_with_weight="true"
       only_selected="false" /><inkscape:path-effect
       effect="bspline"
       id="path-effect247"
       is_visible="true"
       lpeversion="1"
       weight="33.333333"
       steps="2"
       helper_size="0"
       apply_no_weight="true"
       apply_with_weight="true"
       only_selected="false" /></defs><g
     inkscape:label="Ebene 1"
     inkscape:groupmode="layer"
     id="layer1"><g
       id="g497"
       transform="translate(0,9.6099327)"><path
         style="fill:#000000;stroke:#333333;stroke-width:0.309804"
         d="m 108.07543,31.415819 c 0,0 17.92061,-4.399592 26.77638,-5.265859 0.63617,-0.06223 1.2891,-0.0097 1.2891,-0.0097 0,0 -0.50214,-2.528066 -1.29282,-3.838904 -1.08129,-1.792646 -2.56677,-3.494755 -4.44726,-4.560265 -2.82142,-1.598655 -6.32453,-1.792359 -9.56582,-2.358758 -3.95648,-0.691376 -9.17897,1.432448 -11.99921,-1.258004 -0.62994,-0.60095 -0.71403,-1.793572 -0.25174,-2.516009 0.4835,-0.755595 1.91053,-0.424371 2.60123,-1.022128 0.7168,-0.6203387 1.30273,-1.5238517 1.34257,-2.4373834 0.0594,-1.3617012 -0.6629,-2.7981774 -1.67821,-3.7740125 -1.00512,-0.9660426 -2.53896,-1.3554317 -3.9438,-1.6511307 -1.25564,-0.2642944 -2.57297,-0.078626 -3.8599,-0.078626 -1.28693,0 -2.60425,-0.1856688 -3.859896,0.078626 -1.404847,0.295699 -2.938686,0.6850881 -3.943802,1.6511307 -1.015305,0.9758351 -1.73759,2.4123113 -1.67821,3.7740125 0.03984,0.9135317 0.625766,1.8170447 1.342566,2.4373834 0.690705,0.597757 2.117731,0.266533 2.601236,1.022128 0.462287,0.722437 0.3782,1.915059 -0.251738,2.516009 -2.820241,2.690452 -8.042734,0.566628 -11.999216,1.258004 -3.241286,0.566399 -6.744393,0.760103 -9.565824,2.358758 -1.880494,1.06551 -3.365968,2.767619 -4.447257,4.560265 -0.790671,1.310838 -1.371466,4.330496 -1.371466,4.330496 0,0 1.28243,-0.03174 1.918597,0.03049 8.855771,0.866267 26.225534,4.753497 26.225534,4.753497 z"
         id="path369"
         sodipodi:nodetypes="cscssssssssssssssssssscscc" /><g
         id="g302"
         transform="matrix(0.45092775,0,0,0.45092775,0.74194318,19.918129)"><path
           style="fill:#000000;stroke:#333333;stroke-width:0.705203;stroke-dasharray:none"
           d="m 109.10971,84.945615 c 0,0 -2.14654,0.169294 -3.01181,-0.353281 -3.36253,-2.030765 -4.57432,-6.393215 -6.6632,-9.71997 C 93.76027,65.835271 89.49477,55.936835 83.51623,47.097981 79.23332,40.766 74.41196,34.785607 69.29332,29.107856 64.58886,23.889519 59.52914,18.973541 54.19761,14.397751 49.93109,10.736008 40.72982,4.2428134 40.72982,4.2428134 L 15.794241,17.24808 c 0,0 7.62738,5.399492 11.350789,8.221093 4.56749,3.461251 9.23969,6.816735 13.47455,10.677853 3.16727,2.887743 6.36432,5.829253 8.8805,9.299048 2.88358,3.976429 5.22212,8.393203 6.96695,12.984779 3.74436,9.853441 5.31121,20.415759 7.32768,30.76199 1.27096,6.52112 1.77218,13.175037 3.00065,19.704317 1.05412,5.60259 2.10314,11.22837 3.74612,16.6874 1.49794,4.97712 3.33108,9.87154 5.54923,14.57211 2.61387,5.53912 5.77904,10.81644 9.09749,15.96447 2.74479,4.2581 5.4619,8.60291 8.9194,12.30576 2.19365,2.34931 4.78954,4.30748 7.40191,6.1802 2.92841,2.09929 5.98372,4.06048 9.22531,5.63361 2.39544,1.1625 7.48867,2.7796 7.48867,2.7796"
           id="path436"
           sodipodi:nodetypes="csssssccssssssssssssc" /><path
           id="path597"
           style="fill:#000000;stroke:#333333;stroke-width:0.705203;stroke-dasharray:none"
           d="m 157.56182,14.95626 c 0,0 -1.0008,2.18092 -1.19823,3.350258 -0.95772,5.672234 2.52285,12.012306 0.15764,17.25609 -0.52768,1.169873 -1.85199,1.79523 -2.90973,2.522009 -4.85146,3.333415 -10.6112,5.156036 -15.58227,8.308273 -4.13727,2.623496 -8.36982,5.268857 -11.78462,8.781525 -3.63368,3.737833 -6.20997,8.387621 -8.98707,12.799283 -2.73565,4.345806 -5.5875,8.684356 -7.53927,13.434136 -0.77585,1.888079 -1.62439,5.904526 -1.62439,5.904526 0,0 0.018,66.59578 10.02557,97.80162 0.85182,2.65615 2.6587,4.90966 4.14798,7.26821 2.78137,4.40489 5.86745,8.61176 8.92624,12.82873 2.76359,3.81002 5.55319,7.60527 8.5136,11.26447 2.50932,3.10165 5.05896,6.18247 7.83139,9.05134 1.71364,1.77329 4.42363,2.77501 5.42495,5.02853 0.53087,1.19476 0.18007,2.62113 0.0507,3.92211 -0.34927,3.51369 -2.2057,6.82759 -2.21915,10.35854 -0.004,0.99785 0.10912,2.06512 0.60526,2.9309 0.83484,1.45683 2.33649,2.45343 3.74162,3.37261 2.2496,1.4716 4.80835,2.44101 7.34669,3.32595 3.07019,1.07036 6.2923,1.64796 9.46159,2.3741 5.84479,1.33912 11.67396,2.8268 17.61276,3.6548 6.80022,0.9481 13.6825,1.24662 20.54415,1.49087 10.56365,0.37604 21.1526,0.47011 31.71067,-0.0397 8.98723,-0.43397 17.97099,-1.24371 26.8708,-2.56718 7.5382,-1.12097 15.09155,-2.40783 22.40742,-4.54306 3.65956,-1.0681 7.38963,-2.17322 10.67145,-4.11307 1.7153,-1.01388 3.2637,-2.34722 4.5727,-3.84947 0.89279,-1.02461 1.88362,-2.12172 2.17491,-3.44915 0.95772,-4.36438 -3.03775,-9.01415 -1.74398,-13.29095 1.39008,-4.59522 6.43916,-7.12832 9.47519,-10.84725 3.19274,-3.91089 6.2898,-7.90652 9.18148,-12.04496 2.9568,-4.2316 5.90786,-8.49733 8.33752,-13.05206 1.16191,-2.17816 1.43751,-4.84564 2.96267,-6.78682 1.27939,-1.62833 3.13026,-2.7633 4.94437,-3.76196 6.42096,-3.53474 13.88059,-4.75977 20.61036,-7.66386 4.98611,-2.15168 9.98569,-4.36123 14.6063,-7.21444 5.30702,-3.27701 10.29155,-7.1119 14.92417,-11.28826 4.53252,-4.08616 8.75718,-8.55613 12.49287,-13.3816 3.06598,-3.96041 5.74746,-8.23753 8.06416,-12.678 2.29832,-4.40533 4.10986,-9.06436 5.73951,-13.75832 1.97001,-5.67429 3.67897,-11.46201 4.85961,-17.35138 0.94145,-4.696035 1.66413,-9.472204 1.75806,-14.260763 0.14603,-7.443511 -0.0345,-15.039811 -1.85996,-22.25746 -1.73033,-6.841332 -4.8002,-13.375209 -8.47912,-19.397112 -3.40716,-5.577047 -7.54683,-10.811815 -12.40084,-15.187954 -3.06602,-2.764172 -6.70269,-4.865403 -10.3498,-6.799239 -3.85365,-2.043342 -7.83093,-4.056138 -12.08467,-5.021336 -5.05943,-1.148017 -10.39544,-1.467581 -15.54238,-0.815749 -3.83007,0.485053 -7.6165,1.704705 -11.04908,3.471626 -4.3511,2.239728 -8.04913,5.605979 -11.72066,8.841442 -2.12523,1.872811 -4.02482,3.990226 -5.92988,6.086568 -3.15836,3.475456 -5.5478,7.686664 -9.10714,10.750173 -0.68094,0.586078 -1.40948,1.249181 -2.29231,1.415799 -1.41931,0.267871 -2.92256,-0.239654 -4.26326,-0.777017 -2.24511,-0.899866 -3.96793,-2.777471 -6.06145,-3.988892 -2.19504,-1.270159 -4.5096,-2.321592 -6.79278,-3.425456 -2.18396,-1.055891 -4.68118,-1.578857 -6.6034,-3.058596 -0.8161,-0.628232 -1.61613,-1.411473 -1.97331,-2.377441 -2.13127,-5.763671 0.94565,-12.414027 -0.29442,-18.432721 -0.0908,-0.441007 -0.51424,-1.2495 -0.51424,-1.2495 0,0 -12.67319,1.17429 -19.02526,1.53995 -8.67751,0.499522 -17.37212,0.638922 -26.06031,0.892339 -11.02786,0.321667 -22.05573,0.752113 -33.08822,0.797388 C 212.82279,17.076019 206.40957,16.929561 200,16.744578 190.99219,16.48461 181.99255,15.994659 172.98902,15.614346 167.8465,15.397125 157.56166,14.956252 157.56166,14.956252 Z m 215.51871,22.89971 c 0.5013,0.005 0.99994,0.0393 1.49576,0.115494 2.59158,0.398322 4.94045,1.766182 7.35787,2.781567 2.13855,0.898256 4.38339,1.63895 6.31374,2.925069 2.48872,1.658143 4.70079,3.764147 6.61673,6.060312 2.3559,2.82344 4.36359,5.984764 5.87311,9.337871 1.46708,3.258771 2.24876,6.797914 3.00986,10.289697 0.77708,3.56501 1.47092,7.184701 1.57853,10.831821 0.11758,3.983325 -0.57675,7.951464 -1.02308,11.911455 -0.4197,3.723738 -0.6981,7.485658 -1.55555,11.133554 -1.11953,4.76294 -2.52933,9.51476 -4.65742,13.92044 -2.62332,5.43092 -6.11644,10.44395 -9.87127,15.16388 -3.4724,4.36494 -7.21308,8.61964 -11.61235,12.04845 -4.41734,3.44291 -9.60799,5.77106 -14.57825,8.3524 -1.89095,0.98207 -3.79656,1.95765 -5.79011,2.70991 -0.80792,0.30485 -1.66001,0.47263 -2.48595,0.72463 -0.35431,0.10802 -0.69336,0.28395 -1.05982,0.33806 -0.5337,0.0786 -1.10844,0.15422 -1.61728,-0.0252 -0.37219,-0.13107 -0.71946,-0.39646 -0.93391,-0.72776 -0.33505,-0.51773 -0.39273,-1.18225 -0.43995,-1.79715 -0.15385,-2.00709 0.28582,-4.01775 0.52352,-6.01662 0.53841,-4.5275 1.64777,-8.98242 2.04333,-13.52461 0.429,-4.92523 0.42814,-9.88366 0.35243,-14.82692 -0.0641,-4.23032 -0.30622,-8.46057 -0.68758,-12.67411 -0.31234,-3.45095 -0.77329,-6.8896 -1.30937,-10.312923 -0.35585,-2.272125 -0.5772,-4.587363 -1.26495,-6.781918 -0.65368,-2.085912 -2.21895,-3.84572 -2.69172,-5.979887 -0.48069,-2.169939 -0.1024,-4.444717 -0.0863,-6.667186 0.0314,-4.317761 -0.22571,-8.670125 0.35486,-12.948804 0.41779,-3.079395 1.28204,-6.092857 2.23607,-9.05039 0.69574,-2.156678 1.46783,-4.309019 2.53397,-6.308683 0.7508,-1.40822 1.58285,-2.812464 2.69436,-3.957602 1.8948,-1.952127 4.13405,-3.656426 6.60631,-4.791789 2.35393,-1.081041 4.99666,-1.423331 7.55981,-1.797379 1.48913,-0.217325 3.0107,-0.471026 4.51456,-0.455659 z" /></g></g></g></svg>
