<svg xmlns="http://www.w3.org/2000/svg" xmlns:v="https://svgstorm.com"
viewBox = "0 0 1000 1000"
width="1000"
height="1000">
<g fill="None" fill-opacity="0.0" stroke="#FFFFFF" stroke-opacity="1.00" stroke-width="0.3"><path d="
M 0.00 1000.00 
L 1000.00 1000.00
L 1000.00 0.00
L 0.00 0.00
L 0.00 1000.00
M 570.00 168.00 
C 552.17 175.17 530.60 175.18 512.00 182.00
C 514.38 194.24 514.96 208.32 518.98 220.02 C 522.99 231.73 524.45 242.68 530.31 253.69 C 536.16 264.71 536.59 273.11 545.92 283.08 C 555.25 293.05 546.20 301.19 533.00 303.00
C 533.00 325.33 533.00 347.67 533.00 370.00
C 537.50 369.75 541.79 370.07 546.00 371.00
C 549.85 354.23 552.00 337.01 555.00 320.00
C 558.00 331.91 560.05 345.53 561.99 358.01 C 563.93 370.48 570.38 380.91 573.00 393.00
C 553.50 399.03 560.93 419.68 560.00 437.00 C 559.07 454.32 560.70 476.26 560.00 494.00
C 567.00 494.00 574.00 494.00 581.00 494.00
C 581.00 485.33 581.00 476.67 581.00 468.00
C 565.97 466.53 580.76 452.98 583.98 442.98 C 587.19 432.97 593.30 422.25 595.78 410.78 C 598.25 399.31 598.41 381.63 598.00 369.00
C 612.82 376.30 631.39 381.11 647.00 388.00
C 638.81 390.17 630.27 392.43 621.33 393.33 C 612.39 394.23 600.21 395.91 603.93 406.07 C 607.64 416.23 606.95 422.50 610.93 431.07 C 614.90 439.64 615.81 445.88 620.77 453.23 C 625.74 460.58 630.97 470.86 617.00 469.00
C 617.00 491.67 617.00 514.33 617.00 537.00
C 597.99 536.85 577.42 546.40 569.00 564.00
C 559.13 554.52 549.44 543.07 539.75 532.25 C 530.07 521.43 516.98 510.75 515.00 496.00
C 542.72 479.25 522.49 446.06 503.00 431.00
C 509.76 424.90 517.46 421.56 519.78 411.78 C 522.09 401.99 514.13 393.57 506.30 388.70 C 498.47 383.82 486.98 382.53 487.00 372.00 C 487.02 361.47 488.01 345.00 487.00 335.00 C 485.99 325.00 491.56 306.59 482.97 302.03 C 474.39 297.47 464.56 294.44 472.25 285.25 C 479.95 276.07 479.94 270.21 484.93 260.93 C 489.92 251.65 491.58 244.51 494.93 234.93 C 498.27 225.34 500.62 215.90 502.98 205.98 C 505.33 196.05 507.12 183.39 507.00 173.00 C 506.88 162.61 504.08 144.58 514.10 149.90 C 524.12 155.22 532.26 155.04 542.07 158.93 C 551.88 162.81 560.26 164.62 570.00 168.00
M 449.00 337.00 
C 464.50 341.14 470.45 358.54 466.00 373.00
C 473.79 375.99 478.66 383.87 479.00 392.00
C 487.45 392.42 510.31 400.51 505.07 412.07 C 499.83 423.63 483.37 423.36 479.00 435.00
C 491.50 434.00 498.45 447.28 506.75 454.25 C 515.05 461.22 520.11 480.55 507.92 485.92 C 495.73 491.28 502.59 507.15 507.98 517.02 C 513.37 526.90 523.68 532.47 530.75 541.25 C 537.82 550.02 544.47 558.20 552.25 566.75 C 560.04 575.29 563.20 590.49 551.00 597.00
C 549.86 594.48 548.76 591.92 549.00 589.00
C 546.34 588.52 545.68 592.52 543.00 592.00
C 538.47 577.78 534.85 563.97 521.92 557.08 C 509.00 550.18 500.24 542.32 490.08 532.92 C 479.92 523.51 483.04 502.95 470.00 497.00
C 465.49 507.18 463.18 516.60 459.02 527.02 C 454.87 537.45 470.52 538.97 478.23 544.77 C 485.94 550.57 494.55 556.10 501.25 563.75 C 507.95 571.40 514.90 577.27 520.25 585.75 C 525.60 594.23 531.12 603.17 536.00 612.00
C 528.59 622.54 516.87 636.91 522.00 652.00 C 527.13 667.09 515.75 674.18 508.23 687.23 C 500.71 700.28 498.96 718.19 503.00 733.00
C 488.33 733.00 473.67 733.00 459.00 733.00
C 459.00 771.00 459.00 809.00 459.00 847.00
C 377.33 847.00 295.67 847.00 214.00 847.00
C 213.84 834.68 214.21 823.43 214.00 811.00 C 213.79 798.57 214.40 786.69 214.00 774.00 C 213.60 761.31 214.85 750.19 214.00 737.00 C 213.15 723.81 215.88 714.26 214.00 700.00 C 212.12 685.74 228.10 688.46 240.00 689.00
C 240.00 695.33 240.00 701.67 240.00 708.00
C 251.11 710.40 260.05 707.87 260.33 697.33 C 260.60 686.78 264.72 681.32 265.78 671.78 C 266.84 662.24 269.36 654.02 270.98 644.98 C 272.59 635.93 274.40 627.87 276.00 619.00 C 277.60 610.13 280.28 602.63 281.78 593.78 C 283.28 584.93 284.46 575.58 287.00 567.00
C 275.24 555.31 287.19 540.69 300.69 537.69 C 314.20 534.70 323.22 523.88 336.70 519.70 C 350.17 515.51 355.47 501.85 360.00 489.00
C 327.29 477.71 360.48 439.68 381.00 435.00
C 373.01 426.09 358.49 426.33 351.25 415.75 C 344.00 405.17 365.08 395.75 373.00 393.00
C 374.18 380.82 387.32 375.46 384.00 363.00 C 380.68 350.54 394.32 341.81 403.00 338.00
C 398.84 327.94 408.42 320.17 416.68 325.32 C 424.93 330.47 428.54 330.17 436.70 324.69 C 444.85 319.22 452.42 328.80 449.00 337.00
M 728.00 454.00 
C 716.33 457.14 706.11 458.99 693.78 461.78 C 681.45 464.57 689.47 481.35 692.78 491.22 C 696.08 501.10 699.90 511.98 703.98 522.02 C 708.05 532.07 712.27 542.63 714.33 553.67 C 716.39 564.71 716.93 580.53 713.02 591.02 C 709.11 601.52 705.93 609.89 697.00 617.00
C 714.74 640.29 669.56 658.23 663.00 632.00
C 669.88 643.49 694.35 631.89 685.74 622.26 C 677.13 612.62 660.02 623.09 655.23 609.77 C 650.44 596.45 646.49 589.77 639.70 579.30 C 632.90 568.84 618.19 565.04 607.00 567.00 C 595.81 568.96 584.96 577.05 584.07 590.07 C 583.19 603.10 575.00 607.80 564.25 615.25 C 553.50 622.70 572.99 638.49 582.00 637.00
C 573.69 645.63 555.50 641.55 555.00 628.00
C 539.91 639.77 544.63 672.99 564.00 675.00
C 562.46 683.66 569.98 706.21 582.01 704.99 C 594.04 703.78 603.81 693.67 615.23 689.23 C 626.65 684.79 643.50 687.21 654.23 679.23 C 664.95 671.25 670.99 658.44 667.00 645.00
C 675.15 646.95 681.75 657.44 676.00 665.00
C 683.33 669.12 689.80 673.06 696.25 678.75 C 702.69 684.44 706.91 690.61 710.92 698.08 C 714.93 705.54 715.72 718.11 715.01 726.01 C 714.30 733.90 709.73 746.20 707.08 752.08 C 704.42 757.95 694.03 770.68 690.25 764.75 C 686.47 758.82 701.14 752.34 700.99 743.99 C 700.85 735.64 697.18 728.02 686.98 726.02 C 676.77 724.03 670.21 729.20 667.00 739.00
C 660.38 735.08 653.85 733.02 646.78 730.22 C 639.71 727.43 627.19 722.42 631.00 736.00
C 642.71 739.53 655.72 744.03 665.75 751.25 C 675.78 758.48 672.10 743.34 681.00 745.00
C 675.67 757.37 675.33 759.42 683.77 771.23 C 692.21 783.04 667.80 780.00 667.22 789.22 C 666.64 798.44 659.77 810.67 658.00 820.00
C 667.74 819.69 673.00 828.80 682.22 825.22 C 691.44 821.65 699.47 835.59 692.25 842.25 C 685.03 848.90 675.95 849.51 666.00 849.00 C 656.05 848.49 645.32 846.30 635.00 847.00 C 624.68 847.70 613.92 844.39 617.78 832.78 C 621.64 821.17 617.91 812.31 618.00 801.00
C 611.78 801.43 603.90 800.70 597.00 801.00
C 597.28 814.49 595.89 821.95 597.98 835.02 C 600.06 848.10 582.55 846.37 572.78 846.78 C 563.01 847.19 548.04 848.32 538.00 849.00 C 527.96 849.68 516.99 845.73 513.68 836.32 C 510.37 826.91 521.74 814.00 530.23 822.77 C 538.72 831.54 546.06 817.12 557.00 820.00
C 556.25 809.50 550.46 803.73 550.22 792.78 C 549.98 781.82 540.66 781.64 531.92 777.08 C 523.18 772.51 534.15 760.80 536.00 755.00
C 528.19 749.89 525.13 744.72 520.23 736.77 C 515.33 728.82 515.38 718.13 515.98 708.98 C 516.57 699.82 523.62 692.41 526.75 684.75 C 529.89 677.10 542.13 674.06 541.21 666.77 C 540.29 659.48 532.81 646.57 536.99 637.99 C 541.17 629.42 542.83 623.41 549.75 616.75 C 556.68 610.09 561.33 607.29 569.23 602.23 C 577.12 597.17 573.17 583.00 577.77 575.77 C 582.37 568.54 584.86 561.77 593.25 557.25 C 601.64 552.72 610.73 549.74 621.00 550.00 C 631.27 550.26 641.90 551.89 652.07 549.07 C 662.25 546.26 663.04 537.90 665.78 528.78 C 668.51 519.65 671.95 511.96 674.78 502.78 C 677.60 493.60 679.79 485.74 681.98 475.98 C 684.16 466.21 682.57 452.46 683.00 442.00 C 683.43 431.54 694.86 442.97 702.68 444.32 C 710.50 445.68 720.08 451.92 728.00 454.00
M 604.00 582.00 
C 598.08 579.93 593.11 583.83 589.00 588.00
C 585.50 578.17 603.98 568.48 604.00 582.00
M 631.00 595.00 
C 629.65 588.59 623.38 580.30 616.00 584.00
C 619.40 566.55 643.50 587.00 631.00 595.00
M 598.00 594.00 
C 603.77 595.23 601.12 611.87 593.33 609.67 C 585.54 607.46 592.45 592.82 598.00 594.00
M 620.00 600.00 
C 625.66 602.99 620.42 620.21 613.33 616.67 C 606.24 613.13 613.18 596.40 620.00 600.00
M 647.00 606.00 
C 644.37 618.20 647.43 624.74 651.78 636.22 C 656.12 647.70 643.24 656.60 633.00 655.00 C 622.76 653.40 618.06 641.25 608.98 645.98 C 599.89 650.70 586.01 650.88 584.00 639.00
C 592.73 641.40 595.84 643.32 606.00 643.00 C 616.16 642.68 610.01 633.69 611.00 627.00
C 618.95 630.82 620.85 631.67 629.68 635.32 C 638.51 638.98 642.42 632.87 639.22 624.78 C 636.03 616.69 645.25 612.04 647.00 606.00
M 592.00 611.00 
C 599.05 612.46 612.55 625.91 604.25 632.25 C 595.95 638.58 584.21 640.13 576.75 630.25 C 569.30 620.36 578.93 608.29 592.00 611.00
M 740.00 642.00 
C 742.18 646.97 736.75 658.20 740.78 662.22 C 744.80 666.24 756.01 660.83 761.00 663.00
C 761.00 656.00 761.00 649.00 761.00 642.00
C 769.67 642.00 778.33 642.00 787.00 642.00
C 786.99 711.78 786.78 777.73 787.00 847.00
C 760.00 847.00 733.00 847.00 706.00 847.00
C 718.33 828.52 697.76 805.51 677.00 811.00
C 677.26 805.39 679.85 800.41 681.00 795.00
C 695.66 792.04 701.13 779.79 711.75 769.75 C 722.37 759.72 725.23 744.93 728.98 730.98 C 732.72 717.02 727.29 697.92 720.08 685.92 C 712.87 673.92 701.95 666.58 693.00 657.00
C 701.38 655.23 705.37 648.95 711.30 643.30 C 717.24 637.66 732.47 642.06 740.00 642.00
M 601.00 656.00 
C 592.83 664.68 579.99 660.06 580.00 648.00
C 585.98 651.97 593.63 657.39 601.00 656.00 Z"/>
</g>
<g fill="None" fill-opacity="0.0" stroke="#000000" stroke-opacity="1.00" stroke-width="0.3"><path d="
M 570.00 168.00 
C 560.26 164.62 551.88 162.81 542.07 158.93 C 532.26 155.04 524.12 155.22 514.10 149.90 C 504.08 144.58 506.88 162.61 507.00 173.00 C 507.12 183.39 505.33 196.05 502.98 205.98 C 500.62 215.90 498.27 225.34 494.93 234.93 C 491.58 244.51 489.92 251.65 484.93 260.93 C 479.94 270.21 479.95 276.07 472.25 285.25 C 464.56 294.44 474.39 297.47 482.97 302.03 C 491.56 306.59 485.99 325.00 487.00 335.00 C 488.01 345.00 487.02 361.47 487.00 372.00 C 486.98 382.53 498.47 383.82 506.30 388.70 C 514.13 393.57 522.09 401.99 519.78 411.78 C 517.46 421.56 509.76 424.90 503.00 431.00
C 522.49 446.06 542.72 479.25 515.00 496.00
C 516.98 510.75 530.07 521.43 539.75 532.25 C 549.44 543.07 559.13 554.52 569.00 564.00
C 577.42 546.40 597.99 536.85 617.00 537.00
C 617.00 514.33 617.00 491.67 617.00 469.00
C 630.97 470.86 625.74 460.58 620.77 453.23 C 615.81 445.88 614.90 439.64 610.93 431.07 C 606.95 422.50 607.64 416.23 603.93 406.07 C 600.21 395.91 612.39 394.23 621.33 393.33 C 630.27 392.43 638.81 390.17 647.00 388.00
C 631.39 381.11 612.82 376.30 598.00 369.00
C 598.41 381.63 598.25 399.31 595.78 410.78 C 593.30 422.25 587.19 432.97 583.98 442.98 C 580.76 452.98 565.97 466.53 581.00 468.00
C 581.00 476.67 581.00 485.33 581.00 494.00
C 574.00 494.00 567.00 494.00 560.00 494.00
C 560.70 476.26 559.07 454.32 560.00 437.00 C 560.93 419.68 553.50 399.03 573.00 393.00
C 570.38 380.91 563.93 370.48 561.99 358.01 C 560.05 345.53 558.00 331.91 555.00 320.00
C 552.00 337.01 549.85 354.23 546.00 371.00
C 541.79 370.07 537.50 369.75 533.00 370.00
C 533.00 347.67 533.00 325.33 533.00 303.00
C 546.20 301.19 555.25 293.05 545.92 283.08 C 536.59 273.11 536.16 264.71 530.31 253.69 C 524.45 242.68 522.99 231.73 518.98 220.02 C 514.96 208.32 514.38 194.24 512.00 182.00
C 530.60 175.18 552.17 175.17 570.00 168.00 Z"/>
</g>
<g fill="None" fill-opacity="0.0" stroke="#000000" stroke-opacity="1.00" stroke-width="0.3"><path d="
M 449.00 337.00 
C 452.42 328.80 444.85 319.22 436.70 324.69 C 428.54 330.17 424.93 330.47 416.68 325.32 C 408.42 320.17 398.84 327.94 403.00 338.00
C 394.32 341.81 380.68 350.54 384.00 363.00 C 387.32 375.46 374.18 380.82 373.00 393.00
C 365.08 395.75 344.00 405.17 351.25 415.75 C 358.49 426.33 373.01 426.09 381.00 435.00
C 360.48 439.68 327.29 477.71 360.00 489.00
C 355.47 501.85 350.17 515.51 336.70 519.70 C 323.22 523.88 314.20 534.70 300.69 537.69 C 287.19 540.69 275.24 555.31 287.00 567.00
C 284.46 575.58 283.28 584.93 281.78 593.78 C 280.28 602.63 277.60 610.13 276.00 619.00 C 274.40 627.87 272.59 635.93 270.98 644.98 C 269.36 654.02 266.84 662.24 265.78 671.78 C 264.72 681.32 260.60 686.78 260.33 697.33 C 260.05 707.87 251.11 710.40 240.00 708.00
C 240.00 701.67 240.00 695.33 240.00 689.00
C 228.10 688.46 212.12 685.74 214.00 700.00 C 215.88 714.26 213.15 723.81 214.00 737.00 C 214.85 750.19 213.60 761.31 214.00 774.00 C 214.40 786.69 213.79 798.57 214.00 811.00 C 214.21 823.43 213.84 834.68 214.00 847.00
C 295.67 847.00 377.33 847.00 459.00 847.00
C 459.00 809.00 459.00 771.00 459.00 733.00
C 473.67 733.00 488.33 733.00 503.00 733.00
C 498.96 718.19 500.71 700.28 508.23 687.23 C 515.75 674.18 527.13 667.09 522.00 652.00 C 516.87 636.91 528.59 622.54 536.00 612.00
C 531.12 603.17 525.60 594.23 520.25 585.75 C 514.90 577.27 507.95 571.40 501.25 563.75 C 494.55 556.10 485.94 550.57 478.23 544.77 C 470.52 538.97 454.87 537.45 459.02 527.02 C 463.18 516.60 465.49 507.18 470.00 497.00
C 483.04 502.95 479.92 523.51 490.08 532.92 C 500.24 542.32 509.00 550.18 521.92 557.08 C 534.85 563.97 538.47 577.78 543.00 592.00
C 545.68 592.52 546.34 588.52 549.00 589.00
C 548.76 591.92 549.86 594.48 551.00 597.00
C 563.20 590.49 560.04 575.29 552.25 566.75 C 544.47 558.20 537.82 550.02 530.75 541.25 C 523.68 532.47 513.37 526.90 507.98 517.02 C 502.59 507.15 495.73 491.28 507.92 485.92 C 520.11 480.55 515.05 461.22 506.75 454.25 C 498.45 447.28 491.50 434.00 479.00 435.00
C 483.37 423.36 499.83 423.63 505.07 412.07 C 510.31 400.51 487.45 392.42 479.00 392.00
C 478.66 383.87 473.79 375.99 466.00 373.00
C 470.45 358.54 464.50 341.14 449.00 337.00
M 464.00 445.00 
C 458.00 441.69 465.90 437.93 455.92 436.08 C 445.95 434.22 440.43 424.14 443.00 414.00
C 456.17 422.30 474.03 411.65 478.00 398.00
C 482.27 398.55 499.50 404.60 494.74 410.74 C 489.99 416.88 482.19 418.77 477.25 425.25 C 472.30 431.73 465.30 436.54 464.00 445.00
M 375.00 400.00 
C 382.44 413.65 401.06 427.28 416.00 417.00
C 420.52 428.26 411.61 436.86 401.00 438.00
C 400.10 440.90 403.92 442.06 403.00 445.00
C 392.95 432.18 378.64 422.11 364.31 415.70 C 349.97 409.28 372.41 402.21 375.00 400.00
M 397.00 496.00 
C 402.31 508.25 408.59 520.07 412.00 533.00
C 385.71 542.50 362.88 561.79 345.00 584.00
C 331.50 576.40 317.83 567.49 305.00 559.00
C 315.07 542.69 334.34 541.48 352.02 537.02 C 369.71 532.56 377.46 515.97 384.00 500.00
C 389.14 501.13 393.00 498.40 397.00 496.00 Z"/>
</g>
<g fill="None" fill-opacity="0.0" stroke="#FFFFFF" stroke-opacity="1.00" stroke-width="0.3"><path d="
M 464.00 445.00 
C 465.30 436.54 472.30 431.73 477.25 425.25 C 482.19 418.77 489.99 416.88 494.74 410.74 C 499.50 404.60 482.27 398.55 478.00 398.00
C 474.03 411.65 456.17 422.30 443.00 414.00
C 440.43 424.14 445.95 434.22 455.92 436.08 C 465.90 437.93 458.00 441.69 464.00 445.00 Z"/>
</g>
<g fill="None" fill-opacity="0.0" stroke="#FFFFFF" stroke-opacity="1.00" stroke-width="0.3"><path d="
M 375.00 400.00 
C 372.41 402.21 349.97 409.28 364.31 415.70 C 378.64 422.11 392.95 432.18 403.00 445.00
C 403.92 442.06 400.10 440.90 401.00 438.00
C 411.61 436.86 420.52 428.26 416.00 417.00
C 401.06 427.28 382.44 413.65 375.00 400.00 Z"/>
</g>
<g fill="None" fill-opacity="0.0" stroke="#000000" stroke-opacity="1.00" stroke-width="0.3"><path d="
M 728.00 454.00 
C 720.08 451.92 710.50 445.68 702.68 444.32 C 694.86 442.97 683.43 431.54 683.00 442.00 C 682.57 452.46 684.16 466.21 681.98 475.98 C 679.79 485.74 677.60 493.60 674.78 502.78 C 671.95 511.96 668.51 519.65 665.78 528.78 C 663.04 537.90 662.25 546.26 652.07 549.07 C 641.90 551.89 631.27 550.26 621.00 550.00 C 610.73 549.74 601.64 552.72 593.25 557.25 C 584.86 561.77 582.37 568.54 577.77 575.77 C 573.17 583.00 577.12 597.17 569.23 602.23 C 561.33 607.29 556.68 610.09 549.75 616.75 C 542.83 623.41 541.17 629.42 536.99 637.99 C 532.81 646.57 540.29 659.48 541.21 666.77 C 542.13 674.06 529.89 677.10 526.75 684.75 C 523.62 692.41 516.57 699.82 515.98 708.98 C 515.38 718.13 515.33 728.82 520.23 736.77 C 525.13 744.72 528.19 749.89 536.00 755.00
C 534.15 760.80 523.18 772.51 531.92 777.08 C 540.66 781.64 549.98 781.82 550.22 792.78 C 550.46 803.73 556.25 809.50 557.00 820.00
C 546.06 817.12 538.72 831.54 530.23 822.77 C 521.74 814.00 510.37 826.91 513.68 836.32 C 516.99 845.73 527.96 849.68 538.00 849.00 C 548.04 848.32 563.01 847.19 572.78 846.78 C 582.55 846.37 600.06 848.10 597.98 835.02 C 595.89 821.95 597.28 814.49 597.00 801.00
C 603.90 800.70 611.78 801.43 618.00 801.00
C 617.91 812.31 621.64 821.17 617.78 832.78 C 613.92 844.39 624.68 847.70 635.00 847.00 C 645.32 846.30 656.05 848.49 666.00 849.00 C 675.95 849.51 685.03 848.90 692.25 842.25 C 699.47 835.59 691.44 821.65 682.22 825.22 C 673.00 828.80 667.74 819.69 658.00 820.00
C 659.77 810.67 666.64 798.44 667.22 789.22 C 667.80 780.00 692.21 783.04 683.77 771.23 C 675.33 759.42 675.67 757.37 681.00 745.00
C 672.10 743.34 675.78 758.48 665.75 751.25 C 655.72 744.03 642.71 739.53 631.00 736.00
C 627.19 722.42 639.71 727.43 646.78 730.22 C 653.85 733.02 660.38 735.08 667.00 739.00
C 670.21 729.20 676.77 724.03 686.98 726.02 C 697.18 728.02 700.85 735.64 700.99 743.99 C 701.14 752.34 686.47 758.82 690.25 764.75 C 694.03 770.68 704.42 757.95 707.08 752.08 C 709.73 746.20 714.30 733.90 715.01 726.01 C 715.72 718.11 714.93 705.54 710.92 698.08 C 706.91 690.61 702.69 684.44 696.25 678.75 C 689.80 673.06 683.33 669.12 676.00 665.00
C 681.75 657.44 675.15 646.95 667.00 645.00
C 670.99 658.44 664.95 671.25 654.23 679.23 C 643.50 687.21 626.65 684.79 615.23 689.23 C 603.81 693.67 594.04 703.78 582.01 704.99 C 569.98 706.21 562.46 683.66 564.00 675.00
C 544.63 672.99 539.91 639.77 555.00 628.00
C 555.50 641.55 573.69 645.63 582.00 637.00
C 572.99 638.49 553.50 622.70 564.25 615.25 C 575.00 607.80 583.19 603.10 584.07 590.07 C 584.96 577.05 595.81 568.96 607.00 567.00 C 618.19 565.04 632.90 568.84 639.70 579.30 C 646.49 589.77 650.44 596.45 655.23 609.77 C 660.02 623.09 677.13 612.62 685.74 622.26 C 694.35 631.89 669.88 643.49 663.00 632.00
C 669.56 658.23 714.74 640.29 697.00 617.00
C 705.93 609.89 709.11 601.52 713.02 591.02 C 716.93 580.53 716.39 564.71 714.33 553.67 C 712.27 542.63 708.05 532.07 703.98 522.02 C 699.90 511.98 696.08 501.10 692.78 491.22 C 689.47 481.35 681.45 464.57 693.78 461.78 C 706.11 458.99 716.33 457.14 728.00 454.00
M 674.00 710.00 
C 672.77 714.86 666.84 718.29 667.00 711.00
C 669.61 711.67 671.45 709.66 674.00 710.00
M 618.00 718.00 
C 630.74 719.82 622.35 731.74 625.00 743.00 C 627.65 754.26 611.73 753.32 603.00 753.00 C 594.27 752.68 577.71 755.23 579.00 744.00 C 580.29 732.77 574.88 720.83 586.01 719.01 C 597.14 717.18 606.96 716.42 618.00 718.00
M 574.00 725.00 
C 574.00 728.67 574.00 732.33 574.00 736.00
C 562.13 738.46 550.86 743.75 541.00 751.00
C 538.23 731.92 560.65 729.37 574.00 725.00 Z"/>
</g>
<g fill="None" fill-opacity="0.0" stroke="#FFFFFF" stroke-opacity="1.00" stroke-width="0.3"><path d="
M 397.00 496.00 
C 393.00 498.40 389.14 501.13 384.00 500.00
C 377.46 515.97 369.71 532.56 352.02 537.02 C 334.34 541.48 315.07 542.69 305.00 559.00
C 317.83 567.49 331.50 576.40 345.00 584.00
C 362.88 561.79 385.71 542.50 412.00 533.00
C 408.59 520.07 402.31 508.25 397.00 496.00 Z"/>
</g>
<g fill="None" fill-opacity="0.0" stroke="#000000" stroke-opacity="1.00" stroke-width="0.3"><path d="
M 604.00 582.00 
C 603.98 568.48 585.50 578.17 589.00 588.00
C 593.11 583.83 598.08 579.93 604.00 582.00 Z"/>
</g>
<g fill="None" fill-opacity="0.0" stroke="#000000" stroke-opacity="1.00" stroke-width="0.3"><path d="
M 631.00 595.00 
C 643.50 587.00 619.40 566.55 616.00 584.00
C 623.38 580.30 629.65 588.59 631.00 595.00 Z"/>
</g>
<g fill="None" fill-opacity="0.0" stroke="#000000" stroke-opacity="1.00" stroke-width="0.3"><path d="
M 598.00 594.00 
C 592.45 592.82 585.54 607.46 593.33 609.67 C 601.12 611.87 603.77 595.23 598.00 594.00 Z"/>
</g>
<g fill="None" fill-opacity="0.0" stroke="#000000" stroke-opacity="1.00" stroke-width="0.3"><path d="
M 620.00 600.00 
C 613.18 596.40 606.24 613.13 613.33 616.67 C 620.42 620.21 625.66 602.99 620.00 600.00 Z"/>
</g>
<g fill="None" fill-opacity="0.0" stroke="#000000" stroke-opacity="1.00" stroke-width="0.3"><path d="
M 647.00 606.00 
C 645.25 612.04 636.03 616.69 639.22 624.78 C 642.42 632.87 638.51 638.98 629.68 635.32 C 620.85 631.67 618.95 630.82 611.00 627.00
C 610.01 633.69 616.16 642.68 606.00 643.00 C 595.84 643.32 592.73 641.40 584.00 639.00
C 586.01 650.88 599.89 650.70 608.98 645.98 C 618.06 641.25 622.76 653.40 633.00 655.00 C 643.24 656.60 656.12 647.70 651.78 636.22 C 647.43 624.74 644.37 618.20 647.00 606.00 Z"/>
</g>
<g fill="None" fill-opacity="0.0" stroke="#000000" stroke-opacity="1.00" stroke-width="0.3"><path d="
M 592.00 611.00 
C 578.93 608.29 569.30 620.36 576.75 630.25 C 584.21 640.13 595.95 638.58 604.25 632.25 C 612.55 625.91 599.05 612.46 592.00 611.00 Z"/>
</g>
<g fill="None" fill-opacity="0.0" stroke="#000000" stroke-opacity="1.00" stroke-width="0.3"><path d="
M 740.00 642.00 
C 732.47 642.06 717.24 637.66 711.30 643.30 C 705.37 648.95 701.38 655.23 693.00 657.00
C 701.95 666.58 712.87 673.92 720.08 685.92 C 727.29 697.92 732.72 717.02 728.98 730.98 C 725.23 744.93 722.37 759.72 711.75 769.75 C 701.13 779.79 695.66 792.04 681.00 795.00
C 679.85 800.41 677.26 805.39 677.00 811.00
C 697.76 805.51 718.33 828.52 706.00 847.00
C 733.00 847.00 760.00 847.00 787.00 847.00
C 786.78 777.73 786.99 711.78 787.00 642.00
C 778.33 642.00 769.67 642.00 761.00 642.00
C 761.00 649.00 761.00 656.00 761.00 663.00
C 756.01 660.83 744.80 666.24 740.78 662.22 C 736.75 658.20 742.18 646.97 740.00 642.00 Z"/>
</g>
<g fill="None" fill-opacity="0.0" stroke="#000000" stroke-opacity="1.00" stroke-width="0.3"><path d="
M 601.00 656.00 
C 593.63 657.39 585.98 651.97 580.00 648.00
C 579.99 660.06 592.83 664.68 601.00 656.00 Z"/>
</g>
<g fill="None" fill-opacity="0.0" stroke="#FFFFFF" stroke-opacity="1.00" stroke-width="0.3"><path d="
M 674.00 710.00 
C 671.45 709.66 669.61 711.67 667.00 711.00
C 666.84 718.29 672.77 714.86 674.00 710.00 Z"/>
</g>
<g fill="None" fill-opacity="0.0" stroke="#FFFFFF" stroke-opacity="1.00" stroke-width="0.3"><path d="
M 618.00 718.00 
C 606.96 716.42 597.14 717.18 586.01 719.01 C 574.88 720.83 580.29 732.77 579.00 744.00 C 577.71 755.23 594.27 752.68 603.00 753.00 C 611.73 753.32 627.65 754.26 625.00 743.00 C 622.35 731.74 630.74 719.82 618.00 718.00
M 615.00 745.00 
C 607.58 744.57 599.33 745.58 592.00 745.00 C 584.67 744.42 588.61 731.76 589.00 727.00
C 596.94 725.87 602.99 725.86 611.07 726.93 C 619.15 728.00 615.49 738.61 615.00 745.00 Z"/>
</g>
<g fill="None" fill-opacity="0.0" stroke="#FFFFFF" stroke-opacity="1.00" stroke-width="0.3"><path d="
M 574.00 725.00 
C 560.65 729.37 538.23 731.92 541.00 751.00
C 550.86 743.75 562.13 738.46 574.00 736.00
C 574.00 732.33 574.00 728.67 574.00 725.00 Z"/>
</g>
<g fill="None" fill-opacity="0.0" stroke="#000000" stroke-opacity="1.00" stroke-width="0.3"><path d="
M 615.00 745.00 
C 615.49 738.61 619.15 728.00 611.07 726.93 C 602.99 725.86 596.94 725.87 589.00 727.00
C 588.61 731.76 584.67 744.42 592.00 745.00 C 599.33 745.58 607.58 744.57 615.00 745.00 Z"/>
</g>
<g fill="#FFFFFF" fill-opacity="1.00" stroke="None">
<path d="
M 0.00 1000.00 
L 1000.00 1000.00
L 1000.00 0.00
L 0.00 0.00
L 0.00 1000.00
M 570.00 168.00 
C 552.17 175.17 530.60 175.18 512.00 182.00
C 514.38 194.24 514.96 208.32 518.98 220.02 C 522.99 231.73 524.45 242.68 530.31 253.69 C 536.16 264.71 536.59 273.11 545.92 283.08 C 555.25 293.05 546.20 301.19 533.00 303.00
C 533.00 325.33 533.00 347.67 533.00 370.00
C 537.50 369.75 541.79 370.07 546.00 371.00
C 549.85 354.23 552.00 337.01 555.00 320.00
C 558.00 331.91 560.05 345.53 561.99 358.01 C 563.93 370.48 570.38 380.91 573.00 393.00
C 553.50 399.03 560.93 419.68 560.00 437.00 C 559.07 454.32 560.70 476.26 560.00 494.00
C 567.00 494.00 574.00 494.00 581.00 494.00
C 581.00 485.33 581.00 476.67 581.00 468.00
C 565.97 466.53 580.76 452.98 583.98 442.98 C 587.19 432.97 593.30 422.25 595.78 410.78 C 598.25 399.31 598.41 381.63 598.00 369.00
C 612.82 376.30 631.39 381.11 647.00 388.00
C 638.81 390.17 630.27 392.43 621.33 393.33 C 612.39 394.23 600.21 395.91 603.93 406.07 C 607.64 416.23 606.95 422.50 610.93 431.07 C 614.90 439.64 615.81 445.88 620.77 453.23 C 625.74 460.58 630.97 470.86 617.00 469.00
C 617.00 491.67 617.00 514.33 617.00 537.00
C 597.99 536.85 577.42 546.40 569.00 564.00
C 559.13 554.52 549.44 543.07 539.75 532.25 C 530.07 521.43 516.98 510.75 515.00 496.00
C 542.72 479.25 522.49 446.06 503.00 431.00
C 509.76 424.90 517.46 421.56 519.78 411.78 C 522.09 401.99 514.13 393.57 506.30 388.70 C 498.47 383.82 486.98 382.53 487.00 372.00 C 487.02 361.47 488.01 345.00 487.00 335.00 C 485.99 325.00 491.56 306.59 482.97 302.03 C 474.39 297.47 464.56 294.44 472.25 285.25 C 479.95 276.07 479.94 270.21 484.93 260.93 C 489.92 251.65 491.58 244.51 494.93 234.93 C 498.27 225.34 500.62 215.90 502.98 205.98 C 505.33 196.05 507.12 183.39 507.00 173.00 C 506.88 162.61 504.08 144.58 514.10 149.90 C 524.12 155.22 532.26 155.04 542.07 158.93 C 551.88 162.81 560.26 164.62 570.00 168.00
M 449.00 337.00 
C 464.50 341.14 470.45 358.54 466.00 373.00
C 473.79 375.99 478.66 383.87 479.00 392.00
C 487.45 392.42 510.31 400.51 505.07 412.07 C 499.83 423.63 483.37 423.36 479.00 435.00
C 491.50 434.00 498.45 447.28 506.75 454.25 C 515.05 461.22 520.11 480.55 507.92 485.92 C 495.73 491.28 502.59 507.15 507.98 517.02 C 513.37 526.90 523.68 532.47 530.75 541.25 C 537.82 550.02 544.47 558.20 552.25 566.75 C 560.04 575.29 563.20 590.49 551.00 597.00
C 549.86 594.48 548.76 591.92 549.00 589.00
C 546.34 588.52 545.68 592.52 543.00 592.00
C 538.47 577.78 534.85 563.97 521.92 557.08 C 509.00 550.18 500.24 542.32 490.08 532.92 C 479.92 523.51 483.04 502.95 470.00 497.00
C 465.49 507.18 463.18 516.60 459.02 527.02 C 454.87 537.45 470.52 538.97 478.23 544.77 C 485.94 550.57 494.55 556.10 501.25 563.75 C 507.95 571.40 514.90 577.27 520.25 585.75 C 525.60 594.23 531.12 603.17 536.00 612.00
C 528.59 622.54 516.87 636.91 522.00 652.00 C 527.13 667.09 515.75 674.18 508.23 687.23 C 500.71 700.28 498.96 718.19 503.00 733.00
C 488.33 733.00 473.67 733.00 459.00 733.00
C 459.00 771.00 459.00 809.00 459.00 847.00
C 377.33 847.00 295.67 847.00 214.00 847.00
C 213.84 834.68 214.21 823.43 214.00 811.00 C 213.79 798.57 214.40 786.69 214.00 774.00 C 213.60 761.31 214.85 750.19 214.00 737.00 C 213.15 723.81 215.88 714.26 214.00 700.00 C 212.12 685.74 228.10 688.46 240.00 689.00
C 240.00 695.33 240.00 701.67 240.00 708.00
C 251.11 710.40 260.05 707.87 260.33 697.33 C 260.60 686.78 264.72 681.32 265.78 671.78 C 266.84 662.24 269.36 654.02 270.98 644.98 C 272.59 635.93 274.40 627.87 276.00 619.00 C 277.60 610.13 280.28 602.63 281.78 593.78 C 283.28 584.93 284.46 575.58 287.00 567.00
C 275.24 555.31 287.19 540.69 300.69 537.69 C 314.20 534.70 323.22 523.88 336.70 519.70 C 350.17 515.51 355.47 501.85 360.00 489.00
C 327.29 477.71 360.48 439.68 381.00 435.00
C 373.01 426.09 358.49 426.33 351.25 415.75 C 344.00 405.17 365.08 395.75 373.00 393.00
C 374.18 380.82 387.32 375.46 384.00 363.00 C 380.68 350.54 394.32 341.81 403.00 338.00
C 398.84 327.94 408.42 320.17 416.68 325.32 C 424.93 330.47 428.54 330.17 436.70 324.69 C 444.85 319.22 452.42 328.80 449.00 337.00
M 728.00 454.00 
C 716.33 457.14 706.11 458.99 693.78 461.78 C 681.45 464.57 689.47 481.35 692.78 491.22 C 696.08 501.10 699.90 511.98 703.98 522.02 C 708.05 532.07 712.27 542.63 714.33 553.67 C 716.39 564.71 716.93 580.53 713.02 591.02 C 709.11 601.52 705.93 609.89 697.00 617.00
C 714.74 640.29 669.56 658.23 663.00 632.00
C 669.88 643.49 694.35 631.89 685.74 622.26 C 677.13 612.62 660.02 623.09 655.23 609.77 C 650.44 596.45 646.49 589.77 639.70 579.30 C 632.90 568.84 618.19 565.04 607.00 567.00 C 595.81 568.96 584.96 577.05 584.07 590.07 C 583.19 603.10 575.00 607.80 564.25 615.25 C 553.50 622.70 572.99 638.49 582.00 637.00
C 573.69 645.63 555.50 641.55 555.00 628.00
C 539.91 639.77 544.63 672.99 564.00 675.00
C 562.46 683.66 569.98 706.21 582.01 704.99 C 594.04 703.78 603.81 693.67 615.23 689.23 C 626.65 684.79 643.50 687.21 654.23 679.23 C 664.95 671.25 670.99 658.44 667.00 645.00
C 675.15 646.95 681.75 657.44 676.00 665.00
C 683.33 669.12 689.80 673.06 696.25 678.75 C 702.69 684.44 706.91 690.61 710.92 698.08 C 714.93 705.54 715.72 718.11 715.01 726.01 C 714.30 733.90 709.73 746.20 707.08 752.08 C 704.42 757.95 694.03 770.68 690.25 764.75 C 686.47 758.82 701.14 752.34 700.99 743.99 C 700.85 735.64 697.18 728.02 686.98 726.02 C 676.77 724.03 670.21 729.20 667.00 739.00
C 660.38 735.08 653.85 733.02 646.78 730.22 C 639.71 727.43 627.19 722.42 631.00 736.00
C 642.71 739.53 655.72 744.03 665.75 751.25 C 675.78 758.48 672.10 743.34 681.00 745.00
C 675.67 757.37 675.33 759.42 683.77 771.23 C 692.21 783.04 667.80 780.00 667.22 789.22 C 666.64 798.44 659.77 810.67 658.00 820.00
C 667.74 819.69 673.00 828.80 682.22 825.22 C 691.44 821.65 699.47 835.59 692.25 842.25 C 685.03 848.90 675.95 849.51 666.00 849.00 C 656.05 848.49 645.32 846.30 635.00 847.00 C 624.68 847.70 613.92 844.39 617.78 832.78 C 621.64 821.17 617.91 812.31 618.00 801.00
C 611.78 801.43 603.90 800.70 597.00 801.00
C 597.28 814.49 595.89 821.95 597.98 835.02 C 600.06 848.10 582.55 846.37 572.78 846.78 C 563.01 847.19 548.04 848.32 538.00 849.00 C 527.96 849.68 516.99 845.73 513.68 836.32 C 510.37 826.91 521.74 814.00 530.23 822.77 C 538.72 831.54 546.06 817.12 557.00 820.00
C 556.25 809.50 550.46 803.73 550.22 792.78 C 549.98 781.82 540.66 781.64 531.92 777.08 C 523.18 772.51 534.15 760.80 536.00 755.00
C 528.19 749.89 525.13 744.72 520.23 736.77 C 515.33 728.82 515.38 718.13 515.98 708.98 C 516.57 699.82 523.62 692.41 526.75 684.75 C 529.89 677.10 542.13 674.06 541.21 666.77 C 540.29 659.48 532.81 646.57 536.99 637.99 C 541.17 629.42 542.83 623.41 549.75 616.75 C 556.68 610.09 561.33 607.29 569.23 602.23 C 577.12 597.17 573.17 583.00 577.77 575.77 C 582.37 568.54 584.86 561.77 593.25 557.25 C 601.64 552.72 610.73 549.74 621.00 550.00 C 631.27 550.26 641.90 551.89 652.07 549.07 C 662.25 546.26 663.04 537.90 665.78 528.78 C 668.51 519.65 671.95 511.96 674.78 502.78 C 677.60 493.60 679.79 485.74 681.98 475.98 C 684.16 466.21 682.57 452.46 683.00 442.00 C 683.43 431.54 694.86 442.97 702.68 444.32 C 710.50 445.68 720.08 451.92 728.00 454.00
M 604.00 582.00 
C 598.08 579.93 593.11 583.83 589.00 588.00
C 585.50 578.17 603.98 568.48 604.00 582.00
M 631.00 595.00 
C 629.65 588.59 623.38 580.30 616.00 584.00
C 619.40 566.55 643.50 587.00 631.00 595.00
M 598.00 594.00 
C 603.77 595.23 601.12 611.87 593.33 609.67 C 585.54 607.46 592.45 592.82 598.00 594.00
M 620.00 600.00 
C 625.66 602.99 620.42 620.21 613.33 616.67 C 606.24 613.13 613.18 596.40 620.00 600.00
M 647.00 606.00 
C 644.37 618.20 647.43 624.74 651.78 636.22 C 656.12 647.70 643.24 656.60 633.00 655.00 C 622.76 653.40 618.06 641.25 608.98 645.98 C 599.89 650.70 586.01 650.88 584.00 639.00
C 592.73 641.40 595.84 643.32 606.00 643.00 C 616.16 642.68 610.01 633.69 611.00 627.00
C 618.95 630.82 620.85 631.67 629.68 635.32 C 638.51 638.98 642.42 632.87 639.22 624.78 C 636.03 616.69 645.25 612.04 647.00 606.00
M 592.00 611.00 
C 599.05 612.46 612.55 625.91 604.25 632.25 C 595.95 638.58 584.21 640.13 576.75 630.25 C 569.30 620.36 578.93 608.29 592.00 611.00
M 740.00 642.00 
C 742.18 646.97 736.75 658.20 740.78 662.22 C 744.80 666.24 756.01 660.83 761.00 663.00
C 761.00 656.00 761.00 649.00 761.00 642.00
C 769.67 642.00 778.33 642.00 787.00 642.00
C 786.99 711.78 786.78 777.73 787.00 847.00
C 760.00 847.00 733.00 847.00 706.00 847.00
C 718.33 828.52 697.76 805.51 677.00 811.00
C 677.26 805.39 679.85 800.41 681.00 795.00
C 695.66 792.04 701.13 779.79 711.75 769.75 C 722.37 759.72 725.23 744.93 728.98 730.98 C 732.72 717.02 727.29 697.92 720.08 685.92 C 712.87 673.92 701.95 666.58 693.00 657.00
C 701.38 655.23 705.37 648.95 711.30 643.30 C 717.24 637.66 732.47 642.06 740.00 642.00
M 601.00 656.00 
C 592.83 664.68 579.99 660.06 580.00 648.00
C 585.98 651.97 593.63 657.39 601.00 656.00 Z"/>
</g>
<g fill="#000000" fill-opacity="1.00" stroke="None">
<path d="
M 570.00 168.00 
C 560.26 164.62 551.88 162.81 542.07 158.93 C 532.26 155.04 524.12 155.22 514.10 149.90 C 504.08 144.58 506.88 162.61 507.00 173.00 C 507.12 183.39 505.33 196.05 502.98 205.98 C 500.62 215.90 498.27 225.34 494.93 234.93 C 491.58 244.51 489.92 251.65 484.93 260.93 C 479.94 270.21 479.95 276.07 472.25 285.25 C 464.56 294.44 474.39 297.47 482.97 302.03 C 491.56 306.59 485.99 325.00 487.00 335.00 C 488.01 345.00 487.02 361.47 487.00 372.00 C 486.98 382.53 498.47 383.82 506.30 388.70 C 514.13 393.57 522.09 401.99 519.78 411.78 C 517.46 421.56 509.76 424.90 503.00 431.00
C 522.49 446.06 542.72 479.25 515.00 496.00
C 516.98 510.75 530.07 521.43 539.75 532.25 C 549.44 543.07 559.13 554.52 569.00 564.00
C 577.42 546.40 597.99 536.85 617.00 537.00
C 617.00 514.33 617.00 491.67 617.00 469.00
C 630.97 470.86 625.74 460.58 620.77 453.23 C 615.81 445.88 614.90 439.64 610.93 431.07 C 606.95 422.50 607.64 416.23 603.93 406.07 C 600.21 395.91 612.39 394.23 621.33 393.33 C 630.27 392.43 638.81 390.17 647.00 388.00
C 631.39 381.11 612.82 376.30 598.00 369.00
C 598.41 381.63 598.25 399.31 595.78 410.78 C 593.30 422.25 587.19 432.97 583.98 442.98 C 580.76 452.98 565.97 466.53 581.00 468.00
C 581.00 476.67 581.00 485.33 581.00 494.00
C 574.00 494.00 567.00 494.00 560.00 494.00
C 560.70 476.26 559.07 454.32 560.00 437.00 C 560.93 419.68 553.50 399.03 573.00 393.00
C 570.38 380.91 563.93 370.48 561.99 358.01 C 560.05 345.53 558.00 331.91 555.00 320.00
C 552.00 337.01 549.85 354.23 546.00 371.00
C 541.79 370.07 537.50 369.75 533.00 370.00
C 533.00 347.67 533.00 325.33 533.00 303.00
C 546.20 301.19 555.25 293.05 545.92 283.08 C 536.59 273.11 536.16 264.71 530.31 253.69 C 524.45 242.68 522.99 231.73 518.98 220.02 C 514.96 208.32 514.38 194.24 512.00 182.00
C 530.60 175.18 552.17 175.17 570.00 168.00 Z"/>
</g>
<g fill="#000000" fill-opacity="1.00" stroke="None">
<path d="
M 449.00 337.00 
C 452.42 328.80 444.85 319.22 436.70 324.69 C 428.54 330.17 424.93 330.47 416.68 325.32 C 408.42 320.17 398.84 327.94 403.00 338.00
C 394.32 341.81 380.68 350.54 384.00 363.00 C 387.32 375.46 374.18 380.82 373.00 393.00
C 365.08 395.75 344.00 405.17 351.25 415.75 C 358.49 426.33 373.01 426.09 381.00 435.00
C 360.48 439.68 327.29 477.71 360.00 489.00
C 355.47 501.85 350.17 515.51 336.70 519.70 C 323.22 523.88 314.20 534.70 300.69 537.69 C 287.19 540.69 275.24 555.31 287.00 567.00
C 284.46 575.58 283.28 584.93 281.78 593.78 C 280.28 602.63 277.60 610.13 276.00 619.00 C 274.40 627.87 272.59 635.93 270.98 644.98 C 269.36 654.02 266.84 662.24 265.78 671.78 C 264.72 681.32 260.60 686.78 260.33 697.33 C 260.05 707.87 251.11 710.40 240.00 708.00
C 240.00 701.67 240.00 695.33 240.00 689.00
C 228.10 688.46 212.12 685.74 214.00 700.00 C 215.88 714.26 213.15 723.81 214.00 737.00 C 214.85 750.19 213.60 761.31 214.00 774.00 C 214.40 786.69 213.79 798.57 214.00 811.00 C 214.21 823.43 213.84 834.68 214.00 847.00
C 295.67 847.00 377.33 847.00 459.00 847.00
C 459.00 809.00 459.00 771.00 459.00 733.00
C 473.67 733.00 488.33 733.00 503.00 733.00
C 498.96 718.19 500.71 700.28 508.23 687.23 C 515.75 674.18 527.13 667.09 522.00 652.00 C 516.87 636.91 528.59 622.54 536.00 612.00
C 531.12 603.17 525.60 594.23 520.25 585.75 C 514.90 577.27 507.95 571.40 501.25 563.75 C 494.55 556.10 485.94 550.57 478.23 544.77 C 470.52 538.97 454.87 537.45 459.02 527.02 C 463.18 516.60 465.49 507.18 470.00 497.00
C 483.04 502.95 479.92 523.51 490.08 532.92 C 500.24 542.32 509.00 550.18 521.92 557.08 C 534.85 563.97 538.47 577.78 543.00 592.00
C 545.68 592.52 546.34 588.52 549.00 589.00
C 548.76 591.92 549.86 594.48 551.00 597.00
C 563.20 590.49 560.04 575.29 552.25 566.75 C 544.47 558.20 537.82 550.02 530.75 541.25 C 523.68 532.47 513.37 526.90 507.98 517.02 C 502.59 507.15 495.73 491.28 507.92 485.92 C 520.11 480.55 515.05 461.22 506.75 454.25 C 498.45 447.28 491.50 434.00 479.00 435.00
C 483.37 423.36 499.83 423.63 505.07 412.07 C 510.31 400.51 487.45 392.42 479.00 392.00
C 478.66 383.87 473.79 375.99 466.00 373.00
C 470.45 358.54 464.50 341.14 449.00 337.00
M 464.00 445.00 
C 458.00 441.69 465.90 437.93 455.92 436.08 C 445.95 434.22 440.43 424.14 443.00 414.00
C 456.17 422.30 474.03 411.65 478.00 398.00
C 482.27 398.55 499.50 404.60 494.74 410.74 C 489.99 416.88 482.19 418.77 477.25 425.25 C 472.30 431.73 465.30 436.54 464.00 445.00
M 375.00 400.00 
C 382.44 413.65 401.06 427.28 416.00 417.00
C 420.52 428.26 411.61 436.86 401.00 438.00
C 400.10 440.90 403.92 442.06 403.00 445.00
C 392.95 432.18 378.64 422.11 364.31 415.70 C 349.97 409.28 372.41 402.21 375.00 400.00
M 397.00 496.00 
C 402.31 508.25 408.59 520.07 412.00 533.00
C 385.71 542.50 362.88 561.79 345.00 584.00
C 331.50 576.40 317.83 567.49 305.00 559.00
C 315.07 542.69 334.34 541.48 352.02 537.02 C 369.71 532.56 377.46 515.97 384.00 500.00
C 389.14 501.13 393.00 498.40 397.00 496.00 Z"/>
</g>
<g fill="#FFFFFF" fill-opacity="1.00" stroke="None">
<path d="
M 464.00 445.00 
C 465.30 436.54 472.30 431.73 477.25 425.25 C 482.19 418.77 489.99 416.88 494.74 410.74 C 499.50 404.60 482.27 398.55 478.00 398.00
C 474.03 411.65 456.17 422.30 443.00 414.00
C 440.43 424.14 445.95 434.22 455.92 436.08 C 465.90 437.93 458.00 441.69 464.00 445.00 Z"/>
</g>
<g fill="#FFFFFF" fill-opacity="1.00" stroke="None">
<path d="
M 375.00 400.00 
C 372.41 402.21 349.97 409.28 364.31 415.70 C 378.64 422.11 392.95 432.18 403.00 445.00
C 403.92 442.06 400.10 440.90 401.00 438.00
C 411.61 436.86 420.52 428.26 416.00 417.00
C 401.06 427.28 382.44 413.65 375.00 400.00 Z"/>
</g>
<g fill="#000000" fill-opacity="1.00" stroke="None">
<path d="
M 728.00 454.00 
C 720.08 451.92 710.50 445.68 702.68 444.32 C 694.86 442.97 683.43 431.54 683.00 442.00 C 682.57 452.46 684.16 466.21 681.98 475.98 C 679.79 485.74 677.60 493.60 674.78 502.78 C 671.95 511.96 668.51 519.65 665.78 528.78 C 663.04 537.90 662.25 546.26 652.07 549.07 C 641.90 551.89 631.27 550.26 621.00 550.00 C 610.73 549.74 601.64 552.72 593.25 557.25 C 584.86 561.77 582.37 568.54 577.77 575.77 C 573.17 583.00 577.12 597.17 569.23 602.23 C 561.33 607.29 556.68 610.09 549.75 616.75 C 542.83 623.41 541.17 629.42 536.99 637.99 C 532.81 646.57 540.29 659.48 541.21 666.77 C 542.13 674.06 529.89 677.10 526.75 684.75 C 523.62 692.41 516.57 699.82 515.98 708.98 C 515.38 718.13 515.33 728.82 520.23 736.77 C 525.13 744.72 528.19 749.89 536.00 755.00
C 534.15 760.80 523.18 772.51 531.92 777.08 C 540.66 781.64 549.98 781.82 550.22 792.78 C 550.46 803.73 556.25 809.50 557.00 820.00
C 546.06 817.12 538.72 831.54 530.23 822.77 C 521.74 814.00 510.37 826.91 513.68 836.32 C 516.99 845.73 527.96 849.68 538.00 849.00 C 548.04 848.32 563.01 847.19 572.78 846.78 C 582.55 846.37 600.06 848.10 597.98 835.02 C 595.89 821.95 597.28 814.49 597.00 801.00
C 603.90 800.70 611.78 801.43 618.00 801.00
C 617.91 812.31 621.64 821.17 617.78 832.78 C 613.92 844.39 624.68 847.70 635.00 847.00 C 645.32 846.30 656.05 848.49 666.00 849.00 C 675.95 849.51 685.03 848.90 692.25 842.25 C 699.47 835.59 691.44 821.65 682.22 825.22 C 673.00 828.80 667.74 819.69 658.00 820.00
C 659.77 810.67 666.64 798.44 667.22 789.22 C 667.80 780.00 692.21 783.04 683.77 771.23 C 675.33 759.42 675.67 757.37 681.00 745.00
C 672.10 743.34 675.78 758.48 665.75 751.25 C 655.72 744.03 642.71 739.53 631.00 736.00
C 627.19 722.42 639.71 727.43 646.78 730.22 C 653.85 733.02 660.38 735.08 667.00 739.00
C 670.21 729.20 676.77 724.03 686.98 726.02 C 697.18 728.02 700.85 735.64 700.99 743.99 C 701.14 752.34 686.47 758.82 690.25 764.75 C 694.03 770.68 704.42 757.95 707.08 752.08 C 709.73 746.20 714.30 733.90 715.01 726.01 C 715.72 718.11 714.93 705.54 710.92 698.08 C 706.91 690.61 702.69 684.44 696.25 678.75 C 689.80 673.06 683.33 669.12 676.00 665.00
C 681.75 657.44 675.15 646.95 667.00 645.00
C 670.99 658.44 664.95 671.25 654.23 679.23 C 643.50 687.21 626.65 684.79 615.23 689.23 C 603.81 693.67 594.04 703.78 582.01 704.99 C 569.98 706.21 562.46 683.66 564.00 675.00
C 544.63 672.99 539.91 639.77 555.00 628.00
C 555.50 641.55 573.69 645.63 582.00 637.00
C 572.99 638.49 553.50 622.70 564.25 615.25 C 575.00 607.80 583.19 603.10 584.07 590.07 C 584.96 577.05 595.81 568.96 607.00 567.00 C 618.19 565.04 632.90 568.84 639.70 579.30 C 646.49 589.77 650.44 596.45 655.23 609.77 C 660.02 623.09 677.13 612.62 685.74 622.26 C 694.35 631.89 669.88 643.49 663.00 632.00
C 669.56 658.23 714.74 640.29 697.00 617.00
C 705.93 609.89 709.11 601.52 713.02 591.02 C 716.93 580.53 716.39 564.71 714.33 553.67 C 712.27 542.63 708.05 532.07 703.98 522.02 C 699.90 511.98 696.08 501.10 692.78 491.22 C 689.47 481.35 681.45 464.57 693.78 461.78 C 706.11 458.99 716.33 457.14 728.00 454.00
M 674.00 710.00 
C 672.77 714.86 666.84 718.29 667.00 711.00
C 669.61 711.67 671.45 709.66 674.00 710.00
M 618.00 718.00 
C 630.74 719.82 622.35 731.74 625.00 743.00 C 627.65 754.26 611.73 753.32 603.00 753.00 C 594.27 752.68 577.71 755.23 579.00 744.00 C 580.29 732.77 574.88 720.83 586.01 719.01 C 597.14 717.18 606.96 716.42 618.00 718.00
M 574.00 725.00 
C 574.00 728.67 574.00 732.33 574.00 736.00
C 562.13 738.46 550.86 743.75 541.00 751.00
C 538.23 731.92 560.65 729.37 574.00 725.00 Z"/>
</g>
<g fill="#FFFFFF" fill-opacity="1.00" stroke="None">
<path d="
M 397.00 496.00 
C 393.00 498.40 389.14 501.13 384.00 500.00
C 377.46 515.97 369.71 532.56 352.02 537.02 C 334.34 541.48 315.07 542.69 305.00 559.00
C 317.83 567.49 331.50 576.40 345.00 584.00
C 362.88 561.79 385.71 542.50 412.00 533.00
C 408.59 520.07 402.31 508.25 397.00 496.00 Z"/>
</g>
<g fill="#000000" fill-opacity="1.00" stroke="None">
<path d="
M 604.00 582.00 
C 603.98 568.48 585.50 578.17 589.00 588.00
C 593.11 583.83 598.08 579.93 604.00 582.00 Z"/>
</g>
<g fill="#000000" fill-opacity="1.00" stroke="None">
<path d="
M 631.00 595.00 
C 643.50 587.00 619.40 566.55 616.00 584.00
C 623.38 580.30 629.65 588.59 631.00 595.00 Z"/>
</g>
<g fill="#000000" fill-opacity="1.00" stroke="None">
<path d="
M 598.00 594.00 
C 592.45 592.82 585.54 607.46 593.33 609.67 C 601.12 611.87 603.77 595.23 598.00 594.00 Z"/>
</g>
<g fill="#000000" fill-opacity="1.00" stroke="None">
<path d="
M 620.00 600.00 
C 613.18 596.40 606.24 613.13 613.33 616.67 C 620.42 620.21 625.66 602.99 620.00 600.00 Z"/>
</g>
<g fill="#000000" fill-opacity="1.00" stroke="None">
<path d="
M 647.00 606.00 
C 645.25 612.04 636.03 616.69 639.22 624.78 C 642.42 632.87 638.51 638.98 629.68 635.32 C 620.85 631.67 618.95 630.82 611.00 627.00
C 610.01 633.69 616.16 642.68 606.00 643.00 C 595.84 643.32 592.73 641.40 584.00 639.00
C 586.01 650.88 599.89 650.70 608.98 645.98 C 618.06 641.25 622.76 653.40 633.00 655.00 C 643.24 656.60 656.12 647.70 651.78 636.22 C 647.43 624.74 644.37 618.20 647.00 606.00 Z"/>
</g>
<g fill="#000000" fill-opacity="1.00" stroke="None">
<path d="
M 592.00 611.00 
C 578.93 608.29 569.30 620.36 576.75 630.25 C 584.21 640.13 595.95 638.58 604.25 632.25 C 612.55 625.91 599.05 612.46 592.00 611.00 Z"/>
</g>
<g fill="#000000" fill-opacity="1.00" stroke="None">
<path d="
M 740.00 642.00 
C 732.47 642.06 717.24 637.66 711.30 643.30 C 705.37 648.95 701.38 655.23 693.00 657.00
C 701.95 666.58 712.87 673.92 720.08 685.92 C 727.29 697.92 732.72 717.02 728.98 730.98 C 725.23 744.93 722.37 759.72 711.75 769.75 C 701.13 779.79 695.66 792.04 681.00 795.00
C 679.85 800.41 677.26 805.39 677.00 811.00
C 697.76 805.51 718.33 828.52 706.00 847.00
C 733.00 847.00 760.00 847.00 787.00 847.00
C 786.78 777.73 786.99 711.78 787.00 642.00
C 778.33 642.00 769.67 642.00 761.00 642.00
C 761.00 649.00 761.00 656.00 761.00 663.00
C 756.01 660.83 744.80 666.24 740.78 662.22 C 736.75 658.20 742.18 646.97 740.00 642.00 Z"/>
</g>
<g fill="#000000" fill-opacity="1.00" stroke="None">
<path d="
M 601.00 656.00 
C 593.63 657.39 585.98 651.97 580.00 648.00
C 579.99 660.06 592.83 664.68 601.00 656.00 Z"/>
</g>
<g fill="#FFFFFF" fill-opacity="1.00" stroke="None">
<path d="
M 674.00 710.00 
C 671.45 709.66 669.61 711.67 667.00 711.00
C 666.84 718.29 672.77 714.86 674.00 710.00 Z"/>
</g>
<g fill="#FFFFFF" fill-opacity="1.00" stroke="None">
<path d="
M 618.00 718.00 
C 606.96 716.42 597.14 717.18 586.01 719.01 C 574.88 720.83 580.29 732.77 579.00 744.00 C 577.71 755.23 594.27 752.68 603.00 753.00 C 611.73 753.32 627.65 754.26 625.00 743.00 C 622.35 731.74 630.74 719.82 618.00 718.00
M 615.00 745.00 
C 607.58 744.57 599.33 745.58 592.00 745.00 C 584.67 744.42 588.61 731.76 589.00 727.00
C 596.94 725.87 602.99 725.86 611.07 726.93 C 619.15 728.00 615.49 738.61 615.00 745.00 Z"/>
</g>
<g fill="#FFFFFF" fill-opacity="1.00" stroke="None">
<path d="
M 574.00 725.00 
C 560.65 729.37 538.23 731.92 541.00 751.00
C 550.86 743.75 562.13 738.46 574.00 736.00
C 574.00 732.33 574.00 728.67 574.00 725.00 Z"/>
</g>
<g fill="#000000" fill-opacity="1.00" stroke="None">
<path d="
M 615.00 745.00 
C 615.49 738.61 619.15 728.00 611.07 726.93 C 602.99 725.86 596.94 725.87 589.00 727.00
C 588.61 731.76 584.67 744.42 592.00 745.00 C 599.33 745.58 607.58 744.57 615.00 745.00 Z"/>
</g>
</svg>