<svg version="1.1" id="Layer_1" xmlns="http://www.w3.org/2000/svg" xmlns:xlink="http://www.w3.org/1999/xlink" x="0px" y="0px"
	 width="100%" viewBox="0 0 1024 896" enable-background="new 0 0 1024 896" xml:space="preserve">
<path fill="#000000" opacity="1.000000" stroke="none" 
	d="
M96.254257,763.178955 
	C92.638458,761.984314 93.723686,759.249878 93.690948,757.122559 
	C93.514183,745.637695 93.566437,745.641479 104.817459,745.641052 
	C155.316391,745.639160 205.815338,745.643982 256.314270,745.623657 
	C267.953094,745.618958 268.085327,745.572510 267.658783,734.238831 
	C267.005371,716.874329 268.469025,699.925110 276.787933,684.236511 
	C278.486908,681.032471 280.582062,678.038330 282.587738,674.796936 
	C279.649902,673.385559 277.956970,674.570007 276.655579,677.148071 
	C273.088074,684.215393 268.266479,690.541931 262.591980,695.845947 
	C256.028839,701.980652 253.537445,708.779846 254.258652,717.597412 
	C254.930801,725.815063 254.312836,725.920288 246.125153,727.348633 
	C227.656448,730.570374 209.261765,728.497253 190.860764,726.711731 
	C187.382706,726.374329 183.918060,725.886475 180.454529,725.414368 
	C176.690887,724.901367 173.419525,724.946838 172.828247,729.953369 
	C172.552826,732.285400 170.657227,732.618225 168.629074,732.283875 
	C157.955231,730.524170 147.276215,728.795410 136.609360,726.994385 
	C133.204102,726.419434 131.703430,724.471863 131.445129,720.818237 
	C130.635284,709.362488 131.039413,697.831604 129.344803,686.435120 
	C128.889526,683.373291 130.650131,682.096863 133.110016,682.921692 
	C143.221252,686.312073 149.025497,680.885132 154.969971,673.772583 
	C163.407166,663.677551 172.352936,654.007874 180.092255,643.334839 
	C181.245132,641.744995 182.673828,640.283936 183.082260,637.352539 
	C173.137680,635.062744 175.205093,626.419861 174.140381,619.292236 
	C173.381210,614.209839 174.570084,612.588623 179.839600,612.121094 
	C186.803574,611.503235 193.797623,611.141602 200.786652,610.923523 
	C204.346954,610.812378 206.282639,609.554626 206.888779,605.851379 
	C207.639282,601.266235 208.602905,596.689331 210.693665,592.447754 
	C212.658417,588.461975 215.510040,586.402588 220.231323,586.794678 
	C224.700821,587.165833 229.224243,586.840332 233.721024,586.945740 
	C236.898041,587.020142 238.578629,585.900940 238.970062,582.463928 
	C239.609909,576.845947 240.469742,571.197449 242.767792,565.969421 
	C244.742004,561.478149 244.257965,557.592651 241.864853,553.251343 
	C236.452148,543.432556 236.676910,543.326965 226.058533,546.576233 
	C216.454544,549.515015 206.780884,551.585205 196.580505,550.441589 
	C191.846191,549.910828 188.439896,547.944702 185.906219,544.060852 
	C182.081528,538.197998 180.204468,531.635742 179.384995,524.817017 
	C177.561478,509.644073 177.688324,494.575378 182.816605,479.906799 
	C183.985504,476.563324 185.566513,473.455688 187.942841,470.826111 
	C190.838196,467.622253 193.941772,466.723907 198.597260,467.797638 
	C207.547485,469.861877 216.773453,470.289520 226.481155,468.331635 
	C224.900986,465.425079 222.892822,466.162781 221.293777,466.171173 
	C216.519669,466.196228 213.362427,463.919891 211.651581,459.619812 
	C206.499634,446.670685 206.565842,433.621613 211.250000,420.578949 
	C212.770157,416.346161 215.817719,414.251526 220.507172,414.582977 
	C223.992569,414.829346 227.503494,414.716248 231.003098,414.759735 
	C238.534348,414.853394 240.718399,413.076233 242.869354,405.035034 
	C241.543915,403.446411 239.708740,403.597992 237.895248,403.696808 
	C232.410767,403.995575 226.916794,404.186005 221.446671,404.654114 
	C218.769226,404.883209 217.339035,403.436523 216.312454,401.480469 
	C214.852585,398.698853 212.617218,398.097656 209.699844,398.123077 
	C190.203934,398.293060 170.706833,398.433411 151.210541,398.391479 
	C145.226456,398.378632 141.346786,394.155548 137.432938,390.325134 
	C136.664948,389.573486 136.984375,388.467865 137.316177,387.482727 
	C144.608597,365.832397 164.039307,348.317993 189.742554,349.921143 
	C194.044235,350.189453 198.302277,350.979584 202.663345,350.919861 
	C206.584488,350.866211 207.849442,349.672302 207.157990,345.491455 
	C203.357452,322.511383 201.871964,299.503906 207.662628,276.571503 
	C210.159683,266.682556 213.259048,257.036652 218.859619,248.386108 
	C222.172577,243.268982 226.207962,238.861969 231.810104,236.227356 
	C234.100372,235.150269 234.842728,233.606476 234.969604,231.157974 
	C235.201660,226.680344 235.242798,222.061981 236.418472,217.792801 
	C238.520279,210.160614 242.105270,203.133682 251.143616,202.066010 
	C262.157532,200.764954 272.628052,201.737396 279.424774,212.346329 
	C280.407196,213.879776 281.200897,215.534119 282.399261,217.708191 
	C283.572968,214.801651 283.589447,212.273361 283.590363,209.737793 
	C283.596436,193.238190 283.419678,176.735077 283.726837,160.241013 
	C283.823853,155.032715 282.197357,152.454819 277.289246,150.196762 
	C253.605728,139.300766 232.199493,125.108871 215.226624,104.914391 
	C210.796051,99.642876 210.636581,98.903893 215.045105,93.447945 
	C228.414993,76.901451 246.276230,67.271538 266.041748,60.692879 
	C269.975250,59.383675 274.063232,58.427330 278.151917,57.730045 
	C281.552002,57.150185 283.224579,55.680141 282.914978,52.123127 
	C282.771271,50.471790 282.971344,48.792946 282.963867,47.126804 
	C282.950806,44.221405 284.429474,42.888500 287.273468,42.834465 
	C300.777008,42.577888 314.241089,42.537231 327.558014,45.512966 
	C331.940887,46.492344 333.946869,48.470768 333.364929,52.990452 
	C332.733032,57.898232 335.217163,59.742466 339.882141,61.063007 
	C364.253235,67.961861 387.697601,76.789612 406.272766,95.148987 
	C409.538879,98.377159 409.953674,100.094185 406.440582,103.764175 
	C392.784302,118.030182 378.476837,131.388123 361.262390,141.341934 
	C354.603790,145.192093 347.746002,148.658920 340.448212,151.006836 
	C336.151428,152.389252 334.975098,154.752457 334.994995,159.032623 
	C335.111420,184.031158 335.279297,209.035934 334.860809,234.029083 
	C334.076782,280.855377 334.254120,327.681580 334.313232,374.508636 
	C334.319733,379.663696 334.858673,384.817841 335.143158,389.972839 
	C335.250031,391.908844 335.535980,393.851318 338.014923,393.863251 
	C349.970459,393.920837 361.926392,393.889191 373.614471,393.889191 
	C375.033203,390.684784 373.780914,388.512848 373.137115,386.383759 
	C366.474670,364.350098 361.752167,341.890106 357.879425,319.218140 
	C356.806793,312.938721 358.620514,307.629272 361.984344,302.770477 
	C373.635742,285.940765 388.966888,273.931488 408.726227,267.909698 
	C411.304199,267.124084 414.694794,267.291870 414.599030,263.157562 
	C414.509216,259.282379 414.738922,255.301270 409.470154,254.381943 
	C406.301819,253.829102 405.086639,251.374374 405.015411,248.531433 
	C404.610779,232.376526 404.317413,216.218765 404.025177,200.061264 
	C403.998260,198.573578 404.313263,197.103287 405.127686,195.992661 
	C407.942322,194.806229 410.410492,197.937256 413.317993,195.929932 
	C412.811371,192.341736 412.321777,188.608002 411.748108,184.887222 
	C411.195038,181.300308 412.690033,179.537491 416.299469,179.423660 
	C417.960785,179.371292 419.619324,179.030548 421.275543,179.055527 
	C426.178864,179.129471 427.461609,180.659409 426.911865,185.563995 
	C426.707947,187.382965 426.539703,189.208267 426.259705,191.015900 
	C425.598846,195.282272 426.208557,198.349823 431.702881,197.764847 
	C433.781708,197.543488 435.132477,198.802643 435.374878,201.007919 
	C435.611176,203.158005 436.033600,205.301834 436.086914,207.455505 
	C436.408417,220.446350 436.754059,233.438370 436.857178,246.431870 
	C436.894409,251.126785 437.639038,256.402832 430.716919,257.699158 
	C428.465637,258.120758 429.307770,260.746979 429.265900,262.490570 
	C429.237213,263.684296 429.484375,264.909698 430.797516,265.363556 
	C432.540497,265.965942 433.694702,264.842255 434.612152,263.645020 
	C452.025024,240.921890 476.193054,237.663162 502.076019,241.160904 
	C531.510681,245.138565 561.036682,247.163239 590.687500,248.009201 
	C617.998413,248.788391 645.303711,249.654648 672.631653,249.792587 
	C681.258179,249.836121 687.979980,254.935547 694.038940,260.559448 
	C703.594971,269.429230 711.645996,279.658325 719.804504,289.779755 
	C725.043518,296.279266 729.852966,303.058899 733.861267,310.401611 
	C736.899841,315.967743 734.666321,321.495209 733.718994,326.953369 
	C733.296265,329.389099 730.603516,329.044312 728.637634,328.992096 
	C720.977966,328.788666 713.304443,328.731018 705.667786,328.179657 
	C701.087585,327.848999 697.840515,329.697754 694.464783,332.438843 
	C668.964966,353.145142 654.061768,380.703094 643.376587,411.001251 
	C641.719421,415.700256 640.581482,420.579895 639.066528,425.332367 
	C637.720032,429.556183 641.243042,429.536987 643.475952,430.355072 
	C645.781860,431.199921 648.327026,432.045319 649.605835,428.511536 
	C651.192322,424.127838 653.215820,419.897461 654.701050,415.483246 
	C656.340881,410.609802 659.293701,408.541779 664.584290,408.222534 
	C674.631287,407.616302 674.579956,407.280792 674.629272,397.078522 
	C674.694702,383.536591 673.532776,386.448547 685.246887,381.437805 
	C689.556519,379.594330 694.151062,378.708435 698.635864,377.441986 
	C702.072815,376.471436 704.282898,377.425079 706.279602,380.289520 
	C709.329346,384.664642 712.551575,385.105072 717.200439,382.476929 
	C722.511658,379.474274 724.634338,374.474579 725.535400,368.925018 
	C726.140930,365.195404 728.010620,362.920532 731.285095,361.423431 
	C737.797546,358.446045 744.208801,355.236084 750.793030,352.430023 
	C759.943237,348.530365 770.783569,351.547882 776.204712,359.802734 
	C778.344055,363.060425 780.309326,363.584045 783.469666,361.926941 
	C784.641541,361.312500 786.001953,361.060913 787.183411,360.460907 
	C793.598816,357.202728 799.813782,357.247498 806.232727,360.755615 
	C809.709717,362.655853 813.566101,363.986481 817.388855,365.103363 
	C824.960205,367.315552 831.473816,371.074341 836.518127,377.174561 
	C839.119568,380.320618 841.575562,380.033875 844.633789,377.688690 
	C853.529907,370.866669 853.879456,370.924011 863.474121,376.906647 
	C865.735901,378.316986 867.992920,379.741180 870.185181,381.255859 
	C878.665161,387.114929 880.794922,391.684814 878.108459,401.690094 
	C876.678528,407.015717 878.459045,408.655945 883.129517,410.095093 
	C896.497498,414.214172 909.719482,418.805176 923.024597,423.131500 
	C925.657410,423.987579 927.188049,425.385681 927.682861,428.273041 
	C928.912964,435.450684 928.683533,441.485687 922.203918,446.966431 
	C910.754639,456.650574 901.287781,468.396179 891.205627,479.501831 
	C881.439819,490.259064 876.054443,502.307098 874.142334,516.757507 
	C871.001770,540.492554 866.232788,564.003601 863.888611,587.870056 
	C862.163086,605.438538 860.831177,623.031677 860.063538,640.666260 
	C859.585083,651.657837 859.530334,651.641968 848.481934,650.685730 
	C843.011230,650.212280 837.495667,650.272949 832.003357,650.026672 
	C828.846741,649.885071 827.449341,651.409302 827.273499,654.458984 
	C827.158936,656.447266 826.833496,658.425537 826.558044,660.402100 
	C825.333557,669.189758 825.326050,669.192627 833.386902,672.846252 
	C835.552795,673.828003 837.767700,675.041077 838.793335,677.122620 
	C840.959045,681.517944 844.767395,683.354980 848.925964,685.320251 
	C866.547729,693.647827 876.593140,719.448547 869.886353,738.488708 
	C869.231689,740.347168 868.501587,742.179016 867.840454,743.933167 
	C869.958862,746.231506 872.432434,745.585938 874.651367,745.570923 
	C894.145569,745.439392 913.639099,745.205750 933.133057,745.035583 
	C939.901184,744.976501 940.242798,745.277405 940.184570,752.004028 
	C940.074097,764.772095 941.951721,763.296509 929.199707,763.297363 
	C654.038696,763.316345 378.877686,763.308350 103.716682,763.302734 
	C101.387138,763.302673 99.057602,763.263550 96.254257,763.178955 
M570.711182,619.611389 
	C580.295532,622.546082 588.572998,627.651611 595.694824,634.669495 
	C618.629883,657.269714 624.109497,697.007935 608.550781,727.444641 
	C605.459717,733.491394 601.664856,739.051514 597.325134,744.810425 
	C630.637573,745.447205 663.748840,746.379272 697.008911,744.617004 
	C696.617310,742.450745 695.764526,742.185608 694.999329,741.927063 
	C670.510925,733.655273 661.177612,697.214355 683.484741,676.186523 
	C685.563843,674.226624 686.208679,672.178589 685.819519,669.530457 
	C684.513367,660.643372 683.186646,651.769165 680.794250,643.079590 
	C679.866272,639.708862 678.031311,637.599426 674.707031,636.508728 
	C664.590759,633.189514 654.578796,629.533081 644.384277,626.482300 
	C640.447205,625.304077 639.038757,623.146545 638.842590,619.420227 
	C638.659119,615.935059 638.200317,612.465332 637.954285,608.982300 
	C637.745911,606.032227 636.317078,604.427856 633.316711,604.152405 
	C618.453369,602.787842 604.721191,598.135132 592.242371,589.894287 
	C590.453125,588.712708 588.630127,588.320496 586.599243,589.263672 
	C575.730774,594.311523 567.623474,601.999817 563.309021,613.387695 
	C562.221313,616.258850 563.253845,617.833435 566.054810,618.529785 
	C567.345947,618.850830 568.649536,619.121216 570.711182,619.611389 
M594.465210,420.883057 
	C596.628601,420.907196 598.814819,420.741119 600.950500,420.996735 
	C604.872131,421.466064 606.516113,419.561340 607.606445,416.011871 
	C615.957397,388.825989 625.341675,361.983643 634.768372,335.156830 
	C636.492188,330.251068 635.865112,329.183228 630.551575,329.281921 
	C624.570740,329.392975 618.601868,330.076416 612.620239,330.248627 
	C607.873535,330.385315 603.953491,331.949188 600.595154,335.350525 
	C594.385803,341.639374 588.568970,348.249939 583.413208,355.427612 
	C570.782410,373.011780 560.485352,391.688995 556.540283,413.305908 
	C555.464417,419.201172 556.488953,420.521332 562.522705,420.613800 
	C572.839722,420.771973 583.158813,420.794128 594.465210,420.883057 
M311.074585,593.612976 
	C312.764191,589.543579 316.150879,588.326294 320.202484,587.811462 
	C325.167938,587.180542 327.373627,583.439880 329.654541,579.385498 
	C327.232971,577.832458 325.202362,578.207458 323.266541,578.262329 
	C310.974091,578.611084 298.682220,578.984863 286.391754,579.396790 
	C282.240906,579.535889 278.095490,579.829773 273.945862,580.014160 
	C271.686310,580.114563 270.062531,580.827759 270.020599,583.458191 
	C269.979645,586.026733 271.026428,587.611511 273.736053,587.745361 
	C275.894073,587.851929 278.054291,587.928528 280.214478,587.974976 
	C289.358276,588.171326 297.611237,589.724609 300.169128,600.484741 
	C300.675507,602.614868 302.146973,602.745972 304.054016,601.966614 
	C307.624115,600.507690 309.212250,597.442261 311.074585,593.612976 
M359.838043,676.392090 
	C352.991486,676.392090 346.144928,676.392090 338.207336,676.392090 
	C359.214661,696.302612 360.797943,719.476013 352.854736,744.654480 
	C358.127838,745.122559 362.519775,745.557617 366.767090,744.367065 
	C366.952576,743.760681 367.156250,743.436401 367.122894,743.138550 
	C367.031219,742.319031 366.940033,741.476379 366.673950,740.702881 
	C360.058533,721.473877 358.345734,701.843079 361.692627,681.766357 
	C361.981110,680.035706 362.422119,678.081360 359.838043,676.392090 
M623.652710,563.096375 
	C625.893433,564.155212 628.316772,565.955750 630.651428,564.313843 
	C633.084534,562.602661 631.850708,559.630737 631.484741,557.306580 
	C630.397034,550.399536 628.997070,543.541138 627.681213,536.671021 
	C627.448181,535.454285 627.569763,533.957397 625.432434,533.387878 
	C625.097839,540.096924 624.760803,546.662781 624.448914,553.229736 
	C624.360779,555.085693 624.280945,556.825073 622.384521,557.983459 
	C619.198853,559.929382 621.045593,561.383728 623.652710,563.096375 
M303.935730,662.230652 
	C303.501984,660.464233 303.129303,658.679626 302.612793,656.937744 
	C302.274292,655.796204 301.658722,654.704407 300.214630,654.862000 
	C298.842773,655.011658 297.798798,655.577148 297.294159,657.112976 
	C295.312836,663.142883 297.664825,666.506531 304.170746,666.714600 
	C305.111115,665.461365 304.463806,664.206421 303.935730,662.230652 
z"/>
</svg>