<svg xmlns="http://www.w3.org/2000/svg" xmlns:v="https://svgstorm.com"
viewBox = "0 0 1000 1000"
width="1000"
height="1000">
<g fill="None" fill-opacity="0.0" stroke="#FFFFFF" stroke-opacity="1.00" stroke-width="0.3"><path d="
M 0.00 1000.00 
L 1000.00 1000.00
L 1000.00 0.00
L 0.00 0.00
L 0.00 1000.00
M 511.00 190.00 
C 503.72 197.51 510.82 210.96 512.33 221.67 C 513.84 232.39 517.55 244.66 519.33 255.67 C 521.11 266.68 524.61 278.06 527.00 289.00
C 530.88 288.58 534.36 289.40 538.00 290.00
C 543.83 305.89 525.61 305.24 526.00 318.00 C 526.39 330.76 525.82 345.84 526.00 359.00 C 526.18 372.16 525.91 385.65 526.00 399.00 C 526.09 412.35 525.93 426.57 526.00 440.00
C 531.67 440.00 537.33 440.00 543.00 440.00
C 542.40 433.27 543.80 424.53 543.00 418.00 C 542.20 411.47 546.50 400.52 538.00 400.00
C 541.46 386.59 548.31 374.12 553.00 361.00
C 557.95 364.78 559.15 372.74 561.92 379.08 C 564.70 385.41 568.01 393.04 569.00 400.00
C 561.10 401.72 564.49 410.19 564.00 417.00 C 563.51 423.81 564.37 432.97 564.00 440.00
C 571.33 440.00 578.67 440.00 586.00 440.00
C 586.00 418.33 586.00 396.67 586.00 375.00
C 576.76 371.50 572.33 362.27 571.00 353.00 C 569.67 343.73 572.10 333.74 579.75 326.75 C 587.40 319.76 593.19 318.72 602.23 312.23 C 611.27 305.74 594.73 294.41 604.25 287.25 C 613.77 280.09 624.32 298.82 612.00 302.00
C 610.41 310.29 618.64 315.06 624.75 318.25 C 630.85 321.45 637.37 324.71 641.25 330.75 C 645.14 336.79 649.36 345.10 647.22 352.22 C 645.08 359.35 645.16 367.05 637.75 371.75 C 630.34 376.45 631.69 385.56 632.00 395.00 C 632.31 404.44 631.77 415.42 632.00 425.00
C 638.19 426.41 643.45 431.70 649.23 429.23 C 655.01 426.76 660.90 432.84 666.23 427.23 C 671.56 421.62 678.05 423.01 681.00 416.00
C 673.89 414.96 669.01 408.33 671.00 401.00
C 660.08 394.49 673.35 387.06 682.08 385.08 C 690.80 383.09 704.83 391.72 701.00 403.00
C 707.21 401.99 712.25 408.60 708.74 413.74 C 705.24 418.89 694.90 418.60 696.00 411.00
C 692.77 411.57 690.48 414.85 687.00 415.00
C 687.60 419.21 693.94 422.02 697.25 424.75 C 700.55 427.49 706.04 430.75 709.70 432.31 C 713.35 433.86 724.10 435.52 718.89 440.89 C 713.68 446.26 710.67 436.44 705.93 436.07 C 701.19 435.71 696.88 429.28 692.00 429.00
C 695.37 436.56 694.62 441.73 699.92 449.08 C 705.23 456.42 702.08 461.62 692.00 462.00
C 694.13 471.15 710.71 475.57 701.00 485.00
C 713.57 487.75 706.84 506.68 708.00 518.00 C 709.16 529.32 704.30 544.55 708.00 556.00
C 716.73 551.85 719.87 561.82 726.08 565.92 C 732.29 570.01 740.71 567.01 747.23 562.23 C 753.75 557.45 732.36 554.17 738.00 546.00
C 724.23 545.05 740.02 534.90 737.00 529.00
C 742.89 527.51 747.11 521.18 753.00 527.00
C 762.87 518.30 773.43 536.09 771.00 545.00
C 766.34 544.58 768.75 551.17 765.70 553.70 C 762.65 556.22 757.09 556.11 758.00 561.00
C 765.87 563.11 771.12 555.31 777.70 553.70 C 784.28 552.09 784.63 538.15 793.01 541.01 C 801.39 543.87 793.10 552.57 787.25 555.25 C 781.40 557.93 780.09 564.89 772.30 567.30 C 764.52 569.72 766.58 579.08 768.93 586.07 C 771.28 593.06 772.14 601.75 774.00 609.00
C 764.83 612.74 774.50 626.08 773.00 634.00
C 780.35 631.33 788.92 640.66 779.00 642.00 C 769.07 643.33 764.44 641.42 764.67 632.33 C 764.90 623.24 759.97 620.85 761.00 612.00
C 758.63 611.38 757.40 609.57 756.00 608.00
C 751.55 614.76 751.11 618.68 750.01 628.01 C 748.91 637.34 749.98 642.51 738.00 642.00 C 726.02 641.49 730.66 632.52 740.00 635.00
C 740.33 627.46 747.56 613.81 739.00 610.00
C 741.28 598.17 743.00 586.18 744.00 574.00
C 737.55 575.90 728.93 579.27 723.92 573.08 C 718.90 566.89 715.17 562.87 707.00 563.00
C 705.59 575.16 708.88 589.01 707.00 601.00 C 705.12 612.99 710.34 626.67 707.67 637.67 C 704.99 648.67 684.88 641.02 675.00 643.00 C 665.12 644.98 648.75 641.49 638.00 642.00 C 627.25 642.51 612.85 642.09 602.00 642.00 C 591.15 641.91 575.60 644.20 565.00 643.00 C 554.40 641.80 534.99 647.91 535.00 635.00 C 535.01 622.09 534.34 608.99 535.00 597.00 C 535.66 585.01 534.42 574.88 527.25 566.75 C 520.07 558.63 511.63 554.22 501.00 555.00 C 490.37 555.78 482.65 560.60 476.08 569.08 C 469.51 577.56 468.80 588.10 469.78 599.22 C 470.77 610.35 468.26 620.92 469.00 634.00 C 469.74 647.08 451.65 642.73 440.00 643.00 C 428.35 643.27 414.22 642.73 402.00 643.00 C 389.78 643.27 376.49 642.54 364.00 643.00 C 351.51 643.46 338.64 642.05 326.00 643.00 C 313.36 643.95 298.74 644.86 301.00 630.00 C 303.26 615.14 299.78 605.46 301.00 592.00 C 302.22 578.54 300.02 566.59 301.00 554.00 C 301.98 541.41 299.61 527.67 301.00 516.00 C 302.39 504.33 294.68 484.91 310.00 486.00
C 311.64 478.47 318.50 472.69 319.00 464.00
C 308.16 465.39 314.00 456.65 315.93 450.93 C 317.85 445.20 320.35 438.22 321.00 432.00
C 314.27 435.94 306.13 443.07 308.00 452.00
C 303.11 449.61 292.61 453.86 300.08 445.08 C 307.56 436.30 317.51 427.74 323.00 418.00
C 320.08 418.30 317.57 417.07 315.00 416.00
C 315.09 422.37 306.20 428.34 300.25 421.75 C 294.30 415.15 303.36 412.61 309.00 412.00
C 301.82 404.17 308.98 395.02 315.23 390.23 C 321.48 385.44 337.95 386.46 337.99 395.01 C 338.03 403.56 339.54 413.82 329.00 416.00
C 331.81 424.20 340.02 418.31 345.25 413.25 C 350.48 408.18 352.77 401.55 350.00 394.00
C 354.53 401.43 353.02 393.23 356.00 390.00
C 356.72 395.00 357.24 393.28 361.00 391.00
C 360.83 394.80 359.59 398.91 364.00 395.00
C 355.35 405.66 351.22 424.95 335.00 426.00
C 336.95 433.15 339.81 439.79 343.77 446.23 C 347.73 452.67 352.13 462.59 340.00 462.00
C 340.33 468.58 343.28 474.48 344.00 481.00
C 352.17 476.23 352.65 486.76 359.00 486.00
C 358.52 496.72 360.86 502.59 372.00 501.00 C 383.14 499.41 376.78 487.99 378.00 479.00 C 379.22 470.01 377.41 460.20 378.00 451.00 C 378.59 441.80 377.62 431.19 378.00 422.00 C 378.38 412.81 377.57 402.95 378.00 394.00 C 378.43 385.05 379.38 376.69 372.25 371.75 C 365.12 366.82 364.31 359.49 363.00 352.00 C 361.69 344.51 365.24 336.38 369.77 330.77 C 374.31 325.16 379.45 321.70 385.70 318.69 C 391.94 315.69 398.44 310.55 399.00 303.00
C 390.08 300.41 391.79 286.69 401.03 286.03 C 410.26 285.36 413.28 299.95 404.00 302.00
C 404.68 315.21 415.96 316.35 425.75 323.25 C 435.53 330.16 439.99 339.95 439.67 352.67 C 439.35 365.39 426.49 368.58 424.00 380.00 C 421.51 391.43 425.87 411.76 424.00 424.00
C 431.67 424.00 439.33 424.00 447.00 424.00
C 446.36 417.21 447.86 408.61 447.00 402.00 C 446.14 395.39 450.30 385.05 443.00 383.00
C 447.28 372.85 450.54 360.99 457.00 352.00
C 460.79 361.93 466.62 372.06 468.00 383.00
C 461.26 387.49 467.12 393.65 465.00 402.00 C 462.88 410.35 474.62 409.82 481.00 409.00
C 481.80 376.39 479.62 343.55 482.00 311.00
C 468.67 310.98 462.01 285.12 480.00 289.00
C 487.12 256.71 493.62 224.23 501.00 192.00
C 492.26 188.35 503.51 177.32 504.00 171.00
C 505.76 177.19 508.61 183.87 511.00 190.00
M 215.00 519.00 
C 216.45 521.45 215.92 524.43 217.00 527.00
C 219.59 525.36 216.34 520.57 219.00 519.00
C 221.32 521.88 220.06 526.39 222.00 529.00
C 223.87 527.93 223.57 524.62 226.00 524.00
C 226.05 530.38 221.01 538.58 225.93 545.07 C 230.84 551.57 233.52 556.60 243.22 556.78 C 252.92 556.95 238.52 548.79 238.08 542.92 C 237.63 537.06 235.77 526.77 244.25 523.25 C 252.72 519.72 258.70 521.06 267.08 524.92 C 275.46 528.78 272.95 536.01 271.93 543.08 C 270.91 550.14 262.07 555.14 255.00 556.00
C 256.71 564.28 273.14 564.99 271.00 575.00
C 275.38 583.60 286.51 578.47 291.25 585.75 C 295.98 593.03 280.37 593.19 275.25 586.75 C 270.14 580.30 258.53 578.60 261.93 589.07 C 265.33 599.55 263.45 604.48 268.00 614.00
C 258.68 617.54 266.19 628.18 267.00 635.00
C 270.54 632.94 281.39 636.43 276.74 640.74 C 272.09 645.06 264.48 640.12 259.00 642.00
C 258.92 634.03 254.88 627.06 255.00 619.00
C 246.92 621.14 249.10 610.76 246.00 607.00
C 242.75 611.54 239.91 619.48 233.00 616.00
C 230.12 623.25 226.41 623.34 222.75 630.75 C 219.08 638.15 216.61 636.08 209.77 631.23 C 202.93 626.38 207.15 617.67 214.00 625.00
C 220.74 624.39 222.12 615.47 227.00 612.00
C 218.03 606.50 230.90 598.09 231.78 590.78 C 232.65 583.46 241.14 570.08 232.92 566.08 C 224.71 562.07 219.40 555.59 218.22 546.78 C 217.05 537.96 209.11 531.20 210.00 523.00
C 214.30 531.04 210.58 520.91 215.00 519.00
M 839.00 808.00 
C 833.56 812.23 826.79 814.16 819.93 812.07 C 813.06 809.98 809.68 802.99 809.00 797.00 C 808.32 791.01 807.32 781.10 811.92 776.92 C 816.53 772.75 817.63 763.43 826.07 765.07 C 834.52 766.72 840.82 762.17 838.00 753.00 C 835.18 743.83 841.70 737.44 849.00 739.00 C 856.31 740.57 853.95 752.79 853.01 759.01 C 852.07 765.23 852.65 775.58 852.00 783.00 C 851.35 790.42 852.88 799.66 854.00 807.00 C 855.11 814.34 839.80 815.37 839.00 808.00
M 568.00 740.00 
C 574.80 742.86 569.98 755.72 570.00 762.00 C 570.02 768.29 569.29 780.81 569.00 788.00 C 568.71 795.19 572.95 803.73 569.23 810.23 C 565.51 816.73 554.36 813.82 554.03 805.98 C 553.69 798.13 554.57 787.91 554.00 780.00 C 553.43 772.09 555.22 761.27 555.00 754.00 C 554.78 746.73 558.99 736.21 568.00 740.00
M 590.00 740.00 
C 598.67 742.73 591.80 758.09 593.00 765.00 C 594.20 771.91 588.67 787.61 592.00 795.00 C 595.33 802.39 593.95 817.00 583.00 813.00 C 572.05 809.00 578.83 797.13 577.00 789.00 C 575.17 780.87 578.45 766.86 578.00 759.00 C 577.55 751.14 578.52 736.38 590.00 740.00
M 800.00 740.00 
C 808.77 742.82 801.98 759.22 803.00 766.00 C 804.02 772.78 799.14 788.42 802.33 795.67 C 805.52 802.92 804.12 817.24 793.33 813.67 C 782.54 810.10 788.68 797.18 787.00 789.00 C 785.32 780.82 789.22 766.83 788.00 759.00 C 786.78 751.17 789.48 736.62 800.00 740.00
M 231.00 742.00 
C 236.67 744.21 233.36 754.98 231.08 758.08 C 228.79 761.17 226.15 771.52 220.00 769.00 C 213.84 766.47 220.72 758.44 219.98 752.98 C 219.24 747.51 222.90 738.84 231.00 742.00
M 153.00 755.00 
C 137.16 747.41 162.68 737.88 170.74 744.26 C 178.80 750.63 168.52 751.63 169.03 758.03 C 169.53 764.42 167.22 772.93 168.00 779.00 C 168.78 785.07 165.89 795.94 168.00 801.00 C 170.11 806.06 174.15 811.32 166.92 812.92 C 159.70 814.53 153.99 816.28 147.92 812.08 C 141.86 807.87 152.39 802.89 151.00 797.00 C 149.61 791.11 151.58 781.98 151.78 775.78 C 151.98 769.58 152.71 761.34 153.00 755.00
M 411.00 743.00 
C 418.07 744.27 426.49 750.98 421.23 759.23 C 415.97 767.48 403.08 753.17 397.31 760.31 C 391.53 767.44 406.48 771.31 411.70 774.31 C 416.91 777.30 425.21 783.05 424.99 791.01 C 424.77 798.97 421.29 806.84 413.92 810.92 C 406.55 814.99 395.16 814.43 387.78 812.22 C 380.40 810.01 371.84 802.96 379.25 795.25 C 386.67 787.55 392.65 802.84 402.00 799.00 C 411.35 795.16 402.63 786.84 395.77 784.23 C 388.91 781.62 382.49 777.95 379.23 770.77 C 375.97 763.59 379.18 753.77 385.75 748.75 C 392.32 743.73 402.28 741.44 411.00 743.00
M 648.00 783.00 
C 656.57 777.42 649.72 755.03 662.08 753.08 C 674.44 751.12 671.88 776.99 677.00 783.00
C 682.45 771.53 683.65 765.63 686.00 752.00 C 688.34 738.37 706.70 744.02 702.02 756.02 C 697.35 768.02 698.29 777.00 693.07 787.07 C 687.86 797.15 690.38 808.42 679.30 813.30 C 668.23 818.19 663.58 797.40 663.00 790.00
C 654.76 793.99 659.05 814.22 646.97 813.98 C 634.90 813.73 635.34 799.42 631.07 789.93 C 626.81 780.43 628.47 768.06 624.00 757.00 C 619.53 745.93 637.31 737.15 640.93 750.07 C 644.54 762.99 642.64 771.56 648.00 783.00
M 199.00 765.00 
C 213.72 763.10 210.98 780.36 198.00 779.00
C 198.88 786.44 194.55 798.90 204.00 800.00 C 213.45 801.10 206.34 811.80 199.92 812.92 C 193.50 814.05 185.77 812.03 184.03 803.98 C 182.28 795.92 183.89 787.37 184.00 779.00
C 176.58 782.00 171.72 767.36 180.08 766.08 C 188.45 764.81 182.41 754.03 190.23 751.23 C 198.05 748.43 201.47 759.15 199.00 765.00
M 262.00 763.00 
C 268.40 764.32 271.51 772.16 267.75 775.75 C 263.98 779.33 250.55 772.35 252.94 779.08 C 255.32 785.81 263.94 783.06 267.75 788.25 C 271.57 793.44 275.63 799.42 271.22 805.22 C 266.82 811.02 262.47 813.14 255.98 813.98 C 249.48 814.81 242.67 813.78 237.75 809.25 C 232.84 804.71 240.24 794.18 247.07 799.93 C 253.90 805.67 260.80 798.82 253.30 795.70 C 245.81 792.57 243.86 790.88 239.70 785.30 C 235.54 779.72 238.05 771.79 242.75 767.75 C 247.45 763.72 255.61 761.68 262.00 763.00
M 332.00 807.00 
C 325.16 811.36 315.40 816.34 307.77 810.23 C 300.14 804.12 301.37 792.24 303.32 784.32 C 305.27 776.40 312.24 770.04 319.03 767.03 C 325.81 764.01 339.44 763.44 342.77 772.23 C 346.10 781.03 339.15 793.81 345.77 802.23 C 352.39 810.64 333.92 818.74 332.00 807.00
M 446.00 772.00 
C 451.24 763.40 466.98 762.20 469.00 774.00
C 473.31 770.34 479.79 762.48 487.00 765.00 C 494.21 767.52 497.92 774.13 497.93 782.07 C 497.93 790.02 499.75 800.09 498.07 808.07 C 496.40 816.05 481.85 813.99 483.00 805.00 C 484.15 796.00 484.07 787.30 480.00 780.00
C 474.10 784.80 469.45 793.19 471.00 802.00 C 472.55 810.81 459.78 817.94 456.23 807.77 C 452.68 797.60 460.85 788.36 455.00 779.00
C 449.27 783.12 442.08 791.11 445.00 801.00 C 447.92 810.89 432.35 818.84 430.03 806.98 C 427.70 795.11 432.09 787.19 431.00 776.00 C 429.91 764.80 442.04 761.92 446.00 772.00
M 533.00 807.00 
C 526.44 811.33 515.85 816.45 508.77 810.23 C 501.69 804.01 502.41 792.45 504.98 784.98 C 507.54 777.50 513.76 769.60 520.70 766.70 C 527.63 763.79 541.49 763.36 544.92 772.08 C 548.34 780.81 540.05 792.39 546.77 801.23 C 553.49 810.07 536.01 819.42 533.00 807.00
M 728.00 765.00 
C 753.90 770.36 743.05 819.81 715.99 813.01 C 688.94 806.21 699.73 759.15 728.00 765.00
M 762.00 772.00 
C 765.98 770.53 776.50 757.19 781.25 768.75 C 786.00 780.32 775.77 778.30 768.25 782.25 C 760.72 786.19 764.50 798.84 763.00 807.00 C 761.50 815.16 746.54 814.78 748.00 804.00 C 749.47 793.22 747.81 784.19 748.00 774.00 C 748.19 763.81 760.99 762.42 762.00 772.00 Z"/>
</g>
<g fill="None" fill-opacity="0.0" stroke="#000000" stroke-opacity="1.00" stroke-width="0.3"><path d="
M 511.00 190.00 
C 508.61 183.87 505.76 177.19 504.00 171.00
C 503.51 177.32 492.26 188.35 501.00 192.00
C 493.62 224.23 487.12 256.71 480.00 289.00
C 462.01 285.12 468.67 310.98 482.00 311.00
C 479.62 343.55 481.80 376.39 481.00 409.00
C 474.62 409.82 462.88 410.35 465.00 402.00 C 467.12 393.65 461.26 387.49 468.00 383.00
C 466.62 372.06 460.79 361.93 457.00 352.00
C 450.54 360.99 447.28 372.85 443.00 383.00
C 450.30 385.05 446.14 395.39 447.00 402.00 C 447.86 408.61 446.36 417.21 447.00 424.00
C 439.33 424.00 431.67 424.00 424.00 424.00
C 425.87 411.76 421.51 391.43 424.00 380.00 C 426.49 368.58 439.35 365.39 439.67 352.67 C 439.99 339.95 435.53 330.16 425.75 323.25 C 415.96 316.35 404.68 315.21 404.00 302.00
C 413.28 299.95 410.26 285.36 401.03 286.03 C 391.79 286.69 390.08 300.41 399.00 303.00
C 398.44 310.55 391.94 315.69 385.70 318.69 C 379.45 321.70 374.31 325.16 369.77 330.77 C 365.24 336.38 361.69 344.51 363.00 352.00 C 364.31 359.49 365.12 366.82 372.25 371.75 C 379.38 376.69 378.43 385.05 378.00 394.00 C 377.57 402.95 378.38 412.81 378.00 422.00 C 377.62 431.19 378.59 441.80 378.00 451.00 C 377.41 460.20 379.22 470.01 378.00 479.00 C 376.78 487.99 383.14 499.41 372.00 501.00 C 360.86 502.59 358.52 496.72 359.00 486.00
C 352.65 486.76 352.17 476.23 344.00 481.00
C 343.28 474.48 340.33 468.58 340.00 462.00
C 352.13 462.59 347.73 452.67 343.77 446.23 C 339.81 439.79 336.95 433.15 335.00 426.00
C 351.22 424.95 355.35 405.66 364.00 395.00
C 359.59 398.91 360.83 394.80 361.00 391.00
C 357.24 393.28 356.72 395.00 356.00 390.00
C 353.02 393.23 354.53 401.43 350.00 394.00
C 352.77 401.55 350.48 408.18 345.25 413.25 C 340.02 418.31 331.81 424.20 329.00 416.00
C 339.54 413.82 338.03 403.56 337.99 395.01 C 337.95 386.46 321.48 385.44 315.23 390.23 C 308.98 395.02 301.82 404.17 309.00 412.00
C 303.36 412.61 294.30 415.15 300.25 421.75 C 306.20 428.34 315.09 422.37 315.00 416.00
C 317.57 417.07 320.08 418.30 323.00 418.00
C 317.51 427.74 307.56 436.30 300.08 445.08 C 292.61 453.86 303.11 449.61 308.00 452.00
C 306.13 443.07 314.27 435.94 321.00 432.00
C 320.35 438.22 317.85 445.20 315.93 450.93 C 314.00 456.65 308.16 465.39 319.00 464.00
C 318.50 472.69 311.64 478.47 310.00 486.00
C 294.68 484.91 302.39 504.33 301.00 516.00 C 299.61 527.67 301.98 541.41 301.00 554.00 C 300.02 566.59 302.22 578.54 301.00 592.00 C 299.78 605.46 303.26 615.14 301.00 630.00 C 298.74 644.86 313.36 643.95 326.00 643.00 C 338.64 642.05 351.51 643.46 364.00 643.00 C 376.49 642.54 389.78 643.27 402.00 643.00 C 414.22 642.73 428.35 643.27 440.00 643.00 C 451.65 642.73 469.74 647.08 469.00 634.00 C 468.26 620.92 470.77 610.35 469.78 599.22 C 468.80 588.10 469.51 577.56 476.08 569.08 C 482.65 560.60 490.37 555.78 501.00 555.00 C 511.63 554.22 520.07 558.63 527.25 566.75 C 534.42 574.88 535.66 585.01 535.00 597.00 C 534.34 608.99 535.01 622.09 535.00 635.00 C 534.99 647.91 554.40 641.80 565.00 643.00 C 575.60 644.20 591.15 641.91 602.00 642.00 C 612.85 642.09 627.25 642.51 638.00 642.00 C 648.75 641.49 665.12 644.98 675.00 643.00 C 684.88 641.02 704.99 648.67 707.67 637.67 C 710.34 626.67 705.12 612.99 707.00 601.00 C 708.88 589.01 705.59 575.16 707.00 563.00
C 715.17 562.87 718.90 566.89 723.92 573.08 C 728.93 579.27 737.55 575.90 744.00 574.00
C 743.00 586.18 741.28 598.17 739.00 610.00
C 747.56 613.81 740.33 627.46 740.00 635.00
C 730.66 632.52 726.02 641.49 738.00 642.00 C 749.98 642.51 748.91 637.34 750.01 628.01 C 751.11 618.68 751.55 614.76 756.00 608.00
C 757.40 609.57 758.63 611.38 761.00 612.00
C 759.97 620.85 764.90 623.24 764.67 632.33 C 764.44 641.42 769.07 643.33 779.00 642.00 C 788.92 640.66 780.35 631.33 773.00 634.00
C 774.50 626.08 764.83 612.74 774.00 609.00
C 772.14 601.75 771.28 593.06 768.93 586.07 C 766.58 579.08 764.52 569.72 772.30 567.30 C 780.09 564.89 781.40 557.93 787.25 555.25 C 793.10 552.57 801.39 543.87 793.01 541.01 C 784.63 538.15 784.28 552.09 777.70 553.70 C 771.12 555.31 765.87 563.11 758.00 561.00
C 757.09 556.11 762.65 556.22 765.70 553.70 C 768.75 551.17 766.34 544.58 771.00 545.00
C 773.43 536.09 762.87 518.30 753.00 527.00
C 747.11 521.18 742.89 527.51 737.00 529.00
C 740.02 534.90 724.23 545.05 738.00 546.00
C 732.36 554.17 753.75 557.45 747.23 562.23 C 740.71 567.01 732.29 570.01 726.08 565.92 C 719.87 561.82 716.73 551.85 708.00 556.00
C 704.30 544.55 709.16 529.32 708.00 518.00 C 706.84 506.68 713.57 487.75 701.00 485.00
C 710.71 475.57 694.13 471.15 692.00 462.00
C 702.08 461.62 705.23 456.42 699.92 449.08 C 694.62 441.73 695.37 436.56 692.00 429.00
C 696.88 429.28 701.19 435.71 705.93 436.07 C 710.67 436.44 713.68 446.26 718.89 440.89 C 724.10 435.52 713.35 433.86 709.70 432.31 C 706.04 430.75 700.55 427.49 697.25 424.75 C 693.94 422.02 687.60 419.21 687.00 415.00
C 690.48 414.85 692.77 411.57 696.00 411.00
C 694.90 418.60 705.24 418.89 708.74 413.74 C 712.25 408.60 707.21 401.99 701.00 403.00
C 704.83 391.72 690.80 383.09 682.08 385.08 C 673.35 387.06 660.08 394.49 671.00 401.00
C 669.01 408.33 673.89 414.96 681.00 416.00
C 678.05 423.01 671.56 421.62 666.23 427.23 C 660.90 432.84 655.01 426.76 649.23 429.23 C 643.45 431.70 638.19 426.41 632.00 425.00
C 631.77 415.42 632.31 404.44 632.00 395.00 C 631.69 385.56 630.34 376.45 637.75 371.75 C 645.16 367.05 645.08 359.35 647.22 352.22 C 649.36 345.10 645.14 336.79 641.25 330.75 C 637.37 324.71 630.85 321.45 624.75 318.25 C 618.64 315.06 610.41 310.29 612.00 302.00
C 624.32 298.82 613.77 280.09 604.25 287.25 C 594.73 294.41 611.27 305.74 602.23 312.23 C 593.19 318.72 587.40 319.76 579.75 326.75 C 572.10 333.74 569.67 343.73 571.00 353.00 C 572.33 362.27 576.76 371.50 586.00 375.00
C 586.00 396.67 586.00 418.33 586.00 440.00
C 578.67 440.00 571.33 440.00 564.00 440.00
C 564.37 432.97 563.51 423.81 564.00 417.00 C 564.49 410.19 561.10 401.72 569.00 400.00
C 568.01 393.04 564.70 385.41 561.92 379.08 C 559.15 372.74 557.95 364.78 553.00 361.00
C 548.31 374.12 541.46 386.59 538.00 400.00
C 546.50 400.52 542.20 411.47 543.00 418.00 C 543.80 424.53 542.40 433.27 543.00 440.00
C 537.33 440.00 531.67 440.00 526.00 440.00
C 525.93 426.57 526.09 412.35 526.00 399.00 C 525.91 385.65 526.18 372.16 526.00 359.00 C 525.82 345.84 526.39 330.76 526.00 318.00 C 525.61 305.24 543.83 305.89 538.00 290.00
C 534.36 289.40 530.88 288.58 527.00 289.00
C 524.61 278.06 521.11 266.68 519.33 255.67 C 517.55 244.66 513.84 232.39 512.33 221.67 C 510.82 210.96 503.72 197.51 511.00 190.00
M 676.00 428.00 
C 675.27 434.18 673.24 441.09 670.68 446.68 C 668.12 452.26 662.28 460.30 673.00 460.00
C 670.84 466.85 670.51 474.23 668.00 481.00
C 664.31 480.53 658.22 480.73 659.00 486.00
C 648.00 482.56 649.72 493.83 650.00 501.00
C 639.96 502.48 630.40 502.02 632.00 491.00 C 633.60 479.98 631.17 472.37 632.00 462.00 C 632.83 451.63 631.38 443.20 632.00 433.00
C 641.21 431.57 647.76 439.99 654.75 436.75 C 661.73 433.50 669.66 434.54 676.00 428.00
M 670.00 487.00 
C 677.15 485.72 675.55 462.28 682.03 462.03 C 688.51 461.78 698.38 478.67 694.25 482.25 C 690.11 485.83 685.40 486.12 687.00 494.00 C 688.60 501.88 681.84 501.08 675.00 501.00 C 668.16 500.92 669.98 492.73 670.00 487.00
M 333.00 464.00 
C 333.83 472.70 339.26 476.04 339.78 485.22 C 340.30 494.41 339.88 502.69 328.00 501.00 C 316.12 499.31 327.24 487.96 318.00 483.00
C 319.97 476.85 324.11 471.48 325.00 465.00
C 327.74 465.03 330.08 463.37 333.00 464.00 Z"/>
</g>
<g fill="None" fill-opacity="0.0" stroke="#FFFFFF" stroke-opacity="1.00" stroke-width="0.3"><path d="
M 676.00 428.00 
C 669.66 434.54 661.73 433.50 654.75 436.75 C 647.76 439.99 641.21 431.57 632.00 433.00
C 631.38 443.20 632.83 451.63 632.00 462.00 C 631.17 472.37 633.60 479.98 632.00 491.00 C 630.40 502.02 639.96 502.48 650.00 501.00
C 649.72 493.83 648.00 482.56 659.00 486.00
C 658.22 480.73 664.31 480.53 668.00 481.00
C 670.51 474.23 670.84 466.85 673.00 460.00
C 662.28 460.30 668.12 452.26 670.68 446.68 C 673.24 441.09 675.27 434.18 676.00 428.00 Z"/>
</g>
<g fill="None" fill-opacity="0.0" stroke="#FFFFFF" stroke-opacity="1.00" stroke-width="0.3"><path d="
M 670.00 487.00 
C 669.98 492.73 668.16 500.92 675.00 501.00 C 681.84 501.08 688.60 501.88 687.00 494.00 C 685.40 486.12 690.11 485.83 694.25 482.25 C 698.38 478.67 688.51 461.78 682.03 462.03 C 675.55 462.28 677.15 485.72 670.00 487.00 Z"/>
</g>
<g fill="None" fill-opacity="0.0" stroke="#FFFFFF" stroke-opacity="1.00" stroke-width="0.3"><path d="
M 333.00 464.00 
C 330.08 463.37 327.74 465.03 325.00 465.00
C 324.11 471.48 319.97 476.85 318.00 483.00
C 327.24 487.96 316.12 499.31 328.00 501.00 C 339.88 502.69 340.30 494.41 339.78 485.22 C 339.26 476.04 333.83 472.70 333.00 464.00 Z"/>
</g>
<g fill="None" fill-opacity="0.0" stroke="#000000" stroke-opacity="1.00" stroke-width="0.3"><path d="
M 215.00 519.00 
C 210.58 520.91 214.30 531.04 210.00 523.00
C 209.11 531.20 217.05 537.96 218.22 546.78 C 219.40 555.59 224.71 562.07 232.92 566.08 C 241.14 570.08 232.65 583.46 231.78 590.78 C 230.90 598.09 218.03 606.50 227.00 612.00
C 222.12 615.47 220.74 624.39 214.00 625.00
C 207.15 617.67 202.93 626.38 209.77 631.23 C 216.61 636.08 219.08 638.15 222.75 630.75 C 226.41 623.34 230.12 623.25 233.00 616.00
C 239.91 619.48 242.75 611.54 246.00 607.00
C 249.10 610.76 246.92 621.14 255.00 619.00
C 254.88 627.06 258.92 634.03 259.00 642.00
C 264.48 640.12 272.09 645.06 276.74 640.74 C 281.39 636.43 270.54 632.94 267.00 635.00
C 266.19 628.18 258.68 617.54 268.00 614.00
C 263.45 604.48 265.33 599.55 261.93 589.07 C 258.53 578.60 270.14 580.30 275.25 586.75 C 280.37 593.19 295.98 593.03 291.25 585.75 C 286.51 578.47 275.38 583.60 271.00 575.00
C 273.14 564.99 256.71 564.28 255.00 556.00
C 262.07 555.14 270.91 550.14 271.93 543.08 C 272.95 536.01 275.46 528.78 267.08 524.92 C 258.70 521.06 252.72 519.72 244.25 523.25 C 235.77 526.77 237.63 537.06 238.08 542.92 C 238.52 548.79 252.92 556.95 243.22 556.78 C 233.52 556.60 230.84 551.57 225.93 545.07 C 221.01 538.58 226.05 530.38 226.00 524.00
C 223.57 524.62 223.87 527.93 222.00 529.00
C 220.06 526.39 221.32 521.88 219.00 519.00
C 216.34 520.57 219.59 525.36 217.00 527.00
C 215.92 524.43 216.45 521.45 215.00 519.00 Z"/>
</g>
<g fill="None" fill-opacity="0.0" stroke="#000000" stroke-opacity="1.00" stroke-width="0.3"><path d="
M 839.00 808.00 
C 839.80 815.37 855.11 814.34 854.00 807.00 C 852.88 799.66 851.35 790.42 852.00 783.00 C 852.65 775.58 852.07 765.23 853.01 759.01 C 853.95 752.79 856.31 740.57 849.00 739.00 C 841.70 737.44 835.18 743.83 838.00 753.00 C 840.82 762.17 834.52 766.72 826.07 765.07 C 817.63 763.43 816.53 772.75 811.92 776.92 C 807.32 781.10 808.32 791.01 809.00 797.00 C 809.68 802.99 813.06 809.98 819.93 812.07 C 826.79 814.16 833.56 812.23 839.00 808.00
M 833.00 778.00 
C 841.98 779.68 836.70 803.34 827.33 799.67 C 817.95 795.99 823.99 776.32 833.00 778.00
M 818.00 805.00 
C 814.17 802.04 817.45 796.96 813.00 793.00
C 817.55 794.86 820.40 800.51 818.00 805.00 Z"/>
</g>
<g fill="None" fill-opacity="0.0" stroke="#000000" stroke-opacity="1.00" stroke-width="0.3"><path d="
M 568.00 740.00 
C 558.99 736.21 554.78 746.73 555.00 754.00 C 555.22 761.27 553.43 772.09 554.00 780.00 C 554.57 787.91 553.69 798.13 554.03 805.98 C 554.36 813.82 565.51 816.73 569.23 810.23 C 572.95 803.73 568.71 795.19 569.00 788.00 C 569.29 780.81 570.02 768.29 570.00 762.00 C 569.98 755.72 574.80 742.86 568.00 740.00
M 567.00 799.00 
C 562.92 800.21 566.23 800.53 565.00 803.00
C 562.47 803.00 560.73 805.60 558.00 805.00
C 558.28 801.69 561.45 802.69 563.00 801.00
C 556.74 803.98 554.90 787.64 562.00 794.00
C 563.44 790.38 559.06 789.08 559.00 786.00
C 564.20 788.30 565.24 793.71 567.00 799.00 Z"/>
</g>
<g fill="None" fill-opacity="0.0" stroke="#000000" stroke-opacity="1.00" stroke-width="0.3"><path d="
M 590.00 740.00 
C 578.52 736.38 577.55 751.14 578.00 759.00 C 578.45 766.86 575.17 780.87 577.00 789.00 C 578.83 797.13 572.05 809.00 583.00 813.00 C 593.95 817.00 595.33 802.39 592.00 795.00 C 588.67 787.61 594.20 771.91 593.00 765.00 C 591.80 758.09 598.67 742.73 590.00 740.00
M 588.00 786.00 
C 587.77 793.00 580.25 787.18 588.00 786.00
M 590.00 799.00 
C 589.00 801.05 587.25 800.96 590.00 804.00
C 586.99 803.06 584.27 799.30 584.00 805.00
C 581.87 802.31 579.86 802.63 580.79 796.77 C 581.71 790.91 588.42 796.16 590.00 799.00 Z"/>
</g>
<g fill="None" fill-opacity="0.0" stroke="#000000" stroke-opacity="1.00" stroke-width="0.3"><path d="
M 800.00 740.00 
C 789.48 736.62 786.78 751.17 788.00 759.00 C 789.22 766.83 785.32 780.82 787.00 789.00 C 788.68 797.18 782.54 810.10 793.33 813.67 C 804.12 817.24 805.52 802.92 802.33 795.67 C 799.14 788.42 804.02 772.78 803.00 766.00 C 801.98 759.22 808.77 742.82 800.00 740.00
M 799.00 788.00 
C 796.74 786.30 795.80 785.27 793.00 785.00
C 796.03 781.25 799.12 784.79 799.00 788.00
M 795.00 788.00 
C 794.98 791.47 793.24 794.30 791.00 797.00
C 788.86 793.32 789.69 787.56 795.00 788.00
M 795.00 806.00 
C 794.65 802.16 794.90 800.26 791.00 804.00
C 788.72 800.79 790.32 798.38 794.00 800.00
C 794.69 797.61 797.64 795.39 796.00 793.00
C 800.44 794.44 802.31 805.43 795.00 806.00 Z"/>
</g>
<g fill="None" fill-opacity="0.0" stroke="#000000" stroke-opacity="1.00" stroke-width="0.3"><path d="
M 231.00 742.00 
C 222.90 738.84 219.24 747.51 219.98 752.98 C 220.72 758.44 213.84 766.47 220.00 769.00 C 226.15 771.52 228.79 761.17 231.08 758.08 C 233.36 754.98 236.67 744.21 231.00 742.00 Z"/>
</g>
<g fill="None" fill-opacity="0.0" stroke="#000000" stroke-opacity="1.00" stroke-width="0.3"><path d="
M 153.00 755.00 
C 152.71 761.34 151.98 769.58 151.78 775.78 C 151.58 781.98 149.61 791.11 151.00 797.00 C 152.39 802.89 141.86 807.87 147.92 812.08 C 153.99 816.28 159.70 814.53 166.92 812.92 C 174.15 811.32 170.11 806.06 168.00 801.00 C 165.89 795.94 168.78 785.07 168.00 779.00 C 167.22 772.93 169.53 764.42 169.03 758.03 C 168.52 751.63 178.80 750.63 170.74 744.26 C 162.68 737.88 137.16 747.41 153.00 755.00
M 164.00 794.00 
C 162.00 802.08 164.85 806.36 158.00 808.00
C 163.78 803.83 149.52 801.25 157.00 797.00
C 156.95 800.53 159.41 801.40 163.00 799.00
C 161.54 797.52 161.71 794.54 164.00 794.00 Z"/>
</g>
<g fill="None" fill-opacity="0.0" stroke="#000000" stroke-opacity="1.00" stroke-width="0.3"><path d="
M 411.00 743.00 
C 402.28 741.44 392.32 743.73 385.75 748.75 C 379.18 753.77 375.97 763.59 379.23 770.77 C 382.49 777.95 388.91 781.62 395.77 784.23 C 402.63 786.84 411.35 795.16 402.00 799.00 C 392.65 802.84 386.67 787.55 379.25 795.25 C 371.84 802.96 380.40 810.01 387.78 812.22 C 395.16 814.43 406.55 814.99 413.92 810.92 C 421.29 806.84 424.77 798.97 424.99 791.01 C 425.21 783.05 416.91 777.30 411.70 774.31 C 406.48 771.31 391.53 767.44 397.31 760.31 C 403.08 753.17 415.97 767.48 421.23 759.23 C 426.49 750.98 418.07 744.27 411.00 743.00
M 400.00 780.00 
C 393.93 783.78 396.16 775.25 400.00 780.00
M 416.00 787.00 
C 418.89 790.65 418.45 796.83 412.00 795.00
C 421.11 793.71 410.15 790.04 416.00 787.00 Z"/>
</g>
<g fill="None" fill-opacity="0.0" stroke="#000000" stroke-opacity="1.00" stroke-width="0.3"><path d="
M 648.00 783.00 
C 642.64 771.56 644.54 762.99 640.93 750.07 C 637.31 737.15 619.53 745.93 624.00 757.00 C 628.47 768.06 626.81 780.43 631.07 789.93 C 635.34 799.42 634.90 813.73 646.97 813.98 C 659.05 814.22 654.76 793.99 663.00 790.00
C 663.58 797.40 668.23 818.19 679.30 813.30 C 690.38 808.42 687.86 797.15 693.07 787.07 C 698.29 777.00 697.35 768.02 702.02 756.02 C 706.70 744.02 688.34 738.37 686.00 752.00 C 683.65 765.63 682.45 771.53 677.00 783.00
C 671.88 776.99 674.44 751.12 662.08 753.08 C 649.72 755.03 656.57 777.42 648.00 783.00
M 640.00 791.00 
C 637.33 792.57 634.97 791.32 635.00 788.00
C 636.39 789.69 638.83 789.48 640.00 791.00
M 656.00 789.00 
C 653.71 791.85 656.51 791.76 654.00 794.00
C 651.73 791.33 651.28 793.26 648.00 795.00
C 647.55 790.19 652.64 790.30 656.00 789.00
M 653.00 797.00 
C 651.43 804.99 643.85 794.92 639.00 799.00
C 637.20 796.52 635.82 792.73 640.00 792.00
C 643.13 792.73 647.52 800.27 653.00 797.00
M 677.00 797.00 
C 674.49 798.95 676.68 799.72 676.00 803.00
C 678.06 803.38 682.03 803.16 682.00 806.00
C 678.52 805.97 676.38 802.31 675.00 807.00
C 673.38 804.81 672.95 802.97 675.00 801.00
C 672.32 799.16 669.10 796.71 670.00 793.00
C 675.88 793.18 673.44 797.15 677.00 797.00
M 683.00 802.00 
C 682.04 799.60 680.61 798.61 678.00 800.00
C 678.06 795.07 686.96 797.78 683.00 802.00 Z"/>
</g>
<g fill="None" fill-opacity="0.0" stroke="#000000" stroke-opacity="1.00" stroke-width="0.3"><path d="
M 199.00 765.00 
C 201.47 759.15 198.05 748.43 190.23 751.23 C 182.41 754.03 188.45 764.81 180.08 766.08 C 171.72 767.36 176.58 782.00 184.00 779.00
C 183.89 787.37 182.28 795.92 184.03 803.98 C 185.77 812.03 193.50 814.05 199.92 812.92 C 206.34 811.80 213.45 801.10 204.00 800.00 C 194.55 798.90 198.88 786.44 198.00 779.00
C 210.98 780.36 213.72 763.10 199.00 765.00
M 191.00 799.00 
C 195.00 797.71 195.47 802.44 199.00 803.00
C 196.82 805.55 197.32 807.55 200.00 809.00
C 189.74 810.80 183.50 799.47 188.00 792.00
C 191.69 792.75 196.77 797.47 191.00 799.00 Z"/>
</g>
<g fill="None" fill-opacity="0.0" stroke="#000000" stroke-opacity="1.00" stroke-width="0.3"><path d="
M 262.00 763.00 
C 255.61 761.68 247.45 763.72 242.75 767.75 C 238.05 771.79 235.54 779.72 239.70 785.30 C 243.86 790.88 245.81 792.57 253.30 795.70 C 260.80 798.82 253.90 805.67 247.07 799.93 C 240.24 794.18 232.84 804.71 237.75 809.25 C 242.67 813.78 249.48 814.81 255.98 813.98 C 262.47 813.14 266.82 811.02 271.22 805.22 C 275.63 799.42 271.57 793.44 267.75 788.25 C 263.94 783.06 255.32 785.81 252.94 779.08 C 250.55 772.35 263.98 779.33 267.75 775.75 C 271.51 772.16 268.40 764.32 262.00 763.00
M 259.00 788.00 
C 256.07 795.01 251.57 787.46 259.00 788.00
M 264.00 790.00 
C 262.37 791.76 261.56 796.56 266.00 796.00
C 261.21 786.80 274.88 801.09 264.00 799.00
C 262.08 796.62 259.69 794.66 257.00 794.00
C 260.54 792.89 260.18 791.18 264.00 790.00
M 268.00 802.00 
C 264.89 804.31 261.50 805.90 259.00 802.00
C 263.03 802.81 264.80 798.65 268.00 802.00 Z"/>
</g>
<g fill="None" fill-opacity="0.0" stroke="#000000" stroke-opacity="1.00" stroke-width="0.3"><path d="
M 332.00 807.00 
C 333.92 818.74 352.39 810.64 345.77 802.23 C 339.15 793.81 346.10 781.03 342.77 772.23 C 339.44 763.44 325.81 764.01 319.03 767.03 C 312.24 770.04 305.27 776.40 303.32 784.32 C 301.37 792.24 300.14 804.12 307.77 810.23 C 315.40 816.34 325.16 811.36 332.00 807.00
M 328.00 778.00 
C 331.44 780.20 328.35 789.30 327.67 792.67 C 327.00 796.05 322.36 801.80 318.31 798.69 C 314.25 795.59 317.31 789.31 318.31 786.31 C 319.31 783.30 324.36 775.68 328.00 778.00
M 337.00 789.00 
C 336.28 792.04 333.34 795.74 331.00 791.00
C 332.77 789.55 335.22 790.43 337.00 789.00
M 310.00 799.00 
C 316.92 795.59 313.59 806.19 310.00 799.00
M 339.00 798.00 
C 340.35 800.43 338.52 802.50 336.00 803.00
C 337.50 800.77 335.32 798.62 339.00 798.00 Z"/>
</g>
<g fill="None" fill-opacity="0.0" stroke="#000000" stroke-opacity="1.00" stroke-width="0.3"><path d="
M 446.00 772.00 
C 442.04 761.92 429.91 764.80 431.00 776.00 C 432.09 787.19 427.70 795.11 430.03 806.98 C 432.35 818.84 447.92 810.89 445.00 801.00 C 442.08 791.11 449.27 783.12 455.00 779.00
C 460.85 788.36 452.68 797.60 456.23 807.77 C 459.78 817.94 472.55 810.81 471.00 802.00 C 469.45 793.19 474.10 784.80 480.00 780.00
C 484.07 787.30 484.15 796.00 483.00 805.00 C 481.85 813.99 496.40 816.05 498.07 808.07 C 499.75 800.09 497.93 790.02 497.93 782.07 C 497.92 774.13 494.21 767.52 487.00 765.00 C 479.79 762.48 473.31 770.34 469.00 774.00
C 466.98 762.20 451.24 763.40 446.00 772.00
M 464.00 789.00 
C 462.77 790.06 461.69 794.57 460.00 792.00
C 460.24 790.28 460.55 788.06 464.00 789.00
M 467.00 807.00 
C 463.18 808.72 461.76 806.61 459.00 805.00
C 460.16 801.21 460.20 801.91 459.00 798.00
C 461.83 797.75 463.30 801.00 466.00 801.00
C 464.86 797.23 464.01 796.83 463.00 792.00
C 469.53 795.58 467.01 800.51 467.00 807.00
M 493.00 800.00 
C 489.79 799.85 483.80 800.05 487.00 795.00
C 487.88 798.00 492.89 796.80 493.00 800.00 Z"/>
</g>
<g fill="None" fill-opacity="0.0" stroke="#000000" stroke-opacity="1.00" stroke-width="0.3"><path d="
M 533.00 807.00 
C 536.01 819.42 553.49 810.07 546.77 801.23 C 540.05 792.39 548.34 780.81 544.92 772.08 C 541.49 763.36 527.63 763.79 520.70 766.70 C 513.76 769.60 507.54 777.50 504.98 784.98 C 502.41 792.45 501.69 804.01 508.77 810.23 C 515.85 816.45 526.44 811.33 533.00 807.00
M 530.00 778.00 
C 532.93 779.86 529.17 788.85 529.07 792.07 C 528.97 795.29 523.56 801.58 519.78 799.22 C 515.99 796.86 518.42 788.73 519.78 785.78 C 521.13 782.83 526.21 775.59 530.00 778.00
M 538.00 793.00 
C 539.86 792.49 540.70 789.28 541.00 794.00
C 537.30 794.88 535.48 790.75 532.00 793.00
C 533.46 789.72 538.51 791.90 536.00 786.00
C 538.16 787.47 538.12 790.51 538.00 793.00
M 542.00 801.00 
C 540.24 803.85 538.05 799.13 537.00 801.00
C 538.07 803.05 539.47 804.67 536.00 806.00
C 537.23 800.44 533.41 799.01 533.00 794.00
C 534.79 797.20 538.56 798.71 542.00 801.00
M 543.00 802.00 
C 544.65 804.88 542.35 808.04 539.00 808.00
C 538.19 804.74 541.65 803.94 543.00 802.00 Z"/>
</g>
<g fill="None" fill-opacity="0.0" stroke="#000000" stroke-opacity="1.00" stroke-width="0.3"><path d="
M 728.00 765.00 
C 699.73 759.15 688.94 806.21 715.99 813.01 C 743.05 819.81 753.90 770.36 728.00 765.00
M 724.00 779.00 
C 731.68 781.38 728.80 802.60 719.77 800.21 C 710.74 797.82 715.02 776.22 724.00 779.00
M 713.00 802.00 
C 710.17 801.09 706.60 800.00 710.00 797.00
C 709.77 800.91 713.20 797.85 713.00 802.00 Z"/>
</g>
<g fill="None" fill-opacity="0.0" stroke="#000000" stroke-opacity="1.00" stroke-width="0.3"><path d="
M 762.00 772.00 
C 760.99 762.42 748.19 763.81 748.00 774.00 C 747.81 784.19 749.47 793.22 748.00 804.00 C 746.54 814.78 761.50 815.16 763.00 807.00 C 764.50 798.84 760.72 786.19 768.25 782.25 C 775.77 778.30 786.00 780.32 781.25 768.75 C 776.50 757.19 765.98 770.53 762.00 772.00
M 758.00 797.00 
C 756.50 798.82 750.75 798.82 752.00 795.00
C 755.08 793.81 755.55 796.83 758.00 797.00
M 759.00 804.00 
C 757.19 799.39 754.37 802.81 751.00 803.00
C 749.96 797.33 761.49 797.61 759.00 804.00 Z"/>
</g>
<g fill="None" fill-opacity="0.0" stroke="#FFFFFF" stroke-opacity="1.00" stroke-width="0.3"><path d="
M 328.00 778.00 
C 324.36 775.68 319.31 783.30 318.31 786.31 C 317.31 789.31 314.25 795.59 318.31 798.69 C 322.36 801.80 327.00 796.05 327.67 792.67 C 328.35 789.30 331.44 780.20 328.00 778.00 Z"/>
</g>
<g fill="None" fill-opacity="0.0" stroke="#FFFFFF" stroke-opacity="1.00" stroke-width="0.3"><path d="
M 400.00 780.00 
C 396.16 775.25 393.93 783.78 400.00 780.00 Z"/>
</g>
<g fill="None" fill-opacity="0.0" stroke="#FFFFFF" stroke-opacity="1.00" stroke-width="0.3"><path d="
M 530.00 778.00 
C 526.21 775.59 521.13 782.83 519.78 785.78 C 518.42 788.73 515.99 796.86 519.78 799.22 C 523.56 801.58 528.97 795.29 529.07 792.07 C 529.17 788.85 532.93 779.86 530.00 778.00 Z"/>
</g>
<g fill="None" fill-opacity="0.0" stroke="#FFFFFF" stroke-opacity="1.00" stroke-width="0.3"><path d="
M 833.00 778.00 
C 823.99 776.32 817.95 795.99 827.33 799.67 C 836.70 803.34 841.98 779.68 833.00 778.00 Z"/>
</g>
<g fill="None" fill-opacity="0.0" stroke="#FFFFFF" stroke-opacity="1.00" stroke-width="0.3"><path d="
M 724.00 779.00 
C 715.02 776.22 710.74 797.82 719.77 800.21 C 728.80 802.60 731.68 781.38 724.00 779.00 Z"/>
</g>
<g fill="None" fill-opacity="0.0" stroke="#E5E5E5" stroke-opacity="1.00" stroke-width="0.3"><path d="
M 799.00 788.00 
C 799.12 784.79 796.03 781.25 793.00 785.00
C 795.80 785.27 796.74 786.30 799.00 788.00 Z"/>
</g>
<g fill="None" fill-opacity="0.0" stroke="#E3E3E3" stroke-opacity="1.00" stroke-width="0.3"><path d="
M 538.00 793.00 
C 538.12 790.51 538.16 787.47 536.00 786.00
C 538.51 791.90 533.46 789.72 532.00 793.00
C 535.48 790.75 537.30 794.88 541.00 794.00
C 540.70 789.28 539.86 792.49 538.00 793.00 Z"/>
</g>
<g fill="None" fill-opacity="0.0" stroke="#FBFBFB" stroke-opacity="1.00" stroke-width="0.3"><path d="
M 567.00 799.00 
C 565.24 793.71 564.20 788.30 559.00 786.00
C 559.06 789.08 563.44 790.38 562.00 794.00
C 554.90 787.64 556.74 803.98 563.00 801.00
C 561.45 802.69 558.28 801.69 558.00 805.00
C 560.73 805.60 562.47 803.00 565.00 803.00
C 566.23 800.53 562.92 800.21 567.00 799.00
M 565.00 799.00 
C 558.43 796.66 564.79 792.52 565.00 799.00 Z"/>
</g>
<g fill="None" fill-opacity="0.0" stroke="#FFFFFF" stroke-opacity="1.00" stroke-width="0.3"><path d="
M 588.00 786.00 
C 580.25 787.18 587.77 793.00 588.00 786.00 Z"/>
</g>
<g fill="None" fill-opacity="0.0" stroke="#DDDDDD" stroke-opacity="1.00" stroke-width="0.3"><path d="
M 416.00 787.00 
C 410.15 790.04 421.11 793.71 412.00 795.00
C 418.45 796.83 418.89 790.65 416.00 787.00 Z"/>
</g>
<g fill="None" fill-opacity="0.0" stroke="#FFFFFF" stroke-opacity="1.00" stroke-width="0.3"><path d="
M 259.00 788.00 
C 251.57 787.46 256.07 795.01 259.00 788.00 Z"/>
</g>
<g fill="None" fill-opacity="0.0" stroke="#FFFFFF" stroke-opacity="1.00" stroke-width="0.3"><path d="
M 640.00 791.00 
C 638.83 789.48 636.39 789.69 635.00 788.00
C 634.97 791.32 637.33 792.57 640.00 791.00 Z"/>
</g>
<g fill="None" fill-opacity="0.0" stroke="#DCDCDC" stroke-opacity="1.00" stroke-width="0.3"><path d="
M 795.00 788.00 
C 789.69 787.56 788.86 793.32 791.00 797.00
C 793.24 794.30 794.98 791.47 795.00 788.00 Z"/>
</g>
<g fill="None" fill-opacity="0.0" stroke="#E7E7E7" stroke-opacity="1.00" stroke-width="0.3"><path d="
M 337.00 789.00 
C 335.22 790.43 332.77 789.55 331.00 791.00
C 333.34 795.74 336.28 792.04 337.00 789.00 Z"/>
</g>
<g fill="None" fill-opacity="0.0" stroke="#DDDDDD" stroke-opacity="1.00" stroke-width="0.3"><path d="
M 464.00 789.00 
C 460.55 788.06 460.24 790.28 460.00 792.00
C 461.69 794.57 462.77 790.06 464.00 789.00 Z"/>
</g>
<g fill="None" fill-opacity="0.0" stroke="#F0F0F0" stroke-opacity="1.00" stroke-width="0.3"><path d="
M 656.00 789.00 
C 652.64 790.30 647.55 790.19 648.00 795.00
C 651.28 793.26 651.73 791.33 654.00 794.00
C 656.51 791.76 653.71 791.85 656.00 789.00 Z"/>
</g>
<g fill="None" fill-opacity="0.0" stroke="#FFFFFF" stroke-opacity="1.00" stroke-width="0.3"><path d="
M 264.00 790.00 
C 260.18 791.18 260.54 792.89 257.00 794.00
C 259.69 794.66 262.08 796.62 264.00 799.00
C 274.88 801.09 261.21 786.80 266.00 796.00
C 261.56 796.56 262.37 791.76 264.00 790.00 Z"/>
</g>
<g fill="None" fill-opacity="0.0" stroke="#F6F6F6" stroke-opacity="1.00" stroke-width="0.3"><path d="
M 191.00 799.00 
C 196.77 797.47 191.69 792.75 188.00 792.00
C 183.50 799.47 189.74 810.80 200.00 809.00
C 197.32 807.55 196.82 805.55 199.00 803.00
C 195.47 802.44 195.00 797.71 191.00 799.00 Z"/>
</g>
<g fill="None" fill-opacity="0.0" stroke="#E4E4E4" stroke-opacity="1.00" stroke-width="0.3"><path d="
M 467.00 807.00 
C 467.01 800.51 469.53 795.58 463.00 792.00
C 464.01 796.83 464.86 797.23 466.00 801.00
C 463.30 801.00 461.83 797.75 459.00 798.00
C 460.20 801.91 460.16 801.21 459.00 805.00
C 461.76 806.61 463.18 808.72 467.00 807.00 Z"/>
</g>
<g fill="None" fill-opacity="0.0" stroke="#D6D6D6" stroke-opacity="1.00" stroke-width="0.3"><path d="
M 653.00 797.00 
C 647.52 800.27 643.13 792.73 640.00 792.00
C 635.82 792.73 637.20 796.52 639.00 799.00
C 643.85 794.92 651.43 804.99 653.00 797.00 Z"/>
</g>
<g fill="None" fill-opacity="0.0" stroke="#DFDFDF" stroke-opacity="1.00" stroke-width="0.3"><path d="
M 677.00 797.00 
C 673.44 797.15 675.88 793.18 670.00 793.00
C 669.10 796.71 672.32 799.16 675.00 801.00
C 672.95 802.97 673.38 804.81 675.00 807.00
C 676.38 802.31 678.52 805.97 682.00 806.00
C 682.03 803.16 678.06 803.38 676.00 803.00
C 676.68 799.72 674.49 798.95 677.00 797.00 Z"/>
</g>
<g fill="None" fill-opacity="0.0" stroke="#DFDFDF" stroke-opacity="1.00" stroke-width="0.3"><path d="
M 795.00 806.00 
C 802.31 805.43 800.44 794.44 796.00 793.00
C 797.64 795.39 794.69 797.61 794.00 800.00
C 790.32 798.38 788.72 800.79 791.00 804.00
C 794.90 800.26 794.65 802.16 795.00 806.00 Z"/>
</g>
<g fill="None" fill-opacity="0.0" stroke="#E6E6E6" stroke-opacity="1.00" stroke-width="0.3"><path d="
M 818.00 805.00 
C 820.40 800.51 817.55 794.86 813.00 793.00
C 817.45 796.96 814.17 802.04 818.00 805.00 Z"/>
</g>
<g fill="None" fill-opacity="0.0" stroke="#E0E0E0" stroke-opacity="1.00" stroke-width="0.3"><path d="
M 164.00 794.00 
C 161.71 794.54 161.54 797.52 163.00 799.00
C 159.41 801.40 156.95 800.53 157.00 797.00
C 149.52 801.25 163.78 803.83 158.00 808.00
C 164.85 806.36 162.00 802.08 164.00 794.00 Z"/>
</g>
<g fill="None" fill-opacity="0.0" stroke="#BFBFBF" stroke-opacity="1.00" stroke-width="0.3"><path d="
M 542.00 801.00 
C 538.56 798.71 534.79 797.20 533.00 794.00
C 533.41 799.01 537.23 800.44 536.00 806.00
C 539.47 804.67 538.07 803.05 537.00 801.00
C 538.05 799.13 540.24 803.85 542.00 801.00 Z"/>
</g>
<g fill="None" fill-opacity="0.0" stroke="#BBBBBB" stroke-opacity="1.00" stroke-width="0.3"><path d="
M 590.00 799.00 
C 588.42 796.16 581.71 790.91 580.79 796.77 C 579.86 802.63 581.87 802.31 584.00 805.00
C 584.27 799.30 586.99 803.06 590.00 804.00
C 587.25 800.96 589.00 801.05 590.00 799.00 Z"/>
</g>
<g fill="None" fill-opacity="0.0" stroke="#DCDCDC" stroke-opacity="1.00" stroke-width="0.3"><path d="
M 493.00 800.00 
C 492.89 796.80 487.88 798.00 487.00 795.00
C 483.80 800.05 489.79 799.85 493.00 800.00 Z"/>
</g>
<g fill="None" fill-opacity="0.0" stroke="#000000" stroke-opacity="1.00" stroke-width="0.3"><path d="
M 565.00 799.00 
C 564.79 792.52 558.43 796.66 565.00 799.00 Z"/>
</g>
<g fill="None" fill-opacity="0.0" stroke="#FFFFFF" stroke-opacity="1.00" stroke-width="0.3"><path d="
M 758.00 797.00 
C 755.55 796.83 755.08 793.81 752.00 795.00
C 750.75 798.82 756.50 798.82 758.00 797.00 Z"/>
</g>
<g fill="None" fill-opacity="0.0" stroke="#FFFFFF" stroke-opacity="1.00" stroke-width="0.3"><path d="
M 683.00 802.00 
C 686.96 797.78 678.06 795.07 678.00 800.00
C 680.61 798.61 682.04 799.60 683.00 802.00 Z"/>
</g>
<g fill="None" fill-opacity="0.0" stroke="#E0E0E0" stroke-opacity="1.00" stroke-width="0.3"><path d="
M 713.00 802.00 
C 713.20 797.85 709.77 800.91 710.00 797.00
C 706.60 800.00 710.17 801.09 713.00 802.00 Z"/>
</g>
<g fill="None" fill-opacity="0.0" stroke="#FFFFFF" stroke-opacity="1.00" stroke-width="0.3"><path d="
M 310.00 799.00 
C 313.59 806.19 316.92 795.59 310.00 799.00 Z"/>
</g>
<g fill="None" fill-opacity="0.0" stroke="#DDDDDD" stroke-opacity="1.00" stroke-width="0.3"><path d="
M 339.00 798.00 
C 335.32 798.62 337.50 800.77 336.00 803.00
C 338.52 802.50 340.35 800.43 339.00 798.00 Z"/>
</g>
<g fill="None" fill-opacity="0.0" stroke="#F1F1F1" stroke-opacity="1.00" stroke-width="0.3"><path d="
M 759.00 804.00 
C 761.49 797.61 749.96 797.33 751.00 803.00
C 754.37 802.81 757.19 799.39 759.00 804.00 Z"/>
</g>
<g fill="None" fill-opacity="0.0" stroke="#CFCFCF" stroke-opacity="1.00" stroke-width="0.3"><path d="
M 268.00 802.00 
C 264.80 798.65 263.03 802.81 259.00 802.00
C 261.50 805.90 264.89 804.31 268.00 802.00 Z"/>
</g>
<g fill="None" fill-opacity="0.0" stroke="#FFFFFF" stroke-opacity="1.00" stroke-width="0.3"><path d="
M 543.00 802.00 
C 541.65 803.94 538.19 804.74 539.00 808.00
C 542.35 808.04 544.65 804.88 543.00 802.00 Z"/>
</g>
<g fill="#FFFFFF" fill-opacity="1.00" stroke="None">
<path d="
M 0.00 1000.00 
L 1000.00 1000.00
L 1000.00 0.00
L 0.00 0.00
L 0.00 1000.00
M 511.00 190.00 
C 503.72 197.51 510.82 210.96 512.33 221.67 C 513.84 232.39 517.55 244.66 519.33 255.67 C 521.11 266.68 524.61 278.06 527.00 289.00
C 530.88 288.58 534.36 289.40 538.00 290.00
C 543.83 305.89 525.61 305.24 526.00 318.00 C 526.39 330.76 525.82 345.84 526.00 359.00 C 526.18 372.16 525.91 385.65 526.00 399.00 C 526.09 412.35 525.93 426.57 526.00 440.00
C 531.67 440.00 537.33 440.00 543.00 440.00
C 542.40 433.27 543.80 424.53 543.00 418.00 C 542.20 411.47 546.50 400.52 538.00 400.00
C 541.46 386.59 548.31 374.12 553.00 361.00
C 557.95 364.78 559.15 372.74 561.92 379.08 C 564.70 385.41 568.01 393.04 569.00 400.00
C 561.10 401.72 564.49 410.19 564.00 417.00 C 563.51 423.81 564.37 432.97 564.00 440.00
C 571.33 440.00 578.67 440.00 586.00 440.00
C 586.00 418.33 586.00 396.67 586.00 375.00
C 576.76 371.50 572.33 362.27 571.00 353.00 C 569.67 343.73 572.10 333.74 579.75 326.75 C 587.40 319.76 593.19 318.72 602.23 312.23 C 611.27 305.74 594.73 294.41 604.25 287.25 C 613.77 280.09 624.32 298.82 612.00 302.00
C 610.41 310.29 618.64 315.06 624.75 318.25 C 630.85 321.45 637.37 324.71 641.25 330.75 C 645.14 336.79 649.36 345.10 647.22 352.22 C 645.08 359.35 645.16 367.05 637.75 371.75 C 630.34 376.45 631.69 385.56 632.00 395.00 C 632.31 404.44 631.77 415.42 632.00 425.00
C 638.19 426.41 643.45 431.70 649.23 429.23 C 655.01 426.76 660.90 432.84 666.23 427.23 C 671.56 421.62 678.05 423.01 681.00 416.00
C 673.89 414.96 669.01 408.33 671.00 401.00
C 660.08 394.49 673.35 387.06 682.08 385.08 C 690.80 383.09 704.83 391.72 701.00 403.00
C 707.21 401.99 712.25 408.60 708.74 413.74 C 705.24 418.89 694.90 418.60 696.00 411.00
C 692.77 411.57 690.48 414.85 687.00 415.00
C 687.60 419.21 693.94 422.02 697.25 424.75 C 700.55 427.49 706.04 430.75 709.70 432.31 C 713.35 433.86 724.10 435.52 718.89 440.89 C 713.68 446.26 710.67 436.44 705.93 436.07 C 701.19 435.71 696.88 429.28 692.00 429.00
C 695.37 436.56 694.62 441.73 699.92 449.08 C 705.23 456.42 702.08 461.62 692.00 462.00
C 694.13 471.15 710.71 475.57 701.00 485.00
C 713.57 487.75 706.84 506.68 708.00 518.00 C 709.16 529.32 704.30 544.55 708.00 556.00
C 716.73 551.85 719.87 561.82 726.08 565.92 C 732.29 570.01 740.71 567.01 747.23 562.23 C 753.75 557.45 732.36 554.17 738.00 546.00
C 724.23 545.05 740.02 534.90 737.00 529.00
C 742.89 527.51 747.11 521.18 753.00 527.00
C 762.87 518.30 773.43 536.09 771.00 545.00
C 766.34 544.58 768.75 551.17 765.70 553.70 C 762.65 556.22 757.09 556.11 758.00 561.00
C 765.87 563.11 771.12 555.31 777.70 553.70 C 784.28 552.09 784.63 538.15 793.01 541.01 C 801.39 543.87 793.10 552.57 787.25 555.25 C 781.40 557.93 780.09 564.89 772.30 567.30 C 764.52 569.72 766.58 579.08 768.93 586.07 C 771.28 593.06 772.14 601.75 774.00 609.00
C 764.83 612.74 774.50 626.08 773.00 634.00
C 780.35 631.33 788.92 640.66 779.00 642.00 C 769.07 643.33 764.44 641.42 764.67 632.33 C 764.90 623.24 759.97 620.85 761.00 612.00
C 758.63 611.38 757.40 609.57 756.00 608.00
C 751.55 614.76 751.11 618.68 750.01 628.01 C 748.91 637.34 749.98 642.51 738.00 642.00 C 726.02 641.49 730.66 632.52 740.00 635.00
C 740.33 627.46 747.56 613.81 739.00 610.00
C 741.28 598.17 743.00 586.18 744.00 574.00
C 737.55 575.90 728.93 579.27 723.92 573.08 C 718.90 566.89 715.17 562.87 707.00 563.00
C 705.59 575.16 708.88 589.01 707.00 601.00 C 705.12 612.99 710.34 626.67 707.67 637.67 C 704.99 648.67 684.88 641.02 675.00 643.00 C 665.12 644.98 648.75 641.49 638.00 642.00 C 627.25 642.51 612.85 642.09 602.00 642.00 C 591.15 641.91 575.60 644.20 565.00 643.00 C 554.40 641.80 534.99 647.91 535.00 635.00 C 535.01 622.09 534.34 608.99 535.00 597.00 C 535.66 585.01 534.42 574.88 527.25 566.75 C 520.07 558.63 511.63 554.22 501.00 555.00 C 490.37 555.78 482.65 560.60 476.08 569.08 C 469.51 577.56 468.80 588.10 469.78 599.22 C 470.77 610.35 468.26 620.92 469.00 634.00 C 469.74 647.08 451.65 642.73 440.00 643.00 C 428.35 643.27 414.22 642.73 402.00 643.00 C 389.78 643.27 376.49 642.54 364.00 643.00 C 351.51 643.46 338.64 642.05 326.00 643.00 C 313.36 643.95 298.74 644.86 301.00 630.00 C 303.26 615.14 299.78 605.46 301.00 592.00 C 302.22 578.54 300.02 566.59 301.00 554.00 C 301.98 541.41 299.61 527.67 301.00 516.00 C 302.39 504.33 294.68 484.91 310.00 486.00
C 311.64 478.47 318.50 472.69 319.00 464.00
C 308.16 465.39 314.00 456.65 315.93 450.93 C 317.85 445.20 320.35 438.22 321.00 432.00
C 314.27 435.94 306.13 443.07 308.00 452.00
C 303.11 449.61 292.61 453.86 300.08 445.08 C 307.56 436.30 317.51 427.74 323.00 418.00
C 320.08 418.30 317.57 417.07 315.00 416.00
C 315.09 422.37 306.20 428.34 300.25 421.75 C 294.30 415.15 303.36 412.61 309.00 412.00
C 301.82 404.17 308.98 395.02 315.23 390.23 C 321.48 385.44 337.95 386.46 337.99 395.01 C 338.03 403.56 339.54 413.82 329.00 416.00
C 331.81 424.20 340.02 418.31 345.25 413.25 C 350.48 408.18 352.77 401.55 350.00 394.00
C 354.53 401.43 353.02 393.23 356.00 390.00
C 356.72 395.00 357.24 393.28 361.00 391.00
C 360.83 394.80 359.59 398.91 364.00 395.00
C 355.35 405.66 351.22 424.95 335.00 426.00
C 336.95 433.15 339.81 439.79 343.77 446.23 C 347.73 452.67 352.13 462.59 340.00 462.00
C 340.33 468.58 343.28 474.48 344.00 481.00
C 352.17 476.23 352.65 486.76 359.00 486.00
C 358.52 496.72 360.86 502.59 372.00 501.00 C 383.14 499.41 376.78 487.99 378.00 479.00 C 379.22 470.01 377.41 460.20 378.00 451.00 C 378.59 441.80 377.62 431.19 378.00 422.00 C 378.38 412.81 377.57 402.95 378.00 394.00 C 378.43 385.05 379.38 376.69 372.25 371.75 C 365.12 366.82 364.31 359.49 363.00 352.00 C 361.69 344.51 365.24 336.38 369.77 330.77 C 374.31 325.16 379.45 321.70 385.70 318.69 C 391.94 315.69 398.44 310.55 399.00 303.00
C 390.08 300.41 391.79 286.69 401.03 286.03 C 410.26 285.36 413.28 299.95 404.00 302.00
C 404.68 315.21 415.96 316.35 425.75 323.25 C 435.53 330.16 439.99 339.95 439.67 352.67 C 439.35 365.39 426.49 368.58 424.00 380.00 C 421.51 391.43 425.87 411.76 424.00 424.00
C 431.67 424.00 439.33 424.00 447.00 424.00
C 446.36 417.21 447.86 408.61 447.00 402.00 C 446.14 395.39 450.30 385.05 443.00 383.00
C 447.28 372.85 450.54 360.99 457.00 352.00
C 460.79 361.93 466.62 372.06 468.00 383.00
C 461.26 387.49 467.12 393.65 465.00 402.00 C 462.88 410.35 474.62 409.82 481.00 409.00
C 481.80 376.39 479.62 343.55 482.00 311.00
C 468.67 310.98 462.01 285.12 480.00 289.00
C 487.12 256.71 493.62 224.23 501.00 192.00
C 492.26 188.35 503.51 177.32 504.00 171.00
C 505.76 177.19 508.61 183.87 511.00 190.00
M 215.00 519.00 
C 216.45 521.45 215.92 524.43 217.00 527.00
C 219.59 525.36 216.34 520.57 219.00 519.00
C 221.32 521.88 220.06 526.39 222.00 529.00
C 223.87 527.93 223.57 524.62 226.00 524.00
C 226.05 530.38 221.01 538.58 225.93 545.07 C 230.84 551.57 233.52 556.60 243.22 556.78 C 252.92 556.95 238.52 548.79 238.08 542.92 C 237.63 537.06 235.77 526.77 244.25 523.25 C 252.72 519.72 258.70 521.06 267.08 524.92 C 275.46 528.78 272.95 536.01 271.93 543.08 C 270.91 550.14 262.07 555.14 255.00 556.00
C 256.71 564.28 273.14 564.99 271.00 575.00
C 275.38 583.60 286.51 578.47 291.25 585.75 C 295.98 593.03 280.37 593.19 275.25 586.75 C 270.14 580.30 258.53 578.60 261.93 589.07 C 265.33 599.55 263.45 604.48 268.00 614.00
C 258.68 617.54 266.19 628.18 267.00 635.00
C 270.54 632.94 281.39 636.43 276.74 640.74 C 272.09 645.06 264.48 640.12 259.00 642.00
C 258.92 634.03 254.88 627.06 255.00 619.00
C 246.92 621.14 249.10 610.76 246.00 607.00
C 242.75 611.54 239.91 619.48 233.00 616.00
C 230.12 623.25 226.41 623.34 222.75 630.75 C 219.08 638.15 216.61 636.08 209.77 631.23 C 202.93 626.38 207.15 617.67 214.00 625.00
C 220.74 624.39 222.12 615.47 227.00 612.00
C 218.03 606.50 230.90 598.09 231.78 590.78 C 232.65 583.46 241.14 570.08 232.92 566.08 C 224.71 562.07 219.40 555.59 218.22 546.78 C 217.05 537.96 209.11 531.20 210.00 523.00
C 214.30 531.04 210.58 520.91 215.00 519.00
M 839.00 808.00 
C 833.56 812.23 826.79 814.16 819.93 812.07 C 813.06 809.98 809.68 802.99 809.00 797.00 C 808.32 791.01 807.32 781.10 811.92 776.92 C 816.53 772.75 817.63 763.43 826.07 765.07 C 834.52 766.72 840.82 762.17 838.00 753.00 C 835.18 743.83 841.70 737.44 849.00 739.00 C 856.31 740.57 853.95 752.79 853.01 759.01 C 852.07 765.23 852.65 775.58 852.00 783.00 C 851.35 790.42 852.88 799.66 854.00 807.00 C 855.11 814.34 839.80 815.37 839.00 808.00
M 568.00 740.00 
C 574.80 742.86 569.98 755.72 570.00 762.00 C 570.02 768.29 569.29 780.81 569.00 788.00 C 568.71 795.19 572.95 803.73 569.23 810.23 C 565.51 816.73 554.36 813.82 554.03 805.98 C 553.69 798.13 554.57 787.91 554.00 780.00 C 553.43 772.09 555.22 761.27 555.00 754.00 C 554.78 746.73 558.99 736.21 568.00 740.00
M 590.00 740.00 
C 598.67 742.73 591.80 758.09 593.00 765.00 C 594.20 771.91 588.67 787.61 592.00 795.00 C 595.33 802.39 593.95 817.00 583.00 813.00 C 572.05 809.00 578.83 797.13 577.00 789.00 C 575.17 780.87 578.45 766.86 578.00 759.00 C 577.55 751.14 578.52 736.38 590.00 740.00
M 800.00 740.00 
C 808.77 742.82 801.98 759.22 803.00 766.00 C 804.02 772.78 799.14 788.42 802.33 795.67 C 805.52 802.92 804.12 817.24 793.33 813.67 C 782.54 810.10 788.68 797.18 787.00 789.00 C 785.32 780.82 789.22 766.83 788.00 759.00 C 786.78 751.17 789.48 736.62 800.00 740.00
M 231.00 742.00 
C 236.67 744.21 233.36 754.98 231.08 758.08 C 228.79 761.17 226.15 771.52 220.00 769.00 C 213.84 766.47 220.72 758.44 219.98 752.98 C 219.24 747.51 222.90 738.84 231.00 742.00
M 153.00 755.00 
C 137.16 747.41 162.68 737.88 170.74 744.26 C 178.80 750.63 168.52 751.63 169.03 758.03 C 169.53 764.42 167.22 772.93 168.00 779.00 C 168.78 785.07 165.89 795.94 168.00 801.00 C 170.11 806.06 174.15 811.32 166.92 812.92 C 159.70 814.53 153.99 816.28 147.92 812.08 C 141.86 807.87 152.39 802.89 151.00 797.00 C 149.61 791.11 151.58 781.98 151.78 775.78 C 151.98 769.58 152.71 761.34 153.00 755.00
M 411.00 743.00 
C 418.07 744.27 426.49 750.98 421.23 759.23 C 415.97 767.48 403.08 753.17 397.31 760.31 C 391.53 767.44 406.48 771.31 411.70 774.31 C 416.91 777.30 425.21 783.05 424.99 791.01 C 424.77 798.97 421.29 806.84 413.92 810.92 C 406.55 814.99 395.16 814.43 387.78 812.22 C 380.40 810.01 371.84 802.96 379.25 795.25 C 386.67 787.55 392.65 802.84 402.00 799.00 C 411.35 795.16 402.63 786.84 395.77 784.23 C 388.91 781.62 382.49 777.95 379.23 770.77 C 375.97 763.59 379.18 753.77 385.75 748.75 C 392.32 743.73 402.28 741.44 411.00 743.00
M 648.00 783.00 
C 656.57 777.42 649.72 755.03 662.08 753.08 C 674.44 751.12 671.88 776.99 677.00 783.00
C 682.45 771.53 683.65 765.63 686.00 752.00 C 688.34 738.37 706.70 744.02 702.02 756.02 C 697.35 768.02 698.29 777.00 693.07 787.07 C 687.86 797.15 690.38 808.42 679.30 813.30 C 668.23 818.19 663.58 797.40 663.00 790.00
C 654.76 793.99 659.05 814.22 646.97 813.98 C 634.90 813.73 635.34 799.42 631.07 789.93 C 626.81 780.43 628.47 768.06 624.00 757.00 C 619.53 745.93 637.31 737.15 640.93 750.07 C 644.54 762.99 642.64 771.56 648.00 783.00
M 199.00 765.00 
C 213.72 763.10 210.98 780.36 198.00 779.00
C 198.88 786.44 194.55 798.90 204.00 800.00 C 213.45 801.10 206.34 811.80 199.92 812.92 C 193.50 814.05 185.77 812.03 184.03 803.98 C 182.28 795.92 183.89 787.37 184.00 779.00
C 176.58 782.00 171.72 767.36 180.08 766.08 C 188.45 764.81 182.41 754.03 190.23 751.23 C 198.05 748.43 201.47 759.15 199.00 765.00
M 262.00 763.00 
C 268.40 764.32 271.51 772.16 267.75 775.75 C 263.98 779.33 250.55 772.35 252.94 779.08 C 255.32 785.81 263.94 783.06 267.75 788.25 C 271.57 793.44 275.63 799.42 271.22 805.22 C 266.82 811.02 262.47 813.14 255.98 813.98 C 249.48 814.81 242.67 813.78 237.75 809.25 C 232.84 804.71 240.24 794.18 247.07 799.93 C 253.90 805.67 260.80 798.82 253.30 795.70 C 245.81 792.57 243.86 790.88 239.70 785.30 C 235.54 779.72 238.05 771.79 242.75 767.75 C 247.45 763.72 255.61 761.68 262.00 763.00
M 332.00 807.00 
C 325.16 811.36 315.40 816.34 307.77 810.23 C 300.14 804.12 301.37 792.24 303.32 784.32 C 305.27 776.40 312.24 770.04 319.03 767.03 C 325.81 764.01 339.44 763.44 342.77 772.23 C 346.10 781.03 339.15 793.81 345.77 802.23 C 352.39 810.64 333.92 818.74 332.00 807.00
M 446.00 772.00 
C 451.24 763.40 466.98 762.20 469.00 774.00
C 473.31 770.34 479.79 762.48 487.00 765.00 C 494.21 767.52 497.92 774.13 497.93 782.07 C 497.93 790.02 499.75 800.09 498.07 808.07 C 496.40 816.05 481.85 813.99 483.00 805.00 C 484.15 796.00 484.07 787.30 480.00 780.00
C 474.10 784.80 469.45 793.19 471.00 802.00 C 472.55 810.81 459.78 817.94 456.23 807.77 C 452.68 797.60 460.85 788.36 455.00 779.00
C 449.27 783.12 442.08 791.11 445.00 801.00 C 447.92 810.89 432.35 818.84 430.03 806.98 C 427.70 795.11 432.09 787.19 431.00 776.00 C 429.91 764.80 442.04 761.92 446.00 772.00
M 533.00 807.00 
C 526.44 811.33 515.85 816.45 508.77 810.23 C 501.69 804.01 502.41 792.45 504.98 784.98 C 507.54 777.50 513.76 769.60 520.70 766.70 C 527.63 763.79 541.49 763.36 544.92 772.08 C 548.34 780.81 540.05 792.39 546.77 801.23 C 553.49 810.07 536.01 819.42 533.00 807.00
M 728.00 765.00 
C 753.90 770.36 743.05 819.81 715.99 813.01 C 688.94 806.21 699.73 759.15 728.00 765.00
M 762.00 772.00 
C 765.98 770.53 776.50 757.19 781.25 768.75 C 786.00 780.32 775.77 778.30 768.25 782.25 C 760.72 786.19 764.50 798.84 763.00 807.00 C 761.50 815.16 746.54 814.78 748.00 804.00 C 749.47 793.22 747.81 784.19 748.00 774.00 C 748.19 763.81 760.99 762.42 762.00 772.00 Z"/>
</g>
<g fill="#000000" fill-opacity="1.00" stroke="None">
<path d="
M 511.00 190.00 
C 508.61 183.87 505.76 177.19 504.00 171.00
C 503.51 177.32 492.26 188.35 501.00 192.00
C 493.62 224.23 487.12 256.71 480.00 289.00
C 462.01 285.12 468.67 310.98 482.00 311.00
C 479.62 343.55 481.80 376.39 481.00 409.00
C 474.62 409.82 462.88 410.35 465.00 402.00 C 467.12 393.65 461.26 387.49 468.00 383.00
C 466.62 372.06 460.79 361.93 457.00 352.00
C 450.54 360.99 447.28 372.85 443.00 383.00
C 450.30 385.05 446.14 395.39 447.00 402.00 C 447.86 408.61 446.36 417.21 447.00 424.00
C 439.33 424.00 431.67 424.00 424.00 424.00
C 425.87 411.76 421.51 391.43 424.00 380.00 C 426.49 368.58 439.35 365.39 439.67 352.67 C 439.99 339.95 435.53 330.16 425.75 323.25 C 415.96 316.35 404.68 315.21 404.00 302.00
C 413.28 299.95 410.26 285.36 401.03 286.03 C 391.79 286.69 390.08 300.41 399.00 303.00
C 398.44 310.55 391.94 315.69 385.70 318.69 C 379.45 321.70 374.31 325.16 369.77 330.77 C 365.24 336.38 361.69 344.51 363.00 352.00 C 364.31 359.49 365.12 366.82 372.25 371.75 C 379.38 376.69 378.43 385.05 378.00 394.00 C 377.57 402.95 378.38 412.81 378.00 422.00 C 377.62 431.19 378.59 441.80 378.00 451.00 C 377.41 460.20 379.22 470.01 378.00 479.00 C 376.78 487.99 383.14 499.41 372.00 501.00 C 360.86 502.59 358.52 496.72 359.00 486.00
C 352.65 486.76 352.17 476.23 344.00 481.00
C 343.28 474.48 340.33 468.58 340.00 462.00
C 352.13 462.59 347.73 452.67 343.77 446.23 C 339.81 439.79 336.95 433.15 335.00 426.00
C 351.22 424.95 355.35 405.66 364.00 395.00
C 359.59 398.91 360.83 394.80 361.00 391.00
C 357.24 393.28 356.72 395.00 356.00 390.00
C 353.02 393.23 354.53 401.43 350.00 394.00
C 352.77 401.55 350.48 408.18 345.25 413.25 C 340.02 418.31 331.81 424.20 329.00 416.00
C 339.54 413.82 338.03 403.56 337.99 395.01 C 337.95 386.46 321.48 385.44 315.23 390.23 C 308.98 395.02 301.82 404.17 309.00 412.00
C 303.36 412.61 294.30 415.15 300.25 421.75 C 306.20 428.34 315.09 422.37 315.00 416.00
C 317.57 417.07 320.08 418.30 323.00 418.00
C 317.51 427.74 307.56 436.30 300.08 445.08 C 292.61 453.86 303.11 449.61 308.00 452.00
C 306.13 443.07 314.27 435.94 321.00 432.00
C 320.35 438.22 317.85 445.20 315.93 450.93 C 314.00 456.65 308.16 465.39 319.00 464.00
C 318.50 472.69 311.64 478.47 310.00 486.00
C 294.68 484.91 302.39 504.33 301.00 516.00 C 299.61 527.67 301.98 541.41 301.00 554.00 C 300.02 566.59 302.22 578.54 301.00 592.00 C 299.78 605.46 303.26 615.14 301.00 630.00 C 298.74 644.86 313.36 643.95 326.00 643.00 C 338.64 642.05 351.51 643.46 364.00 643.00 C 376.49 642.54 389.78 643.27 402.00 643.00 C 414.22 642.73 428.35 643.27 440.00 643.00 C 451.65 642.73 469.74 647.08 469.00 634.00 C 468.26 620.92 470.77 610.35 469.78 599.22 C 468.80 588.10 469.51 577.56 476.08 569.08 C 482.65 560.60 490.37 555.78 501.00 555.00 C 511.63 554.22 520.07 558.63 527.25 566.75 C 534.42 574.88 535.66 585.01 535.00 597.00 C 534.34 608.99 535.01 622.09 535.00 635.00 C 534.99 647.91 554.40 641.80 565.00 643.00 C 575.60 644.20 591.15 641.91 602.00 642.00 C 612.85 642.09 627.25 642.51 638.00 642.00 C 648.75 641.49 665.12 644.98 675.00 643.00 C 684.88 641.02 704.99 648.67 707.67 637.67 C 710.34 626.67 705.12 612.99 707.00 601.00 C 708.88 589.01 705.59 575.16 707.00 563.00
C 715.17 562.87 718.90 566.89 723.92 573.08 C 728.93 579.27 737.55 575.90 744.00 574.00
C 743.00 586.18 741.28 598.17 739.00 610.00
C 747.56 613.81 740.33 627.46 740.00 635.00
C 730.66 632.52 726.02 641.49 738.00 642.00 C 749.98 642.51 748.91 637.34 750.01 628.01 C 751.11 618.68 751.55 614.76 756.00 608.00
C 757.40 609.57 758.63 611.38 761.00 612.00
C 759.97 620.85 764.90 623.24 764.67 632.33 C 764.44 641.42 769.07 643.33 779.00 642.00 C 788.92 640.66 780.35 631.33 773.00 634.00
C 774.50 626.08 764.83 612.74 774.00 609.00
C 772.14 601.75 771.28 593.06 768.93 586.07 C 766.58 579.08 764.52 569.72 772.30 567.30 C 780.09 564.89 781.40 557.93 787.25 555.25 C 793.10 552.57 801.39 543.87 793.01 541.01 C 784.63 538.15 784.28 552.09 777.70 553.70 C 771.12 555.31 765.87 563.11 758.00 561.00
C 757.09 556.11 762.65 556.22 765.70 553.70 C 768.75 551.17 766.34 544.58 771.00 545.00
C 773.43 536.09 762.87 518.30 753.00 527.00
C 747.11 521.18 742.89 527.51 737.00 529.00
C 740.02 534.90 724.23 545.05 738.00 546.00
C 732.36 554.17 753.75 557.45 747.23 562.23 C 740.71 567.01 732.29 570.01 726.08 565.92 C 719.87 561.82 716.73 551.85 708.00 556.00
C 704.30 544.55 709.16 529.32 708.00 518.00 C 706.84 506.68 713.57 487.75 701.00 485.00
C 710.71 475.57 694.13 471.15 692.00 462.00
C 702.08 461.62 705.23 456.42 699.92 449.08 C 694.62 441.73 695.37 436.56 692.00 429.00
C 696.88 429.28 701.19 435.71 705.93 436.07 C 710.67 436.44 713.68 446.26 718.89 440.89 C 724.10 435.52 713.35 433.86 709.70 432.31 C 706.04 430.75 700.55 427.49 697.25 424.75 C 693.94 422.02 687.60 419.21 687.00 415.00
C 690.48 414.85 692.77 411.57 696.00 411.00
C 694.90 418.60 705.24 418.89 708.74 413.74 C 712.25 408.60 707.21 401.99 701.00 403.00
C 704.83 391.72 690.80 383.09 682.08 385.08 C 673.35 387.06 660.08 394.49 671.00 401.00
C 669.01 408.33 673.89 414.96 681.00 416.00
C 678.05 423.01 671.56 421.62 666.23 427.23 C 660.90 432.84 655.01 426.76 649.23 429.23 C 643.45 431.70 638.19 426.41 632.00 425.00
C 631.77 415.42 632.31 404.44 632.00 395.00 C 631.69 385.56 630.34 376.45 637.75 371.75 C 645.16 367.05 645.08 359.35 647.22 352.22 C 649.36 345.10 645.14 336.79 641.25 330.75 C 637.37 324.71 630.85 321.45 624.75 318.25 C 618.64 315.06 610.41 310.29 612.00 302.00
C 624.32 298.82 613.77 280.09 604.25 287.25 C 594.73 294.41 611.27 305.74 602.23 312.23 C 593.19 318.72 587.40 319.76 579.75 326.75 C 572.10 333.74 569.67 343.73 571.00 353.00 C 572.33 362.27 576.76 371.50 586.00 375.00
C 586.00 396.67 586.00 418.33 586.00 440.00
C 578.67 440.00 571.33 440.00 564.00 440.00
C 564.37 432.97 563.51 423.81 564.00 417.00 C 564.49 410.19 561.10 401.72 569.00 400.00
C 568.01 393.04 564.70 385.41 561.92 379.08 C 559.15 372.74 557.95 364.78 553.00 361.00
C 548.31 374.12 541.46 386.59 538.00 400.00
C 546.50 400.52 542.20 411.47 543.00 418.00 C 543.80 424.53 542.40 433.27 543.00 440.00
C 537.33 440.00 531.67 440.00 526.00 440.00
C 525.93 426.57 526.09 412.35 526.00 399.00 C 525.91 385.65 526.18 372.16 526.00 359.00 C 525.82 345.84 526.39 330.76 526.00 318.00 C 525.61 305.24 543.83 305.89 538.00 290.00
C 534.36 289.40 530.88 288.58 527.00 289.00
C 524.61 278.06 521.11 266.68 519.33 255.67 C 517.55 244.66 513.84 232.39 512.33 221.67 C 510.82 210.96 503.72 197.51 511.00 190.00
M 676.00 428.00 
C 675.27 434.18 673.24 441.09 670.68 446.68 C 668.12 452.26 662.28 460.30 673.00 460.00
C 670.84 466.85 670.51 474.23 668.00 481.00
C 664.31 480.53 658.22 480.73 659.00 486.00
C 648.00 482.56 649.72 493.83 650.00 501.00
C 639.96 502.48 630.40 502.02 632.00 491.00 C 633.60 479.98 631.17 472.37 632.00 462.00 C 632.83 451.63 631.38 443.20 632.00 433.00
C 641.21 431.57 647.76 439.99 654.75 436.75 C 661.73 433.50 669.66 434.54 676.00 428.00
M 670.00 487.00 
C 677.15 485.72 675.55 462.28 682.03 462.03 C 688.51 461.78 698.38 478.67 694.25 482.25 C 690.11 485.83 685.40 486.12 687.00 494.00 C 688.60 501.88 681.84 501.08 675.00 501.00 C 668.16 500.92 669.98 492.73 670.00 487.00
M 333.00 464.00 
C 333.83 472.70 339.26 476.04 339.78 485.22 C 340.30 494.41 339.88 502.69 328.00 501.00 C 316.12 499.31 327.24 487.96 318.00 483.00
C 319.97 476.85 324.11 471.48 325.00 465.00
C 327.74 465.03 330.08 463.37 333.00 464.00 Z"/>
</g>
<g fill="#FFFFFF" fill-opacity="1.00" stroke="None">
<path d="
M 676.00 428.00 
C 669.66 434.54 661.73 433.50 654.75 436.75 C 647.76 439.99 641.21 431.57 632.00 433.00
C 631.38 443.20 632.83 451.63 632.00 462.00 C 631.17 472.37 633.60 479.98 632.00 491.00 C 630.40 502.02 639.96 502.48 650.00 501.00
C 649.72 493.83 648.00 482.56 659.00 486.00
C 658.22 480.73 664.31 480.53 668.00 481.00
C 670.51 474.23 670.84 466.85 673.00 460.00
C 662.28 460.30 668.12 452.26 670.68 446.68 C 673.24 441.09 675.27 434.18 676.00 428.00 Z"/>
</g>
<g fill="#FFFFFF" fill-opacity="1.00" stroke="None">
<path d="
M 670.00 487.00 
C 669.98 492.73 668.16 500.92 675.00 501.00 C 681.84 501.08 688.60 501.88 687.00 494.00 C 685.40 486.12 690.11 485.83 694.25 482.25 C 698.38 478.67 688.51 461.78 682.03 462.03 C 675.55 462.28 677.15 485.72 670.00 487.00 Z"/>
</g>
<g fill="#FFFFFF" fill-opacity="1.00" stroke="None">
<path d="
M 333.00 464.00 
C 330.08 463.37 327.74 465.03 325.00 465.00
C 324.11 471.48 319.97 476.85 318.00 483.00
C 327.24 487.96 316.12 499.31 328.00 501.00 C 339.88 502.69 340.30 494.41 339.78 485.22 C 339.26 476.04 333.83 472.70 333.00 464.00 Z"/>
</g>
<g fill="#000000" fill-opacity="1.00" stroke="None">
<path d="
M 215.00 519.00 
C 210.58 520.91 214.30 531.04 210.00 523.00
C 209.11 531.20 217.05 537.96 218.22 546.78 C 219.40 555.59 224.71 562.07 232.92 566.08 C 241.14 570.08 232.65 583.46 231.78 590.78 C 230.90 598.09 218.03 606.50 227.00 612.00
C 222.12 615.47 220.74 624.39 214.00 625.00
C 207.15 617.67 202.93 626.38 209.77 631.23 C 216.61 636.08 219.08 638.15 222.75 630.75 C 226.41 623.34 230.12 623.25 233.00 616.00
C 239.91 619.48 242.75 611.54 246.00 607.00
C 249.10 610.76 246.92 621.14 255.00 619.00
C 254.88 627.06 258.92 634.03 259.00 642.00
C 264.48 640.12 272.09 645.06 276.74 640.74 C 281.39 636.43 270.54 632.94 267.00 635.00
C 266.19 628.18 258.68 617.54 268.00 614.00
C 263.45 604.48 265.33 599.55 261.93 589.07 C 258.53 578.60 270.14 580.30 275.25 586.75 C 280.37 593.19 295.98 593.03 291.25 585.75 C 286.51 578.47 275.38 583.60 271.00 575.00
C 273.14 564.99 256.71 564.28 255.00 556.00
C 262.07 555.14 270.91 550.14 271.93 543.08 C 272.95 536.01 275.46 528.78 267.08 524.92 C 258.70 521.06 252.72 519.72 244.25 523.25 C 235.77 526.77 237.63 537.06 238.08 542.92 C 238.52 548.79 252.92 556.95 243.22 556.78 C 233.52 556.60 230.84 551.57 225.93 545.07 C 221.01 538.58 226.05 530.38 226.00 524.00
C 223.57 524.62 223.87 527.93 222.00 529.00
C 220.06 526.39 221.32 521.88 219.00 519.00
C 216.34 520.57 219.59 525.36 217.00 527.00
C 215.92 524.43 216.45 521.45 215.00 519.00 Z"/>
</g>
<g fill="#000000" fill-opacity="1.00" stroke="None">
<path d="
M 839.00 808.00 
C 839.80 815.37 855.11 814.34 854.00 807.00 C 852.88 799.66 851.35 790.42 852.00 783.00 C 852.65 775.58 852.07 765.23 853.01 759.01 C 853.95 752.79 856.31 740.57 849.00 739.00 C 841.70 737.44 835.18 743.83 838.00 753.00 C 840.82 762.17 834.52 766.72 826.07 765.07 C 817.63 763.43 816.53 772.75 811.92 776.92 C 807.32 781.10 808.32 791.01 809.00 797.00 C 809.68 802.99 813.06 809.98 819.93 812.07 C 826.79 814.16 833.56 812.23 839.00 808.00
M 833.00 778.00 
C 841.98 779.68 836.70 803.34 827.33 799.67 C 817.95 795.99 823.99 776.32 833.00 778.00
M 818.00 805.00 
C 814.17 802.04 817.45 796.96 813.00 793.00
C 817.55 794.86 820.40 800.51 818.00 805.00 Z"/>
</g>
<g fill="#000000" fill-opacity="1.00" stroke="None">
<path d="
M 568.00 740.00 
C 558.99 736.21 554.78 746.73 555.00 754.00 C 555.22 761.27 553.43 772.09 554.00 780.00 C 554.57 787.91 553.69 798.13 554.03 805.98 C 554.36 813.82 565.51 816.73 569.23 810.23 C 572.95 803.73 568.71 795.19 569.00 788.00 C 569.29 780.81 570.02 768.29 570.00 762.00 C 569.98 755.72 574.80 742.86 568.00 740.00
M 567.00 799.00 
C 562.92 800.21 566.23 800.53 565.00 803.00
C 562.47 803.00 560.73 805.60 558.00 805.00
C 558.28 801.69 561.45 802.69 563.00 801.00
C 556.74 803.98 554.90 787.64 562.00 794.00
C 563.44 790.38 559.06 789.08 559.00 786.00
C 564.20 788.30 565.24 793.71 567.00 799.00 Z"/>
</g>
<g fill="#000000" fill-opacity="1.00" stroke="None">
<path d="
M 590.00 740.00 
C 578.52 736.38 577.55 751.14 578.00 759.00 C 578.45 766.86 575.17 780.87 577.00 789.00 C 578.83 797.13 572.05 809.00 583.00 813.00 C 593.95 817.00 595.33 802.39 592.00 795.00 C 588.67 787.61 594.20 771.91 593.00 765.00 C 591.80 758.09 598.67 742.73 590.00 740.00
M 588.00 786.00 
C 587.77 793.00 580.25 787.18 588.00 786.00
M 590.00 799.00 
C 589.00 801.05 587.25 800.96 590.00 804.00
C 586.99 803.06 584.27 799.30 584.00 805.00
C 581.87 802.31 579.86 802.63 580.79 796.77 C 581.71 790.91 588.42 796.16 590.00 799.00 Z"/>
</g>
<g fill="#000000" fill-opacity="1.00" stroke="None">
<path d="
M 800.00 740.00 
C 789.48 736.62 786.78 751.17 788.00 759.00 C 789.22 766.83 785.32 780.82 787.00 789.00 C 788.68 797.18 782.54 810.10 793.33 813.67 C 804.12 817.24 805.52 802.92 802.33 795.67 C 799.14 788.42 804.02 772.78 803.00 766.00 C 801.98 759.22 808.77 742.82 800.00 740.00
M 799.00 788.00 
C 796.74 786.30 795.80 785.27 793.00 785.00
C 796.03 781.25 799.12 784.79 799.00 788.00
M 795.00 788.00 
C 794.98 791.47 793.24 794.30 791.00 797.00
C 788.86 793.32 789.69 787.56 795.00 788.00
M 795.00 806.00 
C 794.65 802.16 794.90 800.26 791.00 804.00
C 788.72 800.79 790.32 798.38 794.00 800.00
C 794.69 797.61 797.64 795.39 796.00 793.00
C 800.44 794.44 802.31 805.43 795.00 806.00 Z"/>
</g>
<g fill="#000000" fill-opacity="1.00" stroke="None">
<path d="
M 231.00 742.00 
C 222.90 738.84 219.24 747.51 219.98 752.98 C 220.72 758.44 213.84 766.47 220.00 769.00 C 226.15 771.52 228.79 761.17 231.08 758.08 C 233.36 754.98 236.67 744.21 231.00 742.00 Z"/>
</g>
<g fill="#000000" fill-opacity="1.00" stroke="None">
<path d="
M 153.00 755.00 
C 152.71 761.34 151.98 769.58 151.78 775.78 C 151.58 781.98 149.61 791.11 151.00 797.00 C 152.39 802.89 141.86 807.87 147.92 812.08 C 153.99 816.28 159.70 814.53 166.92 812.92 C 174.15 811.32 170.11 806.06 168.00 801.00 C 165.89 795.94 168.78 785.07 168.00 779.00 C 167.22 772.93 169.53 764.42 169.03 758.03 C 168.52 751.63 178.80 750.63 170.74 744.26 C 162.68 737.88 137.16 747.41 153.00 755.00
M 164.00 794.00 
C 162.00 802.08 164.85 806.36 158.00 808.00
C 163.78 803.83 149.52 801.25 157.00 797.00
C 156.95 800.53 159.41 801.40 163.00 799.00
C 161.54 797.52 161.71 794.54 164.00 794.00 Z"/>
</g>
<g fill="#000000" fill-opacity="1.00" stroke="None">
<path d="
M 411.00 743.00 
C 402.28 741.44 392.32 743.73 385.75 748.75 C 379.18 753.77 375.97 763.59 379.23 770.77 C 382.49 777.95 388.91 781.62 395.77 784.23 C 402.63 786.84 411.35 795.16 402.00 799.00 C 392.65 802.84 386.67 787.55 379.25 795.25 C 371.84 802.96 380.40 810.01 387.78 812.22 C 395.16 814.43 406.55 814.99 413.92 810.92 C 421.29 806.84 424.77 798.97 424.99 791.01 C 425.21 783.05 416.91 777.30 411.70 774.31 C 406.48 771.31 391.53 767.44 397.31 760.31 C 403.08 753.17 415.97 767.48 421.23 759.23 C 426.49 750.98 418.07 744.27 411.00 743.00
M 400.00 780.00 
C 393.93 783.78 396.16 775.25 400.00 780.00
M 416.00 787.00 
C 418.89 790.65 418.45 796.83 412.00 795.00
C 421.11 793.71 410.15 790.04 416.00 787.00 Z"/>
</g>
<g fill="#000000" fill-opacity="1.00" stroke="None">
<path d="
M 648.00 783.00 
C 642.64 771.56 644.54 762.99 640.93 750.07 C 637.31 737.15 619.53 745.93 624.00 757.00 C 628.47 768.06 626.81 780.43 631.07 789.93 C 635.34 799.42 634.90 813.73 646.97 813.98 C 659.05 814.22 654.76 793.99 663.00 790.00
C 663.58 797.40 668.23 818.19 679.30 813.30 C 690.38 808.42 687.86 797.15 693.07 787.07 C 698.29 777.00 697.35 768.02 702.02 756.02 C 706.70 744.02 688.34 738.37 686.00 752.00 C 683.65 765.63 682.45 771.53 677.00 783.00
C 671.88 776.99 674.44 751.12 662.08 753.08 C 649.72 755.03 656.57 777.42 648.00 783.00
M 640.00 791.00 
C 637.33 792.57 634.97 791.32 635.00 788.00
C 636.39 789.69 638.83 789.48 640.00 791.00
M 656.00 789.00 
C 653.71 791.85 656.51 791.76 654.00 794.00
C 651.73 791.33 651.28 793.26 648.00 795.00
C 647.55 790.19 652.64 790.30 656.00 789.00
M 653.00 797.00 
C 651.43 804.99 643.85 794.92 639.00 799.00
C 637.20 796.52 635.82 792.73 640.00 792.00
C 643.13 792.73 647.52 800.27 653.00 797.00
M 677.00 797.00 
C 674.49 798.95 676.68 799.72 676.00 803.00
C 678.06 803.38 682.03 803.16 682.00 806.00
C 678.52 805.97 676.38 802.31 675.00 807.00
C 673.38 804.81 672.95 802.97 675.00 801.00
C 672.32 799.16 669.10 796.71 670.00 793.00
C 675.88 793.18 673.44 797.15 677.00 797.00
M 683.00 802.00 
C 682.04 799.60 680.61 798.61 678.00 800.00
C 678.06 795.07 686.96 797.78 683.00 802.00 Z"/>
</g>
<g fill="#000000" fill-opacity="1.00" stroke="None">
<path d="
M 199.00 765.00 
C 201.47 759.15 198.05 748.43 190.23 751.23 C 182.41 754.03 188.45 764.81 180.08 766.08 C 171.72 767.36 176.58 782.00 184.00 779.00
C 183.89 787.37 182.28 795.92 184.03 803.98 C 185.77 812.03 193.50 814.05 199.92 812.92 C 206.34 811.80 213.45 801.10 204.00 800.00 C 194.55 798.90 198.88 786.44 198.00 779.00
C 210.98 780.36 213.72 763.10 199.00 765.00
M 191.00 799.00 
C 195.00 797.71 195.47 802.44 199.00 803.00
C 196.82 805.55 197.32 807.55 200.00 809.00
C 189.74 810.80 183.50 799.47 188.00 792.00
C 191.69 792.75 196.77 797.47 191.00 799.00 Z"/>
</g>
<g fill="#000000" fill-opacity="1.00" stroke="None">
<path d="
M 262.00 763.00 
C 255.61 761.68 247.45 763.72 242.75 767.75 C 238.05 771.79 235.54 779.72 239.70 785.30 C 243.86 790.88 245.81 792.57 253.30 795.70 C 260.80 798.82 253.90 805.67 247.07 799.93 C 240.24 794.18 232.84 804.71 237.75 809.25 C 242.67 813.78 249.48 814.81 255.98 813.98 C 262.47 813.14 266.82 811.02 271.22 805.22 C 275.63 799.42 271.57 793.44 267.75 788.25 C 263.94 783.06 255.32 785.81 252.94 779.08 C 250.55 772.35 263.98 779.33 267.75 775.75 C 271.51 772.16 268.40 764.32 262.00 763.00
M 259.00 788.00 
C 256.07 795.01 251.57 787.46 259.00 788.00
M 264.00 790.00 
C 262.37 791.76 261.56 796.56 266.00 796.00
C 261.21 786.80 274.88 801.09 264.00 799.00
C 262.08 796.62 259.69 794.66 257.00 794.00
C 260.54 792.89 260.18 791.18 264.00 790.00
M 268.00 802.00 
C 264.89 804.31 261.50 805.90 259.00 802.00
C 263.03 802.81 264.80 798.65 268.00 802.00 Z"/>
</g>
<g fill="#000000" fill-opacity="1.00" stroke="None">
<path d="
M 332.00 807.00 
C 333.92 818.74 352.39 810.64 345.77 802.23 C 339.15 793.81 346.10 781.03 342.77 772.23 C 339.44 763.44 325.81 764.01 319.03 767.03 C 312.24 770.04 305.27 776.40 303.32 784.32 C 301.37 792.24 300.14 804.12 307.77 810.23 C 315.40 816.34 325.16 811.36 332.00 807.00
M 328.00 778.00 
C 331.44 780.20 328.35 789.30 327.67 792.67 C 327.00 796.05 322.36 801.80 318.31 798.69 C 314.25 795.59 317.31 789.31 318.31 786.31 C 319.31 783.30 324.36 775.68 328.00 778.00
M 337.00 789.00 
C 336.28 792.04 333.34 795.74 331.00 791.00
C 332.77 789.55 335.22 790.43 337.00 789.00
M 310.00 799.00 
C 316.92 795.59 313.59 806.19 310.00 799.00
M 339.00 798.00 
C 340.35 800.43 338.52 802.50 336.00 803.00
C 337.50 800.77 335.32 798.62 339.00 798.00 Z"/>
</g>
<g fill="#000000" fill-opacity="1.00" stroke="None">
<path d="
M 446.00 772.00 
C 442.04 761.92 429.91 764.80 431.00 776.00 C 432.09 787.19 427.70 795.11 430.03 806.98 C 432.35 818.84 447.92 810.89 445.00 801.00 C 442.08 791.11 449.27 783.12 455.00 779.00
C 460.85 788.36 452.68 797.60 456.23 807.77 C 459.78 817.94 472.55 810.81 471.00 802.00 C 469.45 793.19 474.10 784.80 480.00 780.00
C 484.07 787.30 484.15 796.00 483.00 805.00 C 481.85 813.99 496.40 816.05 498.07 808.07 C 499.75 800.09 497.93 790.02 497.93 782.07 C 497.92 774.13 494.21 767.52 487.00 765.00 C 479.79 762.48 473.31 770.34 469.00 774.00
C 466.98 762.20 451.24 763.40 446.00 772.00
M 464.00 789.00 
C 462.77 790.06 461.69 794.57 460.00 792.00
C 460.24 790.28 460.55 788.06 464.00 789.00
M 467.00 807.00 
C 463.18 808.72 461.76 806.61 459.00 805.00
C 460.16 801.21 460.20 801.91 459.00 798.00
C 461.83 797.75 463.30 801.00 466.00 801.00
C 464.86 797.23 464.01 796.83 463.00 792.00
C 469.53 795.58 467.01 800.51 467.00 807.00
M 493.00 800.00 
C 489.79 799.85 483.80 800.05 487.00 795.00
C 487.88 798.00 492.89 796.80 493.00 800.00 Z"/>
</g>
<g fill="#000000" fill-opacity="1.00" stroke="None">
<path d="
M 533.00 807.00 
C 536.01 819.42 553.49 810.07 546.77 801.23 C 540.05 792.39 548.34 780.81 544.92 772.08 C 541.49 763.36 527.63 763.79 520.70 766.70 C 513.76 769.60 507.54 777.50 504.98 784.98 C 502.41 792.45 501.69 804.01 508.77 810.23 C 515.85 816.45 526.44 811.33 533.00 807.00
M 530.00 778.00 
C 532.93 779.86 529.17 788.85 529.07 792.07 C 528.97 795.29 523.56 801.58 519.78 799.22 C 515.99 796.86 518.42 788.73 519.78 785.78 C 521.13 782.83 526.21 775.59 530.00 778.00
M 538.00 793.00 
C 539.86 792.49 540.70 789.28 541.00 794.00
C 537.30 794.88 535.48 790.75 532.00 793.00
C 533.46 789.72 538.51 791.90 536.00 786.00
C 538.16 787.47 538.12 790.51 538.00 793.00
M 542.00 801.00 
C 540.24 803.85 538.05 799.13 537.00 801.00
C 538.07 803.05 539.47 804.67 536.00 806.00
C 537.23 800.44 533.41 799.01 533.00 794.00
C 534.79 797.20 538.56 798.71 542.00 801.00
M 543.00 802.00 
C 544.65 804.88 542.35 808.04 539.00 808.00
C 538.19 804.74 541.65 803.94 543.00 802.00 Z"/>
</g>
<g fill="#000000" fill-opacity="1.00" stroke="None">
<path d="
M 728.00 765.00 
C 699.73 759.15 688.94 806.21 715.99 813.01 C 743.05 819.81 753.90 770.36 728.00 765.00
M 724.00 779.00 
C 731.68 781.38 728.80 802.60 719.77 800.21 C 710.74 797.82 715.02 776.22 724.00 779.00
M 713.00 802.00 
C 710.17 801.09 706.60 800.00 710.00 797.00
C 709.77 800.91 713.20 797.85 713.00 802.00 Z"/>
</g>
<g fill="#000000" fill-opacity="1.00" stroke="None">
<path d="
M 762.00 772.00 
C 760.99 762.42 748.19 763.81 748.00 774.00 C 747.81 784.19 749.47 793.22 748.00 804.00 C 746.54 814.78 761.50 815.16 763.00 807.00 C 764.50 798.84 760.72 786.19 768.25 782.25 C 775.77 778.30 786.00 780.32 781.25 768.75 C 776.50 757.19 765.98 770.53 762.00 772.00
M 758.00 797.00 
C 756.50 798.82 750.75 798.82 752.00 795.00
C 755.08 793.81 755.55 796.83 758.00 797.00
M 759.00 804.00 
C 757.19 799.39 754.37 802.81 751.00 803.00
C 749.96 797.33 761.49 797.61 759.00 804.00 Z"/>
</g>
<g fill="#FFFFFF" fill-opacity="1.00" stroke="None">
<path d="
M 328.00 778.00 
C 324.36 775.68 319.31 783.30 318.31 786.31 C 317.31 789.31 314.25 795.59 318.31 798.69 C 322.36 801.80 327.00 796.05 327.67 792.67 C 328.35 789.30 331.44 780.20 328.00 778.00 Z"/>
</g>
<g fill="#FFFFFF" fill-opacity="1.00" stroke="None">
<path d="
M 400.00 780.00 
C 396.16 775.25 393.93 783.78 400.00 780.00 Z"/>
</g>
<g fill="#FFFFFF" fill-opacity="1.00" stroke="None">
<path d="
M 530.00 778.00 
C 526.21 775.59 521.13 782.83 519.78 785.78 C 518.42 788.73 515.99 796.86 519.78 799.22 C 523.56 801.58 528.97 795.29 529.07 792.07 C 529.17 788.85 532.93 779.86 530.00 778.00 Z"/>
</g>
<g fill="#FFFFFF" fill-opacity="1.00" stroke="None">
<path d="
M 833.00 778.00 
C 823.99 776.32 817.95 795.99 827.33 799.67 C 836.70 803.34 841.98 779.68 833.00 778.00 Z"/>
</g>
<g fill="#FFFFFF" fill-opacity="1.00" stroke="None">
<path d="
M 724.00 779.00 
C 715.02 776.22 710.74 797.82 719.77 800.21 C 728.80 802.60 731.68 781.38 724.00 779.00 Z"/>
</g>
<g fill="#E5E5E5" fill-opacity="1.00" stroke="None">
<path d="
M 799.00 788.00 
C 799.12 784.79 796.03 781.25 793.00 785.00
C 795.80 785.27 796.74 786.30 799.00 788.00 Z"/>
</g>
<g fill="#E3E3E3" fill-opacity="1.00" stroke="None">
<path d="
M 538.00 793.00 
C 538.12 790.51 538.16 787.47 536.00 786.00
C 538.51 791.90 533.46 789.72 532.00 793.00
C 535.48 790.75 537.30 794.88 541.00 794.00
C 540.70 789.28 539.86 792.49 538.00 793.00 Z"/>
</g>
<g fill="#FBFBFB" fill-opacity="1.00" stroke="None">
<path d="
M 567.00 799.00 
C 565.24 793.71 564.20 788.30 559.00 786.00
C 559.06 789.08 563.44 790.38 562.00 794.00
C 554.90 787.64 556.74 803.98 563.00 801.00
C 561.45 802.69 558.28 801.69 558.00 805.00
C 560.73 805.60 562.47 803.00 565.00 803.00
C 566.23 800.53 562.92 800.21 567.00 799.00
M 565.00 799.00 
C 558.43 796.66 564.79 792.52 565.00 799.00 Z"/>
</g>
<g fill="#FFFFFF" fill-opacity="1.00" stroke="None">
<path d="
M 588.00 786.00 
C 580.25 787.18 587.77 793.00 588.00 786.00 Z"/>
</g>
<g fill="#DDDDDD" fill-opacity="1.00" stroke="None">
<path d="
M 416.00 787.00 
C 410.15 790.04 421.11 793.71 412.00 795.00
C 418.45 796.83 418.89 790.65 416.00 787.00 Z"/>
</g>
<g fill="#FFFFFF" fill-opacity="1.00" stroke="None">
<path d="
M 259.00 788.00 
C 251.57 787.46 256.07 795.01 259.00 788.00 Z"/>
</g>
<g fill="#FFFFFF" fill-opacity="1.00" stroke="None">
<path d="
M 640.00 791.00 
C 638.83 789.48 636.39 789.69 635.00 788.00
C 634.97 791.32 637.33 792.57 640.00 791.00 Z"/>
</g>
<g fill="#DCDCDC" fill-opacity="1.00" stroke="None">
<path d="
M 795.00 788.00 
C 789.69 787.56 788.86 793.32 791.00 797.00
C 793.24 794.30 794.98 791.47 795.00 788.00 Z"/>
</g>
<g fill="#E7E7E7" fill-opacity="1.00" stroke="None">
<path d="
M 337.00 789.00 
C 335.22 790.43 332.77 789.55 331.00 791.00
C 333.34 795.74 336.28 792.04 337.00 789.00 Z"/>
</g>
<g fill="#DDDDDD" fill-opacity="1.00" stroke="None">
<path d="
M 464.00 789.00 
C 460.55 788.06 460.24 790.28 460.00 792.00
C 461.69 794.57 462.77 790.06 464.00 789.00 Z"/>
</g>
<g fill="#F0F0F0" fill-opacity="1.00" stroke="None">
<path d="
M 656.00 789.00 
C 652.64 790.30 647.55 790.19 648.00 795.00
C 651.28 793.26 651.73 791.33 654.00 794.00
C 656.51 791.76 653.71 791.85 656.00 789.00 Z"/>
</g>
<g fill="#FFFFFF" fill-opacity="1.00" stroke="None">
<path d="
M 264.00 790.00 
C 260.18 791.18 260.54 792.89 257.00 794.00
C 259.69 794.66 262.08 796.62 264.00 799.00
C 274.88 801.09 261.21 786.80 266.00 796.00
C 261.56 796.56 262.37 791.76 264.00 790.00 Z"/>
</g>
<g fill="#F6F6F6" fill-opacity="1.00" stroke="None">
<path d="
M 191.00 799.00 
C 196.77 797.47 191.69 792.75 188.00 792.00
C 183.50 799.47 189.74 810.80 200.00 809.00
C 197.32 807.55 196.82 805.55 199.00 803.00
C 195.47 802.44 195.00 797.71 191.00 799.00 Z"/>
</g>
<g fill="#E4E4E4" fill-opacity="1.00" stroke="None">
<path d="
M 467.00 807.00 
C 467.01 800.51 469.53 795.58 463.00 792.00
C 464.01 796.83 464.86 797.23 466.00 801.00
C 463.30 801.00 461.83 797.75 459.00 798.00
C 460.20 801.91 460.16 801.21 459.00 805.00
C 461.76 806.61 463.18 808.72 467.00 807.00 Z"/>
</g>
<g fill="#D6D6D6" fill-opacity="1.00" stroke="None">
<path d="
M 653.00 797.00 
C 647.52 800.27 643.13 792.73 640.00 792.00
C 635.82 792.73 637.20 796.52 639.00 799.00
C 643.85 794.92 651.43 804.99 653.00 797.00 Z"/>
</g>
<g fill="#DFDFDF" fill-opacity="1.00" stroke="None">
<path d="
M 677.00 797.00 
C 673.44 797.15 675.88 793.18 670.00 793.00
C 669.10 796.71 672.32 799.16 675.00 801.00
C 672.95 802.97 673.38 804.81 675.00 807.00
C 676.38 802.31 678.52 805.97 682.00 806.00
C 682.03 803.16 678.06 803.38 676.00 803.00
C 676.68 799.72 674.49 798.95 677.00 797.00 Z"/>
</g>
<g fill="#DFDFDF" fill-opacity="1.00" stroke="None">
<path d="
M 795.00 806.00 
C 802.31 805.43 800.44 794.44 796.00 793.00
C 797.64 795.39 794.69 797.61 794.00 800.00
C 790.32 798.38 788.72 800.79 791.00 804.00
C 794.90 800.26 794.65 802.16 795.00 806.00 Z"/>
</g>
<g fill="#E6E6E6" fill-opacity="1.00" stroke="None">
<path d="
M 818.00 805.00 
C 820.40 800.51 817.55 794.86 813.00 793.00
C 817.45 796.96 814.17 802.04 818.00 805.00 Z"/>
</g>
<g fill="#E0E0E0" fill-opacity="1.00" stroke="None">
<path d="
M 164.00 794.00 
C 161.71 794.54 161.54 797.52 163.00 799.00
C 159.41 801.40 156.95 800.53 157.00 797.00
C 149.52 801.25 163.78 803.83 158.00 808.00
C 164.85 806.36 162.00 802.08 164.00 794.00 Z"/>
</g>
<g fill="#BFBFBF" fill-opacity="1.00" stroke="None">
<path d="
M 542.00 801.00 
C 538.56 798.71 534.79 797.20 533.00 794.00
C 533.41 799.01 537.23 800.44 536.00 806.00
C 539.47 804.67 538.07 803.05 537.00 801.00
C 538.05 799.13 540.24 803.85 542.00 801.00 Z"/>
</g>
<g fill="#BBBBBB" fill-opacity="1.00" stroke="None">
<path d="
M 590.00 799.00 
C 588.42 796.16 581.71 790.91 580.79 796.77 C 579.86 802.63 581.87 802.31 584.00 805.00
C 584.27 799.30 586.99 803.06 590.00 804.00
C 587.25 800.96 589.00 801.05 590.00 799.00 Z"/>
</g>
<g fill="#DCDCDC" fill-opacity="1.00" stroke="None">
<path d="
M 493.00 800.00 
C 492.89 796.80 487.88 798.00 487.00 795.00
C 483.80 800.05 489.79 799.85 493.00 800.00 Z"/>
</g>
<g fill="#000000" fill-opacity="1.00" stroke="None">
<path d="
M 565.00 799.00 
C 564.79 792.52 558.43 796.66 565.00 799.00 Z"/>
</g>
<g fill="#FFFFFF" fill-opacity="1.00" stroke="None">
<path d="
M 758.00 797.00 
C 755.55 796.83 755.08 793.81 752.00 795.00
C 750.75 798.82 756.50 798.82 758.00 797.00 Z"/>
</g>
<g fill="#FFFFFF" fill-opacity="1.00" stroke="None">
<path d="
M 683.00 802.00 
C 686.96 797.78 678.06 795.07 678.00 800.00
C 680.61 798.61 682.04 799.60 683.00 802.00 Z"/>
</g>
<g fill="#E0E0E0" fill-opacity="1.00" stroke="None">
<path d="
M 713.00 802.00 
C 713.20 797.85 709.77 800.91 710.00 797.00
C 706.60 800.00 710.17 801.09 713.00 802.00 Z"/>
</g>
<g fill="#FFFFFF" fill-opacity="1.00" stroke="None">
<path d="
M 310.00 799.00 
C 313.59 806.19 316.92 795.59 310.00 799.00 Z"/>
</g>
<g fill="#DDDDDD" fill-opacity="1.00" stroke="None">
<path d="
M 339.00 798.00 
C 335.32 798.62 337.50 800.77 336.00 803.00
C 338.52 802.50 340.35 800.43 339.00 798.00 Z"/>
</g>
<g fill="#F1F1F1" fill-opacity="1.00" stroke="None">
<path d="
M 759.00 804.00 
C 761.49 797.61 749.96 797.33 751.00 803.00
C 754.37 802.81 757.19 799.39 759.00 804.00 Z"/>
</g>
<g fill="#CFCFCF" fill-opacity="1.00" stroke="None">
<path d="
M 268.00 802.00 
C 264.80 798.65 263.03 802.81 259.00 802.00
C 261.50 805.90 264.89 804.31 268.00 802.00 Z"/>
</g>
<g fill="#FFFFFF" fill-opacity="1.00" stroke="None">
<path d="
M 543.00 802.00 
C 541.65 803.94 538.19 804.74 539.00 808.00
C 542.35 808.04 544.65 804.88 543.00 802.00 Z"/>
</g>
</svg>