<?xml version="1.0" encoding="utf-8"?>
<!-- Generator: Adobe Illustrator 18.0.0, SVG Export Plug-In . SVG Version: 6.00 Build 0)  -->
<!DOCTYPE svg PUBLIC "-//W3C//DTD SVG 1.1//EN" "http://www.w3.org/Graphics/SVG/1.1/DTD/svg11.dtd">
<svg xmlns="http://www.w3.org/2000/svg" xmlns:xlink="http://www.w3.org/1999/xlink" version="1.1" id="Слой_2" x="0px" y="0px" viewBox="146 0 1503 1200" enable-background="new 146 0 1503 1200" xml:space="preserve">
<path fill="#000000" stroke="" stroke-width="2" stroke-miterlimit="10" d="M981.6,499.9c0,0-57,13.1-93,22.9  c-36,9.6-95.7,22.9-95.7,22.9s3.5,9.6-15.8,30.8c-19.2,20.9-28.8,34.9-28.8,34.9s74.5,97.4,86,153.6s15.8,74.5-12.3,91.2  c-28.1,16.7-66.6,9.6-108,16.7c-41.2,7.1-88.7,20.2-91.2,23.7C620,900,620,900,620,900s12.3,31.6-10.6,45.6s-24.6,8.8-31.6,5.2  s-12.3-5.2-12.3-5.2s-27.2,39.5-55.3,49.1c-28.1,9.6-43.1,28.1-55.3,42.1s-17.5-30.8-7.9-60.6c9.6-29.8,46.4-68.5,66.6-100.9  s37.7-84.3,57.9-86.8c20.2-2.7,29.8,7.9,34.2,16.7c4.4,8.8,15.8-11.2,28.1,4.9c12.3,16.1,10.6,24,10.6,24s8.8-3.5,22.9-18.5  c14-15,23.2-27.2,44.5-30.8c21.3-3.5,31.9-4.4,31.9-4.4s-15.8-17.5-43.9-44.8c-28.1-27.2-54.4-56.2-58.7-69.3  c-4.4-13.1-12.7-27.2-12.7-27.2l-25.8,9.6c0,0-18.5,64.9-57.9,116.8c-39.5,51.8-41.2,76.4-62.3,86.8c-21,10.6-31.1,9.6-40.1,16.7  S333,957.6,312,976c-21,18.5-33.3,21-33.3,21s29.6,27.7,7.1,57c-17.5,22.9-38.7,12.3-38.7,12.3s-18.4,42.6-21,64.5  c-2.7,21.9-13.1,64.9-13.1,64.9s-34.2-18.5-42.1-52.7c-7.9-34.2-16-68.5-11.4-87.8c6.8-29.1,25.4-83.4,30.8-108  c5.2-24.6,15.8-40.4,37.7-34.2c21.9,6.2,21.9,6.2,21.9,6.2s7.1-17.5,18.5-16.7c11.4,0.8,23.7,9.6,23.7,9.6s43.9-73.7,60.6-87.8  c16.7-14,75.5-36.8,78.1-37.7c2.7-0.8,8.8-5.2,12.3-16.7c3.5-11.4,36-135.1,47.4-165.9c11.4-30.8,35.2-76.4,38.7-79.9  s3.5-3.5,3.5-3.5l-8.8-5.2c0,0,5.2-21.9,21-33.3c15.8-11.4,15.8-11.4,15.8-11.4s-25.4-15-36-19.3c-10.6-4.4-17.5-7.1-3.5-15.8  c14-8.8,58.7-25.4,96.6-21.9c37.7,3.5,57.9,12.3,57.9,12.3l12.3-3.5c0,0,54.4-18.5,60.6-23.7c6.2-5.2-13.1-6.2-17.5-8.8  c-4.4-2.7,4.4-16.7,7.9-18.5c3.5-1.7-16.7-4.4-67.6-3.5s-74.5,9.6-109.7,10.6s-149.4-26.3-168.7-27.1c-19.3-0.8-32.5,0-39.5,7.1  c-7.1,7.1-16.7,35.2-35.2,43.9s-51.8,18.5-62.3,23.7s-17.5,6.2-17.5,6.2s0-15,10.6-21c10.6-6.2,20.2-12.3,22.9-15  s-23.7-4.4-42.1,7.1c-18.4,11.4-43.1,25.4-51.8,26.3c-8.8,0.8-24.6,6.2-18.5-5.2c6.2-11.4,6.2-11.4,6.2-11.4s-5.2-5.2,7.9-14  c13.1-8.8-2.7-5.2,18.5-17.5c21-12.3,60.6-26.3,83.4-38.7c22.9-12.3,29.8-19.3,42.1-23.7c12.3-4.4,100.1-18.5,144.8-27.2  c44.8-8.8,83.4-13.1,134.3-6.2c51,7.1,103.6,15.8,123.7,16.7c20.2,0.8,28.1,1.7,28.1,1.7s-7.9-12.3-8.8-21.9  c-0.8-9.7-0.8-15.8,28.1-10.6c28.9,5.2,75.5,1.4,100.9,1.6c25.4,0.1,61.4,7.2,68.5,25.7s19.3,37.7,21.9,38.7  c2.7,0.8-1.7-21.9,4.4-29.8c6.2-7.9,10.6-12.3,10.6-12.3s-1.7-23.7,2.7-31.6c4.4-7.9-13.1-33.3,5.2-78.9  c18.5-45.6,15-51.4,25.4-59.7c12.3-9.6,12.3-9.6,12.3-9.6s2.7-29.8-15.8-57.9c-18.5-28.1-37.7-47.4-37.7-47.4s25.4-27.2,81.5,22.7  c20.3,18.2,28.1,57,26.3,70.2c-1.7,13.1-7.9,14-5.2,17.5s11.4,16.7,30.8,22.9s19.3,15,19.3,15s37.7,0,72,25.4  c34.3,25.4,31.6,36,31.6,36s33.3-7.9,65.8,28.9s28.1,43.9,25.4,49.1c-2.7,5.2-7.1,10.6-7.1,10.6s-4.4-11.4-6.2-15.8  c-1.7-4.4-7.1,3.5-7.1,3.5s15.8,18.5,5.2,36c-10.6,17.5-8.8,24.6-8.8,24.6l-4.4-19.3c0,0-1.7,32.5-9.6,39.5  c-7.9,7.1-7.9,7.1-7.9,7.1s-7.1-29.8-7.9-32.5s-22.9-13.1-22.9-13.1s-29.8,33.3-43.9,43.9c-14,10.6-28.1,19.3-28.1,19.3  s2.7,15-7.1,32.5c-9.6,17.5-21.9,25.4-27.2,28.1c-5.4,2.7-9.6,4.4-9.6,4.4s24.6,17.5,30.8,22.9c6.2,5.2,14,15,14,15l-7.9,4.4  c0,0,23.7,21,55.3,27.2s84.3,48.3,118.4,74.5c34.2,26.3,86,62.3,96.6,68.5c10.6,6.2,10.6,8.8,31.6,7.1c21-1.7,45.6,0.8,56.2,0  c10.6-0.8,21-15.8,28.1-17.5c7.1-1.7,42.1-11.4,51.8-4.4c9.6,7.1-0.8,9.6-11.4,11.4c-10.6,1.7-26.3,11.4-26.3,11.4  s30.5,9.6,41.5,13.1c11.2,3.5,23.4,7.1,27.8,9.6c4.4,2.7,0.8,9.6-6.2,9.6s10.6,5.2,19.3,12.3c8.8,7.1-1.7,11.4-21,7.1  c-19.3-4.4-50-7.1-50-7.1s10.6,8.8,25.4,15.8c14.8,7.1,42.1,28.1,16.7,20.2c-25.4-7.9-66.6-17.5-78.9-19.3  c-12.3-1.7-41.2-7.1-51.8-3.5c-10.6,3.5-22.9,7.1-11.4,13.1c11.4,6.2,29.8,10.6,38.7,17.5c8.9,6.9,13.1,8.8-10.6,8.8  c-23.7,0-34.2,7.1-44.8,0.8c-10.6-6.2-16.7-33.3-25.4-44.8c-8.8-11.4-54.4-38.7-94.7-54.4c-40.4-15.8-136.9-61.4-153.6-76.4  s-92.2-65.8-92.2-65.8s-10.6,23.7-20.2,29.8c-9.6,6.2-24.6,1.7-46.4-16.7c-21.9-18.5-24.6-31.6-28.1-40.4c-3.5-8.8-3.5-15-3.5-15  L981.6,499.9z"/>
</svg>
