<svg xmlns="http://www.w3.org/2000/svg" xmlns:v="https://svgstorm.com"
viewBox = "0 0 1000 1000"
width="1000"
height="1000">
<g fill="None" fill-opacity="0.0" stroke="#FFFFFF" stroke-opacity="1.00" stroke-width="0.3"><path d="
M 0.00 1000.00 
L 1000.00 1000.00
L 1000.00 0.00
L 0.00 0.00
L 0.00 1000.00
M 555.00 448.00 
C 562.26 456.61 574.54 461.97 583.70 469.30 C 592.86 476.64 604.51 481.96 613.25 489.75 C 621.98 497.55 636.09 500.48 640.97 512.03 C 645.86 523.58 624.12 533.50 615.00 534.00
C 623.12 545.66 631.22 556.31 640.30 567.70 C 649.39 579.08 657.31 588.70 666.25 600.75 C 675.19 612.79 683.48 626.58 698.67 628.33 C 713.86 630.07 724.19 641.95 730.98 655.03 C 737.76 668.10 736.03 689.29 727.08 702.08 C 718.13 714.88 703.56 722.82 688.00 723.00 C 672.44 723.18 658.81 718.21 648.75 705.25 C 638.68 692.30 635.79 673.61 642.00 658.00
C 627.69 644.01 617.43 625.03 603.00 612.00
C 608.15 626.57 602.79 644.63 603.02 659.02 C 603.26 673.42 589.00 683.69 591.98 697.02 C 594.95 710.36 598.00 723.62 602.98 737.02 C 607.95 750.42 607.25 767.00 587.00 765.00
C 586.27 804.23 585.63 843.49 586.00 883.00
C 597.35 877.11 607.46 871.98 619.68 867.68 C 631.89 863.38 648.15 858.49 661.67 860.33 C 675.19 862.17 685.48 867.46 694.30 877.70 C 703.13 887.94 705.71 903.55 702.22 916.22 C 698.73 928.89 692.57 937.92 681.77 945.77 C 670.97 953.62 660.82 957.79 647.93 961.93 C 635.03 966.06 618.38 967.54 604.33 968.33 C 590.28 969.12 572.12 968.26 558.98 965.02 C 545.83 961.79 534.68 958.96 525.25 948.75 C 515.82 938.54 514.05 923.32 517.78 909.78 C 521.51 896.23 529.46 886.39 529.00 871.00 C 528.54 855.61 530.30 837.90 530.00 822.00 C 529.70 806.10 532.31 789.30 531.00 773.00
C 511.15 776.09 514.82 752.91 515.00 740.00
C 509.67 740.00 504.33 740.00 499.00 740.00
C 499.08 752.00 502.40 772.05 485.00 771.00
C 486.87 787.70 484.94 807.30 486.00 824.00 C 487.06 840.70 486.67 861.19 487.93 877.07 C 489.18 892.95 500.80 902.79 500.00 919.00 C 499.20 935.21 495.00 947.20 481.30 955.30 C 467.60 963.41 454.76 965.53 439.33 967.33 C 423.90 969.13 403.01 969.20 388.00 967.00 C 372.99 964.80 358.18 960.86 345.32 954.68 C 332.46 948.50 324.00 941.60 316.25 929.75 C 308.49 917.91 308.13 898.33 314.78 885.78 C 321.43 873.22 331.22 866.13 345.02 862.03 C 358.83 857.92 378.28 861.32 391.68 866.32 C 405.07 871.33 417.83 876.51 431.00 882.00
C 431.00 841.66 431.00 801.34 431.00 761.00
C 422.13 759.76 402.01 754.88 406.78 742.78 C 411.55 730.68 415.52 723.68 420.31 712.31 C 425.09 700.93 432.63 693.03 424.70 682.31 C 416.76 671.58 417.40 659.04 417.00 646.00 C 416.60 632.96 420.31 619.42 423.00 607.00
C 415.33 616.52 404.25 624.41 398.08 635.08 C 391.91 645.75 375.06 651.84 376.93 665.07 C 378.80 678.31 377.45 695.46 367.25 706.25 C 357.05 717.03 345.87 723.06 331.00 723.00 C 316.13 722.94 304.04 717.86 293.75 707.25 C 283.47 696.64 280.30 679.59 282.78 665.78 C 285.26 651.97 293.20 641.83 304.70 634.70 C 316.19 627.56 331.89 628.43 339.92 616.92 C 347.95 605.41 356.88 599.33 364.75 588.75 C 372.63 578.18 381.82 570.95 389.75 560.75 C 397.69 550.55 407.87 542.06 414.00 531.00
C 396.06 527.93 393.36 508.65 407.70 501.70 C 422.03 494.74 429.89 486.12 443.23 479.23 C 456.57 472.34 466.09 464.20 479.00 457.00
C 467.07 454.55 453.88 450.14 442.92 444.08 C 431.97 438.01 424.04 431.36 415.25 421.75 C 406.46 412.15 405.78 395.36 391.00 396.00 C 376.22 396.64 358.25 392.68 344.00 393.00 C 329.74 393.32 310.55 388.98 297.93 389.07 C 285.31 389.17 260.86 389.83 264.33 373.33 C 267.80 356.82 290.18 364.66 303.00 362.00 C 315.82 359.34 335.81 360.86 350.00 359.00 C 364.19 357.14 382.41 357.54 397.00 356.00
C 403.32 345.15 405.83 336.36 402.00 324.00 C 398.18 311.64 399.16 297.35 399.00 284.00
C 385.40 287.04 375.98 276.46 370.23 264.77 C 364.47 253.08 363.79 234.65 366.93 221.93 C 370.07 209.21 375.51 197.84 384.25 188.25 C 392.99 178.66 401.05 171.65 413.08 167.08 C 425.10 162.50 441.56 156.99 455.00 159.00 C 468.44 161.01 475.80 148.14 485.75 140.75 C 495.71 133.36 503.57 125.44 513.25 118.25 C 522.92 111.05 530.66 102.33 540.25 95.25 C 549.83 88.17 558.74 79.27 568.25 72.25 C 577.75 65.23 585.98 56.04 595.75 49.75 C 605.51 43.45 613.02 26.91 627.00 31.00 C 640.98 35.09 638.23 55.65 641.00 68.00 C 643.77 80.36 646.46 96.71 648.98 110.02 C 651.49 123.34 653.60 139.04 656.33 152.67 C 659.05 166.30 661.66 182.33 664.00 196.00 C 666.33 209.67 670.00 224.78 671.98 238.02 C 673.95 251.27 683.12 257.71 694.25 265.75 C 705.37 273.80 712.21 285.77 702.70 297.70 C 693.18 309.62 688.75 313.78 675.77 320.77 C 662.80 327.76 673.59 347.86 668.02 359.02 C 662.46 370.19 656.66 381.07 645.25 387.25 C 633.85 393.44 618.42 392.27 612.23 404.23 C 606.04 416.19 596.82 421.01 587.75 429.75 C 578.69 438.49 566.12 443.14 555.00 448.00 Z"/>
</g>
<g fill="None" fill-opacity="0.0" stroke="#000000" stroke-opacity="1.00" stroke-width="0.3"><path d="
M 555.00 448.00 
C 566.12 443.14 578.69 438.49 587.75 429.75 C 596.82 421.01 606.04 416.19 612.23 404.23 C 618.42 392.27 633.85 393.44 645.25 387.25 C 656.66 381.07 662.46 370.19 668.02 359.02 C 673.59 347.86 662.80 327.76 675.77 320.77 C 688.75 313.78 693.18 309.62 702.70 297.70 C 712.21 285.77 705.37 273.80 694.25 265.75 C 683.12 257.71 673.95 251.27 671.98 238.02 C 670.00 224.78 666.33 209.67 664.00 196.00 C 661.66 182.33 659.05 166.30 656.33 152.67 C 653.60 139.04 651.49 123.34 648.98 110.02 C 646.46 96.71 643.77 80.36 641.00 68.00 C 638.23 55.65 640.98 35.09 627.00 31.00 C 613.02 26.91 605.51 43.45 595.75 49.75 C 585.98 56.04 577.75 65.23 568.25 72.25 C 558.74 79.27 549.83 88.17 540.25 95.25 C 530.66 102.33 522.92 111.05 513.25 118.25 C 503.57 125.44 495.71 133.36 485.75 140.75 C 475.80 148.14 468.44 161.01 455.00 159.00 C 441.56 156.99 425.10 162.50 413.08 167.08 C 401.05 171.65 392.99 178.66 384.25 188.25 C 375.51 197.84 370.07 209.21 366.93 221.93 C 363.79 234.65 364.47 253.08 370.23 264.77 C 375.98 276.46 385.40 287.04 399.00 284.00
C 399.16 297.35 398.18 311.64 402.00 324.00 C 405.83 336.36 403.32 345.15 397.00 356.00
C 382.41 357.54 364.19 357.14 350.00 359.00 C 335.81 360.86 315.82 359.34 303.00 362.00 C 290.18 364.66 267.80 356.82 264.33 373.33 C 260.86 389.83 285.31 389.17 297.93 389.07 C 310.55 388.98 329.74 393.32 344.00 393.00 C 358.25 392.68 376.22 396.64 391.00 396.00 C 405.78 395.36 406.46 412.15 415.25 421.75 C 424.04 431.36 431.97 438.01 442.92 444.08 C 453.88 450.14 467.07 454.55 479.00 457.00
C 466.09 464.20 456.57 472.34 443.23 479.23 C 429.89 486.12 422.03 494.74 407.70 501.70 C 393.36 508.65 396.06 527.93 414.00 531.00
C 407.87 542.06 397.69 550.55 389.75 560.75 C 381.82 570.95 372.63 578.18 364.75 588.75 C 356.88 599.33 347.95 605.41 339.92 616.92 C 331.89 628.43 316.19 627.56 304.70 634.70 C 293.20 641.83 285.26 651.97 282.78 665.78 C 280.30 679.59 283.47 696.64 293.75 707.25 C 304.04 717.86 316.13 722.94 331.00 723.00 C 345.87 723.06 357.05 717.03 367.25 706.25 C 377.45 695.46 378.80 678.31 376.93 665.07 C 375.06 651.84 391.91 645.75 398.08 635.08 C 404.25 624.41 415.33 616.52 423.00 607.00
C 420.31 619.42 416.60 632.96 417.00 646.00 C 417.40 659.04 416.76 671.58 424.70 682.31 C 432.63 693.03 425.09 700.93 420.31 712.31 C 415.52 723.68 411.55 730.68 406.78 742.78 C 402.01 754.88 422.13 759.76 431.00 761.00
C 431.00 801.34 431.00 841.66 431.00 882.00
C 417.83 876.51 405.07 871.33 391.68 866.32 C 378.28 861.32 358.83 857.92 345.02 862.03 C 331.22 866.13 321.43 873.22 314.78 885.78 C 308.13 898.33 308.49 917.91 316.25 929.75 C 324.00 941.60 332.46 948.50 345.32 954.68 C 358.18 960.86 372.99 964.80 388.00 967.00 C 403.01 969.20 423.90 969.13 439.33 967.33 C 454.76 965.53 467.60 963.41 481.30 955.30 C 495.00 947.20 499.20 935.21 500.00 919.00 C 500.80 902.79 489.18 892.95 487.93 877.07 C 486.67 861.19 487.06 840.70 486.00 824.00 C 484.94 807.30 486.87 787.70 485.00 771.00
C 502.40 772.05 499.08 752.00 499.00 740.00
C 504.33 740.00 509.67 740.00 515.00 740.00
C 514.82 752.91 511.15 776.09 531.00 773.00
C 532.31 789.30 529.70 806.10 530.00 822.00 C 530.30 837.90 528.54 855.61 529.00 871.00 C 529.46 886.39 521.51 896.23 517.78 909.78 C 514.05 923.32 515.82 938.54 525.25 948.75 C 534.68 958.96 545.83 961.79 558.98 965.02 C 572.12 968.26 590.28 969.12 604.33 968.33 C 618.38 967.54 635.03 966.06 647.93 961.93 C 660.82 957.79 670.97 953.62 681.77 945.77 C 692.57 937.92 698.73 928.89 702.22 916.22 C 705.71 903.55 703.13 887.94 694.30 877.70 C 685.48 867.46 675.19 862.17 661.67 860.33 C 648.15 858.49 631.89 863.38 619.68 867.68 C 607.46 871.98 597.35 877.11 586.00 883.00
C 585.63 843.49 586.27 804.23 587.00 765.00
C 607.25 767.00 607.95 750.42 602.98 737.02 C 598.00 723.62 594.95 710.36 591.98 697.02 C 589.00 683.69 603.26 673.42 603.02 659.02 C 602.79 644.63 608.15 626.57 603.00 612.00
C 617.43 625.03 627.69 644.01 642.00 658.00
C 635.79 673.61 638.68 692.30 648.75 705.25 C 658.81 718.21 672.44 723.18 688.00 723.00 C 703.56 722.82 718.13 714.88 727.08 702.08 C 736.03 689.29 737.76 668.10 730.98 655.03 C 724.19 641.95 713.86 630.07 698.67 628.33 C 683.48 626.58 675.19 612.79 666.25 600.75 C 657.31 588.70 649.39 579.08 640.30 567.70 C 631.22 556.31 623.12 545.66 615.00 534.00
C 624.12 533.50 645.86 523.58 640.97 512.03 C 636.09 500.48 621.98 497.55 613.25 489.75 C 604.51 481.96 592.86 476.64 583.70 469.30 C 574.54 461.97 562.26 456.61 555.00 448.00
M 615.00 325.00 
C 632.10 312.18 656.00 331.05 651.67 350.67 C 647.34 370.29 626.58 381.42 608.00 375.00
C 580.23 446.65 462.47 469.05 422.00 398.00
C 442.31 401.19 483.80 407.46 482.00 375.00 C 480.19 342.54 437.67 355.22 417.00 355.00
C 421.79 344.33 422.55 336.63 419.07 324.93 C 415.60 313.22 418.06 301.65 416.00 289.00 C 413.94 276.35 429.11 275.99 438.22 272.22 C 447.34 268.45 456.79 265.61 465.68 261.68 C 474.56 257.75 483.43 253.15 492.08 249.08 C 500.72 245.00 509.48 239.88 517.75 235.75 C 526.01 231.62 534.73 226.38 542.69 222.69 C 550.66 219.01 561.08 208.84 569.23 215.77 C 577.38 222.70 575.02 236.36 578.33 245.67 C 581.64 254.99 583.19 265.92 586.98 275.02 C 590.77 284.13 593.87 293.81 598.77 302.23 C 603.68 310.65 607.02 318.90 615.00 325.00 Z"/>
</g>
<g fill="None" fill-opacity="0.0" stroke="#FFFFFF" stroke-opacity="1.00" stroke-width="0.3"><path d="
M 615.00 325.00 
C 607.02 318.90 603.68 310.65 598.77 302.23 C 593.87 293.81 590.77 284.13 586.98 275.02 C 583.19 265.92 581.64 254.99 578.33 245.67 C 575.02 236.36 577.38 222.70 569.23 215.77 C 561.08 208.84 550.66 219.01 542.69 222.69 C 534.73 226.38 526.01 231.62 517.75 235.75 C 509.48 239.88 500.72 245.00 492.08 249.08 C 483.43 253.15 474.56 257.75 465.68 261.68 C 456.79 265.61 447.34 268.45 438.22 272.22 C 429.11 275.99 413.94 276.35 416.00 289.00 C 418.06 301.65 415.60 313.22 419.07 324.93 C 422.55 336.63 421.79 344.33 417.00 355.00
C 437.67 355.22 480.19 342.54 482.00 375.00 C 483.80 407.46 442.31 401.19 422.00 398.00
C 462.47 469.05 580.23 446.65 608.00 375.00
C 626.58 381.42 647.34 370.29 651.67 350.67 C 656.00 331.05 632.10 312.18 615.00 325.00
M 446.00 298.00 
C 455.92 300.33 456.78 317.64 456.67 325.67 C 456.56 333.70 450.37 350.16 439.92 347.07 C 429.47 343.98 428.02 329.16 428.33 320.33 C 428.64 311.50 434.25 295.24 446.00 298.00
M 520.00 298.00 
C 532.35 301.06 531.79 321.34 532.00 331.00 C 532.21 340.66 523.65 359.28 511.33 354.67 C 499.01 350.06 499.10 332.31 499.00 322.00 C 498.90 311.69 507.27 294.85 520.00 298.00 Z"/>
</g>
<g fill="None" fill-opacity="0.0" stroke="#000000" stroke-opacity="1.00" stroke-width="0.3"><path d="
M 446.00 298.00 
C 434.25 295.24 428.64 311.50 428.33 320.33 C 428.02 329.16 429.47 343.98 439.92 347.07 C 450.37 350.16 456.56 333.70 456.67 325.67 C 456.78 317.64 455.92 300.33 446.00 298.00 Z"/>
</g>
<g fill="None" fill-opacity="0.0" stroke="#000000" stroke-opacity="1.00" stroke-width="0.3"><path d="
M 520.00 298.00 
C 507.27 294.85 498.90 311.69 499.00 322.00 C 499.10 332.31 499.01 350.06 511.33 354.67 C 523.65 359.28 532.21 340.66 532.00 331.00 C 531.79 321.34 532.35 301.06 520.00 298.00 Z"/>
</g>
<g fill="#FFFFFF" fill-opacity="1.00" stroke="None">
<path d="
M 0.00 1000.00 
L 1000.00 1000.00
L 1000.00 0.00
L 0.00 0.00
L 0.00 1000.00
M 555.00 448.00 
C 562.26 456.61 574.54 461.97 583.70 469.30 C 592.86 476.64 604.51 481.96 613.25 489.75 C 621.98 497.55 636.09 500.48 640.97 512.03 C 645.86 523.58 624.12 533.50 615.00 534.00
C 623.12 545.66 631.22 556.31 640.30 567.70 C 649.39 579.08 657.31 588.70 666.25 600.75 C 675.19 612.79 683.48 626.58 698.67 628.33 C 713.86 630.07 724.19 641.95 730.98 655.03 C 737.76 668.10 736.03 689.29 727.08 702.08 C 718.13 714.88 703.56 722.82 688.00 723.00 C 672.44 723.18 658.81 718.21 648.75 705.25 C 638.68 692.30 635.79 673.61 642.00 658.00
C 627.69 644.01 617.43 625.03 603.00 612.00
C 608.15 626.57 602.79 644.63 603.02 659.02 C 603.26 673.42 589.00 683.69 591.98 697.02 C 594.95 710.36 598.00 723.62 602.98 737.02 C 607.95 750.42 607.25 767.00 587.00 765.00
C 586.27 804.23 585.63 843.49 586.00 883.00
C 597.35 877.11 607.46 871.98 619.68 867.68 C 631.89 863.38 648.15 858.49 661.67 860.33 C 675.19 862.17 685.48 867.46 694.30 877.70 C 703.13 887.94 705.71 903.55 702.22 916.22 C 698.73 928.89 692.57 937.92 681.77 945.77 C 670.97 953.62 660.82 957.79 647.93 961.93 C 635.03 966.06 618.38 967.54 604.33 968.33 C 590.28 969.12 572.12 968.26 558.98 965.02 C 545.83 961.79 534.68 958.96 525.25 948.75 C 515.82 938.54 514.05 923.32 517.78 909.78 C 521.51 896.23 529.46 886.39 529.00 871.00 C 528.54 855.61 530.30 837.90 530.00 822.00 C 529.70 806.10 532.31 789.30 531.00 773.00
C 511.15 776.09 514.82 752.91 515.00 740.00
C 509.67 740.00 504.33 740.00 499.00 740.00
C 499.08 752.00 502.40 772.05 485.00 771.00
C 486.87 787.70 484.94 807.30 486.00 824.00 C 487.06 840.70 486.67 861.19 487.93 877.07 C 489.18 892.95 500.80 902.79 500.00 919.00 C 499.20 935.21 495.00 947.20 481.30 955.30 C 467.60 963.41 454.76 965.53 439.33 967.33 C 423.90 969.13 403.01 969.20 388.00 967.00 C 372.99 964.80 358.18 960.86 345.32 954.68 C 332.46 948.50 324.00 941.60 316.25 929.75 C 308.49 917.91 308.13 898.33 314.78 885.78 C 321.43 873.22 331.22 866.13 345.02 862.03 C 358.83 857.92 378.28 861.32 391.68 866.32 C 405.07 871.33 417.83 876.51 431.00 882.00
C 431.00 841.66 431.00 801.34 431.00 761.00
C 422.13 759.76 402.01 754.88 406.78 742.78 C 411.55 730.68 415.52 723.68 420.31 712.31 C 425.09 700.93 432.63 693.03 424.70 682.31 C 416.76 671.58 417.40 659.04 417.00 646.00 C 416.60 632.96 420.31 619.42 423.00 607.00
C 415.33 616.52 404.25 624.41 398.08 635.08 C 391.91 645.75 375.06 651.84 376.93 665.07 C 378.80 678.31 377.45 695.46 367.25 706.25 C 357.05 717.03 345.87 723.06 331.00 723.00 C 316.13 722.94 304.04 717.86 293.75 707.25 C 283.47 696.64 280.30 679.59 282.78 665.78 C 285.26 651.97 293.20 641.83 304.70 634.70 C 316.19 627.56 331.89 628.43 339.92 616.92 C 347.95 605.41 356.88 599.33 364.75 588.75 C 372.63 578.18 381.82 570.95 389.75 560.75 C 397.69 550.55 407.87 542.06 414.00 531.00
C 396.06 527.93 393.36 508.65 407.70 501.70 C 422.03 494.74 429.89 486.12 443.23 479.23 C 456.57 472.34 466.09 464.20 479.00 457.00
C 467.07 454.55 453.88 450.14 442.92 444.08 C 431.97 438.01 424.04 431.36 415.25 421.75 C 406.46 412.15 405.78 395.36 391.00 396.00 C 376.22 396.64 358.25 392.68 344.00 393.00 C 329.74 393.32 310.55 388.98 297.93 389.07 C 285.31 389.17 260.86 389.83 264.33 373.33 C 267.80 356.82 290.18 364.66 303.00 362.00 C 315.82 359.34 335.81 360.86 350.00 359.00 C 364.19 357.14 382.41 357.54 397.00 356.00
C 403.32 345.15 405.83 336.36 402.00 324.00 C 398.18 311.64 399.16 297.35 399.00 284.00
C 385.40 287.04 375.98 276.46 370.23 264.77 C 364.47 253.08 363.79 234.65 366.93 221.93 C 370.07 209.21 375.51 197.84 384.25 188.25 C 392.99 178.66 401.05 171.65 413.08 167.08 C 425.10 162.50 441.56 156.99 455.00 159.00 C 468.44 161.01 475.80 148.14 485.75 140.75 C 495.71 133.36 503.57 125.44 513.25 118.25 C 522.92 111.05 530.66 102.33 540.25 95.25 C 549.83 88.17 558.74 79.27 568.25 72.25 C 577.75 65.23 585.98 56.04 595.75 49.75 C 605.51 43.45 613.02 26.91 627.00 31.00 C 640.98 35.09 638.23 55.65 641.00 68.00 C 643.77 80.36 646.46 96.71 648.98 110.02 C 651.49 123.34 653.60 139.04 656.33 152.67 C 659.05 166.30 661.66 182.33 664.00 196.00 C 666.33 209.67 670.00 224.78 671.98 238.02 C 673.95 251.27 683.12 257.71 694.25 265.75 C 705.37 273.80 712.21 285.77 702.70 297.70 C 693.18 309.62 688.75 313.78 675.77 320.77 C 662.80 327.76 673.59 347.86 668.02 359.02 C 662.46 370.19 656.66 381.07 645.25 387.25 C 633.85 393.44 618.42 392.27 612.23 404.23 C 606.04 416.19 596.82 421.01 587.75 429.75 C 578.69 438.49 566.12 443.14 555.00 448.00 Z"/>
</g>
<g fill="#000000" fill-opacity="1.00" stroke="None">
<path d="
M 555.00 448.00 
C 566.12 443.14 578.69 438.49 587.75 429.75 C 596.82 421.01 606.04 416.19 612.23 404.23 C 618.42 392.27 633.85 393.44 645.25 387.25 C 656.66 381.07 662.46 370.19 668.02 359.02 C 673.59 347.86 662.80 327.76 675.77 320.77 C 688.75 313.78 693.18 309.62 702.70 297.70 C 712.21 285.77 705.37 273.80 694.25 265.75 C 683.12 257.71 673.95 251.27 671.98 238.02 C 670.00 224.78 666.33 209.67 664.00 196.00 C 661.66 182.33 659.05 166.30 656.33 152.67 C 653.60 139.04 651.49 123.34 648.98 110.02 C 646.46 96.71 643.77 80.36 641.00 68.00 C 638.23 55.65 640.98 35.09 627.00 31.00 C 613.02 26.91 605.51 43.45 595.75 49.75 C 585.98 56.04 577.75 65.23 568.25 72.25 C 558.74 79.27 549.83 88.17 540.25 95.25 C 530.66 102.33 522.92 111.05 513.25 118.25 C 503.57 125.44 495.71 133.36 485.75 140.75 C 475.80 148.14 468.44 161.01 455.00 159.00 C 441.56 156.99 425.10 162.50 413.08 167.08 C 401.05 171.65 392.99 178.66 384.25 188.25 C 375.51 197.84 370.07 209.21 366.93 221.93 C 363.79 234.65 364.47 253.08 370.23 264.77 C 375.98 276.46 385.40 287.04 399.00 284.00
C 399.16 297.35 398.18 311.64 402.00 324.00 C 405.83 336.36 403.32 345.15 397.00 356.00
C 382.41 357.54 364.19 357.14 350.00 359.00 C 335.81 360.86 315.82 359.34 303.00 362.00 C 290.18 364.66 267.80 356.82 264.33 373.33 C 260.86 389.83 285.31 389.17 297.93 389.07 C 310.55 388.98 329.74 393.32 344.00 393.00 C 358.25 392.68 376.22 396.64 391.00 396.00 C 405.78 395.36 406.46 412.15 415.25 421.75 C 424.04 431.36 431.97 438.01 442.92 444.08 C 453.88 450.14 467.07 454.55 479.00 457.00
C 466.09 464.20 456.57 472.34 443.23 479.23 C 429.89 486.12 422.03 494.74 407.70 501.70 C 393.36 508.65 396.06 527.93 414.00 531.00
C 407.87 542.06 397.69 550.55 389.75 560.75 C 381.82 570.95 372.63 578.18 364.75 588.75 C 356.88 599.33 347.95 605.41 339.92 616.92 C 331.89 628.43 316.19 627.56 304.70 634.70 C 293.20 641.83 285.26 651.97 282.78 665.78 C 280.30 679.59 283.47 696.64 293.75 707.25 C 304.04 717.86 316.13 722.94 331.00 723.00 C 345.87 723.06 357.05 717.03 367.25 706.25 C 377.45 695.46 378.80 678.31 376.93 665.07 C 375.06 651.84 391.91 645.75 398.08 635.08 C 404.25 624.41 415.33 616.52 423.00 607.00
C 420.31 619.42 416.60 632.96 417.00 646.00 C 417.40 659.04 416.76 671.58 424.70 682.31 C 432.63 693.03 425.09 700.93 420.31 712.31 C 415.52 723.68 411.55 730.68 406.78 742.78 C 402.01 754.88 422.13 759.76 431.00 761.00
C 431.00 801.34 431.00 841.66 431.00 882.00
C 417.83 876.51 405.07 871.33 391.68 866.32 C 378.28 861.32 358.83 857.92 345.02 862.03 C 331.22 866.13 321.43 873.22 314.78 885.78 C 308.13 898.33 308.49 917.91 316.25 929.75 C 324.00 941.60 332.46 948.50 345.32 954.68 C 358.18 960.86 372.99 964.80 388.00 967.00 C 403.01 969.20 423.90 969.13 439.33 967.33 C 454.76 965.53 467.60 963.41 481.30 955.30 C 495.00 947.20 499.20 935.21 500.00 919.00 C 500.80 902.79 489.18 892.95 487.93 877.07 C 486.67 861.19 487.06 840.70 486.00 824.00 C 484.94 807.30 486.87 787.70 485.00 771.00
C 502.40 772.05 499.08 752.00 499.00 740.00
C 504.33 740.00 509.67 740.00 515.00 740.00
C 514.82 752.91 511.15 776.09 531.00 773.00
C 532.31 789.30 529.70 806.10 530.00 822.00 C 530.30 837.90 528.54 855.61 529.00 871.00 C 529.46 886.39 521.51 896.23 517.78 909.78 C 514.05 923.32 515.82 938.54 525.25 948.75 C 534.68 958.96 545.83 961.79 558.98 965.02 C 572.12 968.26 590.28 969.12 604.33 968.33 C 618.38 967.54 635.03 966.06 647.93 961.93 C 660.82 957.79 670.97 953.62 681.77 945.77 C 692.57 937.92 698.73 928.89 702.22 916.22 C 705.71 903.55 703.13 887.94 694.30 877.70 C 685.48 867.46 675.19 862.17 661.67 860.33 C 648.15 858.49 631.89 863.38 619.68 867.68 C 607.46 871.98 597.35 877.11 586.00 883.00
C 585.63 843.49 586.27 804.23 587.00 765.00
C 607.25 767.00 607.95 750.42 602.98 737.02 C 598.00 723.62 594.95 710.36 591.98 697.02 C 589.00 683.69 603.26 673.42 603.02 659.02 C 602.79 644.63 608.15 626.57 603.00 612.00
C 617.43 625.03 627.69 644.01 642.00 658.00
C 635.79 673.61 638.68 692.30 648.75 705.25 C 658.81 718.21 672.44 723.18 688.00 723.00 C 703.56 722.82 718.13 714.88 727.08 702.08 C 736.03 689.29 737.76 668.10 730.98 655.03 C 724.19 641.95 713.86 630.07 698.67 628.33 C 683.48 626.58 675.19 612.79 666.25 600.75 C 657.31 588.70 649.39 579.08 640.30 567.70 C 631.22 556.31 623.12 545.66 615.00 534.00
C 624.12 533.50 645.86 523.58 640.97 512.03 C 636.09 500.48 621.98 497.55 613.25 489.75 C 604.51 481.96 592.86 476.64 583.70 469.30 C 574.54 461.97 562.26 456.61 555.00 448.00
M 615.00 325.00 
C 632.10 312.18 656.00 331.05 651.67 350.67 C 647.34 370.29 626.58 381.42 608.00 375.00
C 580.23 446.65 462.47 469.05 422.00 398.00
C 442.31 401.19 483.80 407.46 482.00 375.00 C 480.19 342.54 437.67 355.22 417.00 355.00
C 421.79 344.33 422.55 336.63 419.07 324.93 C 415.60 313.22 418.06 301.65 416.00 289.00 C 413.94 276.35 429.11 275.99 438.22 272.22 C 447.34 268.45 456.79 265.61 465.68 261.68 C 474.56 257.75 483.43 253.15 492.08 249.08 C 500.72 245.00 509.48 239.88 517.75 235.75 C 526.01 231.62 534.73 226.38 542.69 222.69 C 550.66 219.01 561.08 208.84 569.23 215.77 C 577.38 222.70 575.02 236.36 578.33 245.67 C 581.64 254.99 583.19 265.92 586.98 275.02 C 590.77 284.13 593.87 293.81 598.77 302.23 C 603.68 310.65 607.02 318.90 615.00 325.00 Z"/>
</g>
<g fill="#FFFFFF" fill-opacity="1.00" stroke="None">
<path d="
M 615.00 325.00 
C 607.02 318.90 603.68 310.65 598.77 302.23 C 593.87 293.81 590.77 284.13 586.98 275.02 C 583.19 265.92 581.64 254.99 578.33 245.67 C 575.02 236.36 577.38 222.70 569.23 215.77 C 561.08 208.84 550.66 219.01 542.69 222.69 C 534.73 226.38 526.01 231.62 517.75 235.75 C 509.48 239.88 500.72 245.00 492.08 249.08 C 483.43 253.15 474.56 257.75 465.68 261.68 C 456.79 265.61 447.34 268.45 438.22 272.22 C 429.11 275.99 413.94 276.35 416.00 289.00 C 418.06 301.65 415.60 313.22 419.07 324.93 C 422.55 336.63 421.79 344.33 417.00 355.00
C 437.67 355.22 480.19 342.54 482.00 375.00 C 483.80 407.46 442.31 401.19 422.00 398.00
C 462.47 469.05 580.23 446.65 608.00 375.00
C 626.58 381.42 647.34 370.29 651.67 350.67 C 656.00 331.05 632.10 312.18 615.00 325.00
M 446.00 298.00 
C 455.92 300.33 456.78 317.64 456.67 325.67 C 456.56 333.70 450.37 350.16 439.92 347.07 C 429.47 343.98 428.02 329.16 428.33 320.33 C 428.64 311.50 434.25 295.24 446.00 298.00
M 520.00 298.00 
C 532.35 301.06 531.79 321.34 532.00 331.00 C 532.21 340.66 523.65 359.28 511.33 354.67 C 499.01 350.06 499.10 332.31 499.00 322.00 C 498.90 311.69 507.27 294.85 520.00 298.00 Z"/>
</g>
<g fill="#000000" fill-opacity="1.00" stroke="None">
<path d="
M 446.00 298.00 
C 434.25 295.24 428.64 311.50 428.33 320.33 C 428.02 329.16 429.47 343.98 439.92 347.07 C 450.37 350.16 456.56 333.70 456.67 325.67 C 456.78 317.64 455.92 300.33 446.00 298.00 Z"/>
</g>
<g fill="#000000" fill-opacity="1.00" stroke="None">
<path d="
M 520.00 298.00 
C 507.27 294.85 498.90 311.69 499.00 322.00 C 499.10 332.31 499.01 350.06 511.33 354.67 C 523.65 359.28 532.21 340.66 532.00 331.00 C 531.79 321.34 532.35 301.06 520.00 298.00 Z"/>
</g>
</svg>