<svg version="1.1" id="Layer_1" xmlns="http://www.w3.org/2000/svg" xmlns:xlink="http://www.w3.org/1999/xlink" x="0px" y="0px"
	 width="100%" viewBox="0 0 1024 1024" enable-background="new 0 0 1024 1024" xml:space="preserve">
<path fill="none" opacity="1.000000" stroke="#000000" stroke-linecap="round" stroke-linejoin="round" stroke-width="18.000000"
	d="
M291.000000,514.500000 
	C281.588379,523.546753 281.020996,534.484558 283.423035,546.515381 
	C291.271423,585.824890 307.056488,621.293823 332.425903,652.560120 
	C353.822632,678.930359 379.852722,699.330627 410.043060,714.413757 
	C435.346893,727.055603 462.187988,734.517639 490.491058,737.097900 
	C529.803772,740.681946 567.660522,735.288452 603.970703,719.930786 
	C627.359192,710.038513 648.382874,696.335144 667.571899,679.582397 
	C692.326355,657.970703 710.902161,631.856262 724.880188,602.443054 
	C734.718384,581.741150 740.583252,559.662598 743.941833,536.991394 
	C745.281189,527.949951 740.505310,520.997864 735.000000,514.500000 
"/>
<path fill="none" opacity="1.000000" stroke="#000000" stroke-linecap="round" stroke-linejoin="round" stroke-width="18.000000"
	d="
M735.000000,499.500000 
	C744.386108,490.255768 744.846252,479.364227 742.686096,466.967560 
	C735.460571,425.502441 718.360046,389.000427 691.084900,356.927795 
	C667.862671,329.620972 639.965332,308.575134 607.408997,294.206207 
	C578.633911,281.506256 548.280457,274.841187 516.500000,274.843414 
	C495.847412,274.844849 475.470764,276.457672 455.521851,281.585052 
	C423.335297,289.857788 394.107666,304.338013 367.996887,324.996063 
	C337.980225,348.744324 315.159668,378.069550 299.484467,412.993042 
	C290.728027,432.501801 285.321198,452.965363 282.104187,474.015930 
	C281.323395,479.125000 281.612946,484.477417 285.000000,489.000000 
"/>
<path fill="none" opacity="1.000000" stroke="#000000" stroke-linecap="round" stroke-linejoin="round" stroke-width="11.000000"
	d="
M340.000000,508.000000 
	C346.579315,511.661194 353.169525,511.324554 360.029022,508.572357 
	C364.710571,506.694031 369.666687,505.500031 374.500000,504.000031 
"/>
<path fill="none" opacity="1.000000" stroke="#000000" stroke-linecap="round" stroke-linejoin="round" stroke-width="18.000000"
	d="
M549.500000,559.500000 
	C541.018066,560.587280 532.497681,559.718994 524.000183,560.004822 
	C522.324646,560.061157 520.675537,559.929077 518.987183,560.459229 
	C512.486877,562.500427 511.500000,563.731323 511.500000,570.500000 
	C511.500000,605.166687 511.500000,639.833313 511.500000,674.500000 
"/>
<path fill="none" opacity="1.000000" stroke="#000000" stroke-linecap="round" stroke-linejoin="round" stroke-width="11.000000"
	d="
M718.500000,243.500000 
	C712.124329,242.415375 708.086670,244.971481 704.322144,250.376129 
	C697.970703,259.494568 690.366882,267.730408 683.553162,276.541107 
	C679.846924,281.333527 680.664307,285.101562 685.500000,289.000000 
	C690.637268,293.141571 693.542480,293.101135 697.982361,288.483032 
	C704.726929,281.467651 710.519775,273.653442 716.504333,266.003387 
	C717.306030,264.978607 718.006958,263.781921 719.026062,263.035614 
	C725.369690,258.390472 725.947144,252.348312 723.500000,245.500000 
"/>
<path fill="none" opacity="1.000000" stroke="#000000" stroke-linecap="round" stroke-linejoin="round" stroke-width="11.000000"
	d="
M238.500000,350.000000 
	C235.166672,351.298706 232.028061,351.866394 228.446945,350.108032 
	C224.625595,348.231720 219.036697,351.306610 216.500031,356.000000 
	C214.219803,360.218903 215.376953,365.243347 220.041519,367.927856 
	C230.576080,373.990723 241.265121,379.796753 252.030640,385.441559 
	C256.938477,388.014923 260.685028,386.530518 264.000000,381.500000 
	C266.877655,377.133087 266.722504,372.296387 262.940247,369.070038 
	C259.178802,365.861420 255.079987,362.946686 250.000000,362.000000 
"/>
<path fill="none" opacity="1.000000" stroke="#000000" stroke-linecap="round" stroke-linejoin="round" stroke-width="8.000000"
	d="
M569.500000,493.500000 
	C578.772949,494.102753 587.855469,496.014343 597.000000,497.500000 
"/>
<path fill="none" opacity="1.000000" stroke="#000000" stroke-linecap="round" stroke-linejoin="round" stroke-width="6.000000"
	d="
M686.500000,466.000000 
	C685.476746,460.602478 681.109802,457.463013 677.963623,453.529114 
	C674.745239,449.504974 671.026672,446.057068 669.789734,440.547211 
	C669.072571,437.352386 666.182556,434.550446 662.007446,435.531738 
	C655.353943,437.095520 648.218628,436.508789 642.000000,440.000000 
"/>
<path fill="none" opacity="1.000000" stroke="#000000" stroke-linecap="round" stroke-linejoin="round" stroke-width="12.000000"
	d="
M449.000000,521.250000 
	C443.662720,521.797180 438.221985,521.066650 432.968689,522.910828 
	C431.336487,523.483826 429.166626,523.484009 427.527771,522.919434 
	C418.586487,519.839233 410.145416,523.352783 401.491913,524.435364 
	C392.130341,525.606567 382.996857,528.251465 373.501495,528.547791 
	C370.733795,528.634155 368.133972,527.975281 365.508118,527.458740 
	C359.059021,526.190125 352.840637,527.377991 346.479126,528.365417 
	C340.199066,529.340210 334.013245,528.398499 329.500000,523.000000 
"/>
<path fill="none" opacity="1.000000" stroke="#000000" stroke-linecap="round" stroke-linejoin="round" stroke-width="10.000000"
	d="
M550.500000,419.500000 
	C546.880188,418.770874 544.639404,416.054382 542.562805,413.449921 
	C539.162170,409.184723 535.622986,405.208557 530.490906,403.021271 
	C529.899109,402.769073 529.247437,403.269623 528.922424,402.020172 
	C527.487732,396.504639 524.730347,391.350586 524.486755,385.500549 
	C524.426453,384.052094 525.113037,382.984985 526.007080,382.006470 
	C527.677734,380.177948 529.390381,378.387817 531.178650,376.482574 
	C533.769470,376.482361 536.035706,377.905640 537.957947,379.549194 
	C544.236816,384.917938 550.382019,390.446899 556.471924,396.030548 
	C558.436768,397.832001 559.545898,400.025269 559.619263,402.997070 
	C559.714233,406.842102 562.276978,409.726807 565.534119,411.434906 
	C572.295349,414.980621 577.123047,419.628387 579.167297,427.456299 
	C580.973389,434.372253 589.623657,439.848846 596.473633,438.823669 
	C599.834045,438.320740 600.988525,439.559113 601.991333,442.003540 
	C604.977722,449.282959 610.644836,454.956360 613.954468,462.021301 
	C614.961243,464.170410 616.954895,465.153259 618.569885,466.410248 
	C623.847961,470.518463 629.079773,474.312775 632.731567,480.360168 
	C635.378418,484.743286 639.833679,488.289368 644.080139,491.390259 
	C650.047729,495.747925 654.105469,501.731262 659.000000,507.000000 
"/>
<path fill="none" opacity="1.000000" stroke="#000000" stroke-linecap="round" stroke-linejoin="round" stroke-width="11.000000"
	d="
M438.250000,240.000000 
	C438.540192,237.465485 440.035675,235.959747 442.479614,236.580276 
	C445.886871,237.445404 448.865814,236.777451 452.020050,235.551559 
	C457.724182,233.334595 460.601562,229.216995 459.456696,223.508682 
	C457.444916,213.477615 455.586761,203.384872 452.886383,193.531128 
	C449.962036,182.860168 443.453186,182.438339 435.067841,186.153122 
	C431.777222,187.610886 429.121124,188.513763 426.000000,186.500000 
"/>
<path fill="none" opacity="1.000000" stroke="#000000" stroke-linecap="round" stroke-linejoin="round" stroke-width="4.000000"
	d="
M537.500000,445.000000 
	C535.709961,440.826752 531.388306,442.945679 529.605835,443.408051 
	C526.318054,444.260986 522.647400,445.099457 520.263123,449.367645 
	C512.838684,462.658203 500.412811,469.683624 486.001038,473.503967 
	C482.327454,474.477753 478.560730,475.228394 475.039703,476.601746 
	C472.924652,477.426727 471.006165,476.907410 469.000000,477.000000 
"/>
<path fill="none" opacity="1.000000" stroke="#000000" stroke-linecap="round" stroke-linejoin="round" stroke-width="11.000000"
	d="
M499.500000,518.000000 
	C505.618530,524.151306 512.359924,526.855469 521.555847,525.338684 
	C527.875977,524.296204 533.997437,523.344482 540.030273,521.080627 
	C549.028809,517.703735 557.797974,520.180298 566.513489,522.957581 
	C572.944641,525.006958 579.509827,526.632751 585.996155,528.513245 
	C589.683960,529.582275 593.217468,529.701965 597.033997,528.619995 
	C600.540588,527.625916 604.141602,527.238342 608.043457,528.347107 
	C614.422485,530.159790 620.668091,529.394348 625.500000,524.000000 
"/>
<path fill="none" opacity="1.000000" stroke="#000000" stroke-linecap="round" stroke-linejoin="round" stroke-width="25.000000"
	d="
M581.500000,402.999969 
	C585.500000,401.499969 589.432617,399.768585 593.522522,398.577301 
	C596.495422,397.711365 599.209106,398.331787 601.042175,401.475403 
	C605.072876,408.388000 609.358337,415.151642 613.482239,422.010620 
	C614.501343,423.705597 615.249023,425.344604 617.466980,426.097290 
	C619.912964,426.927399 621.089172,429.427795 622.504761,431.496765 
	C629.692810,442.002350 639.544617,449.584412 650.000183,456.499725 
	C653.972168,459.126862 657.767212,461.945190 661.017029,465.484344 
	C667.525208,472.571960 675.931946,477.059540 684.000000,482.000000 
"/>
<path fill="none" opacity="1.000000" stroke="#000000" stroke-linecap="round" stroke-linejoin="round" stroke-width="5.000000"
	d="
M527.000000,372.500000 
	C522.732300,366.864441 519.391602,360.846619 519.521729,353.500397 
	C519.566895,350.949615 517.400146,350.206024 515.956970,349.053864 
	C511.019501,345.111847 504.934052,345.455475 500.550354,350.048065 
	C498.090973,352.624695 495.299438,354.386993 491.647919,355.408905 
	C490.319061,354.695221 489.100830,352.964996 486.902771,353.001221 
	C486.651855,353.139862 486.296234,353.281311 486.004395,353.505737 
	C481.147308,357.241333 476.873047,361.578918 474.054443,367.028168 
	C470.450409,373.995911 465.072205,378.909454 457.982513,381.959381 
	C454.172791,383.598267 451.231934,386.184998 449.036743,389.524139 
	C442.343018,399.706055 432.384247,406.044159 422.500000,412.500000 
"/>
<path fill="none" opacity="1.000000" stroke="#000000" stroke-linecap="round" stroke-linejoin="round" stroke-width="7.000000"
	d="
M482.000000,610.000000 
	C487.786041,613.607361 490.850861,618.349243 489.093140,625.522827 
	C488.640289,627.371033 489.302277,629.503174 489.506653,631.499329 
	C489.895569,635.298157 489.631256,639.070374 486.944244,641.947937 
	C484.083588,645.011414 484.157501,649.461304 481.484863,652.486633 
	C472.761108,662.361389 461.904968,665.954712 449.001190,663.244324 
	C441.161957,661.597717 434.529572,657.616089 428.500000,652.500000 
"/>
<path fill="none" opacity="1.000000" stroke="#000000" stroke-linecap="round" stroke-linejoin="round" stroke-width="5.000000"
	d="
M356.000000,447.500000 
	C353.158173,442.226074 349.832001,441.028351 345.531128,444.044403 
	C343.026825,445.800568 340.491058,447.717041 338.561768,450.051056 
	C331.784546,458.249756 323.349884,464.172791 314.017517,469.033630 
	C310.906586,470.653992 307.834015,472.445923 305.037079,474.549316 
	C300.287354,478.121307 299.509521,483.549927 299.000000,489.000000 
"/>
<path fill="none" opacity="1.000000" stroke="#000000" stroke-linecap="round" stroke-linejoin="round" stroke-width="8.000000"
	d="
M543.000000,589.500000 
	C540.604980,591.629272 539.468018,594.246033 539.476379,597.500061 
	C539.524658,616.333252 539.493652,635.166687 539.521179,653.999939 
	C539.522400,654.833496 539.833313,655.666687 540.000000,656.500000 
"/>
<path fill="none" opacity="1.000000" stroke="#000000" stroke-linecap="round" stroke-linejoin="round" stroke-width="4.000000"
	d="
M459.000000,635.500000 
	C460.337982,631.160828 459.379211,628.969482 455.499969,627.500061 
	C451.851746,626.118164 448.794891,627.694580 446.453552,631.471191 
	C442.632446,637.634766 446.343414,647.563477 458.007294,648.938049 
	C462.156708,649.427124 466.366486,648.888672 469.984009,646.476013 
	C474.277740,643.612549 478.589264,644.153870 483.000000,646.000000 
"/>
<path fill="none" opacity="1.000000" stroke="#000000" stroke-linecap="round" stroke-linejoin="round" stroke-width="17.000000"
	d="
M595.500000,589.500000 
	C596.649719,592.391724 597.060120,595.368591 597.038208,598.500244 
	C596.947205,611.499634 596.984619,624.500000 597.008179,637.500000 
	C597.016602,642.166748 597.927612,646.802979 597.092590,651.516418 
	C596.799255,653.172058 596.638062,654.476135 595.005188,655.260864 
	C590.638000,657.359802 586.655090,660.434509 581.500000,660.500000 
"/>
<path fill="none" opacity="1.000000" stroke="#000000" stroke-linecap="round" stroke-linejoin="round" stroke-width="5.000000"
	d="
M410.000000,444.000000 
	C409.506653,436.756653 412.223999,430.404541 416.646149,425.122345 
	C419.626556,421.562317 419.704681,417.147614 421.865814,413.422150 
	C423.095184,411.302887 420.873505,408.987823 419.378265,407.634491 
	C417.986908,406.375183 415.623230,405.661011 413.500397,407.000610 
	C408.150177,410.376831 402.390594,413.129486 398.444122,418.458618 
	C395.784332,422.050354 392.292755,424.444183 387.518005,425.126129 
	C383.868530,425.647369 380.702271,427.675293 377.947601,430.447937 
	C371.745453,436.690582 366.087677,443.683807 357.496918,446.991974 
	C356.083435,447.536316 355.475067,448.405334 355.458954,449.999573 
	C355.421783,453.667542 355.166656,457.333344 355.000000,461.000000 
"/>
<path fill="none" opacity="1.000000" stroke="#000000" stroke-linecap="round" stroke-linejoin="round" stroke-width="11.000000"
	d="
M683.000000,228.000000 
	C681.397400,221.442245 677.527649,218.386017 671.499451,218.448166 
	C667.731384,218.487030 665.723511,220.686432 664.003784,223.502319 
	C659.325867,231.162125 654.668945,238.834717 649.998596,246.499130 
	C648.674744,248.671570 647.113281,250.730804 646.045959,253.021408 
	C643.839600,257.756256 646.156738,263.774658 651.000000,266.499969 
	C654.953369,268.724548 660.727356,267.671509 663.424377,263.451660 
	C669.826111,253.435257 675.886658,243.198120 681.927734,232.957352 
	C682.627197,231.771667 682.333313,230.000000 682.500000,228.500000 
"/>
<path fill="none" opacity="1.000000" stroke="#000000" stroke-linecap="round" stroke-linejoin="round" stroke-width="15.000000"
	d="
M528.500000,580.500000 
	C535.304260,581.427307 540.807800,585.575134 546.927124,588.171753 
	C548.575012,588.871033 549.441345,591.607605 550.482178,593.509766 
	C556.356323,604.245239 559.721924,616.144775 566.227966,626.668213 
	C568.017090,629.562073 566.500000,634.500000 566.500000,638.500000 
	C566.500000,640.500000 566.500000,642.500000 566.500000,644.500000 
"/>
<path fill="none" opacity="1.000000" stroke="#000000" stroke-linecap="round" stroke-linejoin="round" stroke-width="7.000000"
	d="
M479.750000,608.000000 
	C478.614288,605.272400 477.988861,602.664429 478.341583,599.482422 
	C479.057892,593.019653 475.663239,588.255615 470.521851,584.470337 
	C459.518738,576.369507 448.325806,577.784546 437.013855,583.527344 
	C434.088409,585.012512 431.333344,586.833374 428.500000,588.500000 
"/>
<path fill="none" opacity="1.000000" stroke="#000000" stroke-linecap="round" stroke-linejoin="round" stroke-width="11.000000"
	d="
M349.500000,221.500000 
	C356.500000,233.000000 363.541168,244.475220 370.483643,256.009857 
	C374.278625,262.315002 372.736664,267.860291 366.500000,271.000000 
	C362.216858,273.156250 358.348083,272.251129 355.022644,267.982361 
	C349.570862,260.984009 345.703156,252.977463 341.019379,245.487885 
	C338.246704,241.054169 335.666656,236.500000 333.000000,232.000000 
"/>
<path fill="none" opacity="1.000000" stroke="#000000" stroke-linecap="round" stroke-linejoin="round" stroke-width="10.000000"
	d="
M378.000000,440.000000 
	C374.619995,447.746155 369.223663,453.928070 363.023224,459.525726 
	C361.113373,461.249969 359.068756,462.129730 356.499268,462.016510 
	C352.168243,461.825653 349.137299,464.974915 345.539673,466.588440 
	C333.456055,472.007904 322.296844,479.137299 310.966980,485.945038 
	C309.203186,487.004791 307.040741,487.706848 304.992401,487.930267 
	C298.724121,488.613831 294.108521,492.251892 289.500000,496.000000 
"/>
<path fill="none" opacity="1.000000" stroke="#000000" stroke-linecap="round" stroke-linejoin="round" stroke-width="8.000000"
	d="
M771.500000,730.500000 
	C770.194214,725.994629 771.739807,722.951843 775.374634,719.852966 
	C779.521851,716.316956 779.170105,711.764832 774.944214,708.063721 
	C769.506897,703.301758 763.624146,699.052307 758.011780,694.485535 
	C752.251587,689.798523 747.409973,692.349915 744.546631,698.023560 
	C743.756409,699.589355 743.411072,701.349976 741.500000,702.000000 
"/>
<path fill="none" opacity="1.000000" stroke="#000000" stroke-linecap="round" stroke-linejoin="round" stroke-width="8.000000"
	d="
M309.500000,724.500000 
	C309.108551,727.818909 310.645630,729.791260 313.452576,731.574646 
	C320.796112,736.240417 320.355774,739.863647 315.502075,745.501770 
	C311.492126,750.159851 307.668701,754.992126 303.460327,759.462646 
	C297.212067,766.100098 293.025848,765.612732 287.506226,757.995483 
	C287.290497,757.697754 287.166656,757.333313 287.000000,757.000000 
"/>
<path fill="none" opacity="1.000000" stroke="#000000" stroke-linecap="round" stroke-linejoin="round" stroke-width="11.000000"
	d="
M431.000000,188.500000 
	C434.663361,204.263855 438.323395,220.028412 441.000000,236.000000 
"/>
<path fill="none" opacity="1.000000" stroke="#000000" stroke-linecap="round" stroke-linejoin="round" stroke-width="7.000000"
	d="
M612.000000,581.000000 
	C607.936768,581.912537 604.055664,583.164612 600.457886,585.433228 
	C597.700500,587.171997 595.124817,589.146790 591.525574,589.674316 
	C587.744690,590.228577 585.467957,593.639832 584.061523,597.025574 
	C581.189331,603.940186 578.728149,611.024292 575.976868,617.990906 
	C574.326477,622.169739 571.880798,625.658081 567.000000,626.500000 
"/>
<path fill="none" opacity="1.000000" stroke="#000000" stroke-linecap="round" stroke-linejoin="round" stroke-width="11.000000"
	d="
M825.000000,396.500000 
	C817.166687,399.333344 809.272644,402.011475 801.517212,405.044067 
	C793.937927,408.007904 786.500000,411.333344 779.000000,414.500031 
"/>
<path fill="none" opacity="1.000000" stroke="#000000" stroke-linecap="round" stroke-linejoin="round" stroke-width="11.000000"
	d="
M204.000000,393.500031 
	C218.833328,399.166687 233.666656,404.833344 248.500000,410.500031 
"/>
<path fill="none" opacity="1.000000" stroke="#000000" stroke-linecap="round" stroke-linejoin="round" stroke-width="3.000000"
	d="
M497.500000,368.500000 
	C493.622742,376.960480 489.834808,385.300629 483.741699,392.699066 
	C479.371643,398.005219 476.828888,404.904694 472.500000,410.500000 
"/>
<path fill="none" opacity="1.000000" stroke="#000000" stroke-linecap="round" stroke-linejoin="round" stroke-width="9.000000"
	d="
M606.000000,196.500000 
	C602.935425,198.292984 602.107178,201.598206 601.075012,204.526443 
	C597.220825,215.460327 593.666687,226.500000 590.000000,237.500000 
"/>
<path fill="none" opacity="1.000000" stroke="#000000" stroke-linecap="round" stroke-linejoin="round" stroke-width="11.000000"
	d="
M237.750000,457.000000 
	C236.435150,453.912018 236.792374,451.401031 238.862808,448.405182 
	C242.299194,443.432861 241.932541,437.271362 239.000000,434.000000 
	C235.760635,430.386353 225.642395,427.664459 221.518112,429.539825 
	C217.709625,431.271545 213.591827,432.750061 214.356125,438.519073 
	C214.605042,440.397766 213.166672,442.500000 212.500015,444.500000 
"/>
<path fill="none" opacity="1.000000" stroke="#000000" stroke-linecap="round" stroke-linejoin="round" stroke-width="11.000000"
	d="
M647.500000,200.000000 
	C643.386780,200.547073 639.834045,203.101898 635.500122,203.106155 
	C633.536926,203.108093 632.714172,205.451035 633.095520,206.976120 
	C634.768860,213.667633 632.007751,219.514450 629.974976,225.491486 
	C627.412170,233.026825 624.666687,240.500000 622.000000,248.000000 
"/>
<path fill="none" opacity="1.000000" stroke="#000000" stroke-linecap="round" stroke-linejoin="round" stroke-width="6.000000"
	d="
M510.500000,348.000000 
	C508.098053,353.906708 510.472260,359.679596 511.031708,365.496948 
	C511.145935,366.684662 511.886230,367.818817 511.964569,369.002350 
	C512.499207,377.080811 516.446838,382.238739 524.500000,384.000000 
"/>
<path fill="none" opacity="1.000000" stroke="#000000" stroke-linecap="round" stroke-linejoin="round" stroke-width="11.000000"
	d="
M540.500000,204.750000 
	C540.256104,203.836807 540.976990,203.385666 541.514954,203.022110 
	C548.147095,198.539902 547.509766,191.700317 547.557678,185.000412 
	C547.571838,183.028778 546.434570,181.431641 545.403015,180.623825 
	C541.684875,177.712021 537.193054,175.824905 532.551453,177.632080 
	C528.871765,179.064728 526.813721,178.306885 525.250000,175.000000 
"/>
<path fill="none" opacity="1.000000" stroke="#000000" stroke-linecap="round" stroke-linejoin="round" stroke-width="8.000000"
	d="
M473.000000,811.500000 
	C471.833344,818.666687 470.948456,825.893860 469.425293,832.983948 
	C467.706329,840.985229 463.881226,842.788025 456.001617,839.995483 
	C455.156342,839.695801 454.333344,839.333313 453.500000,839.000000 
"/>
<path fill="none" opacity="1.000000" stroke="#000000" stroke-linecap="round" stroke-linejoin="round" stroke-width="11.000000"
	d="
M786.500000,338.500000 
	C787.666687,337.333344 788.778931,336.105530 790.009827,335.011047 
	C794.354919,331.147278 794.469238,330.604614 791.500000,326.500000 
	C788.321899,322.106628 787.227051,321.828461 782.514221,325.021027 
	C770.305176,333.291718 758.166687,341.666687 746.000000,350.000031 
"/>
<path fill="none" opacity="1.000000" stroke="#000000" stroke-linecap="round" stroke-linejoin="round" stroke-width="5.000000"
	d="
M359.500000,476.500000 
	C354.768799,479.227020 350.204224,482.337250 345.414612,484.836334 
	C335.938751,489.780548 332.646332,497.488708 333.000000,507.500000 
"/>
<path fill="none" opacity="1.000000" stroke="#000000" stroke-linecap="round" stroke-linejoin="round" stroke-width="11.000000"
	d="
M215.500000,432.000000 
	C211.368774,426.903870 206.879745,423.046753 199.493164,423.244415 
	C196.384766,423.327576 194.218948,423.720764 192.531952,426.023407 
	C190.164032,429.255432 188.615204,432.894989 189.037582,436.996124 
	C189.445114,440.952972 187.584122,443.036285 184.000000,444.000000 
"/>
<path fill="none" opacity="1.000000" stroke="#000000" stroke-linecap="round" stroke-linejoin="round" stroke-width="9.000000"
	d="
M824.000000,432.500000 
	C819.746948,430.245544 815.551147,430.537781 810.969910,431.898651 
	C802.762207,434.336853 794.154358,435.254303 786.000000,438.000000 
"/>
<path fill="none" opacity="1.000000" stroke="#000000" stroke-linecap="round" stroke-linejoin="round" stroke-width="8.000000"
	d="
M360.000000,774.000000 
	C362.736877,771.166687 362.296295,768.553345 360.103333,765.427490 
	C358.470581,763.100098 356.623505,761.786194 354.007263,762.067627 
	C350.840088,762.408264 347.543518,766.570557 347.017975,770.502380 
	C346.490509,774.448792 347.504517,778.065308 349.477509,781.512878 
	C352.224243,786.312500 351.345215,790.877747 347.976929,794.981079 
	C344.174561,799.613159 339.506317,799.139038 335.968292,794.021912 
	C335.282104,793.029480 334.215454,792.300781 334.000000,791.000000 
"/>
<path fill="none" opacity="1.000000" stroke="#000000" stroke-linecap="round" stroke-linejoin="round" stroke-width="9.000000"
	d="
M511.500000,564.500000 
	C507.388306,561.273438 502.864075,559.712158 497.496887,559.919861 
	C489.508850,560.229004 481.500000,560.000000 473.500000,560.000000 
"/>
<path fill="none" opacity="1.000000" stroke="#000000" stroke-linecap="round" stroke-linejoin="round" stroke-width="8.000000"
	d="
M805.000000,600.500000 
	C805.018677,597.481323 803.131042,596.416748 800.502380,595.985413 
	C797.202698,595.444031 795.942688,598.285889 794.658020,600.111206 
	C793.328125,602.000793 793.434753,604.844543 795.024841,606.981506 
	C798.063904,611.065796 805.350891,612.046753 809.978455,608.967590 
	C811.940979,607.661743 813.593506,605.897766 815.516174,604.522583 
	C818.866272,602.126465 825.586853,602.185059 829.000061,604.499939 
	C833.888306,607.815247 834.285339,611.453613 830.566284,616.053589 
	C829.728943,617.089355 827.125244,617.128113 828.250000,619.500000 
"/>
<path fill="none" opacity="1.000000" stroke="#000000" stroke-linecap="round" stroke-linejoin="round" stroke-width="11.000000"
	d="
M259.000000,309.000000 
	C258.166656,308.166656 257.307861,307.357117 256.504150,306.496124 
	C251.652939,301.299011 253.123077,296.519135 259.955322,293.884155 
	C262.048431,293.076904 263.004944,294.237518 263.950531,295.057068 
	C275.193970,304.801819 286.379700,314.615051 297.447968,324.557922 
	C299.034485,325.983124 299.485260,328.151031 296.491577,328.969238 
	C295.208557,329.319916 293.833344,329.333344 292.500000,329.500000 
"/>
<path fill="none" opacity="1.000000" stroke="#000000" stroke-linecap="round" stroke-linejoin="round" stroke-width="9.000000"
	d="
M373.500000,204.750000 
	C378.176666,205.899796 382.190887,207.408478 384.740021,212.376862 
	C386.274933,215.368484 387.246674,218.048767 386.383179,220.965424 
	C385.565277,223.728119 386.267639,226.240143 387.115204,228.455933 
	C390.154602,236.401703 393.666687,244.166656 397.000031,251.999985 
"/>
<path fill="none" opacity="1.000000" stroke="#000000" stroke-linecap="round" stroke-linejoin="round" stroke-width="9.000000"
	d="
M528.499939,808.500000 
	C528.999939,817.833313 529.491821,827.167114 530.005615,836.499695 
	C530.134216,838.835083 530.333313,841.166687 530.500000,843.500000 
"/>
<path fill="none" opacity="1.000000" stroke="#000000" stroke-linecap="round" stroke-linejoin="round" stroke-width="8.000000"
	d="
M223.250000,568.500000 
	C224.600113,577.898132 224.582062,577.793579 214.505859,579.533936 
	C206.809708,580.863159 199.168884,582.511536 191.498337,583.991394 
	C189.728256,584.332825 188.047516,584.694336 188.000000,587.000000 
"/>
<path fill="none" opacity="1.000000" stroke="#000000" stroke-linecap="round" stroke-linejoin="round" stroke-width="8.000000"
	d="
M474.500000,810.750000 
	C471.978973,811.875183 472.323914,809.258789 472.108643,808.470337 
	C470.780396,803.606323 466.714264,803.388855 462.993042,803.085510 
	C458.914795,802.753174 458.975647,806.346558 458.536072,809.005981 
	C457.106232,817.656677 455.854126,826.336609 454.486023,834.997803 
	C454.123444,837.293152 454.081940,839.998718 450.500000,839.500000 
"/>
<path fill="none" opacity="1.000000" stroke="#000000" stroke-linecap="round" stroke-linejoin="round" stroke-width="8.000000"
	d="
M438.500000,798.750000 
	C439.652557,799.206177 441.074554,798.907959 442.264282,800.311646 
	C439.547821,811.549377 436.773895,823.024719 433.999969,834.500000 
"/>
<path fill="none" opacity="1.000000" stroke="#000000" stroke-linecap="round" stroke-linejoin="round" stroke-width="8.000000"
	d="
M595.500000,797.500000 
	C599.375977,808.465515 602.188599,819.732605 605.000000,831.000000 
"/>
<path fill="none" opacity="1.000000" stroke="#000000" stroke-linecap="round" stroke-linejoin="round" stroke-width="8.000000"
	d="
M802.500000,563.500000 
	C804.581726,565.583557 804.272217,568.102417 803.454529,570.484375 
	C802.247498,574.000671 803.676636,575.388977 806.993774,576.032166 
	C816.844482,577.942444 826.721497,579.776672 836.459167,582.166443 
	C838.724854,582.722412 838.910522,580.346985 840.500000,580.750000 
"/>
<path fill="none" opacity="1.000000" stroke="#000000" stroke-linecap="round" stroke-linejoin="round" stroke-width="9.000000"
	d="
M399.000031,197.999985 
	C401.500031,203.999985 403.838135,210.074402 406.551147,215.976501 
	C408.734131,220.725616 409.265015,225.484085 408.000000,230.500000 
"/>
<path fill="none" opacity="1.000000" stroke="#000000" stroke-linecap="round" stroke-linejoin="round" stroke-width="6.000000"
	d="
M466.500000,437.000000 
	C461.747833,436.972107 457.068420,437.148285 453.475800,440.977295 
	C453.158508,441.315430 452.511658,441.412994 451.998260,441.488098 
	C444.565643,442.575409 440.344727,447.792511 436.500000,453.500000 
"/>
<path fill="none" opacity="1.000000" stroke="#000000" stroke-linecap="round" stroke-linejoin="round" stroke-width="9.000000"
	d="
M839.500000,446.499969 
	C832.833313,448.333313 826.034668,449.798584 819.545349,452.126404 
	C815.045410,453.740570 811.093140,453.504150 807.000000,451.500000 
"/>
<path fill="none" opacity="1.000000" stroke="#000000" stroke-linecap="round" stroke-linejoin="round" stroke-width="3.000000"
	d="
M418.000000,484.000000 
	C419.911621,482.619385 420.229858,480.659332 419.871857,477.873779 
	C410.535492,478.737152 401.984375,482.768463 393.000000,485.000000 
"/>
<path fill="none" opacity="1.000000" stroke="#000000" stroke-linecap="round" stroke-linejoin="round" stroke-width="3.000000"
	d="
M470.000000,465.500000 
	C465.127960,462.651672 460.941772,466.432465 456.534393,467.197998 
	C450.562775,468.235199 444.675232,470.297028 439.081116,472.689606 
	C436.968262,473.593262 436.274506,472.144928 435.027435,471.873779 
	C431.440033,471.093842 427.549408,471.018463 424.500000,468.500000 
"/>
<path fill="none" opacity="1.000000" stroke="#000000" stroke-linecap="round" stroke-linejoin="round" stroke-width="6.000000"
	d="
M520.000000,352.500000 
	C523.372620,352.188416 527.770020,352.059998 529.236755,354.649109 
	C531.903076,359.355682 534.024902,364.732086 533.450684,370.495087 
	C533.264954,372.359711 532.499939,374.166656 531.999939,376.000000 
"/>
<path fill="none" opacity="1.000000" stroke="#000000" stroke-linecap="round" stroke-linejoin="round" stroke-width="8.000000"
	d="
M380.500000,778.500000 
	C376.500000,786.666687 372.376099,794.775818 368.549622,803.023010 
	C366.478668,807.486633 364.062622,811.119934 358.500000,811.000000 
"/>
<path fill="none" opacity="1.000000" stroke="#000000" stroke-linecap="round" stroke-linejoin="round" stroke-width="5.000000"
	d="
M575.500000,475.000000 
	C572.043640,474.948334 568.817505,474.218597 565.418579,473.301941 
	C559.579590,471.727264 554.686279,474.925781 551.235657,479.990234 
	C548.049683,484.666321 544.332275,488.759766 542.021240,494.300323 
	C540.492676,497.965027 537.203125,502.536438 532.500000,504.500000 
"/>
<path fill="none" opacity="1.000000" stroke="#000000" stroke-linecap="round" stroke-linejoin="round" stroke-width="9.000000"
	d="
M807.000000,362.500000 
	C803.330566,360.281952 799.366577,360.050934 795.523193,361.559143 
	C789.676086,363.853638 783.039978,364.165649 777.979858,368.476349 
	C777.463501,368.916199 776.784851,368.760284 775.979126,368.639893 
	C772.854980,368.173126 769.607239,369.016022 767.070435,370.611969 
	C762.325439,373.597168 758.000000,372.835510 753.500000,370.500000 
"/>
<path fill="none" opacity="1.000000" stroke="#000000" stroke-linecap="round" stroke-linejoin="round" stroke-width="9.000000"
	d="
M748.500000,267.500000 
	C748.759033,270.661804 748.286438,273.815735 748.905945,277.018188 
	C749.507019,280.124939 743.438416,287.274689 739.996216,287.981598 
	C736.572937,288.684601 733.565674,290.141418 731.002197,292.502380 
	C724.495483,298.495117 717.999817,304.499786 711.530823,310.470917 
	C709.352234,308.867767 706.850830,309.710724 704.500000,309.500000 
"/>
<path fill="none" opacity="1.000000" stroke="#000000" stroke-linecap="round" stroke-linejoin="round" stroke-width="17.000000"
	d="
M412.500000,581.500000 
	C417.601868,582.484558 422.072906,584.875916 426.555420,587.401611 
	C428.437622,588.462158 428.890747,590.033752 428.915131,591.501404 
	C429.078461,601.332031 429.000000,611.166687 429.000000,621.000000 
"/>
<path fill="none" opacity="1.000000" stroke="#000000" stroke-linecap="round" stroke-linejoin="round" stroke-width="10.000000"
	d="
M605.000000,190.000000 
	C611.173096,195.473236 613.175537,201.770035 610.771179,210.078476 
	C609.755310,213.589081 609.141479,217.914230 610.890076,222.046524 
	C612.814941,226.595490 609.082153,230.351456 608.040344,234.510117 
	C606.871460,239.176132 603.685547,243.338058 604.500000,248.500000 
"/>
<path fill="none" opacity="1.000000" stroke="#000000" stroke-linecap="round" stroke-linejoin="round" stroke-width="11.000000"
	d="
M504.000000,216.000000 
	C502.507660,217.806839 502.392578,219.657059 502.889282,222.023239 
	C503.727142,226.014908 501.655640,228.427643 497.503418,229.513046 
	C491.606354,231.054550 485.825195,229.239792 480.009460,228.856461 
	C478.906433,228.783752 477.652435,228.766190 476.500000,228.500000 
"/>
<path fill="none" opacity="1.000000" stroke="#000000" stroke-linecap="round" stroke-linejoin="round" stroke-width="3.000000"
	d="
M477.000000,602.000000 
	C472.674713,603.359497 468.836945,606.038757 464.001495,606.106812 
	C461.223114,606.145935 459.286957,608.508057 457.525543,610.522339 
	C455.408264,612.943542 451.155823,613.026794 450.500000,617.000000 
"/>
<path fill="none" opacity="1.000000" stroke="#000000" stroke-linecap="round" stroke-linejoin="round" stroke-width="8.000000"
	d="
M472.500031,383.500031 
	C471.833344,384.000031 470.847748,384.357300 470.550079,385.022430 
	C467.981964,390.760925 464.270782,395.403259 459.041046,399.058716 
	C450.390778,405.105103 445.776947,414.220886 441.495758,423.498047 
	C441.027496,424.512695 440.760132,426.017700 439.959747,426.419891 
	C432.062775,430.387848 431.697266,439.186798 427.500000,445.500000 
"/>
<path fill="none" opacity="1.000000" stroke="#000000" stroke-linecap="round" stroke-linejoin="round" stroke-width="8.000000"
	d="
M409.000000,808.500000 
	C411.788361,809.589966 413.951416,811.930481 417.157745,812.198975 
	C421.325256,810.039612 423.831818,806.148010 424.930420,801.483643 
	C425.814026,797.732056 424.815491,794.442932 421.008118,792.484192 
	C416.686829,790.261047 413.622162,791.204346 412.063202,796.020447 
	C409.236786,804.752197 406.574768,813.539490 402.959808,821.982788 
	C401.367432,825.702026 404.530792,827.706604 405.500000,830.500000 
"/>
<path fill="none" opacity="1.000000" stroke="#000000" stroke-linecap="round" stroke-linejoin="round" stroke-width="22.000000"
	d="
M498.000000,418.750000 
	C490.218567,415.471283 484.609436,420.766876 479.706879,424.754333 
	C473.904755,429.473419 468.074066,434.720825 465.369263,442.454285 
	C463.705170,447.212036 458.455780,448.569397 454.474304,450.957153 
	C451.606262,452.677216 448.500000,454.000000 445.500000,455.500000 
"/>
<path fill="none" opacity="1.000000" stroke="#000000" stroke-linecap="round" stroke-linejoin="round" stroke-width="4.000000"
	d="
M529.000000,403.500000 
	C526.205566,406.680359 522.784485,408.456207 518.509888,409.068787 
	C512.463745,409.935242 507.132965,412.801514 502.000000,416.000000 
"/>
<path fill="none" opacity="1.000000" stroke="#000000" stroke-linecap="round" stroke-linejoin="round" stroke-width="3.000000"
	d="
M452.500000,497.499969 
	C445.333313,500.499969 438.120026,503.394348 431.014038,506.531738 
	C424.782013,509.283203 420.654205,513.743835 420.500000,521.000000 
"/>
<path fill="none" opacity="1.000000" stroke="#000000" stroke-linecap="round" stroke-linejoin="round" stroke-width="7.000000"
	d="
M549.500000,815.000000 
	C548.308228,817.185120 547.341675,819.147827 547.859009,822.025330 
	C548.982788,828.276489 549.439026,834.658325 549.939392,841.004761 
	C550.102051,843.067078 551.484863,842.426392 552.500000,842.750000 
"/>
<path fill="none" opacity="1.000000" stroke="#000000" stroke-linecap="round" stroke-linejoin="round" stroke-width="8.000000"
	d="
M310.499969,730.500000 
	C303.999969,737.666626 297.133759,744.544861 291.161682,752.127380 
	C288.370575,755.671143 285.537201,756.837830 281.500000,756.500000 
"/>
<path fill="none" opacity="1.000000" stroke="#000000" stroke-linecap="round" stroke-linejoin="round" stroke-width="8.000000"
	d="
M744.000000,701.500000 
	C753.000000,708.500000 762.000000,715.500000 771.000000,722.500000 
"/>
<path fill="none" opacity="1.000000" stroke="#000000" stroke-linecap="round" stroke-linejoin="round" stroke-width="8.000000"
	d="
M281.499969,699.500000 
	C273.666656,706.000000 266.029053,712.760132 257.904663,718.873352 
	C254.603668,721.357239 254.279892,724.095642 254.500000,727.500000 
"/>
<path fill="none" opacity="1.000000" stroke="#000000" stroke-linecap="round" stroke-linejoin="round" stroke-width="6.000000"
	d="
M278.500000,689.000000 
	C270.013580,686.801331 264.077576,693.101379 257.047363,695.631653 
	C253.226669,697.006714 249.666794,698.700623 245.500000,698.000000 
"/>
<path fill="none" opacity="1.000000" stroke="#000000" stroke-linecap="round" stroke-linejoin="round" stroke-width="8.000000"
	d="
M293.000000,712.500000 
	C284.333313,720.666687 275.666656,728.833313 267.000000,737.000000 
"/>
<path fill="none" opacity="1.000000" stroke="#000000" stroke-linecap="round" stroke-linejoin="round" stroke-width="3.000000"
	d="
M475.500000,637.500000 
	C476.728027,635.264404 478.319550,633.239380 478.529663,630.502258 
	C479.123016,622.773499 474.872803,618.113525 466.499939,617.500000 
	C465.432343,620.655640 465.989960,623.609070 467.484161,626.508179 
	C468.838593,629.136169 469.150604,631.712524 467.548065,634.527344 
	C464.919800,639.143860 463.326294,639.569885 458.972626,636.539307 
	C457.695007,635.649902 456.251923,634.744263 454.500000,635.000000 
"/>
<path fill="none" opacity="1.000000" stroke="#000000" stroke-linecap="round" stroke-linejoin="round" stroke-width="8.000000"
	d="
M714.000000,732.500000 
	C721.671265,740.829163 729.342590,749.158325 737.114380,757.596619 
	C736.255920,760.130554 736.531006,762.824829 736.500000,765.500000 
"/>
<path fill="none" opacity="1.000000" stroke="#000000" stroke-linecap="round" stroke-linejoin="round" stroke-width="10.000000"
	d="
M816.000000,362.750000 
	C813.387512,361.921875 810.534180,363.662964 808.122803,360.311279 
	C806.166626,366.383331 803.131042,369.544769 799.051941,372.083466 
	C794.346680,375.011932 789.766846,378.188324 785.172729,381.258453 
	C781.465698,383.735840 778.350647,387.388123 774.541138,390.058685 
	C773.090576,391.075531 771.579163,391.809143 770.000000,392.500000 
"/>
<path fill="none" opacity="1.000000" stroke="#000000" stroke-linecap="round" stroke-linejoin="round" stroke-width="4.000000"
	d="
M462.500000,410.500000 
	C460.666656,413.000000 458.393799,415.290985 457.086121,418.040955 
	C453.764587,425.025848 448.266510,427.305603 441.000000,426.500000 
"/>
<path fill="none" opacity="1.000000" stroke="#000000" stroke-linecap="round" stroke-linejoin="round" stroke-width="12.000000"
	d="
M528.500000,203.000000 
	C530.500000,203.166672 532.501831,203.314209 534.499695,203.503448 
	C541.662415,204.181961 546.866882,211.410812 544.943970,218.484756 
	C543.308777,224.500244 545.256348,229.230148 549.250000,233.500000 
"/>
<path fill="none" opacity="1.000000" stroke="#000000" stroke-linecap="round" stroke-linejoin="round" stroke-width="6.000000"
	d="
M560.000000,399.500000 
	C567.063843,397.156067 573.308472,401.365753 580.000000,402.000000 
	C582.439453,407.398926 587.588074,408.926971 592.425110,411.162048 
	C594.142151,411.955475 594.278198,414.745789 594.658203,416.972992 
	C595.179688,420.029572 595.811462,423.201721 597.473450,426.015656 
	C599.710205,429.802887 597.956421,434.017517 598.500000,438.000000 
"/>
<path fill="none" opacity="1.000000" stroke="#000000" stroke-linecap="round" stroke-linejoin="round" stroke-width="8.000000"
	d="
M765.000000,662.500000 
	C764.881104,668.342712 768.184570,671.507996 773.516052,672.404541 
	C777.038147,672.996887 780.222900,674.478455 783.409302,675.730774 
	C784.953430,676.337463 787.151917,677.042114 787.934937,676.794373 
	C793.458069,675.046509 796.586731,679.917175 800.967896,681.117126 
	C801.455261,681.250610 801.500000,683.000000 801.750000,684.000000 
"/>
<path fill="none" opacity="1.000000" stroke="#000000" stroke-linecap="round" stroke-linejoin="round" stroke-width="10.000000"
	d="
M574.500000,448.500000 
	C566.245728,450.123932 557.902954,450.862579 549.500000,451.000000 
"/>
<path fill="none" opacity="1.000000" stroke="#000000" stroke-linecap="round" stroke-linejoin="round" stroke-width="11.000000"
	d="
M513.750000,431.000000 
	C515.748535,427.438660 518.974121,429.165833 520.346924,430.642334 
	C523.835388,434.394318 527.463257,433.868774 531.550415,432.420258 
	C530.946899,430.333344 533.345581,427.872772 531.437988,426.065430 
	C528.162354,422.961761 524.111023,421.171631 519.499512,421.014221 
	C517.449219,420.944244 515.357544,420.811829 513.500000,422.000000 
"/>
<path fill="none" opacity="1.000000" stroke="#000000" stroke-linecap="round" stroke-linejoin="round" stroke-width="9.000000"
	d="
M763.000000,291.999969 
	C758.000000,296.666656 752.820190,301.159088 748.066772,306.064667 
	C745.172974,309.051147 741.896545,310.074677 738.000000,310.000000 
"/>
<path fill="none" opacity="1.000000" stroke="#000000" stroke-linecap="round" stroke-linejoin="round" stroke-width="8.000000"
	d="
M432.500000,432.000000 
	C429.365601,430.794037 425.673157,430.984711 424.165222,433.595428 
	C419.322052,441.980255 410.689331,444.455414 403.008179,448.515472 
	C399.110168,450.575775 395.594299,453.038177 393.969330,457.488800 
	C392.862122,460.521332 390.433228,462.210846 387.527771,463.559845 
	C383.747467,465.315063 380.166656,467.500000 376.500000,469.500000 
"/>
<path fill="none" opacity="1.000000" stroke="#000000" stroke-linecap="round" stroke-linejoin="round" stroke-width="8.000000"
	d="
M727.500000,720.500000 
	C735.666626,728.333374 743.833313,736.166687 752.000000,744.000000 
"/>
<path fill="none" opacity="1.000000" stroke="#000000" stroke-linecap="round" stroke-linejoin="round" stroke-width="11.000000"
	d="
M475.500000,176.750000 
	C482.930695,178.584320 481.318512,184.938995 481.954681,190.005692 
	C483.558594,202.780258 483.398346,215.663284 484.000000,228.500000 
"/>
<path fill="none" opacity="1.000000" stroke="#000000" stroke-linecap="round" stroke-linejoin="round" stroke-width="8.000000"
	d="
M632.500000,206.500000 
	C626.958252,207.208237 623.710876,210.750076 621.511475,215.505325 
	C619.530334,219.788895 616.781677,223.204758 612.000000,224.500000 
"/>
<path fill="none" opacity="1.000000" stroke="#000000" stroke-linecap="round" stroke-linejoin="round" stroke-width="8.000000"
	d="
M491.500000,356.000000 
	C489.411499,364.875214 484.997040,372.706146 480.500000,380.500000 
"/>
<path fill="none" opacity="1.000000" stroke="#000000" stroke-linecap="round" stroke-linejoin="round" stroke-width="12.000000"
	d="
M404.500000,425.500000 
	C402.038605,430.158051 397.765350,433.070923 394.036621,436.539368 
	C390.316498,439.999817 385.606262,442.802399 387.231018,449.564636 
	C387.732483,451.651764 384.490082,454.089264 382.493286,455.992950 
	C380.188843,458.189972 377.833344,460.333344 375.500000,462.500000 
"/>
<path fill="none" opacity="1.000000" stroke="#000000" stroke-linecap="round" stroke-linejoin="round" stroke-width="8.000000"
	d="
M257.500000,665.500000 
	C250.674011,670.070984 244.705795,675.818298 239.296326,681.769348 
	C236.330551,685.032043 233.696533,688.493225 230.000000,691.000000 
"/>
<path fill="none" opacity="1.000000" stroke="#000000" stroke-linecap="round" stroke-linejoin="round" stroke-width="12.000000"
	d="
M529.000000,179.000000 
	C528.751404,186.670349 528.371277,194.471909 527.497620,201.941238 
	C526.545471,210.081284 526.468872,218.447937 524.500000,226.500000 
"/>
<path fill="none" opacity="1.000000" stroke="#000000" stroke-linecap="round" stroke-linejoin="round" stroke-width="3.000000"
	d="
M616.000000,477.500000 
	C610.532898,480.121552 609.602234,485.324554 608.459045,490.490936 
	C607.857544,493.208923 606.833374,495.833344 606.000000,498.500000 
"/>
<path fill="none" opacity="1.000000" stroke="#000000" stroke-linecap="round" stroke-linejoin="round" stroke-width="6.000000"
	d="
M695.500000,742.000000 
	C700.488037,741.242188 703.744080,743.072754 705.580261,747.969910 
	C706.826599,751.294189 708.736328,754.389526 710.528442,757.483521 
	C712.186218,760.345581 713.129700,763.228394 712.000000,766.500000 
"/>
<path fill="none" opacity="1.000000" stroke="#000000" stroke-linecap="round" stroke-linejoin="round" stroke-width="4.000000"
	d="
M549.000000,449.500000 
	C547.099121,456.041351 541.255920,458.226074 535.931091,460.325134 
	C531.477478,462.080811 526.444519,462.238342 521.942505,464.379089 
	C520.327148,465.147217 518.052979,464.528076 516.500000,463.000000 
"/>
<path fill="none" opacity="1.000000" stroke="#000000" stroke-linecap="round" stroke-linejoin="round" stroke-width="5.000000"
	d="
M543.000000,495.500000 
	C549.842957,501.714050 550.604492,510.043365 551.000000,518.500000 
"/>
<path fill="none" opacity="1.000000" stroke="#000000" stroke-linecap="round" stroke-linejoin="round" stroke-width="11.000000"
	d="
M190.000000,439.500000 
	C196.862839,441.742767 203.826630,443.388306 210.930908,444.838501 
	C218.156281,446.313354 225.313156,448.900116 232.500259,450.999084 
	C233.664948,451.339203 234.833328,451.666687 236.000000,452.000031 
"/>
<path fill="none" opacity="1.000000" stroke="#000000" stroke-linecap="round" stroke-linejoin="round" stroke-width="10.000000"
	d="
M836.500000,422.000000 
	C835.877747,427.419281 832.324646,430.038910 827.507874,431.525604 
	C826.453979,431.850891 824.814514,432.305084 824.608154,433.030762 
	C822.905457,439.019226 817.155701,440.354309 812.996460,443.495331 
	C811.852722,444.359039 810.141602,444.908630 809.584839,446.041687 
	C805.862793,453.616058 798.033630,454.501038 791.501770,457.503784 
	C790.655701,457.892761 789.833313,458.333313 789.000000,458.750000 
"/>
<path fill="none" opacity="1.000000" stroke="#000000" stroke-linecap="round" stroke-linejoin="round" stroke-width="6.000000"
	d="
M778.500000,640.500000 
	C779.092773,643.416565 780.193909,645.762939 782.936707,647.594788 
	C787.665222,650.752625 792.035278,654.456055 796.482117,658.022278 
	C798.190369,659.392395 799.616455,661.057678 799.500000,663.500000 
"/>
<path fill="none" opacity="1.000000" stroke="#000000" stroke-linecap="round" stroke-linejoin="round" stroke-width="4.000000"
	d="
M379.500000,482.500000 
	C381.808563,484.599030 384.856567,483.896576 387.523041,484.370453 
	C391.304993,485.042603 392.976562,486.673340 392.516632,490.501984 
	C392.257690,492.657562 392.625275,495.011078 391.873505,496.950989 
	C391.091705,498.968262 392.885040,499.314880 393.250000,500.500000 
"/>
<path fill="none" opacity="1.000000" stroke="#000000" stroke-linecap="round" stroke-linejoin="round" stroke-width="2.000000"
	d="
M535.500000,423.000000 
	C536.534729,421.104126 538.577515,420.995514 539.961914,421.588898 
	C548.219055,425.127869 556.965088,423.796600 565.500000,424.500000 
"/>
<path fill="none" opacity="1.000000" stroke="#000000" stroke-linecap="round" stroke-linejoin="round" stroke-width="12.000000"
	d="
M503.000000,378.500000 
	C500.095551,384.942902 502.139038,391.863770 501.119934,398.518372 
	C500.518372,402.446625 499.446930,405.874329 497.043518,409.033112 
	C495.270813,411.362976 493.254120,413.715363 493.500000,417.000000 
"/>
<path fill="none" opacity="1.000000" stroke="#000000" stroke-linecap="round" stroke-linejoin="round" stroke-width="10.000000"
	d="
M742.000000,288.500000 
	C743.227966,291.939514 742.330322,295.197998 740.423645,297.947052 
	C738.262817,301.062378 736.863831,304.196198 737.519714,307.996613 
	C737.812134,309.690887 736.859680,310.810913 735.994873,311.996277 
	C733.676514,315.173859 731.818848,318.919312 728.879456,321.354462 
	C725.048157,324.528564 724.657227,328.223816 725.000000,332.500000 
"/>
<path fill="none" opacity="1.000000" stroke="#000000" stroke-linecap="round" stroke-linejoin="round" stroke-width="7.000000"
	d="
M561.500000,805.000000 
	C562.166687,810.000000 562.918457,814.990723 563.463989,820.003906 
	C563.734802,822.492859 562.687927,824.662048 561.000000,826.500000 
"/>
<path fill="none" opacity="1.000000" stroke="#000000" stroke-linecap="round" stroke-linejoin="round" stroke-width="10.000000"
	d="
M422.500000,247.500000 
	C417.066315,246.266998 414.749023,241.993439 412.453857,237.523697 
	C410.381256,233.487381 407.888367,229.795074 403.016205,228.441696 
	C399.983521,227.599304 398.367157,224.662445 396.624878,222.403687 
	C394.171844,219.223480 391.148773,217.526840 387.500000,216.500000 
"/>
<path fill="none" opacity="1.000000" stroke="#000000" stroke-linecap="round" stroke-linejoin="round" stroke-width="8.000000"
	d="
M675.500000,758.500000 
	C678.308899,758.390442 680.375366,758.897522 682.679199,761.330322 
	C686.625854,765.498047 691.389465,768.932739 694.979614,773.515991 
	C696.681030,775.688049 699.087952,776.031677 701.500000,776.500000 
"/>
<path fill="none" opacity="1.000000" stroke="#000000" stroke-linecap="round" stroke-linejoin="round" stroke-width="11.000000"
	d="
M292.000000,254.500000 
	C291.673920,257.528992 292.899597,260.759979 290.549866,263.542114 
	C289.826691,264.398376 290.910187,265.389313 291.528381,265.969788 
	C296.778381,270.899323 299.668640,278.105621 306.500000,281.500000 
	C309.107910,289.654785 316.601166,294.176361 321.053284,300.965057 
	C321.127228,301.077820 321.666656,301.000000 321.500000,301.500000 
"/>
<path fill="none" opacity="1.000000" stroke="#000000" stroke-linecap="round" stroke-linejoin="round" stroke-width="6.000000"
	d="
M417.500000,474.500000 
	C411.573486,474.351257 405.713745,474.890228 400.025024,476.584076 
	C399.338348,476.788574 398.683533,476.983612 397.999939,476.986542 
	C393.074219,477.007660 388.108368,476.702423 383.500000,479.000000 
"/>
<path fill="none" opacity="1.000000" stroke="#000000" stroke-linecap="round" stroke-linejoin="round" stroke-width="11.000000"
	d="
M306.500000,252.000000 
	C310.892700,257.957123 317.208252,262.525513 319.500000,270.000000 
	C325.673523,272.826477 328.363892,279.132721 332.973267,283.528046 
	C335.661377,286.091339 337.148834,289.046082 335.601532,293.039337 
	C334.983856,294.633362 335.500000,296.666656 335.500000,298.500000 
"/>
<path fill="none" opacity="1.000000" stroke="#000000" stroke-linecap="round" stroke-linejoin="round" stroke-width="3.000000"
	d="
M447.500000,619.000000 
	C444.996857,625.586182 439.315643,629.417480 434.502747,634.002869 
	C433.649750,634.815552 432.833344,635.666687 432.000000,636.500000 
"/>
<path fill="none" opacity="1.000000" stroke="#000000" stroke-linecap="round" stroke-linejoin="round" stroke-width="8.000000"
	d="
M500.500000,837.500000 
	C498.968170,845.834717 498.626984,845.851379 490.505035,843.978149 
	C488.305145,843.470825 486.166656,842.103333 484.000000,844.000000 
"/>
<path fill="none" opacity="1.000000" stroke="#000000" stroke-linecap="round" stroke-linejoin="round" stroke-width="5.000000"
	d="
M595.500000,439.500000 
	C594.517456,441.913452 594.254822,444.451202 594.522400,446.997650 
	C595.309570,454.489594 593.661316,456.752625 586.001221,458.505432 
	C581.981812,459.425171 578.147644,460.974792 574.028015,461.666901 
	C572.282410,461.960205 569.752441,462.527283 569.000000,465.000000 
"/>
<path fill="none" opacity="1.000000" stroke="#000000" stroke-linecap="round" stroke-linejoin="round" stroke-width="4.000000"
	d="
M549.500000,495.500000 
	C552.823059,497.095703 556.280884,497.794067 560.003235,497.549164 
	C562.518433,497.383698 565.149475,497.045624 567.500000,498.500000 
"/>
<path fill="none" opacity="1.000000" stroke="#000000" stroke-linecap="round" stroke-linejoin="round" stroke-width="8.000000"
	d="
M493.000000,682.000000 
	C498.479156,681.047302 503.667358,678.977600 508.391907,676.308655 
	C511.151947,674.749329 512.836792,675.138672 514.999268,676.501160 
	C519.607910,679.404602 524.524231,681.464172 530.000000,682.000000 
"/>
<path fill="none" opacity="1.000000" stroke="#000000" stroke-linecap="round" stroke-linejoin="round" stroke-width="4.000000"
	d="
M529.500000,507.500000 
	C527.709229,508.042572 527.327698,510.014740 525.990234,510.986542 
	C521.178528,514.482666 520.802673,519.250183 522.000000,524.500000 
"/>
<path fill="none" opacity="1.000000" stroke="#000000" stroke-linecap="round" stroke-linejoin="round" stroke-width="8.000000"
	d="
M417.000000,813.000000 
	C418.755737,816.083008 419.384857,819.015076 417.610565,822.555420 
	C415.955353,825.858154 414.980560,829.635864 418.000000,833.000000 
"/>
<path fill="none" opacity="1.000000" stroke="#000000" stroke-linecap="round" stroke-linejoin="round" stroke-width="9.000000"
	d="
M489.000000,807.500000 
	C488.761810,813.333313 489.081543,819.473511 488.369019,824.917419 
	C487.589630,830.871948 487.582916,836.823914 487.000000,842.750000 
"/>
<path fill="none" opacity="1.000000" stroke="#000000" stroke-linecap="round" stroke-linejoin="round" stroke-width="3.000000"
	d="
M500.500000,438.000000 
	C494.881897,434.857635 493.873413,435.138306 490.474670,439.982208 
	C487.259186,444.564911 483.833313,448.999969 480.499969,453.499969 
"/>
<path fill="none" opacity="1.000000" stroke="#000000" stroke-linecap="round" stroke-linejoin="round" stroke-width="5.000000"
	d="
M520.000000,445.000000 
	C516.487976,438.359344 510.442963,440.821442 505.548035,441.752563 
	C501.807373,442.464081 499.518890,445.769714 499.835541,450.510986 
	C500.045197,453.650604 498.049774,456.648987 496.500000,459.500000 
"/>
<path fill="none" opacity="1.000000" stroke="#000000" stroke-linecap="round" stroke-linejoin="round" stroke-width="6.000000"
	d="
M466.000000,618.000000 
	C462.833344,619.351196 459.652435,618.102234 456.502716,617.945496 
	C447.626526,617.504089 438.801208,617.815369 430.000000,619.000000 
"/>
<path fill="none" opacity="1.000000" stroke="#000000" stroke-linecap="round" stroke-linejoin="round" stroke-width="8.000000"
	d="
M482.500000,807.000000 
	C487.000000,806.833374 491.502350,806.487488 495.999390,806.546753 
	C501.268829,806.616272 502.345154,808.141663 501.500000,813.500000 
"/>
<path fill="none" opacity="1.000000" stroke="#000000" stroke-linecap="round" stroke-linejoin="round" stroke-width="12.000000"
	d="
M547.250000,804.500000 
	C547.661377,808.944458 548.158875,813.166199 552.422180,816.112610 
	C554.564331,817.593079 554.916565,821.454468 556.660400,822.790649 
	C562.522522,827.282593 563.292419,833.762939 565.022522,839.993713 
	C565.482239,841.649292 566.713684,842.534180 568.500000,842.500000 
"/>
<path fill="none" opacity="1.000000" stroke="#000000" stroke-linecap="round" stroke-linejoin="round" stroke-width="8.000000"
	d="
M228.500000,600.500000 
	C223.465485,602.413696 218.482971,604.528931 213.435898,606.319336 
	C208.551376,608.052124 203.345963,608.887329 198.443741,610.860229 
	C196.418121,611.675415 195.220718,612.498413 194.750000,614.500000 
"/>
<path fill="none" opacity="1.000000" stroke="#000000" stroke-linecap="round" stroke-linejoin="round" stroke-width="8.000000"
	d="
M613.500000,788.750000 
	C616.735779,789.377197 618.261780,791.283386 619.658325,794.429749 
	C623.804138,803.770386 626.804443,813.511169 630.500000,823.000000 
"/>
<path fill="none" opacity="1.000000" stroke="#000000" stroke-linecap="round" stroke-linejoin="round" stroke-width="11.000000"
	d="
M500.500000,186.500000 
	C499.329193,177.511505 494.054535,174.600525 485.010254,178.027069 
	C483.769165,178.497269 482.666687,179.333344 481.500000,180.000015 
"/>
<path fill="none" opacity="1.000000" stroke="#000000" stroke-linecap="round" stroke-linejoin="round" stroke-width="8.000000"
	d="
M240.000000,632.000000 
	C234.927948,633.838867 230.269867,636.617798 225.393921,638.758362 
	C219.883163,641.177551 214.183105,643.376587 208.498566,645.496155 
	C205.979492,646.435425 204.895157,642.981201 202.500000,643.500000 
"/>
<path fill="none" opacity="1.000000" stroke="#000000" stroke-linecap="round" stroke-linejoin="round" stroke-width="8.000000"
	d="
M514.000000,381.000000 
	C511.686218,381.934265 510.212921,384.174133 509.682220,386.051514 
	C508.518921,390.166473 505.718536,392.395660 502.500000,394.500000 
"/>
<path fill="none" opacity="1.000000" stroke="#000000" stroke-linecap="round" stroke-linejoin="round" stroke-width="5.000000"
	d="
M539.500000,483.500000 
	C539.777039,487.159637 538.943787,489.152740 534.470459,488.129181 
	C531.776367,487.512665 529.148132,486.740692 526.500000,486.000000 
"/>
<path fill="none" opacity="1.000000" stroke="#000000" stroke-linecap="round" stroke-linejoin="round" stroke-width="8.000000"
	d="
M233.000000,615.000000 
	C223.174789,618.857666 212.618240,620.520081 202.997269,624.994141 
	C202.184677,625.372131 201.333313,625.666626 200.499985,625.999939 
"/>
<path fill="none" opacity="1.000000" stroke="#000000" stroke-linecap="round" stroke-linejoin="round" stroke-width="8.000000"
	d="
M624.500000,782.500000 
	C631.917603,782.745483 633.886780,788.618408 635.342712,794.042236 
	C637.055847,800.423828 640.027771,806.262451 642.161560,812.444214 
	C643.343811,815.869263 643.942993,818.786560 642.250000,822.000000 
"/>
<path fill="none" opacity="1.000000" stroke="#000000" stroke-linecap="round" stroke-linejoin="round" stroke-width="10.000000"
	d="
M808.000000,669.000000 
	C800.783875,663.250427 792.089355,663.073364 783.500000,662.500000 
"/>
<path fill="none" opacity="1.000000" stroke="#000000" stroke-linecap="round" stroke-linejoin="round" stroke-width="8.000000"
	d="
M648.000000,777.000000 
	C653.356018,787.321594 658.054504,797.982605 664.000000,808.000000 
"/>
<path fill="none" opacity="1.000000" stroke="#000000" stroke-linecap="round" stroke-linejoin="round" stroke-width="3.000000"
	d="
M426.500000,471.000000 
	C427.112732,476.677704 427.873108,482.276306 434.000000,485.000000 
"/>
<path fill="none" opacity="1.000000" stroke="#000000" stroke-linecap="round" stroke-linejoin="round" stroke-width="3.000000"
	d="
M561.500000,432.999969 
	C558.833374,431.333313 556.345581,429.176697 553.455566,428.121674 
	C549.682617,426.744263 545.663330,425.373688 541.500000,427.000000 
"/>
<path fill="none" opacity="1.000000" stroke="#000000" stroke-linecap="round" stroke-linejoin="round" stroke-width="3.000000"
	d="
M499.000000,448.000000 
	C496.230988,447.696289 494.968811,449.927063 493.550720,451.544464 
	C490.737762,454.752655 488.202026,458.202026 484.500000,460.500000 
"/>
<path fill="none" opacity="1.000000" stroke="#000000" stroke-linecap="round" stroke-linejoin="round" stroke-width="6.000000"
	d="
M253.000000,684.500000 
	C250.590607,683.601868 248.109619,683.579102 246.036682,685.051636 
	C243.271332,687.015930 240.504639,687.122742 237.500000,686.000000 
"/>
<path fill="none" opacity="1.000000" stroke="#000000" stroke-linecap="round" stroke-linejoin="round" stroke-width="8.000000"
	d="
M323.000000,763.000000 
	C317.870239,766.517090 315.111633,771.897217 312.000000,777.000000 
"/>
<path fill="none" opacity="1.000000" stroke="#000000" stroke-linecap="round" stroke-linejoin="round" stroke-width="14.000000"
	d="
M367.500000,484.000000 
	C363.310791,485.535126 360.215546,488.803986 357.142487,491.653656 
	C352.113983,496.316711 345.413452,498.655884 341.000000,504.000000 
"/>
<path fill="none" opacity="1.000000" stroke="#000000" stroke-linecap="round" stroke-linejoin="round" stroke-width="4.000000"
	d="
M461.500000,500.500000 
	C459.649017,505.894196 462.291260,510.853546 463.000000,516.000000 
"/>
<path fill="none" opacity="1.000000" stroke="#000000" stroke-linecap="round" stroke-linejoin="round" stroke-width="8.000000"
	d="
M786.500000,631.500000 
	C797.000000,635.833313 807.500000,640.166687 818.000000,644.500000 
"/>
<path fill="none" opacity="1.000000" stroke="#000000" stroke-linecap="round" stroke-linejoin="round" stroke-width="10.000000"
	d="
M699.500000,761.000000 
	C700.284790,769.225952 701.298218,777.377380 707.000000,784.000000 
"/>
<path fill="none" opacity="1.000000" stroke="#000000" stroke-linecap="round" stroke-linejoin="round" stroke-width="8.000000"
	d="
M332.499969,749.000000 
	C330.166656,751.833313 327.582489,754.503723 325.595886,757.562317 
	C324.440491,759.341187 321.756287,761.407410 324.511383,763.987854 
	C327.045807,766.361511 329.575714,768.994141 333.500000,766.500000 
"/>
<path fill="none" opacity="1.000000" stroke="#000000" stroke-linecap="round" stroke-linejoin="round" stroke-width="3.000000"
	d="
M468.500000,460.500000 
	C467.290253,458.860474 465.640991,461.002563 463.877380,459.661224 
	C460.608673,457.174988 456.941772,457.889587 454.000000,461.000000 
"/>
<path fill="none" opacity="1.000000" stroke="#000000" stroke-linecap="round" stroke-linejoin="round" stroke-width="7.000000"
	d="
M597.500000,654.000000 
	C602.092773,657.106384 606.784546,659.984436 612.500000,660.500000 
"/>
<path fill="none" opacity="1.000000" stroke="#000000" stroke-linecap="round" stroke-linejoin="round" stroke-width="10.000000"
	d="
M267.500031,675.750061 
	C266.000031,676.666687 264.534546,677.646423 262.994232,678.489441 
	C255.161606,682.776001 249.674713,689.295105 245.544815,697.023926 
	C244.282852,699.385620 241.960876,699.889771 239.972992,700.949341 
	C238.019318,701.990540 237.064224,703.294922 237.500000,705.500000 
"/>
<path fill="none" opacity="1.000000" stroke="#000000" stroke-linecap="round" stroke-linejoin="round" stroke-width="4.000000"
	d="
M550.500000,492.500000 
	C554.333313,492.666656 558.165710,492.866913 562.000610,492.979095 
	C563.116089,493.011688 563.835388,493.330627 564.000000,494.500000 
"/>
<path fill="none" opacity="1.000000" stroke="#000000" stroke-linecap="round" stroke-linejoin="round" stroke-width="4.000000"
	d="
M587.500000,452.500000 
	C582.911255,453.924347 578.184021,453.409546 573.500000,453.500000 
"/>
<path fill="none" opacity="1.000000" stroke="#000000" stroke-linecap="round" stroke-linejoin="round" stroke-width="8.000000"
	d="
M769.500000,656.500000 
	C771.226196,655.261963 772.166931,656.631226 773.544800,657.421997 
	C777.536072,659.712585 782.403442,660.633911 784.131042,665.957458 
	C784.600525,667.404419 786.559875,668.494751 788.024170,669.463440 
	C790.426147,671.052551 792.095215,672.954224 792.000000,676.000000 
"/>
<path fill="none" opacity="1.000000" stroke="#000000" stroke-linecap="round" stroke-linejoin="round" stroke-width="2.000000"
	d="
M535.500000,467.500031 
	C530.833313,467.833344 526.166687,468.166687 521.500000,468.500031 
"/>
<path fill="none" opacity="1.000000" stroke="#000000" stroke-linecap="round" stroke-linejoin="round" stroke-width="3.000000"
	d="
M434.500000,488.000000 
	C430.452759,490.410492 426.244843,492.403290 421.500000,493.000000 
"/>
<path fill="none" opacity="1.000000" stroke="#000000" stroke-linecap="round" stroke-linejoin="round" stroke-width="10.000000"
	d="
M417.250000,484.500000 
	C416.554291,485.227753 416.785309,486.699463 414.994537,486.586914 
	C413.521301,486.494324 411.570038,486.691254 410.579041,487.587433 
	C407.359772,490.498688 403.431976,490.896240 399.500000,491.500000 
"/>
<path fill="none" opacity="1.000000" stroke="#000000" stroke-linecap="round" stroke-linejoin="round" stroke-width="3.000000"
	d="
M565.500000,489.000000 
	C561.144775,489.402893 556.899719,486.940186 552.500000,488.500000 
"/>
<path fill="none" opacity="1.000000" stroke="#000000" stroke-linecap="round" stroke-linejoin="round" stroke-width="3.000000"
	d="
M522.500000,471.000000 
	C518.166687,471.166656 513.833313,471.333344 509.500000,471.500000 
"/>
<path fill="none" opacity="1.000000" stroke="#000000" stroke-linecap="round" stroke-linejoin="round" stroke-width="6.000000"
	d="
M552.500000,551.500000 
	C552.000000,552.666626 551.480591,553.825439 551.003784,555.001526 
	C549.795654,557.981689 550.073853,560.496704 552.414185,563.077820 
	C554.335022,565.196228 555.572327,567.960510 556.967773,570.517578 
	C557.610901,571.696228 558.526489,571.517029 559.500000,571.500000 
"/>
<path fill="none" opacity="1.000000" stroke="#000000" stroke-linecap="round" stroke-linejoin="round" stroke-width="4.000000"
	d="
M438.000000,473.500000 
	C439.101837,477.629272 438.214935,481.838074 438.500000,486.000000 
"/>
<path fill="none" opacity="1.000000" stroke="#000000" stroke-linecap="round" stroke-linejoin="round" stroke-width="3.000000"
	d="
M590.500000,482.500000 
	C593.208130,481.874817 594.080933,479.414307 595.480103,477.524719 
	C595.150085,476.337921 594.944641,475.118591 594.477539,474.009460 
	C593.096924,470.731720 589.745239,470.512299 587.500061,473.500031 
	C583.746826,478.494629 577.289917,480.431671 572.500000,478.000000 
"/>
<path fill="none" opacity="1.000000" stroke="#000000" stroke-linecap="round" stroke-linejoin="round" stroke-width="6.000000"
	d="
M552.000000,660.750000 
	C549.166687,660.000000 546.171204,659.603333 543.546265,658.399170 
	C540.999634,657.230896 538.986755,657.181213 536.458557,658.415100 
	C533.708130,659.757446 530.636047,660.445618 527.500000,660.500000 
"/>
<path fill="none" opacity="1.000000" stroke="#000000" stroke-linecap="round" stroke-linejoin="round" stroke-width="3.000000"
	d="
M473.500000,485.000000 
	C467.661041,487.595642 462.030151,486.653839 456.500000,484.000000 
"/>
<path fill="none" opacity="1.000000" stroke="#000000" stroke-linecap="round" stroke-linejoin="round" stroke-width="2.000000"
	d="
M493.500000,431.500000 
	C497.772797,431.023895 501.492676,433.201782 505.499969,434.000153 
	C507.000183,434.299042 508.500000,434.975159 510.000000,434.000000 
"/>
<path fill="none" opacity="1.000000" stroke="#000000" stroke-linecap="round" stroke-linejoin="round" stroke-width="3.000000"
	d="
M355.000000,448.500000 
	C349.491852,448.759125 347.119568,453.526031 343.500000,456.500000 
"/>
<path fill="none" opacity="1.000000" stroke="#000000" stroke-linecap="round" stroke-linejoin="round" stroke-width="3.000000"
	d="
M491.500000,597.000000 
	C487.500000,597.333313 483.500000,597.666687 479.500000,598.000000 
"/>
<path fill="none" opacity="1.000000" stroke="#000000" stroke-linecap="round" stroke-linejoin="round" stroke-width="8.000000"
	d="
M532.000000,433.000000 
	C535.281006,436.876099 539.753174,435.611389 543.912720,436.438782 
	C549.893127,437.628510 553.142090,434.878510 557.000000,432.000000 
"/>
<path fill="none" opacity="1.000000" stroke="#000000" stroke-linecap="round" stroke-linejoin="round" stroke-width="3.000000"
	d="
M365.500000,494.500000 
	C361.637024,496.096313 357.813416,498.007233 353.500000,496.000000 
"/>
<path fill="none" opacity="1.000000" stroke="#000000" stroke-linecap="round" stroke-linejoin="round" stroke-width="10.000000"
	d="
M690.500000,746.500000 
	C693.542114,752.437134 696.340149,758.185486 702.888245,761.707764 
	C708.962952,764.975220 715.223938,768.740173 718.500000,775.500000 
"/>
<path fill="none" opacity="1.000000" stroke="#000000" stroke-linecap="round" stroke-linejoin="round" stroke-width="3.000000"
	d="
M571.500000,426.000000 
	C568.422424,426.537384 566.606445,429.159851 564.074463,430.628357 
	C560.645874,432.616882 562.478149,435.974152 562.908447,439.012970 
	C563.422058,442.640289 566.041809,442.568481 568.501831,442.989410 
	C575.496643,444.186249 582.500000,445.333344 589.500000,446.500000 
"/>
<path fill="none" opacity="1.000000" stroke="#000000" stroke-linecap="round" stroke-linejoin="round" stroke-width="5.000000"
	d="
M442.500000,508.500000 
	C442.505615,512.528259 440.921204,516.424011 441.500000,520.500000 
"/>
<path fill="none" opacity="1.000000" stroke="#000000" stroke-linecap="round" stroke-linejoin="round" stroke-width="10.000000"
	d="
M471.500000,551.500000 
	C474.035797,557.210083 473.190002,562.312073 469.045746,567.040100 
	C467.515198,568.786194 465.870605,570.841919 467.500000,573.500000 
"/>
<path fill="none" opacity="1.000000" stroke="#000000" stroke-linecap="round" stroke-linejoin="round" stroke-width="4.000000"
	d="
M381.500000,484.000000 
	C381.404053,488.734436 382.620636,492.921967 386.500000,496.000000 
"/>
<path fill="none" opacity="1.000000" stroke="#000000" stroke-linecap="round" stroke-linejoin="round" stroke-width="3.000000"
	d="
M577.500000,456.500000 
	C573.833313,457.544769 570.166687,454.989380 566.500000,456.500000 
"/>
<path fill="none" opacity="1.000000" stroke="#000000" stroke-linecap="round" stroke-linejoin="round" stroke-width="3.000000"
	d="
M462.500000,386.500000 
	C460.221191,389.838135 459.349030,393.496002 460.000000,397.500000 
"/>
<path fill="none" opacity="1.000000" stroke="#000000" stroke-linecap="round" stroke-linejoin="round" stroke-width="3.000000"
	d="
M567.500000,458.500000 
	C563.833313,458.833344 560.166687,459.166656 556.500000,459.500000 
"/>
<path fill="none" opacity="1.000000" stroke="#000000" stroke-linecap="round" stroke-linejoin="round" stroke-width="3.000000"
	d="
M545.500000,465.000000 
	C541.833313,463.584564 538.166687,465.802063 534.500000,465.000000 
"/>
<path fill="none" opacity="1.000000" stroke="#000000" stroke-linecap="round" stroke-linejoin="round" stroke-width="8.000000"
	d="
M658.000000,771.000000 
	C655.651062,770.995911 653.688049,772.087219 652.028198,773.532410 
	C648.593628,776.522766 644.966492,778.079224 640.500000,776.000000 
"/>
<path fill="none" opacity="1.000000" stroke="#000000" stroke-linecap="round" stroke-linejoin="round" stroke-width="10.000000"
	d="
M280.500000,288.500000 
	C275.493073,289.532593 273.174469,284.382019 268.922302,283.452209 
	C265.024261,285.501617 262.468872,288.624542 261.500000,293.000000 
"/>
<path fill="none" opacity="1.000000" stroke="#000000" stroke-linecap="round" stroke-linejoin="round" stroke-width="3.000000"
	d="
M419.500000,417.000000 
	C415.430511,417.494904 412.298798,419.694794 409.500000,422.500000 
"/>
<path fill="none" opacity="1.000000" stroke="#000000" stroke-linecap="round" stroke-linejoin="round" stroke-width="3.000000"
	d="
M375.500000,512.500000 
	C381.054718,510.861053 386.486786,513.314514 391.999023,512.983765 
	C392.839355,512.933350 393.666656,512.666626 394.500000,512.500000 
"/>
<path fill="none" opacity="1.000000" stroke="#000000" stroke-linecap="round" stroke-linejoin="round" stroke-width="8.000000"
	d="
M789.500000,620.500000 
	C788.003357,622.437439 786.562866,624.329102 786.459595,626.998413 
	C786.310303,630.858887 784.187622,633.350098 780.500000,634.500000 
"/>
<path fill="none" opacity="1.000000" stroke="#000000" stroke-linecap="round" stroke-linejoin="round" stroke-width="8.000000"
	d="
M241.500000,625.500000 
	C239.704956,628.882507 239.927994,631.690002 242.891525,634.610107 
	C244.593399,636.287048 245.206711,639.068726 246.237839,641.203613 
	C244.743820,644.678772 239.677994,644.320068 239.500000,648.500000 
"/>
<path fill="none" opacity="1.000000" stroke="#000000" stroke-linecap="round" stroke-linejoin="round" stroke-width="5.000000"
	d="
M386.000000,445.500000 
	C382.277740,444.444183 379.133820,447.436768 375.500000,447.000000 
"/>
<path fill="none" opacity="1.000000" stroke="#000000" stroke-linecap="round" stroke-linejoin="round" stroke-width="8.000000"
	d="
M680.500000,805.000000 
	C675.518494,801.759094 672.152832,806.657104 667.979492,807.381836 
	C663.081543,808.232422 661.338135,811.087524 661.000000,815.500000 
"/>
<path fill="none" opacity="1.000000" stroke="#000000" stroke-linecap="round" stroke-linejoin="round" stroke-width="8.000000"
	d="
M815.500000,630.500000 
	C818.627563,629.450684 821.292480,631.060425 822.850037,633.113770 
	C824.618042,635.444702 822.721558,638.173401 821.477478,640.487915 
	C820.037659,643.166443 817.049072,645.347778 819.000000,649.000000 
"/>
<path fill="none" opacity="1.000000" stroke="#000000" stroke-linecap="round" stroke-linejoin="round" stroke-width="6.000000"
	d="
M601.500000,518.500000 
	C595.904175,516.962646 590.062744,519.600342 584.500000,517.500000 
"/>
<path fill="none" opacity="1.000000" stroke="#000000" stroke-linecap="round" stroke-linejoin="round" stroke-width="2.000000"
	d="
M563.000000,441.000000 
	C559.666687,441.708710 556.333313,443.986542 553.000000,441.000000 
"/>
<path fill="none" opacity="1.000000" stroke="#000000" stroke-linecap="round" stroke-linejoin="round" stroke-width="5.000000"
	d="
M538.500000,507.500000 
	C538.434814,510.918121 538.280579,514.349609 540.000000,517.500000 
"/>
<path fill="none" opacity="1.000000" stroke="#000000" stroke-linecap="round" stroke-linejoin="round" stroke-width="5.000000"
	d="
M582.500000,507.500000 
	C577.228333,506.179596 571.758118,508.037201 566.500000,506.500000 
"/>
<path fill="none" opacity="1.000000" stroke="#000000" stroke-linecap="round" stroke-linejoin="round" stroke-width="8.000000"
	d="
M303.500000,777.500000 
	C307.291504,775.875854 310.583984,775.586487 313.599701,779.421631 
	C315.514771,781.856934 318.057831,784.074158 321.500000,784.500000 
"/>
<path fill="none" opacity="1.000000" stroke="#000000" stroke-linecap="round" stroke-linejoin="round" stroke-width="3.000000"
	d="
M708.000000,233.500000 
	C708.666687,236.833328 709.333313,240.166672 710.000000,243.500000 
"/>
<path fill="none" opacity="1.000000" stroke="#000000" stroke-linecap="round" stroke-linejoin="round" stroke-width="3.000000"
	d="
M589.000000,449.000000 
	C586.182800,450.978607 582.967651,450.017883 580.006592,449.869049 
	C577.325989,449.734344 578.698792,447.491974 579.000000,446.000000 
"/>
<path fill="none" opacity="1.000000" stroke="#000000" stroke-linecap="round" stroke-linejoin="round" stroke-width="8.000000"
	d="
M369.500000,781.500000 
	C368.588135,778.030029 371.380829,775.820557 373.205811,774.237244 
	C374.800140,772.854065 378.043671,774.524536 379.394958,776.569397 
	C380.675262,778.506836 382.525848,777.878113 384.033386,778.404419 
	C387.652740,779.667908 389.735504,781.728638 387.891052,785.445923 
	C386.753876,787.737854 387.390320,789.500000 388.000000,791.500000 
"/>
<path fill="none" opacity="1.000000" stroke="#000000" stroke-linecap="round" stroke-linejoin="round" stroke-width="3.000000"
	d="
M509.500000,417.500000 
	C515.192566,417.706299 520.859802,417.242462 526.549927,418.820007 
	C529.602356,419.666351 533.166687,418.666656 536.500000,418.500000 
"/>
<path fill="none" opacity="1.000000" stroke="#000000" stroke-linecap="round" stroke-linejoin="round" stroke-width="3.000000"
	d="
M460.500000,462.000000 
	C458.241516,463.026825 456.354126,464.729340 453.859497,461.612457 
	C451.808014,459.049194 444.268738,459.078796 441.591949,461.597687 
	C437.759583,465.203949 433.349548,465.991272 428.500000,466.000000 
"/>
<path fill="none" opacity="1.000000" stroke="#000000" stroke-linecap="round" stroke-linejoin="round" stroke-width="8.000000"
	d="
M329.500000,745.750000 
	C333.701721,748.616577 338.661285,750.400513 341.876892,753.862854 
	C342.470459,757.168152 340.408173,758.862122 339.500000,761.000000 
"/>
<path fill="none" opacity="1.000000" stroke="#000000" stroke-linecap="round" stroke-linejoin="round" stroke-width="5.000000"
	d="
M352.000000,211.500000 
	C350.518585,221.622528 351.735413,222.727768 339.500000,219.500000 
"/>
<path fill="none" opacity="1.000000" stroke="#000000" stroke-linecap="round" stroke-linejoin="round" stroke-width="5.000000"
	d="
M499.500000,637.500000 
	C496.353485,638.049500 493.113220,636.817749 490.000000,638.000000 
"/>
<path fill="none" opacity="1.000000" stroke="#000000" stroke-linecap="round" stroke-linejoin="round" stroke-width="4.000000"
	d="
M390.000000,500.000000 
	C385.915436,502.746307 381.882629,505.648071 376.500000,504.499969 
	C375.394501,504.264160 374.465179,503.917603 375.250000,502.500000 
"/>
<path fill="none" opacity="1.000000" stroke="#000000" stroke-linecap="round" stroke-linejoin="round" stroke-width="2.000000"
	d="
M486.500000,481.500000 
	C481.500000,481.474182 476.500000,482.458099 471.500000,481.500000 
"/>
<path fill="none" opacity="1.000000" stroke="#000000" stroke-linecap="round" stroke-linejoin="round" stroke-width="8.000000"
	d="
M265.000000,736.500000 
	C268.654449,738.845581 269.904175,743.595825 274.388092,745.542725 
	C277.028168,744.433289 280.536774,743.887024 280.500000,739.500000 
"/>
<path fill="none" opacity="1.000000" stroke="#000000" stroke-linecap="round" stroke-linejoin="round" stroke-width="5.000000"
	d="
M552.500000,472.000000 
	C551.833313,471.666656 551.182251,471.296631 550.497559,471.005829 
	C545.122620,468.723328 543.559814,469.731415 543.500000,475.500000 
"/>
<path fill="none" opacity="1.000000" stroke="#000000" stroke-linecap="round" stroke-linejoin="round" stroke-width="8.000000"
	d="
M405.500000,491.500000 
	C406.000000,493.000000 406.532166,494.490173 406.994690,496.001617 
	C409.546570,504.340881 411.633698,504.581207 419.500000,503.500000 
"/>
<path fill="none" opacity="1.000000" stroke="#000000" stroke-linecap="round" stroke-linejoin="round" stroke-width="5.000000"
	d="
M558.500000,501.500000 
	C561.408569,503.312866 564.503540,501.805450 567.497375,502.034210 
	C569.511108,502.188049 571.500000,502.666656 573.500000,503.000000 
"/>
<path fill="none" opacity="1.000000" stroke="#000000" stroke-linecap="round" stroke-linejoin="round" stroke-width="3.000000"
	d="
M567.500000,436.000000 
	C570.532288,440.155853 574.396057,439.738312 578.500000,438.000000 
"/>
<path fill="none" opacity="1.000000" stroke="#000000" stroke-linecap="round" stroke-linejoin="round" stroke-width="2.000000"
	d="
M443.500000,495.500000 
	C437.833344,497.059601 432.166656,494.409576 426.500000,495.500000 
"/>
<path fill="none" opacity="1.000000" stroke="#000000" stroke-linecap="round" stroke-linejoin="round" stroke-width="6.000000"
	d="
M593.500000,244.500000 
	C593.905884,242.276642 591.491089,241.206131 591.281738,239.020905 
	C591.189575,238.057983 589.020142,236.838806 586.962463,237.929184 
	C584.935547,239.003265 582.950195,240.403809 580.500000,240.500000 
"/>
<path fill="none" opacity="1.000000" stroke="#000000" stroke-linecap="round" stroke-linejoin="round" stroke-width="3.000000"
	d="
M580.500000,484.500000 
	C577.590454,483.352722 574.566650,483.233215 571.500000,483.500000 
"/>
<path fill="none" opacity="1.000000" stroke="#000000" stroke-linecap="round" stroke-linejoin="round" stroke-width="3.000000"
	d="
M543.000000,471.500000 
	C539.442627,470.326782 536.685852,472.035706 534.000000,474.000000 
"/>
<path fill="none" opacity="1.000000" stroke="#000000" stroke-linecap="round" stroke-linejoin="round" stroke-width="4.000000"
	d="
M602.500000,461.500000 
	C600.500000,461.500000 598.496521,461.572510 596.501099,461.477386 
	C594.854919,461.398926 595.573547,462.888519 595.000000,463.500000 
"/>
<path fill="none" opacity="1.000000" stroke="#000000" stroke-linecap="round" stroke-linejoin="round" stroke-width="3.000000"
	d="
M405.500000,508.000000 
	C399.474487,508.751282 393.549988,505.866791 387.500000,507.500000 
"/>
<path fill="none" opacity="1.000000" stroke="#000000" stroke-linecap="round" stroke-linejoin="round" stroke-width="3.000000"
	d="
M572.500000,486.500000 
	C568.549683,485.570770 564.545776,485.284058 560.500000,485.500000 
"/>
<path fill="none" opacity="1.000000" stroke="#000000" stroke-linecap="round" stroke-linejoin="round" stroke-width="4.000000"
	d="
M546.000000,446.000000 
	C540.875610,443.165619 537.272888,444.111237 535.029114,449.013336 
	C534.306152,450.592865 533.970581,452.354034 532.500000,453.500000 
"/>
<path fill="none" opacity="1.000000" stroke="#000000" stroke-linecap="round" stroke-linejoin="round" stroke-width="3.000000"
	d="
M381.500000,517.499939 
	C375.166656,517.333313 368.833344,517.166626 362.500000,516.999939 
"/>
<path fill="none" opacity="1.000000" stroke="#000000" stroke-linecap="round" stroke-linejoin="round" stroke-width="8.000000"
	d="
M607.250000,802.000000 
	C607.343140,800.651245 606.617859,799.641418 606.086060,798.461243 
	C603.740356,793.255859 603.001038,792.917542 597.993469,795.487305 
	C594.075012,797.498047 589.783447,797.648804 585.500000,797.750000 
"/>
<path fill="none" opacity="1.000000" stroke="#000000" stroke-linecap="round" stroke-linejoin="round" stroke-width="8.000000"
	d="
M754.500000,730.500000 
	C758.619568,730.380432 759.235046,733.764954 760.672791,736.336548 
	C759.589844,739.130432 757.560120,741.242920 755.420288,742.345215 
	C751.251770,744.492310 750.454590,747.442749 751.500000,751.500000 
"/>
<path fill="none" opacity="1.000000" stroke="#000000" stroke-linecap="round" stroke-linejoin="round" stroke-width="4.000000"
	d="
M631.500000,194.500000 
	C632.378540,197.376205 634.328796,199.874161 634.500000,203.000000 
"/>
<path fill="none" opacity="1.000000" stroke="#000000" stroke-linecap="round" stroke-linejoin="round" stroke-width="4.000000"
	d="
M585.500000,470.000000 
	C582.909424,467.692841 579.643250,467.817719 576.500000,467.500000 
"/>
<path fill="none" opacity="1.000000" stroke="#000000" stroke-linecap="round" stroke-linejoin="round" stroke-width="7.000000"
	d="
M224.000000,578.000000 
	C228.139893,585.006409 227.946030,585.432861 219.000000,589.000000 
"/>
<path fill="none" opacity="1.000000" stroke="#000000" stroke-linecap="round" stroke-linejoin="round" stroke-width="4.000000"
	d="
M539.500000,424.500000 
	C540.518005,428.363861 543.494141,431.426636 544.000000,435.500000 
"/>
<path fill="none" opacity="1.000000" stroke="#000000" stroke-linecap="round" stroke-linejoin="round" stroke-width="3.000000"
	d="
M681.500000,751.500000 
	C681.415771,754.005493 681.803284,756.542419 681.000000,759.000000 
"/>
<path fill="none" opacity="1.000000" stroke="#000000" stroke-linecap="round" stroke-linejoin="round" stroke-width="3.000000"
	d="
M577.500000,468.500000 
	C577.416992,471.305450 577.828491,473.946075 580.000000,476.000000 
"/>
<path fill="none" opacity="1.000000" stroke="#000000" stroke-linecap="round" stroke-linejoin="round" stroke-width="2.000000"
	d="
M309.500000,323.500000 
	C306.117828,324.785339 302.127686,322.878754 299.000000,325.500000 
"/>
<path fill="none" opacity="1.000000" stroke="#000000" stroke-linecap="round" stroke-linejoin="round" stroke-width="3.000000"
	d="
M471.500000,463.500000 
	C469.989716,466.748962 468.830872,470.182922 466.498901,472.999268 
	C470.047821,476.363037 468.480713,481.004822 469.500000,485.000000 
"/>
<path fill="none" opacity="1.000000" stroke="#000000" stroke-linecap="round" stroke-linejoin="round" stroke-width="3.000000"
	d="
M506.500000,429.000000 
	C509.000000,429.333344 511.500000,429.666687 514.000000,430.000000 
"/>
<path fill="none" opacity="1.000000" stroke="#000000" stroke-linecap="round" stroke-linejoin="round" stroke-width="2.000000"
	d="
M498.500000,477.500000 
	C493.500000,477.833344 488.500000,478.166687 483.500000,478.500000 
"/>
<path fill="none" opacity="1.000000" stroke="#000000" stroke-linecap="round" stroke-linejoin="round" stroke-width="4.000000"
	d="
M410.500000,501.000000 
	C413.718384,498.726929 417.482849,499.608521 421.005798,499.321259 
	C424.144806,499.065308 427.333344,499.416687 430.500000,499.500031 
"/>
<path fill="none" opacity="1.000000" stroke="#000000" stroke-linecap="round" stroke-linejoin="round" stroke-width="11.000000"
	d="
M446.000000,479.000000 
	C455.394897,476.940826 454.916687,480.960724 453.975494,487.674744 
	C456.251221,489.099640 458.741730,489.801910 461.500000,489.500000 
"/>
<path fill="none" opacity="1.000000" stroke="#000000" stroke-linecap="round" stroke-linejoin="round" stroke-width="3.000000"
	d="
M736.500000,347.000000 
	C746.326294,349.801666 746.326294,349.801666 746.000000,360.500000 
"/>
<path fill="none" opacity="1.000000" stroke="#000000" stroke-linecap="round" stroke-linejoin="round" stroke-width="3.000000"
	d="
M252.500000,301.500000 
	C250.166672,301.500000 247.833328,301.500000 245.500000,301.500000 
"/>
<path fill="none" opacity="1.000000" stroke="#000000" stroke-linecap="round" stroke-linejoin="round" stroke-width="3.000000"
	d="
M763.000000,282.500000 
	C761.681885,291.163879 761.842590,293.630646 772.500000,293.000000 
"/>
<path fill="none" opacity="1.000000" stroke="#000000" stroke-linecap="round" stroke-linejoin="round" stroke-width="3.000000"
	d="
M527.000000,408.500000 
	C527.166687,410.833344 527.333313,413.166656 527.500000,415.500000 
"/>
<path fill="none" opacity="1.000000" stroke="#000000" stroke-linecap="round" stroke-linejoin="round" stroke-width="3.000000"
	d="
M800.500000,332.000000 
	C798.187134,332.616913 796.263550,330.703583 794.000000,331.000000 
"/>
<path fill="none" opacity="1.000000" stroke="#000000" stroke-linecap="round" stroke-linejoin="round" stroke-width="3.000000"
	d="
M591.500000,513.000000 
	C586.201233,511.727417 580.817932,513.160400 575.500000,512.500000 
"/>
<path fill="none" opacity="1.000000" stroke="#000000" stroke-linecap="round" stroke-linejoin="round" stroke-width="3.000000"
	d="
M268.000000,276.500000 
	C267.383087,278.812866 269.296417,280.736450 269.000000,283.000000 
"/>
<path fill="none" opacity="1.000000" stroke="#000000" stroke-linecap="round" stroke-linejoin="round" stroke-width="3.000000"
	d="
M273.500000,681.500000 
	C273.435822,683.708069 271.876923,685.686218 272.500000,688.000000 
"/>
<path fill="none" opacity="1.000000" stroke="#000000" stroke-linecap="round" stroke-linejoin="round" stroke-width="3.000000"
	d="
M563.000000,415.000000 
	C561.676636,417.077698 561.079163,419.211212 562.500000,421.500000 
"/>
<path fill="none" opacity="1.000000" stroke="#000000" stroke-linecap="round" stroke-linejoin="round" stroke-width="2.000000"
	d="
M400.000000,498.500000 
	C399.833344,500.666656 399.666687,502.833344 399.500000,505.000000 
"/>
<path fill="none" opacity="1.000000" stroke="#000000" stroke-linecap="round" stroke-linejoin="round" stroke-width="3.000000"
	d="
M557.500000,461.500031 
	C553.833313,461.666687 550.166687,461.833344 546.500000,462.000031 
"/>
<path fill="none" opacity="1.000000" stroke="#000000" stroke-linecap="round" stroke-linejoin="round" stroke-width="3.000000"
	d="
M612.500000,475.500000 
	C610.101257,474.324890 608.241272,476.651611 606.000000,476.500000 
"/>
<path fill="none" opacity="1.000000" stroke="#000000" stroke-linecap="round" stroke-linejoin="round" stroke-width="3.000000"
	d="
M446.000000,486.000000 
	C443.039764,487.767212 447.215393,490.129059 445.500000,492.000000 
"/>
<path fill="none" opacity="1.000000" stroke="#000000" stroke-linecap="round" stroke-linejoin="round" stroke-width="3.000000"
	d="
M450.500000,492.000000 
	C446.283752,494.356018 442.904114,492.110779 439.500000,490.000000 
"/>
<path fill="none" opacity="1.000000" stroke="#000000" stroke-linecap="round" stroke-linejoin="round" stroke-width="3.000000"
	d="
M417.000000,487.500000 
	C420.070465,490.560913 420.629028,494.421082 420.500000,498.500000 
"/>
<path fill="none" opacity="1.000000" stroke="#000000" stroke-linecap="round" stroke-linejoin="round" stroke-width="3.000000"
	d="
M510.500000,474.500000 
	C506.166656,474.666687 501.833344,474.833344 497.500000,475.000000 
"/>
<path fill="none" opacity="1.000000" stroke="#000000" stroke-linecap="round" stroke-linejoin="round" stroke-width="2.000000"
	d="
M405.500000,503.000000 
	C403.817078,505.048126 400.545959,503.655151 399.000000,506.000000 
"/>
<path fill="none" opacity="1.000000" stroke="#000000" stroke-linecap="round" stroke-linejoin="round" stroke-width="4.000000"
	d="
M444.000000,481.500000 
	C442.012726,484.321533 439.561188,486.467773 436.000000,487.000000 
"/>
<path fill="none" opacity="1.000000" stroke="#000000" stroke-linecap="round" stroke-linejoin="round" stroke-width="3.000000"
	d="
M274.500000,746.000000 
	C274.391693,747.838623 274.843353,749.728210 274.000000,751.500000 
"/>
<path fill="none" opacity="1.000000" stroke="#000000" stroke-linecap="round" stroke-linejoin="round" stroke-width="3.000000"
	d="
M232.500000,352.000000 
	C233.000000,353.833344 233.500000,355.666656 234.000000,357.500000 
"/>
<path fill="none" opacity="1.000000" stroke="#000000" stroke-linecap="round" stroke-linejoin="round" stroke-width="3.000000"
	d="
M590.500000,463.500000 
	C587.741455,464.938080 584.793701,463.159363 582.000000,464.000000 
"/>
<path fill="none" opacity="1.000000" stroke="#000000" stroke-linecap="round" stroke-linejoin="round" stroke-width="2.000000"
	d="
M587.500000,459.000000 
	C587.500000,460.500000 587.500000,462.000000 587.500000,463.500000 
"/>
<path fill="none" opacity="1.000000" stroke="#000000" stroke-linecap="round" stroke-linejoin="round" stroke-width="2.000000"
	d="
M393.500000,479.000000 
	C392.288422,479.824707 391.103973,480.721680 389.500000,480.500000 
"/>
<path fill="none" opacity="1.000000" stroke="#000000" stroke-linecap="round" stroke-linejoin="round" stroke-width="3.000000"
	d="
M603.000000,472.500000 
	C603.486633,474.305450 607.255615,475.514130 604.000000,478.000000 
"/>
<path fill="none" opacity="1.000000" stroke="#000000" stroke-linecap="round" stroke-linejoin="round" stroke-width="2.000000"
	d="
M384.500000,495.500000 
	C383.869720,496.721222 381.806030,495.792389 381.500000,497.500000 
"/>
<path fill="none" opacity="1.000000" stroke="#000000" stroke-linecap="round" stroke-linejoin="round" stroke-width="11.000000"
	d="
M493.000000,101.500000 
	C490.833344,101.833336 488.673431,102.398064 486.498871,102.461693 
	C474.219086,102.821030 462.120697,104.602081 449.987427,106.415970 
	C425.748657,110.039604 402.123627,115.939346 378.995239,123.986336 
	C343.446106,136.354843 310.251923,153.301910 279.508301,175.011749 
	C257.985687,190.210129 237.769623,206.990997 219.530731,226.029434 
	C196.258423,250.321915 176.030884,276.972748 159.019226,306.011261 
	C144.184875,331.333130 132.533218,358.140686 123.635002,386.043060 
	C117.293045,405.929718 112.393776,426.245178 109.438217,446.991211 
	C107.615341,459.786560 106.409012,472.609100 105.293839,485.482147 
	C104.020203,500.184357 104.131645,514.877808 104.758232,529.488953 
	C105.388695,544.190308 107.137489,558.881897 109.296013,573.530029 
	C112.867569,597.767456 118.678902,621.373962 126.555244,644.481140 
	C139.533722,682.556763 157.893250,717.862732 181.448608,750.537048 
	C209.562378,789.534363 243.648926,822.167908 283.465424,849.051208 
	C327.841675,879.013062 376.098022,899.574219 428.494507,910.526306 
	C441.233948,913.189087 454.074524,914.994812 466.985840,916.612915 
	C487.442017,919.176453 507.970062,920.286804 528.492554,919.339111 
	C551.326233,918.284546 574.064270,915.659241 596.498474,910.992798 
	C635.237488,902.934875 672.101685,889.473145 706.927490,870.864319 
	C735.118713,855.800598 761.091187,837.332947 785.028687,816.032227 
	C816.274597,788.228027 842.610962,756.449158 864.034912,720.520813 
	C881.529602,691.181763 895.170105,660.138611 904.852356,627.456238 
	C910.030029,609.979492 914.100769,592.158997 916.572021,574.009827 
	C918.450317,560.214600 919.732483,546.405884 920.747375,532.518066 
	C921.541809,521.646667 921.698059,510.808105 921.328003,500.005890 
	C920.922180,488.160278 919.931580,476.312988 918.672302,464.481659 
	C916.784912,446.747894 913.606995,429.291473 909.442993,412.013733 
	C901.112915,377.449005 888.031738,344.642853 870.911987,313.548462 
	C854.123779,283.056427 833.392090,255.399475 809.583984,229.921524 
	C780.934021,199.262070 748.302490,173.679169 711.902283,153.173462 
	C677.159424,133.601440 640.151978,119.308380 600.998840,111.005356 
	C587.770996,108.200188 574.453491,106.074852 561.021118,104.336922 
	C538.555115,101.430214 516.045837,101.468346 493.500000,101.500000 
"/>
<path fill="none" opacity="1.000000" stroke="#000000" stroke-linecap="round" stroke-linejoin="round" stroke-width="19.000000"
	d="
M503.500000,125.500000 
	C501.870728,126.020309 500.284302,126.535126 498.499939,126.532600 
	C469.929413,126.492157 441.980133,131.303772 414.530060,138.612946 
	C366.145233,151.496460 321.888489,173.028458 281.946442,203.429611 
	C264.485779,216.719452 248.029785,231.083603 233.068207,247.063858 
	C213.774933,267.670776 196.927582,290.167969 182.445618,314.467590 
	C165.001434,343.737579 151.881775,374.830597 142.575577,407.521515 
	C136.709503,428.127899 132.785477,449.211426 130.638504,470.513947 
	C129.017319,486.599609 127.862053,502.785767 128.515823,518.999390 
	C129.904831,553.448425 134.569290,587.333130 144.385498,620.533875 
	C154.958633,656.294739 170.220093,689.764465 190.500488,720.999695 
	C208.619797,748.906555 230.078186,773.881104 254.915817,796.094116 
	C271.404816,810.840698 288.894592,824.164062 307.543488,835.931091 
	C330.534851,850.438110 354.927643,862.105164 380.446381,871.643433 
	C402.451202,879.868347 425.056274,885.671082 448.039124,889.781189 
	C463.653717,892.573486 479.514465,894.718689 495.499115,894.448120 
	C501.050262,894.354187 506.629089,895.994934 511.974731,895.304504 
	C523.306274,893.840637 534.671265,894.767822 546.019043,893.703064 
	C563.717285,892.042542 581.168457,889.315735 598.504639,885.521179 
	C632.763367,878.022644 665.102722,865.457031 696.003784,849.007141 
	C718.490540,837.036560 739.327942,822.614441 758.978210,806.473450 
	C778.932739,790.082458 796.846619,771.689026 813.059265,751.547729 
	C834.756165,724.593140 852.395020,695.261108 865.966553,663.485718 
	C876.768188,638.195740 885.043579,612.111511 890.039917,585.007385 
	C893.608521,565.648071 895.469666,546.172302 896.816528,526.521667 
	C898.061157,508.363037 896.830933,490.410828 895.273071,472.519745 
	C892.514404,440.836792 885.262756,409.935730 874.425903,380.026855 
	C857.619324,333.641815 832.683350,291.915131 799.925476,255.066269 
	C770.952087,222.474640 737.340820,195.598495 699.067627,174.378052 
	C662.084961,153.873215 623.033630,139.608795 581.497559,132.013260 
	C563.814575,128.779633 546.012939,126.871986 528.005798,126.312752 
	C520.014038,126.064560 512.012512,125.533615 504.000000,125.500000 
"/>
<path fill="none" opacity="1.000000" stroke="#000000" stroke-linecap="round" stroke-linejoin="round" stroke-width="6.000000"
	d="
M491.500000,147.000000 
	C486.186462,149.204956 480.464447,148.144669 474.972931,148.757523 
	C457.053345,150.757309 439.446808,153.969955 421.983612,158.435944 
	C380.468140,169.053040 342.121094,186.583694 307.045166,211.064697 
	C272.888092,234.904343 243.378281,263.426086 218.796753,297.352722 
	C196.850266,327.642578 180.083084,360.347473 168.159363,395.553986 
	C161.622482,414.855103 156.774475,434.686218 153.868027,454.981110 
	C151.867462,468.950562 150.188889,482.873260 149.883911,496.997498 
	C149.758255,502.817810 148.566391,508.646454 149.033493,514.497314 
	C150.258331,529.839355 150.713394,545.206055 152.808594,560.526184 
	C156.565506,587.997131 163.269119,614.583374 172.960114,640.514893 
	C181.120087,662.349670 191.253708,683.217651 203.566422,702.958557 
	C219.469421,728.455872 238.140930,751.758057 259.956329,772.545837 
	C279.879517,791.530640 301.472656,808.329346 325.049103,822.417847 
	C359.292877,842.881042 395.984558,857.397461 434.993439,866.029602 
	C467.479706,873.218384 500.413788,875.324341 533.492676,873.836731 
	C564.839783,872.426941 595.630127,866.635010 625.465576,856.894653 
	C669.788086,842.424683 710.017639,820.183594 745.964050,790.456543 
	C772.206665,768.754456 794.884399,743.668945 813.942017,715.460815 
	C835.598022,683.406677 851.893616,648.741699 862.459351,611.488464 
	C867.940308,592.163452 871.652588,572.495667 874.152405,552.519043 
	C876.863708,530.851807 876.433289,509.143127 875.736145,487.508514 
	C875.078552,467.101257 871.305664,446.917511 866.522095,426.994690 
	C858.368896,393.038361 845.811829,360.824829 828.481689,330.510437 
	C807.799133,294.332001 781.512878,262.820984 750.068848,235.420975 
	C723.566650,212.327087 694.264709,193.704498 662.448364,179.112518 
	C635.953247,166.960983 608.257263,158.366959 579.525024,152.869247 
	C550.528809,147.321014 521.333801,146.562927 492.000000,147.000000 
"/>
<path fill="none" opacity="1.000000" stroke="#000000" stroke-linecap="round" stroke-linejoin="round" stroke-width="6.000000"
	d="
M503.500000,256.000000 
	C497.501648,258.223602 491.149597,257.000366 484.971100,257.767120 
	C469.537842,259.682404 454.323517,262.525818 439.530426,267.098450 
	C410.654755,276.024078 384.045471,289.549896 359.990814,307.988037 
	C326.767761,333.453888 301.123383,365.144775 283.679504,403.082520 
	C274.298004,423.485809 268.172058,445.047180 264.781372,467.466949 
	C262.058014,485.474579 261.152771,503.500183 262.214172,521.487366 
	C263.736542,547.285950 269.400238,572.350525 278.934113,596.526001 
	C289.345612,622.926941 303.439514,646.969421 321.947968,668.544678 
	C346.592529,697.272705 376.192352,719.342102 410.542999,734.905090 
	C434.661743,745.832336 460.030243,752.520691 486.488831,755.114075 
	C495.656738,756.012634 504.893738,757.007812 513.992615,756.745117 
	C527.350403,756.359558 540.731750,755.548340 554.032166,753.180786 
	C571.158997,750.132080 587.807434,745.804077 604.009949,739.525696 
	C628.647644,729.978882 651.003418,716.670471 671.545044,700.055725 
	C694.737244,681.297119 713.779053,659.083618 729.005615,633.503357 
	C743.920593,608.446472 753.963684,581.529785 759.734009,552.996765 
	C764.007751,531.864136 765.310791,510.399689 763.810913,489.013275 
	C761.310303,453.358704 751.907410,419.475159 734.525330,387.985992 
	C720.796997,363.115936 703.752197,340.995392 682.579773,321.911469 
	C664.930786,306.003296 645.688049,292.551178 624.457275,282.086700 
	C600.758667,270.405853 575.751892,262.646759 549.506226,258.955627 
	C534.395508,256.830536 519.240845,255.874725 504.000000,256.000000 
"/>
</svg>