<svg version="1.1" id="Layer_1" xmlns="http://www.w3.org/2000/svg" xmlns:xlink="http://www.w3.org/1999/xlink" x="0px" y="0px"
	 width="100%" viewBox="0 0 1024 1024" enable-background="new 0 0 1024 1024" xml:space="preserve">
<path fill="#000000" opacity="1.000000" stroke="none" 
	d="
M650.838806,169.907013 
	C650.372864,170.167831 650.221008,170.237595 650.075989,170.319336 
	C629.444336,181.948547 629.448364,181.918350 605.552368,178.725449 
	C601.825562,178.227493 597.997253,177.579926 593.795166,179.682404 
	C599.767578,184.256500 606.975830,185.874161 613.485962,191.130539 
	C599.251892,199.284607 584.576904,205.561142 572.464783,216.049179 
	C580.451721,215.017990 588.067993,212.427338 595.995117,211.280045 
	C639.315613,205.010239 676.434265,216.507309 706.078613,249.475601 
	C714.472046,258.810120 712.850464,263.647552 700.461975,266.151398 
	C686.007935,269.072723 671.368835,269.179565 656.697632,268.346497 
	C653.919922,268.188721 652.136902,266.502502 650.325317,264.787109 
	C644.155396,258.944794 638.162231,252.892303 631.021423,248.191040 
	C629.278015,247.043259 627.683411,245.369690 624.910461,245.719055 
	C624.707275,250.253586 627.308411,253.907684 628.605164,257.888397 
	C631.137573,265.661926 629.935120,267.360474 621.837280,266.194489 
	C599.526550,262.982056 577.082092,262.228943 554.587097,262.324005 
	C549.045288,262.347443 548.302307,263.483093 550.613770,268.555908 
	C572.664368,316.949463 587.589661,367.580078 598.290466,419.563385 
	C604.299683,448.755341 608.242310,478.195740 610.481384,507.917206 
	C612.346985,532.681824 613.320557,557.454285 613.197144,582.276611 
	C613.141663,593.433350 612.623840,604.580322 611.456665,615.676392 
	C611.028076,619.750549 612.355164,621.841125 616.475525,622.551941 
	C624.340027,623.908569 632.237915,625.220337 639.964417,627.173645 
	C644.845764,628.407715 646.761536,626.681702 647.533630,622.243713 
	C650.389099,605.830261 654.641235,589.756104 659.644348,573.885498 
	C680.035889,509.199890 711.149841,450.098328 752.340149,396.259521 
	C755.054504,392.711761 757.697266,389.109161 760.389282,385.510712 
	C758.790833,383.885834 757.030579,384.393036 755.485901,384.384735 
	C741.981262,384.312164 728.545349,385.387817 715.145630,386.987610 
	C714.483887,387.066589 713.823975,387.164856 713.160400,387.223022 
	C704.733643,387.962341 703.521729,386.397491 706.079407,378.375397 
	C706.854675,375.943726 708.562317,373.571411 707.244141,370.855133 
	C705.423645,370.016418 704.226562,371.094391 703.055359,371.966217 
	C698.364014,375.458374 693.433838,378.989014 690.344604,383.868317 
	C686.913391,389.287628 682.120300,390.652161 676.528015,391.166779 
	C665.592590,392.173065 654.680542,393.313385 643.648499,392.359894 
	C634.197388,391.543091 631.617737,387.096710 636.960999,379.314423 
	C655.147461,352.825958 680.106323,338.517914 712.522400,337.606537 
	C723.327576,337.302734 733.719482,339.284973 744.059875,341.971924 
	C745.601318,342.372467 747.103638,343.410004 749.239502,341.820984 
	C741.148682,333.469330 730.456970,329.073395 720.838196,322.596924 
	C725.067871,318.109253 730.873779,317.546783 735.006836,313.766815 
	C732.584656,311.819153 730.019226,312.343475 727.654419,312.474823 
	C721.838562,312.797729 716.027649,313.271454 710.231506,313.851593 
	C708.278076,314.047119 706.601868,313.646667 704.997986,312.675934 
	C696.304565,307.414368 687.598694,302.172821 678.946716,296.843689 
	C676.824463,295.536530 674.575989,294.064728 674.839111,291.077484 
	C675.099365,288.123566 677.492126,286.982117 679.818237,286.029327 
	C705.393616,275.553406 730.800415,275.302856 755.579712,288.245605 
	C770.751709,296.170319 780.241211,309.252625 786.310730,325.008575 
	C787.600342,328.356415 788.294312,331.981567 791.633667,336.627777 
	C795.589233,332.046265 798.853516,327.588562 802.789307,323.835022 
	C814.110962,313.037720 827.236450,305.308655 842.863464,302.719910 
	C867.398987,298.655396 889.390503,305.062408 909.157654,319.720367 
	C912.623108,322.290100 915.918030,325.162689 918.937622,328.242493 
	C922.792480,332.174255 921.799927,336.154572 916.386963,337.484436 
	C906.054688,340.023010 895.598633,342.060516 885.184021,344.259125 
	C882.713318,344.780670 880.764404,343.481598 878.672363,342.347076 
	C872.906738,339.220215 867.120361,336.035400 859.785706,334.761139 
	C861.261108,340.556458 867.091309,343.024933 867.317017,348.909363 
	C854.543579,350.548279 841.757690,350.963867 828.742798,355.023956 
	C833.433472,357.499756 837.871277,356.813995 841.988525,357.505707 
	C869.323181,362.098083 890.949707,375.316101 905.273376,399.327881 
	C914.200745,414.293488 918.161560,430.629272 916.333313,448.117859 
	C915.447693,456.589813 911.716919,458.325836 904.930054,453.082642 
	C896.233765,446.364288 887.911011,439.162628 879.420166,432.177917 
	C877.478088,430.580261 876.801636,428.539246 876.657166,426.043884 
	C876.232666,418.716064 874.336487,411.658295 872.283325,403.632568 
	C870.335083,407.613403 868.718262,410.790649 867.215027,414.020782 
	C865.356873,418.013733 862.993408,418.199829 859.906616,415.289642 
	C853.954956,409.678558 847.453979,404.731232 840.890320,399.870575 
	C839.213928,398.629120 837.666565,397.066986 834.697876,396.860321 
	C840.029419,405.410980 845.258484,413.511871 848.179871,422.766510 
	C855.667847,446.487335 853.793640,469.105316 840.019897,490.216797 
	C835.453674,497.215698 832.313477,496.921967 828.417603,489.358704 
	C823.154541,479.141083 818.041748,468.845978 812.770996,458.632355 
	C811.072021,455.340088 810.752136,452.225189 811.973022,448.603607 
	C814.356201,441.534332 816.358948,434.327026 816.604431,426.130249 
	C812.618774,428.598602 810.774719,432.412750 807.867676,435.150146 
	C803.623657,439.146545 802.486694,439.158356 799.972412,433.905457 
	C794.645874,422.777008 789.034485,411.810059 782.535339,401.316040 
	C781.602356,399.809509 781.000366,397.976379 778.934143,397.033203 
	C775.907227,400.165436 774.202759,404.158051 772.173645,407.897491 
	C744.957581,458.055328 723.714539,510.554871 710.816101,566.242126 
	C705.676819,588.430054 701.681091,610.838013 699.149963,633.513733 
	C697.790222,645.695374 697.040649,643.760071 708.306030,648.406250 
	C749.456604,665.378296 786.218262,689.003601 818.033691,720.194641 
	C826.727051,728.717346 835.026733,737.625549 842.084106,747.584167 
	C850.395081,759.311707 848.182678,768.153687 835.406006,774.809631 
	C834.083679,775.498474 832.653320,775.986511 831.256653,776.525208 
	C820.142883,780.812012 808.514709,782.800842 796.762878,784.248230 
	C778.529114,786.493958 760.210266,786.708313 741.892395,786.206604 
	C721.588440,785.650513 701.399658,783.737366 681.305786,780.606445 
	C661.679443,777.548401 642.121582,779.119873 622.691833,782.741211 
	C596.521179,787.618835 570.420166,792.969910 543.824158,795.087280 
	C511.569489,797.655090 479.336060,797.966431 447.003998,795.641174 
	C417.531586,793.521667 389.360077,786.000610 361.108704,778.160706 
	C337.846649,771.705322 314.067535,772.165405 290.215668,774.870178 
	C269.726105,777.193604 249.211609,780.148499 228.499573,777.349915 
	C220.902100,776.323425 213.344986,775.067383 206.286865,771.864502 
	C193.753052,766.176697 191.074020,757.670410 198.555359,746.166870 
	C208.149948,731.414001 219.843750,718.435242 233.043640,706.817383 
	C259.181763,683.811829 288.630737,666.149475 320.625763,652.592224 
	C322.242645,651.907104 323.731415,651.720032 325.451782,652.058655 
	C338.341797,654.596436 351.280182,656.901123 364.129608,659.626648 
	C369.671753,660.802185 375.084290,659.817810 380.512878,659.573303 
	C410.782806,658.210327 441.040314,656.572205 471.303223,655.051453 
	C484.441162,654.391296 497.598450,654.015137 510.714966,653.067871 
	C518.102783,652.534302 519.876099,650.480103 520.975708,643.285828 
	C522.256226,634.908325 523.536987,626.525330 524.513245,618.109436 
	C524.895508,614.814148 526.509399,613.845215 529.433105,613.954834 
	C535.922180,614.198120 542.420715,614.281555 548.898621,614.694031 
	C552.826172,614.944214 554.433411,613.721436 554.857605,609.519897 
	C556.965454,588.641296 557.904297,567.709045 558.823486,546.754883 
	C559.927429,521.587036 559.434570,496.424377 558.460571,471.311035 
	C557.429932,444.736450 555.454407,418.182953 551.886414,391.767395 
	C548.302368,365.233093 544.203979,338.807343 537.615112,312.843262 
	C534.834351,301.885254 531.257568,291.128662 528.007568,280.291046 
	C527.637573,279.057281 527.466797,277.636322 525.263550,276.615784 
	C520.356445,282.260956 515.120483,287.966187 510.249329,293.967499 
	C503.952606,301.725220 497.931213,309.707031 491.823425,317.617218 
	C488.801910,321.530304 486.559479,321.640656 483.802277,317.375916 
	C481.102173,313.199493 478.890503,308.707336 476.270538,304.005768 
	C474.646454,306.067932 474.341827,308.226532 474.290192,310.461273 
	C474.117218,317.946289 473.686218,325.430878 475.145935,332.867920 
	C475.848602,336.447876 474.965454,339.500641 472.505371,342.541199 
	C464.019012,353.030151 455.963348,363.866241 447.569855,374.432068 
	C441.978485,381.470490 437.465515,380.994629 434.178864,372.561218 
	C423.193695,344.373627 425.545624,317.180939 441.030914,291.119965 
	C445.848389,283.012329 451.920624,276.005005 458.770508,269.601471 
	C459.938782,268.509308 460.982086,267.283417 461.783722,265.672913 
	C455.946442,266.762939 450.821991,269.427399 445.786560,272.128265 
	C439.628174,275.431458 433.685516,279.140411 427.684479,282.732239 
	C422.732574,285.696106 420.962799,285.004517 420.009186,279.223907 
	C419.311951,274.997314 419.312103,270.647552 417.743164,266.517151 
	C415.768890,267.034454 415.508850,268.635468 414.982758,269.955200 
	C412.824890,275.368256 410.046387,280.651550 408.776581,286.271851 
	C407.099579,293.694580 402.724792,297.884674 396.226593,301.119934 
	C386.688934,305.868469 377.498413,311.309845 368.087433,316.319824 
	C365.068390,317.926941 361.811981,320.210480 358.357178,317.493469 
	C355.152344,314.973022 355.698944,311.335571 356.144287,307.792175 
	C361.660156,263.907837 394.608002,229.814194 440.783142,222.033081 
	C449.837280,220.507355 459.019135,220.428879 468.195190,220.784225 
	C469.936005,220.851654 471.790619,221.558380 473.956055,219.959320 
	C460.633301,212.701340 445.742401,211.346756 431.332825,206.678375 
	C435.359802,200.285507 441.863159,197.528229 445.980042,192.169647 
	C444.480957,190.870651 443.101349,191.526978 441.709656,191.852005 
	C433.922180,193.670654 426.146820,195.551056 418.801270,198.791290 
	C415.697876,200.160202 412.646027,200.066345 409.557434,199.082275 
	C398.612335,195.595032 387.683624,192.056564 376.749176,188.535873 
	C374.109833,187.686035 371.648987,186.479294 371.191406,183.429779 
	C370.703491,180.178085 372.808350,178.132889 375.226440,176.492294 
	C390.926178,165.840515 408.131805,158.972000 426.993927,156.723465 
	C467.736328,151.866592 498.556061,168.086121 521.140625,201.524719 
	C522.120117,202.974854 522.735168,204.893082 525.127625,205.284470 
	C527.433228,203.251282 527.783508,200.124374 528.994812,197.476624 
	C539.215820,175.133820 553.891296,156.869400 576.699951,146.395508 
	C592.930725,138.942215 610.062988,136.607040 627.872192,138.293411 
	C639.925659,139.434753 651.484741,142.207825 662.639526,146.815048 
	C664.331543,147.513901 666.061707,148.172546 667.642639,149.079224 
	C672.883911,152.085159 673.143982,156.818359 668.041443,160.006210 
	C662.537903,163.444565 656.794739,166.499374 650.838806,169.907013 
z"/>
<path fill="#000000" opacity="1.000000" stroke="none" 
	d="
M564.624634,837.848755 
	C535.862305,841.306702 507.454224,842.932373 478.924774,842.341187 
	C435.764587,841.446777 393.396301,835.604065 352.081665,822.703247 
	C332.016205,816.437683 311.520294,816.088745 290.784576,818.833008 
	C247.943634,824.502747 205.172256,825.824768 162.787643,815.198730 
	C148.014801,811.495117 133.764694,806.430054 121.154091,797.566650 
	C116.481651,794.282593 112.306877,790.470032 109.190735,785.639282 
	C103.756508,777.214905 104.125015,767.411621 110.411415,759.590271 
	C117.598167,750.648682 127.367172,745.191101 137.541077,740.468018 
	C145.857681,736.607239 154.547775,733.655579 163.332809,731.047546 
	C170.547897,728.905579 175.559143,730.817993 177.571869,736.169922 
	C179.403015,741.039062 177.199463,744.885193 170.236008,748.479187 
	C161.804489,752.830994 153.124527,756.675049 145.333237,762.238647 
	C133.951477,770.366211 133.973145,775.003174 146.285217,781.624390 
	C161.157272,789.622253 177.477386,793.179932 193.974976,795.594238 
	C216.287643,798.859558 238.764603,799.482666 261.252136,797.642212 
	C275.015930,796.515747 288.769867,795.168884 302.481476,793.529907 
	C320.989990,791.317444 339.086517,793.615784 356.852325,798.451050 
	C380.957672,805.011719 405.102509,811.294189 429.951721,814.304932 
	C438.865143,815.384949 447.840546,816.143066 456.810059,816.533325 
	C479.282227,817.510864 501.785736,817.723816 524.242493,816.506775 
	C555.706604,814.801514 586.743408,809.814270 617.569702,803.338623 
	C634.191528,799.846985 650.960327,796.912109 668.069153,798.732727 
	C679.641907,799.964294 691.151062,801.787170 702.719727,803.064697 
	C727.427673,805.793457 752.201904,806.596436 777.035278,805.132507 
	C801.851685,803.669556 826.434265,800.662598 850.387512,793.729736 
	C861.925903,790.390076 873.487976,786.798218 883.316467,779.642639 
	C897.657349,769.201965 893.542175,765.592102 884.018677,758.341431 
	C879.757629,755.097290 875.059021,752.581909 870.435120,749.926514 
	C864.898499,746.746887 863.023315,741.989441 865.132996,736.950317 
	C866.975525,732.549316 872.057739,730.769897 877.965210,732.635620 
	C888.686584,736.021912 898.781250,740.788452 907.784485,747.533875 
	C915.933289,753.639160 922.286987,761.081116 921.268982,772.198547 
	C920.425110,781.415039 915.105713,788.228455 908.276611,793.915344 
	C896.159668,804.005737 881.932617,810.062927 867.114746,814.875488 
	C836.802002,824.720337 805.537964,828.766663 773.832397,830.404358 
	C739.741150,832.165283 705.968872,829.843262 672.454651,823.496338 
	C656.663330,820.505737 641.283325,823.389404 625.959290,826.723755 
	C605.786865,831.112976 585.552429,835.123108 564.624634,837.848755 
z"/>
<path fill="#000000" opacity="1.000000" stroke="none" 
	d="
M388.345886,644.364563 
	C377.907135,645.137695 377.959503,645.137573 377.930206,634.992615 
	C377.879181,617.326355 377.893677,599.657837 377.570618,581.995911 
	C377.486328,577.387146 378.993256,575.830322 383.532501,575.889709 
	C394.528992,576.033508 405.530518,575.814209 416.529816,575.720215 
	C423.989258,575.656433 424.132233,575.639709 424.167999,582.989746 
	C424.191895,587.896973 425.189636,592.236938 429.134369,595.499207 
	C431.385956,597.361206 433.953796,598.732422 436.889587,598.378235 
	C442.712372,597.675842 448.542023,597.986694 454.367188,597.866882 
	C462.510437,597.699341 467.461395,593.138000 467.629059,584.949463 
	C467.829407,575.167847 466.567749,575.780457 477.328674,575.664062 
	C487.489746,575.554138 497.648163,575.200623 507.809235,575.092957 
	C514.106323,575.026306 514.313660,575.465881 513.551086,581.546692 
	C511.420624,598.535034 509.295166,615.524780 507.341187,632.533936 
	C506.817505,637.092041 505.566437,639.307556 500.114624,639.513916 
	C467.833649,640.735962 435.573090,642.493713 403.303589,644.026672 
	C398.477631,644.255920 393.640564,644.250610 388.345886,644.364563 
z"/>
<path fill="#000000" opacity="1.000000" stroke="none" 
	d="
M280.050201,864.189209 
	C267.171753,864.204163 255.086197,866.666260 242.961365,868.758179 
	C240.638870,869.158936 238.317429,869.590027 236.023224,869.204529 
	C232.095886,868.544434 229.105667,866.378784 228.437363,862.296753 
	C227.762726,858.176025 229.774094,855.195007 233.646347,853.652954 
	C244.047440,849.510864 254.888809,846.815918 265.853485,844.855774 
	C284.733582,841.480591 303.727600,839.697632 322.974396,841.593567 
	C340.807556,843.350342 358.014435,847.811523 375.026398,853.037598 
	C408.227692,863.236938 442.210083,866.219360 476.696747,864.545044 
	C485.309662,864.126892 493.880127,862.656372 502.442627,861.471191 
	C505.598602,861.034363 508.424500,861.458252 511.001862,863.226135 
	C515.579834,866.365845 515.671997,872.099426 511.231842,875.401489 
	C509.197021,876.914795 506.833984,877.768311 504.417816,878.419373 
	C488.466583,882.717712 472.235382,885.135986 455.754242,886.392639 
	C416.490387,889.386414 378.473297,883.456726 341.197662,871.408875 
	C321.476562,865.034851 301.158936,863.247803 280.050201,864.189209 
z"/>
<path fill="#000000" opacity="1.000000" stroke="none" 
	d="
M407.999817,513.762207 
	C432.490662,513.727905 456.483307,513.849426 480.471283,513.570129 
	C487.796173,513.484863 493.901611,515.841614 499.138855,520.543518 
	C509.614594,529.948486 514.482300,542.019836 515.312744,555.906372 
	C515.493042,558.921631 514.664429,560.534180 511.227020,560.556885 
	C497.904053,560.644897 484.582245,560.919495 471.260406,561.148132 
	C469.012207,561.186646 467.593018,560.306213 466.613007,558.169800 
	C464.675049,553.945129 461.123871,552.109375 456.542145,552.131287 
	C449.212097,552.166443 441.881470,552.151794 434.552094,552.240479 
	C430.216461,552.292847 426.666748,554.097900 424.820984,558.072205 
	C423.520050,560.873413 421.586578,561.385498 418.852814,561.372375 
	C406.524658,561.313049 394.195129,561.327881 381.867676,561.461548 
	C378.615967,561.496765 377.072052,560.483765 376.771606,557.005371 
	C375.389130,540.998108 370.143707,526.828186 356.802399,516.700684 
	C356.335510,516.346252 356.085266,515.706482 354.738983,513.763916 
	C373.111450,513.763916 390.305634,513.763916 407.999817,513.762207 
z"/>
<path fill="#000000" opacity="1.000000" stroke="none" 
	d="
M330.035461,576.008667 
	C339.348206,576.036072 348.166718,576.115295 356.984528,576.067139 
	C360.601898,576.047363 362.352539,577.213196 362.383881,581.266724 
	C362.531769,600.394287 362.848328,619.522339 363.337433,638.644226 
	C363.453186,643.170349 362.263824,644.488647 357.627686,643.473022 
	C349.689514,641.734131 341.627869,640.533569 333.589691,639.290100 
	C330.618408,638.830505 329.352203,637.276123 328.860474,634.455872 
	C325.838226,617.121887 322.707703,599.806824 319.663300,582.476624 
	C318.552032,576.150757 318.711578,576.020813 325.048462,575.995422 
	C326.545929,575.989380 328.043457,576.004089 330.035461,576.008667 
z"/>
<path fill="#000000" opacity="1.000000" stroke="none" 
	d="
M324.102905,561.401367 
	C316.227570,561.344543 316.204559,561.343140 316.653961,554.115356 
	C317.259552,544.376526 320.134216,535.484863 326.957092,528.264282 
	C332.497833,522.400574 338.723755,521.501465 345.328979,526.160095 
	C357.257172,534.573059 360.833344,546.981506 361.498352,561.401001 
	C348.784363,561.401001 336.684875,561.401001 324.102905,561.401367 
z"/>
<path fill="#000000" opacity="1.000000" stroke="none" 
	d="
M446.962708,566.635864 
	C452.151672,566.004150 453.717926,568.352112 453.312744,572.729492 
	C453.160583,574.373718 453.307983,576.045349 453.313171,577.704529 
	C453.337524,585.526123 449.410797,588.422974 441.903259,586.120300 
	C440.182953,585.592651 439.013763,584.475159 438.622437,582.714722 
	C437.637238,578.282593 437.540894,573.721680 438.508240,569.378845 
	C439.514282,564.862244 443.716278,567.311951 446.962708,566.635864 
z"/>
</svg>