<svg version="1.1" id="Layer_1" xmlns="http://www.w3.org/2000/svg" xmlns:xlink="http://www.w3.org/1999/xlink" x="0px" y="0px"
	 width="100%" viewBox="0 0 1024 672" enable-background="new 0 0 1024 672" xml:space="preserve">
<path fill="#000000" opacity="1.000000" stroke="none" 
	d="
M682.372192,538.763306 
	C688.363464,537.600159 694.335754,538.211182 699.473145,535.501038 
	C687.873779,528.863098 676.123352,532.488892 664.395935,534.513062 
	C659.805969,535.305359 655.220032,536.124878 650.619019,536.847656 
	C649.497192,537.023987 648.158936,537.234436 647.199646,536.804932 
	C640.999512,534.029297 641.024902,533.972595 632.920349,534.383789 
	C633.808777,535.233826 634.474243,535.870483 635.756836,537.097717 
	C626.950806,540.042969 618.668396,536.956787 610.372009,537.121094 
	C610.245483,538.760742 613.051086,538.260803 612.453796,540.246460 
	C611.276855,541.742188 609.473267,541.204407 607.925110,541.061829 
	C597.284912,540.081360 586.618896,540.400757 575.961670,540.273865 
	C572.929749,540.237793 569.994507,539.949097 567.619995,537.659363 
	C566.172546,536.263672 564.268005,536.400940 562.412842,536.565735 
	C549.271057,537.733093 536.125977,537.934509 523.027954,536.166321 
	C520.465210,535.820312 516.969421,536.906067 516.135681,532.348877 
	C515.869446,530.893860 512.649414,530.873291 511.177277,531.928589 
	C501.214417,539.070129 489.626221,538.694458 478.261749,539.201233 
	C474.970276,539.348022 471.640045,538.649536 468.328857,538.325439 
	C453.842682,536.907410 439.397644,537.344116 424.969604,539.160583 
	C423.051208,539.402100 421.034607,539.990967 418.410431,538.666077 
	C422.092804,534.930908 426.968658,535.417175 430.954010,533.237610 
	C423.523743,534.074097 416.088409,534.868591 408.664398,535.757568 
	C399.231201,536.887207 389.811859,538.135315 380.306244,536.476624 
	C377.504791,535.987732 374.800018,535.502014 372.515289,533.492920 
	C370.427704,531.657227 367.805939,532.523132 364.890411,532.658997 
	C366.139008,535.020996 369.447113,534.344788 370.099792,536.592041 
	C369.869659,537.577698 369.256775,537.932495 368.585907,537.894165 
	C354.462311,537.087280 340.342804,536.205688 326.216553,535.450134 
	C323.530731,535.306458 321.328552,534.820984 320.969879,532.206543 
	C310.583038,533.940735 300.701080,532.359009 290.740204,531.162476 
	C296.717682,528.638489 303.305603,530.737427 310.256866,528.511047 
	C305.182556,526.002563 299.687469,528.611389 295.922729,525.221436 
	C295.632965,522.315063 298.333832,522.640747 299.420044,521.383423 
	C299.128662,520.338379 298.058014,520.023804 297.455475,520.197388 
	C289.776184,522.410156 281.943298,521.066101 274.189667,521.251343 
	C267.827087,521.403442 261.786011,519.675598 256.397034,516.324280 
	C253.712189,514.654602 251.097244,514.037354 248.027679,514.246704 
	C246.206177,514.370972 244.109009,514.796570 241.482056,512.030884 
	C251.368454,512.502380 258.985138,507.728149 268.068604,507.972382 
	C274.488800,508.144989 281.669708,508.090179 287.578308,506.753113 
	C295.952576,504.858002 303.003265,504.751190 310.686066,508.048676 
	C315.685547,510.194580 319.203735,509.313354 322.364838,506.055084 
	C318.916046,504.804657 315.774628,503.287445 312.459747,502.551086 
	C307.295319,501.403931 303.925720,497.573242 299.890045,494.784515 
	C297.792206,493.334930 298.295654,491.120270 300.613800,490.063080 
	C302.193451,489.342712 303.867523,488.989410 303.793701,486.855011 
	C303.605560,481.416138 304.948120,475.890778 302.813171,470.548676 
	C302.466156,469.680389 302.227600,468.413696 302.604309,467.666748 
	C305.975861,460.981476 303.842957,453.772064 304.722107,446.862976 
	C304.912445,445.367096 304.546051,443.899872 303.812042,442.524719 
	C303.255280,441.481598 302.644379,439.849548 303.510590,439.237305 
	C307.530945,436.395752 306.730011,432.471527 305.945465,428.811920 
	C308.271393,427.169342 310.502197,427.650269 312.616302,427.645386 
	C324.114502,427.618744 335.614197,427.570312 347.110382,427.737396 
	C350.650787,427.788879 353.227173,426.991425 354.624420,423.431274 
	C356.093994,419.686737 358.462616,420.302399 359.848114,423.222595 
	C361.894287,427.535309 365.262665,427.917419 369.293610,427.803070 
	C374.120697,427.666168 378.964996,427.701843 383.786926,427.951141 
	C387.750366,428.156067 389.139893,426.478424 388.957611,422.651581 
	C388.751678,418.328766 388.936188,413.988281 388.906036,409.655792 
	C388.894531,408.002167 389.030090,406.232330 387.535614,405.045349 
	C385.912506,403.756226 385.146576,402.185760 386.093048,400.260254 
	C387.003204,398.408630 388.911804,398.756073 390.532928,398.754730 
	C402.864532,398.744507 415.200195,398.598999 427.525696,398.883179 
	C432.274811,398.992706 433.935547,397.557892 433.767334,392.668243 
	C433.277161,378.417816 433.342957,364.148895 432.937836,349.894440 
	C432.822174,345.824524 431.844391,341.779144 431.254944,337.673859 
	C437.346466,337.670288 439.234497,339.978577 437.716766,345.180145 
	C437.393127,346.289246 436.705078,347.308716 436.484009,348.428528 
	C434.343201,359.273071 436.172272,361.138245 447.361053,360.611359 
	C463.165070,359.867157 478.981964,359.395630 494.793335,358.808380 
	C497.297516,358.715393 498.913208,359.348358 501.016266,361.469482 
	C505.580383,366.072937 512.021545,368.133575 518.151489,370.231415 
	C519.057312,370.541412 520.625427,369.447113 521.679565,368.706879 
	C529.041443,363.537079 536.311584,358.236145 543.695190,353.098175 
	C545.989807,351.501434 546.867188,349.561157 546.856201,346.797058 
	C546.782715,328.299927 546.821228,309.802307 546.824890,291.304871 
	C546.825378,288.614502 546.414856,286.065338 544.280518,283.642120 
	C540.478210,286.588837 536.555786,288.838898 531.535706,287.551239 
	C530.721191,287.342285 529.521179,288.482147 528.546753,289.076324 
	C523.695923,292.034332 518.835022,292.135498 513.990906,289.117096 
	C509.026978,286.023987 502.993347,287.882568 500.710144,293.254822 
	C496.961456,302.075348 493.649231,303.687042 483.963013,301.195953 
	C482.578430,300.839874 481.511322,300.885193 480.182892,301.464630 
	C472.936798,304.625153 468.393860,302.553833 466.007660,295.202728 
	C465.513397,293.680115 464.874573,292.204468 463.990143,289.890198 
	C461.020996,294.056213 457.466400,296.185120 454.060974,298.627197 
	C445.866425,304.503815 439.532104,301.285187 432.942322,296.590546 
	C429.910919,294.430939 425.619293,295.006622 422.201691,298.307037 
	C415.956268,304.338470 411.026642,304.554535 404.446442,298.846466 
	C401.710083,296.472748 398.832977,296.205872 395.749207,297.641235 
	C394.070892,298.422394 392.313354,299.769409 390.601105,299.117950 
	C384.281708,296.713623 377.702698,296.634399 371.114990,296.102051 
	C367.891571,295.841583 364.996521,293.578796 363.936340,290.472260 
	C362.156708,285.257385 357.796753,284.940948 353.667328,284.491425 
	C348.250519,283.901794 343.429718,278.726990 343.866119,273.365570 
	C344.034973,271.291382 345.281525,270.877472 346.972504,271.219604 
	C348.936157,271.616821 350.989075,272.416565 352.840393,271.389832 
	C357.650879,268.721954 361.953186,269.400421 367.042938,271.379730 
	C370.083588,272.562164 373.775696,272.034271 376.833435,274.473450 
	C377.983215,275.390686 380.882202,275.468903 382.202118,273.388306 
	C383.512726,271.322357 381.687164,270.194519 380.562256,268.738159 
	C378.414337,265.957520 375.864136,265.070312 372.347137,265.221405 
	C364.974243,265.538177 361.903442,262.210205 361.780701,254.640488 
	C361.759583,253.337280 361.575165,251.993317 361.202942,250.746780 
	C359.610596,245.414062 361.316223,241.535751 366.947205,241.044296 
	C373.252686,240.493958 378.673004,236.985062 385.185089,237.007355 
	C389.083618,237.020691 392.471558,237.330856 396.222168,238.502884 
	C401.499542,240.151993 406.864746,241.455688 412.082947,243.426453 
	C414.915466,244.496216 417.591309,245.682892 418.668335,248.265686 
	C420.083740,251.659851 422.590668,253.442673 425.840759,255.198547 
	C428.313141,253.607880 430.870972,250.614578 433.562836,250.488754 
	C440.974426,250.142365 446.215454,245.623245 452.411713,242.819199 
	C459.220825,239.737823 464.976501,243.377869 467.404572,250.568329 
	C468.622528,254.175323 471.249359,255.984299 474.708679,254.156021 
	C478.910706,251.935211 482.398102,252.870453 485.892853,255.232758 
	C489.581207,257.725952 492.724579,257.079346 495.591064,253.889664 
	C496.812408,252.530655 498.239685,251.337952 499.339539,249.891846 
	C503.822845,243.997116 505.800446,244.094040 512.813904,246.558411 
	C517.916626,248.351395 522.610107,253.185379 529.143860,249.817032 
	C531.815613,248.439667 534.381714,251.183380 537.014404,253.070755 
	C538.871704,251.580276 540.751343,250.017868 542.688721,248.530640 
	C545.170044,246.625916 548.041809,245.337463 551.070068,246.397247 
	C555.124939,247.816284 559.241577,247.597046 563.365906,247.729340 
	C567.788635,247.871216 570.177917,250.041199 570.247925,254.509140 
	C570.297791,257.690399 571.149902,260.086945 574.217957,261.901672 
	C576.820312,263.441010 578.518677,266.934967 577.958862,269.547150 
	C576.361450,277.000397 577.834656,284.398346 577.554138,291.798676 
	C576.885498,309.436859 577.439087,327.119202 577.326111,344.782562 
	C577.304199,348.211914 578.282837,350.728729 580.776184,353.138733 
	C597.908386,369.698730 614.668579,386.655548 632.163208,402.819244 
	C635.917358,406.287781 640.556946,408.543182 642.585327,413.716461 
	C643.135132,415.118774 644.946655,416.005157 646.116089,417.190552 
	C648.009583,419.109863 650.205933,419.215759 652.572388,418.368744 
	C655.005371,417.497986 654.936401,415.338562 654.940002,413.362091 
	C654.958740,403.030609 655.031677,392.696289 654.806152,382.369080 
	C654.733704,379.050201 655.876038,376.637299 658.132568,374.442657 
	C658.987549,373.611115 659.636719,372.558899 661.023132,373.107117 
	C662.318909,373.619537 662.478210,374.830139 662.534180,376.012787 
	C662.683533,379.169403 663.116333,382.353973 662.862549,385.480835 
	C661.980103,396.354156 668.211609,404.714935 672.523193,413.759308 
	C673.740662,416.313202 676.056152,415.781738 678.207214,415.565338 
	C681.789124,415.205048 685.361084,414.157135 689.986877,415.464081 
	C685.981384,420.818787 691.043762,426.320801 688.708679,431.791504 
	C688.144043,433.114410 689.752869,434.107941 690.689514,435.015778 
	C704.983826,448.870056 720.723083,460.846191 737.550232,471.467285 
	C741.495911,473.957733 745.795227,471.731079 749.527161,473.573456 
	C751.713379,471.866638 751.477478,469.601593 751.493469,467.506958 
	C751.646545,447.513947 751.644409,427.519104 751.914856,407.527893 
	C752.040833,398.217041 752.785522,388.924286 752.838379,379.595734 
	C752.865662,374.795288 750.794434,373.426666 746.660828,373.404266 
	C738.273376,373.358826 730.733459,376.507996 723.145203,379.533661 
	C717.270752,381.876007 711.377625,384.178345 705.435303,386.340271 
	C703.477539,387.052551 701.352295,388.004913 699.090637,386.413239 
	C699.109741,382.575043 701.472778,379.601807 703.298523,376.550720 
	C706.281311,371.565948 707.681030,366.516693 705.776306,360.847015 
	C704.684082,357.596008 705.326904,355.559479 709.139648,354.736237 
	C714.447205,353.590210 718.836487,350.401581 723.203247,347.345703 
	C731.086975,341.828583 739.086670,336.752319 749.396484,338.289307 
	C750.741821,338.489868 751.614258,337.925354 752.076477,336.624664 
	C752.474365,335.505005 752.986328,334.266418 754.495789,334.724609 
	C755.910706,335.154144 755.677856,336.415863 755.683716,337.633026 
	C755.888855,380.111603 756.134521,422.589935 756.375183,465.068329 
	C756.383728,466.568085 756.433960,468.068512 756.403259,469.567383 
	C756.358276,471.763855 756.607544,473.620514 759.538208,473.482574 
	C761.043030,473.411774 762.117065,474.109131 762.232666,475.777161 
	C762.340637,477.334564 761.525940,478.498657 760.135315,478.789185 
	C757.233582,479.395325 756.382935,481.702240 755.161194,483.896881 
	C751.361389,490.722046 747.421265,497.469055 743.386719,504.506042 
	C748.345642,509.853821 755.249939,509.918182 761.626465,510.617157 
	C769.714355,511.503784 777.910645,511.383453 786.056274,511.777252 
	C787.782410,511.860718 789.747986,511.256287 791.546143,513.439087 
	C788.906372,515.080261 786.018677,514.372437 783.479370,514.639343 
	C779.396179,515.068542 776.550903,516.283813 776.959290,521.259827 
	C767.122742,521.759949 757.678101,521.313843 748.241211,520.453308 
	C746.067993,520.255066 743.807556,520.107971 745.772888,516.327637 
	C741.911377,518.577332 738.718689,520.973755 734.442932,521.941833 
	C737.087402,525.801147 741.909912,523.795593 744.263000,526.702881 
	C744.614807,528.908875 742.423584,528.912781 741.568787,530.197510 
	C742.527283,535.806946 749.151978,533.201172 751.752747,537.082703 
	C748.029907,540.455933 743.384460,537.033447 739.509399,538.825317 
	C740.371643,540.954224 743.532593,540.503479 744.088623,543.183960 
	C742.164795,544.400879 740.215454,543.379456 738.484253,542.954956 
	C730.262695,540.939209 722.047546,541.100830 713.680725,541.941772 
	C703.892639,542.925659 694.034668,542.619629 684.224243,541.832703 
	C680.633057,541.544617 680.531067,541.181152 682.372192,538.763306 
M509.456879,386.008575 
	C506.834137,387.778259 504.260712,389.627563 501.572937,391.292206 
	C499.458038,392.602020 497.580841,394.024353 498.417969,396.818146 
	C499.228516,399.523071 501.691956,398.606201 503.525177,398.617401 
	C510.021118,398.657043 516.518127,398.523926 523.014709,398.459839 
	C525.177307,398.438507 527.651123,398.062073 528.053711,401.119263 
	C528.505371,404.548828 525.922852,404.883636 523.522949,404.912079 
	C520.112244,404.952484 518.754944,406.539490 518.887817,409.872162 
	C519.040466,413.699310 519.084167,417.537476 518.985596,421.365967 
	C518.897339,424.796906 520.407043,426.166931 523.797424,426.040833 
	C529.623047,425.824249 535.458313,425.648193 541.284668,425.746735 
	C545.385864,425.816101 546.936340,424.080658 546.877380,420.062775 
	C546.750305,411.401001 546.869080,402.735657 546.887207,394.071777 
	C546.905457,385.389435 546.905396,385.389404 538.722168,382.031616 
	C523.543762,375.803436 523.543762,375.803497 509.456879,386.008575 
M577.331726,417.317810 
	C577.603577,420.193848 576.072510,424.195557 581.473083,423.835449 
	C596.882019,422.807983 612.292908,421.811035 627.700928,420.770660 
	C630.904175,420.554352 631.521912,418.509033 629.765442,416.393890 
	C627.248535,413.363159 624.702271,409.913269 620.794128,408.712952 
	C608.097229,404.813416 595.302063,401.233459 582.541382,397.541992 
	C579.141479,396.558502 577.420349,397.905212 577.390991,401.405823 
	C577.349121,406.390747 577.349365,411.376007 577.331726,417.317810 
M689.572510,455.096313 
	C690.411804,457.696960 689.070496,458.811462 686.739197,459.237640 
	C684.941589,459.566284 683.147278,459.922455 681.339905,460.187103 
	C679.012024,460.527985 678.119751,461.666748 678.981873,463.981873 
	C680.779541,468.808807 682.558716,473.642700 684.326294,478.480774 
	C685.291199,481.122009 686.977112,481.797852 689.792480,481.294037 
	C695.840759,480.211700 701.992737,479.706207 708.036682,478.604431 
	C711.672729,477.941589 715.648071,478.431183 719.604187,475.787689 
	C708.417358,466.358673 698.767395,456.014709 689.536011,444.942780 
	C686.692627,448.503845 686.682068,451.462097 689.572510,455.096313 
M609.562622,395.933044 
	C599.545776,386.186066 590.249939,375.668915 578.514465,365.872070 
	C577.113464,375.230286 577.446045,383.308380 577.691223,391.356628 
	C577.757507,393.533600 580.062317,393.970367 581.780762,394.485931 
	C588.151306,396.397278 594.512573,398.360870 600.951538,400.016296 
	C605.805054,401.264130 610.509766,403.314117 617.172913,403.883026 
	C614.099121,400.661774 612.080566,398.546356 609.562622,395.933044 
M600.149475,382.351074 
	C607.282715,389.558960 614.427673,396.755402 621.543457,403.980438 
	C624.340820,406.820709 627.591797,408.018951 631.824524,407.390533 
	C627.072021,401.153564 582.254456,358.196716 578.532593,356.226501 
	C576.482544,358.767212 578.138977,360.424408 579.866760,362.137695 
	C586.477173,368.692505 593.058228,375.276886 600.149475,382.351074 
M476.275970,381.992401 
	C477.743683,378.970367 478.073608,375.648773 478.782135,372.428101 
	C479.054382,371.190613 479.652649,370.268127 480.954895,370.011688 
	C482.058899,369.794281 483.159302,370.232758 483.403473,371.231262 
	C484.348389,375.095612 489.218292,376.447418 489.389740,380.813660 
	C489.418518,381.546600 490.396729,382.077606 491.957123,381.846527 
	C493.525391,378.154907 492.345947,374.010559 492.665863,370.031799 
	C492.889557,367.249847 491.517700,366.135010 488.811890,366.193176 
	C484.663177,366.282349 480.511719,366.276428 476.361633,366.257782 
	C465.803802,366.210297 467.221558,366.041260 467.076477,375.310852 
	C466.950958,383.326874 467.542450,383.789062 476.275970,381.992401 
M692.360352,443.334259 
	C699.719971,453.485413 708.793701,462.002350 717.787659,470.657562 
	C723.098816,475.768646 728.495544,476.492035 735.767151,473.590607 
	C719.234619,463.318604 704.567383,451.396851 689.740173,439.599396 
	C690.491882,440.661102 691.243591,441.722839 692.360352,443.334259 
M536.955505,378.491760 
	C539.866943,379.556183 542.778381,380.620636 546.507996,381.984222 
	C546.979431,374.745697 547.364685,368.330414 546.197388,361.132141 
	C539.241516,365.277344 533.279541,369.213867 527.256165,374.302979 
	C530.787659,375.826904 533.520813,377.006348 536.955505,378.491760 
M442.326172,378.181763 
	C442.187012,380.644806 443.325745,381.895844 445.817841,381.893463 
	C448.630829,381.890747 451.444916,381.956451 454.256439,381.896118 
	C456.037109,381.857880 458.406250,382.109650 458.499573,379.610901 
	C458.624084,376.276886 460.456268,371.632416 457.240326,369.915283 
	C453.449005,367.890900 448.340424,368.409668 444.153320,369.774048 
	C440.773743,370.875275 442.794678,374.712189 442.326172,378.181763 
M509.661469,369.829010 
	C505.987854,368.614838 503.001129,365.658142 498.490387,365.229462 
	C498.375763,371.503906 497.632233,377.441711 499.104980,384.173462 
	C505.402130,380.543488 510.411804,377.104004 515.657227,372.664429 
	C513.266418,371.521881 511.793060,370.817810 509.661469,369.829010 
M653.141724,476.609802 
	C655.733154,474.279572 656.387451,466.748016 654.114685,464.852081 
	C653.635559,464.452393 652.922852,464.121368 652.316589,464.119507 
	C648.092346,464.106659 643.773376,463.624573 639.593262,465.958679 
	C641.911194,472.321259 648.132019,473.234894 653.141724,476.609802 
M681.793762,433.806427 
	C678.117371,430.782623 674.689270,433.583099 671.154785,433.876434 
	C670.608887,436.811401 671.880798,439.094360 672.209412,441.513550 
	C672.546753,443.996613 673.940063,444.171265 676.079651,444.015045 
	C684.052795,443.433044 684.862488,442.267151 681.793762,433.806427 
M309.091492,450.453705 
	C309.166290,452.895142 308.639648,455.657928 312.494049,455.747406 
	C315.730835,455.822601 318.414307,455.581116 318.682037,451.309509 
	C319.042145,445.563507 318.000214,443.677856 313.888367,443.421143 
	C309.176788,443.127014 308.977539,446.205200 309.091492,450.453705 
M431.140717,457.486145 
	C424.005249,455.058777 424.005249,455.058777 422.059662,457.912750 
	C428.994904,462.447449 445.262604,467.013519 449.296448,464.899506 
	C443.875458,460.756104 437.405914,460.282471 431.140717,457.486145 
M470.315796,462.660095 
	C469.002441,463.418732 466.878754,463.639282 468.228302,466.581665 
	C476.497406,465.241241 484.391327,462.352386 492.340881,459.686371 
	C493.588379,459.268005 494.316528,458.433746 493.711334,457.010895 
	C493.008026,455.357269 491.749115,455.544739 490.377167,456.001221 
	C483.925171,458.147980 477.467224,460.276917 470.315796,462.660095 
M480.302887,439.926025 
	C478.436615,437.334656 476.906677,438.684174 475.650757,440.462372 
	C471.926636,445.735138 468.282867,451.065033 464.646729,456.399231 
	C463.822235,457.608704 462.680237,459.035309 464.495148,460.241150 
	C465.971375,461.221985 467.004974,460.017365 467.764191,458.923950 
	C472.002502,452.820190 476.189026,446.680450 480.302887,439.926025 
M517.522217,474.156036 
	C510.957458,474.089844 513.859985,479.094727 513.370667,482.142120 
	C512.953369,484.740906 513.788940,486.782623 517.048645,486.710510 
	C519.239990,486.661987 522.016357,486.942444 521.772705,483.846100 
	C521.505005,480.443970 524.849304,475.456543 517.522217,474.156036 
M442.571198,442.946106 
	C441.065002,441.362000 440.277161,438.851715 437.497375,438.745728 
	C436.600891,442.903259 446.783142,458.030396 451.701630,460.147797 
	C452.597870,456.863373 452.597870,456.863373 442.571198,442.946106 
M572.736633,483.810272 
	C572.806396,481.982544 572.849670,480.153320 572.951965,478.327393 
	C573.112488,475.461548 571.849854,474.216858 568.924011,473.870544 
	C562.608582,473.123016 564.509033,477.678009 564.350586,480.748230 
	C564.253967,482.620789 563.500122,485.110748 565.804688,486.121307 
	C568.187744,487.166229 570.705261,487.008942 572.736633,483.810272 
M456.209442,452.126587 
	C456.606232,454.022858 455.416504,456.615479 459.528015,457.688538 
	C459.816925,449.668396 460.913055,441.979370 460.136627,434.174591 
	C460.039520,433.198364 459.184235,432.359833 457.980377,432.645081 
	C456.608551,432.970215 456.274841,434.179138 456.259613,435.345734 
	C456.190613,440.633392 456.206299,445.922119 456.209442,452.126587 
M539.356628,484.698883 
	C540.587769,487.293060 542.876526,486.954041 544.923767,486.386902 
	C547.152893,485.769409 546.902466,483.592377 546.986206,481.809601 
	C547.055908,480.326874 546.971558,478.835724 546.927185,477.349091 
	C546.850159,474.762177 545.273132,474.010376 542.960144,474.054565 
	C540.671753,474.098297 539.046265,474.887482 539.009460,477.438232 
	C538.978577,479.581970 539.101379,481.727875 539.356628,484.698883 
M626.827576,471.519989 
	C629.480164,473.122131 632.122925,473.010773 633.576904,470.219360 
	C634.541809,468.367065 633.679321,465.981659 631.256042,465.617065 
	C626.765869,464.941498 622.433411,466.085541 618.054688,468.059601 
	C620.756226,469.100433 623.457825,470.141296 626.827576,471.519989 
M531.087341,365.625732 
	C528.332336,367.591278 525.577271,369.556854 522.822205,371.522400 
	C530.735596,367.774719 538.095825,363.294067 544.822327,357.913727 
	C544.487793,357.420746 544.153198,356.927795 543.818665,356.434814 
	C539.759766,359.346863 535.700867,362.258911 531.087341,365.625732 
M681.133911,477.301239 
	C680.362183,475.497833 679.590454,473.694427 678.668396,471.539612 
	C676.801758,481.238190 677.399780,482.888763 682.162109,481.796265 
	C682.576721,480.396484 681.677551,479.239532 681.133911,477.301239 
M518.263245,374.787506 
	C513.774963,377.963776 509.286652,381.140015 504.798340,384.316254 
	C510.066772,381.932861 514.745178,378.705963 519.349731,375.376984 
	C519.873657,374.998199 519.299194,374.590820 518.263245,374.787506 
M321.835297,473.544312 
	C318.737579,476.221008 318.805206,476.450439 324.025879,479.985626 
	C323.768707,477.605957 324.994812,475.258636 321.835297,473.544312 
M348.568939,473.813843 
	C346.945129,473.302307 345.399353,473.023804 344.567383,475.146515 
	C345.351044,476.938324 346.614410,478.357300 348.575531,477.626587 
	C349.947845,477.115234 349.689545,475.499634 348.568939,473.813843 
M347.933258,483.513153 
	C346.822754,483.063660 345.983124,481.551880 344.429596,482.621460 
	C343.947174,484.818665 343.980927,486.713562 346.976349,486.607147 
	C348.818054,486.541748 350.019592,485.914948 347.933258,483.513153 
M334.519928,483.131042 
	C333.758057,482.167328 332.996185,481.203644 331.731628,479.604095 
	C331.619568,481.899200 331.422455,483.330902 331.516998,484.743073 
	C331.609039,486.118347 332.647247,486.706665 333.935059,486.524353 
	C336.085144,486.219940 335.456696,484.916504 334.519928,483.131042 
z"/>
</svg>