<?xml version="1.0" encoding="UTF-8" standalone="no"?>
<!-- Created with Inkscape (http://www.inkscape.org/) -->

<svg
   id="svg4716"
   xml:space="preserve"
   height="1000.0001"
   viewBox="0 0 999.38529 999.97888"
   width="999.39612"
   version="1.1"
   sodipodi:docname="Cars_Logo_Black.svg"
   inkscape:version="1.1.1 (3bf5ae0d25, 2021-09-20)"
   xmlns:inkscape="http://www.inkscape.org/namespaces/inkscape"
   xmlns:sodipodi="http://sodipodi.sourceforge.net/DTD/sodipodi-0.dtd"
   xmlns="http://www.w3.org/2000/svg"
   xmlns:svg="http://www.w3.org/2000/svg"
   xmlns:rdf="http://www.w3.org/1999/02/22-rdf-syntax-ns#"
   xmlns:cc="http://creativecommons.org/ns#"
   xmlns:dc="http://purl.org/dc/elements/1.1/"><defs
     id="defs37" /><sodipodi:namedview
     id="namedview35"
     pagecolor="#ffffff"
     bordercolor="#666666"
     borderopacity="1.0"
     inkscape:pageshadow="2"
     inkscape:pageopacity="0.0"
     inkscape:pagecheckerboard="0"
     showgrid="false"
     inkscape:zoom="0.26933048"
     inkscape:cx="1468.4562"
     inkscape:cy="306.31513"
     inkscape:window-width="1920"
     inkscape:window-height="991"
     inkscape:window-x="-9"
     inkscape:window-y="-9"
     inkscape:window-maximized="1"
     inkscape:current-layer="svg4716"
     showguides="false" /><metadata
     id="metadata4722"><rdf:RDF><cc:Work
         rdf:about=""><dc:format>image/svg+xml</dc:format><dc:type
           rdf:resource="http://purl.org/dc/dcmitype/StillImage" /><dc:title /></cc:Work></rdf:RDF></metadata><path
     id="path9768"
     style="color:#000000;opacity:1;fill:#ffffff;stroke-width:0.485696;-inkscape-stroke:none"
     d="M 10.491955,-0.00121985 1.869955,18.42568 c -3.6357,7.7701 -1.39909996,14.211 1.8592,18.8794 l 79.3479,113.6858 c -18.2528,0.7205 -35.3631,1.4325 -57.542,2.1742 -3.404,0.114 -9.667,1.5237 -13.4922,6.4686 -3.8255,4.9453 -3.6778,9.2475 -3.6778,12.1698 0,7.5447 3.3377,14.1475 7.2389,18.9571 3.9012,4.8096 8.4506,8.439 13.1563,11.8482 5.6154,4.0682 7.1051,5.1528 10.1835,16.5354 5.4036,31.9229 15.2867,74.8078 23.8178,109.732 4.9657,20.3289 12.8932,35.6225 24.6004,46.3693 11.7072,10.7467 26.211505,16.2135 42.176405,19.7947 l 144.2227,32.9767 225.9867,289.764 225.32181,-288.9111 147.95079,-33.8296 c 15.96493,-3.5812 30.46912,-9.048 42.17639,-19.7947 11.70727,-10.7468 19.63467,-26.0404 24.60044,-46.3693 8.53094,-34.9242 18.41325,-77.8091 23.81689,-109.732 3.07833,-11.3827 4.56799,-12.4672 10.18339,-16.5354 4.70577,-3.4092 9.25513,-7.0386 13.15634,-11.8482 3.90121,-4.8096 7.23888,-11.4124 7.23888,-18.9571 0,-2.9223 0.14677,-7.2245 -3.67872,-12.1698 -3.82551,-4.9453 -10.08842,-6.3548 -13.49216,-6.4686 -23.1839,-0.7753 -41.10662,-1.5202 -60.14885,-2.2729 l 78.34898,-112.7989 c 5.87476,-8.4578 5.11336,-17.155 0.32917,-24.1252 L 987.21942,1.8295801 851.50198,148.52738 c -28.57168,-0.9802 -60.83842,-1.9688 -107.71338,-3.0005 -81.42703,-1.7924 -166.34737,-1.4268 -222.36594,-1.5966 -4.3435,-0.013 -6.6167,-1.3823 -8.5697,-3.7973 l -11.5741,-14.3117 -11.574,14.3117 c -2.7088,3.3495 -5.8934,3.7733 -8.5299,3.7973 -76.0956,0.6942 -154.4527,0.2301 -222.4058,1.5966 -48.3353,1.0638 -81.3222,2.0825 -110.4444,3.0924 z M 456.45586,469.79108 l 20.8515,4.7678 c 4.3044,1.0716 10.5737,6.2453 12.83,9.469 l 11.1415,15.9177 11.1415,-15.9177 c 2.2564,-3.2237 8.5257,-8.3974 12.83,-9.469 l 16.8882,-3.8619 -42.3908,42.6203 z" /><path
     style="color:#000000;opacity:1;fill:#ffffff;stroke-width:0.485696;-inkscape-stroke:none"
     d="m 841.26044,682.61668 -725.28118,33.8356 4.4357,283.5357 730.79277,-99.2263 53.21695,-110.9711 z"
     id="path25374"
     sodipodi:nodetypes="cccccc" /><path
     style="color:#000000;opacity:1;fill:#000000;stroke-width:0.485696;-inkscape-stroke:none"
     d="m 838.3197,688.05318 -716.96744,33.4486 0.276,17.6322 3.9871,254.8046 722.05305,-98.0395 50.7619,-105.8524 z"
     id="path25348"
     sodipodi:nodetypes="ccccccc" /><path
     style="color:#000000;opacity:1;fill:#ffffff;stroke-width:0.485696;-inkscape-stroke:none"
     d="m 832.64122,698.55368 -700.91096,32.6981 0.1204,7.7219 3.8068,243.2845 705.17515,-95.7486 46.02257,-95.9687 z"
     id="path25322"
     sodipodi:nodetypes="ccccccc" /><path
     style="color:#000000;opacity:1;fill:#000000;stroke-width:46.9663;-inkscape-stroke:none"
     d="m 139.81546,738.84908 3.6661,234.3079 692.02522,-93.9622 42.32934,-88.2683 -49.61967,-84.1928 z"
     id="path25372" /><path
     id="path9742"
     style="color:#000000;opacity:1;fill:#000000;stroke-width:0.485691;-inkscape-stroke:none"
     d="m 12.460255,11.49798 -4.8617,10.2412 c -1.5526,3.2706 -1.3525,7.2686 0.6375,10.1217 l 87.3334,125.2191 c -22.063,0.8718 -42.8842,1.7375 -69.8144,2.6381 -2.5197,0.084 -6.2491,0.9838 -8.5261,3.9273 -2.277,2.9435 -2.3071,5.7673 -2.3071,8.1581 0,5.7087 2.4852,10.772 5.7743,14.8268 3.289,4.0549 7.4255,7.4187 11.9108,10.6682 6.3554,4.6043 9.343,7.7965 12.7218,20.3279 5.3282,31.6056 15.2521,74.6933 23.8018,109.694 4.7713,19.5332 12.1222,33.4166 22.6652,43.0947 10.536505,9.6719 23.753205,14.764 39.148405,18.22 h 0.019 c 0,5e-4 0.01,0 0.01,0 l 146.6492,33.5316 222.1259,284.8142 221.46189,-283.9623 150.37545,-34.3835 c 0.003,0 0.005,0 0.009,0 h 0.019 c 15.39528,-3.456 28.61197,-8.5481 39.14841,-18.22 10.54304,-9.6781 17.89389,-23.5615 22.66526,-43.0947 8.54968,-35.0007 18.47359,-78.0884 23.80171,-109.694 3.37885,-12.5314 6.36653,-15.7236 12.72188,-20.3279 4.48526,-3.2495 8.62171,-6.6133 11.91082,-10.6682 3.28905,-4.0548 5.77422,-9.118 5.77422,-14.8268 0,-2.3908 -0.03,-5.2146 -2.30704,-8.1581 -2.27706,-2.9435 -6.00639,-3.843 -8.52615,-3.9273 -27.88882,-0.9325 -49.42606,-1.8295 -72.29966,-2.732 l 85.91419,-123.4917 c 2.83881,-4.0804 3.54032,-10.0659 0.67731,-14.3847 l -4.6226,-6.9733 -132.19713,143.0445 c -29.15333,-1.0121 -62.18223,-2.0326 -110.63132,-3.0991 -74.04957,-1.4558 -148.15223,-1.5946 -222.24164,-1.5946 -7.3149,0 -10.317,-1.2195 -14.2415,-6.462 l -5.8815,-7.8565 -5.8813,7.8565 c -3.9246,5.2425 -6.9268,6.462 -14.2416,6.462 -74.0895,0 -148.1921,0.1388 -222.2416,1.5946 -50.0274,1.1011 -83.8404,2.1535 -113.5825,3.1978 z m 422.655605,446.6867 43.7519,10.0042 c 6.5413,1.6173 13.5316,7.6353 16.6417,12.0787 l 5.7694,8.2434 5.7695,-8.2434 c 3.11,-4.4434 10.1003,-10.4614 16.6416,-12.0787 l 39.78868,-9.0982 -63.73088,64.0761 z" /><path
     id="path9766"
     style="color:#000000;opacity:1;fill:#ffffff;stroke-width:27.1987;-inkscape-stroke:none"
     d="m 985.32408,23.36418 -128.5554,138.9465 c -29.67518,-1.0412 -63.39927,-2.0903 -113.27984,-3.1883 -81.19716,-1.7873 -166.01599,-1.5931 -222.06618,-1.5927 -11.9139,0.035 -16.4808,-4.3192 -20.1438,-10.2574 -3.663,5.9382 -8.2299,10.2923 -20.1438,10.2574 -56.0502,-4e-4 -140.869,-0.1946 -222.0661,1.5927 -59.3708,1.3068 -97.8273,2.5496 -131.0209,3.785 L 13.436455,25.20638 c 0,0 -0.6554,2.0353 0.4049,3.5449 l 94.749705,134.8846 c -26.408305,1.0297 -50.711505,2.0546 -82.600705,3.1209 -3.1408,0.1051 -4.026,1.4071 -4.026,5.0467 0,7.4738 6.278,13.6362 14.7748,19.7919 7.1427,5.1747 11.7808,10.6997 15.4425,24.3652 5.2433,31.257 15.2169,74.5906 23.7903,109.6884 9.1252,37.3567 26.923705,49.477 56.542205,56.121 l 148.6888,33.9974 182.7204,234.2881 189.69082,-218.7982 216.42942,-49.4873 c 29.61856,-6.644 47.41707,-18.7643 56.54223,-56.121 8.57332,-35.0978 18.54704,-78.4314 23.79032,-109.6884 3.66168,-13.6655 8.29979,-19.1905 15.44251,-24.3652 8.49673,-6.1557 14.77468,-12.3181 14.77468,-19.7919 0,-3.6396 -0.8852,-4.9416 -4.02591,-5.0467 -39.25682,-1.3127 -67.77024,-2.5734 -101.83291,-3.8418 L 985.20457,24.78038 c 0.28423,-0.3554 0.35116,-0.9069 0.11951,-1.4162 z m -653.14152,404.0607 148.3567,33.9215 c 8.9513,2.2053 16.7121,9.1286 20.7396,14.8829 4.0276,-5.7543 11.7884,-12.6776 20.7396,-14.8829 l 61.79091,-14.1286 -123.25261,123.9196 z" /><path
     style="color:#000000;opacity:1;fill:#c42220;fill-opacity:1;stroke-width:45.1693;-inkscape-stroke:none"
     d="m 501.27876,178.42288 c -140.3687,0 -289.0416,-0.2357 -408.557905,15.8096 -12.7824,1.7161 -19.8857,5.6528 -17.816,17.9915 4.9631,29.5863 15.5751,72.445 23.5685,108.5415 4.470705,20.1882 19.350905,34.5632 38.984105,38.9672 l 358.3059,80.3734 c 1.2472,0.2797 3.5924,0.5236 5.5154,0.5236 1.9229,0 4.2681,-0.2439 5.5153,-0.5236 l 358.30593,-80.3734 c 19.63325,-4.404 34.51436,-18.779 38.98499,-38.9672 7.99349,-36.0965 18.60548,-78.9552 23.56847,-108.5415 2.06977,-12.3387 -5.03451,-16.2754 -17.81682,-17.9915 -119.51631,-16.0453 -268.18921,-15.8096 -408.55787,-15.8096 z"
     id="path6407" /><path
     id="path7393"
     style="opacity:1;fill:#000000;stroke-width:0.420257"
     d="m 197.85136,9.3362801 c -7.1585,-0.01 -14.86,0.7068999 -21.8257,3.1504999 0,0 -2.0106,-0.085 -3.7704,2.6551 -1.8854,2.6557 -2.9198,4.1895 -1.9561,6.1707 0.9636,2.0234 4.7897,2.4702 9.1889,0.9527 0,0 2.0113,-1.2648 -0.5027,-2.1078 -2.5138,-0.8431 -3.6176,-0.8547 -3.6176,-0.8547 0,0 -1.2565,-0.2526 0.1262,-0.9271 1.2569,-0.6323 16.4748,-4.6811 42.2005,2.1056 25.7676,6.576 60.7532,27.4847 59.7058,49.3201 -1.0332,23.3656 -34.902,23.495 -34.902,23.495 0,0 -6.9552,0.098 -16.2567,-1.6729 -0.2095,-7.1239 -0.5026,-19.7992 -0.5026,-27.176 5.9025,0 10.691,0.9027 15.4369,1.759 5.9332,1.0705 11.1757,3.1492 11.8215,4.1665 0.3277,0.5163 0.1511,1.5493 -2.1491,2.9136 -2.5529,1.5141 -3.7417,3.1453 -1.3954,4.2414 0,0 2.5151,0.3243 4.61,0.1557 2.0949,-0.1686 6.6611,-2.1353 7.1639,-8.0367 0.5446,-5.9858 -6.5829,-11.6012 -16.8732,-13.4661 -7.8527,-1.4233 -11.9497,-1.9441 -18.9886,-1.6069 -0.084,-6.4916 -0.087,-13.8284 -1.5112,-15.7253 -1.7598,-2.5291 -3.9545,-6.408 -5.5046,-2.6141 -1.299,3.1615 -2.5577,10.1947 -2.9767,19.4685 -10.8098,1.8125 -22.3981,6.0885 -26.0433,10.641 -1.2941,1.6801 -2.295,2.9522 -2.3474,4.2901 -0.1054,2.6905 2.0481,4.7979 2.3279,5.0794 0.2515,0.4216 8.3129,12.4532 25.4913,20.2938 0.3351,3.1193 0.583,6.3645 1.756,8.2615 2.6815,3.9624 7.2601,1.5182 7.8466,0.8438 0.5028,-0.5059 1.1199,-1.5306 1.3293,-4.6499 7.6255,2.0234 23.0684,3.8674 37.7483,-1.154 13.677,-4.6784 25.5665,-13.7039 25.5665,-29.1286 0,-8.4315 -5.53,-30.1392 -41.898,-48.6024 0,0 -23.7318,-12.2214999 -49.2983,-12.2414999 z m 17.2682,55.9553999 c 0,6.3652 -0.7612,13.6936 -0.7249,22.9583 -8.9751,-2.6974 -15.8055,-7.4044 -22.593,-14.6968 0,0 -2.5142,-2.6982 1.089,-4.3844 3.3519,-1.5175 9.9107,-3.034 22.2289,-3.8771 z"
     sodipodi:nodetypes="sscccscccccccssscscscccccscccccsccssccccc" /><path
     id="path7389"
     style="opacity:1;fill:#000000;stroke-width:0.433261"
     d="m 443.53616,51.08788 c -0.7921,-0.037 -1.8597,0.853 -1.8597,0.853 -11.7624,10.5139 -12.6025,22.317 -12.6025,22.317 -1.0891,6.291 0.092,10.9978 2.0084,14.0141 -6.5782,13.8748 -8.7703,25.3355 -8.5867,32.5388 0.042,1.6544 0.8721,4.6383 3.4941,6.8244 1.9766,1.648 4.4709,2.5731 5.3267,2.0672 0.3419,-0.2021 0.1977,-1.8476 0.6009,-4.3616 0.4723,-2.945 1.5326,-7.0817 2.5565,-11.486 1.6117,-6.9335 4.508,-14.5528 6.3316,-18.9963 l 0.087,0.043 c 11.3023,2.4498 21.1448,-9.2175 24.8318,-14.8225 1.7807,-3.1147 2.8541,-7.15 2.9931,-11.1085 0.184,-5.2417 -2.6365,-11.9409 -6.36,-13.2938 -7.476,-2.7167 -21.0364,14.6471 -26.2081,23.7024 -2.4365,-3.5994 1.5627,-11.4083 1.5627,-11.4083 0,0 4.8905,-8.2865 5.5874,-10.0963 0.7842,-1.8958 1.5138,-6.2776 0.5554,-6.7085 -0.098,-0.049 -0.2055,-0.072 -0.3187,-0.078 z m 17.8526,12.4659 c 1.0466,0.1009 1.251,1.5828 1.251,1.5828 0.8277,7.2391 -2.4323,11.8773 -5.9191,14.9355 -1.4375,1.3358 -6.4179,3.884 -11.2099,4.4011 4.7698,-8.3584 9.7234,-15.5449 12.9472,-18.992 1.3724,-1.5511 2.3028,-1.9881 2.9308,-1.9274 z"
     sodipodi:nodetypes="scccssssscccssccccsssccccs" /><path
     id="path7383"
     style="opacity:1;fill:#000000;stroke-width:0.420725"
     d="m 307.34406,15.48798 c -16.7958,1.295 -21.9055,12.8066 -22.6609,15.9276 -0.5877,2.657 -0.843,7.2419 2.4306,10.1943 -0.306,4.094 0.9921,7.5358 3.1879,7.4362 1.0912,-0.1688 2.0291,-0.9706 3.498,-3.6275 3.3575,1.4761 7.4155,2.0519 13.2073,0.07 8.9817,-3.0788 17.9632,-11.5554 17.9632,-18.7253 0.1679,-7.1697 -7.5798,-6.8033 -7.5798,-6.8033 -0.4321,-3.2274 -6.4008,-4.6855 -10.0463,-4.4717 z m -5.4373,8.7169 c -5.2463,3.627 -8.4479,7.3643 -11.6039,10.8237 -0.7974,-1.0965 -0.5441,-2.2344 1.1347,-4.9758 2.3084,-3.6271 6.4401,-5.4263 10.4692,-5.8479 z m 14.2413,1.0868 c 4.187,0.1375 2.3592,5.0571 2.3592,5.0571 -2.1356,4.3303 -5.418,6.1237 -8.8658,7.3036 -4.1412,1.4174 -8.5459,1.7002 -11.821,1.1019 3.9032,-5.8624 11.5377,-12.4967 16.826,-13.3402 0.5704,-0.099 1.0684,-0.1366 1.5016,-0.1224 z"
     sodipodi:nodetypes="cccccccccsccscsccsc" /><path
     style="opacity:1;fill:#000000;stroke-width:0.415781"
     d="m 303.03286,93.66028 c -2.4692,1.6567 -6.501,0.9524 -7.7049,-0.7133 -1.1623,-1.4575 -1.179,-7.3237 -0.9715,-16.3602 0.2906,-9.2446 0.4152,-20.5713 2.4908,-22.4036 2.0757,-1.7907 3.3211,-0.2082 4.1514,0.9994 0.8302,1.2493 1.9097,2.6235 2.0757,5.4968 0.249,2.915 0.9548,17.9063 0.9548,17.9063 0,0 0.9133,13.6588 -0.9548,15.0746"
     id="path7381"
     sodipodi:nodetypes="cccccccc" /><path
     style="opacity:1;fill:#000000;stroke-width:0.424732"
     d="m 349.70526,57.31158 c -0.6685,1.2089 -0.6023,1.8966 -3.4852,2.3716 -0.3003,0.049 -2.1472,0.5821 -4.5082,0.8634 -2.2278,0.2655 -4.8958,0.2722 -7.7228,0.5765 -8.0122,0.8621 -16.6615,1.8021 -17.4601,2.9773 0,0 -0.9191,1.2089 0.585,1.5113 1.5877,0.3453 8.2971,1.2886 11.3053,1.4613 3.2589,0 14.2455,0.3653 18.2565,5.4602 0,0 2.2183,1.7005 2.1347,7.184 -0.084,5.6129 -2.1204,7.9976 -4.2513,10.0269 -1.2392,1.0632 -6.6502,3.8916 -14.2687,4.1662 -5.9945,0.2159 -12.6896,-1.3959 -18.0804,-7.328 -1.4271,-1.5704 -2.0553,-3.2604 -2.1125,-5.1517 -0.055,-1.8234 0.7229,-3.552 4.4348,-5.968 0,0 2.9059,-1.8677 10.6917,-1.0325 2.2961,0.2464 5.1258,0.4004 8.2945,1.3148 0,0 4.4172,1.6341 4.25,3.2317 -0.2506,1.727 -3.7069,3.3744 -8.3864,3.288 -4.5123,-0.1295 -7.8549,-2.3747 -7.1864,-1.9861 0.6267,0.2159 -5.5259,-2.4445 -7.239,-0.4152 -1.6712,1.8998 -0.9346,2.7833 0.7366,3.9491 2.5521,1.5295 9.7106,1.478 16.0722,0.1342 4.0535,-0.8562 7.8307,-2.0713 9.7332,-4.2725 0,0 0.6513,-0.3739 0.6579,-1.1908 0.01,-0.7128 -0.5175,-1.8102 -1.8998,-2.6753 -2.9246,-1.7271 -11.2089,-3.0854 -14.5096,-3.215 -3.1336,-0.1727 -14.8741,0 -16.629,-3.1519 0,0 -1.9502,-1.4881 -0.1118,-7.6192 1.9219,-6.4764 16.0227,-9.1003 21.9556,-9.6183 0,0 15.7767,-0.3322 18.8267,3.1219 0,0 0.4179,0.7772 -0.084,1.9429"
     id="path7379"
     sodipodi:nodetypes="csssccccccssscsccccccscsccccccc" /><path
     id="path7377"
     style="opacity:1;fill:#000000;stroke-width:0.429867"
     d="m 375.91656,46.15838 c -0.517,0 -1.088,0.2151 -1.3035,1.0729 -0.4739,1.8872 0.2154,3.8599 0.2154,3.8599 4.739,15.441 5.3768,24.9713 5.3768,24.9713 0,0 0.1726,2.7448 -0.3444,2.8735 -0.3446,0.3431 -0.776,-0.086 -0.776,-0.086 -0.5169,0.043 -6.0075,-8.7216 -6.0075,-8.7216 l -0.9477,-1.6297 c -5.6007,-8.8785 -8.8382,-11.8814 -8.8382,-11.8814 -0.7755,-0.772 -1.6488,-2.5121 -4.2338,0.3187 -2.4556,2.7879 -4.3289,11.6532 -5.389,20.0718 -1.0528,8.3608 -0.5064,12.531 0.7238,14.5518 1.4648,2.0159 3.6268,3.2239 5.7809,1.5083 1.2566,-0.9327 1.3477,-4.0072 1.5376,-7.8053 0.1682,-3.3633 0.4873,-7.3553 0.6897,-10.0345 0.3016,-5.7474 0.2419,-7.2531 0.2419,-7.2531 0.517,-0.1715 4.173,6.9202 4.173,6.9202 0,0 6.9359,14.0686 11.3302,16.1274 4.3083,2.0159 7.8186,-2.3538 9.2329,-5.4318 1.8632,-4.0549 1.7522,-9.8324 1.2717,-15.3019 -0.2804,-3.1916 -0.9784,-6.3679 -1.9013,-9.0166 -3.78,-10.849 -9.8526,-14.9 -9.8526,-14.9 0,0 -0.463,-0.2145 -0.9799,-0.2145 z"
     sodipodi:nodetypes="ssccccccccsccsccccssscs" /><path
     id="path2"
     style="opacity:1;fill:#000000;stroke-width:0.431767"
     d="m 420.17796,52.77138 c -7.7704,-0.155 -23.102,1.9404 -24.6402,2.75 -1.5544,0.6908 -1.3488,1.7912 0.1659,3.7669 2.1589,2.6769 6.148,2.7794 6.148,2.7794 l -2.2591,7.3581 c -2.5905,0.018 -3.3049,-0.2795 -4.1476,1.036 -0.5904,0.9215 -0.1415,1.6828 0.2368,2.6524 0.2327,0.5965 0.3681,0.9172 0.3724,1.5122 0.01,1.2883 -0.7197,2.6081 -1.1222,3.8957 -1.3247,4.2357 -3.1029,6.4119 -0.7394,11.7706 1.7538,3.9765 3.3928,5.9944 6.6099,5.9944 3.2922,0 7.8641,-0.2208 11.7875,-2.2881 5.5957,-2.9482 9.8923,-5.4754 10.2925,-7.051 0.2599,-0.9655 -0.01,-1.6738 -0.3633,-2.474 -0.469,-1.0609 -1.207,-2.1027 -2.2407,-2.3488 -1.727,-0.3454 -14.6137,1.5215 -16.1682,1.9532 -1.6839,0.4317 -0.9504,-1.1231 -0.9504,-1.1231 l 2.7073,-7.459 c 0,0 4.9387,0.2053 8.9843,0.3737 2.0665,0.048 5.7196,-0.2905 6.2836,-2.5062 0.575,-2.3273 0.027,-3.5715 -0.9201,-4.2185 -1.7495,-1.1957 -12.0398,-0.5511 -12.0398,-0.5511 l 1.8005,-5.7458 c 0,0 11.0214,0.2762 16.042,-1.017 1.8263,-0.4703 2.5714,-2.177 1.9249,-3.538 -1.3583,-2.8598 -2.7065,-3.9807 -3.7222,-4.6557 -1.053,-0.6998 -3.109,-0.8663 -4.0424,-0.8663 z"
     sodipodi:nodetypes="cccccsscsssscsccccccsccsssc" /><path
     id="path4854-8"
     d="m 543.52276,86.86718 c 3.3175,0.4384 6.664,0.7198 9.9815,1.0424 l 0.94727,4.0373 c -5.52647,-0.3268 -11.18537,-0.4012 -16.72007,-0.4012 -5.2906,0 -10.6683,0.046 -15.9631,0.4177 l 0.7778,-4.0165 c 2.7756,-0.3641 5.5636,-0.6164 8.331,-1.0508 0.2689,-4.8605 0.3102,-20.0127 0.3102,-26.8795 v -3.1809 c 0,-2.3331 -0.042,-14.8422 -0.3102,-18.8092 -2.7508,-0.5915 -5.6382,-0.7114 -8.4469,-0.9596 l -0.5543,-3.938 19.7521,-0.07 c 8.6786,0 16.23615,0.7115 20.36448,2.3951 7.63615,3.1769 8.53789,8.5338 8.53789,10.8751 0,13.8575 -13.61764,20.2072 -25.47307,21.837 l 0.5212,-4.3186 c 7.20182,-1.7829 12.40562,-5.7788 12.40562,-14.6434 0,-4.451 -2.19236,-7.992 -5.79538,-9.779 -2.11794,-1.0341 -5.50994,-1.5181 -8.67854,-1.6215 -0.2441,3.6237 -0.2936,13.2247 -0.2936,19.2682 v 3.3589 c 0,6.1718 0.05,22.0934 0.3061,26.4369"
     style="opacity:1;fill:#000000;stroke-width:4.13658" /><path
     id="path4856-85"
     d="m 600.56617,86.90858 c 2.73012,0.4839 5.51407,0.7238 8.26074,0.9927 l 0.97624,4.0952 c -5.65886,-0.5171 -11.62382,-0.4591 -17.24126,-0.4591 -4.62886,0 -9.27012,0.1116 -13.84931,0.4012 l 0.76529,-4.058 c 2.76321,-0.1571 5.58023,-0.5584 8.30212,-1.001 0.26886,-4.513 0.3516,-17.659 0.3516,-24.8857 v -4.6743 c 0,-2.4241 -0.0827,-15.111 -0.32267,-19.2351 -2.73837,-0.4137 -5.49334,-0.7405 -8.23177,-1.0259 l -0.96385,-4.1035 c 5.64643,0.5957 11.76447,0.4964 17.38191,0.4964 4.54613,0 9.27836,0.01 13.8121,-0.5129 l -0.9804,4.12 c -2.75911,0.2854 -5.52231,0.7529 -8.27319,1.1086 -0.21509,2.7757 -0.27714,10.8296 -0.27714,19.5578 v 4.9183 c 0,9.4438 0.0621,21.018 0.28959,24.2653"
     style="opacity:1;fill:#000000;stroke-width:4.13658" /><path
     id="path4858-6"
     d="m 657.98191,78.34588 c -4.26897,-5.0012 -7.88431,-9.6176 -9.94017,-12.0747 -2.81702,3.8263 -9.78305,14.7345 -12.92269,20.7822 1.95244,0.3598 3.91733,0.6659 5.89044,0.8935 l 0.55846,3.909 h -1.34853 c -1.26164,0 -8.06219,-0.3102 -12.60831,-0.3102 -3.48299,0 -6.86254,0.1613 -10.35797,0.4426 l 1.35267,-4.0414 c 1.77872,-0.2648 3.70222,-0.4386 5.35274,-1.0839 3.3961,-2.2792 17.06339,-20.3809 20.65804,-24.989 -2.76734,-3.5533 -6.49025,-8.4263 -9.99807,-12.9393 -3.60711,-4.6371 -6.9495,-8.8398 -8.76544,-10.7964 -1.8077,-0.5585 -3.72707,-0.8026 -5.57198,-1.1624 l -0.58323,-4.0911 c 4.37235,0.7363 9.23699,0.575 13.55967,0.575 5.00115,0 10.01882,-0.1696 14.99099,-0.4013 l -1.14582,4.0084 c -1.96489,0.211 -3.92563,0.455 -5.86982,0.8355 2.2172,3.5245 8.02496,12.1037 10.57313,15.4998 2.68876,-3.6609 8.12839,-11.4418 10.47795,-15.5452 l -1.39815,-0.2772 c -1.18725,-0.211 -2.362,-0.3806 -3.49542,-0.5584 l -0.78185,-4.0166 c 4.15316,0.3557 8.35178,0.455 12.53802,0.455 3.20169,0 6.38689,-0.1779 9.58443,-0.4467 l -0.38467,3.9007 c -1.87804,0.4964 -3.75604,0.8522 -5.66301,1.303 l -0.66597,0.6453 c -2.75497,2.6144 -5.26585,5.5473 -7.79748,8.3808 -3.67325,4.1572 -7.44168,8.5379 -9.1501,10.5897 8.81919,12.0539 17.43982,24.3354 26.49894,36.1868 l -6.43236,1.274 c -6.30006,-4.7612 -12.05401,-11.0157 -17.15444,-16.9475"
     style="opacity:1;fill:#000000;stroke-width:4.13658" /><path
     id="path4860-8"
     d="m 715.1495,41.77848 c -2.27512,6.3455 -5.51823,15.0902 -6.84192,18.9165 l 13.42322,0.2648 c -1.66291,-4.9473 -4.80259,-13.8452 -6.5813,-19.1813 z m 15.60319,45.2086 c -2.41167,-7.0487 -4.55436,-14.416 -7.54516,-21.2537 -3.49953,0.062 -13.2412,0.5212 -16.77795,0.9141 -0.91834,2.8709 -4.15316,14.4285 -5.13349,20.3396 2.14275,0.4798 4.35166,0.6826 6.53163,0.906 l 0.77354,4.0373 c -4.7157,-0.2896 -9.49345,-0.4013 -14.2133,-0.4013 -3.52435,0 -7.08594,0.1199 -10.59376,0.4426 l 0.55845,-4.0786 c 2.39508,-0.2276 4.75707,-0.5544 7.10247,-1.0466 3.11071,-6.1428 16.2444,-41.4278 19.03243,-48.9979 -1.92766,-0.3846 -3.89249,-0.5873 -5.84913,-0.8272 l -0.16957,-4.0002 c 4.07865,0.2897 8.22351,0.422 12.30632,0.422 5.21209,0 10.53999,-0.062 15.72726,-0.422 l -0.57499,4.0126 c -1.86554,0.2068 -3.77252,0.4302 -5.6133,0.8356 1.42298,4.5585 5.26171,15.5369 8.00014,23.0904 2.16343,5.9732 6.89567,18.78 10.50692,25.8867 2.40751,0.4674 4.84395,0.7777 7.25556,1.0963 l 0.59567,4.1448 c -4.77775,-0.7984 -10.5979,-0.5585 -15.35497,-0.5585 -4.93909,0 -10.01883,0.046 -14.9703,0.4426 l 0.97209,-4.0911 c 2.49435,-0.2109 4.97216,-0.4301 7.43344,-0.8935"
     style="opacity:1;fill:#000000;stroke-width:4.13658" /><path
     id="path4862-5"
     d="m 787.33283,59.64848 c 3.1976,-1.1955 8.29803,-4.5544 8.29803,-11.7231 0,-4.0538 -3.54095,-9.7871 -16.09136,-10.1222 -0.20265,4.6082 -0.33506,16.8607 -0.33506,21.9984 v 1.2616 c 2.51504,-0.054 5.31552,-0.3847 8.12839,-1.4147 z m -20.43886,-21.5557 c -2.7715,-0.4055 -5.64643,-0.6122 -8.47169,-0.8563 l -0.56259,-3.9463 19.28474,-0.079 c 7.47066,0 17.94865,0.07 23.63231,2.3164 4.53782,1.8077 7.57409,5.1832 7.57409,10.1637 0,5.3858 -5.66297,11.8678 -11.54109,15.508 5.59683,9.4976 16.35191,24.3934 23.55787,32.013 l -6.85436,0.9224 c -5.74571,-2.6308 -23.30549,-22.565 -28.36454,-28.6623 -2.20476,0.1737 -4.4551,0.3391 -5.94427,0.3888 v 0.939 c 0,4.8026 0.13241,15.7107 0.34751,20.1577 2.68876,0.4549 5.49338,0.7238 8.22766,0.9513 l 0.77354,4.0787 c -4.99284,-0.4095 -10.13464,-0.4426 -15.12334,-0.4426 -5.16663,0 -10.53176,0 -15.66524,0.4426 l 0.76938,-4.0911 c 2.76326,-0.211 5.62575,-0.4508 8.33934,-0.9762 0.26061,-3.9463 0.33511,-17.6673 0.33511,-25.3117 v -4.844 c 0,-2.6971 -0.0745,-15.2558 -0.31443,-18.6725"
     style="opacity:1;fill:#000000;stroke-width:4.13658" /><path
     id="path4850-5"
     style="opacity:1;fill:#ffffff;stroke-width:3.60115"
     d="m 342.12876,210.34668 c -68.8276,-0.9411 -146.5174,17.2133 -176.8674,56.2386 -5.6074,7.2249 -10.5433,14.7168 -13.1089,26.9028 -10.6125,52.7155 71.9636,55.6762 112.5447,55.7207 0,0 129.9549,0.052 131.3725,0.052 17.3389,0.027 32.2779,-3.9739 41.6997,-11.5833 0.6953,7.129 2.876,9.9302 8.9547,10.3887 19.3685,1.461 53.6761,1.5735 74.5316,-1.1259 18.0554,-2.3371 29.2306,-8.6309 39.17014,-16.5423 11.2184,-8.9293 20.92293,-22.9054 27.10813,-38.5872 l 35.1308,0.049 -24.54798,37.6958 c -7.1673,11.0061 -3.83515,19.4608 13.76025,19.4904 l 24.36708,0.01 c 44.6449,0.5824 71.90589,-10.6556 92.07092,-24.4915 6.26126,-4.2961 11.8384,-9.1227 17.03938,-13.5653 5.86295,-5.008 11.54396,-9.7739 16.83447,-14.2005 0.53893,-0.4509 2.03013,-0.5134 2.48849,0.08 8.63331,11.1722 8.86003,42.4636 -6.7333,42.4376 l -33.60081,0.06 c -0.85368,0 -1.91619,0.2002 -2.55168,0.7364 l -11.7038,8.5367 c -0.23451,0.2149 -0.19586,0.4928 0.12617,0.4743 l 107.18533,0.2562 c 14.76733,0.026 27.18642,-1.8977 31.12498,-9.6565 h -48.84502 c -0.72011,0 -0.70031,-1.9534 -0.49146,-2.6452 8.99264,-5.0474 10.86495,-11.5155 10.83697,-18.0956 -0.098,-21.3411 -15.66753,-33.9212 -9.0942,-40.3754 3.54219,-3.479 25.44208,-22.5184 -16.73747,-22.9096 0,0 -0.50417,-2e-4 -0.98373,0.3036 l -26.1399,17.5845 c 0,0 -1.23096,7.7211 2.2018,13.0604 0,0 0.39848,0.5001 -0.0494,0.9144 -4.92385,4.5564 -12.24728,10.3182 -20.22907,16.4873 -4.82472,3.7288 -9.8493,7.9853 -15.40727,11.7645 -8.97179,6.1004 -19.33344,11.5975 -32.48774,16.4155 -15.0042,5.4955 -34.51835,7.9324 -54.61526,6.7726 l 36.19034,-56.6178 -81.25017,-0.1559 c 4.54442,-12.9663 1.44918,-21.809 -12.39055,-22.4159 -22.08963,-0.678 -26.14597,17.322 -23.67448,22.7628 4.55025,9.9296 15.44141,9.5717 16.84847,9.5013 0,0 0.36869,-0.097 0.27415,0.259 -22.06348,44.9836 -44.41388,46.8993 -87.99038,46.6581 0.5465,-1.8081 1.4916,-3.5868 2.7397,-5.4245 l 34.6561,-51.0311 c -0.8886,-0.5286 -1.874,-0.82 -3.0243,-0.82 l -72.7814,-0.086 c -13.9289,0 -30.2146,2.6153 -44.246,8.3307 -17.0576,6.9478 -30.8598,18.4199 -34.0142,34.6181 -0.9331,4.7918 -0.7667,10.7753 2.5237,15.0182 h -79.4514 c -28.0293,-0.7262 -48.156,-5.787 -61.7437,-15.0052 -6.4262,-4.3794 -17.8402,-16.2214 -16.0446,-35.5952 0.84,-9.0478 5.0804,-22.6338 23.1448,-37.028 17.3959,-13.8495 50.1972,-30.1857 116.6201,-29.4706 0,0 -22.5596,22.6499 4.4653,27.2779 14.1227,2.4185 33.6905,-1.5203 38.9105,-15.5052 8.4732,-22.7003 -26.6752,-23.9208 -54.1157,-23.9208 z m 104.3173,79.8743 h 21.8656 l -21.1893,31.3328 c -3.4703,5.1316 -14.5867,9.9187 -21.8655,9.9187 -9.7538,0 -15.7379,-6.6064 -11.834,-14.8771 1.8222,-3.8604 3.9762,-7.7681 6.847,-11.7783 4.5601,-7.6462 17.305,-14.5961 26.1762,-14.5961 z"
     sodipodi:nodetypes="ccccccsssccsccsssscccccccccccccccssssccccccccscccssccccccssccscscscs" /><circle
     style="opacity:1;fill:#000000;stroke-width:3.23998;stroke-dashoffset:6.67087;paint-order:stroke fill markers"
     id="path11942"
     cx="496.51688"
     cy="66.467918"
     r="4.8464432" /><path
     id="path32079"
     style="opacity:1;fill:#ffffff;stroke:none;stroke-width:0.485691px;stroke-linecap:butt;stroke-linejoin:miter;stroke-opacity:1"
     d="m 325.79256,745.33628 -125.1289,6.5037 2.897,197.8916 51.4558,-6.7086 -1.0017,-66.367 26.8638,-2.9606 24.7674,62.5118 46.6008,-6.4847 -24.426,-60.5207 16.4557,-18.0332 -1.3528,-89.6024 z m -38.2083,38.4332 10.1436,8.9036 0.7636,32.8858 -10.1216,10.9185 -34.9148,3.1428 -0.8102,-53.6528 z" /><path
     id="path33515"
     style="opacity:1;fill:#ffffff;stroke:none;stroke-width:0.485691px;stroke-linecap:butt;stroke-linejoin:miter;stroke-opacity:1"
     d="m 497.75666,736.54448 -93.3683,4.855 -15.8002,17.4934 2.2719,149.1917 16.0581,14.6646 93.4842,-12.592 14.2605,-17.7931 -1.7482,-140.6635 z m -32.6011,35.3341 7.7768,8.4531 1.1839,91.3782 -7.3546,8.8762 -24.7969,2.733 -8.1088,-6.9932 -1.4977,-93.1198 8.3117,-9.6646 z" /><path
     id="path34647"
     style="opacity:1;fill:#ffffff;stroke:none;stroke-width:0.485691px;stroke-linecap:butt;stroke-linejoin:miter;stroke-opacity:1"
     d="m 627.55856,730.12238 -41.16327,2.0718 -45.16163,172.5113 42.15263,-5.2979 4.70893,-21.7536 41.93258,-5.3503 5.02198,20.5992 39.15125,-5.0476 z m -19.12693,53.5958 14.05847,57.6654 -27.23284,3.1883 z" /><path
     id="path35476"
     style="opacity:1;fill:#ffffff;stroke:none;stroke-width:0.485691px;stroke-linecap:butt;stroke-linejoin:miter;stroke-opacity:1"
     d="m 785.19851,722.67098 -84.66013,4.4026 2.25391,158.0583 84.17349,-10.8579 11.82069,-15.2821 -1.67335,-123.3703 z m -26.69214,30.5265 6.48094,7.3821 1.00458,79.6837 -6.29691,7.8498 -22.31428,2.51 -1.11651,-95.9144 z" /><path
     style="color:#000000;opacity:0.99;fill:#000000;stroke-width:0.485696;-inkscape-stroke:none"
     d="m 240.83426,489.25678 -84.4495,95.9601 72.2075,104.7643 549.16503,47.9929 v -212.1839 z"
     id="path44390"
     sodipodi:nodetypes="cccccc" /><path
     style="color:#000000;opacity:0.99;fill:#ffffff;stroke-width:9.17956;-inkscape-stroke:none"
     d="m 242.78296,493.99008 -80.5867,91.5709 68.9489,100.0363 542.02199,47.3687 v -202.8873 l -17.49741,-1.1905 z"
     id="path44388" /><path
     style="color:#000000;opacity:1;fill:#000000;stroke-width:0.485696;-inkscape-stroke:none"
     d="m 246.87626,503.93168 -72.4731,82.3511 62.1047,90.1053 527.0184,46.0577 v -183.3589 l -8.51106,-0.5797 z"
     id="path25270"
     sodipodi:nodetypes="ccccccc" /><path
     style="color:#000000;opacity:1;fill:#ffffff;stroke-width:37.5439;-inkscape-stroke:none"
     d="m 754.3956,547.61718 v 164.8646 l -512.81004,-44.8155 -55.6214,-80.699 64.789,-73.6197 z"
     id="path25294" /><path
     id="path25639"
     style="opacity:1;fill:#000000;stroke:none;stroke-width:0.485691px;stroke-linecap:butt;stroke-linejoin:miter;stroke-opacity:1"
     d="m 286.23156,530.51468 -10.2943,10.0895 v 103.5253 l 12.1545,12.7304 51.7887,3.9453 11.4964,-10.9887 v -103.2407 l -11.4261,-11.9715 z m 17.9196,20.0738 17.931,1.3648 5.8999,6.4229 v 76.0422 l -5.5778,5.0379 -17.821,-1.3581 -5.2513,-5.9992 v -76.2333 z"
     sodipodi:nodetypes="cccccccccccccccccc" /><path
     id="path25793"
     style="opacity:1;fill:#000000;stroke:none;stroke-width:0.485691px;stroke-linecap:butt;stroke-linejoin:miter;stroke-opacity:1"
     d="m 370.09866,536.89898 v 126.2085 l 23.5503,1.7938 v -72.1156 l 24.6982,73.9977 23.2791,1.7729 v -126.2123 l -23.5504,-1.7928 v 71.0228 l -24.7466,-72.9068 z" /><path
     id="rect26045"
     style="opacity:1;fill:#000000;stroke:none;stroke-width:119.7;stroke-miterlimit:4;stroke-dasharray:none;stroke-dashoffset:6.67087;stroke-opacity:1;paint-order:stroke fill markers"
     d="m 491.99476,546.17838 v 19.1268 l 23.316,1.7749 v 107.0891 l 23.9507,1.8252 v -107.0911 l 23.42414,1.7835 v -19.127 z"
     sodipodi:nodetypes="ccccccccc" /><path
     id="rect26045-2"
     style="opacity:1;fill:#000000;stroke:none;stroke-width:118.852;stroke-miterlimit:4;stroke-dasharray:none;stroke-dashoffset:6.67087;stroke-opacity:1;paint-order:stroke fill markers"
     d="m 572.44875,552.30258 v 126.2199 l 23.61198,1.7985 v -53.4449 l 24.36519,1.8555 v 53.4459 l 23.61198,1.7986 v -126.2237 l -23.61198,-1.7976 v 54.0321 l -24.36519,-1.8555 v -54.0312 z" /><path
     id="rect26045-2-9-2"
     style="opacity:1;fill:#000000;stroke:none;stroke-width:118.284;stroke-miterlimit:4;stroke-dasharray:none;stroke-dashoffset:6.67087;stroke-opacity:1;paint-order:stroke fill markers"
     d="m 657.7454,558.79588 v 126.2246 l 55.64957,4.2393 v -18.7446 l -32.26241,-2.4579 v -34.7031 l 27.75459,2.1144 v -18.7447 l -27.75459,-2.1144 v -34.9052 l 32.33924,2.4616 v -19.1278 z"
     sodipodi:nodetypes="ccccccccccccc" /></svg>
