<svg version="1.1" id="Layer_1" xmlns="http://www.w3.org/2000/svg" xmlns:xlink="http://www.w3.org/1999/xlink" x="0px" y="0px"
	 width="100%" viewBox="0 0 1024 1024" enable-background="new 0 0 1024 1024" xml:space="preserve">
<path fill="#000000" opacity="1.000000" stroke="none" 
	d="
M604.305542,757.999756 
	C604.234619,773.155823 604.824951,787.783142 606.193726,802.377686 
	C606.302429,803.536865 606.663452,804.856018 606.270447,805.848938 
	C603.630981,812.518738 608.012695,816.329651 611.869202,820.503662 
	C621.301270,830.712524 632.109131,837.504761 646.782532,836.918701 
	C652.565918,836.687744 657.952759,838.896667 660.358459,845.203186 
	C662.141174,849.876587 661.216553,852.501465 656.520020,854.274231 
	C650.083679,856.703796 643.249268,857.362366 636.490417,858.222412 
	C621.977112,860.069275 607.892334,859.208984 594.975952,851.283630 
	C593.585510,850.430481 591.915405,849.908569 590.304260,849.568665 
	C587.839111,849.048706 585.459900,849.113342 585.360840,852.585815 
	C585.281067,855.381775 583.705627,856.346985 581.140320,856.302917 
	C574.484985,856.188660 567.826233,856.508118 561.193176,855.439392 
	C557.711670,854.878418 556.051025,853.336121 555.527222,849.719604 
	C553.971863,838.980774 555.214783,828.640503 557.828308,818.132202 
	C559.084656,813.080933 557.690491,807.344543 557.352844,801.927307 
	C555.955811,779.511841 551.309082,757.449036 550.053955,735.018311 
	C549.858643,731.527893 549.762756,728.018921 549.883240,724.527588 
	C550.004028,721.027405 549.680603,718.047668 546.132202,716.056030 
	C543.756653,714.722778 543.693970,712.259399 544.810791,709.867981 
	C545.712341,707.937561 546.657715,706.027588 547.453186,704.378906 
	C546.475403,702.450806 544.895264,702.144958 543.616638,701.430969 
	C537.813782,698.190796 536.868408,694.936829 540.389282,689.196411 
	C542.564636,685.649658 545.013000,682.268250 547.388184,678.846863 
	C548.882141,676.694885 548.778870,675.000549 546.523865,673.342834 
	C520.549377,654.248108 498.149719,631.017944 473.630768,610.236023 
	C467.411163,604.964417 467.281067,604.822815 463.163483,611.941223 
	C448.900085,636.599121 434.901062,661.402039 422.183136,686.908264 
	C418.366211,694.563293 415.257751,702.415283 414.294342,710.966553 
	C413.295807,719.829773 408.445587,725.423706 399.857697,727.260681 
	C394.406799,728.426575 392.093842,731.658691 390.178558,736.579834 
	C383.657288,753.335876 376.616486,769.889587 369.779297,786.522705 
	C366.674713,794.075256 363.855988,801.726990 361.972137,809.689087 
	C361.199860,812.952881 359.529816,815.629700 357.752289,818.498169 
	C353.691132,825.051819 354.253448,832.635864 356.070496,839.782471 
	C359.640991,853.825439 357.578156,857.638489 343.458893,858.990967 
	C335.376068,859.765259 327.165894,860.016602 319.065002,858.370300 
	C309.635498,856.454102 306.973602,852.476929 309.102997,843.123108 
	C310.374451,837.538086 312.980865,832.504272 315.808105,827.580933 
	C319.192780,821.686829 321.627777,815.982727 321.732025,808.569885 
	C321.870300,798.737000 324.909149,788.943298 326.717804,779.135742 
	C330.125031,760.659851 333.354828,742.144348 338.883575,724.137695 
	C339.176788,723.182678 339.332764,722.145752 339.814056,721.294739 
	C343.307281,715.117676 344.159485,709.278015 339.484955,702.994873 
	C336.948090,699.584961 338.463318,695.661011 341.128784,692.429321 
	C344.025482,688.917297 347.660217,686.211487 351.264282,683.565247 
	C354.822327,680.952698 356.843323,677.694397 358.188019,673.557861 
	C366.066406,649.322998 371.921906,624.558716 377.786346,599.793884 
	C377.928650,599.192993 377.861725,598.542603 377.903809,597.681519 
	C375.212250,597.569763 374.901886,599.641235 374.057434,601.072937 
	C370.843323,606.522278 366.838989,608.253906 361.609375,606.425171 
	C355.839539,604.407532 354.033875,600.989136 355.087646,594.245300 
	C356.575134,584.726074 358.048553,575.204407 359.455048,565.672974 
	C359.670776,564.210999 359.842529,562.591553 359.446381,561.214050 
	C355.971069,549.129333 359.151215,538.017700 364.366852,527.249878 
	C365.817444,524.255005 365.066132,521.414917 364.793152,518.467468 
	C364.037170,510.303986 366.836914,507.119629 374.247406,507.669891 
	C380.120453,508.106018 383.249939,512.188721 381.966766,517.966675 
	C380.958923,522.505005 379.649719,526.976807 378.661285,531.518860 
	C378.262817,533.349915 377.327362,535.667847 379.912445,536.738586 
	C382.942139,537.993469 382.957520,535.163086 383.796082,533.548218 
	C384.557617,532.081604 385.067535,529.931580 386.891296,529.952820 
	C391.250885,530.003479 391.661652,526.698853 392.929626,523.861267 
	C396.859741,515.066284 400.462555,506.216003 402.082336,496.602173 
	C402.555847,493.791718 402.353058,491.849396 400.521637,489.830597 
	C398.508606,487.611664 396.846008,485.044769 394.680847,482.999939 
	C389.505585,478.112396 388.649292,472.145569 389.893555,465.604065 
	C391.341949,457.989563 390.577637,450.323486 390.604279,442.676697 
	C390.611328,440.653625 390.296936,438.452576 388.153748,437.611420 
	C386.282532,436.876953 385.183105,438.700195 383.955780,439.737976 
	C379.746887,443.296722 375.360077,446.607941 370.524719,449.267120 
	C367.839478,450.743896 365.733215,452.717041 363.894318,455.185089 
	C356.065094,465.693298 346.264404,468.291382 334.445923,462.941589 
	C330.206085,461.022369 326.038574,458.866760 322.073578,456.434998 
	C316.240570,452.857635 313.819519,447.423492 314.923584,440.657837 
	C315.229645,438.782440 315.345551,437.080170 314.679657,435.307068 
	C308.727448,419.457123 306.753387,402.711731 303.637634,386.222595 
	C303.331451,384.602325 302.877289,383.010010 301.956421,381.294739 
	C300.077881,385.938416 295.979492,389.833557 297.862671,395.604614 
	C298.236206,396.749176 298.321289,397.924408 297.801636,399.023132 
	C296.133362,402.550629 293.237976,404.307495 289.410065,404.232452 
	C284.603516,404.138275 280.675659,402.442047 278.573425,397.676147 
	C277.067963,394.263092 278.105560,391.710785 280.541473,389.138428 
	C285.727722,383.661835 287.180084,376.239777 290.206146,369.639557 
	C290.419525,369.174072 290.193481,368.167999 289.806091,367.818054 
	C285.326202,363.770996 283.835205,358.274780 285.010223,352.959473 
	C286.428375,346.544281 282.946228,338.485321 290.623108,333.896881 
	C291.558777,333.337585 291.682648,332.308533 291.909851,331.310211 
	C293.355530,324.957520 295.517090,322.876343 302.055054,322.766296 
	C305.565125,322.707184 307.017181,321.101257 308.240845,318.204803 
	C337.427765,249.116241 387.986877,201.728058 456.281738,172.241974 
	C485.546112,159.607162 515.986511,151.285660 547.611145,148.034653 
	C575.528687,145.164749 603.489380,145.049698 630.769836,153.514557 
	C634.916748,154.801300 638.994324,156.270874 642.736572,158.483200 
	C646.038574,160.435226 647.432495,163.431824 645.645264,166.963348 
	C643.898804,170.414169 640.687805,170.729904 637.466980,169.154556 
	C617.253540,159.267838 595.550720,157.632690 573.627991,158.075211 
	C508.600525,159.387848 450.162445,180.169785 398.377869,219.240005 
	C363.210144,245.773209 336.987213,279.546265 320.064545,320.384521 
	C318.657593,323.779877 318.215759,325.822266 321.985168,328.512177 
	C327.838440,332.689178 326.755676,339.928894 326.712006,346.055389 
	C326.669708,351.983215 325.389832,357.960693 322.650909,363.431702 
	C321.878540,364.974457 321.751709,366.515076 322.314941,368.242676 
	C325.523376,378.083832 329.190582,387.723022 334.607819,396.595093 
	C338.038452,402.213623 340.370056,401.968536 344.853149,397.149231 
	C355.077545,386.158112 362.816772,373.687378 368.817078,360.002625 
	C372.055725,352.616272 377.742157,347.641602 385.304871,344.884308 
	C395.786163,341.062897 406.277740,337.267883 416.801453,333.565369 
	C420.073700,332.414154 422.499542,330.564362 424.501312,327.635986 
	C428.350494,322.005096 432.402557,316.636230 439.551361,314.405853 
	C443.769714,313.089783 442.341064,308.616974 443.039001,305.151428 
	C437.811951,303.275421 435.389160,299.349030 434.607086,294.235474 
	C434.129425,291.112244 432.567902,290.264954 429.370453,290.801453 
	C423.026276,291.865967 416.690552,291.111633 410.704346,288.790161 
	C403.602814,286.036194 402.520782,280.710907 407.817749,275.228638 
	C413.554016,269.291656 420.936615,266.064026 428.650085,263.871216 
	C432.995300,262.635956 434.879547,261.008331 434.871704,256.136871 
	C434.862152,250.203888 436.083008,244.251572 436.986481,238.340454 
	C437.603363,234.304398 439.819977,231.230438 443.676147,229.613831 
	C452.590271,225.876755 461.473663,222.299545 471.570312,223.561905 
	C478.181183,224.388458 484.842102,224.068756 491.419739,222.463699 
	C497.023560,221.096252 499.478821,222.338165 501.442841,227.769440 
	C504.497955,236.217957 507.530304,244.703705 509.901215,253.357529 
	C510.972412,257.267517 512.997375,258.788666 516.560120,259.574280 
	C523.869934,261.186188 531.153503,262.931671 538.401428,264.801819 
	C540.573364,265.362244 543.394592,265.888947 543.518372,268.782990 
	C543.634644,271.503387 541.129211,272.662140 539.042603,273.623505 
	C531.370911,277.157990 523.069031,278.055359 514.822510,279.145264 
	C513.689880,279.294952 512.563965,279.495148 511.343964,279.686218 
	C510.451508,284.149658 512.745850,287.616333 514.153259,291.242371 
	C515.299438,294.195312 515.331238,296.428131 511.742004,297.426910 
	C509.895905,297.940613 509.324219,299.332794 508.910828,301.117004 
	C507.694061,306.368439 505.586090,311.344940 506.020020,317.021179 
	C506.309906,320.813538 503.555603,322.966217 499.646881,323.300507 
	C497.104095,323.518005 494.702271,322.758026 492.233917,322.458160 
	C490.679474,322.269318 488.600372,321.758972 488.085785,324.033264 
	C487.648315,325.966614 489.501862,326.463654 490.803131,327.077423 
	C498.483826,330.699890 506.142303,334.375336 513.900024,337.826691 
	C521.200134,341.074432 528.607910,344.081055 535.978943,347.168274 
	C543.515320,350.324707 548.190430,356.056732 551.250977,363.477264 
	C555.764709,374.421082 557.543335,386.278076 562.620667,397.020569 
	C566.611694,405.464661 570.909912,413.730988 576.507324,421.256348 
	C578.608337,424.080994 580.448547,426.973450 580.574097,430.721252 
	C580.691833,434.235687 582.598206,434.994843 586.000122,434.269012 
	C592.449768,432.892944 594.317627,434.270966 596.474365,440.736755 
	C596.827759,441.796143 597.500671,442.837341 598.272583,443.653717 
	C601.994141,447.589935 602.874451,451.705200 599.170105,456.100739 
	C597.502930,458.078979 598.144409,459.713440 599.514099,461.425415 
	C611.192200,476.021912 623.680176,489.881897 637.619568,502.352081 
	C643.053101,507.212921 650.259033,508.180878 657.102661,509.435822 
	C662.669373,510.456573 666.689453,513.054810 668.992188,518.182373 
	C669.791138,519.961304 670.728027,521.279480 672.841675,521.626221 
	C693.911316,525.082947 710.583252,535.865173 723.818909,552.343567 
	C741.453369,574.298279 751.243835,599.198730 750.036743,627.504578 
	C748.887817,654.446472 737.804321,676.033081 711.650391,686.710388 
	C688.725769,696.069458 666.591248,691.802490 646.462219,678.519592 
	C619.766174,660.903259 605.906616,634.781189 599.604858,604.054688 
	C596.340210,588.136902 597.455017,572.640259 603.116760,557.440674 
	C606.889160,547.313232 612.833191,538.840027 622.236633,533.222778 
	C625.126648,531.496460 624.480225,530.077759 623.726074,527.246033 
	C620.695801,515.868408 610.640015,512.346741 602.202393,507.108307 
	C590.459595,499.817841 578.226868,493.309357 567.132019,484.994995 
	C565.533264,483.796844 564.050659,483.506897 562.051331,484.079407 
	C554.483887,486.246307 548.833618,482.604309 543.823059,477.546112 
	C541.276245,474.975006 541.325012,472.036346 542.817993,468.795654 
	C544.122498,465.964050 538.096008,456.648895 535.034119,456.509521 
	C533.054443,456.419434 532.565247,457.908844 532.382996,459.483368 
	C530.812134,473.052338 528.333008,486.440643 524.592590,499.590515 
	C524.343445,500.466553 524.343384,501.782532 524.834473,502.441498 
	C528.647339,507.557190 527.601440,513.232666 526.646179,518.763611 
	C526.169800,521.521545 527.365295,523.210449 528.834534,525.032043 
	C537.323303,535.556641 544.518738,546.985840 552.091370,558.154236 
	C554.709961,562.016174 555.516663,565.163208 550.150635,566.888672 
	C549.893311,569.280273 551.411682,570.562134 552.502197,571.918823 
	C568.303467,591.577026 581.974976,612.665710 594.765259,634.363220 
	C597.637817,639.236206 600.777588,643.973755 604.091309,648.559021 
	C607.990173,653.953918 609.587036,659.773743 609.000488,666.403992 
	C607.912476,678.701355 607.950745,691.022095 608.885437,703.334351 
	C609.042480,705.404175 608.965942,707.636414 607.444275,708.969360 
	C604.072205,711.923096 604.310486,715.659302 604.324463,719.518799 
	C604.370422,732.178955 604.318542,744.839478 604.305542,757.999756 
M631.485535,592.976746 
	C636.799194,606.691895 644.899353,618.140808 657.688538,625.974976 
	C678.257996,638.575012 702.039734,630.553833 708.018860,608.680664 
	C709.731323,602.416077 709.821289,595.933960 708.740540,589.407593 
	C705.134583,567.630371 694.334351,550.349976 676.697083,537.231262 
	C674.153992,535.339722 671.844604,534.280945 669.920776,538.156616 
	C668.512695,540.993347 665.732056,541.948608 662.741577,541.683167 
	C661.004822,541.529053 659.554260,542.198853 657.997559,542.415710 
	C650.701294,543.432068 643.586060,548.423401 635.604309,543.102234 
	C625.805054,559.082886 625.797729,575.388855 631.485535,592.976746 
M712.896667,673.450012 
	C731.076843,662.606262 737.947571,645.371399 738.493042,625.463135 
	C739.140198,601.843384 731.131470,580.708679 716.940430,561.926819 
	C714.441162,558.619019 711.829468,555.253967 706.636536,552.559387 
	C714.457397,565.829102 719.275330,578.586731 720.607483,592.628296 
	C724.179016,630.274048 692.360229,651.421509 661.761353,640.653503 
	C638.128357,632.336914 619.046997,607.642334 616.725037,578.061951 
	C616.268433,572.244934 616.659302,566.361328 616.659302,560.508362 
	C616.146362,560.481079 615.633423,560.453735 615.120422,560.426453 
	C610.639648,567.465515 609.398682,575.552002 609.447754,583.616455 
	C609.640381,615.257812 621.500793,641.995605 645.028381,663.133972 
	C663.779724,679.981201 691.263672,685.368652 712.896667,673.450012 
z"/>
</svg>