<svg version="1.1" id="Layer_1" xmlns="http://www.w3.org/2000/svg" xmlns:xlink="http://www.w3.org/1999/xlink" x="0px" y="0px"
	 width="100%" viewBox="0 0 1024 352" enable-background="new 0 0 1024 352" xml:space="preserve">
<path fill="#000000" opacity="1.000000" stroke="none" 
	d="
M641.949890,151.602142 
	C652.144409,150.520844 661.889221,149.508255 671.614929,148.336533 
	C682.030823,147.081680 692.077087,149.959976 702.295532,150.895584 
	C704.068176,151.057877 704.923523,152.335983 704.912659,154.012787 
	C704.891235,157.325363 705.245239,160.875351 701.880615,162.995712 
	C700.517212,163.854874 698.872864,164.268265 696.891663,165.073334 
	C698.712646,166.977875 701.022095,167.298203 703.133240,167.892929 
	C724.564087,173.930298 746.501465,174.912262 768.512817,173.496765 
	C779.793762,172.771301 789.224731,166.634979 798.247437,160.165939 
	C807.030579,153.868652 814.882080,146.257645 824.750061,141.483398 
	C828.726990,139.559296 832.828003,138.408417 837.267517,138.612091 
	C842.066650,138.832275 843.646484,140.919067 841.934631,145.435562 
	C838.689331,153.998001 835.048035,162.415085 832.494812,171.227005 
	C828.872559,183.728363 827.894165,196.402023 830.345337,209.245132 
	C831.909790,217.442200 836.607605,224.250900 840.401794,231.450760 
	C844.996155,240.169128 843.852905,242.844666 834.312683,245.777100 
	C822.130127,249.521729 810.597656,248.177536 799.829712,241.328110 
	C792.383789,236.591736 785.115234,231.576569 777.671204,226.837112 
	C767.675598,220.473175 756.606873,217.895615 744.847534,218.025101 
	C706.886108,218.443100 670.880737,227.257950 637.205566,244.590363 
	C609.871765,258.658905 581.050598,263.622192 550.683838,262.115662 
	C544.632507,261.815430 540.778076,260.019257 538.880371,253.873703 
	C537.450745,249.244171 535.531128,244.621933 532.654236,240.456543 
	C525.023132,246.909286 514.674438,249.122208 510.267395,243.827896 
	C505.756500,238.408798 500.702454,239.563980 495.471069,239.201126 
	C490.158020,238.832611 484.832733,238.617447 479.509644,238.421921 
	C473.656097,238.206909 472.382019,239.641342 473.146362,245.496201 
	C473.795197,250.466354 476.520844,254.478867 479.292999,258.448273 
	C480.229675,259.789459 481.687408,260.818024 481.701019,262.709656 
	C480.612823,264.505371 478.782379,264.113190 477.216827,264.008545 
	C456.296204,262.610352 435.383453,261.094666 414.461884,259.711761 
	C395.986938,258.490570 377.837067,255.417358 359.720398,251.592484 
	C351.728149,249.905136 343.230011,249.826447 334.452515,250.546448 
	C335.141205,246.418564 332.804810,245.332977 329.841339,244.581390 
	C324.537628,243.236328 319.268219,241.767212 313.261444,241.552429 
	C314.277588,238.047668 312.871887,236.558014 309.867493,235.773743 
	C306.662354,234.937042 303.590912,233.567581 300.491180,232.353897 
	C297.771301,231.288956 293.452820,232.324936 293.708649,227.142166 
	C293.734833,226.611588 291.920990,225.802719 290.853271,225.439407 
	C287.072845,224.153046 283.218781,223.080978 279.449860,221.763855 
	C278.010864,221.260971 275.380524,221.734879 276.464630,218.508118 
	C276.998718,216.918518 275.038239,216.920959 274.108124,216.627838 
	C270.146881,215.379547 266.102753,214.395126 262.137665,213.158051 
	C259.638336,212.378281 257.212769,212.821487 255.327896,209.124329 
	C253.694183,205.919861 247.653854,206.071213 243.422836,205.254868 
	C240.373734,204.666534 237.384583,205.337326 235.145584,201.482300 
	C233.764786,199.104950 229.041718,199.712463 225.741241,199.345306 
	C223.339539,199.078156 220.787720,199.947235 218.506744,198.541565 
	C218.111984,195.893219 221.525085,195.349792 221.315109,192.553131 
	C219.984116,190.637131 217.584534,190.545135 215.344666,190.378967 
	C204.394241,189.566696 193.643356,187.037598 182.642044,186.639633 
	C180.798553,186.572952 179.060577,186.624405 177.228104,186.971298 
	C172.621078,187.843307 168.912842,185.863480 165.278366,182.687317 
	C168.428345,179.419540 172.380569,177.193436 176.061630,178.302368 
	C183.938293,180.675171 191.633560,178.618576 199.382187,178.726761 
	C205.017548,178.805405 210.671783,178.078018 216.305557,177.575027 
	C222.333618,177.036865 222.741135,176.446823 221.716690,170.387878 
	C225.865555,169.007065 230.182922,170.082916 234.384445,169.711060 
	C236.978638,169.481445 239.713364,170.012009 241.011383,166.601913 
	C241.650253,164.923523 243.837051,165.148102 245.455017,164.899994 
	C249.072220,164.345337 252.715714,163.933792 256.305420,163.240845 
	C257.939026,162.925522 259.983765,163.044403 260.213806,160.310959 
	C260.391571,158.198120 262.651917,158.371872 264.178986,157.973114 
	C267.398071,157.132538 270.709625,156.607742 273.873871,155.607452 
	C276.320984,154.833847 279.710632,154.947037 279.391174,150.648544 
	C279.298279,149.399200 281.280121,149.017044 282.528717,148.577377 
	C286.140381,147.305557 289.897888,146.329742 293.309631,144.651321 
	C295.449707,143.598480 299.794373,144.061554 298.304932,139.155106 
	C297.959229,138.016190 300.216949,137.581497 301.419739,137.125305 
	C305.310150,135.649796 309.290680,134.398071 313.123962,132.791534 
	C315.113007,131.957916 317.746857,131.551971 317.505859,128.211990 
	C317.388062,126.579399 319.218262,126.364174 320.447571,126.008881 
	C323.805725,125.038300 327.248993,124.335602 330.555847,123.221817 
	C333.714600,122.157913 337.633423,122.430283 339.326324,118.394043 
	C339.617310,117.700233 341.381866,117.522240 342.504059,117.295227 
	C352.730774,115.226387 363.199280,114.368248 373.191986,111.115639 
	C374.632355,110.646805 375.817810,111.562889 376.794678,112.419624 
	C378.669312,114.063751 380.690369,115.662010 382.132385,117.654419 
	C385.639313,122.499931 390.168976,122.504784 395.712311,122.597290 
	C403.227112,122.722702 411.949799,122.277000 416.026672,131.341888 
	C417.647919,134.946671 420.653595,136.237747 424.400330,136.630310 
	C449.232422,139.232193 474.030640,142.212921 498.902344,144.340134 
	C504.798462,144.844421 510.049194,146.814362 515.287476,148.185181 
	C516.494934,147.651642 516.795654,146.846878 516.799561,146.011612 
	C516.821228,141.400085 517.598816,138.275192 523.704285,139.739441 
	C526.691467,140.455841 530.465332,139.866272 532.215637,136.076080 
	C532.798523,134.813904 534.003601,134.856613 535.222107,134.830719 
	C536.531128,134.802887 538.234802,134.964096 539.071899,134.240036 
	C543.076477,130.776123 548.382874,130.042877 552.644226,127.558411 
	C557.534241,124.707466 561.697388,126.569107 566.679382,126.129364 
	C565.662842,130.932770 561.694336,133.571381 562.109436,138.234177 
	C562.418152,141.701874 563.388733,143.116684 566.817200,142.795227 
	C572.391418,142.272598 577.477051,142.651047 579.930420,149.010864 
	C580.533691,150.574753 582.611694,149.997055 584.052734,150.033997 
	C598.205872,150.396896 612.360657,150.694534 626.514038,151.051224 
	C631.508057,151.177078 636.499329,151.414413 641.949890,151.602142 
M353.716095,127.946053 
	C353.728943,125.034012 351.549774,126.380005 350.530426,126.601166 
	C340.700470,128.733902 331.475861,132.385712 323.204559,138.202347 
	C321.650299,139.295349 319.731049,140.180298 319.336639,142.462631 
	C321.544342,143.684357 324.563782,144.644241 326.049438,143.487976 
	C330.620789,139.930130 334.924286,142.091431 339.247009,143.214340 
	C342.026978,143.936462 343.673615,143.097382 345.120026,140.914612 
	C347.871796,136.761963 350.691589,132.654388 353.716095,127.946053 
M817.676453,218.457474 
	C816.878479,214.717529 816.141663,210.963013 815.254517,207.244354 
	C814.861023,205.595108 815.247864,202.898926 812.725220,203.073517 
	C810.448364,203.231094 808.150940,204.737366 807.547424,207.158417 
	C806.401245,211.756287 805.679016,216.459839 804.773193,221.158676 
	C808.273132,223.143097 812.002747,222.698257 815.613037,222.874985 
	C818.429626,223.012863 818.460388,221.267212 817.676453,218.457474 
M814.115906,183.093201 
	C814.290039,183.228531 813.927490,184.304230 814.673035,183.415070 
	C814.761475,183.309631 814.761841,183.087021 814.731995,182.932419 
	C814.259583,180.480072 817.382507,177.363663 814.354736,175.700256 
	C811.851990,174.325241 808.460327,174.736053 805.657349,175.769897 
	C803.004822,176.748215 803.072144,179.273666 803.535461,182.787277 
	C803.844482,179.017471 804.491516,176.591782 807.972351,176.775726 
	C811.643005,176.969742 813.824158,178.724762 814.115906,183.093201 
z"/>
</svg>