<svg version="1.1" id="Layer_1" xmlns="http://www.w3.org/2000/svg" xmlns:xlink="http://www.w3.org/1999/xlink" x="0px" y="0px"
	 width="100%" viewBox="0 0 544 544" enable-background="new 0 0 544 544" xml:space="preserve">
<path fill="#000000" opacity="1.000000" stroke="none" 
	d="
M220.791718,454.775330 
	C226.551208,454.040070 228.334702,451.235931 226.172943,446.668060 
	C219.089737,431.700928 217.296295,416.165955 220.652313,399.938385 
	C221.573425,395.484436 223.358307,392.280701 227.929443,390.809601 
	C233.771774,388.929382 238.640259,385.664856 242.102646,380.365387 
	C243.749451,377.844818 246.373215,376.197876 249.119446,374.876038 
	C253.232483,372.896362 255.348953,369.321075 255.890701,365.061493 
	C256.324066,361.654114 257.787628,359.148499 260.184570,356.904572 
	C262.005646,355.199707 263.763824,353.405579 265.376984,351.504425 
	C272.144196,343.529205 272.888062,332.879700 267.445587,323.954193 
	C266.423737,322.278351 265.611176,320.474945 264.710510,318.746674 
	C257.639526,321.750427 252.681610,329.031372 252.688126,336.210236 
	C252.694046,342.726532 247.890427,347.413025 241.209473,347.409027 
	C234.439301,347.404999 229.376251,342.413208 229.466827,335.831726 
	C229.555984,329.353516 235.064804,323.531158 241.650574,324.985535 
	C249.060425,326.621948 252.214569,322.155151 256.130066,318.020935 
	C257.198425,316.892883 257.736969,315.774872 257.084808,314.004211 
	C255.084854,308.574036 255.644547,307.585510 261.033356,305.792206 
	C262.256775,305.385101 263.644043,305.357269 264.701874,303.989746 
	C253.341476,297.013306 241.943466,290.217926 230.748825,283.102570 
	C189.655029,256.983124 149.326523,229.796844 113.007751,197.138275 
	C104.195534,189.214172 95.821327,180.844086 89.342842,170.822601 
	C87.544952,168.041458 85.898697,165.085526 84.699730,162.008392 
	C81.152672,152.904999 85.238716,146.605286 95.120430,145.706329 
	C103.682091,144.927475 112.057655,146.183868 120.347641,148.231964 
	C142.268066,153.647522 163.042435,162.225723 183.683121,171.172440 
	C186.062698,172.203873 188.308838,173.081253 186.638168,176.624252 
	C185.048645,179.995071 182.970734,179.192719 180.509338,178.161026 
	C162.222015,170.495895 143.824341,163.156982 124.385849,158.815613 
	C119.155357,157.647446 113.903145,156.956772 108.545029,157.197739 
	C100.634148,157.553482 98.424103,161.159271 101.882706,168.351517 
	C104.960320,174.751480 109.722321,179.929016 114.688240,184.871033 
	C136.751984,206.828506 161.739670,225.163116 187.218704,242.835663 
	C212.416031,260.312836 238.315994,276.720795 264.630402,292.466949 
	C266.278748,293.453308 267.796051,294.968109 270.407135,294.706360 
	C268.695312,288.645691 270.078735,283.492523 275.053192,279.560364 
	C277.743622,277.433685 275.672424,275.699158 274.539459,274.035431 
	C271.634583,269.769684 268.383850,265.710052 267.715210,260.329498 
	C266.812439,253.065125 270.380615,247.866348 275.513947,243.412109 
	C278.505035,240.816727 279.375854,238.616928 274.581940,237.289764 
	C272.592072,236.738861 272.250183,234.238159 270.611664,233.704773 
	C266.846832,232.479187 262.946503,231.132248 259.047729,233.499603 
	C233.094330,249.258438 203.143204,230.767532 201.956482,201.588882 
	C201.853622,199.059631 201.581390,196.839874 198.256165,196.826309 
	C197.273499,198.031387 198.348602,198.991089 198.702133,199.989105 
	C201.005707,206.492493 198.615646,212.499390 192.716217,214.917923 
	C186.512756,217.461121 179.393097,214.850586 176.529541,208.982834 
	C173.670990,203.125320 176.017334,196.532288 182.191513,193.474930 
	C184.072601,192.543457 185.507797,191.611725 185.976181,189.307220 
	C189.844437,170.274765 201.970657,159.245361 220.235855,154.238098 
	C220.873383,154.063339 221.488083,153.782440 222.085007,153.492493 
	C222.371826,153.353180 222.592285,153.077225 223.057526,152.679626 
	C222.978882,151.870987 222.839340,150.909363 222.799774,149.943634 
	C222.664154,146.633499 224.444336,144.771301 227.583954,144.903992 
	C230.721512,145.036621 232.857864,147.327942 231.949295,150.294632 
	C230.373871,155.438644 232.505356,159.778519 233.790833,164.364471 
	C234.313782,166.230087 235.329529,167.364502 237.430313,167.957413 
	C241.412003,169.081177 243.617676,168.288193 244.609406,163.920837 
	C247.283661,152.144058 253.631287,142.846832 264.333099,136.936157 
	C271.003937,133.251816 278.189240,131.289215 285.913422,131.974365 
	C287.718231,132.134445 289.890900,132.908630 290.360840,130.290527 
	C290.782043,127.944237 291.482117,125.409149 288.598206,123.659813 
	C276.664185,116.420761 276.671600,112.522385 288.473572,105.153748 
	C289.307892,104.632858 290.262146,104.170906 290.243652,102.949966 
	C290.013794,100.726692 287.065887,101.969742 286.448822,99.167366 
	C289.444489,96.899117 292.152252,93.532867 290.886108,88.911964 
	C289.162811,82.622673 288.486633,76.795074 291.353058,70.308571 
	C293.020233,66.535789 291.629608,61.439442 291.752747,56.942421 
	C291.798889,55.257862 291.138580,53.211220 293.581848,51.961910 
	C295.246246,54.119793 294.900604,56.616707 295.111237,59.005535 
	C295.683044,65.491081 293.579681,72.379303 298.204102,78.284241 
	C299.130310,79.466896 298.448914,81.156166 297.788147,82.578140 
	C295.291321,87.951424 294.200775,92.944633 299.275208,97.899628 
	C302.395233,100.946190 296.810516,100.703392 296.517609,102.871620 
	C297.109100,105.315163 299.620850,105.559303 301.331299,106.692329 
	C309.133240,111.860405 308.625549,118.580078 300.038177,122.965134 
	C295.407745,125.329620 294.590149,133.032043 298.984589,135.685455 
	C315.095886,145.413589 321.465027,159.147751 316.576324,178.107819 
	C320.420837,177.999512 323.657898,177.240387 326.590424,175.215698 
	C328.869934,173.641891 331.195435,173.142929 333.361328,175.350739 
	C335.030640,177.052322 335.671509,179.068405 334.254852,181.230804 
	C332.590820,183.770844 330.473328,184.478714 327.388489,183.419876 
	C323.254120,182.000778 320.993500,183.872345 320.942078,188.355179 
	C320.907654,191.357773 319.582458,193.339233 316.564545,193.236206 
	C313.557281,193.133560 312.116730,194.530472 310.819946,196.964981 
	C308.598785,201.134811 304.936615,203.851624 300.442322,205.032181 
	C296.254608,206.132217 297.500519,209.227097 297.394714,211.858444 
	C297.277130,214.782623 299.552612,214.656036 301.534241,214.996063 
	C303.914459,215.404449 306.119965,214.978226 308.399780,214.297089 
	C312.245575,213.148087 314.943695,214.944626 316.476807,218.343689 
	C318.012177,221.747650 316.784241,224.453598 313.701447,226.437332 
	C309.344971,229.240662 308.455872,238.585037 312.178406,242.482620 
	C313.558105,243.927185 315.112610,245.207886 316.458527,246.681046 
	C322.063477,252.815918 322.856415,259.578156 318.849884,266.885223 
	C318.131226,268.195953 317.381531,269.535553 316.405090,270.650757 
	C312.953033,274.593292 311.506897,277.928528 316.857483,281.944153 
	C319.907410,284.233154 320.509979,289.241516 325.657318,289.759399 
	C327.870911,289.982086 327.330414,292.669495 327.261902,294.450073 
	C327.183685,296.484467 325.739288,296.675049 324.094055,296.731049 
	C321.243317,296.827942 318.329559,296.944733 316.955353,300.688934 
	C320.100830,301.989075 323.129791,303.750061 326.387390,304.455902 
	C330.269043,305.296936 332.646545,307.145020 333.781464,311.181152 
	C330.737305,313.963196 325.966217,313.631256 323.431824,317.555420 
	C321.195557,321.018005 320.995148,322.952606 324.804749,325.053680 
	C368.610992,349.213989 412.995239,372.124298 460.725372,387.754547 
	C471.160675,391.171753 481.684479,394.461578 492.809937,394.803833 
	C495.123840,394.875000 497.552368,394.916901 499.748322,394.315674 
	C503.690887,393.236267 505.536041,390.670013 504.143036,386.360718 
	C502.351624,380.819000 498.908936,376.342896 495.130157,372.100464 
	C481.428497,356.717712 465.522064,343.798950 449.248596,331.305359 
	C446.350189,329.080139 443.506622,325.981781 440.216217,325.289215 
	C436.769623,324.563782 435.070312,329.368011 431.986176,330.958344 
	C427.847015,333.092651 423.838135,335.479431 419.771301,337.754242 
	C417.418884,339.070068 415.328857,340.113831 416.084900,343.797180 
	C416.812225,347.340729 413.906738,349.435638 410.892029,347.608093 
	C408.037292,345.877563 406.279572,347.096863 404.126434,348.384521 
	C395.059052,353.807098 385.843231,353.968475 376.595306,348.912140 
	C374.949036,348.012024 372.880646,347.262207 372.687134,344.917236 
	C373.570953,343.781036 374.549255,344.297272 375.489655,344.509918 
	C390.469574,347.897949 402.574615,342.794159 412.681580,331.872681 
	C416.301178,327.961365 419.875854,324.006744 423.393951,320.004150 
	C424.459076,318.792297 425.806183,317.441376 424.291718,315.641418 
	C421.917969,312.820221 423.125214,310.081207 424.315674,307.093109 
	C425.874908,307.469513 427.271790,307.806732 428.922150,308.205139 
	C430.876770,302.452423 429.257782,297.488098 426.417023,292.903290 
	C421.114166,284.344818 413.381836,278.310822 404.946899,273.094727 
	C404.101685,272.572052 403.100037,272.289185 402.291473,271.723022 
	C400.680939,270.595306 399.656647,269.129059 400.446442,267.041687 
	C401.023621,265.516327 402.126282,264.555756 403.803253,264.461792 
	C405.893036,264.344696 407.822723,265.331177 407.920013,267.287720 
	C408.113220,271.174896 410.924194,272.057129 413.600983,273.362885 
	C422.486176,277.697083 430.956909,282.699554 437.684052,290.082275 
	C444.156281,297.185303 448.096924,305.256714 445.099426,315.159668 
	C443.907471,319.097473 447.022888,320.187317 449.075409,321.724365 
	C462.819977,332.017151 476.320221,342.607819 489.177979,353.994568 
	C497.418060,361.291962 505.405457,368.861298 512.246582,377.527252 
	C515.770081,381.990570 518.828064,386.761017 520.382446,392.322296 
	C522.404114,399.555725 519.662048,404.257324 512.368652,406.269653 
	C505.378876,408.198212 498.452942,407.057892 491.578278,405.756897 
	C460.908691,399.952759 432.315186,388.041809 403.903473,375.657501 
	C376.230164,363.595001 349.590576,349.465820 323.175262,334.900757 
	C321.607208,334.036102 320.114410,332.912506 317.845215,332.922943 
	C316.442719,339.999847 316.671967,346.451935 322.415222,351.703674 
	C326.877075,355.783661 330.641083,360.068085 331.611694,366.622955 
	C332.135986,370.163757 334.706604,373.549988 338.660919,375.136169 
	C341.349548,376.214722 343.664246,378.125397 345.022980,380.597321 
	C348.061066,386.124542 352.934845,388.977997 358.607971,390.830139 
	C362.302155,392.036163 364.294678,394.477386 365.120636,398.260834 
	C368.513153,413.801697 367.725006,429.004181 361.838074,443.866364 
	C358.786926,451.569366 359.666046,454.025909 367.079193,457.819122 
	C375.086945,461.916473 383.203705,465.800842 391.206421,469.907654 
	C393.562164,471.116577 395.958435,472.481628 397.868591,474.273560 
	C401.537720,477.715485 405.657288,478.914154 410.623627,478.713165 
	C416.780914,478.464020 420.081573,481.143890 420.211975,485.715576 
	C420.342316,490.286713 416.604279,493.326263 410.516266,493.327057 
	C310.518677,493.340576 210.521072,493.332306 110.523483,493.306549 
	C104.666382,493.305023 101.150543,490.468079 101.102699,485.956024 
	C101.054680,481.427399 104.366966,478.430328 110.228424,478.151886 
	C115.384682,477.906982 120.561424,477.904083 125.723251,478.031738 
	C129.238052,478.118652 130.897400,476.938660 130.901093,473.175659 
	C130.906952,467.182251 131.206772,461.182739 131.577011,455.197845 
	C131.941956,449.298706 129.479858,444.120880 127.598534,438.823730 
	C126.245132,435.013062 126.360931,432.254822 131.508667,431.316040 
	C129.455734,426.023621 126.235008,422.144440 122.370766,418.719574 
	C116.975883,413.938080 110.132195,411.061005 104.824921,406.414459 
	C99.213455,401.501526 93.367073,401.042297 86.587776,401.104706 
	C73.198883,401.227966 59.951817,399.908081 47.734604,393.637238 
	C35.368332,387.289856 31.559986,379.063568 34.683052,365.456421 
	C34.944633,364.316711 35.214870,363.400879 34.366478,362.222107 
	C29.979887,356.127228 30.032089,356.089661 35.341095,350.930939 
	C35.329117,348.570953 33.430725,347.199432 32.212002,345.494720 
	C24.724140,335.020905 18.535603,324.049316 19.736069,310.545227 
	C20.144979,305.945374 20.902420,301.842590 17.882557,297.381195 
	C15.156281,293.353516 20.629667,287.313568 26.170982,288.255737 
	C29.840630,288.879669 32.482731,287.911285 35.438362,286.088013 
	C49.650185,277.320953 65.388199,276.825134 81.364388,278.134460 
	C87.498642,278.637177 93.635139,279.439667 99.559387,281.172760 
	C103.599007,282.354492 107.593246,276.712799 111.205269,280.826202 
	C113.951035,283.953156 116.782433,286.292755 120.860146,287.250549 
	C122.980537,287.748627 124.825584,288.405121 127.082138,287.348175 
	C130.484375,285.754578 133.135086,287.231689 135.181671,290.193970 
	C140.256287,297.539154 148.147141,300.746124 156.236435,301.690765 
	C167.965256,303.060425 179.820618,303.182007 191.107117,307.252106 
	C194.055252,308.315186 196.994247,307.689056 199.981216,307.209320 
	C205.545654,306.315613 210.208145,308.301086 213.723495,312.577209 
	C216.627426,316.109589 217.412704,320.315094 214.636200,324.145264 
	C210.741043,329.518555 212.378265,336.167145 209.928345,341.810150 
	C209.455963,342.898132 210.097305,343.753296 211.037582,344.296204 
	C214.056183,346.039062 215.469589,348.460449 213.723251,351.769440 
	C211.662659,355.673798 208.497986,354.206360 205.491364,353.127380 
	C205.365662,353.082275 205.177811,353.210266 204.924072,353.285889 
	C203.330658,355.421844 204.937500,357.425018 205.497314,359.350952 
	C209.413223,372.822662 205.621277,385.462219 194.816727,394.331696 
	C185.722870,401.796875 174.937561,404.784485 163.540161,406.352203 
	C157.448318,407.190094 151.304504,407.092407 144.309097,407.492950 
	C147.298904,414.729340 147.512115,421.794800 147.476562,428.908600 
	C147.462723,431.675751 149.853943,431.692780 151.818573,432.007263 
	C155.988861,432.674774 157.299942,434.854553 155.258453,438.676910 
	C149.083817,450.237885 151.776001,462.740814 151.439545,474.907654 
	C151.353043,478.035828 153.921982,478.576599 156.403442,478.484589 
	C160.396530,478.336548 164.396103,478.122772 168.367828,477.700531 
	C173.253357,477.181152 176.788788,472.165771 178.145325,464.090363 
	C176.018661,462.359497 173.427521,463.159332 171.028091,462.966827 
	C168.210327,462.740814 165.368973,462.751404 162.564972,462.425751 
	C158.952408,462.006226 157.387085,459.643524 157.488281,456.180603 
	C157.597397,452.446289 159.973297,450.860779 163.385971,450.773132 
	C168.715988,450.636230 174.052841,450.776031 179.383698,450.658539 
	C188.028290,450.468018 196.693954,451.276978 205.314804,449.782135 
	C211.113068,448.776733 216.133286,450.818665 220.791718,454.775330 
M57.503784,353.697510 
	C61.733559,352.787384 65.981445,352.101654 70.297127,351.607086 
	C86.478127,349.752777 102.576759,350.927582 118.620232,352.816071 
	C137.327377,355.018158 155.831604,358.368317 173.537033,365.128937 
	C175.160599,365.748871 177.204498,365.869720 178.002289,368.010834 
	C177.242935,370.455505 175.028885,371.469818 173.136581,372.708771 
	C156.065063,383.886078 137.354675,391.034943 117.453659,395.234253 
	C115.296822,395.689362 112.847923,395.637848 111.402512,398.422333 
	C114.797012,399.833130 117.805107,398.680969 120.751648,398.061707 
	C142.051483,393.585236 161.591522,385.001740 179.556259,372.749207 
	C180.979706,371.778381 182.615280,370.092529 184.417725,371.909119 
	C186.278656,373.784637 185.611771,375.905029 184.237442,377.802277 
	C181.032242,382.227142 176.841660,384.345337 171.274124,383.322937 
	C169.367386,382.972809 167.313980,382.074493 165.599136,383.833801 
	C159.410065,390.183197 152.345673,395.273193 143.070236,398.563568 
	C149.316910,400.472107 154.468292,399.218567 159.502396,398.602264 
	C170.447739,397.262329 180.698502,394.029144 188.164612,385.130768 
	C194.745285,377.287659 194.401901,363.285217 187.519867,357.248413 
	C185.715103,355.665283 183.730591,354.373291 181.207916,354.986969 
	C178.485443,355.649261 179.356964,358.147186 178.935440,359.964203 
	C178.745178,360.784424 178.571716,361.594513 177.320358,362.105408 
	C176.680878,361.987854 175.681641,361.936798 174.776550,361.618195 
	C157.453659,355.520996 139.618088,351.521454 121.498711,348.771576 
	C102.163643,345.837219 82.760735,344.753113 63.328526,347.831970 
	C57.062958,348.824738 56.133537,348.126160 56.930973,341.904572 
	C58.496384,329.691223 65.014122,320.671387 74.914429,313.753052 
	C77.035751,312.270660 79.689590,311.393524 81.103233,309.015503 
	C76.757660,302.901855 72.557785,301.073273 66.214302,302.690308 
	C62.168652,303.721619 58.268215,305.186096 54.808064,307.621033 
	C46.081135,313.762177 42.521198,322.000366 44.114777,332.657104 
	C45.070999,339.051636 48.635025,344.329010 51.071377,349.944855 
	C46.665287,353.659821 46.675961,353.664246 43.954121,360.246094 
	C43.707577,360.842255 43.222721,361.345276 42.822243,361.871552 
	C35.282593,371.779419 36.758202,380.699036 47.111401,387.635742 
	C55.117767,393.000061 64.245323,394.847900 73.594055,395.621521 
	C80.975586,396.232391 88.409576,396.414825 95.621254,395.417175 
	C95.939064,393.473969 95.060265,392.878723 94.192467,392.435364 
	C83.918175,387.186157 75.108086,380.291321 68.985130,370.308197 
	C67.837364,368.436829 66.396416,368.557587 64.954788,369.919342 
	C64.708397,372.434509 67.865021,373.671631 67.054474,376.834045 
	C62.446320,374.888672 58.441826,372.283661 54.568874,369.555511 
	C51.302341,367.254517 47.607185,364.535828 47.990788,360.158661 
	C48.402443,355.461426 53.337242,355.384155 57.503784,353.697510 
M286.501160,429.043304 
	C286.998383,433.833191 287.559418,438.617615 287.972839,443.414734 
	C288.308960,447.314667 290.852722,447.752411 293.975800,447.603180 
	C297.278381,447.445404 298.423828,445.739044 298.732971,442.507324 
	C300.401398,425.066101 300.169769,407.646515 298.744141,390.209930 
	C298.470703,386.865387 297.467041,383.946014 293.797638,383.904968 
	C290.005249,383.862518 288.616150,386.705139 288.203827,390.270813 
	C286.749481,402.847992 285.971100,415.447479 286.501160,429.043304 
M274.327911,204.608734 
	C274.858978,212.100662 272.380859,218.935440 269.212708,225.525467 
	C274.942230,227.848404 277.096130,226.714310 277.774567,221.501648 
	C277.881165,220.682556 277.762207,219.479630 278.244720,219.118561 
	C283.340302,215.305405 281.659088,209.860809 281.654083,204.922272 
	C281.651001,201.875488 282.853790,200.350525 285.668945,199.570831 
	C295.838196,196.754349 301.437744,187.955902 309.510406,182.019882 
	C306.349854,179.364441 304.771301,180.759537 303.618744,183.203522 
	C299.175385,192.625763 291.170532,196.626678 281.369629,197.940369 
	C278.369720,198.342468 276.359467,197.622635 275.404022,194.256073 
	C272.479614,183.951370 266.006012,176.349121 256.615845,171.344894 
	C253.449249,169.657303 252.873489,167.637680 254.002869,164.445587 
	C256.967896,156.065277 262.504822,150.172440 270.811981,147.129456 
	C275.109467,145.555237 273.452911,142.559387 272.668152,140.159851 
	C271.543823,136.721985 269.111023,138.839188 267.421295,139.723923 
	C257.909088,144.704575 251.930374,152.586075 248.813385,162.784317 
	C247.358719,167.543732 248.123596,170.604660 253.218445,173.146057 
	C265.655609,179.349838 273.160675,189.444412 274.327911,204.608734 
M265.812561,439.309418 
	C263.682373,422.481293 264.493744,405.854004 269.066803,389.454163 
	C270.046936,385.939209 268.533997,384.536133 264.929291,385.262177 
	C262.374786,385.776733 260.893188,387.557159 259.965973,389.759613 
	C252.514923,407.458466 251.970734,425.515045 257.339722,443.841431 
	C257.923523,445.834106 258.903717,447.385834 261.317322,447.734955 
	C266.459290,448.478699 267.376221,447.055847 265.812561,439.309418 
M332.681671,417.653381 
	C332.216980,408.128204 330.825409,398.800262 326.822632,390.024536 
	C325.981354,388.180115 325.032227,386.404327 323.056061,385.558777 
	C321.468170,384.879395 319.752045,384.668030 318.281311,385.719299 
	C316.967010,386.658813 317.454895,388.046417 317.798859,389.372833 
	C321.806213,404.824982 322.543793,420.513947 321.320862,436.371735 
	C321.045166,439.946991 319.475861,443.435974 320.327423,447.069489 
	C327.163116,448.356628 328.478210,447.659149 330.075287,441.297058 
	C331.941803,433.861450 333.003021,426.303070 332.681671,417.653381 
M206.669785,333.593079 
	C206.794113,330.768036 204.842560,330.664795 202.737915,330.287994 
	C194.569290,328.825592 190.171188,323.549988 190.570633,315.554810 
	C190.686981,313.226105 189.685791,312.145874 187.837173,311.454346 
	C179.750687,308.429535 171.469574,306.695679 161.631744,307.559265 
	C177.402588,318.551575 190.417679,330.868835 200.269714,346.561279 
	C204.504501,342.998657 205.955811,338.884705 206.669785,333.593079 
M130.232880,314.092041 
	C135.498871,316.557587 140.933121,318.722107 145.995575,321.551788 
	C156.302933,327.313110 166.427719,333.409332 174.062973,342.749634 
	C175.020035,343.920441 175.472229,346.473999 177.617599,345.082458 
	C179.993637,343.541290 177.972092,341.922150 176.935104,340.547272 
	C176.341492,339.760284 175.533966,339.132416 174.810379,338.445923 
	C155.730927,320.344330 133.000183,309.191650 107.523445,303.464905 
	C101.168884,302.036469 94.688583,300.486267 87.874634,301.558624 
	C89.447365,305.397675 89.448257,305.631378 92.232002,305.620789 
	C105.281532,305.571167 117.431808,309.493225 130.232880,314.092041 
M232.534012,407.082886 
	C230.551254,412.793915 229.810272,418.780090 229.600906,424.721191 
	C229.336746,432.217468 230.425430,439.651520 233.703918,446.553894 
	C234.964355,449.207581 237.087036,450.082123 239.900360,448.862091 
	C242.917343,447.553711 241.095856,445.478699 240.566788,443.808411 
	C238.089340,435.986786 236.838791,427.994690 236.722046,419.798340 
	C236.583771,410.092438 239.052963,400.795258 241.650650,390.329468 
	C236.598907,395.457855 234.918839,401.016052 232.534012,407.082886 
M356.620667,419.951111 
	C353.935577,403.683838 349.705353,393.332397 343.926697,388.888641 
	C352.027130,408.322662 351.132050,428.049866 345.177673,447.801727 
	C349.534119,449.753723 351.975922,448.882172 353.591003,444.911072 
	C356.752960,437.136505 356.973999,429.053711 356.620667,419.951111 
M302.115540,142.469330 
	C300.503387,141.500122 299.266174,139.549652 296.649109,140.492737 
	C296.296204,145.449753 295.617096,150.454041 299.288116,154.663803 
	C303.360931,159.334351 305.928558,164.670090 306.253204,170.870285 
	C306.417572,174.009369 308.417664,174.851410 310.793427,175.171722 
	C313.421600,175.526062 313.530945,173.208008 313.890198,171.491318 
	C316.394562,159.523972 311.422760,150.464737 302.115540,142.469330 
M289.008972,325.587128 
	C285.527435,328.700500 285.051453,332.500397 287.297943,336.318207 
	C289.076752,339.341248 292.039581,340.868286 295.759460,340.075745 
	C299.392029,339.301788 301.545013,336.920868 302.386536,333.448730 
	C303.112122,330.455017 302.054169,327.780762 299.697906,325.923828 
	C296.602112,323.484070 293.172668,322.787781 289.008972,325.587128 
M210.867050,176.753662 
	C209.178162,174.254425 207.731903,175.942429 206.421356,177.116699 
	C203.400894,179.823044 201.291229,183.208511 199.717606,186.907928 
	C199.127945,188.294144 197.660614,189.978271 200.034622,191.143265 
	C202.375275,192.291855 203.305832,190.821487 204.006638,188.872665 
	C205.541687,184.603897 208.099808,180.919128 210.867050,176.753662 
M228.072769,167.439102 
	C229.742401,163.862152 227.990997,162.858826 224.795319,163.361618 
	C221.937408,163.811310 219.293564,164.897903 217.037964,167.105469 
	C220.703995,169.502090 224.015350,170.315689 228.072769,167.439102 
M308.456055,194.081604 
	C309.560394,192.782974 311.209595,191.715195 310.470062,189.030334 
	C305.953674,192.097382 302.593628,195.627411 299.141937,200.200623 
	C303.924683,199.890732 305.716095,196.896835 308.456055,194.081604 
M289.357452,139.927002 
	C290.014099,142.334045 287.958618,144.687210 288.937347,147.549240 
	C291.270538,143.823181 291.314758,141.928589 289.357452,139.927002 
z"/>
<path fill="#000000" opacity="1.000000" stroke="none" 
	d="
M409.427795,330.433350 
	C389.528931,348.802490 360.810699,345.360229 348.355286,323.380310 
	C347.554810,321.967651 346.394714,320.629303 346.930847,318.645599 
	C348.550354,317.012787 350.640900,317.952271 352.511292,317.947571 
	C365.993225,317.913727 376.473267,308.435730 378.466156,294.363708 
	C379.940247,283.954987 371.785004,271.895721 360.122284,269.082428 
	C352.074524,267.141113 343.605743,266.835938 335.941528,271.540161 
	C333.501862,273.037598 330.969177,273.560486 328.504333,271.642944 
	C326.656677,270.205536 325.818207,268.261108 326.318909,265.909912 
	C326.855865,263.388611 328.480957,261.858154 330.933716,261.166656 
	C333.112000,260.552551 334.959656,261.404785 336.408020,262.830811 
	C338.447174,264.838562 340.713745,265.086029 344.246643,264.240631 
	C334.656647,256.387665 321.548828,253.249725 317.048248,240.537598 
	C319.120178,239.491669 320.455658,240.732895 321.810120,241.546188 
	C336.649445,250.456253 351.507355,259.336761 366.263397,268.383240 
	C369.614960,270.437958 372.879578,270.949493 376.706207,270.266327 
	C397.756775,266.508301 416.906647,279.943512 419.778595,301.030640 
	C421.290680,312.133057 417.616547,322.045258 409.427795,330.433350 
z"/>
<path fill="#000000" opacity="1.000000" stroke="none" 
	d="
M360.451721,273.080200 
	C370.340363,277.788879 375.130066,286.650574 373.330627,296.368622 
	C371.568726,305.884216 363.291351,313.181763 353.450226,313.895660 
	C344.686279,314.531464 335.359985,308.147736 332.428925,299.195221 
	C329.878845,291.406250 331.500916,284.223297 337.151398,278.391571 
	C343.501251,271.838104 351.314423,270.040039 360.451721,273.080200 
z"/>
</svg>