<svg version="1.1" id="Layer_1" xmlns="http://www.w3.org/2000/svg" xmlns:xlink="http://www.w3.org/1999/xlink" x="0px" y="0px"
	 width="100%" viewBox="0 0 1024 1024" enable-background="new 0 0 1024 1024" xml:space="preserve">
<path fill="#000000" opacity="1.000000" stroke="none" 
	d="
M581.181519,723.721191 
	C592.424927,726.341248 603.608459,727.497192 613.970459,731.930542 
	C620.625671,734.778137 626.925842,738.075806 631.052734,744.405945 
	C635.627319,751.422791 633.647034,757.859863 625.788330,760.783447 
	C617.739929,763.777527 609.205688,764.554749 600.778931,765.138428 
	C558.853821,768.041809 516.857605,767.843933 474.881653,766.883423 
	C458.103821,766.499512 441.270477,765.855713 424.606720,763.335083 
	C420.139313,762.659424 415.741486,761.750549 411.734497,759.570007 
	C407.296387,757.154907 405.826965,753.532043 407.228729,748.654236 
	C408.684418,743.588684 411.999023,739.996216 416.312714,737.151245 
	C426.739777,730.274353 438.646576,727.820374 450.636505,725.701843 
	C461.271667,723.822693 471.401520,720.932312 479.649811,713.432190 
	C484.295929,709.207397 487.930420,704.350586 489.942963,698.342041 
	C493.060028,689.035645 488.324463,681.605225 478.411438,680.320984 
	C450.160736,676.660950 423.690826,667.606628 398.775757,653.913452 
	C379.572693,643.359619 362.372070,629.875122 344.924103,616.771729 
	C322.266541,599.755920 299.432983,583.034607 274.473267,569.429932 
	C239.192047,550.199280 201.869034,537.063354 162.011429,531.513428 
	C136.242020,527.925171 110.561722,528.702271 85.011314,533.781311 
	C81.286278,534.521851 77.417152,534.842590 73.620079,534.805664 
	C71.185120,534.781921 68.451164,534.009094 67.837349,530.981750 
	C67.273735,528.201965 69.303375,526.585510 71.347435,525.482788 
	C75.885834,523.034485 80.471329,520.618164 85.222397,518.630432 
	C96.302414,513.994934 106.333321,508.147369 113.505104,498.052368 
	C116.966095,493.180695 123.010292,493.559174 128.143707,492.864044 
	C159.894379,488.564667 191.472534,490.328064 223.066803,495.241608 
	C253.220703,499.931152 282.415588,508.687164 312.166656,515.050720 
	C329.934113,518.851013 347.731720,522.229248 366.012817,521.676086 
	C398.934448,520.679871 425.746185,507.210724 446.597137,481.830658 
	C452.934967,474.116211 458.281036,465.569885 465.745850,458.805634 
	C475.141846,450.291382 486.025085,444.938965 498.763641,443.690735 
	C500.547974,443.515900 502.873596,443.968353 503.383759,441.689697 
	C503.986481,438.997498 504.697540,435.974426 502.253204,433.697784 
	C500.802277,432.346375 499.022644,431.354218 497.438629,430.138245 
	C487.275848,422.336792 485.893860,410.011200 494.350555,400.444550 
	C498.311981,395.963165 502.734039,391.887848 506.966797,387.647919 
	C509.430206,385.180298 510.256012,382.757721 508.534363,379.206696 
	C506.276428,374.549408 508.505310,368.993561 513.152710,365.728302 
	C517.389526,362.751526 522.606873,362.856750 526.619080,365.999908 
	C531.254578,369.631348 532.928711,374.763123 530.336365,379.624817 
	C528.522156,383.027069 530.265076,385.139221 532.124512,387.154297 
	C536.188232,391.558044 540.590576,395.647156 544.729736,399.983978 
	C548.554016,403.990814 550.625793,408.713318 550.496155,414.417084 
	C550.353699,420.684570 547.965759,425.697693 543.029907,429.511566 
	C541.316406,430.835571 539.490723,432.020020 537.827209,433.401794 
	C535.389221,435.426788 535.929016,438.224884 536.272705,440.838074 
	C536.576172,443.145203 538.496582,443.439209 540.405945,443.629089 
	C557.522644,445.331207 570.760559,453.852936 581.244263,467.068848 
	C588.697571,476.464661 595.695740,486.287964 605.764526,493.195343 
	C621.214966,503.794739 638.286865,509.495239 657.029846,510.882782 
	C686.948425,513.097717 714.937683,506.777679 741.212158,492.693573 
	C757.168640,484.140259 770.918213,472.467102 784.539734,460.673859 
	C791.054504,455.033478 797.707520,449.552673 804.333374,443.969727 
	C802.596985,441.501740 800.257690,440.912018 798.236450,439.871490 
	C767.294434,423.942291 747.242004,399.534546 741.145691,364.894073 
	C736.387756,337.858276 743.961060,313.463898 759.216614,291.171143 
	C774.936218,268.200195 796.669678,252.526367 821.545959,241.035675 
	C850.006897,227.889236 879.989929,220.898544 911.431946,220.639496 
	C913.040710,220.626236 914.755798,220.139526 916.603149,221.398468 
	C915.692322,224.175095 913.075317,224.503372 910.885620,225.246307 
	C897.015686,229.952316 882.866760,233.833847 869.249390,239.285568 
	C840.934387,250.621460 815.959045,266.437531 797.376404,291.357727 
	C764.819885,335.017578 776.728760,396.708160 819.962341,425.902130 
	C823.725647,428.443359 826.635010,428.848480 830.806946,426.573914 
	C853.320312,414.299561 877.178345,410.261108 902.239929,416.771729 
	C934.412292,425.129608 957.746277,456.195862 958.449036,489.424683 
	C959.272400,528.355469 933.064331,561.621216 893.931519,572.301697 
	C875.087280,577.444824 856.052063,577.007568 836.931091,574.856873 
	C822.057312,573.183838 807.250793,570.744385 792.202454,571.334961 
	C784.290100,571.645386 776.718201,573.361450 769.578186,576.857056 
	C765.914307,578.650818 762.851013,581.199829 760.388916,584.408997 
	C756.730103,589.178223 756.778381,593.268616 760.350342,598.039795 
	C764.766968,603.939270 765.441162,607.732483 762.752502,611.555542 
	C759.712219,615.878540 753.585449,617.319031 747.367126,615.172729 
	C739.004639,612.286316 733.434448,601.388428 735.093872,591.319153 
	C738.192444,572.516663 750.658020,562.135803 767.393005,555.965942 
	C780.398560,551.171143 793.957581,550.575562 807.764221,551.255981 
	C826.213135,552.165283 844.539001,555.437378 863.054443,554.591553 
	C882.747498,553.692017 900.740540,548.230225 914.854431,533.411377 
	C931.426453,516.011597 936.461304,486.932495 926.358643,466.478333 
	C914.220825,441.903595 887.578186,431.234131 860.304810,440.033966 
	C845.234558,444.896362 832.618835,453.667328 821.240112,464.458557 
	C802.875854,481.874573 788.185181,502.315979 773.171997,522.504639 
	C751.804077,551.238708 731.016846,580.479797 705.901672,606.162292 
	C666.377441,646.579285 619.224915,672.555481 562.729370,680.371826 
	C561.413086,680.554077 560.114258,680.869873 558.812317,681.147095 
	C549.719360,683.083008 545.714966,689.978149 549.207825,698.736450 
	C554.254639,711.391418 564.122681,718.814514 576.894165,722.710999 
	C578.164429,723.098511 579.476990,723.347229 581.181519,723.721191 
z"/>
</svg>