<svg version="1.1" id="Layer_1" xmlns="http://www.w3.org/2000/svg" xmlns:xlink="http://www.w3.org/1999/xlink" x="0px" y="0px"
	 width="100%" viewBox="0 0 1024 1024" enable-background="new 0 0 1024 1024" xml:space="preserve">
<path fill="#000000" opacity="1.000000" stroke="none" 
	d="
M459.023041,872.386353 
	C461.080688,876.581848 463.247742,880.351746 463.329987,884.869507 
	C463.458618,891.934875 459.612305,897.645264 452.737305,899.302490 
	C448.186432,900.399536 447.980499,902.477417 449.094086,906.458801 
	C455.981415,931.082153 447.088226,955.814331 426.413177,970.306885 
	C414.057281,978.967957 400.418976,979.704773 386.223297,976.759399 
	C369.698883,973.330872 354.673615,966.289307 340.410004,957.473022 
	C335.166656,954.232056 329.871765,951.061523 324.767731,947.611328 
	C318.426117,943.324524 318.405487,941.237915 324.226410,936.667297 
	C325.010376,936.051758 325.876862,935.518433 326.065460,934.274170 
	C325.184113,932.177856 323.001770,931.455261 321.234741,930.318848 
	C288.829498,909.478210 261.255615,883.824585 241.443771,850.412048 
	C230.616104,832.151367 222.517914,812.825317 221.113281,791.452087 
	C219.786743,771.267029 229.673477,750.037903 252.160599,737.813965 
	C284.168640,720.414490 325.052643,727.467468 351.329651,754.513306 
	C365.579559,769.179993 374.621307,786.835266 381.312683,805.882080 
	C384.056946,813.693542 386.728729,821.530457 389.514374,829.589966 
	C393.008881,828.533569 395.937408,827.279236 398.987213,826.805176 
	C404.863251,825.891785 410.188324,827.987061 415.138977,830.910461 
	C417.797455,832.480286 419.488159,832.086121 421.480957,829.708130 
	C436.269867,812.060303 449.233276,793.058411 462.765259,774.476868 
	C465.081024,771.296997 464.681274,769.397888 461.060852,767.548340 
	C455.580322,764.748535 450.192963,761.699402 445.048737,758.325195 
	C438.536621,754.053711 437.969757,748.597168 443.191132,742.818604 
	C449.337433,736.016296 455.421021,729.169373 461.044373,721.921204 
	C463.068237,719.312622 463.896454,717.141357 461.302734,714.048157 
	C450.675079,701.373657 445.826111,686.582031 446.828308,670.098022 
	C447.133301,665.081543 445.450195,662.995056 440.678558,661.819641 
	C425.200928,658.007080 410.561584,652.042969 397.489807,642.777344 
	C373.797180,625.983459 368.670929,606.177368 381.418945,580.209656 
	C392.995667,556.627747 407.699066,535.037720 423.945099,514.437256 
	C430.773895,505.778046 438.282745,497.775452 445.931274,489.874023 
	C446.830109,488.945404 448.066284,488.171814 447.719330,486.263489 
	C443.588074,483.969788 438.717560,483.532715 434.118927,482.306000 
	C407.463348,475.195618 383.795837,462.749298 364.915619,442.398529 
	C346.020050,422.031219 334.906067,397.873169 331.598419,370.148590 
	C327.851318,338.740326 332.704956,308.805420 346.275116,280.255707 
	C346.758789,279.238068 347.544891,278.252136 347.073700,276.882080 
	C344.898102,275.256409 342.957886,276.876434 341.092072,277.607422 
	C318.658173,286.396484 295.876526,288.358978 272.615631,281.251923 
	C237.841400,270.627136 212.274124,240.681381 208.829239,205.980560 
	C205.356781,171.001984 216.760330,141.037720 240.696350,115.717018 
	C262.010315,93.170036 288.306274,80.255692 319.298553,79.124496 
	C364.681641,77.468056 404.517822,104.610809 412.116547,154.804932 
	C414.577972,171.064178 412.625641,186.996368 406.654999,202.393585 
	C405.967926,204.165482 404.714050,205.919220 405.600067,208.625504 
	C426.188660,194.769501 448.468750,185.687973 472.801392,181.529083 
	C497.041565,177.385986 521.072449,178.504517 545.003906,183.826645 
	C545.847168,180.336182 543.626770,178.845657 542.458557,177.001144 
	C524.162598,148.113678 521.502991,118.063278 538.519531,88.135780 
	C553.157776,62.391048 576.705322,49.174046 606.276917,47.698914 
	C645.247681,45.754921 677.629333,60.056522 701.681030,90.576454 
	C722.508667,117.005257 729.605591,147.035583 718.110718,179.802887 
	C706.512939,212.863663 669.808594,234.777832 635.105225,229.767578 
	C631.858643,229.298843 628.605164,228.878265 624.629517,228.878098 
	C648.748840,258.526367 659.290222,292.553955 657.994019,330.512024 
	C658.447083,330.502899 658.900208,330.493805 659.353271,330.484680 
	C662.287415,326.551788 665.110413,322.529877 668.175964,318.702271 
	C678.463928,305.856476 696.451538,301.460052 709.991394,308.380035 
	C724.128235,315.605194 730.053894,331.262512 724.525391,347.258301 
	C720.751343,358.177795 713.945068,366.863708 704.163757,373.026428 
	C701.067444,374.977295 700.059631,376.905029 700.744629,380.740326 
	C703.386719,395.533539 697.741699,408.311890 689.604370,420.035492 
	C675.419861,440.471100 655.484436,453.923920 633.535889,464.692352 
	C625.012939,468.873901 616.311768,472.689972 607.125549,475.255035 
	C605.395386,475.738159 603.129272,475.846130 602.700867,477.927429 
	C602.222107,480.253021 604.305359,481.422821 605.955994,482.500824 
	C617.262756,489.885254 628.441895,497.462555 638.795166,506.147858 
	C667.119080,529.908875 689.927307,557.840515 701.701843,593.392090 
	C712.046082,624.625183 712.531189,656.146729 701.420715,687.456360 
	C700.249878,690.755737 700.116394,693.875671 701.251648,697.188843 
	C704.920349,707.895264 708.188171,718.735657 713.494568,728.827148 
	C717.197571,735.869507 716.036560,740.561707 709.750000,745.430603 
	C698.612000,754.057312 686.266541,760.644653 673.399231,766.221008 
	C669.657227,767.842712 667.850098,769.949463 666.892517,774.026550 
	C661.029968,798.985657 654.318359,823.710266 644.562866,847.497925 
	C644.130859,848.551392 643.961182,849.712463 643.688782,850.749207 
	C645.343018,852.676392 647.402710,852.462341 649.354797,852.449646 
	C653.086060,852.425354 656.630676,853.181763 660.005615,854.752747 
	C667.475037,858.229614 669.999207,864.262939 667.223511,872.004028 
	C666.893860,872.923462 666.232849,873.776978 666.888428,875.193298 
	C669.601135,875.949707 671.710876,873.992615 673.926331,872.864990 
	C691.039490,864.155029 708.455566,856.234436 727.386108,852.284668 
	C750.527100,847.456299 772.808594,848.947083 793.265137,862.051514 
	C818.167603,878.004028 826.174622,914.167725 808.460144,937.529907 
	C807.569946,938.703918 806.475037,939.905945 807.457275,941.575500 
	C810.961792,947.532166 807.328735,951.502075 803.288757,954.867615 
	C792.930664,963.496338 780.495728,967.935791 767.659546,971.102722 
	C732.308472,979.824341 696.353882,978.972961 660.351990,977.583374 
	C641.711792,976.864014 623.114929,975.572754 604.516602,974.276550 
	C586.597290,973.027893 568.670715,971.667358 551.338196,966.385254 
	C547.656677,965.263367 544.090088,963.851074 540.853760,961.768066 
	C534.480835,957.666321 532.909790,952.733826 535.713806,945.600769 
	C536.179260,944.416809 536.315308,943.466553 535.828064,942.296692 
	C528.434204,924.544556 534.757629,909.446289 545.269775,895.367737 
	C550.080444,888.925171 556.177612,883.694275 563.080933,879.472778 
	C565.082031,878.248962 566.883728,877.222717 565.997253,874.023804 
	C562.522827,861.485718 567.116333,852.995483 579.835266,852.158875 
	C589.580383,851.517883 593.015564,846.801819 595.932739,838.836060 
	C601.948914,822.408020 607.763000,805.942566 612.033630,788.965454 
	C613.348572,783.738220 612.809021,783.113037 607.535645,783.165833 
	C597.620789,783.265198 593.476379,778.471741 595.026001,768.697144 
	C596.964905,756.467346 596.881348,756.390015 585.342957,759.669189 
	C584.382812,759.942017 583.415344,760.429504 582.454346,760.422180 
	C572.466919,760.345764 567.981628,766.617981 564.801392,774.979126 
	C562.737061,780.406555 559.941895,785.575989 557.229370,790.732178 
	C553.288147,798.223755 549.083496,800.319397 540.875244,798.347168 
	C534.093689,796.717896 527.422302,794.565186 520.808472,792.329529 
	C517.424072,791.185608 515.248413,791.796570 513.221497,794.787415 
	C496.486572,819.481018 479.059998,843.675781 460.638245,867.146118 
	C459.529633,868.558594 458.139984,869.947693 459.023041,872.386353 
M429.610443,594.194885 
	C427.100494,601.489929 427.774994,603.749756 434.202606,607.985413 
	C439.955750,611.776611 446.536163,613.655273 452.990173,615.849609 
	C456.179749,616.934082 457.825195,615.823975 460.208466,613.621826 
	C464.785370,609.392578 466.007080,604.433105 466.291534,598.595154 
	C466.983673,584.391052 465.843719,570.378662 462.360107,556.613159 
	C461.081573,551.561035 458.042603,551.000488 454.689636,555.037537 
	C444.885925,566.841248 436.264740,579.432495 429.610443,594.194885 
z"/>
</svg>