<?xml version="1.0" encoding="utf-8"?>
<!-- Generator: Adobe Illustrator 22.0.0, SVG Export Plug-In . SVG Version: 6.00 Build 0)  -->
<svg version="1.1" id="Layer_1" xmlns="http://www.w3.org/2000/svg" xmlns:xlink="http://www.w3.org/1999/xlink" x="0px" y="0px"
	 viewBox="0 0 1417.3 1417.3" style="enable-background:new 0 0 1417.3 1417.3;" xml:space="preserve">
<style type="text/css">
	.st0{fill:none;}
	.st1{fill:#121212;}
	.st2{fill:none;stroke:#121212;stroke-width:0.7938;stroke-miterlimit:10;}
	.st3{stroke:#121212;stroke-width:0.5249;stroke-linecap:round;stroke-linejoin:round;stroke-miterlimit:10;}
	.st4{stroke:#000000;stroke-width:0.5249;stroke-linecap:round;stroke-linejoin:round;stroke-miterlimit:10;}
	.st5{fill:none;stroke:#121212;stroke-width:0.5249;stroke-linecap:round;stroke-linejoin:round;stroke-miterlimit:10;}
	.st6{fill:#010101;}
</style>
<g>
	<path d="M352.8,999.1v-92h5.6V863h-26.1l-80,42.7v7.3l2-0.9v96.7L352.8,999.1z M324.9,878.8l7.5-3.5v119.4l-7.5,1.2V878.8z
		 M312.2,884.8l7.1-3.4v115.3l-7.1,1.1V884.8z M299.3,890.9l8-3.8v111.5l-8,1.3V890.9z M286.2,897.1l8.6-4.1v107.4h1l-9.6,1.5V897.1
		z M272.6,903.5l9.1-4.3v103h2.7l-11.7,1.9V903.5z M258.8,910l9.2-4.4v99.2l-9.2,1.5V910z"/>
	<polygon points="265.1,897.1 323.8,865.1 323.8,831.2 262.5,877.3 262.5,888.1 265.3,888.1 	"/>
	<rect x="326.6" y="831.2" width="31.9" height="28.2"/>
	<polygon points="641.5,922.5 640.4,894 457.8,926.2 457.8,948.3 481.4,945 481.4,930.7 525.3,924 525.3,938.8 544.8,936.1 
		544.8,920.1 595.4,912.4 595.4,928.9 	"/>
	<path d="M1026.1,814.2c0-36.6-25.5-66.2-57-66.2c-30.1,0-54.7,27.1-56.8,61.4c9.2-22.1,28.7-37.4,51.3-37.4c31.5,0,57,29.7,57,66.2
		c0,1.6-0.1,3.2-0.2,4.8C1024.1,834.3,1026.1,824.6,1026.1,814.2z"/>
	<path d="M1164.8,1009.4v-61.5h-61.5v-68.2h-14.2h-24.2c8.7-19.2,13.7-41,13.7-64.1c0-74.8-51.7-135.9-117.2-141
		c5.6-6.2,10-16.1,10-31.9c0-43.1-30.2-50.2-30.2-50.2c-12.7,0-22.7,2.3-30.6,5.8v-4.1c0,0-7-5.8-19.6-11v-98.3
		c8.2,0,14.7-14.7,14.7-14.7v-32c0,0-12-20-52.5-20s-56,15.5-56,15.5s0,26,0,35c0,9,12,17.5,12,17.5v98.3
		c-9.6,5.4-11.6,11.3-11.6,11.3v90c-5-5.8-17.8-17.4-38.4-17.4c-4.5,0-8.6,0.5-12.5,1.2v-14.9c0,0-25-21-66-18.5
		c-41,2.5-47,20-47,20v130.3l-40.3,15.8l-10.2,4v-3.7c0,0-41.3-5.9-69-7.9c-42.2-3-105.4,2.9-105.4,2.9v146.9h9
		c0-24.1,5-27.9,5-27.9l29-3.4c0-38.9,20-59.6,20-59.6l47.8-18.3l351.1-126.8c-4.1,3.9-7.9,8.1-11.5,12.6L479,859.4l-5.5,9
		l368.7-120.9c-9.9,20.2-15.6,43.4-15.6,68.1c0,2.6,0.1,5.2,0.2,7.8L457,907v14l374.7-65.8c2.2,8.6,5.1,16.8,8.7,24.6H735.2l-18.4,3
		v137.2c0,0,4,22.1,26.5,33h-8.8c0,0-6.7-3.1-15.6-7.6c-5-2.5-10.7-5.5-16.2-8.6c-3.7-2.1-7.4-4.2-10.7-6.3c-3.7-2.3-7-4.6-9.6-6.7
		c-2.8-2.2-4.8-4.3-5.6-6.1c-0.5-1.1-1.1-3.2-1.7-6c-0.5-2.6-1.1-5.9-1.7-9.7c-0.7-4.6-1.5-9.9-2.2-15.7c-0.3-2.7-0.7-5.4-1.1-8.2
		c-4.6-36.9-9.1-85.8-9.1-85.8l-14.7,2.2c0,0,5.4,52.1,11.9,91.1c-10,10.1-17.6,28.9-21,51.8c-0.4-2.2-0.8-4.3-1.2-6.3
		c1.7-9.1,6.5-31.1,14.6-42.2l-1.9-12.5l-235.9,6.6v15.7H439l6.2,37.1h2.5c0,0,4.7-35.6,22.1-40l0,0c-12.6,5.8-22,29.7-22.1,58.4
		h-20.7v-48.7h-18v-16.9l-5.6,0.4v20.2h6.4v61.1h38.9c3.2,25.7,14,44.6,27,44.6h13c0,0,12.3-8.8,16.5-38.6c3.7,27.7,15.5,48,29.5,48
		h14.3c0,0,12.6-9,17.7-39.3c4.3,31.4,17.7,54.3,33.6,54.3h16.3c0,0,15.3-10.9,20.7-48.1c5.3,34.2,20.3,58.9,38,58.9h18.6
		c0,0,25.7-18.3,25.7-86.3c0-0.4,0-0.8,0-1.1c6.6,3,11.1,4.7,11.1,4.7h109.5l-2.5,28.5l-107.7-4.2l-2.7,15.5l25.8,2.6
		c4.3,7.7,14.4,22.1,30.2,22.1c13.8,0,23.6-9.4,28.8-16.1l23.7,2.4l-3.5,39.7l261.7,51.5l44.1-72l-42.4-89.7c13,0,34.5,0,49.4,0
		C1167.8,1047.4,1164.8,1009.4,1164.8,1009.4z M459.8,859.4h-33.5V811h33.5V859.4z M509.8,828.5L467.4,842v-31h42.4V828.5z
		 M545.3,816.2l-23.8,8.4V811h23.8V816.2z M551,815.4V811h14.2L551,815.4z M743.7,656.5v3.8c-41.9-16.8-93.5-4.8-93.5-4.8
		C699.7,623,743.7,656.5,743.7,656.5z M743.7,663.4v6.7c-18.2,4.3-29.1,14.7-29.1,14.7v44.3l-6.7,2.8v-76.7
		C727.6,657.1,741.8,662.6,743.7,663.4z M673.4,770.8l-7.9,3.1l-0.4-116.1c2.8-0.7,5.5-1.2,8.2-1.7V770.8z M700.7,760.1l-13.9,5.4
		V654.6c4.8-0.3,9.4-0.2,13.9,0V760.1z M797.1,722.3l-89.2,35v-14.5l89.2-32.7V722.3z M797.1,695.4l-44.2,18.1v-38.1
		c0,0,22.9-6.7,44.2,14.6V695.4z M616.7,991.7L616.7,991.7C616.7,991.8,616.7,991.7,616.7,991.7L616.7,991.7z M473.4,1108.6
		c-10.3,0-19-16.2-21.8-38.4h2.2c2.7,16.4,9.5,28,17.5,28c10.4,0,18.8-19.5,18.8-43.6c0-24.1-8.4-43.6-18.8-43.6
		c-10.3,0-18.7,19.3-18.8,43.1h-1.9c0.1-29.6,10.3-53.5,22.8-53.5c12.6,0,22.8,24.2,22.8,54C496.2,1084.4,486,1108.6,473.4,1108.6z
		 M454.6,1057.4c0-0.9-0.1-1.9-0.1-2.8c0-21.6,6.9-39.1,15.3-39.1c8.5,0,15.3,17.5,15.3,39.1c0,21.6-6.9,39.1-15.3,39.1
		c-6.3,0-11.7-9.7-14-23.5h0.9L454.6,1057.4z M504.9,1032.4c2-10.7,8.5-35.2,25.5-39.9c-11.7,3.6-21.2,21.3-24.8,44.8
		C505.4,1035.5,505.1,1033.9,504.9,1032.4z M532.2,1117.3c-13.8,0-25-26.6-25-59.3s11.2-59.3,25-59.3s25,26.6,25,59.3
		S546.1,1117.3,532.2,1117.3z M566.3,1030.9c2.2-9.9,8.5-31.1,23.5-39.3c-10.4,7-18.6,24.2-22.4,46.1
		C567.1,1035.3,566.7,1033,566.3,1030.9z M597.5,1131.3c-15.8,0-28.6-30.3-28.6-67.7c0-37.4,12.8-67.7,28.6-67.7
		c15.8,0,28.6,30.3,28.6,67.7C626,1101,613.2,1131.3,597.5,1131.3z M666.6,1022.9c3.1,7.8,11.4,15.3,20.9,21.9
		c0.8,5.9,1.3,12.2,1.3,18.8c0,30.9-9.8,56-21.9,56c-12.1,0-21.9-25.1-21.9-56c0-27.2,7.6-49.8,17.6-54.9
		C663.9,1014.7,665.3,1019.6,666.6,1022.9z M672,1141c-18,0-32.6-34.6-32.6-77.4c0-32.1,8.2-59.6,20-71.3c0.7,4,1.4,7.8,2.2,11.4
		c-11.2,7.6-19.3,31.5-19.3,59.9c0,34.5,12.1,62.5,26.9,62.5c14.9,0,26.9-28,26.9-62.5c0-4.7-0.2-9.3-0.7-13.8
		c3,1.8,6.1,3.5,9.1,5.1c0.1,2.8,0.2,5.7,0.2,8.6C704.6,1106.3,690,1141,672,1141z M1089.1,898.5v49.5h-92.2
		c23.3-9.8,43.4-27.2,57.8-49.5H1089.1z M969.3,882.7c-34,0-61.5-30.9-61.5-69c0-38.1,27.5-69,61.5-69c34,0,61.5,30.9,61.5,69
		C1030.8,851.8,1003.3,882.7,969.3,882.7z M933.4,598.7c8.2,2.4,34.2,12.4,34.2,44c0,15.4-4.9,25.3-10.8,31.6c-0.1,0-0.1,0-0.2,0
		c4.6-9.8,20.9-50.9-19.6-73.6l-4-1.7C933.2,599,933.3,598.8,933.4,598.7z M923.7,612.1c8.4,1.3,25.2,7,25.2,30.7
		c0,16.9-6.7,26.1-13.9,31.1c-5.1-2.5-10.1-6.3-13.6-12.1c0.5,0.1,0.9,0.2,1.4,0.2c6.8,0,12.2-6.9,12.2-15.4
		c0-8.5-5.5-15.4-12.2-15.4c-2,0-3.8,0.6-5.4,1.7C918.5,624.5,920.8,617.6,923.7,612.1z M886.9,483.3v98.3c-1.4-0.5-2.8-1-4.4-1.5
		h0.1V466.7c5.9,0.7,12.3,1.8,18.8,3.4C901.4,470.1,896.4,479.3,886.9,483.3z M847.3,425.8c16.8-0.9,36.8,1.5,54.4,13.3v26.2
		c0,0-23.6-5.9-54.4-4.7V425.8z M862.7,465.3v110.9c-4.6-0.5-9.4-0.7-14.5-0.5v-110C848.2,465.6,853.8,465.1,862.7,465.3z
		 M811.2,433.1c0,0,11.4-4.5,27.5-6.5v34.5c-8.9,0.7-18.1,2-27.5,4.2V433.1z M837.2,706.5l-7.9,3.1l-0.3-112.2
		c2.8-0.7,5.5-1.2,8.2-1.7V706.5z M864.6,695.8l-13.9,5.4v-107c4.8-0.3,9.4-0.2,13.9,0V695.8z M814.1,595.2c49.5-32.5,93.5,1,93.5,1
		v3.5c-0.1,0.1-0.2,0.1-0.3,0.2C865.3,583.2,814.1,595.2,814.1,595.2z M903.8,601.7c-16.7,9.9-21.2,24.3-21.2,24.3v62.7l-10.9,4.3
		v-98.2C886.4,596.2,898.1,599.7,903.8,601.7z M955.7,688.6c34.5,0,65.3,17.8,85.5,45.7c1.6,12.8,7.1,65.1-6.1,103.7
		c1.9-7.1,2.9-14.6,2.9-22.4c0-43.5-31.5-78.9-70.3-78.9c-38.8,0-70.3,35.3-70.3,78.9c0,32.8,17.8,60.8,43.1,72.8
		c-29.7-2.3-61.9-13.6-89.1-35.9c-3.9-12.6-6-26.1-6-40.2C845.4,743.9,894.8,688.6,955.7,688.6z M735.2,898.5h115.4
		c14.4,22.3,34.4,39.7,57.8,49.5H767.6l-32.4,3.7C735.2,931.6,735.2,912.1,735.2,898.5z M1126.2,1138.6l-38.2,57.3l-232.3-48.5
		l0.7-96.7l10.6,0.2l2.9,91.6l18.7,1.8l-1.1-92.1l9.8,94.2l8.5,1.5l11.2,1.1l-8.8-96.5l20.6,99.4l23.2,4l-15.4-105.3l25.5,107
		l21.2,3.6L963,1051.3l31.8,111.7l19.6,3.4l-27.8-115.5l36.4,117l23.2,4l-33.1-121.5l42.6,123.1l19.6,3.4l-36.7-125.5l46.7,124.9
		l13.1-16.7l-38.6-110.2l43.7,103.7l12-15.3l-37.5-90.3l4.3-0.1L1126.2,1138.6z M1155.5,1009.8c0,27.7-13.5,31-13.5,31h-78.4
		l0.3,0.1l-221.4,0.7h-22.5l-7.5,11.4H787c-23.6-2.5-51.8-10.5-51.8-34.5c0-14.6,0-36.1,0-57.9l32.4-3.5h387.8
		C1155.5,956.9,1155.5,982.1,1155.5,1009.8z"/>
	<path d="M508,787.7c38.5,0.9,85.4,14.4,85.4,14.4l0-14.4c0,0-88.2-20.3-186.4-5.8l-56.5,39v4.7l55.5-33.2
		C406.1,792.5,467.4,786.7,508,787.7z"/>
	<rect x="781.7" y="973.4" width="362.9" height="28.5"/>
	<path d="M276.7,1025.9c-5.3,0-9.6,9.9-9.6,22.2c0,12.2,4.3,22.2,9.6,22.2c5.3,0,9.6-9.9,9.6-22.2
		C286.2,1035.8,281.9,1025.9,276.7,1025.9z M275.9,1067.9c-4.3,0-7.8-8.9-7.8-19.9c0-11,3.5-19.9,7.8-19.9c4.3,0,7.8,8.9,7.8,19.9
		C283.7,1059,280.2,1067.9,275.9,1067.9z"/>
	<path d="M275.9,1047.9c0,4.2,1.1,7.6,2.5,7.6s2.5-3.4,2.5-7.6c0-4.2-1.1-7.6-2.5-7.6S275.9,1043.7,275.9,1047.9z"/>
	<path d="M307.3,1025.4c-5.8,0-10.5,10.9-10.5,24.4c0,13.5,4.7,24.4,10.5,24.4s10.5-10.9,10.5-24.4
		C317.8,1036.3,313.1,1025.4,307.3,1025.4z M306.5,1071.6c-4.7,0-8.6-9.8-8.6-21.8c0-12.1,3.8-21.8,8.6-21.8s8.5,9.8,8.5,21.8
		C315,1061.8,311.2,1071.6,306.5,1071.6z"/>
	<path d="M306.5,1049.6c0,4.6,1.2,8.4,2.7,8.4c1.5,0,2.7-3.8,2.7-8.4c0-4.6-1.2-8.4-2.7-8.4C307.7,1041.2,306.5,1045,306.5,1049.6z"
		/>
	<path d="M340.3,1024.8c-6.6,0-12,12.4-12,27.8s5.4,27.8,12,27.8c6.6,0,12-12.4,12-27.8S346.9,1024.8,340.3,1024.8z M339.4,1077.6
		c-5.4,0-9.8-11.2-9.8-24.9s4.4-24.9,9.8-24.9c5.4,0,9.8,11.2,9.8,24.9S344.7,1077.6,339.4,1077.6z"/>
	<path d="M339.4,1052.5c0,5.3,1.4,9.6,3.1,9.6c1.7,0,3.1-4.3,3.1-9.6c0-5.3-1.4-9.6-3.1-9.6C340.7,1042.9,339.4,1047.2,339.4,1052.5
		z"/>
	<path d="M378.5,1020.9c-7.6,0-13.7,14.2-13.7,31.8s6.1,31.8,13.7,31.8c7.6,0,13.7-14.2,13.7-31.8S386,1020.9,378.5,1020.9z
		 M377.4,1081.1c-6.2,0-11.1-12.7-11.1-28.5c0-15.7,5-28.5,11.1-28.5s11.1,12.7,11.1,28.5C388.5,1068.4,383.5,1081.1,377.4,1081.1z"
		/>
	<path d="M377.4,1052.4c0,6,1.6,10.9,3.5,10.9c2,0,3.5-4.9,3.5-10.9c0-6-1.6-10.9-3.5-10.9C378.9,1041.5,377.4,1046.4,377.4,1052.4z
		"/>
	<path d="M474.7,1069.2c2.7,0,4.9-6.7,4.9-15c0-8.3-2.2-15-4.9-15c-2.7,0-4.9,6.7-4.9,15C469.8,1062.5,472,1069.2,474.7,1069.2z"/>
	<path d="M530,1010c-11.4,0-20.7,21.5-20.7,47.9c0,26.5,9.2,47.9,20.7,47.9c11.4,0,20.7-21.5,20.7-47.9
		C550.7,1031.5,541.4,1010,530,1010z M528.3,1100.9c-9.3,0-16.8-19.2-16.8-43c0-23.7,7.5-43,16.8-43c9.3,0,16.8,19.2,16.8,43
		C545.1,1081.7,537.6,1100.9,528.3,1100.9z"/>
	<path d="M528.3,1057.6c0,9.1,2.4,16.5,5.3,16.5c2.9,0,5.3-7.4,5.3-16.5c0-9.1-2.4-16.5-5.3-16.5
		C530.7,1041.1,528.3,1048.5,528.3,1057.6z"/>
	<path d="M594.9,1008.9c-13,0-23.6,24.5-23.6,54.7s10.6,54.7,23.6,54.7c13,0,23.6-24.5,23.6-54.7S607.9,1008.9,594.9,1008.9z
		 M593,1112.6c-10.6,0-19.2-22-19.2-49s8.6-49,19.2-49c10.6,0,19.2,22,19.2,49S603.6,1112.6,593,1112.6z"/>
	<path d="M593,1063.2c0,10.4,2.7,18.8,6.1,18.8c3.4,0,6.1-8.4,6.1-18.8c0-10.4-2.7-18.8-6.1-18.8
		C595.7,1044.4,593,1052.8,593,1063.2z"/>
	<path d="M673.8,1084.7c3.8,0,7-9.6,7-21.5c0-11.9-3.1-21.5-7-21.5c-3.8,0-7,9.6-7,21.5C666.9,1075,670,1084.7,673.8,1084.7z"/>
	<path d="M389.3,1009.4l9-0.5v-27.7l249.4-11.8l-2-12l-247.4,17.8v-3l246.9-21.3l-3-25l-243.9,33.5v-157l-38.2,23.2l-0.1,0V907
		l27.7-9.3l-23.2,9.3h12.6v88.5l-22.9,1.8v14.2l22.4-1.3c-7.1,3.8-12.7,15.6-14.7,30.8c-2.5-17.5-10-24.5-12.3-26.2l0.8,0v-12
		l-88,7.1v9.4l12.6-0.6c-6.1,3.5-10.5,15.4-10.5,29.5c0,16.9,6.4,30.6,14.2,30.6h6.6c0,0,7.4-5.3,8.9-24.1
		c1.1,16.3,7.6,28.8,15.4,28.8h7.3c0,0,6.4-4.6,9-20c2.2,16,9,27.6,17.1,27.6h8.3c0,0,8.2-5.9,10.7-26.2
		c2.5,18.3,10.3,31.6,19.5,31.6h9.5c0,0,13.1-9.3,13.1-43.9C404.2,1022.9,392.6,1011.9,389.3,1009.4z M277.7,1075.5
		c-6.4,0-11.6-12.3-11.6-27.4c0-15.2,5.2-27.4,11.6-27.4c6.4,0,11.6,12.3,11.6,27.4C289.3,1063.2,284.1,1075.5,277.7,1075.5z
		 M284.5,1018l22-1.1c-6.1,2.8-10.8,13.3-12,26.5C293.4,1026.7,286.8,1019.9,284.5,1018z M308.5,1079.9c-7,0-12.7-13.5-12.7-30.2
		c0-16.7,5.7-30.2,12.7-30.2c7,0,12.7,13.5,12.7,30.2C321.2,1066.4,315.5,1079.9,308.5,1079.9z M315.5,1016.5l23.6-1.2
		c-5.9,2.9-10.7,12.2-12.7,24.3C324.2,1023.9,317.3,1017.8,315.5,1016.5z M341.6,1087.1c-8,0-14.5-15.4-14.5-34.4
		c0-19,6.5-34.4,14.5-34.4c8,0,14.5,15.4,14.5,34.4C356.1,1071.7,349.6,1087.1,341.6,1087.1z M363.1,875.2v-46.3l31-18v50.9
		L363.1,875.2z M380,1092c-9.2,0-16.6-17.6-16.6-39.3c0-21.7,7.4-39.3,16.6-39.3c9.2,0,16.6,17.6,16.6,39.3
		C396.5,1074.4,389.1,1092,380,1092z"/>
	<path d="M960.9,715.1c3.4,0,6.1-3.7,6.1-8.2c0-4.6-2.7-8.2-6.1-8.2c-3.4,0-6.1,3.7-6.1,8.2C954.8,711.4,957.5,715.1,960.9,715.1z"
		/>
	<path d="M1028.4,753c3.4,0,6.1-3.7,6.1-8.2c0-4.6-2.7-8.2-6.1-8.2c-3.4,0-6.1,3.7-6.1,8.2C1022.3,749.3,1025,753,1028.4,753z"/>
	<path d="M864.6,822c3.4,0,6.1-3.7,6.1-8.2c0-4.6-2.7-8.2-6.1-8.2c-3.4,0-6.1,3.7-6.1,8.2C858.5,818.3,861.2,822,864.6,822z"/>
	<path d="M893.8,750.1c3.4,0,6.1-3.7,6.1-8.2c0-4.6-2.7-8.2-6.1-8.2s-6.1,3.7-6.1,8.2C887.8,746.5,890.5,750.1,893.8,750.1z"/>
	<path d="M910.7,358.4c-0.1,0.3-0.2,0.6-0.3,0.9c-0.5,1.2-1.1,2.6-1.7,4.1c-0.6,1.3-1.2,2.8-1.9,4.2c-0.8,1.4-1.7,3-2.6,4.6
		c-0.4,0.7-1,1.5-1.4,2.3c0,0-0.1,0.1-0.1,0.1c-3.7,5.8-8.5,12.3-15.4,18.3c-5.5,4.9-12.1,9.4-19.8,13.2c7,0.1,13.9-0.8,20-2.7
		c8.9-2.8,16.3-7.5,22-12.4c5.8-4.9,9.8-10.4,12.6-15c1.4-2.3,2.6-4.5,3.4-6.4c0.9-1.9,1.6-3.6,2-5c0.9-2.8,1.4-4.3,1.4-4.3
		s0.3-1.5,0.9-4.4c0.4-1.4,0.6-3.2,0.8-5.3c0.3-2.1,0.4-4.5,0.4-7.3c-0.1-5.4-0.7-12.1-3.2-19.3c-2.4-7.2-6.4-15-12.6-21.9
		c-1.2-1.4-2.6-2.7-4-4c0.4,1.1,0.8,2.1,1.2,3.2c2.9,8.7,3.7,16.8,3.9,23.6c0,0,0,0.1,0,0.1c0,0.9,0.1,1.9,0.1,2.7
		c0,1.9-0.1,3.6-0.1,5.3c-0.1,1.7-0.4,3.2-0.5,4.6c-0.2,1.6-0.4,3.1-0.6,4.4c-0.1,0.3-0.1,0.6-0.2,0.9c-0.1,0.7-0.2,1.4-0.4,1.9
		c-0.9,3.9-1.3,6-1.3,6s-0.7,2-1.9,5.8C911.2,357.1,910.9,357.8,910.7,358.4z"/>
	<path d="M727.1,298.3c3.4-2.4,7.1-4.6,10.9-6.3c5.7-2.4,11.6-4.1,17.5-4.9c4.4-0.6,8.8-0.7,13.1-0.4c-3.1,0.1-6.2,0.4-9.2,0.9
		c-11.9,2-23.5,7.5-32.9,15.8c-4.7,4.2-8.7,9.1-12.2,14.4c-3.3,5.4-5.7,11.2-7.5,17.4c-1.6,6.2-2.5,12.5-2.4,18.8
		c0.2,6.3,1.2,12.6,3.1,18.6c3.9,11.9,11.1,22.6,20.3,30.4c4.6,3.8,9.6,7.2,14.9,9.5c2.5,1.3,5.4,2.2,8.1,3.2c2.6,0.8,5.5,1.4,8.2,2
		c11,1.9,21.8,0.9,31.2-2c5.4-1.7,10.2-4,14.5-6.6c0.5,0.2,1,0.4,1.6,0.5c3.4,1,7.1,1.8,10.6,2.5c14.2,2.3,28.2,1,40.2-2.8
		c12.1-3.8,22.1-10.2,29.9-16.9c7.9-6.7,13.2-14.1,17.1-20.4c0.9-1.6,1.8-3.1,2.6-4.6c0.8-1.5,1.3-2.9,2-4.2
		c1.2-2.6,2.2-4.9,2.8-6.8c1.3-3.8,1.9-5.8,1.9-5.8s0.4-2.1,1.3-6c0.5-1.9,0.8-4.4,1.1-7.2c0.1-1.4,0.4-3,0.5-4.6
		c0-1.7,0-3.4,0.1-5.3c-0.1-7.4-0.9-16.5-4.3-26.3c-3.3-9.8-8.6-20.4-17.1-29.8c-8.4-9.4-19.8-17.7-33.1-22.9
		c-13.5-5.2-29-7.1-44.4-4.6c-1.4,0.2-2.7,0.5-4,0.8c1,2.2,1.9,4.5,2.6,6.6c2.4,7.4,3,14.3,3,19.9c0,2.8-0.1,5.3-0.5,7.4
		c-0.2,2.2-0.5,4-0.9,5.4c-0.7,2.9-1,4.5-1,4.5s-0.5,1.5-1.4,4.4c-0.4,1.4-1.1,3.1-2,5.1c-0.4,1-0.8,2-1.4,3c-0.1,0-0.1-0.1-0.2-0.1
		c0.5-1,1-2,1.4-2.9c0.9-2,1.7-3.6,2.1-5.1c1-2.8,1.5-4.3,1.5-4.3s0.3-1.6,1-4.5c0.4-1.5,0.6-3.3,0.8-5.4c0.3-2.1,0.4-4.6,0.4-7.4
		c-0.1-5.5-0.7-12.4-3.2-19.7c-2.5-7.3-6.5-15.3-12.9-22.3c-6.3-7-14.9-13.2-24.9-17.1c-10.2-3.8-21.7-5.2-33.2-3.3
		c-11.5,2-22.7,7.3-31.8,15.2c-3.1,2.7-5.8,5.8-8.3,9c5.5,3.3,10.1,7.3,13.7,11.7c5,6.1,8.3,12.7,10.2,18.7c2,6.1,2.4,11.7,2.4,16.2
		c0,2.3-0.1,4.3-0.4,6.1c-0.2,1.8-0.4,3.3-0.7,4.4c-0.5,2.4-0.8,3.6-0.8,3.6s-0.4,1.2-1.1,3.6C727.2,297.9,727.2,298.1,727.1,298.3z
		"/>
	<path d="M662.7,270.4c7.1,8.6,11.8,17.8,14.5,26.4c0.2,0.7,0.4,1.4,0.6,2.2c4.7-0.4,9.6-0.4,14.6,0.3c2.8,0.5,5.5,1,8.4,1.7
		c2.7,0.9,5.4,1.5,8.1,2.8c2.7,1,5.2,2.3,7.7,3.8c1.8-1.9,3.6-3.8,5.6-5.5c1.6-1.3,3.2-2.5,4.8-3.7c0.1-0.2,0.2-0.5,0.3-0.7
		c0.8-2.3,1.2-3.5,1.2-3.5s0.3-1.3,0.8-3.7c0.3-1.2,0.5-2.7,0.7-4.4c0.3-1.8,0.3-3.8,0.3-6.1c-0.1-4.5-0.6-10.1-2.7-16.1
		c-2-6-5.3-12.4-10.5-18.2c-5.2-5.7-12.2-10.7-20.3-13.8c-8.3-3.1-17.7-4.1-27-2.5c-9.3,1.6-18.3,6-25.7,12.4
		c-2.9,2.6-5.3,5.5-7.6,8.6C647.1,255.5,656,262.6,662.7,270.4z"/>
	<path d="M445.6,499.2c2.5,2.1,5.2,4,8.1,5.3c1.3,0.7,3,1.2,4.5,1.8c1.4,0.4,3,0.8,4.5,1.1c6,1.1,12,0.7,17.2-0.9
		c5.2-1.5,9.6-4.2,13-7.1c3.5-2.8,5.8-6.1,7.4-8.8c1.7-2.7,2.6-5.1,3.2-6.7c0.5-1.6,0.8-2.5,0.8-2.5l0,0c1.7,0.9,3.4,1.8,5.3,2.5
		c6.9,2.5,14.7,3.4,22.4,2c7.7-1.4,15.2-5,21.2-10.4c3-2.7,5.6-5.9,7.8-9.3c2.2-3.6,3.6-7,4.9-11.4c0.9-3.7,1.6-8,1.5-12
		c-0.2-4.1-0.8-8.1-2-12c-2.5-7.7-7-14.7-13-19.8c-3-2.5-6.2-4.8-9.6-6.2c-1.6-0.9-3.5-1.5-5.3-2.1c-0.9-0.3-1.9-0.6-3-0.8
		c-0.2-0.6-0.3-1.2-0.5-1.8c-0.1-0.2-0.2-0.5-0.3-0.7c1.5,0.3,3,0.5,4.6,0.9c0.8,0.2,1.5,0.5,2.3,0.7c4,1.5,7.6,2.6,11.1,5.2
		c3.5,2.6,6.5,5.9,9.3,9.5c2.6,3.7,4.7,7.8,6.3,12.1c2.9,8.4,3.2,17.5,1.1,26.4c5.2,3.9,11,7.4,17.5,9.9c11.2,4.3,24,5.8,36.8,3.7
		c12.7-2.2,25.1-8,35.3-16.8c5-4.5,9.4-9.7,13-15.4c3.6-5.9,6.1-11.8,8.1-18.8c1.6-6.3,2.7-13.3,2.5-20c-0.2-6.8-1.3-13.5-3.3-19.9
		c-4.2-12.8-11.9-24.2-21.8-32.5c-1.9-1.6-4-3.1-6-4.5c2.9,1.7,5.6,3.6,8.4,5.7c5.2,4,9.8,9.1,13.9,14.5c3.9,5.6,7,11.8,9.3,18.4
		c2.2,6.6,3.4,13.6,3.7,20.7c0.2,7.1-0.7,14-2.5,21.2c-0.8,2.5-1.7,5.2-2.8,7.8c3.7,0,7.4-0.2,11.1-0.8c11.5-2,22.7-7.3,31.8-15.2
		c2.2-2,4.3-4.1,6.2-6.4c-1.9-1.2-3.8-2.5-5.7-3.9c-4.7-3.7-8.9-8.2-12.6-13.1c-3.6-5-6.3-10.7-8.5-16.7c-2-6-3.1-12.3-3.4-18.7
		c-0.2-6.4,0.7-12.8,2.2-19.1c1.8-6,4.4-12.1,7.9-17.5c1.5-2.2,3.1-4.4,4.8-6.4c-2.2-1.3-4.4-2.6-6.6-3.5c-2.4-1.3-5.2-2.1-7.9-3.1
		c-2.5-0.8-5.3-1.4-7.9-1.9c-10.6-1.8-21.1-0.8-30.2,2c-9.1,2.8-16.6,7.6-22.5,12.6c-5.2,4.4-8.9,9.2-11.7,13.6
		c-0.1,0-0.2,0-0.3-0.1c2.8-4.4,6.4-9.3,11.7-13.9c5.8-5.2,13.4-10,22.5-13.3c4.8-1.7,10.2-2.8,15.7-3.3c-0.2-0.7-0.3-1.3-0.6-2
		c-2.8-8.5-7.5-17.7-14.9-25.9c-7.3-8.1-17.2-15.3-28.8-19.8c-11.7-4.5-25.1-6.1-38.5-3.9c-13.3,2.2-26.3,8.3-37,17.6
		c-5.3,4.7-9.8,10.2-13.7,16.2c-3.8,6.1-6.4,12.4-8.5,19.7c0,0.1,0,0.1,0,0.2c7.8,0.4,15.2,2.1,21.9,4.9
		c10.1,4.3,18.2,10.8,24.3,17.9c2.1,2.5,3.9,5.2,5.5,7.8c-0.3,0.1-0.5,0.2-0.8,0.3c-1.6-2.5-3.5-5-5.6-7.3
		c-6.2-6.8-14.5-12.8-24.2-16.5c-9.9-3.7-21.1-5-32.2-3.1c-11.1,1.9-22,7-30.9,14.8c-4.4,3.9-8.2,8.5-11.4,13.5
		c-3.1,5.1-5.3,10.5-7.1,16.3c-1.5,5.7-2.3,11.6-2.3,17.5c1.7-0.4,3.3-0.8,5-1c8.6-1.1,17.1,0.3,24.3,3.2c-6.9-2-14.4-2.6-21.9-1.3
		c-8.6,1.5-17,5.6-23.8,11.6c-3.4,3.1-6.3,6.6-8.8,10.5c-2.4,4-4.1,7.9-5.5,12.7c-1.1,4.2-1.8,9-1.7,13.5c0.2,4.6,0.9,9.1,2.2,13.5
		c1,3.2,2.5,6.3,4.1,9.2c0.9-0.5,1.8-1,2.7-1.5c3.7-1.5,7.4-2.5,11.2-3c7.5-0.9,15,0.4,21.2,3.1c1,0.5,2,1,2.9,1.5
		c-1-0.5-1.9-0.9-3-1.3c-5.8-2.1-12.4-2.8-18.8-1.6c-6.5,1.2-12.7,4.3-17.8,8.8c-2.5,2.3-4.7,5-6.5,7.8c-1.8,3-3,5.8-4.1,9.5
		c-0.8,3.1-1.3,6.7-1.3,10c0.1,3.4,0.6,6.8,1.6,10.1C436.9,489,440.6,494.9,445.6,499.2z"/>
</g>
</svg>
