<svg version="1.1" id="Layer_1" xmlns="http://www.w3.org/2000/svg" xmlns:xlink="http://www.w3.org/1999/xlink" x="0px" y="0px"
	 width="100%" viewBox="0 0 1024 1024" enable-background="new 0 0 1024 1024" xml:space="preserve">
<path fill="#000000" opacity="1.000000" stroke="none" 
	d="
M620.889648,415.916199 
	C621.600647,418.956360 622.632507,421.522369 624.414978,423.467468 
	C627.635376,426.981567 627.109192,430.402771 625.522156,434.440521 
	C621.381348,444.975525 617.814575,455.772003 610.722412,464.838043 
	C609.101318,466.910278 610.906921,469.076050 610.002075,471.076996 
	C606.949829,477.825989 602.862915,483.848877 597.546509,489.026794 
	C595.796936,490.730804 594.295105,489.924347 592.697205,488.736572 
	C573.883606,474.752106 552.263184,469.913818 529.335388,469.229279 
	C505.806793,468.526825 482.770233,470.666962 460.948761,480.397888 
	C455.454590,482.847961 450.068695,485.532227 445.232910,489.082672 
	C442.079834,491.397675 440.025665,490.726440 437.583984,488.121094 
	C429.034119,478.998108 423.152069,468.162384 417.749695,457.086487 
	C414.179993,449.767975 411.383514,442.071838 408.254303,434.539185 
	C407.318726,432.287079 406.752777,430.109436 409.131439,428.257416 
	C422.912628,417.527313 422.552673,402.799377 420.259491,387.727997 
	C417.749634,371.232330 412.371460,355.751678 402.489624,342.095703 
	C400.504395,339.352295 400.592621,334.227631 394.892944,335.419250 
	C393.734833,335.661377 393.405304,333.775757 393.272491,332.653809 
	C392.601227,326.982422 393.454041,321.337891 394.099304,315.747803 
	C394.476593,312.479553 397.591003,310.927429 400.603882,310.261566 
	C403.461456,309.630035 404.933197,308.135406 405.323181,305.306549 
	C405.635101,303.044220 406.995819,301.336884 408.651855,299.882446 
	C410.960632,297.854736 413.666107,295.836517 416.706116,297.140503 
	C419.556976,298.363373 418.186371,301.586517 418.227142,303.920410 
	C418.331909,309.915192 418.337067,315.925690 418.009521,321.909546 
	C417.750671,326.639252 419.391602,330.232483 422.800415,333.402435 
	C437.585571,347.151611 455.294128,355.427155 474.561920,360.314575 
	C506.290802,368.362946 538.129761,368.692261 569.767639,359.619263 
	C586.907043,354.704102 602.909790,347.541840 615.932373,334.805756 
	C619.770325,331.052307 621.735657,326.732849 621.627136,321.475739 
	C621.489807,314.819153 621.053101,308.167023 621.001892,301.510956 
	C620.966003,296.843842 623.021545,295.643890 627.412781,297.360291 
	C631.194214,298.838379 633.362793,301.826630 633.885071,305.614471 
	C634.308655,308.686127 635.841614,310.027679 638.561646,310.466400 
	C643.414490,311.249176 645.223999,314.398682 645.280823,318.930908 
	C645.324707,322.429413 645.295532,325.928772 645.300903,329.427765 
	C645.305176,332.218658 645.301758,334.950684 641.311768,334.883545 
	C639.830811,334.858643 639.556030,336.030548 639.321350,337.278656 
	C635.467590,357.776367 628.039490,377.284760 622.659302,397.361053 
	C621.064087,403.313843 619.312622,409.254791 620.889648,415.916199 
M587.929016,411.605896 
	C592.968384,408.013336 596.290466,403.378937 595.289124,396.945557 
	C594.173279,389.776367 588.594360,385.873047 580.876221,386.260986 
	C573.331848,386.640167 566.822876,392.496857 566.284241,399.390594 
	C565.397339,410.741608 575.868591,417.027649 587.929016,411.605896 
M473.442078,387.532349 
	C472.358826,384.865906 470.816498,382.648346 467.513550,383.569519 
	C464.509705,384.407288 464.313385,387.043701 464.316895,389.647217 
	C464.324341,395.142670 464.312439,400.638123 464.312561,406.133575 
	C464.312653,409.951416 466.404541,412.372833 470.009796,412.345734 
	C473.600189,412.318756 473.630035,409.044495 473.642212,406.344666 
	C473.669250,400.350311 473.601105,394.355469 473.442078,387.532349 
M492.049805,408.336151 
	C491.981842,403.005981 491.953491,397.674927 491.830109,392.346039 
	C491.763275,389.457977 490.372711,387.485687 487.318817,387.455536 
	C484.004425,387.422760 483.209167,389.797394 483.203461,392.549957 
	C483.192078,398.047058 483.306183,403.544586 483.274323,409.041412 
	C483.252258,412.848969 483.111694,417.182861 488.282928,417.050964 
	C493.357452,416.921478 491.609772,412.306702 492.049805,408.336151 
M454.734741,400.106079 
	C454.708893,394.799927 454.801392,389.489441 454.608826,384.189362 
	C454.507751,381.409363 453.530609,378.529663 450.163696,378.714050 
	C447.268066,378.872620 446.204315,381.349396 446.207520,384.141815 
	C446.213806,389.613800 446.188293,395.085938 446.227936,400.557678 
	C446.251740,403.845428 447.393433,406.909210 451.007751,406.915009 
	C454.396301,406.920441 454.810608,403.823669 454.734741,400.106079 
z"/>
<path fill="#000000" opacity="1.000000" stroke="none" 
	d="
M604.169189,255.952911 
	C611.169861,268.666748 614.072632,282.042358 614.262939,296.072845 
	C614.360107,303.236176 614.062073,310.411041 614.356079,317.563690 
	C614.606445,323.653625 612.118286,328.080231 607.559814,331.785187 
	C592.295410,344.191589 574.542297,351.154602 555.498901,354.666901 
	C518.184570,361.549042 481.930542,358.708069 447.597687,341.161560 
	C447.004395,340.858337 446.411865,340.552643 445.829895,340.228577 
	C426.021729,329.199158 425.985382,328.533508 425.566193,306.066162 
	C425.096588,280.898499 431.465149,258.323639 448.604523,239.386642 
	C464.731903,221.567749 485.031464,211.563858 508.704498,208.861923 
	C532.409546,206.156311 554.693298,210.652222 575.027954,223.807556 
	C587.550476,231.908905 596.632324,242.934235 604.169189,255.952911 
M474.998932,327.680511 
	C482.653961,325.899811 482.527435,325.895508 482.788849,318.200562 
	C483.393524,300.400757 483.929138,282.594696 484.874237,264.811432 
	C485.857788,246.304474 494.604858,235.484390 511.550507,232.347061 
	C520.215332,230.742874 529.161865,230.669464 537.710022,233.711288 
	C548.164246,237.431366 554.998352,244.637726 556.018616,255.850586 
	C556.632629,262.598816 556.805237,269.425446 557.232971,276.219269 
	C558.184570,291.331726 558.632629,306.476227 559.239502,321.609558 
	C559.317139,323.545563 559.574829,325.300964 561.505188,326.241241 
	C565.629150,328.250031 569.893066,329.653473 574.496826,328.140472 
	C578.138123,326.943726 582.150696,325.830872 582.571167,321.115356 
	C582.981934,316.508209 578.899353,315.729462 575.904175,314.128448 
	C575.318298,313.815247 574.714722,313.458008 574.077393,313.330200 
	C568.916687,312.295319 567.189453,309.280914 567.638184,304.034332 
	C568.137085,298.201202 568.143250,297.883270 574.165405,299.169312 
	C582.480713,300.945068 590.604065,303.359650 598.604614,306.241974 
	C603.656677,308.062012 604.820496,307.068970 604.476868,301.611572 
	C604.267639,298.287689 604.017151,294.965576 603.725037,291.647919 
	C601.945557,271.436157 594.270203,253.953888 579.062866,240.283615 
	C557.650330,221.035339 531.993774,215.778870 504.520721,220.558456 
	C462.599670,227.851624 435.599365,260.858093 436.227600,302.216034 
	C436.311401,307.732605 436.871338,308.181061 442.023865,306.325836 
	C450.494873,303.275665 459.109680,300.780731 467.946686,299.022980 
	C471.257568,298.364380 472.915009,299.156586 473.144348,302.857208 
	C473.602753,310.254059 473.504700,310.602936 466.368988,313.259094 
	C465.278381,313.665070 464.186218,314.092621 463.153870,314.624878 
	C458.605072,316.970062 458.042084,320.444122 461.623291,324.145416 
	C465.094849,327.733337 469.553467,327.998352 474.998932,327.680511 
z"/>
<path fill="#000000" opacity="1.000000" stroke="none" 
	d="
M591.501953,760.481079 
	C579.224487,765.913452 569.095032,773.656921 560.486877,783.384277 
	C556.012756,788.440125 551.150024,792.101196 543.969788,789.504028 
	C536.871216,786.936340 532.932556,781.047913 532.729553,772.830933 
	C532.543213,765.287354 532.065918,757.657471 539.247192,752.401001 
	C540.484192,751.495544 540.564392,749.800171 540.667175,748.263062 
	C542.032043,727.847961 543.393188,707.432495 544.822510,687.021790 
	C545.380188,679.058716 546.068359,671.104004 546.772095,663.152161 
	C547.107056,659.367737 549.180176,656.284180 551.145813,653.186829 
	C552.232666,651.474243 553.172668,649.845337 552.419189,647.617065 
	C545.849609,628.187317 542.669006,607.916504 537.636536,588.106628 
	C536.179871,582.372681 537.156250,578.047485 540.786011,573.421387 
	C551.064941,560.320984 562.611145,548.673279 576.968445,540.100647 
	C586.192749,534.592896 587.718140,535.337952 590.653198,545.592957 
	C595.515259,562.580811 597.715637,580.065125 600.267639,597.478577 
	C601.543579,606.184814 602.552307,614.930176 603.689819,623.656799 
	C604.057129,626.474792 604.815369,629.128723 606.068665,631.741150 
	C608.676025,637.176514 610.748840,642.894958 610.261597,649.033630 
	C608.972046,665.281250 614.283936,680.576782 616.837463,696.263062 
	C618.812073,708.392639 621.219727,720.451172 623.285583,732.566772 
	C623.761963,735.360413 624.562134,737.584961 627.227478,739.035217 
	C630.144165,740.622131 631.883850,743.215637 632.547424,746.525940 
	C633.872864,753.137695 633.397278,759.805969 633.014282,766.437622 
	C632.845886,769.352783 630.849304,771.245300 627.722229,771.481812 
	C624.833252,771.700256 622.959656,770.260315 621.924133,767.682800 
	C621.429810,766.452332 621.091064,765.151184 620.772644,763.859741 
	C618.874695,756.161804 618.787842,756.210938 610.714844,756.103394 
	C604.052551,756.014648 597.898254,757.847290 591.501953,760.481079 
z"/>
<path fill="#000000" opacity="1.000000" stroke="none" 
	d="
M486.492889,662.844482 
	C487.144318,674.765808 486.880127,686.237183 486.559937,697.734192 
	C486.072968,715.219299 486.278687,732.723450 486.174896,750.219482 
	C486.163635,752.117004 486.637238,753.671387 487.976013,755.192200 
	C493.605408,761.587219 494.106079,777.976257 489.032349,784.782227 
	C483.520386,792.176086 477.791901,791.748657 472.786957,783.276855 
	C463.824554,768.106079 450.338867,759.632568 433.426880,755.973083 
	C428.791565,754.970032 424.127930,755.223022 419.495728,755.522888 
	C414.760406,755.829468 411.434662,758.203979 410.146454,763.108032 
	C409.434052,765.820312 408.715790,768.617432 406.734039,770.802734 
	C405.199951,772.494385 403.382782,773.706116 401.015808,773.048401 
	C398.547424,772.362488 396.957581,770.586243 396.814697,768.018066 
	C396.397186,760.515076 396.788422,753.017090 398.041534,745.620056 
	C398.555878,742.584106 400.786835,740.289734 403.423004,738.685303 
	C405.568970,737.379211 406.799347,735.612305 407.338928,733.195618 
	C413.241730,706.756775 419.246735,680.340332 425.032623,653.876038 
	C426.280090,648.170166 427.736237,642.637817 429.934357,637.185791 
	C431.917328,632.267395 430.639893,626.699280 431.575043,621.426270 
	C435.692932,598.206177 438.571045,574.754517 444.621796,551.903259 
	C445.595032,548.227722 447.348816,544.764587 448.629242,541.163208 
	C450.162201,536.851624 452.896912,536.368469 456.890869,537.898804 
	C474.250793,544.550598 487.645416,556.080750 498.835693,570.695068 
	C502.992340,576.123596 503.768860,581.028503 501.746124,587.643555 
	C495.473938,608.156067 491.163361,629.262268 483.185120,649.262451 
	C482.044220,652.122437 483.671265,654.054504 484.711121,656.232849 
	C485.653503,658.207031 486.544525,660.159302 486.492889,662.844482 
z"/>
<path fill="#000000" opacity="1.000000" stroke="none" 
	d="
M222.339661,481.335571 
	C218.367264,480.836731 216.522766,482.334076 215.246262,485.725708 
	C213.639526,489.994781 211.887573,494.963074 206.075714,494.785858 
	C201.905228,494.658691 197.120590,487.744843 196.781586,481.784058 
	C195.978256,467.659607 195.341949,453.525085 194.731369,439.390564 
	C194.551804,435.233307 194.603622,431.080414 193.960846,426.939697 
	C192.182846,415.485870 195.427109,405.197845 201.591507,395.670837 
	C205.864166,389.067505 210.344910,389.192780 214.492294,395.797363 
	C216.641922,399.220642 216.877045,403.341339 218.763763,407.079712 
	C259.584961,394.108185 300.236938,381.190399 341.808380,367.980469 
	C341.366974,373.735382 339.052490,378.323914 340.255005,382.751434 
	C342.583374,391.324554 338.817841,398.092621 335.180420,405.243500 
	C328.688904,418.005310 322.622559,430.984161 316.449615,443.906250 
	C315.636414,445.608582 314.739136,447.079742 313.123047,448.130676 
	C301.831879,455.473328 297.571899,465.468781 301.681213,478.614075 
	C301.865845,479.204742 301.704865,479.903442 301.704865,481.334747 
	C275.319641,481.334747 249.057129,481.334747 222.339661,481.335571 
z"/>
<path fill="#000000" opacity="1.000000" stroke="none" 
	d="
M831.197876,445.880981 
	C830.553955,458.151703 829.924316,469.944672 829.292908,481.737518 
	C829.257324,482.402130 829.261353,483.074829 829.154663,483.728699 
	C828.381653,488.469543 823.416260,495.228241 820.371582,494.951843 
	C815.179382,494.480499 812.675781,490.443604 811.323120,486.070038 
	C810.081970,482.057037 807.789368,481.245758 803.957153,481.294891 
	C782.484619,481.570343 761.009094,481.605438 739.534607,481.733765 
	C738.014465,481.742859 736.578918,481.557648 735.425659,480.731873 
	C734.665649,478.540771 735.969910,476.993561 736.485657,475.303955 
	C739.857239,464.259766 737.373474,456.090515 727.671631,449.726379 
	C722.652527,446.433960 719.701050,442.194092 717.248596,436.894989 
	C710.961975,423.311218 704.223328,409.934509 697.523499,396.546082 
	C696.255005,394.011139 695.711792,391.700623 696.606506,388.948792 
	C698.346619,383.596863 697.585205,378.159027 696.302795,373.230652 
	C698.029480,371.458832 699.303345,372.338562 700.493408,372.723846 
	C734.359314,383.689056 768.237366,394.617645 802.050903,405.742371 
	C806.105286,407.076233 808.046509,406.772919 809.128479,402.198883 
	C810.272217,397.363922 811.969360,391.541260 817.701355,391.094604 
	C823.809387,390.618561 825.672668,396.693604 828.059814,401.180328 
	C833.072510,410.601990 832.584656,420.767120 831.942993,430.949097 
	C831.639587,435.763397 831.451843,440.584961 831.197876,445.880981 
z"/>
<path fill="#000000" opacity="1.000000" stroke="none" 
	d="
M346.922913,575.889099 
	C342.677063,567.022339 339.484222,557.885742 340.611755,548.614014 
	C341.507446,541.248840 339.647156,536.224609 336.056610,529.939697 
	C326.488617,513.192017 318.570557,495.515869 310.945343,477.748322 
	C308.182556,471.310760 307.689087,465.350708 312.804016,460.199036 
	C318.236938,454.727081 324.721649,451.675140 332.721100,454.343323 
	C339.728699,456.680695 346.166718,460.226807 352.318756,464.187683 
	C360.014923,469.142670 367.404907,474.571899 374.953003,479.758728 
	C377.365021,481.416229 378.537628,483.570282 378.284882,486.535431 
	C377.268555,498.459290 376.951569,510.464355 374.628571,522.238831 
	C373.828033,526.296265 374.830414,528.629456 378.937866,529.657715 
	C386.848877,531.638245 393.441925,536.279297 400.093536,540.673218 
	C403.670319,543.035950 404.787292,556.156860 402.041229,559.277649 
	C399.301575,562.391235 393.990479,561.464966 392.055145,557.439697 
	C391.414368,556.106934 391.184174,554.579712 390.734924,553.151245 
	C390.038086,550.935486 388.897064,548.950684 386.229187,549.444397 
	C383.884247,549.878296 382.691223,551.748657 382.353760,554.102600 
	C381.849884,557.617432 383.458099,560.300476 385.959564,562.434082 
	C388.104706,564.263733 390.589539,565.690430 392.780884,567.471558 
	C396.734283,570.685059 396.964111,574.148376 392.857880,576.874756 
	C383.183594,583.297913 372.041382,585.972839 360.742615,586.617310 
	C354.384399,586.979919 350.131104,581.717285 346.922913,575.889099 
z"/>
<path fill="#000000" opacity="1.000000" stroke="none" 
	d="
M691.423462,460.346436 
	C695.648621,458.311737 699.464417,456.225647 703.486206,454.673492 
	C711.749573,451.484283 720.802490,454.066071 726.400208,460.897003 
	C729.893799,465.160278 729.433289,469.639435 727.579712,474.485748 
	C721.333679,490.816345 714.026855,506.687469 706.955566,522.659668 
	C704.743164,527.656860 702.873230,532.907959 698.852051,536.892029 
	C697.827148,537.907532 698.185181,538.898254 698.525391,540.081421 
	C702.932312,555.406494 698.508850,568.959656 689.690430,581.383545 
	C686.377502,586.051025 681.506653,587.806580 675.581543,586.413696 
	C667.155762,584.432922 658.711548,582.590088 650.869385,578.757629 
	C648.125183,577.416504 645.280334,575.939026 645.001892,572.536987 
	C644.726807,569.175720 647.571045,567.750000 649.977112,566.268311 
	C653.747131,563.946716 657.065796,561.288940 658.192078,556.697327 
	C658.960144,553.565979 659.181152,550.248047 655.572876,549.139404 
	C652.087036,548.068420 650.589417,551.018921 649.803711,553.871399 
	C648.818604,557.447510 647.508850,560.590271 643.176453,560.859924 
	C640.089600,561.052063 637.895752,559.857056 637.769592,556.462097 
	C637.639832,552.971252 637.699097,549.471802 637.737488,545.976807 
	C637.765869,543.388794 639.174622,541.579651 641.330872,540.369507 
	C647.992432,536.630859 654.186646,532.031067 661.507385,529.501465 
	C664.656555,528.413269 665.375916,526.526672 664.840149,522.955139 
	C662.969543,510.484375 661.687866,497.924194 660.251587,485.390076 
	C659.914490,482.447998 662.171509,480.914551 664.113586,479.387238 
	C672.752380,472.593323 681.517090,465.971558 691.423462,460.346436 
z"/>
<path fill="#000000" opacity="1.000000" stroke="none" 
	d="
M412.605682,397.360413 
	C413.003967,407.963654 411.099365,417.073761 401.150055,422.453857 
	C399.456207,423.369812 398.797729,425.206207 397.816315,426.734100 
	C391.881317,435.973328 386.394409,445.521332 379.248627,453.928406 
	C377.751221,455.690094 377.160034,457.637909 377.158112,459.890381 
	C377.155518,462.872864 376.669434,465.781860 375.813568,468.606384 
	C372.693634,468.716431 371.055084,466.561371 369.080231,465.169189 
	C356.949097,456.617432 344.865417,448.021179 329.832764,445.134705 
	C326.807800,444.553833 326.839050,442.608307 328.009064,440.231720 
	C335.358887,425.302216 342.655884,410.346741 350.006439,395.417603 
	C350.738403,393.930969 351.513580,392.699158 351.044006,390.783051 
	C346.451904,372.044983 354.043213,357.610352 371.972565,350.187561 
	C377.590088,347.861938 383.465668,346.952667 389.341705,345.846344 
	C392.013672,345.343262 393.766296,346.722198 395.454346,348.438751 
	C401.836823,354.928925 405.188019,363.088348 407.871887,371.525543 
	C410.494537,379.770172 412.465149,388.186707 412.605682,397.360413 
z"/>
<path fill="#000000" opacity="1.000000" stroke="none" 
	d="
M671.397705,463.419647 
	C668.408081,465.439911 666.411377,468.337006 662.697571,469.192474 
	C661.198730,466.954102 660.792175,464.418915 660.987610,462.067078 
	C661.390625,457.217499 659.543274,453.577911 656.619568,449.844543 
	C651.492126,443.297455 646.861938,436.354736 642.151184,429.490082 
	C639.495911,425.620728 636.711548,421.938293 632.883606,419.119690 
	C628.919861,416.201050 627.873840,412.248505 629.194519,407.601440 
	C634.649658,388.406647 640.160034,369.227356 645.530457,350.008911 
	C646.406433,346.874084 647.662842,345.766296 651.167175,346.329224 
	C659.988098,347.746124 668.467041,349.790009 675.706421,355.384247 
	C686.786804,363.946716 691.025574,377.011292 686.678345,390.013763 
	C685.789062,392.673615 686.290283,394.700012 687.482361,397.066864 
	C694.744263,411.484009 701.866089,425.971741 709.006531,440.449799 
	C709.435059,441.318604 709.621643,442.306702 710.129883,443.890900 
	C695.363098,446.721649 683.360657,454.651825 671.397705,463.419647 
z"/>
<path fill="#000000" opacity="1.000000" stroke="none" 
	d="
M503.320526,562.685852 
	C491.484833,547.510010 477.218231,536.143494 459.430695,529.385254 
	C453.656433,527.191284 451.871796,521.610718 454.972198,516.221619 
	C456.238556,514.020447 458.098419,514.955566 459.834198,515.308228 
	C472.706299,517.923523 485.522858,520.734985 498.661774,521.932678 
	C515.149231,523.435669 531.570251,523.239929 547.987427,521.346191 
	C557.410095,520.259338 566.704285,518.418640 575.955933,516.339172 
	C578.373901,515.795654 581.604065,513.949951 582.641968,517.849060 
	C583.587769,521.402039 584.775146,525.431274 581.026733,528.427185 
	C580.255554,529.043518 579.333740,529.488403 578.442688,529.935120 
	C559.043030,539.661377 543.717041,553.891113 532.163574,572.170044 
	C529.361267,576.603699 526.215637,579.413208 520.550537,579.122620 
	C515.806702,578.879272 512.239563,577.439636 509.859039,573.158020 
	C507.919678,569.669800 505.650757,566.364746 503.320526,562.685852 
z"/>
<path fill="#000000" opacity="1.000000" stroke="none" 
	d="
M538.775635,478.826752 
	C552.082642,480.748688 564.915894,482.714386 576.742676,488.559998 
	C578.937317,489.644745 581.436768,490.330841 582.713074,492.722778 
	C582.562744,494.825867 580.696960,495.320007 579.461060,496.273529 
	C577.132202,498.070343 575.882874,499.950623 577.002136,503.095490 
	C578.201355,506.465027 576.604370,508.395935 573.158752,509.149689 
	C547.932495,514.668152 522.500427,516.291870 496.775787,513.695740 
	C486.671051,512.676025 476.659607,511.209076 466.704865,509.247192 
	C462.414886,508.401764 459.295898,506.997070 461.433563,501.639038 
	C462.274078,499.532440 461.362000,497.795868 459.316559,496.634247 
	C457.903625,495.831848 456.324829,495.083618 455.921326,492.846497 
	C458.189117,489.926849 461.778198,488.992889 465.141235,487.797607 
	C488.860413,479.367249 513.248779,476.267212 538.775635,478.826752 
z"/>
<path fill="#000000" opacity="1.000000" stroke="none" 
	d="
M642.518311,792.674133 
	C645.222717,797.227539 646.373657,801.888123 646.899597,806.715393 
	C647.577393,812.937317 644.733765,816.205872 638.528564,816.196228 
	C609.083191,816.150452 579.637573,816.079163 550.192627,815.923035 
	C547.339661,815.907898 543.475891,816.940002 542.155151,813.552307 
	C540.466614,809.221191 540.402222,804.422729 541.526367,799.809448 
	C541.918030,798.201843 543.564819,798.237915 544.888794,798.478210 
	C557.039185,800.682983 566.971191,796.970337 576.122070,788.651123 
	C584.112122,781.387268 594.180115,777.186279 605.045288,776.272217 
	C620.161255,775.000671 633.409607,778.862183 642.518311,792.674133 
z"/>
<path fill="#000000" opacity="1.000000" stroke="none" 
	d="
M429.000092,816.207886 
	C418.839111,816.189087 409.177185,816.240784 399.517365,816.122681 
	C392.936707,816.042297 390.894104,813.273315 391.401703,806.598816 
	C392.924377,786.577637 411.221039,775.589050 425.678314,774.747742 
	C444.956451,773.626038 461.006378,779.928955 472.391144,796.146118 
	C473.978485,798.407166 476.081879,798.826355 478.492401,798.616333 
	C482.236511,798.290100 483.317230,800.057312 483.381836,803.628174 
	C483.601410,815.765381 483.711945,815.824951 471.474396,815.954834 
	C457.483643,816.103333 443.491577,816.127808 429.000092,816.207886 
z"/>
<path fill="#000000" opacity="1.000000" stroke="none" 
	d="
M652.316711,472.747498 
	C652.332275,474.039917 652.235352,474.890076 652.373413,475.700195 
	C653.106689,480.000916 651.589111,481.607788 647.016418,481.423431 
	C638.213806,481.068573 629.386414,481.374603 620.571106,481.261780 
	C617.273804,481.219604 614.710205,480.220184 616.877808,476.108521 
	C623.090271,464.324219 628.629517,452.252808 632.616089,439.512146 
	C632.966125,438.393433 633.487305,437.393707 635.241760,436.303040 
	C642.236694,447.787201 654.816833,456.268494 652.316711,472.747498 
z"/>
<path fill="#000000" opacity="1.000000" stroke="none" 
	d="
M405.986572,481.329224 
	C400.324249,481.318970 395.155365,481.177673 389.996582,481.346039 
	C385.901306,481.479675 384.573059,479.629883 385.265381,475.828247 
	C385.443939,474.847656 385.750580,473.808960 385.597687,472.861664 
	C383.387695,459.171051 393.713318,451.157532 399.435608,440.935974 
	C400.823669,441.998779 418.504822,478.767334 418.736969,480.719940 
	C414.725372,482.078308 410.559143,481.048920 405.986572,481.329224 
z"/>
</svg>