<svg version="1.1" xmlns="http://www.w3.org/2000/svg" style="display: block;" viewBox="0 0 2048 2048" width="1024" height="1024">
<path transform="translate(0,0)" fill="rgb(254,254,254)" d="M 0 0 L 2048 0 L 2048 2048 L 0 2048 L 0 0 z"/>
<path transform="translate(0,0)" fill="rgb(31,30,31)" d="M 1554.7 115.655 L 1555.8 116.1 C 1563.89 126.522 1582.47 176.978 1588.98 192.495 C 1606.11 233.342 1627.02 274.462 1639.97 316.867 C 1669.59 303.81 1698.46 291.861 1730.08 284.445 C 1768.81 275.359 1798.26 272.363 1833.35 294.422 C 1906.41 340.34 1958.9 459.893 1977.08 542.126 C 1988.03 591.635 1999.6 675.211 1970.74 719.939 A 99.586 99.586 0 0 1 1936.28 752.566 C 1913.98 765.541 1887.26 772.62 1862.85 780.778 C 1813.29 797.337 1764.55 813.545 1713.33 824.24 C 1692.19 849.173 1670.07 873.249 1648.52 897.823 C 1632.86 915.685 1581.09 978.205 1566.39 986.704 C 1551.74 995.182 1516.81 1001.94 1499.42 1006.25 C 1509.13 1059.42 1517.66 1112.57 1497.38 1164.47 C 1522.94 1151.44 1547.91 1137.15 1573.26 1123.7 A 13899.2 13899.2 0 0 0 1812.52 993.541 A 4740.32 4740.32 0 0 1 1950.62 918.568 C 1966.69 910.231 1983.67 899.031 2000.98 894.028 L 2001.15 894.503 L 1139.58 1397.57 L 85.6118 1993.18 C 73.6108 1987.18 62.0266 1980.5 49.889 1974.7 C 62.1971 1965.55 75.916 1958.1 89.1796 1950.43 A 3583.98 3583.98 0 0 1 153.787 1914.09 L 352.465 1805.29 C 402.762 1776.45 454.123 1749.16 504.885 1721.12 L 908.721 1496.8 L 1019.37 1433.72 C 1056.08 1413.01 1093.1 1392.62 1128.13 1369.12 C 1116.87 1372.75 1105.89 1377.42 1094.74 1381.43 C 1059.67 1394.04 1025.08 1407.2 990.336 1420.68 L 839.81 1478.06 L 509.808 1604.27 A 14034.8 14034.8 0 0 1 181.752 1728.77 C 170.396 1710.07 159.673 1688.61 151.745 1668.17 A 686.324 686.324 0 0 0 164.495 1618.36 C 153.375 1605.16 143.783 1589.98 135.32 1574.98 C 87.5212 1490.25 50.2282 1380.4 50.9645 1282.25 C 51.105 1263.52 51.8429 1243.98 57.0214 1225.9 C 64.745 1198.94 82.5988 1179.23 107.013 1165.85 C 141.238 1147.1 230.021 1115.74 267.117 1127 C 320.079 1143.08 358.029 1214.61 383.013 1260.49 A 2080.62 2080.62 0 0 1 444.273 1231.97 C 459.386 1225.21 476.714 1219.22 490.223 1209.71 C 499.37 1203.27 506.148 1193.16 515.356 1186.19 A 1665.25 1665.25 0 0 1 490.673 1131.53 C 476.594 1099.37 456.463 1059.89 462.87 1023.81 C 467.626 997.019 502.974 977.984 523.811 963.236 C 510.286 904.677 491.661 791.379 524.63 739.064 C 547.37 702.981 644.067 671.45 684.895 661.178 C 707.346 655.53 730.177 652.508 752.699 647.45 L 765.907 634.778 C 759.292 613.91 749.235 593.669 740.52 573.59 A 3363.94 3363.94 0 0 0 694.87 470.832 C 733.666 438.203 771.277 404.248 809.921 371.428 C 813.72 381.099 817.399 390.715 820.528 400.632 C 876.811 376.767 935.471 357.763 992.822 336.651 A 16179 16179 0 0 1 1333.52 213.139 L 1454.57 170.098 C 1476.62 162.443 1501.52 156.453 1522.12 145.48 C 1534.03 139.136 1544.82 125.172 1554.7 115.655 z"/>
<path transform="translate(0,0)" fill="rgb(254,254,254)" d="M 1559.38 717.345 C 1564.25 718.334 1571.73 719.397 1574.97 723.428 C 1570.98 724.214 1566.19 725.775 1562.22 724.678 C 1559.79 722.132 1559.97 720.748 1559.38 717.345 z"/>
<path transform="translate(0,0)" fill="rgb(254,254,254)" d="M 836.206 1130.52 C 836.378 1130.66 836.558 1130.79 836.72 1130.95 C 839.564 1133.58 843.578 1136.77 843.464 1140.97 C 843.413 1142.82 841.496 1143.9 840.206 1145.12 C 838.61 1145.43 837.207 1145.47 835.587 1145.5 C 834.252 1144.49 833.352 1144.28 832.953 1142.53 C 831.961 1138.19 834.16 1134.2 836.206 1130.52 z"/>
<path transform="translate(0,0)" fill="rgb(254,254,254)" d="M 579.127 1090.75 C 581.489 1094.72 582.728 1099.05 584.167 1103.41 C 580.831 1107.96 577.249 1112.36 573.785 1116.81 L 571.741 1118.03 L 570.622 1116.33 C 571.171 1107.31 575.554 1098.9 579.127 1090.75 z"/>
<path transform="translate(0,0)" fill="rgb(254,254,254)" d="M 881.267 1006.91 C 881.7 1007.09 881.95 1007.56 882.258 1007.91 C 879.783 1010 876.878 1012.16 874.835 1014.67 C 872.738 1017.25 871.512 1021.52 872.045 1024.82 C 873.057 1031.09 877.743 1035.33 882.706 1038.72 L 883.867 1039.49 L 884.092 1041.02 C 881.58 1040.79 879.073 1040.57 876.764 1039.48 C 872.627 1037.53 869.124 1033.53 867.676 1029.2 A 17.0574 17.0574 0 0 1 868.714 1015.72 C 871.423 1010.61 875.965 1008.47 881.267 1006.91 z"/>
<path transform="translate(0,0)" fill="rgb(254,254,254)" d="M 1168.92 557.073 C 1172.11 561.932 1173.17 572.578 1174.53 578.486 L 1163.84 572.065 C 1159.95 569.674 1156.39 566.768 1152.77 564.004 C 1158.08 561.569 1163.54 559.367 1168.92 557.073 z"/>
<path transform="translate(0,0)" fill="rgb(254,254,254)" d="M 1257.79 600.044 C 1259.29 601.977 1259.07 603.627 1258.83 605.847 C 1252.29 612.123 1235.37 614.94 1226.57 617.498 L 1224.31 613.424 L 1225.49 612.112 C 1236.46 609.642 1247.61 604.738 1257.79 600.044 z"/>
<path transform="translate(0,0)" fill="rgb(254,254,254)" d="M 594.27 1060.61 C 596.082 1064.91 598.634 1069.8 599.423 1074.4 C 600.961 1083.36 595.028 1089.62 590.03 1096.23 C 587.447 1091.44 585.5 1086.73 584.262 1081.41 A 427.686 427.686 0 0 0 594.27 1060.61 z"/>
<path transform="translate(0,0)" fill="rgb(254,254,254)" d="M 1296.26 609.945 L 1297.33 610.203 L 1298.28 613.024 C 1298.13 613.305 1298.03 613.61 1297.85 613.868 C 1294.48 618.705 1252.18 630.612 1244.29 633.073 C 1243.28 631.835 1243.01 631.015 1242.5 629.532 C 1246.58 624.613 1286.58 613.559 1296.26 609.945 z"/>
<path transform="translate(0,0)" fill="rgb(254,254,254)" d="M 538.996 1074.47 C 542.504 1078.35 545.173 1084.65 547.75 1089.3 L 539.01 1109.81 C 535.148 1105.13 532.85 1098.18 530.408 1092.61 L 538.996 1074.47 z"/>
<path transform="translate(0,0)" fill="rgb(254,254,254)" d="M 553.155 1098.76 C 556.025 1103.78 558.116 1108.68 560.094 1114.11 A 133.057 133.057 0 0 1 550.848 1135.41 C 547.345 1131.57 545.65 1125.62 543.793 1120.83 C 546.263 1113.24 549.834 1106.01 553.155 1098.76 z"/>
<path transform="translate(0,0)" fill="rgb(254,254,254)" d="M 566.112 1066.56 C 570.015 1071.16 572.154 1078.24 574.297 1083.82 L 565.488 1104.49 C 561.129 1100.32 559.587 1092.81 558.141 1087.07 C 560.219 1080.01 563.222 1073.32 566.112 1066.56 z"/>
<path transform="translate(0,0)" fill="rgb(254,254,254)" d="M 609.465 1034.26 C 611.66 1034.28 613.723 1034.46 615.898 1034.75 C 615.886 1045.01 610.338 1060.28 605.139 1068.96 C 602.602 1062.36 600.82 1055.6 598.991 1048.78 C 599.65 1046.31 600.358 1043.85 601.369 1041.51 C 603.198 1037.26 605.234 1035.85 609.465 1034.26 z"/>
<path transform="translate(0,0)" fill="rgb(254,254,254)" d="M 583.738 1040.74 C 587.3 1042.57 588.257 1047.45 589.485 1051.02 C 586.655 1059.43 582.943 1067.33 578.994 1075.26 C 575.657 1068.27 571.108 1057.73 573.684 1050.01 C 575.357 1045 579.378 1043.08 583.738 1040.74 z"/>
<path transform="translate(0,0)" fill="rgb(254,254,254)" d="M 1262.54 578.209 C 1264.06 580.099 1264.52 580.407 1264.75 582.78 C 1257.88 589.918 1232.51 595.84 1222.21 598.978 L 1220.58 598.834 C 1218.76 597.102 1218.78 597.214 1218.59 594.711 C 1227.45 586.642 1250.91 581.708 1262.54 578.209 z"/>
<path transform="translate(0,0)" fill="rgb(254,254,254)" d="M 525.963 905.876 C 533.853 912.165 543.018 937.35 544.298 947.585 L 542.505 949.8 L 535.107 954.3 C 530.898 938.393 528.332 922.14 525.963 905.876 z"/>
<path transform="translate(0,0)" fill="rgb(254,254,254)" d="M 383.938 1303.8 L 386.234 1304.32 C 392.544 1314.19 397.02 1325.05 401.565 1335.81 C 399.225 1339.8 396.456 1343.58 393.849 1347.41 C 390.782 1344.95 379.095 1314.15 376.729 1308.64 C 378.256 1305.93 381.237 1305.05 383.938 1303.8 z"/>
<path transform="translate(0,0)" fill="rgb(254,254,254)" d="M 411.805 1369.91 C 411.979 1370.12 412.188 1370.31 412.326 1370.55 C 415.495 1375.98 425.78 1423.52 424.675 1429.02 C 424.402 1430.38 421.79 1431.25 420.588 1431.9 L 417.514 1430.08 C 414.822 1425.35 407.196 1386.39 406.515 1379.73 C 406.095 1375.62 409.341 1372.86 411.805 1369.91 z"/>
<path transform="translate(0,0)" fill="rgb(254,254,254)" d="M 471.035 1272.61 L 472.382 1273.46 C 470.445 1280.53 410.848 1353.12 400.775 1364.77 C 399.785 1364.77 400.421 1364.86 399.012 1364 C 402.754 1353.62 454.491 1288 464.131 1277.7 C 466.186 1275.5 468.376 1273.98 471.035 1272.61 z"/>
<path transform="translate(0,0)" fill="rgb(254,254,254)" d="M 953.283 762.755 C 954.731 764.015 955.639 766.388 956.57 768.059 C 961.336 776.608 966.165 780.773 975.113 784.669 C 981.201 784.081 987.063 782.835 993.034 781.557 C 992.993 786.045 992.463 790.457 991.981 794.913 C 991.409 796.495 990.99 796.308 989.559 797.052 C 977.891 796.9 963.838 793.055 953.321 788.041 L 953.283 762.755 z"/>
<path transform="translate(0,0)" fill="rgb(254,254,254)" d="M 1546.21 547.91 C 1547.07 548.393 1547.41 549.173 1547.95 549.984 C 1545.53 555.006 1456.58 604.228 1443.82 611.646 C 1443.13 611.405 1442.34 610.487 1441.78 609.989 L 1442.11 608.056 C 1451.76 597.925 1481.58 584.938 1494.97 577.322 C 1512.08 567.595 1528.67 556.858 1546.21 547.91 z"/>
<path transform="translate(0,0)" fill="rgb(254,254,254)" d="M 1505.38 623.755 C 1516.55 628.544 1527.44 633.606 1538.34 638.983 C 1530.01 641.408 1521.89 644.534 1513.74 647.5 A 1932.64 1932.64 0 0 1 1488.79 657.071 C 1495.29 646.308 1500.58 635.367 1505.38 623.755 z"/>
<path transform="translate(0,0)" fill="rgb(254,254,254)" d="M 1577.47 641.7 C 1577.76 641.779 1578.07 641.814 1578.35 641.937 C 1580.75 643.003 1581.93 647.82 1582.82 650.11 C 1551.56 661.956 1521.72 678.233 1490.23 689.236 C 1488.66 689.787 1488.32 689.698 1486.74 689.426 L 1485.79 687.624 C 1487.38 684.804 1489.45 683.982 1492.26 682.526 C 1502.95 676.996 1514.75 672.996 1525.78 668.121 A 567.328 567.328 0 0 0 1577.47 641.7 z"/>
<path transform="translate(0,0)" fill="rgb(254,254,254)" d="M 1506.31 705.923 C 1519.88 708.665 1533.36 712.544 1546.79 715.946 C 1541.76 718.964 1536.12 721.088 1530.75 723.434 C 1523.15 726.76 1515.67 730.178 1507.62 732.299 C 1503.74 725.523 1500.45 718.29 1496.95 711.305 C 1500.02 709.429 1503.18 707.699 1506.31 705.923 z"/>
<path transform="translate(0,0)" fill="rgb(254,254,254)" d="M 443.144 1283.13 L 443.731 1284.02 C 440.418 1288.99 436.046 1293.33 432.356 1298.05 C 425.44 1306.9 419.213 1316.47 411.623 1324.76 C 409.207 1323.1 408.267 1320.27 406.939 1317.7 C 403.926 1312.18 401.209 1306.5 398.453 1300.84 C 413.474 1295.31 428.285 1289.1 443.144 1283.13 z"/>
<path transform="translate(0,0)" fill="rgb(254,254,254)" d="M 1475.19 609.753 C 1477.27 610.346 1480.03 611.507 1481.62 613.053 C 1483.6 614.98 1483.98 617.752 1483.97 620.391 C 1483.95 628.274 1477.98 645.206 1471.76 650.52 C 1470.31 651.757 1470.98 651.403 1468.87 651.21 C 1463.86 641.646 1459.66 631.223 1455.69 621.189 C 1461.89 616.734 1468.42 613.269 1475.19 609.753 z"/>
<path transform="translate(0,0)" fill="rgb(254,254,254)" d="M 1050.46 1171.24 L 1051.78 1171.64 C 1050.89 1174.44 1046.87 1176.91 1044.56 1178.75 C 1007.35 1183.83 970.809 1193.13 934.243 1201.54 C 932.666 1198.74 931.431 1197.36 931.498 1194.11 C 937.52 1189.86 1032.04 1175.03 1050.46 1171.24 z"/>
<path transform="translate(0,0)" fill="rgb(254,254,254)" d="M 585.341 1234.12 L 587.661 1235.24 C 590.464 1240.73 587.785 1261.71 587.396 1268.72 C 581.518 1262.27 575.942 1255.19 575.145 1246.26 C 574.988 1244.5 574.526 1244.53 573.311 1243.33 C 571.727 1254.8 577.951 1268.15 583.073 1278.12 C 584.215 1280.04 585.207 1282.04 586.242 1284.01 C 585.462 1287.6 583.126 1288.75 580.422 1291.15 C 572.319 1275.9 566.077 1259.94 560.725 1243.54 C 568.151 1239.4 576.997 1235.77 585.341 1234.12 z"/>
<path transform="translate(0,0)" fill="rgb(254,254,254)" d="M 591.351 1153.66 L 593.222 1154.66 C 596.237 1162.27 592.64 1179.06 591.858 1187.46 C 579.925 1191.5 568.163 1196.15 556.26 1200.31 C 554.903 1198.55 554.923 1197.22 554.515 1195.05 C 557.524 1185.95 583.98 1161.4 591.351 1153.66 z"/>
<path transform="translate(0,0)" fill="rgb(254,254,254)" d="M 888.072 1019.61 C 902.207 1019.91 917.932 1024.46 932.058 1026.86 C 956.938 1031.08 982.143 1034.46 1006.92 1039 C 1009.39 1039.46 1011.43 1039.84 1013.62 1041.2 L 1011.8 1042.78 C 1008.99 1043.91 1006.23 1044.96 1003.17 1044.98 C 988.024 1045.1 905.119 1031.13 890.718 1026.54 C 888.312 1025.77 887.846 1025.65 886.696 1023.52 L 888.072 1019.61 z"/>
<path transform="translate(0,0)" fill="rgb(254,254,254)" d="M 550.481 733.088 L 550.505 734.105 C 527.346 773.631 527.788 806.572 531.246 850.508 C 528.17 852.289 525.342 854.383 522.463 856.462 C 517.793 843.375 521.079 802.314 523.299 788.351 C 526.425 768.698 533.639 745.403 550.481 733.088 z"/>
<path transform="translate(0,0)" fill="rgb(254,254,254)" d="M 603.576 1097.8 L 604.633 1099.53 C 603.869 1106.53 602.67 1113.97 598.938 1120.08 C 590.942 1133.19 564.248 1158.48 552.319 1171.48 C 536.87 1188.31 523.199 1206.65 506.015 1221.85 L 505.351 1221.11 C 505.875 1219.37 506.482 1218.33 507.603 1216.89 C 516.325 1205.68 526.105 1195.15 535.195 1184.22 C 558.601 1156.07 582.064 1127.41 603.576 1097.8 z"/>
<path transform="translate(0,0)" fill="rgb(254,254,254)" d="M 574.25 1312.95 C 578.429 1316.37 582.071 1331.35 584.113 1336.91 C 563.927 1342.92 543.996 1351.16 524.243 1358.53 C 521.082 1359.76 517.591 1360.51 514.32 1361.42 C 533.618 1344.54 554.934 1329.87 574.25 1312.95 z"/>
<path transform="translate(0,0)" fill="rgb(254,254,254)" d="M 1619.61 718.929 C 1621.28 718.998 1622.6 719.151 1624.2 719.666 L 1624.51 721.387 L 1624.07 722.578 L 1624.26 723.376 C 1623.15 725.719 1620.97 727.165 1618.7 728.313 C 1611.99 731.713 1603.95 733.046 1596.91 735.783 C 1572.34 745.327 1547.95 754.962 1523.16 763.944 L 1521.67 764.547 C 1519.29 762.825 1518.5 758.534 1517.51 755.701 C 1551.28 742.795 1585.8 731.839 1619.61 718.929 z"/>
<path transform="translate(0,0)" fill="rgb(254,254,254)" d="M 1132.29 1029.85 L 1133.21 1029.99 C 1136.49 1032.78 1143.8 1057.87 1145.99 1063.72 A 456.74 456.74 0 0 0 1102.24 1055.48 C 1095.01 1054.29 1087.78 1053.38 1080.5 1052.53 C 1097.08 1045.08 1116.98 1039.09 1132.29 1029.85 z"/>
<path transform="translate(0,0)" fill="rgb(254,254,254)" d="M 641.503 894.833 C 649.057 892.212 660.837 886.081 668.362 889.459 C 669.698 891.108 670.643 892.451 671.177 894.537 A 26.4048 26.4048 0 0 1 668.442 914.681 C 664 916.545 659.233 917.636 654.393 917.021 C 639.939 915.185 628.844 902.553 620.129 891.944 C 623.698 890.428 627.41 889.261 631.081 888.017 C 635.211 888.123 638.584 892.162 641.503 894.833 z"/>
<path transform="translate(0,0)" fill="rgb(254,254,254)" d="M 360.481 1312.62 C 372.655 1320.72 392.153 1387.45 396.759 1403.63 C 398.627 1410.19 403.786 1423.95 400.482 1429.9 C 398.007 1429.43 396.441 1429.16 394.325 1427.69 C 386.046 1404.38 382.383 1379.49 372.843 1356.54 C 369.562 1348.65 356.831 1323.59 356.949 1317.16 C 356.977 1315.61 359.414 1313.75 360.481 1312.62 z"/>
<path transform="translate(0,0)" fill="rgb(254,254,254)" d="M 585.834 1351.17 C 586.727 1352.28 586.825 1353.76 587.148 1355.13 C 585.963 1357.57 584.819 1358.38 582.36 1359.56 C 567.18 1366.86 549.493 1371.74 533.545 1377.34 C 502.308 1388.3 471.173 1399.16 440.254 1411.02 C 439.483 1408.35 438.904 1406.4 439.345 1403.57 C 446.951 1398.25 459.679 1395.38 468.478 1392.11 A 4841.16 4841.16 0 0 1 585.834 1351.17 z"/>
<path transform="translate(0,0)" fill="rgb(254,254,254)" d="M 1240.24 528.856 L 1241.95 528.904 C 1246.83 534.212 1250.75 558.182 1252.97 566.117 L 1220.26 578.633 C 1217.62 579.554 1216.8 580.014 1214.09 579.538 C 1211.1 571.358 1210.08 553.067 1208.42 543.365 L 1240.24 528.856 z"/>
<path transform="translate(0,0)" fill="rgb(254,254,254)" d="M 1525.18 407.978 L 1526.43 407.63 L 1527.96 409.068 L 1529.44 407.953 L 1527.5 408.292 L 1528.63 409.703 C 1520.06 417.823 1312.96 491.427 1282.3 503.067 C 1281.53 503.388 1280.62 503.305 1279.79 503.343 C 1278.96 501.062 1278.8 501.153 1279.74 498.945 C 1288.05 492.557 1329.81 478.943 1342.32 474.314 A 10415.2 10415.2 0 0 1 1525.18 407.978 z"/>
<path transform="translate(0,0)" fill="rgb(254,254,254)" d="M 1550.99 563.155 C 1554.43 567.535 1568.21 612.76 1571.19 621.493 L 1543.68 608.447 C 1531.37 602.231 1518.93 596.392 1507.12 589.249 C 1521.9 580.85 1536.4 571.89 1550.99 563.155 z"/>
<path transform="translate(0,0)" fill="rgb(254,254,254)" d="M 1538.51 479.992 C 1540.66 480.151 1539.64 479.811 1541.54 481.137 C 1540.14 483.539 1536.78 484.748 1534.28 485.828 C 1522.37 490.983 1509.85 494.949 1497.77 499.728 A 3778.66 3778.66 0 0 1 1362.88 550.089 C 1343.26 556.985 1324.1 565.904 1304.24 571.941 C 1302.99 571.486 1301.63 570.256 1300.54 569.478 L 1300.41 567.56 C 1307.74 560.335 1515.53 487.058 1538.51 479.992 z"/>
<path transform="translate(0,0)" fill="rgb(254,254,254)" d="M 752.395 823.742 C 761.956 837.268 768.672 852.902 778.316 866.624 L 741.553 884.077 L 721.926 893.182 C 729.425 870.086 736.553 842.703 752.395 823.742 z"/>
<path transform="translate(0,0)" fill="rgb(254,254,254)" d="M 1586.81 662.07 C 1593.44 668.071 1600.35 685.811 1604.53 694.366 C 1596.07 697.848 1587.69 701.246 1579.65 705.639 L 1549.23 696.864 C 1540.15 694.894 1531.36 692.352 1522.48 689.649 C 1543.79 680.289 1564.72 669.518 1586.81 662.07 z"/>
<path transform="translate(0,0)" fill="rgb(254,254,254)" d="M 1540.14 498.033 C 1542.36 500.294 1542.64 504.67 1543.33 507.809 A 9691.65 9691.65 0 0 1 1397.96 562.529 C 1381.91 568.546 1343.79 585.445 1328.35 587.194 C 1326.89 586.685 1325.47 586.114 1324.03 585.554 L 1324.08 583.837 C 1330.37 578.735 1351.16 572.099 1360.04 568.463 A 8430.76 8430.76 0 0 1 1540.14 498.033 z"/>
<path transform="translate(0,0)" fill="rgb(254,254,254)" d="M 1151.41 852.276 L 1151.46 854.027 C 1147.45 858.755 1142.3 862.24 1137.37 865.926 C 1134.41 878.275 1134.58 891.582 1134.7 904.221 C 1135.36 970.98 1155.99 1037.13 1184.77 1096.87 L 1175.83 1099.94 C 1142.99 1023.81 1115.04 942.111 1129.4 858.154 L 1151.41 852.276 z"/>
<path transform="translate(0,0)" fill="rgb(254,254,254)" d="M 1323.89 1201.53 C 1328.45 1203.91 1331.6 1212.73 1333.83 1217.28 C 1293.48 1254.69 1252.75 1291.59 1212.74 1329.38 L 1211.45 1330.29 L 1209.74 1329.84 C 1207.02 1324.87 1206.17 1318.84 1204.91 1313.35 C 1236.07 1292.15 1263.96 1263.43 1290.31 1236.65 C 1301.64 1225.13 1313.37 1213.8 1323.89 1201.53 z"/>
<path transform="translate(0,0)" fill="rgb(254,254,254)" d="M 1734.37 756.633 C 1736.79 758.91 1738.32 762.294 1739.94 765.187 C 1729.41 779.204 1716.5 792.032 1705.25 805.549 C 1692.96 820.311 1681.66 835.902 1669.21 850.522 C 1650.53 872.447 1630.58 893.401 1611.32 914.817 C 1595.12 932.831 1580.02 953.532 1562.31 969.984 C 1559.83 972.286 1557.33 973.187 1554.1 974.023 L 1551.04 973.476 L 1550.65 972.014 C 1566.48 948.232 1586.15 928.481 1605.05 907.259 L 1671.38 831.323 C 1692.06 807.756 1713.09 778.161 1734.37 756.633 z"/>
<path transform="translate(0,0)" fill="rgb(254,254,254)" d="M 302.061 1216.96 C 304.117 1217 306.218 1217.04 308.21 1217.61 C 327.357 1223.01 345.193 1254.94 354.761 1271.21 C 345.392 1274.33 336.965 1278.21 328.377 1283.1 L 303.491 1297.97 C 292.564 1283.64 289.596 1259.63 291.147 1242.12 C 292.007 1232.41 294.312 1223.36 302.061 1216.96 z"/>
<path transform="translate(0,0)" fill="rgb(31,30,31)" d="M 306.132 1236.83 C 309.293 1237.29 312.242 1237.99 314.495 1240.42 A 10.6605 10.6605 0 0 1 317.213 1248.93 C 316.396 1255.63 312.966 1259.28 307.763 1263.12 C 304.209 1262.85 301.373 1262.1 299.021 1259.18 C 296.664 1256.25 296.308 1252.53 297.053 1248.97 C 298.29 1243.04 301.196 1240.05 306.132 1236.83 z"/>
<path transform="translate(0,0)" fill="rgb(254,254,254)" d="M 1543.02 523.017 L 1544.23 523.23 C 1546.06 526.179 1545.94 530.728 1546.28 534.142 C 1506.41 553.951 1468.36 577.341 1428.5 597.231 C 1426.89 596.12 1425.26 595.082 1423.56 594.115 C 1400.59 581.097 1376.65 589.534 1353.22 596.062 C 1348.1 597.352 1342.94 598.031 1337.72 598.764 C 1357.53 588.08 1385.94 581.191 1407.73 573.318 L 1543.02 523.017 z"/>
<path transform="translate(0,0)" fill="rgb(254,254,254)" d="M 1235.87 414.15 C 1239.8 422.427 1240.14 487.037 1240.58 501.154 C 1233.14 503.979 1209.54 514.721 1203.23 513.805 C 1200.4 485.75 1199.15 457.535 1195.93 429.516 C 1208.93 423.66 1222.47 419.022 1235.87 414.15 z"/>
<path transform="translate(0,0)" fill="rgb(254,254,254)" d="M 1571.67 375.719 C 1572.06 376.307 1572.73 376.786 1572.85 377.485 C 1573.33 380.445 1568.22 401.676 1567.6 407.633 C 1563.66 446.073 1564.22 484.38 1570.74 522.508 A 463.353 463.353 0 0 0 1647.09 712.411 C 1654.12 722.512 1681.42 753.193 1683.7 760.712 C 1681.61 762.254 1681.02 761.981 1678.37 761.985 C 1619.76 703.324 1585.1 631.977 1567 551.349 C 1556.43 504.261 1545.64 416.777 1571.67 375.719 z"/>
<path transform="translate(0,0)" fill="rgb(254,254,254)" d="M 589.782 1202.93 C 591.205 1207.75 590.699 1213.34 590.735 1218.34 C 565.977 1228.03 540.14 1235.8 514.944 1244.35 A 3712.62 3712.62 0 0 0 424.636 1276.54 C 402.643 1284.49 379.822 1291.65 358.833 1302.05 C 341.712 1310.53 325.724 1322.08 309.672 1332.44 C 308.993 1330.14 308.634 1328.48 308.772 1326.08 C 316.38 1310.21 348.524 1292.59 364.137 1285.44 C 385.78 1275.53 409.354 1268.62 431.826 1260.77 L 526.238 1227.25 C 547.603 1219.79 569.536 1213.12 589.782 1202.93 z"/>
<path transform="translate(0,0)" fill="rgb(254,254,254)" d="M 1118.32 1008.31 C 1119.62 1008.52 1120.56 1008.86 1121.69 1009.56 C 1124.9 1011.55 1129.28 1014.56 1130.19 1018.41 C 1122.28 1024.58 1104.87 1029.03 1095.11 1033.01 A 1712.03 1712.03 0 0 0 1049.35 1052.67 L 910.826 1113.99 C 891.971 1122.35 871.696 1134.99 851.691 1139.64 C 848.68 1135.75 846.257 1131.68 843.801 1127.44 A 7705.9 7705.9 0 0 0 1015.26 1055 L 1077.41 1027.6 C 1085.66 1024.02 1093.9 1019.77 1102.34 1016.73 C 1107.81 1014.77 1111.28 1014.44 1116.54 1017.05 C 1116.82 1017.19 1117.09 1017.34 1117.37 1017.49 C 1116.03 1015.62 1115.47 1014.97 1115.09 1012.64 L 1118.32 1008.31 z"/>
<path transform="translate(0,0)" fill="rgb(254,254,254)" d="M 742.424 683.586 C 743.859 684.929 744.521 686.266 745.482 687.96 C 745.769 691.769 743.347 694.922 741.697 698.215 C 722.686 736.168 733.434 773.896 746.306 811.712 C 725.734 836.375 715.53 871.182 707.132 901.78 L 698.254 905.512 L 684.427 911.093 C 688.261 892.05 691.399 873.078 696.023 854.175 C 704.249 820.548 714.486 787.486 722.908 753.939 C 728.523 731.572 728.64 702.862 742.424 683.586 z"/>
<path transform="translate(0,0)" fill="rgb(254,254,254)" d="M 928.77 644.435 C 937.736 644.431 945.917 645.431 954.493 648.099 C 981.582 656.529 1002 675.596 1015.06 700.393 C 1002.75 704.687 990.073 708.217 977.6 712.037 C 967.06 715.346 957.848 717.288 950.186 725.823 C 947.203 716.927 944.519 707.856 941.03 699.143 C 933.252 679.716 922.665 659.423 902.55 650.849 C 911.483 646.983 919.053 645.117 928.77 644.435 z"/>
<path transform="translate(0,0)" fill="rgb(254,254,254)" d="M 1635.64 739.188 C 1645.6 747.471 1654.03 760.203 1663.83 769.437 A 5576.55 5576.55 0 0 1 1557.21 812.993 L 1545.2 817.628 C 1539.41 806.975 1534.73 795.906 1529.99 784.764 C 1564.85 768.972 1600.36 754.006 1635.64 739.188 z"/>
<path transform="translate(0,0)" fill="rgb(254,254,254)" d="M 624.598 830.362 C 628.6 830.203 631.814 830.331 635.211 832.791 C 643.78 838.997 647.201 852.036 648.963 861.97 C 645.269 867.246 641.071 871.044 636.058 874.965 C 633.265 863.863 629.648 848.133 622.83 838.933 C 621.358 836.947 620.357 835.548 617.826 835.19 L 617.029 836.389 C 615.642 848.25 624.148 866.497 628.359 877.652 C 616.83 882.316 604.961 886.263 593.241 890.424 C 575.963 896.5 559.228 901.808 541.011 904.206 C 536.777 897.917 532.945 890.772 531.332 883.311 C 529.476 874.723 531.008 868.598 535.598 861.341 C 553.155 852.808 606.597 832.284 624.598 830.362 z"/>
<path transform="translate(0,0)" fill="rgb(254,254,254)" d="M 1054.18 698.182 C 1056.91 698.292 1057.47 698.263 1059.54 700.27 C 1068.29 708.72 1069.36 732.495 1069.29 743.911 C 1052.59 749.777 987.045 774.377 974.905 772.686 C 961.581 762.567 959.645 745.116 957.174 729.784 C 971.234 723.689 986.61 719.59 1001.19 714.772 C 1018.6 709.017 1036.29 702.123 1054.18 698.182 z"/>
<path transform="translate(0,0)" fill="rgb(254,254,254)" d="M 585.715 1374.17 C 587.096 1375.36 591.142 1430.18 592.111 1437.95 A 2865.05 2865.05 0 0 1 456.752 1432.84 C 453.663 1432.62 450.487 1432.73 448.077 1430.5 C 445.948 1428.54 445.54 1427.45 445.623 1424.64 C 446.351 1423.31 447.016 1422.45 448.386 1421.72 C 464.077 1413.35 488.227 1407.09 505.558 1401.33 C 532.331 1392.44 558.88 1382.87 585.715 1374.17 z"/>
<path transform="translate(0,0)" fill="rgb(254,254,254)" d="M 627.085 1002.18 L 627.843 1002.78 C 627.812 1009.54 621.231 1020.91 618.534 1027.43 C 618.396 1027.2 618.276 1026.94 618.121 1026.72 C 617.169 1025.31 615.239 1023.33 613.483 1023.14 C 610.656 1022.84 607.421 1024.17 604.739 1025.07 C 589.707 1030.11 599.94 1034.49 592.701 1041.14 C 591.702 1039.4 591.907 1040.04 591.471 1038.48 C 590.741 1035.87 590.234 1033.7 587.877 1031.98 C 585.512 1030.25 582.257 1030.53 579.607 1031.35 C 565.062 1035.9 563.667 1050.43 559.234 1062.72 C 557.065 1068.74 554.213 1074.42 551.334 1080.12 C 548.609 1075.38 541.825 1066.32 543.736 1060.77 C 546.017 1054.15 555.236 1052.21 560.917 1049.88 C 561.722 1047.82 562.305 1046.57 561.222 1044.36 C 560.074 1042.01 558.774 1041.68 556.517 1041.01 C 551.114 1042.72 539.721 1045.15 536.102 1049.3 C 534.255 1051.42 535.334 1053.64 535.732 1056.18 L 534.726 1056.78 C 533.511 1055.38 532.167 1054.06 530.658 1052.98 C 523.487 1047.82 515.133 1057.67 507.733 1058.39 C 507.108 1058.45 506.481 1058.48 505.855 1058.52 C 500.111 1063.05 500.808 1075.9 498.643 1082.88 C 497.566 1086.35 496.383 1089.27 497.896 1092.73 C 499.14 1092.74 500.007 1092.61 501.088 1091.94 C 506.676 1088.52 507.231 1083.69 508.588 1077.82 C 510.256 1079.95 511.969 1082.23 513.848 1084.18 C 515.587 1085.98 516.586 1086.79 519.146 1086.72 C 519.356 1083.24 516.014 1078.42 514.496 1075.21 C 512.815 1071.66 511.767 1069.3 513.146 1065.51 C 518.767 1063.1 526.454 1061.47 532.554 1061.44 C 534.021 1068.92 513.959 1100.38 510.349 1110.65 C 509.246 1113.79 510.543 1115.68 511.718 1118.55 C 513.018 1119.81 513.297 1120 514.899 1120.57 C 520.244 1116.58 523.28 1106.93 525.979 1100.96 C 529.243 1107.06 532.11 1112.95 534.237 1119.54 C 531.352 1125 526.494 1130.64 524.762 1136.55 C 524.049 1138.97 524.368 1141.53 525.856 1143.64 C 527.243 1145.62 528.283 1145.39 530.415 1145.4 C 534.876 1142.02 537.139 1134.22 539.466 1129.14 C 542.364 1134.97 544.89 1140.85 547.322 1146.89 C 545.627 1149.3 544.035 1151.27 541.75 1153.16 C 534.721 1158.98 531.759 1168.11 525.759 1175.21 C 514.56 1155.58 507.393 1133.3 499.057 1112.35 C 491.007 1092.12 481.472 1074.58 477.171 1052.9 C 526.925 1034.8 576.024 1016.36 627.085 1002.18 z"/>
<path transform="translate(0,0)" fill="rgb(254,254,254)" d="M 804.9 395.11 C 811.666 403.252 819.631 433.466 825.642 445.734 C 803.368 454.255 779.608 465.772 764.281 484.725 C 746.156 507.139 748.211 534.471 750.839 561.401 C 749.384 557.995 747.63 554.668 746.021 551.329 C 733.658 526.685 723.669 500.877 712.009 475.905 C 723.544 463.407 737.12 452.561 750.037 441.525 A 4279.66 4279.66 0 0 1 804.9 395.11 z"/>
<path transform="translate(0,0)" fill="rgb(254,254,254)" d="M 1281.64 743.081 C 1282.21 742.999 1282.78 743.294 1283.33 743.436 C 1269.73 762.055 1265.7 781.926 1260.31 803.92 C 1240.04 813.099 1218.83 819.91 1197.8 827.073 A 2385.29 2385.29 0 0 1 1133.34 848.566 L 1132.04 848.542 L 1131.5 846.758 C 1133.96 836.109 1137.9 824.923 1143.26 815.371 C 1165.88 775.081 1239.39 754.902 1281.64 743.081 z"/>
<path transform="translate(0,0)" fill="rgb(254,254,254)" d="M 215.47 1486.89 L 218.001 1487.25 C 221.902 1492.21 226.96 1518.52 228.989 1526.16 C 235.198 1549.57 243.196 1571.93 252.213 1594.38 C 233.064 1618.27 212.586 1641.25 192.187 1664.08 C 186.302 1669.96 180.926 1676.4 175.428 1682.64 C 172.866 1677.7 171.145 1672.44 169.31 1667.2 C 174.201 1645.9 180.05 1624.86 184.815 1603.52 C 193.181 1566.05 200.188 1528.37 207.485 1490.68 C 209.19 1488.21 212.729 1487.73 215.47 1486.89 z"/>
<path transform="translate(0,0)" fill="rgb(254,254,254)" d="M 1154.79 443.013 L 1157.39 442.871 C 1161.31 448.991 1162.97 519.847 1164.08 533.195 C 1151.89 536.283 1140.68 542.214 1128.76 546.15 C 1111.31 536.16 1094.41 525.224 1077.43 514.476 C 1063.43 505.738 1048.79 497.303 1035.82 487.09 C 1045.99 482.608 1057.02 479.339 1067.46 475.425 C 1096.53 464.524 1125.81 454.155 1154.79 443.013 z"/>
<path transform="translate(0,0)" fill="rgb(254,254,254)" d="M 1475.18 287.107 C 1478.13 289.023 1480.07 296.037 1481.39 299.302 C 1461.13 308.272 1439.55 315.162 1418.78 322.974 A 13036.3 13036.3 0 0 1 1247.74 384.914 L 1092.45 440.981 C 1066.19 450.264 1039.63 460.793 1012.76 468.05 C 1009.06 469.047 1007.18 469.252 1003.57 467.906 L 992.094 462.252 C 1007.35 455.153 1023.84 450.065 1039.66 444.36 L 1118.32 415.625 C 1236.89 371.754 1356.76 331.34 1475.18 287.107 z"/>
<path transform="translate(0,0)" fill="rgb(254,254,254)" d="M 1748.07 294.316 L 1749.79 294.515 C 1749.71 296.464 1749.95 295.938 1749.21 297.455 C 1740.23 315.896 1736.89 333.812 1733.8 353.899 C 1682.64 374.29 1629.9 390.478 1578.53 410.477 L 1577.76 410.499 L 1577.06 408.614 C 1578.86 396.739 1580.23 374.259 1586.76 364.881 C 1599.51 346.594 1679.05 314.906 1701.46 307.141 C 1716.77 301.838 1732.11 297.229 1748.07 294.316 z"/>
<path transform="translate(0,0)" fill="rgb(254,254,254)" d="M 622.966 913.92 C 636.35 925.128 648.459 928.2 665.61 927.862 C 660.966 937.723 654.498 947.064 649.054 956.53 C 643.697 965.845 639.257 975.517 634.95 985.345 C 623.25 988.207 611.638 992.619 600.087 996.117 C 569.568 1005.36 539.486 1014.63 509.673 1026 C 498.837 1030.2 488.045 1034.52 476.97 1038.05 C 477.205 1034.73 477.425 1031.38 477.95 1028.09 C 479.034 1021.3 481.645 1015.54 486.195 1010.36 C 502.948 991.286 531.508 974.652 552.849 960.824 C 576.392 945.568 600.361 930.539 622.966 913.92 z"/>
<path transform="translate(0,0)" fill="rgb(254,254,254)" d="M 543.62 1248.81 L 545.254 1248.88 C 550.41 1254.43 562.253 1284.9 566.468 1294.06 C 538.646 1312.39 514.536 1338.36 488.999 1359.85 C 480.657 1366.87 472.261 1374.53 462.65 1379.8 C 457.574 1382.58 451.799 1384.41 446.362 1386.38 L 436.537 1389.3 C 432.407 1377.99 428.823 1366.41 424.98 1354.99 C 435.869 1339.4 449.079 1324.94 461.258 1310.33 C 473.537 1295.6 485.206 1280.43 497.381 1265.63 C 512.894 1260.18 528.676 1255.79 543.62 1248.81 z"/>
<path transform="translate(0,0)" fill="rgb(254,254,254)" d="M 726.717 666.198 L 728.995 666.061 L 729.68 667.034 C 727.81 673.545 723.029 679.15 720.325 685.414 C 714.845 698.112 710.667 711.218 706.4 724.359 C 691.099 731.364 674.073 736.106 658.156 741.598 C 620.198 754.694 580.881 767.426 544.331 783.965 C 542.717 784.347 543.692 784.286 541.425 783.587 C 537.703 771.522 551.004 744.466 554.465 732.576 L 554.986 730.744 C 589.558 702.364 681.674 675.832 726.717 666.198 z"/>
<path transform="translate(0,0)" fill="rgb(254,254,254)" d="M 1714.85 764.944 L 1715.66 765.033 L 1716.21 765.91 C 1710.66 772.457 1704.38 778.341 1698.73 784.817 L 1645.26 847.146 A 2512.73 2512.73 0 0 1 1604.15 894.784 C 1595.57 904.663 1587.19 915.044 1577.72 924.096 C 1565.2 936.074 1550.15 943.206 1536.26 953.225 C 1526.99 959.913 1518.8 968.4 1508.85 974.11 C 1504.96 976.349 1500.56 977.13 1496.21 978.011 C 1498.66 974.329 1501.47 970.913 1504.21 967.445 A 3577.15 3577.15 0 0 0 1547.17 918.213 C 1556.54 907.399 1566.64 896.769 1574.88 885.063 C 1568.23 867.244 1558.56 849.755 1550.25 832.597 C 1580.36 821.03 1609.93 807.818 1639.7 795.371 C 1664.63 784.946 1689.88 775.296 1714.85 764.944 z"/>
<path transform="translate(0,0)" fill="rgb(254,254,254)" d="M 1534.88 423.046 C 1537.74 424.647 1540.25 428.854 1542.32 431.46 C 1540.28 442.339 1539.93 452.644 1540.1 463.707 C 1520.58 469.465 1501.16 477.754 1481.94 484.623 L 1333.35 538.636 C 1324.1 541.979 1303.58 552.466 1295.02 552.923 L 1293.92 551.571 A 1291.19 1291.19 0 0 1 1281.67 516.756 C 1312.77 505.806 1343.33 493.58 1374.24 482.16 L 1534.88 423.046 z"/>
<path transform="translate(0,0)" fill="rgb(254,254,254)" d="M 228.507 1140.2 L 229.083 1140.27 L 229.664 1141.23 C 211.938 1165.21 211.4 1175.2 207.951 1203.87 C 165.742 1210.94 118.501 1225.93 81.6753 1247.82 C 83.1322 1230.41 87.6876 1214.48 91.041 1197.47 A 131.461 131.461 0 0 0 80.5141 1222.87 C 73.6615 1245.79 73.9955 1270.78 75.2423 1294.51 C 80.2004 1388.85 111.726 1481.27 156.413 1563.93 C 160.36 1571.6 169.356 1582.74 170.077 1591.31 C 170.225 1593.07 169.938 1593.53 168.761 1594.68 C 167.065 1595.03 166.035 1594.61 164.455 1593.81 C 157.112 1590.11 151.094 1575.18 147.274 1568.07 A 719.976 719.976 0 0 1 79.7605 1395.1 C 68.0565 1346.13 52.4175 1250.44 80.0234 1206.5 C 100.793 1173.45 191.366 1148.47 228.507 1140.2 z"/>
<path transform="translate(0,0)" fill="rgb(254,254,254)" d="M 244.494 1140.01 C 247.335 1139.67 249.869 1139.16 252.633 1140.17 C 251.021 1143.43 248.234 1146.19 246.311 1149.33 C 243.463 1153.97 241.579 1160.03 240.04 1165.24 C 220.149 1232.58 262.716 1370.88 295.412 1430.47 L 296.117 1430.36 C 292.36 1417.51 286.112 1405.03 281.846 1392.23 C 261.808 1332.1 237.719 1250.09 245.626 1186.43 C 247.615 1170.42 253.064 1151.47 266.492 1141.31 C 266.784 1141.09 267.082 1140.88 267.376 1140.66 C 304.572 1158.67 331.946 1196.86 353.051 1231.41 C 358.817 1241.3 368.422 1254.82 369.617 1266.44 L 368.613 1267.03 C 363.262 1263.13 359.773 1256.5 356.275 1250.99 C 347.081 1236.52 335.459 1217.15 319.286 1209.59 C 312.453 1206.4 303.608 1204.95 296.421 1207.83 C 290.174 1210.33 286.424 1215.43 283.798 1221.44 C 266.564 1260.86 293.658 1348.99 308.776 1389.47 C 314.055 1403.6 320.951 1417.05 326.16 1431.2 C 312.485 1436.79 298.225 1440.85 284.122 1445.22 C 252.909 1372.45 222.735 1295.27 223.594 1214.81 C 223.859 1190.09 225.697 1158.36 244.494 1140.01 z"/>
<path transform="translate(0,0)" fill="rgb(254,254,254)" d="M 1251.28 1052.76 C 1257.56 1060.3 1267.77 1086.85 1272.78 1097.5 C 1287.47 1128.75 1303.51 1159.37 1316.79 1191.28 C 1288.1 1222.6 1256.88 1252.03 1226.42 1281.66 C 1218.29 1289.77 1211 1298.34 1203.7 1307.18 C 1197.12 1291.3 1193.44 1274.66 1186.23 1258.8 C 1188.89 1241.55 1195.97 1223.74 1200.69 1206.83 C 1215.29 1154.54 1228.05 1102.11 1251.28 1052.76 z"/>
<path transform="translate(0,0)" fill="rgb(254,254,254)" d="M 597.034 1464.18 C 597.449 1464.56 598.016 1464.81 598.28 1465.31 C 600.082 1468.69 600.441 1477.62 601.391 1481.74 C 602.861 1488.12 604.739 1494.1 607.217 1500.15 C 586.381 1509.81 564.274 1517.49 542.848 1525.78 L 433.404 1567.97 L 301.893 1618.45 C 278.321 1627.49 254.855 1637.37 230.924 1645.4 C 228.504 1646.4 226.873 1647.09 224.205 1647.14 C 230.112 1636.13 265.257 1606.41 267.144 1597.62 C 267.994 1593.65 264.963 1588.9 263.211 1585.59 C 291.91 1573.53 321.232 1563.59 350.503 1553.04 L 462.932 1512.15 C 507.457 1496.07 551.336 1476.65 597.034 1464.18 z"/>
<path transform="translate(0,0)" fill="rgb(254,254,254)" d="M 1214.05 1104.09 L 1215.04 1104.92 C 1214.35 1113.09 1204.19 1137.15 1201.1 1147.35 C 1194.8 1168.1 1189.97 1189.23 1183.55 1209.96 C 1163.06 1217.5 1142.86 1226.04 1122.44 1233.79 L 922.409 1310.28 C 921.776 1309.73 922.136 1310.13 921.676 1308.83 C 948.268 1286.54 975.65 1266.17 1000.99 1242.31 C 1032.67 1212.5 1060.56 1174.52 1097.72 1151.41 C 1132.61 1129.72 1175.23 1116.73 1214.05 1104.09 z"/>
<path transform="translate(0,0)" fill="rgb(254,254,254)" d="M 1490.7 321.202 C 1494.87 326.05 1517.02 384.69 1521.16 395.136 C 1501.98 399.024 1466.21 414.307 1446.38 421.674 A 13406.1 13406.1 0 0 1 1300.72 475.37 C 1293.68 478.312 1286.7 481.085 1279.43 483.401 C 1277.04 455.591 1275.84 427.505 1274.53 399.621 C 1322.54 383.153 1370.43 365.244 1418.05 347.629 C 1442.23 338.685 1466.2 329.285 1490.7 321.202 z"/>
<path transform="translate(0,0)" fill="rgb(254,254,254)" d="M 838.133 651.336 A 119.563 119.563 0 0 1 852.165 650.624 C 873.227 650.688 896.864 661.638 911.422 676.693 C 934.097 700.142 940.108 744.468 939.207 775.57 C 938.713 792.637 933.67 815.015 920.788 827.086 C 906.163 831.31 891.295 834.445 876.735 838.988 A 204.55 204.55 0 0 0 889.681 827.134 C 909.554 807.476 929.287 775.462 929.212 746.555 C 929.2 741.834 929.26 736.442 925.766 732.943 C 919.902 736.109 915.724 763.735 912.919 771.21 A 114.966 114.966 0 0 1 902.235 792.244 C 874.902 834.708 838.04 847.686 791.132 858.056 C 785.767 853.838 781.627 848.819 777.464 843.471 C 783.784 842.573 790.15 841.667 796.423 840.478 C 829.395 834.232 859.031 812.958 880.121 787.339 C 887.059 778.911 892.793 769.511 899.128 760.634 C 905.007 752.396 911.32 744.515 917.022 736.144 C 918.251 733.126 919.471 730.093 920.249 726.921 C 923.038 715.553 918.29 706.146 912.611 696.689 C 904.479 707.239 896.179 717.772 886.594 727.057 C 865.991 747.016 827.631 770.915 800.495 780.606 C 784.335 786.376 767.913 789.511 751.01 792.007 L 746.14 775.116 C 758.541 774.349 771.145 771.543 783.031 768.02 C 821.934 756.488 860.945 735.156 888.486 705.112 C 893.611 699.52 899.07 693.521 902.578 686.731 C 904.285 683.428 905.218 680.63 904.121 676.933 C 902.34 675 902.007 674.451 899.523 673.735 C 894.821 677.445 891.572 683.514 887.959 688.279 C 855.063 731.673 797.733 756.892 744.969 764.259 C 741.024 738.551 743.705 715.067 759.243 693.493 C 777.696 667.871 807.925 656.135 838.133 651.336 z"/>
<path transform="translate(0,0)" fill="rgb(254,254,254)" d="M 354.049 1440.08 C 366.561 1439.32 380.409 1442.02 392.927 1443.28 A 1362.26 1362.26 0 0 0 441.66 1447.02 A 2641.17 2641.17 0 0 0 515.384 1451.44 C 533.142 1452.14 552.509 1451.3 569.965 1454.47 C 542.846 1461.65 516.516 1472.57 490.231 1482.32 C 459.523 1493.72 428.586 1504.54 397.991 1516.23 L 307.464 1548.83 C 291.029 1554.91 274.883 1561.66 258.313 1567.39 A 747.625 747.625 0 0 1 232.201 1481.95 C 269.721 1465.91 314.878 1452.82 354.049 1440.08 z"/>
<path transform="translate(0,0)" fill="rgb(254,254,254)" d="M 1175.39 1230.97 L 1176.3 1231.22 C 1177.54 1237.37 1171.58 1245.82 1171.32 1252.39 C 1171.01 1260.07 1175.31 1270.33 1177.47 1277.79 C 1101.05 1309.72 1022.73 1336.94 945.407 1366.51 L 809.78 1419.29 C 789.94 1427.01 770.326 1435.39 750.237 1442.45 C 747.93 1443.14 746.709 1443.84 744.29 1443.33 C 748.748 1433.65 757.571 1424.51 763.438 1415.37 C 771.551 1402.74 778.17 1388.79 785.115 1375.47 C 805.412 1367.27 828.245 1361.4 849.174 1353.53 C 957.819 1312.66 1067.79 1274.5 1175.39 1230.97 z"/>
<path transform="translate(0,0)" fill="rgb(254,254,254)" d="M 1551.83 139.114 C 1557.24 145.291 1619.68 302.002 1627.31 322.325 C 1601.64 336.036 1568.33 351.703 1554.69 378.864 C 1550.42 387.378 1549.18 398.413 1544.19 406.301 C 1543.98 406.64 1543.71 406.946 1543.48 407.269 C 1533.46 389.58 1526.78 369.109 1518.7 350.43 L 1487.07 275.265 C 1479.67 257.638 1471.32 239.885 1465.79 221.583 A 1050.78 1050.78 0 0 0 1516.32 173.318 C 1527.8 161.804 1538.99 149.136 1551.83 139.114 z"/>
<path transform="translate(0,0)" fill="rgb(254,254,254)" d="M 1180.24 1290.04 C 1183.63 1291.83 1188.47 1310.77 1189.96 1315.22 C 1170.67 1323.31 1150.43 1329.71 1130.89 1337.26 A 17552.5 17552.5 0 0 1 948.15 1407.34 L 186.358 1700.64 L 184.502 1700.32 C 183.375 1698.44 182.696 1697.47 183.242 1695.13 C 184.902 1688 207.261 1669.72 213.746 1666.32 C 224.159 1660.87 236.212 1657.11 247.195 1652.93 L 311.492 1628.78 L 508.421 1553.88 A 4006.7 4006.7 0 0 0 583.123 1524.89 C 596.248 1519.77 609.95 1515.57 622.594 1509.36 C 625.758 1511.1 628.917 1512.36 632.474 1513.08 C 652.611 1517.16 683.562 1504.5 699.835 1493.37 C 709.985 1486.43 711.91 1480.58 714.163 1469.09 C 728.452 1462.19 744.54 1457.48 759.433 1451.93 L 842.385 1420.44 L 1096.18 1323.05 C 1124.21 1312.04 1152.43 1301.62 1180.24 1290.04 z"/>
<path transform="translate(0,0)" fill="rgb(254,254,254)" d="M 1426.81 612.829 C 1452.22 639.297 1465.63 675.558 1480.55 708.578 A 7162.33 7162.33 0 0 1 1526.44 814.001 C 1536.39 837.119 1545.97 860.39 1557.52 882.771 C 1535.04 909.905 1512.52 937.137 1489.2 963.558 C 1486.9 954.754 1483.63 946.132 1480.68 937.524 A 609.947 609.947 0 0 0 1444.64 858.648 C 1416.9 808.95 1380.82 749.115 1322.64 732.651 C 1346.28 720.043 1371.46 709.643 1391.72 691.622 C 1415.97 670.047 1425.03 644.617 1426.81 612.829 z"/>
<path transform="translate(0,0)" fill="rgb(254,254,254)" d="M 1333.28 751.889 C 1335.23 753.757 1339.1 755.006 1341.57 756.431 C 1348.6 760.481 1355.4 764.558 1361.46 769.978 C 1403.34 807.472 1432.18 856.296 1454.37 907.38 C 1481.6 970.068 1511.81 1086.93 1485.97 1151.1 C 1482.57 1159.54 1477.6 1169.29 1468.61 1172.75 C 1462.08 1175.26 1455.03 1173.47 1448.96 1170.54 C 1436.06 1164.33 1424.66 1152.69 1414.73 1142.61 C 1367.92 1095.1 1332.4 1034.92 1309.55 972.379 C 1289.18 916.605 1265.07 819.341 1291.24 764.295 C 1294.41 757.623 1298.58 750.494 1305.94 748.046 C 1311.42 746.221 1320.2 745.003 1325.43 748.114 C 1325.82 748.345 1326.19 748.609 1326.57 748.856 C 1319.54 748.962 1314.23 751.59 1309.43 756.765 C 1291.17 776.449 1291.85 817.569 1293.33 842.271 C 1297.14 905.907 1321.99 981.587 1352.33 1037.39 C 1357.73 1047.32 1363.46 1059.27 1371.82 1066.96 L 1373.29 1068.34 L 1372.66 1066.94 C 1365.14 1050.44 1354.41 1035.61 1346.98 1019.02 C 1319.85 958.486 1282.41 840.574 1305.78 775.236 C 1309.02 766.178 1314.27 758.421 1323.18 754.224 C 1326.41 752.703 1329.76 752.197 1333.28 751.889 z"/>
<path transform="translate(0,0)" fill="rgb(31,30,31)" d="M 1352.26 807.19 C 1356.34 806.846 1360.51 806.574 1364.54 807.457 C 1392.25 813.52 1416.67 849.107 1430.32 871.532 C 1458.83 918.372 1477.45 975.34 1483.58 1029.8 C 1485.21 1044.31 1486.61 1060.43 1482.82 1074.74 C 1479.93 1085.64 1475.04 1093.72 1465.19 1099.41 C 1456.71 1101.8 1449.59 1101.58 1441.41 1098.14 C 1408.82 1084.46 1376.34 1024.13 1362.5 991.987 C 1344.21 949.524 1332.04 898.985 1332.68 852.646 C 1332.82 842.333 1333.15 831.144 1337.24 821.505 C 1340.58 813.642 1344.53 810.484 1352.26 807.19 z"/>
<path transform="translate(0,0)" fill="rgb(254,254,254)" d="M 1362.91 955.493 C 1363.49 955.813 1364.16 956.154 1364.67 956.564 C 1374.51 964.391 1379.2 987.466 1380.17 999.352 C 1371.87 992.036 1365.98 966.729 1362.91 955.493 z"/>
<path transform="translate(0,0)" fill="rgb(254,254,254)" d="M 1352.53 907.375 C 1365.32 912.435 1374.95 929.884 1381.29 941.37 C 1391.34 959.578 1402.62 987.719 1396.69 1008.64 C 1393.52 1009.85 1391.56 1010.32 1388.29 1009.42 C 1384.96 1004.76 1384.09 987.172 1382.23 980.492 C 1380.24 973.33 1377.06 965.881 1373.64 959.282 C 1370.69 953.582 1367.68 948.416 1361.26 946.465 C 1360.93 946.364 1360.59 946.278 1360.26 946.185 C 1354.58 937.851 1352.9 917.522 1352.53 907.375 z"/>
<path transform="translate(0,0)" fill="rgb(254,254,254)" d="M 1354.14 818.836 C 1356.75 818.781 1359.39 818.785 1361.98 819.249 C 1379.26 822.356 1396.41 842.534 1406.24 855.815 C 1441.88 903.964 1481.22 1005.89 1471.53 1066.22 C 1470.4 1073.21 1468.15 1081.84 1461.83 1085.96 C 1458.07 1088.42 1453.33 1088.71 1449.07 1087.55 C 1428.75 1082 1400.17 1038.19 1390.69 1020.25 C 1393.98 1020.45 1398.27 1021.09 1401.33 1019.51 C 1405.1 1017.56 1407.16 1012.56 1407.93 1008.63 C 1413 982.755 1394.07 939.552 1379.37 919.007 C 1372.09 908.839 1363.1 900.599 1350.41 898.44 C 1349 888.371 1348.47 878.224 1347.86 868.084 C 1347.81 864.128 1347.62 859.927 1348.26 856.012 C 1348.76 852.952 1350.3 849.661 1353.1 848.07 C 1355.96 846.444 1359.32 847.129 1362.16 848.363 C 1386.29 858.822 1413.21 909.749 1423.5 933.939 C 1437.18 966.094 1447.25 1001.06 1447.01 1036.2 C 1446.96 1044.13 1446.92 1053.09 1443.69 1060.48 C 1441.41 1065.72 1438.14 1068.68 1432.83 1070.66 C 1432.3 1070.85 1431.77 1071.04 1431.24 1071.23 C 1432.02 1072.49 1432.1 1073.44 1433.69 1073.72 C 1437.26 1074.33 1444.29 1071.65 1447.36 1069.64 C 1452.69 1066.14 1455.2 1060.44 1456.45 1054.38 C 1458.31 1045.34 1457.85 1035.55 1457.44 1026.41 C 1455.18 976.389 1436.58 923.513 1409.14 881.868 C 1398.95 866.396 1380.01 840.348 1360.43 836.945 C 1355.23 836.042 1351.66 837.347 1347.49 840.374 C 1347.21 840.572 1346.95 840.776 1346.68 840.977 C 1345.58 839.703 1345.23 839.712 1345.09 837.911 C 1344.6 831.468 1349.91 823.265 1354.14 818.836 z"/>
<path transform="translate(0,0)" fill="rgb(254,254,254)" d="M 1495.05 172.091 L 1495.72 173.33 C 1483.61 183.874 1460.24 205.276 1450.19 217.215 C 1453.65 234.347 1465.82 259.038 1471.37 278.265 C 1456.08 281.959 1441.04 288.302 1426.23 293.569 L 1348.48 321.154 L 1085.58 415.549 L 1020.76 439.519 C 1007.17 444.543 993.422 450.24 979.392 453.847 C 941.288 440.253 905.143 429.34 864.13 436.142 L 838.034 441.682 C 833.542 432.321 829.917 422.787 826.408 413.033 C 861.778 402.416 896.012 388.759 930.706 376.195 L 1125.69 304.695 C 1248.46 259.532 1372.52 217.886 1495.05 172.091 z"/>
<path transform="translate(0,0)" fill="rgb(254,254,254)" d="M 1776 290.276 L 1776.64 290.694 C 1777.13 294.296 1773.01 300.06 1771.51 303.556 C 1768.25 311.157 1766.35 319.981 1764.93 328.096 C 1752.22 400.697 1794.43 534.257 1836.36 593.885 C 1834.58 586.407 1828.1 577.019 1824.51 570.061 A 284.666 284.666 0 0 1 1814.04 547.326 C 1792.39 495.213 1776.29 439.523 1772.58 383.033 C 1770.65 353.613 1771.25 314.984 1792.05 291.579 L 1793 290.53 A 90.1308 90.1308 0 0 1 1795.6 291.279 C 1851.7 308.208 1890.58 369.758 1916.94 418.762 C 1943.47 469.307 1962.84 526.156 1971.48 582.633 C 1976.88 617.929 1981.42 682.483 1959.2 711.376 C 1954.4 717.61 1947.59 722.367 1939.64 723.264 C 1925.43 724.865 1911.23 715.558 1900.55 707.15 C 1850.56 667.818 1804.92 581.99 1783.38 522.58 C 1769.65 484.731 1759.02 442.986 1754.37 402.944 C 1751.4 377.302 1750.11 312.444 1767.47 293.404 C 1769.89 290.761 1772.65 290.667 1776 290.276 z"/>
<path transform="translate(0,0)" fill="rgb(31,30,31)" d="M 1833.1 354.053 C 1840.36 353.543 1846.81 354.837 1853.43 357.92 C 1891.22 375.511 1923.44 440.877 1938.08 478.985 C 1953.16 518.271 1977.35 596.76 1958.88 635.961 C 1954.85 644.524 1949.53 649.605 1940.7 652.826 C 1933.9 654.151 1928.16 653.571 1921.64 651.169 C 1889.7 639.403 1859.3 589.535 1845.15 559.842 C 1823.44 514.284 1809.51 467.483 1808.8 416.611 C 1808.61 402.857 1808.78 387.608 1813.69 374.548 C 1817.58 364.213 1823.32 358.668 1833.1 354.053 z"/>
<path transform="translate(0,0)" fill="rgb(254,254,254)" d="M 1830.29 487.767 C 1835.91 489.698 1843.53 493.712 1846.88 498.698 C 1852.39 506.901 1848.7 518.758 1847.11 527.782 C 1846.94 528.395 1846.46 528.88 1846.1 529.404 C 1841.19 525.319 1831.75 495.013 1830.29 487.767 z"/>
<path transform="translate(0,0)" fill="rgb(254,254,254)" d="M 1822.66 445.289 C 1832.19 447.734 1838.2 454.329 1843.96 461.904 C 1862.22 485.936 1882.83 533.476 1877.66 564.24 C 1876.71 569.913 1874.51 575.435 1869.74 578.877 C 1862.66 567.983 1856.76 556.274 1851.16 544.569 C 1852.88 541.072 1854.45 537.589 1855.71 533.896 C 1859.63 522.364 1863.3 508.076 1857.33 496.672 C 1851.39 485.326 1839.89 480.185 1828.28 476.66 C 1825.42 466.373 1823.72 455.903 1822.66 445.289 z"/>
<path transform="translate(0,0)" fill="rgb(254,254,254)" d="M 1839.06 366.118 C 1841.63 366.582 1844.27 367.052 1846.67 368.111 C 1881.71 383.558 1915.66 455.778 1928.03 490.983 C 1940.52 526.527 1964.51 599.665 1946.88 634.208 C 1944.85 638.198 1941.85 641.792 1937.43 643.136 C 1930.92 645.113 1925.56 641.917 1920.01 638.933 L 1910.9 631.829 C 1918.08 629.553 1922.69 627.447 1927.05 621.06 C 1940.95 600.69 1935.25 563.49 1930.41 540.995 C 1920.77 496.156 1891.12 413.714 1851.28 388.956 C 1841.72 383.012 1833.55 381.76 1822.71 384.366 A 260.961 260.961 0 0 1 1825.97 377.792 C 1829.15 371.645 1832.4 368.258 1839.06 366.118 z"/>
<path transform="translate(0,0)" fill="rgb(254,254,254)" d="M 1826.2 392.201 C 1833.77 392.134 1839.12 393.747 1845.53 397.893 C 1880.89 420.764 1910.7 497.034 1919.57 538.62 C 1923.94 559.107 1929.65 597.438 1917.04 616.039 C 1913.87 620.712 1910.4 622.946 1904.89 623.932 C 1892.01 614.169 1883.52 600.997 1874.87 587.556 C 1875.38 587.198 1875.9 586.849 1876.41 586.482 C 1884.07 580.939 1887.43 571.135 1888.56 562.107 C 1892.67 529.362 1872.66 481.805 1852.5 456.464 C 1844.11 445.92 1834.85 436.268 1820.88 434.689 C 1820.38 423.254 1819.01 410.951 1820.88 399.62 C 1821.57 395.436 1822.95 394.515 1826.2 392.201 z"/>
<path transform="translate(0,0)" fill="rgb(254,254,254)" d="M 880.707 447.425 A 88.483 88.483 0 0 1 883.191 447.215 C 908.091 445.506 936.03 452.766 958.958 461.981 C 985.709 472.733 1011.46 488.233 1036.02 503.227 C 1065.86 521.445 1094.62 540.226 1123.49 559.936 C 1160.66 585.314 1199.07 610.975 1233.16 640.455 C 1225.31 647.734 1215.77 653.776 1207.15 660.148 C 1196.99 667.662 1187.21 675.637 1177.39 683.575 L 1063.51 773.96 C 1048.53 785.774 1033.27 801.157 1016.65 810.322 C 1011.2 813.325 1004.48 812.779 998.394 813.019 C 1004.21 801.913 1006.94 790.442 1009.61 778.266 C 1024.1 772.316 1073.77 761.394 1080.42 749.56 C 1085.83 739.932 1082.09 725.463 1079.35 715.421 C 1077.14 707.334 1073.38 693.881 1065.42 689.84 C 1055.64 684.875 1037.14 693.112 1027.32 696.261 C 1024.53 689.868 1020.72 684.239 1016.52 678.7 C 998.995 655.579 974.322 636.717 944.894 632.873 C 927.975 630.662 903.489 633.63 889.765 644.301 C 878.74 640.625 868.284 638.114 856.709 636.975 C 900.587 619.978 944.868 604.354 992.756 608.721 A 190.385 190.385 0 0 1 1019.34 612.559 C 1053.81 620.074 1082.75 639.291 1097.81 671.956 C 1101.26 679.435 1102.91 691.373 1107.51 697.717 C 1108.76 699.444 1109.49 699.406 1111.45 699.783 C 1113.16 698.794 1113.96 698.192 1114.97 696.426 C 1117.72 691.646 1115.95 685.542 1114.46 680.686 C 1105.25 650.691 1085.32 628.938 1057.81 614.414 C 1017.4 593.076 967.401 591.539 923.635 602.094 C 898.896 608.061 875.04 617.45 851.205 626.227 C 828.335 634.648 804.81 642.112 783.445 654.009 C 778.533 656.744 773.397 659.611 769.143 663.32 C 764.997 666.933 752.786 682.762 749.472 683.796 L 747.538 681.967 C 747.035 680.075 746.704 679.604 747.172 677.602 C 749.961 665.655 770.551 649.137 781.115 643.153 C 769.647 607.064 753.243 544.226 766.011 507.66 C 770.448 494.953 778.133 485.149 790.579 479.516 A 51.3517 51.3517 0 0 1 830.957 478.465 C 871.111 494.127 901.278 551.926 917.481 589.124 C 919.853 590.848 920.431 591.019 923.351 591.393 C 925.767 590.239 925.827 589.965 927.155 587.606 C 928.203 571.599 891.757 517.945 881.225 504.708 C 863.411 482.319 843.236 466.836 814.266 463.652 A 225.708 225.708 0 0 1 880.707 447.425 z"/>
<path transform="translate(0,0)" fill="rgb(31,30,31)" d="M 804.201 494.239 C 807.944 493.961 811.317 493.987 814.947 495.076 C 845.503 504.245 874.847 559.203 889.599 586.431 A 941.452 941.452 0 0 0 849.754 600.496 C 831.343 607.172 812.947 614.451 794.198 620.106 C 788.201 592.128 773.811 534.279 786.705 508.301 C 790.761 500.13 795.867 497.236 804.201 494.239 z"/>
<path transform="translate(0,0)" fill="rgb(254,254,254)" d="M 1005.74 820.102 L 1006.5 820.781 C 994.773 834.868 975.378 846.894 960.997 858.674 A 674.042 674.042 0 0 0 908.601 907.326 C 878.687 938.51 850.631 972.476 827.779 1009.23 C 768.457 1104.64 741.854 1218.41 723.826 1328 A 4042.62 4042.62 0 0 0 714.412 1387.15 C 711.113 1409.97 708.514 1456.77 698.235 1475.32 C 692.035 1486.52 672.304 1493.37 660.67 1497.06 C 650.666 1500.23 638.717 1502.89 629.035 1497.42 C 621.917 1493.4 618.252 1485.77 616.052 1478.2 C 610.913 1460.53 609.242 1440.34 607.182 1422.08 C 597.733 1338.27 599.921 1254.01 608.424 1170.21 C 611.92 1135.76 616.102 1101 623.659 1067.17 C 632.8 1026.25 645.31 987.396 665.721 950.586 C 669.431 943.896 673.462 936.622 679.239 931.485 C 687.028 924.558 698.532 919.889 707.775 914.985 C 784.122 874.479 867.061 857.137 949.25 833.381 C 958.536 829.784 967.489 826.29 977.208 823.981 C 937.805 844.501 901.778 875.922 872.027 908.739 C 858.806 923.324 845.597 938.187 833.866 954.013 C 779.116 1027.87 745.716 1115.22 722.701 1203.44 A 1082.71 1082.71 0 0 0 698.697 1315.45 C 694.837 1340.51 690.566 1365.51 687.176 1390.64 C 684.908 1407.46 683.925 1425.72 680.084 1442.2 C 679.105 1446.4 677.494 1450.55 675.109 1454.16 C 666.576 1467.06 646.516 1473.54 631.537 1473.59 C 626.959 1473.6 621.21 1471.68 616.877 1472.58 C 616.332 1474.17 615.965 1474.23 616.679 1475.94 C 618.188 1479.54 621.356 1481.84 624.885 1483.28 C 635.7 1487.7 653.493 1481.74 663.656 1477.04 C 674.913 1471.84 683.918 1463.94 688.121 1451.99 C 691.887 1441.28 692.505 1429.17 694.203 1417.98 L 705.89 1337.27 C 716.895 1265.47 732.766 1192.53 757.515 1124.15 C 791.537 1030.15 841.252 946.378 916.725 880.112 C 945.522 854.828 970.756 836.454 1005.74 820.102 z"/>
<path transform="translate(0,0)" fill="rgb(254,254,254)" d="M 1393.32 601.331 C 1398.46 601.019 1404.44 600.465 1408.93 603.46 C 1411.74 605.331 1413.37 608.709 1413.94 611.939 C 1416.41 626.187 1406.85 652.44 1398.7 664.483 C 1383.24 687.34 1334.85 715.669 1308.99 724.812 C 1302.45 727.124 1295.41 728.025 1288.62 729.358 C 1254.7 736.011 1185.24 761.568 1157.12 781.527 C 1148.39 787.724 1141.28 795.098 1135.38 804.029 C 1100.22 857.173 1111.5 936.231 1123.5 995.388 C 1103.17 999.683 1064.5 1019.8 1043.04 1028.75 C 1027.65 1024.1 1010.18 1022.43 994.283 1019.81 A 4568.06 4568.06 0 0 0 904.714 1005.43 C 902.665 1003.2 900.636 1001.04 898.046 999.42 C 891.256 995.185 883.505 994.218 875.788 996.087 C 868.217 997.922 861.387 1002.09 857.442 1008.97 C 853.531 1015.8 852.77 1024.08 854.946 1031.6 A 29.9034 29.9034 0 0 0 870.459 1050.27 C 879.772 1054.79 888.341 1053.39 897.642 1050.04 C 900.071 1047.54 902.107 1044.5 904.212 1041.72 A 1465.59 1465.59 0 0 0 946.565 1049.45 C 958.021 1051.27 970.766 1052.11 981.724 1055.75 C 945.931 1070.07 910.776 1085.53 875.503 1101.05 C 860.561 1107.63 843.659 1113.25 829.705 1121.61 C 824.436 1124.76 820.151 1130.32 818.738 1136.33 C 817.484 1141.66 818.678 1147.11 821.651 1151.68 C 831.813 1167.28 849.359 1156.2 861.559 1150.46 C 882.103 1140.79 1029.83 1072.73 1039.33 1072.6 C 1051.37 1072.42 1064.92 1076.49 1076.85 1078.74 A 5438.53 5438.53 0 0 1 1158.15 1094.55 L 1162.39 1104.15 C 1123.23 1119.45 1098.68 1130.04 1066.19 1157.93 C 1017.67 1161.08 969.305 1173.41 921.676 1182.81 C 919.122 1183.93 916.611 1185.06 914.423 1186.83 C 911.424 1189.25 909.175 1192.53 908.941 1196.47 C 908.649 1201.39 910.594 1207.01 914.129 1210.49 C 917.662 1213.96 922.518 1215.25 927.367 1215.22 C 938 1215.15 949.875 1210.35 960.224 1207.8 A 1538.96 1538.96 0 0 1 1009.66 1196.49 C 1015.23 1195.29 1021.63 1192.97 1027.32 1193.02 C 1027.18 1193.26 1027.06 1193.53 1026.88 1193.74 C 1023.4 1197.97 1006.28 1198.62 1000.54 1199.48 C 998.286 1199.82 996.022 1200.05 993.836 1200.74 C 965.253 1209.76 894.191 1254.94 874.546 1277.4 C 857.576 1296.81 844.144 1321.72 831.787 1344.26 C 820.913 1349.01 802.241 1356.1 790.682 1357.38 C 789.724 1354.24 789.029 1352.1 786.789 1349.66 C 784.92 1348.76 783.614 1348.28 781.55 1348.52 C 777.16 1349.02 774.511 1351.21 772.256 1354.85 C 766.974 1363.36 762.864 1378.64 757.98 1388.71 C 745.555 1414.33 729.381 1438 712.475 1460.83 A 6590.22 6590.22 0 0 1 736.934 1320.02 C 760.328 1192.21 787.081 1080.34 866.324 973.982 C 912.776 911.634 964.56 869.967 1024.42 821.813 L 1135.46 732.816 L 1196.16 684.286 C 1211.93 671.738 1228.4 657.794 1246.02 647.927 C 1264.54 637.555 1302.48 629.15 1324.55 622.245 C 1347.06 615.206 1369.98 604.751 1393.32 601.331 z"/>
</svg>