<svg version="1.1" id="Layer_1" xmlns="http://www.w3.org/2000/svg" xmlns:xlink="http://www.w3.org/1999/xlink" x="0px" y="0px"
	 width="100%" viewBox="0 0 1024 1024" enable-background="new 0 0 1024 1024" xml:space="preserve">
<path fill="#000000" opacity="1.000000" stroke="none" 
	d="
M835.208740,431.452393 
	C822.618469,434.832794 810.441162,438.277557 798.146362,441.234161 
	C793.178345,442.428864 790.054749,444.692932 789.371826,449.883057 
	C788.215271,458.674316 782.421387,462.429901 774.371277,464.255615 
	C757.009216,468.193237 739.637024,472.137207 722.436829,476.710083 
	C716.243774,478.356628 710.474854,481.693359 704.613586,484.472229 
	C694.228394,489.395966 683.905334,494.452026 673.592041,499.525452 
	C671.290222,500.657776 668.881287,501.765198 666.987183,504.387909 
	C672.967407,505.509399 677.920105,502.986725 683.094727,502.347504 
	C686.064209,501.980713 688.982422,501.199310 691.951843,500.831970 
	C695.584900,500.382507 699.088318,500.378326 700.123474,505.118561 
	C701.354675,510.756683 699.532776,514.909546 694.636414,516.335571 
	C686.329041,518.755005 677.947266,520.920776 669.588013,523.160156 
	C658.332764,526.175293 647.061768,529.131836 635.816895,532.184937 
	C634.070190,532.659241 632.286926,533.293274 630.773499,534.252502 
	C629.151550,535.280396 628.287476,537.118591 628.782593,539.031555 
	C629.335388,541.167603 631.374939,540.927185 632.964966,540.727478 
	C639.074463,539.959900 645.161804,539.018616 651.262756,538.180725 
	C654.605103,537.721680 658.034058,537.153503 660.055054,540.920105 
	C662.079102,544.692444 661.123169,548.115295 658.389587,551.011353 
	C649.355957,560.581787 640.234070,570.069153 631.110962,579.554688 
	C629.200562,581.540955 626.653809,582.443604 624.057190,583.126099 
	C609.246277,587.018982 594.401001,590.784546 579.623779,594.800842 
	C570.667297,597.235107 563.596375,593.289062 557.085571,588.218201 
	C552.784485,584.868347 553.687744,580.559387 558.536682,577.858093 
	C559.794556,577.157349 561.368774,576.886047 562.054504,575.422668 
	C561.398376,573.307129 559.933289,573.444153 558.396301,573.843811 
	C555.335388,574.639648 552.117249,575.090393 549.257812,576.350525 
	C541.689514,579.685791 535.177124,578.399963 528.856445,573.233521 
	C524.096069,569.342590 518.787476,566.128845 513.814270,562.488770 
	C511.599854,560.867920 509.462494,560.540710 506.821899,561.353027 
	C499.984680,563.455933 493.071198,565.309631 486.202332,567.311462 
	C483.612274,568.066345 480.813019,569.040283 478.353149,568.047485 
	C467.879913,563.820374 457.453156,566.216003 447.477844,568.955383 
	C435.579956,572.222839 425.212006,571.339050 415.869904,562.955505 
	C406.654572,554.685791 396.614899,553.433167 384.574371,556.853210 
	C369.569092,561.115417 353.988678,563.341553 338.679016,566.553528 
	C335.692322,567.180176 333.142670,567.124084 330.908630,564.718079 
	C328.286743,561.894409 324.901978,562.974487 321.962799,563.702637 
	C317.291138,564.859924 313.521667,564.767090 310.816681,560.010071 
	C308.990967,556.799438 305.723724,558.070618 303.085297,558.589478 
	C291.655121,560.837585 280.243011,563.190857 268.870880,565.715393 
	C262.715637,567.081787 256.528900,568.240234 250.498032,570.306274 
	C243.868149,572.577515 240.195847,569.741760 239.523819,562.706787 
	C239.135727,558.644409 236.783188,557.702209 233.279343,558.439087 
	C226.762558,559.809570 220.256454,561.231934 213.753647,562.667786 
	C208.305130,563.870911 203.109665,564.246521 199.391891,558.879578 
	C198.171692,557.118042 196.449982,557.789917 194.828445,558.070251 
	C181.692719,560.341492 168.882080,564.028992 155.908905,567.008362 
	C130.115082,572.931885 104.329491,578.891235 78.538956,584.829163 
	C77.293114,585.115967 76.012611,585.527100 73.915779,583.893494 
	C92.743774,577.907227 110.853638,572.144348 128.966690,566.391541 
	C147.100830,560.632202 165.238174,554.882996 184.045120,548.916382 
	C179.939819,544.131958 175.919937,543.603271 171.422104,544.523987 
	C162.941025,546.260071 154.447342,547.934509 145.964066,549.660034 
	C144.685211,549.920105 143.431763,550.484375 140.952591,549.026123 
	C151.372391,544.732910 161.736221,542.805359 171.136795,538.492126 
	C170.162231,533.420837 167.311157,532.928589 163.283981,533.814819 
	C120.694672,543.187134 78.086311,552.473022 35.481331,561.774170 
	C33.609821,562.182800 31.725025,562.979126 29.586554,561.852234 
	C30.544163,560.310120 32.094891,560.150757 33.428215,559.773926 
	C63.871960,551.170654 93.954605,541.388733 124.172722,532.048401 
	C135.466888,528.557434 146.808014,525.205566 158.198135,522.043945 
	C162.804794,520.765259 164.705261,518.707214 164.080734,513.527588 
	C163.030792,504.819550 167.113037,497.994995 174.108002,493.056152 
	C177.384247,490.742920 178.309006,488.833221 176.161285,484.919098 
	C173.154800,479.439941 175.509338,475.212555 182.493896,472.272919 
	C201.527618,464.261993 220.381775,455.752411 239.739349,448.612366 
	C249.924683,444.855530 256.067780,440.117126 253.996033,428.410492 
	C253.576019,426.037048 254.255020,423.435303 254.615189,420.966248 
	C255.049179,417.991089 253.153671,414.023315 256.747711,412.312286 
	C261.571259,410.015930 266.881683,408.951385 272.293579,409.821442 
	C274.051544,410.104065 274.731293,411.957550 275.487518,413.445068 
	C277.526093,417.455139 279.688171,421.409882 281.543610,425.503357 
	C283.164856,429.080170 285.268158,429.832336 289.003632,428.367981 
	C306.058777,421.682373 323.198059,415.210571 340.326996,408.714325 
	C349.979675,405.053497 359.674896,401.505005 369.340637,397.878265 
	C370.851593,397.311310 372.625793,397.080811 373.689240,394.487274 
	C366.562927,391.201874 367.630554,385.250824 369.015259,378.892944 
	C370.552338,371.835236 374.234100,367.496613 381.379822,365.509155 
	C397.094116,361.138611 412.684357,356.321838 428.323608,351.681732 
	C430.206177,351.123138 432.078491,350.530151 433.825653,349.993042 
	C433.606110,339.404572 437.185394,334.440308 446.994537,331.343719 
	C448.948303,330.726929 450.778137,330.113007 451.415375,327.806519 
	C454.035278,318.323822 457.750702,309.244812 462.154510,300.481110 
	C464.418549,295.975555 464.490509,293.053589 459.106323,290.931305 
	C455.133057,289.365143 454.580872,285.969116 456.644867,282.209900 
	C465.140503,266.736847 472.717896,250.754883 482.381622,235.929062 
	C485.712372,230.819122 489.809570,227.272171 496.300995,226.536987 
	C500.940491,226.011536 504.644043,222.535919 508.988983,220.863403 
	C509.284882,220.749496 509.701355,220.495789 509.746674,220.249191 
	C511.434204,211.067871 519.701843,212.669083 525.666321,210.520065 
	C528.413879,209.530106 531.536377,209.555420 534.495789,207.305923 
	C531.099548,204.322357 527.192871,204.749222 523.606079,204.373718 
	C516.493164,203.629059 509.320526,203.365479 502.244263,202.385406 
	C495.723877,201.482330 493.767334,197.967255 495.790009,191.737259 
	C501.804626,173.211807 507.865021,154.701126 513.964966,136.203598 
	C514.878418,133.433777 516.039612,130.857361 512.560974,128.904266 
	C511.395691,128.250000 510.853210,126.794060 510.847260,125.430473 
	C510.827606,120.937637 510.727692,116.429634 511.056793,111.956749 
	C511.247925,109.359108 512.768188,107.038727 515.466125,106.429131 
	C519.258362,105.572289 520.401611,102.994247 520.887634,99.645569 
	C523.683350,80.384224 534.370239,67.525810 552.462097,60.578323 
	C557.781860,58.535473 563.225952,57.024158 568.824951,56.163815 
	C587.277222,53.328403 605.307251,54.144260 622.522888,62.390266 
	C632.921265,67.370926 640.427185,75.451042 643.323486,86.165459 
	C651.320435,115.749001 666.878784,141.912704 679.412048,169.443405 
	C680.308960,171.413513 681.343445,173.320618 682.293396,175.267014 
	C685.577087,181.994751 684.007263,185.583969 676.732605,187.168228 
	C669.417603,188.761276 662.019470,189.968735 654.677673,191.444473 
	C652.010864,191.980515 649.091125,191.950409 646.597351,194.153046 
	C648.824707,196.669800 651.683167,196.190018 654.115723,196.504028 
	C659.393311,197.185287 664.757019,197.223007 670.022949,197.966629 
	C680.845154,199.494888 690.045410,204.717148 698.158813,211.714859 
	C708.284363,220.448090 716.759766,230.794800 725.310120,241.020676 
	C729.287476,245.777435 729.012146,247.089859 724.396301,251.428696 
	C717.896729,257.538300 717.926758,257.526154 721.219543,265.689575 
	C724.707520,274.336731 728.297729,282.948761 731.505981,291.699799 
	C732.942322,295.617706 735.114014,296.925690 739.273621,296.824799 
	C750.932556,296.542023 762.603333,296.676666 774.268738,296.750549 
	C783.824768,296.811035 786.820068,299.535583 787.272034,309.078278 
	C787.463196,313.113617 789.419617,313.208191 792.495911,312.701599 
	C803.333740,310.916809 814.172913,309.120178 825.049011,307.594971 
	C832.570312,306.540283 838.023438,310.477112 839.867737,317.768799 
	C841.595215,324.598206 837.939758,332.140106 831.097595,334.218689 
	C822.187683,336.925446 813.068237,338.945160 804.030762,341.228394 
	C797.707458,342.825958 797.512085,343.117249 799.379822,349.351105 
	C800.048157,351.581818 800.421692,353.999878 801.558411,355.969666 
	C803.621948,359.545593 806.699707,361.404083 811.159424,360.412323 
	C818.470093,358.786621 825.811218,357.276093 833.180115,355.941101 
	C839.110657,354.866699 844.572205,355.800323 848.270203,361.194855 
	C851.654480,366.131714 852.223938,371.324493 849.179016,376.713257 
	C847.143616,380.315430 843.903992,382.190155 840.072632,383.175537 
	C830.399780,385.663330 820.727966,388.160400 811.017334,390.493805 
	C807.056030,391.445648 804.847229,393.334381 805.268799,397.737823 
	C805.672546,401.955200 803.483521,405.802979 803.010437,409.924835 
	C805.051636,411.517792 806.937683,410.239410 808.770813,409.841858 
	C814.789734,408.536407 820.778015,407.090179 826.788940,405.746796 
	C835.434631,403.814606 840.937378,406.309265 843.464111,413.251190 
	C846.206299,420.785339 843.313477,427.410675 835.208740,431.452393 
z"/>
<path fill="#000000" opacity="1.000000" stroke="none" 
	d="
M424.343750,637.549622 
	C424.120880,642.438354 427.131744,642.832275 430.337708,642.508240 
	C436.503082,641.885193 442.632843,642.177490 448.794586,642.527649 
	C451.977722,642.708496 453.249847,643.875244 453.183777,647.069214 
	C453.049408,653.563843 453.053802,660.064514 453.171875,666.559692 
	C453.232971,669.919861 452.019958,671.403076 448.490051,671.281982 
	C442.332336,671.070679 436.158722,671.317322 430.001526,671.097961 
	C426.186920,670.962097 424.419556,672.473999 424.422607,676.266785 
	C424.433411,689.760986 424.207001,703.259277 424.477142,716.747803 
	C424.618073,723.784790 428.487335,727.255859 435.528534,727.799866 
	C440.198700,728.160645 444.802826,727.673401 449.159851,726.395264 
	C450.759979,727.632019 450.701355,729.225403 450.623749,730.664246 
	C450.174530,738.993225 450.175507,747.316711 450.908356,755.623718 
	C451.230042,759.270081 449.864288,760.932800 446.171326,761.752563 
	C432.581512,764.768982 418.970978,766.488220 405.067871,764.346313 
	C383.948273,761.092590 372.137146,748.015015 371.851837,726.630737 
	C371.554077,704.310425 371.773468,681.983215 371.760681,659.659058 
	C371.756683,652.685425 371.481750,652.384338 364.412476,652.373169 
	C351.417755,652.352661 338.423004,652.378052 325.428253,652.393066 
	C324.262970,652.394470 323.079712,652.343018 321.936249,652.519653 
	C319.491241,652.897461 316.730835,652.952820 315.542694,655.659241 
	C314.262115,658.576416 315.964081,660.861633 317.808258,662.822754 
	C326.473969,672.037964 335.941040,680.503235 343.644073,690.618042 
	C356.328247,707.273499 354.557587,731.096069 339.391541,744.531067 
	C329.068481,753.675964 316.330872,756.180359 303.110748,756.239563 
	C265.960022,756.405884 228.807907,756.264771 191.656326,756.247070 
	C188.657578,756.245667 185.652374,756.140381 182.661774,756.300354 
	C179.186584,756.486267 177.887802,754.857178 177.886536,751.546082 
	C177.881943,739.385010 177.914200,727.221313 177.666718,715.064087 
	C177.570801,710.352661 180.482101,710.655945 183.582138,710.658997 
	C214.402924,710.689087 245.223785,710.731812 276.044464,710.677917 
	C280.053925,710.670898 285.173248,712.163269 287.221863,707.392944 
	C289.379120,702.369385 284.481293,699.753296 281.692535,696.665466 
	C275.888794,690.239502 269.775269,684.085510 264.125977,677.529419 
	C250.465668,661.676331 248.957413,640.508545 260.290680,626.051331 
	C268.491333,615.590210 279.870758,610.953918 292.526672,608.764648 
	C298.455719,607.738892 304.442352,607.656555 310.445282,607.662903 
	C346.097473,607.700562 381.749756,607.683105 417.402008,607.686279 
	C424.856903,607.686951 425.133698,608.034485 424.879913,615.636780 
	C424.641083,622.791443 424.515961,629.949829 424.343750,637.549622 
z"/>
<path fill="#000000" opacity="1.000000" stroke="none" 
	d="
M515.410034,673.289307 
	C512.049561,675.167725 509.777039,677.595886 508.802734,680.932556 
	C507.981293,683.745850 506.185425,684.352295 503.553925,684.335205 
	C490.388489,684.249573 477.221344,684.184143 464.057007,684.321411 
	C460.054047,684.363098 458.992340,682.675293 459.894562,679.128601 
	C463.171143,666.248291 470.021759,656.042664 482.012451,649.720703 
	C493.584259,643.619690 506.106140,641.125977 519.001404,640.276306 
	C536.867798,639.099060 554.726562,639.312622 571.969788,644.684448 
	C592.607117,651.113586 600.207947,661.930603 600.230774,683.429749 
	C600.252014,703.428467 600.156006,723.427307 600.166077,743.426086 
	C600.168518,748.241760 599.765930,753.140198 601.550720,757.765381 
	C603.120422,761.833496 601.063110,762.876282 597.577026,762.884338 
	C587.077637,762.908569 576.578308,762.927673 566.078918,762.927795 
	C562.912964,762.927856 559.745728,762.785767 556.581360,762.840820 
	C552.484741,762.912048 550.350830,761.364380 550.752808,756.901062 
	C550.921753,755.024963 551.290833,752.891357 549.802490,751.212097 
	C547.553162,750.645569 546.446960,752.457214 544.983032,753.398499 
	C523.605469,767.144043 500.622559,770.058167 476.594727,762.485291 
	C450.084076,754.129944 449.531311,718.135010 464.292938,706.308472 
	C471.066620,700.881592 478.929749,697.861145 487.237061,695.701904 
	C504.512909,691.211548 522.263489,689.304443 539.736328,685.894714 
	C540.390503,685.767029 541.061523,685.700012 541.698730,685.515198 
	C545.224487,684.492310 549.426758,683.807800 549.325012,679.032043 
	C549.226318,674.399902 545.828186,671.813904 541.651123,670.977295 
	C532.865784,669.217834 524.110229,669.222046 515.410034,673.289307 
M534.464111,712.192871 
	C526.860229,713.941040 519.016663,714.871460 512.001343,718.646118 
	C508.284088,720.646179 506.265015,723.884583 506.576141,728.034790 
	C506.891327,732.238953 509.605774,734.945862 513.491577,736.417969 
	C529.977051,742.663757 548.739075,730.442383 549.556030,713.015381 
	C549.706543,709.804565 548.353455,708.638489 545.400818,709.321716 
	C542.000488,710.108582 538.650940,711.115417 534.464111,712.192871 
z"/>
<path fill="#000000" opacity="1.000000" stroke="none" 
	d="
M267.000000,763.064941 
	C291.157196,763.052856 314.814362,763.036499 338.471558,763.040649 
	C345.269684,763.041809 345.313477,763.094299 345.317810,770.115906 
	C345.323944,780.111450 345.316467,790.107117 345.279938,800.102600 
	C345.256226,806.595215 344.936920,806.909973 338.562073,806.927002 
	C324.234772,806.965393 309.907410,806.985474 295.580078,807.008301 
	C289.458649,807.018005 289.130096,807.312256 289.128845,813.520935 
	C289.121857,848.006958 289.138611,882.493042 289.130219,916.979065 
	C289.128235,925.136963 289.098267,925.098694 281.198303,925.083313 
	C267.870544,925.057495 254.542709,925.082703 241.214905,925.092041 
	C232.825165,925.097900 232.811996,925.102478 232.822464,916.911133 
	C232.865906,882.924866 232.918320,848.938599 232.966629,814.952332 
	C232.978088,806.892700 232.946503,806.875488 224.969513,806.897766 
	C211.475357,806.935425 197.981171,806.957947 184.486984,806.979919 
	C178.315567,806.989929 177.840729,806.573181 177.846542,800.584656 
	C177.856567,790.255615 177.910385,779.926453 177.993149,769.597656 
	C178.042114,763.484619 178.450439,763.057251 184.532639,763.053833 
	C211.855087,763.038513 239.177551,763.060120 267.000000,763.064941 
z"/>
<path fill="#000000" opacity="1.000000" stroke="none" 
	d="
M561.292847,916.358398 
	C548.427246,925.920654 533.920898,927.757996 518.826843,927.498779 
	C507.886902,927.310852 497.661743,925.008728 488.995544,917.927551 
	C480.459015,910.952148 476.066681,901.450806 475.872253,890.842834 
	C475.356354,862.698669 475.708466,834.539062 475.629669,806.385803 
	C475.621277,803.383240 476.810638,802.130432 479.722931,802.129761 
	C494.387695,802.126404 509.052490,802.097046 523.717224,802.049805 
	C526.859253,802.039673 528.159485,803.479675 528.117737,806.654541 
	C527.868103,825.645630 528.500061,844.644653 527.534668,863.630859 
	C527.289734,868.448486 527.085815,873.268677 528.121887,878.067139 
	C529.721741,885.476013 534.673157,890.051270 542.189087,890.799683 
	C558.382507,892.412109 567.593689,884.387695 567.812622,867.917908 
	C568.071838,848.423462 567.934387,828.923889 567.969360,809.426514 
	C567.982239,802.225647 568.163391,801.998413 575.137146,801.996948 
	C587.802490,801.994385 600.467957,802.018005 613.133118,802.083496 
	C619.621582,802.117004 619.995178,802.472900 619.964844,808.847412 
	C619.788879,845.837830 619.536926,882.827942 619.446350,919.818542 
	C619.437439,923.451416 618.278259,924.958557 614.619263,924.943176 
	C601.288147,924.887085 587.956238,924.934082 574.625183,925.023499 
	C570.987732,925.047974 569.526733,923.416992 569.702393,919.834717 
	C569.865051,916.519714 569.737000,913.190369 569.737000,908.996887 
	C566.637939,911.707642 564.104553,913.923584 561.292847,916.358398 
z"/>
<path fill="#000000" opacity="1.000000" stroke="none" 
	d="
M422.757172,802.008545 
	C441.931641,806.520752 455.895935,816.781921 464.278778,834.584412 
	C482.552765,873.392700 459.507874,918.113586 417.430267,925.364014 
	C400.159149,928.340027 382.957275,928.239868 365.808411,925.041138 
	C332.951233,918.912476 312.860840,890.985168 316.387329,857.631287 
	C318.540924,837.262268 326.978394,821.048401 344.797729,810.393311 
	C356.889160,803.163269 370.196228,799.640381 384.193085,798.885254 
	C397.028503,798.192871 409.829376,798.495056 422.757172,802.008545 
M380.811371,890.804443 
	C397.335266,898.359802 412.281372,890.882202 415.984344,873.208496 
	C417.364868,866.619507 417.206757,859.945007 416.357819,853.368530 
	C415.213684,844.505310 410.871674,837.538574 401.922791,834.809937 
	C392.685394,831.993286 383.637329,832.685120 376.230774,839.583923 
	C364.888672,850.148438 365.629791,878.304260 377.279114,888.502869 
	C378.147095,889.262756 379.177612,889.836975 380.811371,890.804443 
z"/>
<path fill="#000000" opacity="1.000000" stroke="none" 
	d="
M859.996765,837.287476 
	C850.003540,837.287964 840.508667,837.223389 831.015686,837.326538 
	C828.013855,837.359192 826.080383,836.743286 825.171936,833.386414 
	C824.130310,829.537659 820.799194,827.627991 817.166321,826.515259 
	C810.659058,824.522156 803.983093,824.667725 797.377502,825.692810 
	C794.079834,826.204590 790.661011,827.472046 790.299683,831.615845 
	C789.924500,835.919067 793.343628,837.222412 796.499390,838.324829 
	C805.653320,841.522827 815.267456,842.769775 824.710571,844.746887 
	C836.920349,847.303101 849.185486,849.558533 860.783875,854.517273 
	C873.832275,860.095825 881.504333,869.481873 881.993469,883.811523 
	C882.483765,898.176147 877.085449,909.812866 864.384338,917.382751 
	C854.265869,923.413391 842.957581,925.679077 831.475525,926.604797 
	C810.839050,928.268616 790.171753,928.393005 769.942200,923.122559 
	C755.271729,919.300415 742.567261,912.481934 736.416687,897.383667 
	C734.861389,893.565613 733.246033,889.726196 733.829224,885.537842 
	C735.475342,884.235046 737.206665,884.648193 738.817078,884.647644 
	C753.141479,884.642944 767.466309,884.757263 781.790100,884.678833 
	C785.141052,884.660461 787.493835,885.213501 788.454712,888.996887 
	C789.315979,892.388000 791.835022,894.735107 795.154602,895.925354 
	C803.811218,899.029053 812.679993,899.789062 821.658936,897.653381 
	C825.197754,896.811646 828.433777,895.039124 828.553711,890.829529 
	C828.668335,886.804382 825.566101,885.037781 822.299622,883.984497 
	C812.293945,880.758057 801.820923,879.622009 791.591858,877.378967 
	C779.890686,874.813110 768.074219,872.656738 757.163269,867.424988 
	C745.459351,861.812866 738.396240,852.911499 737.608582,839.548462 
	C736.746094,824.916992 743.439941,814.753601 755.861694,807.762939 
	C765.991150,802.062317 777.185669,800.284302 788.445740,799.123291 
	C807.450623,797.163757 826.375000,798.012573 844.939819,802.823853 
	C860.449219,806.843201 872.105652,815.110901 875.745361,831.949341 
	C876.636658,836.072754 875.588257,837.538330 871.487732,837.355652 
	C867.830017,837.192810 864.160278,837.299561 859.996765,837.287476 
z"/>
<path fill="#000000" opacity="1.000000" stroke="none" 
	d="
M705.064941,802.823486 
	C712.937012,800.052612 720.697021,799.524475 728.571960,799.690918 
	C731.506531,799.752991 732.894958,801.067444 732.902344,803.907288 
	C732.933350,815.896179 732.929199,827.885010 732.962891,839.873901 
	C732.970642,842.635742 731.756836,843.547546 728.945251,843.485168 
	C722.471680,843.341492 715.970154,842.755005 709.520508,843.983948 
	C689.596985,847.780273 680.831116,857.940430 680.424866,878.308044 
	C680.162659,891.458191 680.342896,904.617004 680.316956,917.771973 
	C680.302673,925.019531 680.295288,925.044250 673.248962,925.049927 
	C660.427002,925.060303 647.605103,925.046082 634.783142,925.026123 
	C628.382874,925.016174 627.845764,924.605469 627.891602,918.268311 
	C628.067322,893.974243 628.449402,869.681274 628.524963,845.387146 
	C628.563782,832.906860 628.208740,820.422485 627.841003,807.945557 
	C627.716858,803.732361 629.149719,801.910339 633.556702,801.967651 
	C647.042542,802.143005 660.533264,802.163147 674.019226,802.004272 
	C678.856323,801.947266 680.450256,803.916809 680.167297,808.606445 
	C679.931030,812.522583 679.427734,816.540466 680.892273,821.845581 
	C687.988037,813.644836 694.828064,806.220825 705.064941,802.823486 
z"/>
<path fill="#000000" opacity="1.000000" stroke="none" 
	d="
M662.751465,710.877930 
	C661.818237,726.271606 662.281738,741.261169 662.403015,756.240906 
	C662.441650,761.009827 661.052002,762.422913 656.214478,762.534973 
	C643.069336,762.839478 629.925232,761.814880 616.778564,762.806152 
	C610.583435,763.273376 609.949646,762.380554 609.939087,756.093567 
	C609.879761,720.617432 609.831055,685.141296 609.805481,649.665161 
	C609.800415,642.639832 609.854492,642.620239 617.075806,642.612732 
	C629.401245,642.599976 641.726685,642.611633 654.052124,642.618408 
	C662.300537,642.622925 662.187256,642.628784 662.306946,650.690796 
	C662.361694,654.379333 661.400879,658.212585 663.423889,662.653442 
	C668.851135,655.768677 674.534119,650.082336 681.861267,646.173767 
	C691.525391,641.018616 701.809204,640.181946 712.422119,640.778748 
	C715.038086,640.925781 715.856201,642.556152 715.832275,644.787354 
	C715.696777,657.439819 715.488586,670.091553 715.355042,682.744080 
	C715.323669,685.725159 713.605591,685.738159 711.333496,685.482788 
	C705.058167,684.777466 698.834106,684.346558 692.443237,685.028687 
	C675.381226,686.849915 666.962036,693.823059 662.751465,710.877930 
z"/>
</svg>