<?xml version="1.0" encoding="iso-8859-1"?>
<!-- Generator: Adobe Illustrator 26.0.1, SVG Export Plug-In . SVG Version: 6.00 Build 0)  -->
<svg version="1.1" id="Layer_1" xmlns="http://www.w3.org/2000/svg" xmlns:xlink="http://www.w3.org/1999/xlink" x="0px" y="0px"
	 viewBox="0 0 500 500" style="enable-background:new 0 0 500 500;" xml:space="preserve">
<g id="watermark_1_">
	<g>
		<g id="watermark" style="opacity:0.61;">
			<g>
				<g>
					<g>
						<g>
							<polygon style="fill:#FFFFFF;" points="213.765,461.172 208.204,474.017 205.268,474.017 199.726,461.172 202.938,461.172 
								206.846,470.347 210.81,461.172 							"/>
						</g>
						<g>
							<path style="fill:#FFFFFF;" d="M223.507,469.741h-7.469c0.275,1.23,1.321,1.982,2.826,1.982c1.046,0,1.798-0.312,2.477-0.954
								l1.523,1.651c-0.917,1.046-2.294,1.597-4.074,1.597c-3.413,0-5.634-2.147-5.634-5.083c0-2.954,2.257-5.083,5.267-5.083
								c2.899,0,5.138,1.945,5.138,5.12C223.562,469.191,223.526,469.503,223.507,469.741 M216.002,468.071h4.863
								c-0.202-1.248-1.138-2.055-2.422-2.055C217.139,466.016,216.204,466.805,216.002,468.071"/>
						</g>
						<g>
							<path style="fill:#FFFFFF;" d="M224.735,468.934c0-2.973,2.294-5.083,5.505-5.083c2.074,0,3.707,0.899,4.423,2.514
								l-2.22,1.193c-0.532-0.936-1.321-1.358-2.221-1.358c-1.45,0-2.587,1.009-2.587,2.734c0,1.725,1.138,2.734,2.587,2.734
								c0.899,0,1.688-0.404,2.221-1.358l2.22,1.211c-0.716,1.578-2.349,2.495-4.423,2.495
								C227.029,474.017,224.735,471.907,224.735,468.934"/>
						</g>
						<g>
							<path style="fill:#FFFFFF;" d="M242.828,473.393c-0.587,0.422-1.45,0.624-2.331,0.624c-2.33,0-3.688-1.193-3.688-3.542
								v-4.055h-1.523v-2.202h1.523v-2.404h2.863v2.404h2.459v2.202h-2.459v4.019c0,0.844,0.458,1.303,1.229,1.303
								c0.422,0,0.844-0.128,1.156-0.367L242.828,473.393z"/>
						</g>
					</g>
					<g>
						<path style="fill:#FFFFFF;" d="M262.474,463.997v2.643c-0.238-0.018-0.422-0.037-0.642-0.037
							c-1.578,0-2.624,0.862-2.624,2.753v4.661h-2.863v-9.873h2.734v1.303C259.776,464.493,260.951,463.997,262.474,463.997"/>
					</g>
					<g>
						<path style="fill:#FFFFFF;" d="M263.299,472.53l1.009-2.239c1.083,0.789,2.697,1.339,4.239,1.339
							c1.762,0,2.477-0.587,2.477-1.376c0-2.404-7.469-0.752-7.469-5.524c0-2.184,1.762-4,5.413-4c1.615,0,3.267,0.385,4.459,1.138
							l-0.918,2.257c-1.193-0.679-2.422-1.009-3.56-1.009c-1.761,0-2.44,0.66-2.44,1.468c0,2.367,7.468,0.734,7.468,5.45
							c0,2.147-1.78,3.982-5.45,3.982C266.492,474.017,264.437,473.411,263.299,472.53"/>
					</g>
					<g>
						<path style="fill:#FFFFFF;" d="M285.428,469.741h-7.469c0.275,1.23,1.321,1.982,2.826,1.982c1.046,0,1.798-0.312,2.477-0.954
							l1.523,1.651c-0.918,1.046-2.294,1.597-4.074,1.597c-3.413,0-5.634-2.147-5.634-5.083c0-2.954,2.257-5.083,5.267-5.083
							c2.9,0,5.138,1.945,5.138,5.12C285.484,469.191,285.447,469.503,285.428,469.741 M277.923,468.071h4.863
							c-0.202-1.248-1.138-2.055-2.422-2.055C279.061,466.016,278.125,466.805,277.923,468.071"/>
					</g>
					<g>
						<path style="fill:#FFFFFF;" d="M297.007,469.741h-7.469c0.275,1.23,1.321,1.982,2.826,1.982c1.046,0,1.798-0.312,2.477-0.954
							l1.523,1.651c-0.918,1.046-2.294,1.597-4.074,1.597c-3.413,0-5.634-2.147-5.634-5.083c0-2.954,2.257-5.083,5.267-5.083
							c2.899,0,5.138,1.945,5.138,5.12C297.062,469.191,297.025,469.503,297.007,469.741 M289.501,468.071h4.863
							c-0.202-1.248-1.138-2.055-2.422-2.055C290.639,466.016,289.703,466.805,289.501,468.071"/>
					</g>
					<g>
						<polygon style="fill:#FFFFFF;" points="303.208,470.145 301.831,471.503 301.831,474.017 298.969,474.017 298.969,460.401 
							301.831,460.401 301.831,468.108 306.016,464.144 309.429,464.144 305.318,468.328 309.796,474.017 306.327,474.017 						"/>
					</g>
					<g>
						<path style="fill:#FFFFFF;" d="M256.601,475.359L256.601,475.359l-2.86-2.86c-0.435,0.508-0.953,0.943-1.534,1.284
							c-0.092,0.069-0.186,0.136-0.283,0.199l3.027,3.027c0.456,0.456,1.195,0.456,1.65,0
							C257.057,476.554,257.057,475.815,256.601,475.359"/>
					</g>
					<g>
						<path style="fill:#FFFFFF;" d="M249.984,463.244c0.221-0.173,0.495-0.281,0.797-0.281c0.042,0,0.083,0.002,0.124,0.006
							c-0.214-0.156-0.478-0.249-0.764-0.249c-0.395,0-0.744,0.18-0.981,0.458c-0.051,0-0.1,0.006-0.151,0.008
							c0.039-0.077,0.064-0.162,0.064-0.255c0-0.234-0.143-0.434-0.346-0.519c0.087,0.126,0.138,0.279,0.138,0.445
							c0,0.122-0.031,0.237-0.081,0.341c-2.811,0.201-5.03,2.539-5.03,5.4c0,2.993,2.426,5.42,5.42,5.42
							c2.993,0,5.42-2.426,5.42-5.42C254.595,465.879,252.593,463.635,249.984,463.244 M247.983,464.656
							c0.435,0,0.844,0.112,1.199,0.309c0.374-0.245,0.82-0.387,1.299-0.387c0.711,0,1.348,0.312,1.784,0.806
							c-0.435-0.379-1.004-0.61-1.627-0.61c-0.449,0-0.87,0.12-1.234,0.329c-0.079,0.046-0.156,0.096-0.229,0.15
							c-0.065-0.048-0.133-0.093-0.204-0.134c-0.369-0.219-0.8-0.344-1.26-0.344c-0.3,0-0.588,0.054-0.854,0.152
							C247.196,464.754,247.578,464.656,247.983,464.656 M251.772,469.098c0.115,0.305,0.181,0.634,0.181,0.979
							c0,1.534-1.244,2.777-2.778,2.777c-1.534,0-2.777-1.243-2.777-2.777c0-0.345,0.066-0.674,0.181-0.979
							c-0.62-0.382-1.035-1.064-1.035-1.846c0-1.197,0.971-2.168,2.168-2.168c0.565,0,1.078,0.218,1.463,0.572
							c0.386-0.354,0.899-0.572,1.464-0.572c1.197,0,2.168,0.971,2.168,2.168C252.807,468.034,252.392,468.716,251.772,469.098"/>
					</g>
					<g>
						<path style="fill:#FFFFFF;" d="M251.666,467.061c0,0.497-0.404,0.901-0.901,0.901c-0.497,0-0.901-0.404-0.901-0.901
							s0.404-0.901,0.901-0.901c0.101,0,0.197,0.017,0.287,0.047c-0.03,0.062-0.045,0.132-0.045,0.204
							c0,0.273,0.221,0.494,0.494,0.494c0.05,0,0.099-0.008,0.146-0.022C251.66,466.941,251.666,467,251.666,467.061"/>
					</g>
					<g>
						<path style="fill:#FFFFFF;" d="M248.255,467.061c0,0.376-0.305,0.681-0.681,0.681c-0.376,0-0.681-0.305-0.681-0.681
							s0.305-0.681,0.681-0.681c0.076,0,0.149,0.013,0.217,0.035c-0.023,0.047-0.034,0.1-0.034,0.155
							c0,0.206,0.167,0.374,0.374,0.374c0.038,0,0.075-0.006,0.11-0.017C248.25,466.97,248.255,467.015,248.255,467.061"/>
					</g>
					<g>
						<g>
							<g>
								<rect x="242.908" y="467.83" style="fill:#FFFFFF;" width="0.616" height="0.616"/>
							</g>
							<g>
								<rect x="254.827" y="467.83" style="fill:#FFFFFF;" width="0.616" height="0.616"/>
							</g>
							<g>
								<path style="fill:#FFFFFF;" d="M255.205,468.082h-0.14c0-3.248-2.642-5.89-5.89-5.89c-3.248,0-5.89,2.642-5.89,5.89h-0.14
									c0-1.611,0.627-3.125,1.766-4.264c1.139-1.139,2.653-1.766,4.264-1.766c1.611,0,3.125,0.627,4.264,1.766
									C254.578,464.957,255.205,466.471,255.205,468.082"/>
							</g>
						</g>
						<g>
							<rect x="248.868" y="461.814" style="fill:#FFFFFF;" width="0.616" height="0.616"/>
						</g>
						<g>
							<rect x="244.95" y="462.052" style="fill:#FFFFFF;" width="8.45" height="0.14"/>
						</g>
						<g>
							<path style="fill:#FFFFFF;" d="M245.174,462.15c0,0.108-0.088,0.196-0.196,0.196c-0.108,0-0.196-0.088-0.196-0.196
								c0-0.108,0.088-0.196,0.196-0.196C245.086,461.954,245.174,462.042,245.174,462.15"/>
						</g>
						<g>
							<path style="fill:#FFFFFF;" d="M253.596,462.15c0,0.108-0.088,0.196-0.196,0.196c-0.108,0-0.196-0.088-0.196-0.196
								c0-0.108,0.088-0.196,0.196-0.196C253.509,461.954,253.596,462.042,253.596,462.15"/>
						</g>
					</g>
				</g>
				<g>
					<path style="fill:#FFFFFF;" d="M314.356,473.409c0,1.559-2.364,1.559-2.364,0C311.993,471.851,314.356,471.851,314.356,473.409
						z"/>
				</g>
				<g>
					<g>
						<g>
							<path style="fill:#FFFFFF;" d="M161.739,466.549l1.772,6.088l1.855-6.088h2.215l-2.823,8.14h-2.33l-0.837-2.396l-0.722-2.708
								l-0.722,2.708l-0.837,2.396h-2.33l-2.839-8.14h2.231l1.855,6.088l1.756-6.088H161.739z"/>
						</g>
						<g>
							<path style="fill:#FFFFFF;" d="M176.713,466.549l1.772,6.088l1.855-6.088h2.215l-2.823,8.14h-2.33l-0.837-2.396l-0.722-2.708
								l-0.722,2.708l-0.837,2.396h-2.33l-2.839-8.14h2.231l1.855,6.088l1.756-6.088H176.713z"/>
						</g>
						<g>
							<path style="fill:#FFFFFF;" d="M191.687,466.549l1.772,6.088l1.855-6.088h2.215l-2.823,8.14h-2.33l-0.837-2.396l-0.722-2.708
								l-0.722,2.708l-0.837,2.396h-2.33l-2.839-8.14h2.231l1.855,6.088l1.756-6.088H191.687z"/>
						</g>
					</g>
					<g>
						<path style="fill:#FFFFFF;" d="M200.908,473.52c0,1.559-2.364,1.559-2.364,0C198.545,471.962,200.908,471.962,200.908,473.52z
							"/>
					</g>
					<g>
						<path style="fill:#FFFFFF;" d="M322.71,473.409c-0.935,0.919-1.919,1.28-3.117,1.28c-2.346,0-4.3-1.411-4.3-4.282
							s1.953-4.284,4.3-4.284c1.149,0,2.035,0.329,2.921,1.199l-1.264,1.329c-0.476-0.428-1.066-0.64-1.623-0.64
							c-1.346,0-2.33,0.985-2.33,2.396c0,1.542,1.05,2.362,2.297,2.362c0.64,0,1.28-0.18,1.772-0.672L322.71,473.409z"/>
					</g>
					<g>
						<path style="fill:#FFFFFF;" d="M331.805,470.472c0,2.33-1.591,4.217-4.217,4.217c-2.626,0-4.201-1.887-4.201-4.217
							c0-2.314,1.609-4.217,4.185-4.217C330.149,466.255,331.805,468.158,331.805,470.472z M325.389,470.472
							c0,1.231,0.739,2.38,2.199,2.38c1.46,0,2.199-1.149,2.199-2.38c0-1.215-0.854-2.396-2.199-2.396
							C326.144,468.077,325.389,469.258,325.389,470.472z"/>
					</g>
					<g>
						<path style="fill:#FFFFFF;" d="M338.572,474.689v-4.332c0-1.068-0.559-2.035-1.658-2.035c-1.082,0-1.722,0.967-1.722,2.035
							v4.332h-2.003v-8.107h1.855l0.148,0.985c0.426-0.82,1.362-1.116,2.133-1.116c0.969,0,1.937,0.394,2.396,1.51
							c0.723-1.149,1.658-1.478,2.708-1.478c2.297,0,3.43,1.412,3.43,3.84v4.365h-2.003v-4.365c0-1.066-0.442-1.97-1.526-1.97
							c-1.082,0-1.756,0.935-1.756,2.003v4.332H338.572z"/>
					</g>
				</g>
			</g>
		</g>
		<g style="opacity:0.61;">
			<g>
				<g>
					<path style="fill:#FFFFFF;" d="M345.988,431.299c-0.006-1.224-0.959-2.121-2.189-2.14c-0.924-0.014-0.832,0.12-0.834-0.867
						c-0.003-1.097-0.007-2.194,0.003-3.292c0.003-0.379-0.112-0.691-0.362-0.976c-2.342-2.668-4.678-5.342-7.019-8.011
						c-0.12-0.137-0.275-0.244-0.414-0.366c-6.214,0-12.427,0-18.641,0c-0.794,0.293-1.14,0.868-1.138,1.709
						c0.01,3.748,0.004,7.496,0.004,11.243c0,0.556-0.003,0.589-0.55,0.551c-1.497-0.102-2.516,0.986-2.497,2.492
						c0.044,3.476,0.013,6.953,0.014,10.429c0.001,1.58,0.867,2.443,2.45,2.449c0.582,0.002,0.582,0.002,0.582,0.6
						c0,2.219-0.001,4.438,0.001,6.657c0.001,1.192,0.58,1.771,1.768,1.771c8.013,0.001,16.027,0.001,24.04,0
						c1.168,0,1.755-0.583,1.757-1.745c0.002-2.256,0-4.512,0.001-6.768c0-0.512,0.002-0.511,0.52-0.515
						c0.271-0.002,0.541,0.008,0.809-0.058c0.996-0.246,1.69-1.044,1.694-2.069C346.003,438.696,346.005,434.997,345.988,431.299z
						 M317.537,417.162c5.337,0,10.674,0,16.01,0c0.548,0,0.554,0.007,0.554,0.561c0.001,2.243-0.001,4.486,0.001,6.73
						c0.001,0.811,0.249,1.059,1.06,1.059c1.91,0.001,3.821,0,5.731,0.001c0.458,0,0.479,0.021,0.481,0.483
						c0.003,0.887,0.002,1.775,0,2.662c-0.001,0.477-0.024,0.498-0.504,0.499c-3.895,0.001-7.79,0-11.684,0
						c-3.882,0-7.765,0-11.647,0c-0.55,0-0.552-0.001-0.552-0.561c-0.001-3.624-0.001-7.247,0-10.871
						C316.987,417.166,316.991,417.162,317.537,417.162z M340.822,451.579c-3.883,0.001-7.766,0-11.65,0c-3.871,0-7.742,0-11.613,0
						c-0.572,0-0.574-0.002-0.574-0.579c-0.001-1.997-0.001-3.994,0.001-5.991c0-0.464,0.023-0.486,0.478-0.487
						c7.803-0.001,15.607-0.001,23.41,0c0.478,0,0.499,0.02,0.499,0.503c0.002,1.997,0.001,3.994,0,5.991
						C341.375,451.574,341.37,451.579,340.822,451.579z"/>
				</g>
				<g>
					<g>
						<rect x="327.418" y="417.053" style="fill:#FFFFFF;" width="1.757" height="1.054"/>
					</g>
					<g>
						<rect x="325.662" y="418.107" style="fill:#FFFFFF;" width="1.757" height="1.054"/>
					</g>
					<g>
						<rect x="327.418" y="419.161" style="fill:#FFFFFF;" width="1.757" height="1.054"/>
					</g>
					<g>
						<rect x="325.662" y="420.215" style="fill:#FFFFFF;" width="1.757" height="1.054"/>
					</g>
					<g>
						<rect x="327.418" y="421.269" style="fill:#FFFFFF;" width="1.757" height="1.054"/>
					</g>
					<g>
						<rect x="325.662" y="422.323" style="fill:#FFFFFF;" width="1.757" height="1.054"/>
					</g>
					<g>
						<rect x="327.418" y="423.378" style="fill:#FFFFFF;" width="1.757" height="1.054"/>
					</g>
					<g>
						<rect x="325.662" y="424.432" style="fill:#FFFFFF;" width="1.757" height="1.054"/>
					</g>
					<g>
						<rect x="327.418" y="425.486" style="fill:#FFFFFF;" width="1.757" height="1.054"/>
					</g>
					<g>
						<rect x="325.662" y="426.54" style="fill:#FFFFFF;" width="1.757" height="1.054"/>
					</g>
					<g>
						<rect x="327.418" y="427.594" style="fill:#FFFFFF;" width="1.757" height="1.054"/>
					</g>
					<g>
						<rect x="325.662" y="428.648" style="fill:#FFFFFF;" width="1.757" height="1.054"/>
					</g>
				</g>
			</g>
			<g>
				<path style="fill:#FFFFFF;" d="M187.637,431.299c-0.006-1.224-0.959-2.121-2.189-2.14c-0.924-0.014-0.832,0.12-0.834-0.867
					c-0.003-1.097-0.007-2.194,0.003-3.292c0.003-0.379-0.112-0.691-0.362-0.976c-2.342-2.668-4.678-5.342-7.019-8.011
					c-0.12-0.137-0.275-0.244-0.414-0.366c-6.214,0-12.427,0-18.641,0c-0.794,0.293-1.14,0.868-1.138,1.709
					c0.01,3.748,0.004,7.496,0.004,11.243c0,0.556-0.003,0.589-0.55,0.551c-1.497-0.102-2.516,0.986-2.497,2.492
					c0.044,3.476,0.013,6.953,0.014,10.429c0.001,1.58,0.867,2.443,2.45,2.449c0.582,0.002,0.582,0.002,0.582,0.6
					c0,2.219-0.001,4.438,0.001,6.657c0.001,1.192,0.58,1.771,1.768,1.771c8.013,0.001,16.027,0.001,24.04,0
					c1.168,0,1.755-0.583,1.757-1.745c0.002-2.256,0-4.512,0.001-6.768c0-0.512,0.002-0.511,0.52-0.515
					c0.271-0.002,0.541,0.008,0.809-0.058c0.996-0.246,1.69-1.044,1.694-2.069C187.652,438.696,187.655,434.997,187.637,431.299z
					 M159.187,417.162c5.337,0,10.674,0,16.01,0c0.548,0,0.554,0.007,0.554,0.561c0.001,2.243-0.001,4.486,0.001,6.73
					c0.001,0.811,0.249,1.059,1.06,1.059c1.91,0.001,3.821,0,5.731,0.001c0.458,0,0.479,0.021,0.481,0.483
					c0.003,0.887,0.002,1.775,0,2.662c-0.001,0.477-0.024,0.498-0.504,0.499c-3.895,0.001-7.79,0-11.684,0
					c-3.882,0-7.765,0-11.647,0c-0.55,0-0.552-0.001-0.552-0.561c-0.001-3.624-0.001-7.247,0-10.871
					C158.636,417.166,158.64,417.162,159.187,417.162z M182.472,451.579c-3.883,0.001-7.766,0-11.65,0c-3.871,0-7.742,0-11.613,0
					c-0.572,0-0.574-0.002-0.574-0.579c-0.001-1.997-0.001-3.994,0.001-5.991c0-0.464,0.023-0.486,0.478-0.487
					c7.803-0.001,15.607-0.001,23.41,0c0.478,0,0.499,0.02,0.499,0.503c0.002,1.997,0.001,3.994,0,5.991
					C183.024,451.574,183.019,451.579,182.472,451.579z"/>
			</g>
			<g>
				<path style="fill:#FFFFFF;" d="M159.779,440.669v-7.897h2.779c0.375,0,0.726,0.061,1.053,0.182
					c0.327,0.121,0.612,0.292,0.855,0.513c0.242,0.221,0.434,0.483,0.573,0.789c0.14,0.305,0.21,0.642,0.21,1.009
					c0,0.375-0.07,0.715-0.21,1.02c-0.14,0.305-0.331,0.568-0.573,0.789c-0.243,0.221-0.528,0.392-0.855,0.513
					c-0.327,0.121-0.678,0.182-1.053,0.182h-1.29v2.901H159.779z M162.58,436.356c0.39,0,0.684-0.111,0.882-0.331
					c0.199-0.22,0.298-0.474,0.298-0.761c0-0.14-0.024-0.276-0.072-0.408c-0.048-0.132-0.121-0.248-0.221-0.347
					c-0.099-0.099-0.223-0.178-0.37-0.237c-0.147-0.059-0.32-0.089-0.518-0.089h-1.312v2.173H162.58z"/>
				<path style="fill:#FFFFFF;" d="M166.308,432.771h1.731l3.177,5.294h0.088l-0.088-1.522v-3.772h1.478v7.897h-1.566l-3.353-5.592
					h-0.088l0.088,1.522v4.07h-1.467V432.771z"/>
				<path style="fill:#FFFFFF;" d="M177.922,436.334h3.872c0.022,0.089,0.04,0.195,0.055,0.32c0.014,0.125,0.022,0.25,0.022,0.375
					c0,0.507-0.077,0.985-0.231,1.434c-0.154,0.449-0.397,0.849-0.728,1.202c-0.353,0.375-0.776,0.666-1.268,0.871
					c-0.493,0.206-1.055,0.309-1.688,0.309c-0.574,0-1.114-0.103-1.622-0.309c-0.507-0.206-0.948-0.492-1.323-0.86
					c-0.375-0.367-0.673-0.803-0.894-1.307c-0.221-0.504-0.331-1.053-0.331-1.649c0-0.595,0.11-1.145,0.331-1.649
					c0.221-0.504,0.518-0.939,0.894-1.307c0.375-0.367,0.816-0.654,1.323-0.86c0.507-0.206,1.048-0.309,1.622-0.309
					c0.64,0,1.211,0.11,1.715,0.331c0.504,0.221,0.935,0.526,1.296,0.915l-1.025,1.004c-0.258-0.272-0.544-0.48-0.861-0.623
					c-0.316-0.143-0.695-0.215-1.136-0.215c-0.361,0-0.703,0.065-1.026,0.193c-0.324,0.129-0.607,0.311-0.85,0.546
					c-0.242,0.235-0.436,0.52-0.579,0.855c-0.143,0.335-0.215,0.708-0.215,1.119c0,0.412,0.072,0.785,0.215,1.12
					c0.143,0.335,0.338,0.62,0.584,0.855c0.246,0.235,0.531,0.418,0.855,0.546c0.323,0.129,0.669,0.193,1.037,0.193
					c0.419,0,0.773-0.061,1.064-0.182c0.29-0.121,0.538-0.278,0.744-0.469c0.148-0.132,0.275-0.3,0.381-0.502
					c0.106-0.202,0.189-0.428,0.248-0.678h-2.482V436.334z"/>
			</g>
			<g>
				<path style="fill:#FFFFFF;" d="M224.019,431.299c-0.006-1.224-0.959-2.121-2.189-2.14c-0.924-0.014-0.832,0.12-0.834-0.867
					c-0.003-1.097-0.007-2.194,0.003-3.292c0.003-0.379-0.112-0.691-0.362-0.976c-2.342-2.668-4.678-5.342-7.019-8.011
					c-0.12-0.137-0.275-0.244-0.414-0.366c-6.214,0-12.427,0-18.641,0c-0.794,0.293-1.14,0.868-1.138,1.709
					c0.01,3.748,0.004,7.496,0.004,11.243c0,0.556-0.003,0.589-0.55,0.551c-1.497-0.102-2.516,0.986-2.497,2.492
					c0.044,3.476,0.013,6.953,0.014,10.429c0.001,1.58,0.867,2.443,2.45,2.449c0.582,0.002,0.582,0.002,0.582,0.6
					c0,2.219-0.001,4.438,0.001,6.657c0.001,1.192,0.58,1.771,1.768,1.771c8.013,0.001,16.027,0.001,24.04,0
					c1.168,0,1.755-0.583,1.757-1.745c0.002-2.256,0-4.512,0.001-6.768c0-0.512,0.002-0.511,0.52-0.515
					c0.271-0.002,0.541,0.008,0.809-0.058c0.997-0.246,1.69-1.044,1.694-2.069C224.034,438.696,224.036,434.997,224.019,431.299z
					 M195.568,417.162c5.337,0,10.674,0,16.01,0c0.548,0,0.554,0.007,0.554,0.561c0.001,2.243-0.001,4.486,0.001,6.73
					c0.001,0.811,0.249,1.059,1.06,1.059c1.91,0.001,3.821,0,5.731,0.001c0.458,0,0.479,0.021,0.481,0.483
					c0.003,0.887,0.002,1.775,0,2.662c-0.001,0.477-0.024,0.498-0.504,0.499c-3.895,0.001-7.79,0-11.684,0
					c-3.882,0-7.765,0-11.647,0c-0.55,0-0.552-0.001-0.552-0.561c-0.001-3.624-0.001-7.247,0-10.871
					C195.018,417.166,195.022,417.162,195.568,417.162z M218.854,451.579c-3.883,0.001-7.766,0-11.65,0c-3.871,0-7.742,0-11.613,0
					c-0.572,0-0.574-0.002-0.574-0.579c-0.001-1.997-0.001-3.994,0.001-5.991c0-0.464,0.023-0.486,0.478-0.487
					c7.803-0.001,15.607-0.001,23.41,0c0.478,0,0.499,0.02,0.499,0.503c0.002,1.997,0.001,3.994,0,5.991
					C219.406,451.574,219.401,451.579,218.854,451.579z"/>
			</g>
			<g>
				<path style="fill:#FFFFFF;" d="M205.111,432.771h1.699l2.967,7.897h-1.644l-0.651-1.886h-3.044l-0.651,1.886h-1.643
					L205.111,432.771z M206.997,437.415l-0.706-1.974l-0.287-0.96h-0.088l-0.287,0.96l-0.706,1.974H206.997z"/>
				<path style="fill:#FFFFFF;" d="M211.331,434.536c-0.125,0-0.245-0.024-0.359-0.072c-0.114-0.048-0.213-0.114-0.298-0.199
					c-0.084-0.084-0.151-0.182-0.198-0.292c-0.048-0.11-0.072-0.232-0.072-0.364s0.024-0.254,0.072-0.364
					c0.048-0.11,0.114-0.208,0.198-0.292c0.084-0.084,0.184-0.151,0.298-0.198c0.114-0.048,0.233-0.072,0.359-0.072
					c0.257,0,0.478,0.09,0.662,0.27c0.184,0.181,0.276,0.399,0.276,0.656s-0.092,0.476-0.276,0.656
					C211.809,434.446,211.589,434.536,211.331,434.536z M210.615,440.669v-5.404h1.445v5.404H210.615z"/>
			</g>
			<g>
				<path style="fill:#FFFFFF;" d="M261.044,431.299c-0.006-1.224-0.959-2.121-2.189-2.14c-0.924-0.014-0.832,0.12-0.834-0.867
					c-0.003-1.097-0.007-2.194,0.003-3.292c0.003-0.379-0.112-0.691-0.362-0.976c-2.342-2.668-4.678-5.342-7.019-8.011
					c-0.12-0.137-0.275-0.244-0.414-0.366c-6.214,0-12.427,0-18.641,0c-0.794,0.293-1.14,0.868-1.138,1.709
					c0.01,3.748,0.004,7.496,0.004,11.243c0,0.556-0.003,0.589-0.55,0.551c-1.497-0.102-2.516,0.986-2.497,2.492
					c0.044,3.476,0.013,6.953,0.014,10.429c0.001,1.58,0.867,2.443,2.45,2.449c0.582,0.002,0.582,0.002,0.582,0.6
					c0,2.219-0.001,4.438,0.001,6.657c0.001,1.192,0.58,1.771,1.768,1.771c8.013,0.001,16.027,0.001,24.04,0
					c1.168,0,1.755-0.583,1.757-1.745c0.002-2.256,0-4.512,0.001-6.768c0-0.512,0.002-0.511,0.52-0.515
					c0.271-0.002,0.541,0.008,0.809-0.058c0.996-0.246,1.69-1.044,1.694-2.069C261.059,438.696,261.061,434.997,261.044,431.299z
					 M232.593,417.162c5.337,0,10.674,0,16.01,0c0.548,0,0.554,0.007,0.554,0.561c0.001,2.243-0.001,4.486,0.001,6.73
					c0.001,0.811,0.249,1.059,1.06,1.059c1.91,0.001,3.821,0,5.731,0.001c0.458,0,0.479,0.021,0.481,0.483
					c0.003,0.887,0.002,1.775,0,2.662c-0.001,0.477-0.024,0.498-0.504,0.499c-3.895,0.001-7.79,0-11.684,0
					c-3.882,0-7.765,0-11.647,0c-0.55,0-0.552-0.001-0.552-0.561c-0.001-3.624-0.001-7.247,0-10.871
					C232.042,417.166,232.047,417.162,232.593,417.162z M255.878,451.579c-3.883,0.001-7.766,0-11.65,0c-3.871,0-7.742,0-11.613,0
					c-0.572,0-0.574-0.002-0.574-0.579c-0.001-1.997-0.001-3.994,0.001-5.991c0-0.464,0.023-0.486,0.478-0.487
					c7.803-0.001,15.607-0.001,23.41,0c0.478,0,0.499,0.02,0.499,0.503c0.002,1.997,0.001,3.994,0,5.991
					C256.431,451.574,256.426,451.579,255.878,451.579z"/>
			</g>
			<g>
				<path style="fill:#FFFFFF;" d="M236.361,440.845c-0.338,0-0.662-0.048-0.971-0.143c-0.309-0.095-0.592-0.239-0.849-0.43
					c-0.257-0.191-0.481-0.425-0.673-0.7c-0.191-0.276-0.342-0.597-0.452-0.965l1.401-0.551c0.103,0.397,0.283,0.726,0.54,0.987
					c0.257,0.261,0.596,0.392,1.015,0.392c0.154,0,0.303-0.02,0.447-0.061c0.143-0.04,0.272-0.099,0.386-0.176
					s0.204-0.175,0.27-0.292c0.066-0.118,0.099-0.254,0.099-0.408c0-0.147-0.026-0.279-0.077-0.397
					c-0.051-0.117-0.138-0.227-0.259-0.331c-0.121-0.103-0.28-0.202-0.475-0.298c-0.195-0.095-0.435-0.195-0.722-0.298l-0.485-0.176
					c-0.213-0.073-0.429-0.173-0.645-0.298c-0.217-0.125-0.413-0.276-0.59-0.452c-0.177-0.176-0.322-0.384-0.436-0.623
					c-0.114-0.239-0.171-0.509-0.171-0.81c0-0.309,0.06-0.597,0.182-0.866c0.121-0.268,0.294-0.503,0.518-0.706
					c0.224-0.202,0.492-0.36,0.805-0.474s0.66-0.171,1.042-0.171c0.397,0,0.74,0.053,1.031,0.16
					c0.291,0.107,0.537,0.243,0.739,0.408c0.202,0.165,0.366,0.348,0.491,0.546c0.125,0.199,0.217,0.386,0.276,0.563l-1.312,0.551
					c-0.074-0.221-0.208-0.419-0.402-0.596c-0.195-0.176-0.462-0.265-0.8-0.265c-0.324,0-0.592,0.075-0.805,0.226
					c-0.213,0.151-0.32,0.348-0.32,0.59c0,0.235,0.103,0.436,0.309,0.601c0.206,0.165,0.533,0.325,0.982,0.48l0.497,0.165
					c0.316,0.111,0.605,0.237,0.866,0.381c0.261,0.143,0.485,0.314,0.673,0.513c0.187,0.199,0.331,0.425,0.43,0.678
					c0.1,0.254,0.149,0.546,0.149,0.877c0,0.412-0.083,0.767-0.248,1.064c-0.165,0.298-0.377,0.542-0.634,0.734
					c-0.258,0.191-0.548,0.335-0.872,0.43C236.986,440.797,236.67,440.845,236.361,440.845z"/>
				<path style="fill:#FFFFFF;" d="M239.516,432.771h1.61l1.633,4.754l0.287,1.015h0.088l0.309-1.015l1.699-4.754h1.61l-2.879,7.897
					h-1.566L239.516,432.771z"/>
				<path style="fill:#FFFFFF;" d="M251.097,436.334h3.871c0.022,0.089,0.04,0.195,0.055,0.32c0.015,0.125,0.023,0.25,0.023,0.375
					c0,0.507-0.078,0.985-0.232,1.434c-0.154,0.449-0.397,0.849-0.728,1.202c-0.353,0.375-0.775,0.666-1.268,0.871
					c-0.493,0.206-1.055,0.309-1.688,0.309c-0.574,0-1.114-0.103-1.621-0.309c-0.507-0.206-0.949-0.492-1.324-0.86
					c-0.375-0.367-0.673-0.803-0.894-1.307c-0.22-0.504-0.331-1.053-0.331-1.649c0-0.595,0.11-1.145,0.331-1.649
					c0.221-0.504,0.518-0.939,0.894-1.307c0.375-0.367,0.816-0.654,1.324-0.86c0.507-0.206,1.047-0.309,1.621-0.309
					c0.64,0,1.211,0.11,1.715,0.331c0.504,0.221,0.936,0.526,1.296,0.915l-1.026,1.004c-0.257-0.272-0.544-0.48-0.861-0.623
					c-0.316-0.143-0.694-0.215-1.136-0.215c-0.36,0-0.702,0.065-1.026,0.193c-0.323,0.129-0.607,0.311-0.849,0.546
					c-0.243,0.235-0.436,0.52-0.579,0.855c-0.143,0.335-0.215,0.708-0.215,1.119c0,0.412,0.072,0.785,0.215,1.12
					c0.143,0.335,0.338,0.62,0.585,0.855c0.246,0.235,0.531,0.418,0.854,0.546c0.324,0.129,0.669,0.193,1.037,0.193
					c0.419,0,0.774-0.061,1.064-0.182c0.29-0.121,0.539-0.278,0.745-0.469c0.147-0.132,0.274-0.3,0.38-0.502
					c0.107-0.202,0.189-0.428,0.248-0.678h-2.482V436.334z"/>
			</g>
			<g>
				<path style="fill:#FFFFFF;" d="M297.3,431.299c-0.006-1.224-0.959-2.121-2.189-2.14c-0.924-0.014-0.832,0.12-0.834-0.867
					c-0.003-1.097-0.007-2.194,0.003-3.292c0.003-0.379-0.112-0.691-0.362-0.976c-2.342-2.668-4.678-5.342-7.019-8.011
					c-0.12-0.137-0.275-0.244-0.414-0.366c-6.214,0-12.427,0-18.641,0c-0.794,0.293-1.14,0.868-1.138,1.709
					c0.01,3.748,0.004,7.496,0.004,11.243c0,0.556-0.003,0.589-0.55,0.551c-1.497-0.102-2.516,0.986-2.497,2.492
					c0.044,3.476,0.013,6.953,0.014,10.429c0.001,1.58,0.867,2.443,2.45,2.449c0.582,0.002,0.582,0.002,0.582,0.6
					c0,2.219-0.001,4.438,0.001,6.657c0.001,1.192,0.58,1.771,1.768,1.771c8.013,0.001,16.027,0.001,24.04,0
					c1.168,0,1.755-0.583,1.757-1.745c0.002-2.256,0-4.512,0.001-6.768c0-0.512,0.002-0.511,0.52-0.515
					c0.271-0.002,0.541,0.008,0.809-0.058c0.996-0.246,1.69-1.044,1.694-2.069C297.315,438.696,297.318,434.997,297.3,431.299z
					 M268.85,417.162c5.337,0,10.674,0,16.01,0c0.548,0,0.554,0.007,0.554,0.561c0.001,2.243-0.001,4.486,0.001,6.73
					c0.001,0.811,0.249,1.059,1.06,1.059c1.91,0.001,3.821,0,5.731,0.001c0.458,0,0.479,0.021,0.481,0.483
					c0.003,0.887,0.002,1.775,0,2.662c-0.001,0.477-0.024,0.498-0.504,0.499c-3.895,0.001-7.79,0-11.684,0
					c-3.882,0-7.765,0-11.647,0c-0.55,0-0.552-0.001-0.552-0.561c-0.001-3.624-0.001-7.247,0-10.871
					C268.299,417.166,268.303,417.162,268.85,417.162z M292.135,451.579c-3.883,0.001-7.766,0-11.65,0c-3.871,0-7.742,0-11.613,0
					c-0.572,0-0.574-0.002-0.574-0.579c-0.001-1.997-0.001-3.994,0.001-5.991c0-0.464,0.023-0.486,0.478-0.487
					c7.803-0.001,15.607-0.001,23.41,0c0.478,0,0.499,0.02,0.499,0.503c0.001,1.997,0.001,3.994,0,5.991
					C292.687,451.574,292.682,451.579,292.135,451.579z"/>
			</g>
			<g>
				<path style="fill:#FFFFFF;" d="M272.966,434.183v1.831h3.165v1.412h-3.165v1.831h3.518v1.412h-5.007v-7.897h5.007v1.412H272.966
					z"/>
				<path style="fill:#FFFFFF;" d="M277.852,440.669v-7.897h2.779c0.375,0,0.726,0.061,1.053,0.182
					c0.327,0.121,0.612,0.292,0.855,0.513c0.243,0.221,0.434,0.483,0.574,0.789c0.14,0.305,0.209,0.642,0.209,1.009
					c0,0.375-0.07,0.715-0.209,1.02c-0.14,0.305-0.331,0.568-0.574,0.789c-0.243,0.221-0.528,0.392-0.855,0.513
					c-0.327,0.121-0.678,0.182-1.053,0.182h-1.29v2.901H277.852z M280.653,436.356c0.389,0,0.684-0.111,0.882-0.331
					c0.199-0.22,0.298-0.474,0.298-0.761c0-0.14-0.024-0.276-0.072-0.408c-0.048-0.132-0.121-0.248-0.221-0.347
					c-0.099-0.099-0.222-0.178-0.37-0.237c-0.147-0.059-0.32-0.089-0.518-0.089h-1.312v2.173H280.653z"/>
				<path style="fill:#FFFFFF;" d="M286.797,440.845c-0.338,0-0.662-0.048-0.971-0.143c-0.309-0.095-0.592-0.239-0.849-0.43
					c-0.257-0.191-0.482-0.425-0.673-0.7c-0.191-0.276-0.342-0.597-0.452-0.965l1.401-0.551c0.103,0.397,0.283,0.726,0.541,0.987
					c0.257,0.261,0.595,0.392,1.015,0.392c0.154,0,0.303-0.02,0.447-0.061c0.143-0.04,0.272-0.099,0.386-0.176
					c0.114-0.077,0.204-0.175,0.27-0.292c0.066-0.118,0.1-0.254,0.1-0.408c0-0.147-0.026-0.279-0.077-0.397
					c-0.051-0.117-0.138-0.227-0.259-0.331c-0.121-0.103-0.279-0.202-0.474-0.298c-0.195-0.095-0.436-0.195-0.723-0.298
					l-0.485-0.176c-0.213-0.073-0.428-0.173-0.645-0.298c-0.217-0.125-0.414-0.276-0.59-0.452c-0.176-0.176-0.322-0.384-0.436-0.623
					c-0.114-0.239-0.171-0.509-0.171-0.81c0-0.309,0.061-0.597,0.182-0.866c0.121-0.268,0.294-0.503,0.518-0.706
					c0.224-0.202,0.493-0.36,0.805-0.474c0.312-0.114,0.66-0.171,1.042-0.171c0.397,0,0.741,0.053,1.031,0.16
					c0.29,0.107,0.537,0.243,0.739,0.408c0.202,0.165,0.365,0.348,0.491,0.546c0.125,0.199,0.217,0.386,0.276,0.563l-1.312,0.551
					c-0.074-0.221-0.208-0.419-0.403-0.596c-0.195-0.176-0.462-0.265-0.799-0.265c-0.324,0-0.592,0.075-0.805,0.226
					c-0.213,0.151-0.32,0.348-0.32,0.59c0,0.235,0.103,0.436,0.309,0.601c0.206,0.165,0.533,0.325,0.982,0.48l0.496,0.165
					c0.316,0.111,0.605,0.237,0.866,0.381c0.261,0.143,0.485,0.314,0.673,0.513c0.187,0.199,0.331,0.425,0.43,0.678
					c0.099,0.254,0.149,0.546,0.149,0.877c0,0.412-0.083,0.767-0.248,1.064c-0.165,0.298-0.377,0.542-0.634,0.734
					c-0.258,0.191-0.548,0.335-0.872,0.43C287.422,440.797,287.105,440.845,286.797,440.845z"/>
			</g>
			<g>
				<path style="fill:#FFFFFF;" d="M321.394,439.168l4.004-4.985h-3.827v-1.412h5.559v1.5l-3.96,4.985h4.004v1.412h-5.779V439.168z"
					/>
				<path style="fill:#FFFFFF;" d="M328.409,432.771h1.489v7.897h-1.489V432.771z"/>
				<path style="fill:#FFFFFF;" d="M331.486,440.669v-7.897h2.779c0.375,0,0.726,0.061,1.053,0.182
					c0.327,0.121,0.612,0.292,0.855,0.513s0.434,0.483,0.574,0.789c0.14,0.305,0.209,0.642,0.209,1.009
					c0,0.375-0.07,0.715-0.209,1.02c-0.14,0.305-0.331,0.568-0.574,0.789c-0.243,0.221-0.528,0.392-0.855,0.513
					c-0.327,0.121-0.678,0.182-1.053,0.182h-1.29v2.901H331.486z M334.288,436.356c0.389,0,0.684-0.111,0.882-0.331
					c0.199-0.22,0.298-0.474,0.298-0.761c0-0.14-0.024-0.276-0.072-0.408c-0.048-0.132-0.121-0.248-0.221-0.347
					c-0.099-0.099-0.222-0.178-0.37-0.237c-0.147-0.059-0.32-0.089-0.518-0.089h-1.312v2.173H334.288z"/>
			</g>
		</g>
		<g style="opacity:0.61;">
			<path style="fill:#FFFFFF;" d="M300.133,433.27h9.067v2.242h-9.067V433.27z M300.133,437.136h9.067v2.243h-9.067V437.136z"/>
		</g>
	</g>
	<g style="opacity:0.61;">
		<path style="fill:#FFFFFF;" d="M156.756,478.878h1.607c1.263,0,2.114,0.812,2.114,1.974c0,1.161-0.851,1.973-2.114,1.973h-1.607
			V478.878z M158.34,482.464c1.049,0,1.725-0.665,1.725-1.612c0-0.947-0.677-1.613-1.725-1.613h-1.167v3.225H158.34z"/>
		<path style="fill:#FFFFFF;" d="M165.139,480.851c0-1.15,0.879-2.007,2.075-2.007c1.184,0,2.069,0.851,2.069,2.007
			c0,1.156-0.885,2.007-2.069,2.007C166.019,482.858,165.139,482.002,165.139,480.851z M168.866,480.851
			c0-0.942-0.705-1.635-1.652-1.635c-0.953,0-1.663,0.693-1.663,1.635c0,0.941,0.71,1.635,1.663,1.635
			C168.162,482.486,168.866,481.793,168.866,480.851z"/>
		<path style="fill:#FFFFFF;" d="M179.596,478.878l-1.331,3.947h-0.44l-1.156-3.366l-1.161,3.366h-0.434l-1.331-3.947h0.429
			l1.139,3.394l1.178-3.394h0.389l1.161,3.411l1.156-3.411H179.596z"/>
		<path style="fill:#FFFFFF;" d="M187.731,478.878v3.947h-0.344l-2.537-3.202v3.202h-0.417v-3.947h0.344l2.543,3.203v-3.203H187.731
			z"/>
		<path style="fill:#FFFFFF;" d="M193.093,478.878h0.417v3.586h2.21v0.361h-2.627V478.878z"/>
		<path style="fill:#FFFFFF;" d="M200.061,480.851c0-1.15,0.879-2.007,2.075-2.007c1.184,0,2.069,0.851,2.069,2.007
			c0,1.156-0.885,2.007-2.069,2.007C200.941,482.858,200.061,482.002,200.061,480.851z M203.788,480.851
			c0-0.942-0.705-1.635-1.652-1.635c-0.953,0-1.663,0.693-1.663,1.635c0,0.941,0.71,1.635,1.663,1.635
			C203.083,482.486,203.788,481.793,203.788,480.851z"/>
		<path style="fill:#FFFFFF;" d="M211.636,481.77h-2.199l-0.474,1.054h-0.434l1.804-3.947h0.412l1.804,3.947h-0.44L211.636,481.77z
			 M211.484,481.432l-0.947-2.12l-0.947,2.12H211.484z"/>
		<path style="fill:#FFFFFF;" d="M217.28,478.878h1.607c1.263,0,2.114,0.812,2.114,1.974c0,1.161-0.851,1.973-2.114,1.973h-1.607
			V478.878z M218.864,482.464c1.049,0,1.725-0.665,1.725-1.612c0-0.947-0.677-1.613-1.725-1.613h-1.167v3.225H218.864z"/>
		<path style="fill:#FFFFFF;" d="M234.041,481.77h-2.199l-0.474,1.054h-0.434l1.804-3.947h0.412l1.804,3.947h-0.44L234.041,481.77z
			 M233.889,481.432l-0.947-2.12l-0.947,2.12H233.889z"/>
		<path style="fill:#FFFFFF;" d="M239.685,478.878h0.417v3.586h2.21v0.361h-2.627V478.878z"/>
		<path style="fill:#FFFFFF;" d="M247.082,478.878h0.417v3.586h2.21v0.361h-2.627V478.878z"/>
		<path style="fill:#FFFFFF;" d="M260.449,479.239v1.551h2.041v0.361h-2.041v1.675h-0.417v-3.947h2.706v0.361H260.449z"/>
		<path style="fill:#FFFFFF;" d="M267.678,478.878h0.417v3.947h-0.417V478.878z"/>
		<path style="fill:#FFFFFF;" d="M273.456,478.878h0.417v3.586h2.21v0.361h-2.627V478.878z"/>
		<path style="fill:#FFFFFF;" d="M283.644,482.464v0.361h-2.791v-3.947h2.706v0.361h-2.289v1.404h2.041v0.355h-2.041v1.466H283.644z
			"/>
		<path style="fill:#FFFFFF;" d="M294.672,479.239v1.551h2.041v0.361h-2.041v1.675h-0.417v-3.947h2.706v0.361H294.672z"/>
		<path style="fill:#FFFFFF;" d="M301.5,480.851c0-1.15,0.879-2.007,2.075-2.007c1.184,0,2.069,0.851,2.069,2.007
			c0,1.156-0.885,2.007-2.069,2.007C302.379,482.858,301.5,482.002,301.5,480.851z M305.226,480.851
			c0-0.942-0.705-1.635-1.652-1.635c-0.953,0-1.663,0.693-1.663,1.635c0,0.941,0.71,1.635,1.663,1.635
			C304.522,482.486,305.226,481.793,305.226,480.851z"/>
		<path style="fill:#FFFFFF;" d="M313.351,482.825l-0.902-1.269c-0.102,0.011-0.203,0.017-0.316,0.017h-1.06v1.252h-0.417v-3.947
			h1.477c1.004,0,1.613,0.507,1.613,1.353c0,0.62-0.327,1.054-0.902,1.24l0.964,1.353H313.351z M313.328,480.231
			c0-0.632-0.417-0.992-1.207-0.992h-1.048v1.979h1.048C312.911,481.218,313.328,480.851,313.328,480.231z"/>
		<path style="fill:#FFFFFF;" d="M322.907,478.878v3.947h-0.4v-3.158l-1.551,2.656h-0.197l-1.551-2.639v3.14h-0.4v-3.947h0.344
			l1.714,2.926l1.697-2.926H322.907z"/>
		<path style="fill:#FFFFFF;" d="M330.744,481.77h-2.199l-0.473,1.054h-0.434l1.804-3.947h0.411l1.804,3.947h-0.44L330.744,481.77z
			 M330.592,481.432l-0.947-2.12l-0.947,2.12H330.592z"/>
		<path style="fill:#FFFFFF;" d="M336.957,479.239h-1.387v-0.361h3.192v0.361h-1.387v3.586h-0.417V479.239z"/>
		<path style="fill:#FFFFFF;" d="M343.063,482.346l0.164-0.321c0.282,0.276,0.784,0.479,1.302,0.479c0.739,0,1.06-0.31,1.06-0.699
			c0-1.083-2.43-0.417-2.43-1.877c0-0.581,0.451-1.083,1.455-1.083c0.446,0,0.908,0.13,1.224,0.35l-0.141,0.333
			c-0.338-0.22-0.733-0.327-1.083-0.327c-0.722,0-1.043,0.321-1.043,0.716c0,1.083,2.43,0.429,2.43,1.866
			c0,0.581-0.462,1.077-1.472,1.077C343.937,482.858,343.356,482.65,343.063,482.346z"/>
	</g>
</g>
<g>
</g>
<g id="Calque_1">
	<path style="fill:#0F0B15;" d="M352.367,306.978c-3.216,1.727-6.563,1.533-6.68,1.981c-4.506,16.626-2.842,24.873-3.614,25.32
		c-1.543,0.959-6.049-2.238-6.179-3.453c-0.708-8.888,1.877-19.245,3.293-24.231c0.063-0.127-1.48-0.574-3.54-4.222
		c-0.965-1.723-1.416-5.24-0.645-8.684c0.969-4.285,9.656-15.624,11.199-15.878c1.226-0.194,1.032,2.428,0.451,3.965
		c-0.898,2.365-2.959,4.622-4.375,6.733c-1.416,2.111-3.54,5.948-2.318,8.761c0.838,1.854,1.416,2.558,2.061,2.047
		c1.286-0.962,3.17-12.565,16.813-19.726c3.026-1.6,4.94,5.721,4.746,9.622c-0.772,13.026-9.138,16.7-11.199,17.775
		 M360.363,293.241c1.159-1.917,1.737-6.97-0.775-6.523c-2.896,0.574-10.938,13.747-11.022,14.899
		c-0.063,1.212,4.121-0.511,4.893-0.895c1.159-0.511,3.674-2.238,6.887-7.481 M322.438,285.502c-0.387,1.279-1.029,1.92-1.737,3.39
		c-0.645,1.336,7.465,0.511,9.783,1.279c0.514,0.384,0.384,2.558,0.334,3.517c-0.13,1.279-10.942,0.638-11.777,1.406
		c-0.387,0.384-2.769,5.755-2.061,6.202c1.286,0.705,11.456-2.558,13.066-1.47c2.381,1.67,2.315,3.006,1.222,4.091
		c-1.029,1.022-14.545,8.313-18.213,4.676c-2.512-2.555-3.089-3.644-2.832-7.224c0.257-3.771,2.508-5.628,2.188-6.202
		c-0.772-1.47-0.581-3.644-0.13-4.539c0.387-0.832,2.004-0.127,2.188-0.384c0.708-1.279,1.61-4.412,2.191-5.307
		c0.641-0.959-3.22-0.701-3.798-1.47c-0.578-0.768-2.512-3.263,0.334-3.34c7.144-0.063,16.349-1.79,18.794-1.279
		c1.931,0.384,5.534,3.901,3.798,5.374c-3.34,2.171-9.332,0.254-13.323,1.276 M305.926,303.147
		c-2.191,3.196-4.442,2.812-6.115,1.854c-4.699-2.672-7.595-15.985-9.783-15.791c-1.286,0.127-0.471,15.013-1.737,16.73
		c-0.668,0.902-3.126,2.051-4.055,0.127c-0.928-1.924-0.334-8.099-0.334-8.099c0.387-6.135,1.096-16.559,4.121-18.036
		c2.445-1.216,5.534,4.412,6.884,6.393c1.416,1.92,5.538,10.998,6.823,10.808c1.353-0.194,0.13-7.929-0.063-9.719
		c-0.645-7.034-4.569-12.725-2.832-14.004c1.286-0.959,6.68,4.733,7.979,9.913c0.708,3.006,4.055,12.468-0.898,19.819
		 M431.871,303.14c-2.188,3.196-4.442,2.812-6.115,1.854c-4.699-2.672-7.595-15.985-9.783-15.791
		c-1.286,0.127-0.468,15.013-1.737,16.73c-0.668,0.902-3.126,2.051-4.055,0.127c-0.928-1.924-0.334-8.099-0.334-8.099
		c0.384-6.135,1.106-16.997,4.128-18.47c2.448-1.212,5.524,4.853,6.877,6.834c1.416,1.92,5.621,10.564,6.907,10.354
		c1.336-0.19,0.464-7.348,0.274-9.148c-1.166-7.989-5.053-13.39-3.313-14.669c1.286-0.959,6.68,5.07,8.039,10.444
		c0.858,3.393,3.557,13.103-0.902,19.819 M278.034,282.68c-7.532,0.127-18.921,0.959-20.21,1.79
		c-1.159,0.705-1.222,1.152,1.353,1.984c4.312,1.406,18.086-0.334,21.69,6.713c0.835,2.174,0.772,6.266-0.775,9.141
		c-1.8,3.263-9.716,5.18-15.317,4.606c-3.924-0.384-11.84-2.672-12.097-8.761c0.19-2.431,0.708-4.285,5.01-5.498
		c4.89-1.409,15.187,1.533,15.831,3.387c0.387,1.216-5.678,3.069-8.497,2.238c-2.315-0.701-7.014-4.987-9.395-0.959
		c-0.578,1.727,0.838,2.495,2.124,2.943c7.465,1.727,18.019-0.448,19.245-3.263c1.226-2.816-3.089-3.644-5.28-4.539
		c-6.369-2.622-15.06-0.334-18.984-3.133c-2.188-2.749-0.838-5.244,0-6.84c3.54-5.564,16.733-5.117,20.08-4.99
		c2.959,0.13,9.138,0.257,9.462,1.67c0.514,2.749-2.639,3.069-4.248,3.517 M246.488,306.791c-1.159,0.578-4.763-0.384-4.442-1.917
		c-0.965-8.888,0.063-18.67,1.159-26.215c0.514-1.533,3.34-2.876,4.442,2.622c0.708,10.688,0.835,13.694,0.708,22.762
		C248.351,305.253,247.612,306.341,246.488,306.791 M184.582,300.656c-10.234-3.965-17.368-9.719-17.368-13.046
		c0-2.365,9.141-3.26,17.702-3.517C184.786,289.4,184.582,295.602,184.582,300.656 M192.692,308.775
		c4.699,1.47,9.332,2.365,13.517,2.365c15.768,0,32.244-9.208,32.244-23.657c0-19.312-34.755-43.99-66.675-43.99
		c-9.268,0-14.362,1.336-16.092,2.365c-1.336,0.832-3.861,3.517-3.861,4.606c0,2.492,2.896,2.555,4.185,2.555
		s2.959-0.254,2.959-1.406c-0.021-0.666-0.556-1.202-1.222-1.222c-0.581,0-2.963,0.832-2.963-0.574
		c0-1.085,7.014-1.854,13.066-1.854c34.949,0,62.557,24.298,62.557,39.515c0,9.141-7.979,17.391-23.553,17.391
		c-4.841-0.036-9.66-0.637-14.362-1.79c-0.127-3.838-0.257-12.024-0.334-19.245h2.702c6.503,0,17.829,1.854,17.829,4.028
		c0,2.301-2.702,3.196-3.734,3.644c-0.772,0.334,0.067,0.832,0.581,1.085c0.698,0.351,1.47,0.527,2.251,0.514
		c2.512,0,6.68-2.672,6.68-6.075c0-4.86-7.144-10.23-21.88-10.23c-1.159,0-2.639,0.063-4.379,0.19c0-3.006,0.067-5.371,0.13-6.393
		c0.257-3.133-1.286-6.907-2.318-8.119s-2.251-1.279-2.896,0.574s-1.543,7.161-1.67,8.761c0,0.448-0.127,2.749-0.334,6.012
		c-9.525,1.47-20.467,4.606-20.467,9.719c0,5.498,9.075,12.979,19.953,17.966c0.063,1.025,0.063,1.984,0.19,2.752
		c0.194,1.917,0.387,4.987,4.248,4.987c2.512,0.127,3.34-1.917,3.604-4.476 M370.707,279.908c-1.466,6.86-6.159,21.376-6.419,23.046
		c-0.294,1.887,0.621,5.678,4.97,5.504c4.349-0.174,8.23-0.985,9.422-2.338c1.192-1.353,1.76-4.195-0.207-4.091
		c-1.967,0.104-6.369,0.932-7.198,0.932c0.882-2.164,2.004-6.68,2.415-9.522c0.334-2.241,1.67-11.596,1.74-12.468
		c0.044-0.633-0.253-1.241-0.778-1.596c-0.361-0.311-1.9-1.533-2.548-1.456s-1.186,1.192-1.353,1.987L370.707,279.908z
		 M407.683,304.189c-0.932-4.158-5.01-17.181-10.33-25.671c-0.792-1.266-2.522-1.236-3.3-1.159
		c-0.523,0.069-0.891,0.549-0.822,1.072c0.002,0.016,0.005,0.031,0.007,0.047c0.104,0.764,0.168,1.534,0.194,2.305
		c-0.969,1.186-4.676,6.413-7.565,12.358c-1.516-0.077-2.672-0.13-3.113-0.13c-3.514,0-2.872,1.426-1.864,2.508
		c0.873,0.974,1.809,1.891,2.802,2.742c-0.675,1.824-1.141,3.719-1.389,5.648c-0.261,3.023,1.336,4.195,2.431,4.232
		c1.03,0.113,2.036-0.364,2.602-1.232c0.785-1.099,1.379-3.34,2.024-5.344c0.217-0.668,0.494-1.446,0.812-2.281
		c0.428,0,0.835,0,1.202,0c2.445-0.077,3.146-0.117,4.659-1.082c0.775-0.494,1.837-1.403,2.709-2.094
		c1.035,3.153,2.004,6.196,2.378,7.191c0.815,2.201,3.34,3.32,5.047,3.55c1.707,0.23,1.79-1.62,1.56-2.662L407.683,304.189z
		 M392.567,293.475c1.286-2.949,2.525-5.581,3.006-6.426c0.441,0.949,1.379,3.674,2.371,6.68c-1.246-0.057-3.223-0.15-5.334-0.257
		L392.567,293.475z M438.257,283.622c-0.083,1.957-1.089,16.523-1.089,18.273c0,2.882,2.214,4.736,5.374,4.89
		c3.16,0.154,20.564-0.274,20.564-13.3c0-8.904-10.715-17.067-24.435-17.735c-3.16-0.157-4.84,0.605-4.84,1.62
		c0,0.952,1.369,1.57,2.174,0.23c2.879-0.134,7.071,1.216,11.276,3.183c5.01,2.338,9.666,6.159,9.666,11.075
		c0,7.515-6.526,10.604-9.322,10.604c-0.955,0-3.791,0.962-3.791-2.819s-0.311-14.629-0.311-16.252c0-1.7-0.581-2.779-1.69-2.585
		C440.906,280.95,438.361,281.14,438.257,283.622z M334.973,318.357H184.906v11.145h149.335
		C334.131,325.773,334.375,322.041,334.973,318.357z M345.153,318.357c-0.666,3.682-1.069,7.406-1.206,11.145h119.159v-11.145
		H345.153z M258.532,253.759c0.387,0.254,4.055-1.089,6.179,3.26c1.93,3.965-5.344,10.167-11.135,13.109
		c-3.674,1.727-7.852,1.917-12.024,0.832c-1.67,0.765-1.48,3.387-3.734,2.301c-0.384-0.448-1.336-3.133-0.194-4.542
		c-2.702-2.171-2.572-6.456-1.413-9.018c3.089-5.177,8.684-8.824,14.362-9.656c4.439-0.638,7.271,0.641,7.979,3.711
		 M258.919,262.914c1.737-1.596,3.153-4.282,0.965-5.678c-5.15-3.263-12.024,5.498-16.219,9.652
		c3.474,1.727,9.846-0.511,10.748-1.022c0.835-0.511,2.765-1.336,4.506-2.942 M248.231,256.148c-1.222-1.854-6.823,2.495-8.56,4.606
		c-1.737,2.111-0.902,3.323-0.127,3.961c2.407-3.311,5.34-6.205,8.684-8.567 M473.784,327.238c-1.698,1.811-4.543,1.903-6.354,0.205
		s-1.903-4.543-0.205-6.354c1.698-1.811,4.543-1.903,6.354-0.205c0.905,0.848,1.419,2.032,1.421,3.272
		c0.009,1.138-0.425,2.235-1.209,3.059L473.784,327.238z M467.632,321.226c-1.632,1.621-1.64,4.258-0.018,5.89
		c0.006,0.006,0.012,0.012,0.018,0.018c1.62,1.564,4.188,1.564,5.808,0c1.632-1.621,1.64-4.258,0.018-5.89
		c-0.006-0.006-0.012-0.012-0.018-0.018C471.82,319.662,469.252,319.662,467.632,321.226z M471.429,326.593l-1.58-2.044v2.044
		h-0.698v-4.88h0.878c0.401,0,1.075,0,1.503,0.451c0.239,0.256,0.369,0.595,0.361,0.945c0.013,0.347-0.118,0.684-0.361,0.932
		c-0.253,0.218-0.564,0.357-0.895,0.401l1.67,2.111L471.429,326.593z M469.85,323.922h0.284c0.298,0.034,0.598-0.045,0.842-0.22
		c0.15-0.146,0.231-0.349,0.22-0.558c0.01-0.191-0.05-0.38-0.167-0.531c-0.13-0.14-0.377-0.244-0.922-0.244h-0.257V323.922z
		 M128.909,280.389v-12.555h8.463v3.447h-3.908v1.166h3.574v3.293h-3.574v1.202h4.028v3.443L128.909,280.389z M139.557,271.598
		h3.918v4.759c-0.027,0.257,0.061,0.512,0.24,0.698c0.165,0.139,0.379,0.206,0.595,0.187c0.221,0.016,0.44-0.05,0.615-0.187
		c0.195-0.177,0.293-0.437,0.264-0.698v-4.759h3.914v5.06c0.011,0.928-0.336,1.825-0.969,2.505
		c-0.788,0.865-2.097,1.466-3.821,1.466c-1.723,0-3.006-0.601-3.767-1.409c-0.641-0.646-1.001-1.518-1.002-2.428L139.557,271.598z
		 M151.58,280.385v-8.787h3.627v0.544c-0.001,0.2-0.039,0.399-0.114,0.585h0.073c0.252-0.451,0.624-0.824,1.075-1.075
		c0.616-0.287,1.292-0.42,1.971-0.387v3.774c-0.564-0.357-3.033-0.554-3.033,1.907v3.443L151.58,280.385z M168.557,279.143
		c-0.688,0.735-1.92,1.486-3.951,1.486s-3.263-0.751-3.951-1.486c-1.616-1.791-1.616-4.515,0-6.306
		c0.688-0.731,1.92-1.486,3.951-1.486s3.263,0.755,3.951,1.486C170.178,274.627,170.178,277.354,168.557,279.143z M163.825,275.042
		c-0.257,0.244-0.395,0.588-0.377,0.942c-0.02,0.359,0.118,0.709,0.377,0.959c0.484,0.402,1.186,0.402,1.67,0
		c0.26-0.249,0.398-0.599,0.377-0.959c0.017-0.354-0.12-0.698-0.377-0.942C165.011,274.639,164.308,274.639,163.825,275.042z
		 M353.91,332.559c1.039,0,1.907,0.127,2.602,0.728c0.624,0.564,0.97,1.373,0.945,2.214c0,1.456-0.912,2.899-3.266,2.899h-1.002
		v4.489h-1.146v-10.327L353.91,332.559z M353.182,337.315h0.952c1.363,0,2.184-0.668,2.184-1.874c0-1.643-1.533-1.797-2.275-1.797
		h-0.855L353.182,337.315z M383.202,339.987h-4.385l-1.239,2.909h-1.269l4.756-10.825l4.629,10.825h-1.269L383.202,339.987z
		 M382.754,338.901l-1.737-4.135l-1.764,4.135H382.754z M408.001,332.555c0.698,0,1.733,0.047,2.508,0.574
		c1.261,0.962,1.504,2.764,0.542,4.026c-0.486,0.637-1.215,1.042-2.012,1.118l3.283,4.612h-1.396l-3.143-4.522h-0.294v4.522h-1.146
		v-10.324L408.001,332.555z M407.49,337.341h0.751c1.426,0,2.278-0.668,2.278-1.887c0.045-0.623-0.276-1.216-0.822-1.52
		c-0.461-0.226-0.974-0.328-1.486-0.294h-0.698L407.49,337.341z M434.473,332.555v10.33h-1.146v-10.324L434.473,332.555z
		 M460.959,334.603c-0.147-0.297-0.353-0.56-0.605-0.775c-0.336-0.248-0.746-0.374-1.162-0.357c-1.022,0-1.733,0.635-1.733,1.596
		c-0.021,0.344,0.123,0.678,0.387,0.898c0.318,0.281,0.685,0.5,1.082,0.648l1.002,0.434c0.589,0.222,1.13,0.553,1.596,0.975
		c0.501,0.492,0.77,1.172,0.741,1.874c0,1.907-1.409,3.176-3.266,3.176c-0.83,0.035-1.639-0.266-2.244-0.835
		c-0.485-0.508-0.818-1.142-0.962-1.83l1.116-0.307c0.067,0.492,0.284,0.952,0.621,1.316c0.393,0.391,0.933,0.598,1.486,0.571
		c1.077,0.068,2.005-0.751,2.072-1.828c0.005-0.072,0.005-0.144,0.002-0.216c0.018-0.458-0.17-0.9-0.511-1.206
		c-0.373-0.302-0.791-0.543-1.239-0.715l-0.928-0.434c-0.508-0.198-0.975-0.486-1.379-0.852c-0.473-0.424-0.734-1.035-0.711-1.67
		c0-1.596,1.222-2.672,2.896-2.672c0.592-0.026,1.176,0.137,1.67,0.464c0.423,0.295,0.767,0.69,1.002,1.149L460.959,334.603z
		 M81.542,213.283c0.277-1.937,0.721-5.524,3.48-4.606c0.087,0.037,0.187-0.003,0.223-0.09c0.027-0.062,0.014-0.135-0.033-0.184
		c-1.002-0.935-2.598-0.584-3.27,0.595c-0.792,1.262-0.842,2.836-0.735,4.278c-0.002,0.092,0.071,0.168,0.164,0.17
		S81.54,213.375,81.542,213.283z M83.576,217.959c-1.085,2.959-1.079,6.222-0.287,9.262c0.668,2.739,3.033,5.053,5.321,2.178
		c1.399-1.964,1.74-4.429,1.757-6.773c0.017-2.345-0.454-8.063-3.584-8.066c-1.713,0.197-2.632,1.981-3.206,3.407V217.959z
		 M88.452,216.102c1.186,1.917,1.336,4.305,1.389,6.523c-0.063,2.194-0.441,4.562-1.777,6.346c-0.294,0.41-0.695,0.733-1.159,0.932
		c0.284-0.746,0.427-1.539,0.421-2.338c0-2.144-0.915-3.884-2.041-3.884c-0.711,0-1.336,0.695-1.7,1.74
		c-0.143-0.938-0.213-1.886-0.21-2.836c0.037-2.211,0.461-4.552,1.774-6.366c0.962-1.346,2.385-1.586,3.303-0.11V216.102z
		 M59.809,274.166c0.911-1.194,1.705-2.472,2.371-3.818c0.648-1.373,1.08-2.837,1.279-4.342c0.021-0.184-0.111-0.351-0.296-0.372
		c-0.184-0.021-0.351,0.111-0.372,0.296c-0.247,2.963-1.603,5.648-3.293,8.046c-0.041,0.093,0,0.201,0.093,0.243
		C59.667,274.253,59.756,274.231,59.809,274.166z M146.554,254.581c1.887-4.956-1.293-8.35-3.954-12.094
		c-2.468-3.557-5.658-6.62-7.174-10.688c1.73-2.508,1.877-5.748-0.14-8.273c-1.336-1.797-4.068-2.635-6.059-1.383
		c-1.904,1.456-1.092,4.118-1.172,6.102c-0.023,1.002-0.23,2.171-1.002,2.725c-0.311,0.178-0.635,0.333-0.969,0.464
		c-1.45,0.668-3.036,1.206-4.405,2.064c-1.313,0.922-1.67,2.605-1.543,4.125c-0.658-0.148-1.337-0.174-2.004-0.077
		c-1.47,0.307-3.089,1.336-3.407,2.869c-1.8-1.096-3.854-1.59-6.012-0.888c-1.902,0.652-3.238,2.368-3.403,4.372
		c-0.025,0.293-0.032,0.588-0.02,0.882c0,0.043,0,0.087,0,0.127c-1.126,0.256-2.269,0.426-3.42,0.511
		c-0.465,0.037-0.931,0.037-1.396,0c1.28-1.036,2.354-2.302,3.166-3.734c1.56-2.662,2.15-5.783,1.67-8.831l-0.02-0.094
		c1.393-1.169,2.906-5.21,2.906-7.578c0-2.368-1.67-5.19-3.838-5.19c-1.447-0.05-2.838,0.565-3.774,1.67
		c-1.413,1.67-1.89,4.392-1.78,6.813l-0.401,0.02c0.084-3.874-0.087-7.956-1.109-11.743c1.078-0.858,1.998-1.899,2.715-3.076
		c0.778-1.224,1.275-2.606,1.456-4.045c0.334-2.969-1.216-5.845-3.4-7.745c-2.796-2.441-6.346-3.674-9.996-4.295
		c-1.029-2.204-2.375-4.142-3.754-6.115c-7.969-11.022-17.605-20.915-28.723-28.787c-3.674-2.568-7.612-5.457-12.261-5.765
		c-0.267-0.002-0.535,0.019-0.798,0.063c-1.756,0.331-3.177,1.623-3.674,3.34c-0.286,1.23-0.241,2.514,0.13,3.721
		c0.241,0.768,0.538,1.517,0.888,2.241c2.446,4.774,4.53,9.724,6.236,14.809c1.523,4.659,2.505,9.479,3.383,14.295
		c0.713,4.055,1.26,8.131,1.643,12.228c-1.411-0.704-2.954-1.107-4.529-1.182c-7.739-0.464-12.845,5.721-13.694,14.482
		c-0.848,8.761,5.678,14.505,12.565,14.505s9.135-4.846,10.531-6.897c-0.334,9.058,5.167,14.459,9.91,17.424
		c-0.492,0.421-0.811,1.008-0.898,1.65c-0.674,0.114-1.324,0.339-1.924,0.668c-0.885,0.469-1.66,1.12-2.274,1.91
		c-0.626,0.795-1.061,1.723-1.273,2.712c-0.01,0.062-0.01,0.125,0,0.187c-0.798,0.194-1.596,0.377-2.411,0.524
		c-4.008,0.721-8.851,1.743-11.61,5.01c-0.293,0.409-0.554,0.84-0.782,1.289c-1.693,3.465-2.342,7.348-1.87,11.175
		c0.285,2.325,0.944,4.589,1.954,6.703c0,0.478,0,0.952,0,1.43c0.18,2.689-0.895,8.39,1.473,10.17
		c0.812,0.605,1.85,0.618,2.802,0.581c2.05-0.071,4.047-0.669,5.798-1.737c1.225-0.8,2.362-1.728,3.39-2.769
		c0.605,0.364,1.298,0.557,2.004,0.561c0,0.087,0,0.174,0.02,0.261c0.334,2.425,2.639,4.008,4.783,4.739
		c0.284,0.087,0.564,0.16,0.842,0.23c-0.368,1.071-0.854,2.097-1.45,3.059c-4.218,3.745-8.94,6.88-14.028,9.315
		c-5.187,2.578-10.688,4.489-15.935,6.984c-2.639,1.283-5.267,2.739-7.348,4.863c-0.527,0.539-0.989,1.137-1.376,1.784
		c-1.156,1.981-1.136,4.739,0.474,6.473c2.138,2.231,5.481,2.565,8.39,2.672c2.672-0.02,5.197-0.608,7.729-1.276
		c-0.104,0.367-0.204,0.728-0.284,1.085l-0.224,1.002c-0.134,1.002-0.287,2.121,0,3.143c0.668,2.812,3.103,4.799,5.641,5.811
		c1.232,0.514,2.531,0.852,3.858,1.002c0.066,0.006,0.132-0.008,0.19-0.04c1.613,4.048,5.321,5.825,9.636,5.711
		c2.749,0.027,5.715-1.146,7.077-3.624c0.057-0.018,0.11-0.046,0.157-0.084c1.142-0.972,2.946-2.338,4.182-3.206
		c3.564-2.485,4.98-5.16,4.91-9.529c-0.15-3.397-1.807-6.306-4.238-8.467c2.723-0.533,5.486-0.837,8.26-0.908
		c-0.681,1.115-1.094,2.373-1.209,3.674c-0.164,4.165,4.759,5.04,7.992,5.01c1.603,0.05,3.21-0.104,4.793-0.087
		c2.084,0.087,4.091,0.735,6.049,1.436c3.567,1.182,7.154,2.572,10.958,2.752c2.709,0,5.467-0.247,8.046-1.119
		c0.421-0.15,0.831-0.331,1.226-0.541c4.028,1.336,9.212-0.374,11.917-3.464c1.197-1.322,1.948-2.987,2.144-4.759
		c0.364-3.153-2.612-4.803-5.464-5.344c-0.013-0.243-0.101-0.476-0.251-0.668c-0.612-0.926-1.341-1.768-2.168-2.508
		c-1.902-1.641-4.172-2.799-6.616-3.377c-0.673-1.73-1.854-3.215-3.387-4.262c-2.338-1.723-5.057-2.441-7.552-3.744
		c-0.117-0.067-0.23-0.137-0.334-0.207c0.553-2.695,1.27-5.354,2.148-7.962c0.915-2.759,2.131-5.401,2.872-8.243
		c1.453-5.751,0.625-11.873-1.149-17.461l0.02,0.24c-0.03-0.187-0.06-0.428-0.1-0.648c0-0.154,0.02-0.307,0.02-0.458
		c0.002-0.03,0.002-0.06,0-0.09c0.776-0.094,1.556-0.143,2.338-0.147c0.628,2.305,2.842,3.911,5.18,4.118
		c4.132,0.434,5.053-4.676,5.13-7.795c0.057-3.389-0.524-6.759-1.713-9.933c0.502-0.087,0.975-0.297,1.376-0.611
		c0.084,0.231,0.202,0.448,0.351,0.645c0.772,1.055,2.191,1.443,3.323,1.777c1.451,0.355,2.805,1.031,3.961,1.977
		c2.492,1.82,4.856,3.898,7.201,5.982c0.892,0.815,2.134,1.757,3.5,1.59c0.774-0.106,1.44-0.601,1.763-1.313
		c0.451,0.144,1.289-0.287,1.61-0.444C147.96,259.598,147.486,256.922,146.554,254.581z M102.263,223.085
		c0.051-0.042,0.114-0.067,0.18-0.07h0.05c0.451,0.114,0.905,0.715,0.691,2.041c-0.334,1.974-0.808,2.859-1.149,2.859
		c-0.074-0.006-0.143-0.044-0.187-0.104c-0.334-0.367-0.508-1.476-0.404-2.578C101.555,224.077,101.945,223.309,102.263,223.085z
		 M97.086,216.015c-0.604-2.06-1.537-4.009-2.762-5.771c0.551,0.281,1.102,0.571,1.643,0.892c0.064,0.037,0.146,0.023,0.194-0.033
		c0.053-0.066,0.044-0.162-0.02-0.217c-2.899-2.411-6.68-3.517-10.354-4.095c-9.859-1.379-20.013,1.296-27.22,8.33
		c-0.431,0.404-1.139,1.129-1.79,1.804l-0.023-0.04c0.057-1.987-0.805-5.12-3.123-7.441c7.715-8.286,17.308-11.486,28.563-11.092
		c1.761,0.035,3.518,0.182,5.26,0.438c0.048,0.015,0.097,0.022,0.147,0.023c3.517,0.564,6.93,1.723,9.589,4.051
		C101.715,206.88,101.114,212.044,97.086,216.015z M67.39,181.811l0.154,0.918c0.477,2.557,2.356,4.625,4.856,5.344
		c2.241,0.685,5.157,0.484,6.703-1.466c0.334,0.414,0.645,0.828,0.965,1.246c-0.972,2.064-2.281,4.008-4.205,5.25
		c-4.061,2.642-9.382,0.691-11.616-3.403c-2.271-3.958-1.697-10.137,2.602-12.508c0.217-0.08,0.765-0.197,0.805,0.134
		c0,0.147-0.087,0.641-0.107,0.822C67.343,179.357,67.29,180.587,67.39,181.811z M58.753,166.447l-4.035,0.915
		c-0.294,0.065-0.532,0.279-0.628,0.564c-0.969,2.839-1.763,4.933-2.027,5.344c-0.428-0.217-1.707-1.974-2.702-3.567l-0.073-0.114
		h-0.134c-1.069-0.027-3.904-0.134-4.532-0.277c-0.017-0.451,1.249-2.248,1.8-3.029c0.282-0.348,0.525-0.725,0.725-1.126
		c0.083-0.304-0.147-0.912-0.685-2.224c-0.291-0.711-0.768-1.874-0.755-2.194c0.384-0.07,1.941,0.615,2.792,1.002
		c0.504,0.22,0.979,0.428,1.309,0.544c0.458,0.16,1.496-0.334,2.148-0.711c1.002,0.668,2.004,1.373,2.983,2.054
		c1.294,0.9,2.565,1.835,3.814,2.806V166.447z M48.456,184.693c1.132-1.273,2.161-2.598,3.283-3.854
		c1.239-1.279,1.202,3.24,1.446,3.898c0.05,0.482,0.32,0.915,0.731,1.172c0.353,0.187,0.733,0.319,1.126,0.391
		c0.925,0.247,2.742,0.635,3.62,0.959c0.494,0.227-0.06,0.668-0.287,0.888c-0.227,0.22-0.514,0.518-0.768,0.778
		c-0.563,0.557-1.086,1.151-1.566,1.78c-0.057,0.166-0.07,0.345-0.037,0.518c0.137,1.259,0.481,3.043,0.685,4.302
		c0.042,0.326-0.189,0.623-0.514,0.665c-0.083,0.011-0.167,0.004-0.247-0.021c-0.319-0.082-0.618-0.229-0.878-0.431
		c-1.002-0.651-1.847-1.473-2.896-2.091c-0.082-0.049-0.175-0.078-0.271-0.083c-0.094-0.001-0.188,0.019-0.274,0.057
		c-0.341,0.159-0.665,0.354-0.965,0.581C50.016,191.009,49.321,187.826,48.456,184.693z M50.794,194.96
		c0.345-0.243,0.704-0.466,1.075-0.668l0.184,0.1c1.039,0.625,2.141,1.443,3.22,2.041c0.805,0.498,2.037,0.094,1.877-1.002
		c-0.174-1.002-0.508-2.739-0.668-3.737c-0.045-0.268-0.064-0.54-0.057-0.812c0.709-0.847,1.467-1.651,2.271-2.408
		c0.949-0.758,0.868-1.596-0.367-1.887c-1.196-0.381-2.385-0.852-3.577-1.239c-0.24-0.097-0.511-0.187-0.621-0.401
		c-0.357-1.132-0.494-2.425-0.865-3.59c-0.137-0.531-0.581-1.456-1.336-1.239c-0.608,0.207-0.868,0.788-1.266,1.209
		c-0.775,0.939-1.553,1.904-2.381,2.796c-0.323-1.144-0.672-2.282-1.049-3.413c-1.699-4.986-3.763-9.84-6.176-14.522
		c-0.257-0.514-0.538-1.099-0.751-1.63c-0.461-1.272-0.795-2.842-0.331-4.118c0.437-1.299,1.582-2.232,2.942-2.398
		c0.192-0.025,0.385-0.032,0.578-0.02c2.909,0.297,5.518,1.623,7.979,3.203c-0.705,0.371-1.336,0.611-1.5,0.551
		c-0.311-0.11-0.778-0.314-1.273-0.531c-2.004-0.875-2.986-1.249-3.363-0.892c-0.311,0.291-0.067,0.985,0.668,2.749
		c0.294,0.715,0.698,1.697,0.668,1.897c-0.04,0.104-0.367,0.564-0.668,0.975c-1.399,2.004-2.034,3.023-1.857,3.524
		c0.046,0.132,0.155,0.232,0.291,0.267c0.631,0.174,3.787,0.277,4.562,0.301c0.738,1.176,2.361,3.631,3.053,3.707h0.047
		c0.101,0.001,0.199-0.038,0.271-0.11c0.334-0.334,1.379-3.233,2.188-5.594c0.04-0.122,0.142-0.214,0.267-0.24l4.432-1.002
		c7.197,5.66,13.723,12.126,19.448,19.271c-1.483,1.64-4.055,1.78-6.085,1.209c-3.006-0.822-4.632-3.417-4.699-6.449
		c-0.027-0.885,0.034-1.77,0.184-2.642c0.02-0.144,0.083-0.531,0.1-0.668c0.184-1.002-0.955-1.239-1.67-0.882
		c-4.676,2.542-5.641,9.078-3.243,13.547c2.405,4.676,8.637,6.803,13.046,3.577c1.93-1.363,3.2-3.447,3.991-5.618
		c2.264,2.936,4.492,5.942,6.172,9.195c-1.433-0.167-2.869-0.254-4.268-0.287c-8.296-0.264-16.937,1.456-23.714,6.51
		c-2.066,1.514-3.98,3.226-5.715,5.11c-0.454-4.549-1.149-9.061-2.004-13.543L50.794,194.96z M57.882,231.018
		c0-5.932,5.718-9.041,10.19-9.041s7.271,2.441,10.564,6.279c-0.551-0.738-5.621-10.688-1.924-20.791
		c0.708-0.083,1.419-0.15,2.131-0.187c2.63-0.189,5.273-0.05,7.869,0.414c0.795,0.588,2.411,2.198,3.988,6.246
		c0.023,0.065,0.085,0.108,0.154,0.107h0.037c0.079-0.018,0.134-0.09,0.13-0.17c-0.1-2.181,0.083-3.527,0.541-4.008
		c0.144-0.144,0.346-0.214,0.548-0.19c0.507,0.05,0.99,0.242,1.393,0.554c0.177,0.261,0.334,0.524,0.511,0.795
		c-0.547,0.151-0.975,0.576-1.129,1.122c-0.034,0.086,0.008,0.183,0.094,0.217c0.086,0.034,0.183-0.008,0.217-0.094l0,0
		c0.15-0.468,0.581-0.789,1.072-0.798c0.455,0.797,0.854,1.624,1.196,2.475c1.219,3.103,1.717,6.473,1.864,9.793
		c0.07,1.627,0.04,3.243,0.02,4.9c-0.458,0.082-0.909,0.194-1.353,0.334c0.409-1.494,0.603-3.038,0.578-4.586
		c0-3.2-0.751-6.6-2.144-6.6c-1.89,0-2.148,3.34-2.148,6.6c0,2.492,0.424,4.699,1.092,5.811c-1.127,0.724-2.118,1.64-2.929,2.705
		c-0.065,0.066-0.064,0.172,0.002,0.236c0.06,0.059,0.156,0.064,0.222,0.011l0.815-0.768c0.802-0.732,1.693-1.36,2.652-1.87
		c1.462-0.766,3.082-1.181,4.733-1.212c0.027,0.263,0.06,0.52,0.1,0.772c0.424,2.608,2.592,3.143,4.285,3.143
		c0.421-0.002,0.842-0.033,1.259-0.094c0.481,2.782-0.174,5.741-1.55,8.193c-2.128,3.834-6.269,6.176-10.534,6.85
		c-7.381,1.409-14.632-3.387-17.344-10.193c-1.05-2.558-1.703-5.261-1.937-8.016c0.911,0.227,1.764,0.645,2.502,1.226
		c0.088,0.07,0.216,0.056,0.286-0.032c0.065-0.081,0.058-0.199-0.016-0.272c-1.91-2.178-4.85-2.582-6.977-0.458
		c-0.128,0.109-0.143,0.301-0.033,0.429c0.106,0.123,0.289,0.142,0.418,0.042c1.102-0.765,2.134-1.085,3.156-1.029
		c0.139,1.49,0.379,2.968,0.718,4.425c0,0.768-0.033,1.633-0.063,2.595c-0.073,2.515-0.167,5.648,0.047,8.891
		c0.19,2.912,2.034,4.793,4.696,4.793c1.67,0,2.739-0.718,3.784-1.416c0.802-0.538,1.566-1.045,2.538-1.166
		c0.451,0.177,0.912,0.334,1.376,0.471c-1.553,0.598-3.056,2.031-4.252,2.836c-0.838,0.658-1.772,1.183-2.769,1.556
		c-2.592,0.835-5.18-0.939-6.556-3.066c-0.885-1.336-0.935-3.039-1.249-4.622c-0.176-1.105-0.416-2.199-0.718-3.276
		c-0.035-0.119-0.159-0.187-0.277-0.152c-0.112,0.033-0.18,0.145-0.157,0.259c0.387,1.784,0.491,3.567,0.792,5.364
		C68.048,245.804,57.882,240.607,57.882,231.018z M92.777,224.368c0-2.618,0.17-6.099,1.647-6.099c0.685,0,1.643,2.321,1.643,6.099
		c0.023,1.525-0.171,3.046-0.578,4.516c0.056-0.353,0.079-0.711,0.067-1.069c-0.012-0.85-0.25-1.683-0.688-2.411
		c-0.431-0.668-1.002-1.002-1.583-1.002c-0.174,0.007-0.345,0.047-0.504,0.117c0.003-0.05,0-0.1,0-0.15H92.777z M74.147,241.515
		c0.421,0,1.967,1.53,2.194,3.59c0.134,0.878,0.11,1.772-0.07,2.642c-0.042,0.147,0.021,0.304,0.154,0.381
		c0.076,0.046,0.168,0.059,0.254,0.037c0.086-0.023,0.16-0.08,0.204-0.157c0.286-0.577,0.427-1.214,0.411-1.857v-0.207
		c0.021-0.285,0.016-0.571-0.017-0.855c0.023,0,0.15-0.027,0.351,0.08c0.541,0.294,1.119,1.166,1.119,2.735
		c0,0.828-0.23,1.399-0.668,1.697c-0.645,0.424-1.536,0.184-1.743,0.094l0,0c-1.546-0.668-2.472-2.141-2.605-4.148
		c-0.07-1.075-0.11-2.094-0.124-3.203c0-0.528,0.023-0.828,0.544-0.828H74.147z M68.626,248.509
		c0.092,0.038,0.198-0.006,0.235-0.099c0.038-0.092-0.006-0.198-0.099-0.235c-0.888-0.472-1.884-0.702-2.889-0.668
		c0.138-0.449,0.416-0.843,0.792-1.126c1.255,0.74,2.56,1.39,3.908,1.944c0.02,0.083,0.033,0.167,0.053,0.251
		c0.738,2.705,3.52,5.2,6.396,5.324c3.006,0.14,5.164-2.418,7.458-3.904c0.812-0.571,1.733-0.969,2.705-1.169
		c1.432,0.262,2.895,0.312,4.342,0.147c0,0.12,0.023,0.24,0.017,0.364c0.08,1.764-0.748,3.383-2.021,4.582
		c-0.06,0.07-0.053,0.175,0.017,0.236c0.057,0.049,0.141,0.054,0.203,0.012c0.431-0.314,0.83-0.668,1.192-1.059
		c0.822-0.934,1.33-2.102,1.453-3.34c0.033-0.306,0.044-0.614,0.033-0.922h0.117c0.987-0.152,1.959-0.388,2.906-0.705
		c0.322,0.723,0.557,1.482,0.698,2.261c0.183,0.732,0.262,1.487,0.234,2.241c-0.405,1.702-1.331,3.235-2.649,4.385
		c-2.775,2.401-6.783,3.079-10.354,2.642c-1.796-0.301-3.554-0.79-5.247-1.46c-3.443-1.313-6.717-3.006-10.08-4.549
		c-1.72-0.701-3.6-1.76-5.524-1.273c-0.584,0.134-1.159,0.277-1.733,0.421c0.835-3.353,4.512-5.464,7.839-4.302H68.626z
		 M54.144,287.059c-1.51,1.045-3.21,1.984-5.08,2.067c-2.642,0.334-2.672-3.093-2.796-4.966c-0.057-1.152-0.06-2.582-0.137-3.954
		c0.77,1.243,1.648,2.416,2.625,3.504c0.046,0.051,0.121,0.063,0.18,0.03c0.072-0.038,0.1-0.127,0.063-0.2
		c-0.444-0.818-0.942-1.59-1.373-2.401c-0.207-0.421-0.715-1.416-0.925-1.83c-0.21-0.414-0.608-1.47-0.795-1.877
		c-2.154-5.558-2.488-12.121,0.334-17.511c1.984-3.273,7.445-4.726,11.055-5.437c2.044-0.414,4.008-1.096,6.012-1.466
		c1.543-0.047,3.006,0.725,4.422,1.293c1.67,0.735,3.34,1.563,5.01,2.338c3.373,1.566,6.783,3.136,10.487,3.801
		c3.741,0.551,7.862,0,10.878-2.472c1.63-1.32,2.743-3.172,3.146-5.23c0-0.04,0-0.077,0-0.114c3.46,2.031,5.828,4.93,7.238,7.081
		c-0.855,0.682-1.556,1.537-2.057,2.508c-0.935-1.032-2.408-1.383-3.674-0.124l-0.117-0.117c-1.019-0.932-2.044-1.897-3.403-2.318
		c-2.285-0.434-4.075,1.583-4.726,3.557c-0.17,0.481-0.334,1.002-0.478,1.553c-3.457,1.499-6.659,3.527-9.492,6.012
		c-1.697-3.634-5.287-6.606-9.419-6.456h-0.06c-1.169-1.446-3.006-2.044-5.22-1.376c-1.242-1.219-3.109-1.206-4.532-0.197
		c-0.982-1.376-2.004-2.762-3.614-3.34c-0.114-0.023-0.225,0.05-0.249,0.164c-0.019,0.093,0.027,0.188,0.112,0.231
		c1.46,0.845,2.385,2.301,3.487,3.574c0.019,0.035,0.043,0.068,0.07,0.097c0,0,0.027,0,0.04,0.03
		c0.413,0.481,0.879,0.915,1.389,1.293c0.067,0.043,0.156,0.023,0.198-0.044c0.034-0.053,0.029-0.122-0.011-0.17
		c-0.336-0.377-0.652-0.771-0.945-1.182c0.07-0.06,0.14-0.13,0.207-0.19c0.949-0.82,2.383-0.716,3.203,0.232
		c0.1,0.116,0.188,0.242,0.263,0.375c1.443,2.258,0.735,5.123-0.037,7.512C63.145,277.46,59.502,283.288,54.144,287.059z
		 M108.061,269.554c-3.029,0-4.302-1.56-4.913-2.311c-0.112-0.147-0.236-0.285-0.371-0.411c0.375-0.663,0.585-1.406,0.615-2.168
		c1.426-1.045,3.413-1.273,4.9-0.214c0.119,0.073,0.276,0.036,0.349-0.083c0.06-0.098,0.047-0.224-0.032-0.308
		c-1.436-1.366-3.727-1.062-5.267,0c-0.078-0.438-0.233-0.858-0.458-1.242c1.059-1.91,2.144-3.183,3.968-3.183
		c2.619,0,3.991,3.641,3.991,5.594S109.604,269.554,108.061,269.554z M103.973,269.04c1.463,2.085,2.628,4.364,3.464,6.77
		c0.468,1.516,1.586,5.424-0.571,5.948c-0.227,0-0.371-0.033-0.478-0.23c-0.14-0.401-0.221-0.821-0.24-1.246
		c-0.334-3.791-1.44-7.565-3.59-10.731l-0.023-0.037c-0.043-0.063-0.083-0.127-0.13-0.19c-0.234-0.354-0.621-0.868-0.888-1.286
		c0.335-0.153,0.63-0.381,0.862-0.668c0.087,0.09,0.168,0.185,0.244,0.284c0.386,0.501,0.835,0.95,1.336,1.336
		C103.959,269.007,103.964,269.024,103.973,269.04z M89.611,266.986c-3.067,1.494-5.884,3.454-8.35,5.811
		c-0.067-0.25-0.134-0.508-0.177-0.668c-0.094-0.287-0.197-0.571-0.314-0.852c2.723-2.418,5.802-4.402,9.128-5.885
		c-0.107,0.528-0.2,1.059-0.267,1.593H89.611z M90.653,267.276c0.137-2.562,0.578-7.087,4.008-6.92
		c0.765,0.023,1.413,0.488,2.044,0.908c1.072,0.722,2.056,1.566,2.932,2.515c0.052,0.066,0.143,0.089,0.22,0.053
		c0.297-0.157-0.18-0.768-0.625-1.249c0.538-0.581,1.556-0.878,2.268-0.301c0.727,0.549,1.172,1.394,1.212,2.305
		c0,1.092-0.504,2.338-1.493,2.859c-0.575,0.2-1.212-0.015-1.55-0.521H99.09c-1.162,2.164-2.565,4.749-5.097,5.421
		c-1.166,0.246-2.345-0.363-2.819-1.456c-0.484-1.092-0.544-2.398-0.501-3.614H90.653z M99.427,267.66
		c0.32,0.289,0.721,0.473,1.149,0.524h0.147c-0.586,0.734-1.066,1.547-1.426,2.415c-0.398,0.973-0.709,1.978-0.929,3.006
		c-0.287,1.576-0.12,3.12-0.227,4.676c-0.077,0.601-0.087,1.864-0.855,1.814c-0.55,0.008-1.079-0.211-1.463-0.605
		c-1.386-1.94-0.15-5.728,0.828-7.979c1.156-1.072,2.011-2.518,2.796-3.851H99.427z M61.262,285.506
		c0.005-0.038,0.005-0.076,0-0.114l0,0c-0.042-0.759,0.071-1.518,0.334-2.231c0.031-0.12-0.04-0.242-0.16-0.273
		c-0.085-0.022-0.176,0.007-0.231,0.076c-0.449,0.609-0.747,1.315-0.872,2.061c-0.462-0.003-0.919-0.108-1.336-0.307
		c1.368-1.52,2.585-3.17,3.634-4.926c0.073,0.185,0.15,0.365,0.23,0.541l0,0c-0.014,0.472-0.151,0.933-0.397,1.336
		c-0.046,0.08-0.019,0.182,0.061,0.228c0.022,0.013,0.047,0.021,0.073,0.022c0.493-0.003,0.967,0.189,1.319,0.534l0.03,0.03
		c0.528,0.544,1.319,1.363,1.426,2.391c0.007,0.044,0.03,0.084,0.063,0.114c0.036,0.028,0.082,0.04,0.127,0.033
		c0.519-0.016,1.038,0.044,1.54,0.177h0.033c0.094,0.053,0.19,0.097,0.287,0.144c0.055,0.311,0.142,0.616,0.261,0.908
		c0.326,0.879,0.954,1.614,1.77,2.074c0.128,0.051,0.274-0.011,0.326-0.139c0.045-0.112,0.003-0.24-0.099-0.305
		c-0.727-0.517-1.229-1.292-1.403-2.168c1.162,0.421,2.397,0.601,3.631,0.531c0.154-0.017,0.265-0.155,0.248-0.309
		c-0.014-0.131-0.118-0.234-0.248-0.248c-4.506-0.053-7.288-3.039-8.42-7.198c0-0.03-0.023-0.06-0.037-0.09l0.264-0.471
		c0.043-0.09,0.094-0.184,0.14-0.277c2.361,0.404,4.385-1.393,5.778-3.106c0.062-0.069,0.056-0.174-0.013-0.236
		c-0.061-0.055-0.154-0.057-0.218-0.005c-1.336,1.379-3.143,2.909-5.154,2.562c0.524-1.052,1.109-2.291,1.63-3.604l0.083-0.08
		c1.039-0.979,2.976-2.799,2.976-4.616c0-0.488-1.039-1.51-1.61-2.037c-0.031-0.976-0.316-1.927-0.828-2.759
		c2.735-0.818,4.739,0.815,5.361,3.624c0.021,0.132,0.145,0.222,0.277,0.2c0.132-0.021,0.222-0.145,0.2-0.277l0,0
		c-0.123-0.764-0.374-1.503-0.741-2.184c0.884,0.039,1.753,0.238,2.565,0.588c2.879,1.192,5.053,3.774,5.978,6.723
		c1.336,4.823-0.11,10.872-3.467,14.592c-2.085,2.304-5.1,3.541-8.203,3.367C65.153,290.302,61.556,288.658,61.262,285.506z
		 M34.692,325.401c-2.709-0.043-5.862-0.21-7.886-2.164c-2.061-2.107-1.222-5.514,0.872-7.288c2.118-1.937,4.799-3.063,7.371-4.278
		c2.572-1.216,5.297-2.315,7.959-3.47c7.228-2.966,14.228-6.713,20.197-11.79c-1.051,1.638-2.215,3.201-3.484,4.676
		c-0.144,0.157,0.1,0.377,0.244,0.23c1.464-1.477,2.818-3.059,4.051-4.733c0.621-0.838,1.216-1.693,1.774-2.582
		c0.531-0.791,0.979-1.635,1.336-2.518c9.469,1.503,15.267-7.785,14.505-16.877c-0.04-0.267-0.16-1.002-0.2-1.249l0,0
		c2.408-2.333,5.159-4.283,8.156-5.785c-0.147,1.311,0.057,2.638,0.591,3.844c0.731,1.416,2.498,1.947,3.981,1.613
		c0.568-0.162,1.106-0.415,1.593-0.748c-0.24,0.46-0.451,0.936-0.631,1.423c-0.394,1-0.642,2.052-0.738,3.123
		c-0.124,1.73,0.454,3.831,2.498,3.978c1.67,0.234,1.814-1.242,1.864-2.478c0.05-1.536-0.1-3.123,0.147-4.619
		c0.434-1.884,0.982-3.981,2.408-5.367c0.274,0.498,0.558,0.979,0.838,1.453c0.463,1.827,0.65,3.712,0.554,5.594
		c-0.271,5.721-2.478,11.175-5.324,16.085c-1.876,3.329-4.1,6.45-6.633,9.312c-5.324,5.948-12.572,10.892-20.784,10.892
		c-1.406,0-2.789-0.367-4.192-0.611c-1.913-0.384-3.855-0.614-5.805-0.688c-3.944-0.117-7.857,0.739-11.393,2.492
		c-3.527,1.747-6.543,4.342-9.038,7.308c-0.079,0.1-0.072,0.243,0.017,0.334c0.098,0.098,0.256,0.098,0.354,0
		c1.322-1.374,2.741-2.652,4.245-3.824c1.614-1.256,3.369-2.319,5.23-3.166c-0.688,0.708-1.313,1.456-1.924,2.224
		c-1.654,2.033-3.027,4.28-4.081,6.68c-0.23,0.551-0.451,1.132-0.651,1.723C40.08,324.703,37.364,325.371,34.692,325.401z
		 M76.108,326.37c0.039,1.455-0.188,2.905-0.668,4.278c-0.391,0.936-0.958,1.789-1.67,2.512c-1.54,1.51-3.34,2.765-4.94,4.242
		c0.053-0.19,0.107-0.391,0.157-0.618c0.218-1.221,0.312-2.461,0.281-3.701c0-0.092-0.075-0.167-0.167-0.167
		c-0.092,0-0.167,0.075-0.167,0.167c-0.04,2.338-0.521,4.853-2.228,6.496c-2.301,2.211-6.92,2.268-9.826,1.353
		c-3.767-1.283-5.01-4.609-6.042-8.133c-0.025-0.092-0.12-0.147-0.212-0.122c-0.092,0.025-0.147,0.12-0.122,0.212
		c0.199,1.193,0.474,2.373,0.825,3.53c-1.161-0.29-2.29-0.7-3.367-1.222c-2.749-1.276-5.144-3.794-4.92-6.98
		c0.05-1.232,0.246-2.454,0.584-3.641l0,0c1.099-3.934,3.594-7.755,6.289-10.628c0.292,0.73,0.749,1.383,1.336,1.907
		c0.092,0.107,0.254,0.119,0.361,0.027c0.107-0.092,0.119-0.254,0.027-0.361c-0.544-0.805-0.898-1.67-0.755-2.645
		c0.803-0.307,1.623-0.57,2.455-0.788c0.434,0.466,1.034,0.743,1.67,0.772c1.486,0,2.538-0.768,3.313-1.526
		c0.528-0.02,1.059-0.027,1.593,0c1.9,0.072,3.79,0.295,5.655,0.668l0.828,0.154c1.089,0.741,1.693,1.627,1.864,2.739
		c-3.757-1.399-8.016-1.45-11.496,0.334c-0.041,0.027-0.055,0.08-0.033,0.124c0.026,0.044,0.083,0.059,0.127,0.033
		c0.78-0.393,1.618-0.657,2.482-0.782c2.578-0.489,5.241-0.266,7.702,0.645c4.666,1.72,8.978,5.962,9.078,11.125L76.108,326.37z
		 M72.31,317.071c-1.033-0.765-2.154-1.403-3.34-1.9c-0.063-1.042-0.5-2.026-1.229-2.772c0.728,0.133,1.465,0.208,2.204,0.224
		c8.998,0,16.827-5.701,22.378-12.358c1.293-1.55,2.538-3.156,3.701-4.816c0.053,0.397,0.114,0.782,0.18,1.156
		c-1.64,2.699-3.3,6.312-4.556,9.258c-1.278,0.057-2.533,0.354-3.701,0.875c-2.649,1.242-3.283,3.634-2.598,5.892
		c-0.75,0.583-1.437,1.242-2.051,1.967c-0.374,0.448-0.738,0.902-1.075,1.373C79.611,315.809,73.746,316.564,72.31,317.071z
		 M126.137,313.731c0.16,0.193,0.307,0.397,0.438,0.611c-0.304-0.023-0.601-0.033-0.882-0.03c-3.438,0-6.75,1.288-9.285,3.61
		c-0.071,0.059-0.081,0.164-0.022,0.235c0.059,0.071,0.164,0.081,0.235,0.022c2.612-1.953,5.801-2.977,9.061-2.909
		c2.448,0.08,5.892,0.865,6.68,3.464c0.234,1.864-0.615,3.804-1.847,5.21c-3.186,3.5-8.741,4.783-13.086,2.772
		c-0.081-0.044-0.182-0.013-0.226,0.068c-0.038,0.071-0.02,0.159,0.042,0.209c0.425,0.32,0.885,0.592,1.369,0.812
		c-1.67,0.554-3.53,0.598-5.28,0.698c-1.038,0.036-2.077,0.011-3.113-0.073c-3.143-0.277-6.012-1.463-9.018-2.438
		c-3.096-0.959-6.416-1.516-9.666-1.259c-2.812,0.107-6.596,0.384-8.811-1.566c-1.566-1.67-0.915-4.068,0.334-6.226
		c0.079-0.071,0.135-0.164,0.16-0.267c0.714-1.153,1.537-2.234,2.458-3.23c0.402,0.888,0.969,1.691,1.67,2.368
		c0.489,0.498,1.071,0.894,1.713,1.166c0.086,0.034,0.183-0.008,0.217-0.094c0.027-0.069,0.006-0.147-0.053-0.193
		c-0.491-0.403-0.926-0.87-1.293-1.389c-3.34-4.846-1.466-7.491,3.53-8.968c-0.818,1.941-1.44,3.534-1.73,4.295
		c-0.16-0.257-0.304-0.524-0.431-0.798c-0.035-0.078-0.121-0.119-0.204-0.097c-0.093,0.024-0.148,0.119-0.124,0.212
		c0,0.001,0,0.001,0,0.002c0.145,0.568,0.37,1.112,0.668,1.617c0.641,1.196,2.568,2.101,3.928,2.101
		c4.008,0,7.682-7.014,7.846-7.314l0,0c0.638-0.75,1.52-1.249,2.492-1.409c0.584-0.049,1.169,0.089,1.67,0.394
		c1.085,0.607,2.077,1.369,2.942,2.261c0.129,0.125,0.248,0.259,0.357,0.401c-2.422,0.764-4.685,1.962-6.68,3.534
		c-0.762,0.254-2.368,0.962-4.476,2.802c-0.069,0.061-0.076,0.167-0.017,0.237c0.033,0.036,0.079,0.056,0.127,0.057
		c0.041-0.001,0.08-0.016,0.11-0.043c1.007-0.9,2.122-1.671,3.32-2.295c-0.965,0.823-1.868,1.716-2.702,2.672
		c-0.058,0.072-0.046,0.177,0.025,0.235c0.067,0.054,0.165,0.048,0.225-0.014c1.951-1.991,4.219-3.645,6.71-4.896
		c2.465-1.242,5.157-2.051,7.882-1.9c4.746,0.147,9.739,1.516,12.732,5.354L126.137,313.731z M112.182,279.076
		c-0.304,4.342-2.198,8.176-3.547,12.324c-0.823,2.534-1.45,5.128-1.874,7.759c-1.859-1.261-3.32-3.025-4.212-5.087
		c-0.038-0.084-0.137-0.121-0.221-0.083c-0.074,0.033-0.113,0.115-0.093,0.194c0.765,2.421,2.431,4.482,4.435,6.039
		c0.069,0.155,0.213,0.264,0.381,0.287l0.461,0.334c0.797,0.551,1.657,1.007,2.562,1.356c2.575,0.972,5.177,1.984,6.984,4.078
		c0.394,0.457,0.731,0.96,1.002,1.5c-2.231-0.435-4.514-0.542-6.777-0.317c-0.334,0.05-0.668,0.114-1.002,0.187
		c-0.258-0.364-0.578-0.679-0.945-0.932c-1.068-0.79-2.228-1.449-3.453-1.961c-1.627-0.835-3.443-0.114-4.729,1.002
		c-0.795-0.765-3.747-4.041-4.536-11.135c1.129-1.662,2.146-3.399,3.043-5.197c2.655-5.467,4.539-11.793,3.417-17.865
		c0.494,1.04,0.907,2.116,1.236,3.22c0.36,1.21,0.621,2.448,0.782,3.701c0.083,0.628,0.15,1.256,0.224,1.904
		c0.104,0.701,0.164,1.67,0.945,2.004c0.782,0.334,1.67-0.197,2.047-0.888c0.335-0.621,0.488-1.324,0.441-2.027
		c-0.072-1.311-0.332-2.604-0.772-3.841c-0.721-2.087-1.675-4.087-2.842-5.962c0.923,0.384,1.916,0.572,2.916,0.554
		c1.353,0,2.468-1.232,3.039-2.765C112.015,271.257,112.382,275.171,112.182,279.076z M116.434,267.009
		c-0.701-0.505-1.242-1.201-1.56-2.004c1.195,0.051,2.383,0.215,3.547,0.491c0.091,0.017,0.178-0.044,0.194-0.134
		c0.014-0.076-0.026-0.152-0.097-0.183c-1.167-0.367-2.368-0.621-3.584-0.758c-1.16-0.138-2.33-0.176-3.497-0.114
		c-0.334-2.275-1.87-5.344-4.586-5.344c-0.614-0.006-1.221,0.134-1.77,0.407c-1.496-2.288-4.058-5.411-7.835-7.515
		c-0.082-0.562-0.193-1.12-0.334-1.67c-0.191-0.799-0.478-1.571-0.855-2.301c1.098-0.412,2.149-0.941,3.133-1.58
		c0.097,0.074,0.213,0.12,0.334,0.134c0.802,0.115,1.616,0.115,2.418,0c2.394-0.314,4.722-1.012,6.894-2.067
		c0.068-0.015,0.131-0.048,0.184-0.094c0.144-0.073,0.287-0.14,0.431-0.217l0.02-0.02c0.431,0,1.039,0.374,1.513,0.805
		c2.013,1.946,3.604,4.284,4.676,6.87c0.026,0.092,0.122,0.146,0.214,0.12c0.092-0.026,0.146-0.122,0.12-0.214l0,0
		c-0.291-2.118-4.943-10.481-7.532-7.972c-0.091,0.087-0.138,0.209-0.13,0.334c-0.608,0.223-1.228,0.425-1.86,0.608
		c0-0.194,0-0.407,0.023-0.588c0.257-2.769,2.922-4.048,5.464-3.443c3.006,0.745,5.093,3.276,6.707,5.832
		c2.169,3.595,3.569,7.6,4.111,11.763C123.278,262.517,122.833,270.983,116.434,267.009z M141.13,261.632
		c-0.654-0.31-1.243-0.741-1.737-1.269c-1.136-1.085-2.288-2.171-3.464-3.226c-1.827-1.583-3.55-3.27-5.765-4.379
		c-1.48-0.668-3.119-0.668-4.532-1.286c-0.557-0.234-1.005-0.671-1.252-1.222c1.096-1.269,1.526-3.31,1.303-4.86
		c-0.019-0.092-0.11-0.151-0.202-0.132c-0.092,0.019-0.151,0.11-0.132,0.202c0.1,1.87-1.062,5.01-3.276,4.973
		c-0.51-1.279-1.099-2.525-1.763-3.731c0.558-0.592,0.829-1.399,0.741-2.208c-0.227-1.586-0.902-2.568-2.004-2.922
		c-0.841-0.219-1.729-0.166-2.538,0.15c-0.42-0.381-0.867-0.733-1.336-1.052c0.758-1.573,2.953-2.391,4.582-2.051
		c1.977,0.411,3.744,1.51,4.987,3.103l0.177,0.267c1.336-1.336,3.15-2.231,5.047-2.198c1.396,0.08,2.672,0.848,3.838,1.573
		c0.069,0.048,0.162,0.036,0.217-0.027c0.065-0.065,0.066-0.171,0.001-0.236c0,0-0.001-0.001-0.001-0.001
		c-0.638-0.567-1.349-1.046-2.114-1.423c-2.288-1.199-5.137-0.224-6.864,1.536c-0.208-0.403-0.467-0.776-0.772-1.112
		c-0.855-0.955-1.916-1.703-3.103-2.188c-0.073-1.44,0.264-3.116,1.687-3.654c1.67-0.778,3.407-1.182,4.977-2.211
		c0.12-0.083,0.232-0.177,0.334-0.281c0.239-0.287,0.426-0.613,0.551-0.965c0.725-2.338-0.281-4.866,0.601-7.064
		c0.289-0.551,0.842-0.915,1.463-0.962c1.401-0.238,2.82,0.308,3.701,1.423c2.178,2.478,1.817,5.715-0.207,8.173
		c-0.504,0.603-1.04,1.179-1.607,1.723c-0.075,0.084-0.075,0.21,0,0.294c0.085,0.085,0.222,0.085,0.307,0c0,0,0,0,0,0
		c0.554-0.504,1.129-1.002,1.65-1.59c1.476,3.958,4.612,7.014,6.997,10.384c1.313,1.81,2.796,3.427,3.737,5.304
		c0.786,1.496,1.033,3.217,0.698,4.873c-0.21-0.451-0.424-0.878-0.618-1.263c-1.67-3.046-3.881-6.012-7.124-7.532
		c-0.06-0.544-0.134-1.082-0.23-1.62c-0.227-1.032-0.431-2.141-1.049-3.026c-0.05-0.076-0.151-0.097-0.227-0.047
		c-0.076,0.05-0.097,0.151-0.047,0.227c0.068,0.106,0.127,0.217,0.174,0.334c0.448,1.391,0.708,2.835,0.772,4.295
		c-0.025,0.079-0.019,0.165,0.017,0.24c0.027,0.384,0.047,0.768,0.063,1.149c0.043,1.541-0.036,3.084-0.237,4.612
		c-0.047,0.518-0.16,1.022-0.224,1.54c-0.01,0.082,0.041,0.16,0.12,0.184c0.088,0.023,0.179-0.029,0.204-0.117
		c0.181-0.632,0.327-1.273,0.438-1.92c1.067,0.892,2.04,1.891,2.902,2.983c1.182,1.51,2.124,3.206,2.421,5.087
		C143.718,260.008,143.21,262.49,141.13,261.632L141.13,261.632z M145.027,260.139c-0.246,0.159-0.511,0.287-0.788,0.381
		c0.14-0.713,0.14-1.447,0-2.161c-0.695-3.59-3.307-6.426-6.035-8.664c0.201-1.431,0.253-2.88,0.154-4.322
		c1.3,0.763,2.453,1.753,3.403,2.922c2.087,2.568,3.871,5.741,4.476,8.988C146.46,258.393,145.98,259.527,145.027,260.139
		L145.027,260.139z M93.749,267.59c0.814-0.651,1.745-1.141,2.742-1.443c-0.857,0.427-1.603,1.047-2.181,1.81
		c-0.069,0.111-0.042,0.256,0.063,0.334c0.043,0.027,0.093,0.042,0.144,0.043c0.083-0.002,0.159-0.043,0.207-0.11
		c1.24-1.559,3.153-2.429,5.144-2.338c0.138,0.006,0.255-0.101,0.261-0.24c0.005-0.127-0.085-0.238-0.211-0.258
		c-3.701-0.628-6.386,1.697-6.5,1.797c-0.104,0.092-0.114,0.251-0.022,0.356c0.092,0.104,0.251,0.114,0.356,0.022l0,0L93.749,267.59
		z M72.374,274.861c0.845,0.41,1.661,0.879,2.441,1.403c0.741,0.54,1.447,1.125,2.114,1.753c0.102,0.098,0.265,0.095,0.364-0.007
		c0.067-0.07,0.089-0.172,0.057-0.263c-0.792-1.907-2.926-2.876-4.81-3.34c-0.14-0.01-0.262,0.095-0.272,0.234
		c-0.006,0.085,0.031,0.168,0.098,0.22H72.374z M73.192,272.189c1.849,0.581,3.618,1.392,5.264,2.415
		c0.12,0.073,0.276,0.035,0.349-0.084c0.055-0.089,0.049-0.203-0.015-0.286c-0.688-0.799-1.56-1.419-2.542-1.804
		c-0.956-0.446-1.992-0.697-3.046-0.738c-0.139-0.005-0.256,0.105-0.261,0.244c-0.005,0.139,0.105,0.256,0.244,0.261l0,0
		L73.192,272.189z M73.192,269.337c0.449,0.053,0.895,0.13,1.336,0.23c1.336,0.334,2.512,0.972,3.751,1.617
		c0.124,0.065,0.278,0.017,0.342-0.108c0.051-0.098,0.033-0.218-0.045-0.296c-1.441-1.382-3.4-2.088-5.391-1.944
		c-0.14,0.001-0.253,0.116-0.251,0.256c0.001,0.14,0.115,0.252,0.255,0.251L73.192,269.337z M51.616,307.352
		c3.811-1.546,7.829-2.462,11.89-3.22c3.253-0.611,6.553-1.136,9.773-2.027c0.092-0.022,0.149-0.115,0.127-0.207
		s-0.115-0.149-0.207-0.127c-3.246,0.668-6.546,0.982-9.839,1.473c-4.108,0.591-8.29,1.366-12.244,2.762
		c-0.895,0.301-2.094,0.795-2.953,1.162c-4.232,2.064-9.308,4.606-10.805,9.435c-0.014,0.059,0.022,0.119,0.082,0.133
		c0.032,0.008,0.066,0.001,0.092-0.019c0.698-0.528,1.279-1.106,1.88-1.67c1.73-1.7,3.5-3.253,5.644-4.442
		c2.102-1.243,4.293-2.328,6.556-3.246L51.616,307.352z M70.634,319.92c-5.381-1.808-11.272-1.298-16.262,1.409
		c-1.596,0.952-3.45,1.867-4.195,3.691c-0.035,0.095,0.015,0.201,0.11,0.235c0.039,0.014,0.081,0.015,0.121,0.002
		c0.839-0.348,1.626-0.81,2.338-1.373c0.712-0.523,1.456-1.002,2.228-1.433c4.703-2.639,10.29-3.323,15.557-2.211
		c0.083,0.018,0.167-0.029,0.194-0.11c0.028-0.082-0.013-0.171-0.094-0.204L70.634,319.92z"/>
</g>
</svg>
